<?xml version="1.0" encoding="utf-8"?>
<!-- Generator: Adobe Illustrator 26.1.0, SVG Export Plug-In . SVG Version: 6.00 Build 0)  -->
<svg width="150" version="1.1" id="icons" xmlns="http://www.w3.org/2000/svg" xmlns:xlink="http://www.w3.org/1999/xlink" x="0px" y="0px"
	 viewBox="0 0 208.7 281.8" style="enable-background:new 0 0 208.7 281.8;" xml:space="preserve">
<style type="text/css">
	.st0{fill:#EF5A28;}
	.st1{fill:#FFB10A;}
	.st2{fill:#FFFFFF;}
</style>
<g>
	<g>
		<rect x="105.5" y="189.5" class="st0" width="27.1" height="8.1"/>
		<rect x="105.5" y="176" class="st0" width="27.1" height="8.1"/>
		<rect x="105.5" y="162.5" class="st0" width="27.1" height="8.1"/>
		<rect x="105.5" y="135.9" class="st0" width="27.1" height="8.1"/>
		<rect x="111.6" y="149.5" class="st0" width="20.9" height="8.1"/>
	</g>
	<ellipse transform="matrix(0.978 -0.2087 0.2087 0.978 -27.0979 18.2129)" class="st1" cx="72.8" cy="137.5" rx="20.2" ry="20.2"/>
	<path class="st1" d="M145.8,93.6c-1.4,0-2.5-1.1-2.5-2.5v-7.8c0-3.4,3-6.2,6.7-6.2h13.5c1,0,1.5-0.5,1.7-0.9
		c0.1-0.3,0.1-0.6-0.1-0.8l-32.6-26.9c-1.6-1.2-2.2-1.1-3.6,0L96.3,75.4c-0.2,0.3-0.2,0.5-0.1,0.8c0.2,0.4,0.7,0.9,1.7,0.9h12.8
		c3.7,0,6.7,2.8,6.7,6.2c0,1.4-1.1,2.5-2.5,2.5s-2.5-1.1-2.5-2.5c0-0.7-0.8-1.2-1.8-1.2H97.9c-2.7,0-5.2-1.5-6.2-3.8
		c-0.9-2.1-0.6-4.5,1-6.3c0.1-0.1,0.2-0.2,0.3-0.3l32.8-27c3.3-2.6,6.5-2.6,9.8-0.1l32.9,27.1c0.1,0.1,0.2,0.2,0.3,0.3
		c1.6,1.8,2,4.2,1,6.3c-1,2.3-3.5,3.8-6.2,3.8H150c-0.9,0-1.8,0.6-1.8,1.2v7.8C148.2,92.4,147.1,93.5,145.8,93.6L145.8,93.6z"/>
	<path class="st2" d="M57.2,87.1c-1.4,0-2.5-1.1-2.5-2.5v-9.7c0-0.8-0.9-1.4-2-1.4H39.3c-2.8,0-5.3-1.5-6.4-4c-1-2.2-0.6-4.7,1-6.5
		c0.1-0.1,0.2-0.2,0.3-0.3l34.3-28.3c3.4-2.7,6.6-2.7,10.1-0.1l17.2,14c1.1,0.9,1.2,2.4,0.4,3.5s-2.4,1.2-3.5,0.4L75.6,38.4
		c-1.7-1.3-2.5-1.2-4,0L37.6,66.5c-0.2,0.3-0.3,0.7-0.1,1c0.2,0.5,0.8,1,1.9,1h13.4c3.8,0,6.9,2.8,6.9,6.4v9.7
		C59.7,86,58.6,87.1,57.2,87.1L57.2,87.1z"/>
	<path class="st2" d="M152.9,227.1H29.5c-1.4,0-2.5-1.1-2.5-2.5V94.3c0-1.4,1.1-2.5,2.5-2.5h123.5c1.4,0,2.5,1.1,2.5,2.5v130.3
		C155.4,226,154.3,227.1,152.9,227.1z M32,222.1h118.5V96.8H32V222.1z"/>
	<path class="st2" d="M176.6,235.7c-0.3,0-0.6-0.1-0.9-0.2l-23-8.8c-1.3-0.5-1.9-1.9-1.4-3.2s1.9-1.9,3.2-1.4l22.5,8.6l6.1,0V88.6
		h-5.6l-23.9,8.1c-1.3,0.4-2.7-0.3-3.1-1.6c-0.4-1.3,0.3-2.7,1.6-3.1l24.3-8.2c0.2-0.1,0.5-0.1,0.8-0.1h8.4l0,0
		c0.7,0,1.3,0.3,1.8,0.7c0.5,0.5,0.7,1.1,0.7,1.8v147c0,1.4-1.1,2.5-2.5,2.5L176.6,235.7L176.6,235.7L176.6,235.7z"/>
	<path class="st2" d="M62,239H46c-1.1,0-2-0.7-2.3-1.7l-3.5-10.2c-0.4-1.3,0.2-2.7,1.5-3.2c1.3-0.5,2.7,0.2,3.2,1.5l2.9,8.5h12.5
		l2.9-8.1c0.5-1.3,1.9-2,3.2-1.5c1.3,0.5,2,1.9,1.5,3.2l-3.5,9.7C64,238.3,63,239,62,239L62,239z"/>
	<path class="st2" d="M138.3,239h-16c-1.1,0-2-0.7-2.4-1.7l-3.5-10.2c-0.4-1.3,0.2-2.7,1.6-3.2c1.3-0.5,2.7,0.2,3.1,1.5l2.9,8.5
		h12.5l2.9-8.1c0.5-1.3,1.9-2,3.2-1.5c1.3,0.5,2,1.9,1.5,3.2l-3.5,9.7C140.3,238.3,139.3,239,138.3,239L138.3,239z"/>
	<circle class="st2" cx="18" cy="212.6" r="2.5"/>
	<circle class="st2" cx="196.2" cy="199.6" r="2.5"/>
	<circle class="st2" cx="100.5" cy="56.9" r="2.5"/>
	<path class="st2" d="M73.2,154.1c-1.3,0-2.4-1.1-2.5-2.4l0-1.4c0-1.4,1.1-2.5,2.4-2.5c1.4-0.1,2.5,1,2.5,2.4l0,1.4
		C75.7,153,74.6,154.1,73.2,154.1C73.3,154.1,73.2,154.1,73.2,154.1z"/>
	<path class="st2" d="M72.5,150.9c-4.2,0-7.1-2.6-7.9-3.5c-0.9-1-0.9-2.6,0.1-3.5c1-1,2.6-0.9,3.5,0.1c0.4,0.4,2.3,2.2,4.9,2
		c1.3-0.1,3.5-0.8,3.9-2.2c0.3-0.8-0.1-2.1-0.8-2.9c-0.8-1-2.1-1.1-4-1.3c-2.2-0.2-5-0.5-6.9-3c-1.6-2.1-2-4.9-1.1-7.3
		c1.4-3.5,5.4-5,8.4-4.9c3.7,0.2,6.1,2.5,6.9,3.5c0.9,1,0.8,2.6-0.3,3.5c-1.1,0.9-2.6,0.8-3.5-0.3c-0.3-0.4-1.6-1.7-3.3-1.7
		c-1.4-0.1-3.2,0.6-3.6,1.7c-0.2,0.6-0.2,1.7,0.4,2.5c0.6,0.8,1.7,0.9,3.5,1.1c2.2,0.2,5,0.5,7.2,3c1.9,2.1,2.6,5.1,1.8,7.6
		c-1.1,3.7-5.1,5.4-8.2,5.7C73.1,150.9,72.8,150.9,72.5,150.9L72.5,150.9z"/>
	<path class="st2" d="M141.2,216.4h-2.1c-1.4,0-2.5-1.1-2.5-2.5s1.1-2.5,2.5-2.5h2.1c1.4,0,2.5,1.1,2.5,2.5S142.5,216.4,141.2,216.4
		z M126.7,216.4H123c-1.4,0-2.5-1.1-2.5-2.5s1.1-2.5,2.5-2.5h3.7c1.4,0,2.5,1.1,2.5,2.5S128,216.4,126.7,216.4z M110.5,216.4h-3.7
		c-1.4,0-2.5-1.1-2.5-2.5s1.1-2.5,2.5-2.5h3.7c1.4,0,2.5,1.1,2.5,2.5S111.9,216.4,110.5,216.4z M94.4,216.4h-3.7
		c-1.4,0-2.5-1.1-2.5-2.5s1.1-2.5,2.5-2.5h3.7c1.4,0,2.5,1.1,2.5,2.5S95.8,216.4,94.4,216.4z M78.3,216.4h-3.7
		c-1.4,0-2.5-1.1-2.5-2.5s1.1-2.5,2.5-2.5h3.7c1.4,0,2.5,1.1,2.5,2.5S79.7,216.4,78.3,216.4z M62.2,216.4h-3.7
		c-1.4,0-2.5-1.1-2.5-2.5s1.1-2.5,2.5-2.5h3.7c1.4,0,2.5,1.1,2.5,2.5S63.5,216.4,62.2,216.4z M46,216.4h-3.7c-1.4,0-2.5-1.1-2.5-2.5
		s1.1-2.5,2.5-2.5H46c1.4,0,2.5,1.1,2.5,2.5S47.4,216.4,46,216.4z"/>
	<path class="st2" d="M141.8,205.2H40.7c-1.4,0-2.5-1.1-2.5-2.5v-96.6c0-1.4,1.1-2.5,2.5-2.5h101.1c1.4,0,2.5,1.1,2.5,2.5v96.6
		C144.3,204.1,143.1,205.2,141.8,205.2z M43.1,200.2h96.2v-91.6H43.1V200.2z"/>
	<path class="st2" d="M17.5,202.7c-1.4,0-2.5-1.1-2.5-2.5v-90.6c0-1.4,1.1-2.5,2.5-2.5s2.5,1.1,2.5,2.5v90.6
		C20,201.6,18.9,202.7,17.5,202.7z"/>
	<path class="st2" d="M196,191.4c-1.4,0-2.5-1.1-2.5-2.5v-79.3c0-1.4,1.1-2.5,2.5-2.5s2.5,1.1,2.5,2.5v79.3
		C198.5,190.3,197.4,191.4,196,191.4L196,191.4z"/>
	<path class="st2" d="M177.2,234.3c-1.4,0-2.5-1.1-2.5-2.5V88.8c0-1.4,1.1-2.5,2.5-2.5s2.5,1.1,2.5,2.5v143.1
		C179.7,233.2,178.6,234.3,177.2,234.3z"/>
	<path class="st1" d="M95.5,198.9c-1.4,0-2.5-1.1-2.5-2.5v-4.1H55.8v4.1c0,1.4-1.1,2.5-2.5,2.5s-2.5-1.1-2.5-2.5v-6.5
		c0-1.4,1.1-2.5,2.5-2.5h42.2c1.4,0,2.5,1.1,2.5,2.5v6.6C98,197.8,96.9,198.9,95.5,198.9L95.5,198.9z"/>
	<path class="st1" d="M95.5,185.9c-1.4,0-2.5-1.1-2.5-2.5v-4.1H55.8v4.1c0,1.4-1.1,2.5-2.5,2.5s-2.5-1.1-2.5-2.5v-6.5
		c0-1.4,1.1-2.5,2.5-2.5h42.2c1.4,0,2.5,1.1,2.5,2.5v6.6C98,184.8,96.9,185.9,95.5,185.9L95.5,185.9z"/>
	<path class="st1" d="M95.5,172.9c-1.4,0-2.5-1.1-2.5-2.5v-4.1H55.8v4.1c0,1.4-1.1,2.5-2.5,2.5s-2.5-1.1-2.5-2.5v-6.5
		c0-1.4,1.1-2.5,2.5-2.5h42.2c1.4,0,2.5,1.1,2.5,2.5v6.6C98,171.7,96.9,172.9,95.5,172.9L95.5,172.9z"/>
	<path class="st2" d="M71.9,127.4c-1.3,0-2.4-1.1-2.5-2.4l0-1.7c0-1.4,1.1-2.5,2.4-2.5c1.3-0.1,2.5,1,2.5,2.4l0,1.7
		C74.4,126.2,73.3,127.4,71.9,127.4C71.9,127.4,71.9,127.4,71.9,127.4L71.9,127.4z"/>
</g>
</svg>
