<?xml version="1.0" encoding="utf-8"?>
<!-- Generator: Adobe Illustrator 26.1.0, SVG Export Plug-In . SVG Version: 6.00 Build 0)  -->
<svg width="150" version="1.1" id="icons" xmlns="http://www.w3.org/2000/svg" xmlns:xlink="http://www.w3.org/1999/xlink" x="0px" y="0px"
	 viewBox="0 0 208.7 263.1" style="enable-background:new 0 0 208.7 263.1;" xml:space="preserve">
<style type="text/css">
	.st0{fill:#FFB10A;}
	.st1{fill:#EF5A28;}
	.st2{fill:#FFFFFF;}
</style>
<g>
	<path class="st0" d="M116.1,71c2.1-2,3.3-4.7,3.3-7.8c0-5.9-4.8-10.7-10.7-10.7S98,57.3,98,63.3c0,3.1,1.3,5.9,3.5,7.9h-0.3v13.2
		l7.7-5.1l7.7,5.1V71H116.1L116.1,71z"/>
	<path class="st1" d="M165.9,160.6c-2.4,1.4-5.9,2.8-10.1,5.5c-9.8,6.3-21.7,14.7-23.8,15.5c-3.6,1.4-7.7,2.3-23.5-1.2
		c-14.9-3.4-26.5-6.3-32.7-6c-5.1,0.2-19.7,2.2-19.7,2.2l-6.5-30.8c-0.6,0.2-1.2,0.5-1.8,0.6l8.3,39.2c0,0,14.6-2,19.7-2.2
		c6.2-0.2,17.8,2.7,32.7,6c15.8,3.6,19.9,2.6,23.5,1.2c2.1-0.8,13.9-9.2,23.8-15.5c6.9-4.4,12.1-5.5,13.2-8.5
		C170,163.9,168.2,161.7,165.9,160.6L165.9,160.6z"/>
	<path class="st1" d="M100.4,160.2l19.3,8.8c0.7,0.3,1.4,0.5,2.1,0.5c1.5,0,2.9-0.6,4-1.8c0.7-0.8,0.7-0.8,0,0
		c0.3-0.4,0.6-0.8,0.8-1.3c0.3-0.6,0.4-1.2,0.4-1.8c0.3-0.2,0.5-0.5,0.8-0.7c0.5-0.5,0.9-1.1,1.2-1.7c0.7-1.4,1-2.9,0.9-4.3
		c-0.1-1.4-0.5-2.9-1.4-4.1c0.2-0.2,0.3-0.5,0.4-0.7c0.1-0.1,0.1-0.2,0.1-0.2l-0.9-0.4l-1.4-0.6c0.6,0.4,1.1,0.9,1.5,1.5
		c0,0.4-0.1,0.9-0.2,1.3c-0.1,0.2-0.1,0.5-0.2,0.7c-0.9,1.9-2.8,3.1-4.8,3.1c-0.7,0-1.4-0.2-2.1-0.5l-1.7-0.8l-13.5-6.1v0l-0.9-0.4
		c-0.7-0.3-1.4-0.5-2.1-0.5c-2,0-3.9,1.2-4.8,3.1C96.6,155.8,97.7,158.9,100.4,160.2L100.4,160.2z"/>
	<polygon class="st0" points="155.8,160.1 130.6,166.6 129.7,153.6 123.6,148.6 123.6,111.3 155.8,111.3 	"/>
	<ellipse transform="matrix(0.9122 -0.4097 0.4097 0.9122 -34.1805 29.739)" class="st0" cx="52.3" cy="94.6" rx="26.2" ry="26.2"/>
	<path class="st2" d="M146,15.1c0,1.4-1.1,2.6-2.6,2.6s-2.6-1.2-2.6-2.6s1.1-2.6,2.6-2.6S146,13.7,146,15.1z"/>
	<path class="st1" d="M50.3,131.7c-8.8,0-17.4-3.3-24-9.5c-1.4-1.3-2.7-2.7-3.9-4.2c-5.8-7.5-8.4-16.7-7.2-26.1
		c0.2-1.4,1.4-2.3,2.8-2.2c1.4,0.2,2.3,1.4,2.1,2.8c-1,8.1,1.2,16,6.2,22.5c1,1.3,2.1,2.5,3.4,3.7c6.7,6.2,15.6,9.1,24.6,7.9
		c1.4-0.2,2.6,0.8,2.8,2.1c0.2,1.4-0.8,2.6-2.1,2.8C53.3,131.6,51.8,131.7,50.3,131.7L50.3,131.7z"/>
	<g>
		<path class="st2" d="M53.9,113.9c-1.3,0-2.4-1-2.5-2.4l-0.1-1.8c0-1.4,1-2.5,2.4-2.6c1.4,0,2.5,1,2.6,2.4l0.1,1.8
			C56.4,112.7,55.4,113.9,53.9,113.9C54,113.9,53.9,113.9,53.9,113.9z"/>
		<path class="st2" d="M52.8,83.9c-1.3,0-2.4-1-2.5-2.4l-0.1-2c0-1.4,1-2.5,2.4-2.6c1.4-0.1,2.5,1,2.6,2.4l0.1,2
			C55.3,82.7,54.2,83.8,52.8,83.9C52.8,83.9,52.8,83.9,52.8,83.9z"/>
		<path class="st2" d="M53,110.8c-4.8,0-8.1-3-9.1-3.9c-1-1-1-2.5,0-3.5c1-1,2.5-1,3.5,0c0.5,0.5,3,2.8,6.3,2.4
			c1.7-0.2,4.5-1.2,5.1-3c0.3-1.2-0.1-2.8-1.1-4c-1.2-1.3-2.7-1.5-5.1-1.7c-2.6-0.2-5.8-0.5-8-3.3c-1.8-2.3-2.4-5.6-1.4-8.3
			c1.5-3.9,5.8-5.7,9.3-5.7c0.1,0,0.2,0,0.3,0c4.3,0.1,7,2.8,8,3.9c0.9,1,0.8,2.6-0.2,3.5c-1,0.9-2.6,0.8-3.5-0.2
			c-0.4-0.5-2-2.2-4.4-2.2c-1.9,0-4.2,0.8-4.8,2.4c-0.4,1.1-0.1,2.5,0.6,3.5c0.9,1.1,2.2,1.3,4.6,1.5c2.6,0.2,5.9,0.5,8.4,3.3
			c2.2,2.4,3,5.8,2.2,8.7c-1.2,4.2-5.8,6.2-9.3,6.6C53.8,110.8,53.4,110.8,53,110.8L53,110.8z"/>
	</g>
	<path class="st2" d="M45.6,205.4c-1.2,0-2.2-0.8-2.5-2.1c-0.2-1.4,0.7-2.7,2-2.9l10.8-2l-11-53l-4.4,1c-1.3,0.3-2.7-0.5-3-1.9
		c-0.3-1.3,0.5-2.7,1.9-3l6.9-1.5c0.7-0.2,1.3,0,1.9,0.3c0.6,0.4,1,0.9,1.1,1.6l12,58c0.1,0.7,0,1.3-0.4,1.9c-0.4,0.6-1,0.9-1.6,1.1
		l-13.3,2.5C45.9,205.4,45.8,205.4,45.6,205.4L45.6,205.4z"/>
	<path class="st2" d="M125.9,195.5c-3.7,0-9-0.7-17.4-2.6c-1.9-0.4-3.8-0.9-5.7-1.3c-12.1-2.8-21.6-5-26.7-4.7
		c-5,0.2-19.5,2.2-19.7,2.2c-1.3,0.2-2.5-0.7-2.8-2l-8.4-39.7c-0.3-1.3,0.5-2.5,1.7-2.9c5-1.6,11-4.8,16.3-7.7
		c4.8-2.6,8.6-4.6,11-5.1c6.1-1.3,10-1.6,14.9-1.3c3.6,0.2,12.9,5.1,27.8,13.3c3.8,2.1,7.4,4,10.5,5.7c5.3,2.8,7.4,9.4,4.6,14.7
		c-0.2,0.3-0.3,0.6-0.5,0.8c2.4-0.7,4.9-1.7,7.5-2.7c8.3-3.3,17.8-7.1,27.9-3.5l0,0c2.4,0.8,4.4,2.5,5.3,4.4
		c0.8,1.7,0.9,3.5,0.2,5.3c-1,2.8-3.8,4.2-7.4,6c-2.1,1-4.4,2.2-6.9,3.8c-3.8,2.5-8,5.3-11.7,7.8c-7.4,4.9-11.3,7.6-12.8,8.1
		C131.6,194.8,129.4,195.5,125.9,195.5L125.9,195.5z M76.7,181.8c5.9,0,15.4,2.2,27.2,4.9c1.8,0.4,3.7,0.8,5.7,1.3
		c16.3,3.7,19.6,2.4,22.2,1.3c1.1-0.4,6.8-4.3,11.8-7.6c3.7-2.5,7.9-5.3,11.8-7.8c2.8-1.8,5.4-3.1,7.4-4.1c2.4-1.2,4.6-2.3,4.9-3.2
		c0.2-0.5,0.2-1,0-1.4c-0.4-0.8-1.3-1.5-2.4-1.9c-8.4-2.9-16.6,0.3-24.4,3.4c-8.1,3.2-16.4,6.5-23.8,1.7c-1.1-0.7-1.5-2.2-0.8-3.4
		c0.7-1.2,2.1-1.6,3.3-1c2.9,1.5,6.4,0.4,7.9-2.5c1.5-2.9,0.4-6.4-2.5-7.9c-3.2-1.7-6.7-3.6-10.6-5.7c-9.2-5-23-12.5-25.7-12.7
		c-3.9-0.2-7.2-0.1-13.6,1.2c-1.7,0.3-5.7,2.5-9.6,4.6c-4.8,2.6-10.1,5.5-15,7.3l7.4,35.2c4.4-0.6,13.8-1.8,17.8-1.9
		C76.2,181.8,76.4,181.8,76.7,181.8L76.7,181.8z"/>
	<path class="st2" d="M125.9,170.9c-0.4,0-0.9,0-1.3,0c-3.7-0.3-6.3-1.7-7.5-2.3c-4-2.1-9.8-4.7-17.8-7.8c-1.3-0.5-1.9-2-1.4-3.2
		s2-1.9,3.2-1.4c8.2,3.2,14.2,5.8,18.3,8c1.1,0.6,2.9,1.6,5.6,1.8c1.7,0.1,3.5-0.1,5.3-0.7c1.3-0.5,2.7,0.2,3.2,1.5
		c0.4,1.3-0.2,2.7-1.6,3.2C129.9,170.6,127.9,170.9,125.9,170.9L125.9,170.9z"/>
	<path class="st2" d="M67,67.7c-1.4,0-2.5-1.1-2.5-2.5V33.6c0-11.4,9.3-20.7,20.7-20.7H130c1.4,0,2.5,1.1,2.5,2.5s-1.1,2.5-2.5,2.5
		H85.2c-8.7,0-15.7,7-15.7,15.7v31.6C69.5,66.6,68.4,67.7,67,67.7L67,67.7z"/>
	<path class="st2" d="M181.2,177.5h-6.6c-1.4,0-2.5-1.1-2.5-2.5s1.1-2.5,2.5-2.5h6.6c2.1,0,3.7-1.7,3.7-3.7v-105
		c0-1-0.4-1.9-1.1-2.6l-31-31c-0.7-0.7-1.6-1.1-2.6-1.1h-65c-2.5,0-4.5,2-4.5,4.5v85.6c0,1.4-1.1,2.5-2.5,2.5s-2.5-1.1-2.5-2.5V33.6
		c0-5.2,4.3-9.5,9.5-9.5h65c2.3,0,4.5,0.9,6.1,2.5l31,31c1.6,1.6,2.5,3.8,2.5,6.1v105C189.9,173.6,186,177.5,181.2,177.5
		L181.2,177.5z"/>
	<path class="st2" d="M184.9,63.7h-19.7c-7.6,0-14.9-6.9-14.9-14.3V29.7c0-1.4,0.9-2.7,2.3-3.2c1.5-0.6,3.2-0.3,4.3,0.7L186.7,57
		c1.2,1.2,1.6,3.3,1,4.8C187.2,63,186.1,63.7,184.9,63.7L184.9,63.7z M155.2,32.5v16.9c0,4.6,5,9.3,9.9,9.3h16.3L155.2,32.5
		L155.2,32.5z"/>
	<path class="st2" d="M94,90.1c-0.4,0-0.8-0.1-1.2-0.3c-0.8-0.4-1.3-1.3-1.3-2.2V64.3c0-1.4,1.1-2.5,2.5-2.5s2.5,1.1,2.5,2.5V83
		l8.4-5.6c0.8-0.5,1.9-0.5,2.8,0L116,83V65.2c-0.2-0.3-0.3-0.8-0.3-1.2c0-1.4,1.1-2.5,2.5-2.5h0.3c1.4,0,2.5,1.1,2.5,2.5v23.5
		c0,0.9-0.5,1.8-1.3,2.2c-0.8,0.4-1.8,0.4-2.5-0.1l-10.8-7.2l-10.8,7.2C95,89.9,94.5,90.1,94,90.1L94,90.1z"/>
	<path class="st2" d="M106.3,72.7c-9.1,0-16.4-7.4-16.4-16.4s7.4-16.4,16.4-16.4s16.4,7.4,16.4,16.4S115.4,72.7,106.3,72.7z
		 M106.3,44.9c-6.3,0-11.5,5.1-11.5,11.5s5.1,11.5,11.5,11.5s11.5-5.1,11.5-11.5S112.6,44.9,106.3,44.9z"/>
	<path class="st2" d="M156,156.4c-1.4,0-2.5-1.1-2.5-2.5v-16h-31c-1.4,0-2.5-1.1-2.5-2.5s1.1-2.5,2.5-2.5H156c1.4,0,2.5,1.1,2.5,2.5
		v18.4C158.5,155.3,157.4,156.4,156,156.4z"/>
	<path class="st2" d="M156,131.5c-1.4,0-2.5-1.1-2.5-2.5v-4.1h-31c-1.4,0-2.5-1.1-2.5-2.5s1.1-2.5,2.5-2.5H156
		c1.4,0,2.5,1.1,2.5,2.5v6.6C158.5,130.4,157.4,131.5,156,131.5L156,131.5z"/>
	<path class="st2" d="M115.1,139.4c-1.4,0-2.5-1.1-2.5-2.5v-27.5c0-1.4,1.1-2.5,2.5-2.5H156c1.4,0,2.5,1.1,2.5,2.5v6.6
		c0,1.4-1.1,2.5-2.5,2.5s-2.5-1.1-2.5-2.5v-4.1h-36v25.1C117.6,138.3,116.4,139.4,115.1,139.4L115.1,139.4z"/>
	<path class="st2" d="M154.8,150h-21.7c-1.4,0-2.5-1.1-2.5-2.5s1.1-2.5,2.5-2.5h21.7c1.4,0,2.5,1.1,2.5,2.5S156.2,150,154.8,150z"/>
	<path class="st2" d="M143.8,49.3h-13.7c-1.4,0-2.5-1.1-2.5-2.5s1.1-2.5,2.5-2.5h13.7c1.4,0,2.5,1.1,2.5,2.5S145.2,49.3,143.8,49.3z
		"/>
	<path class="st2" d="M143.8,64.6h-13.7c-1.4,0-2.5-1.1-2.5-2.5s1.1-2.5,2.5-2.5h13.7c1.4,0,2.5,1.1,2.5,2.5S145.2,64.6,143.8,64.6z
		"/>
	<path class="st2" d="M172.4,79.9h-42.3c-1.4,0-2.5-1.1-2.5-2.5s1.1-2.5,2.5-2.5h42.3c1.4,0,2.5,1.1,2.5,2.5S173.7,79.9,172.4,79.9z
		"/>
	<path class="st2" d="M172.4,95.2h-42.3c-1.4,0-2.5-1.1-2.5-2.5s1.1-2.5,2.5-2.5h42.3c1.4,0,2.5,1.1,2.5,2.5S173.7,95.2,172.4,95.2z
		"/>
	<path class="st1" d="M18.2,80.4c0.4-1.3,1.7-2.1,3.1-1.8s2.1,1.7,1.8,3.1s-1.7,2.1-3.1,1.8S17.8,81.7,18.2,80.4z"/>
</g>
</svg>
