<svg id="Layer_1" data-name="Layer 1" xmlns="http://www.w3.org/2000/svg" viewBox="0 0 560.36 560.36"><defs><style>.cls-1{fill:#273773;}.cls-1,.cls-2{fill-rule:evenodd;}.cls-2{fill:#ffb10a;}</style></defs><polygon class="cls-1" points="0 0 32.53 0 32.53 527.82 560.36 527.82 560.36 560.36 0 560.36 0 0 0 0"/><polygon class="cls-2" points="470.01 216.51 515.73 216.51 515.73 396.07 470.01 396.07 470.01 216.51 470.01 216.51"/><polygon class="cls-2" points="403.86 140.8 449.58 140.8 449.58 373.91 403.86 373.91 403.86 140.8 403.86 140.8"/><polygon class="cls-2" points="337.71 224.31 383.43 224.31 383.43 351.74 337.71 351.74 337.71 224.31 337.71 224.31"/><polygon class="cls-2" points="271.56 193.9 317.28 193.9 317.28 396.07 271.56 396.07 271.56 193.9 271.56 193.9"/><polygon class="cls-2" points="205.41 75.04 251.13 75.04 251.13 362.82 205.41 362.82 205.41 75.04 205.41 75.04"/><polygon class="cls-2" points="139.26 185.13 184.98 185.13 184.98 418.23 139.26 418.23 139.26 185.13 139.26 185.13"/><polygon class="cls-2" points="73.11 346.58 118.83 346.58 118.83 484.72 73.11 484.72 73.11 346.58 73.11 346.58"/></svg>