<svg id="Layer_1" data-name="Layer 1" xmlns="http://www.w3.org/2000/svg" viewBox="0 0 5500 2000"><defs><style>.cls-1{fill:#6940cc;}.cls-2{fill:#48dbfb;}.cls-3{fill:#b848ed;}.cls-4{fill:#bababa;}.cls-5{fill:#8c29cc;}.cls-6{fill:#359cef;}.cls-7{fill:none;}</style></defs><polygon class="cls-1" points="2496.76 1264.38 2501 1268.62 2398.62 1371 2253.02 1371 2253.02 1365 2396.14 1365 2496.76 1264.38"/><path class="cls-1" d="M2253.93,1350a18.05,18.05,0,1,0,18,18A18,18,0,0,0,2253.93,1350Z"/><polygon class="cls-2" points="2496.9 621.12 2501.14 616.88 2398.77 514.5 2253.17 514.5 2253.17 520.5 2396.28 520.5 2496.9 621.12"/><path class="cls-2" d="M2254.07,535.55a18,18,0,1,1,18-18A18,18,0,0,1,2254.07,535.55Z"/><polygon class="cls-1" points="3013.27 1264.38 3009.02 1268.62 3111.4 1371 3257 1371 3257 1365 3113.89 1365 3013.27 1264.38"/><path class="cls-1" d="M3256.1,1350a18,18,0,1,1-18,18A18,18,0,0,1,3256.1,1350Z"/><polygon class="cls-3" points="3013.12 621.12 3008.88 616.88 3111.26 514.5 3256.86 514.5 3256.86 520.5 3113.74 520.5 3013.12 621.12"/><path class="cls-3" d="M3256,535.55a18.05,18.05,0,1,0-18-18A18,18,0,0,0,3256,535.55Z"/><path class="cls-4" d="M3742.33,658.5h372.74a15,15,0,1,0,0-4h-374.4L3499.59,895.59l2.82,2.82Z"/><path class="cls-4" d="M4319.07,850a15,15,0,1,0,0-4h-488.9l-45,45H3624v4h162.83l45-45Z"/><path class="cls-4" d="M3741.67,744.5l-78.08,78.09,2.82,2.82,76.92-76.91H4770.25a15,15,0,1,0,0-4Z"/><path class="cls-4" d="M4800,1250.21a15,15,0,0,0-14.89,13H4034.42l-49.25,49.25H3808.33l-305.92-305.91-2.82,2.82,307.08,307.09h180.16l49.25-49.25h749a15,15,0,1,0,14.89-17Z"/><path class="cls-4" d="M3624,1015h174.07a15,15,0,1,0,0-4H3624Z"/><path class="cls-4" d="M4299.83,1178l52-52h185.24a15,15,0,1,0,0-4h-186.9l-52,52H3772.83l-106.42-106.41-2.82,2.82L3771.17,1178Z"/><path class="cls-4" d="M1751.26,658.5H1378.52a15,15,0,1,1,0-4h374.39L1994,895.59l-2.83,2.82Z"/><path class="cls-4" d="M1174.52,850a15,15,0,1,1,0-4h488.89l45,45h161.18v4H1706.76l-45-45Z"/><path class="cls-4" d="M1751.91,744.5,1830,822.59l-2.83,2.82-76.91-76.91H723.34a15,15,0,1,1,0-4Z"/><path class="cls-4" d="M693.63,1250.21a15,15,0,0,1,14.89,13h750.64l49.25,49.25h176.85l305.91-305.91,2.83,2.82L1686.91,1316.5H1506.76l-49.25-49.25h-749a15,15,0,1,1-14.89-17Z"/><path class="cls-4" d="M1869.59,1015H1695.52a15,15,0,1,1,0-4h174.07Z"/><path class="cls-4" d="M1193.76,1178l-52-52H956.52a15,15,0,1,1,0-4h186.89l52,52h525.35l106.41-106.41,2.83,2.82L1722.41,1178Z"/><polygon class="cls-3" points="3410.66 897.5 3294 897.5 3294 889.5 3407.34 889.5 3793.84 503 4246 503 4246 511 3797.16 511 3410.66 897.5"/><path class="cls-3" d="M3295.05,914.55a21.05,21.05,0,1,1,21.06-21A21.05,21.05,0,0,1,3295.05,914.55Z"/><path class="cls-3" d="M4245,528.05a21.05,21.05,0,1,0-21.06-21A21.05,21.05,0,0,0,4245,528.05Z"/><rect class="cls-5" x="3294" y="942.5" width="514" height="8"/><path class="cls-5" d="M3295.05,967.55a21.05,21.05,0,1,1,21.06-21A21.05,21.05,0,0,1,3295.05,967.55Z"/><path class="cls-5" d="M3807,967.55a21.05,21.05,0,1,0-21.06-21A21.05,21.05,0,0,0,3807,967.55Z"/><polygon class="cls-1" points="4246 1390.5 3793.84 1390.5 3792.67 1389.33 3407.34 1004 3294 1004 3294 996 3410.66 996 3411.83 997.17 3797.16 1382.5 4246 1382.5 4246 1390.5"/><path class="cls-1" d="M3295.05,1021.05a21.05,21.05,0,1,1,21.06-21A21.05,21.05,0,0,1,3295.05,1021.05Z"/><path class="cls-1" d="M4245,1407.55a21.05,21.05,0,1,0-21.06-21A21.05,21.05,0,0,0,4245,1407.55Z"/><polygon class="cls-2" points="2190 897.5 2073.34 897.5 2072.17 896.33 1686.84 511 1238 511 1238 503 1690.16 503 1691.33 504.17 2076.66 889.5 2190 889.5 2190 897.5"/><path class="cls-2" d="M2189,872.45a21.05,21.05,0,1,1-21.06,21A21.05,21.05,0,0,1,2189,872.45Z"/><path class="cls-2" d="M1239.05,486A21.05,21.05,0,1,0,1260.11,507,21.05,21.05,0,0,0,1239.05,486Z"/><rect class="cls-6" x="1676" y="942.5" width="514" height="8"/><path class="cls-6" d="M2189,925.45a21.05,21.05,0,1,1-21.06,21A21.05,21.05,0,0,1,2189,925.45Z"/><path class="cls-6" d="M1677.05,925.45a21.05,21.05,0,1,0,21.06,21A21.05,21.05,0,0,0,1677.05,925.45Z"/><polygon class="cls-1" points="1690.16 1390.5 1238 1390.5 1238 1382.5 1686.84 1382.5 2073.34 996 2190 996 2190 1004 2076.66 1004 1690.16 1390.5"/><path class="cls-1" d="M2189,979a21.05,21.05,0,1,1-21.06,21A21.05,21.05,0,0,1,2189,979Z"/><path class="cls-1" d="M1239.05,1365.45a21.05,21.05,0,1,0,21.06,21A21.05,21.05,0,0,0,1239.05,1365.45Z"/><rect class="cls-7" width="5500" height="2000"/></svg>