<svg id="Ñëîé_1" data-name="Ñëîé 1" xmlns="http://www.w3.org/2000/svg" viewBox="0 0 230 228.12"><defs><style>.cls-1{fill:#273773;}.cls-2{fill:#ffb10a;}</style></defs><path class="cls-1" d="M174.74,208.42a6.24,6.24,0,0,1-6.24,6.24H19.69a6.23,6.23,0,0,1-6.23-6.24V59.61a6.23,6.23,0,0,1,6.23-6.23h99.66l13.79-13.46H13.72A13.74,13.74,0,0,0,0,53.64V214.4a13.74,13.74,0,0,0,13.72,13.72H174.48A13.74,13.74,0,0,0,188.2,214.4V95.4l-13.46,13.13Z"/><path class="cls-2" d="M86.72,103.78,73.33,152.89l50.33-13.06,79.56-77.65-36.94-36Zm-4.91,40.84,6.35-23.14,17.36,16.94ZM183.8,59a3.36,3.36,0,0,1,0,4.85l-66.23,64.64a3.59,3.59,0,0,1-5,0,3.38,3.38,0,0,1,0-4.85L178.83,59A3.57,3.57,0,0,1,183.8,59ZM169.6,45.08a3.39,3.39,0,0,1,0,4.86l-66.24,64.64a3.57,3.57,0,0,1-5,0,3.36,3.36,0,0,1,0-4.85l66.24-64.65A3.57,3.57,0,0,1,169.6,45.08Z"/><path class="cls-2" d="M225.24,19.89,209.61,4.64c-5.88-5.74-14.93-6.22-20.2-1.07L174.33,18.28l36.94,36.05,15.07-14.71C231.62,34.47,231.13,25.64,225.24,19.89Z"/></svg>