<svg id="Layer_1" data-name="Layer 1" xmlns="http://www.w3.org/2000/svg" viewBox="0 0 3823.35 754.62"><defs><style>.cls-1{fill:#ffb401;}</style></defs><path class="cls-1" d="M65,395.15,34.35,359.47,0,395.15A383.68,383.68,0,0,0,188.15,725.43l33.18-55.89C124.9,612.29,65,507.15,65,395.15Z"/><path class="cls-1" d="M1709.79,746.5a8.12,8.12,0,0,1-8.12,8.12h-.83a8.13,8.13,0,0,1,0-16.25h.83A8.12,8.12,0,0,1,1709.79,746.5Zm-65.82,0a8.13,8.13,0,0,1-8.12,8.12h-8.13a8.13,8.13,0,0,1,0-16.25h8.13A8.13,8.13,0,0,1,1644,746.5Zm-73.12,0a8.13,8.13,0,0,1-8.12,8.12h-8.13a8.13,8.13,0,0,1,0-16.25h8.13A8.13,8.13,0,0,1,1570.85,746.5Zm-73.12,0a8.13,8.13,0,0,1-8.12,8.12h-8.13a8.13,8.13,0,0,1,0-16.25h8.13A8.13,8.13,0,0,1,1497.73,746.5Zm-73.12,0a8.13,8.13,0,0,1-8.12,8.12h-8.13a8.13,8.13,0,0,1,0-16.25h8.13A8.13,8.13,0,0,1,1424.61,746.5Zm-73.12,0a8.13,8.13,0,0,1-8.13,8.12h-8.12a8.13,8.13,0,0,1,0-16.25h8.12A8.13,8.13,0,0,1,1351.49,746.5Zm-73.12,0a8.13,8.13,0,0,1-8.13,8.12h-8.12a8.13,8.13,0,1,1,0-16.25h8.12A8.13,8.13,0,0,1,1278.37,746.5Zm-73.12,0a8.13,8.13,0,0,1-8.13,8.12H1189a8.13,8.13,0,1,1,0-16.25h8.12A8.13,8.13,0,0,1,1205.25,746.5Zm-73.12,0a8.13,8.13,0,0,1-8.13,8.12h-8.12a8.13,8.13,0,1,1,0-16.25H1124A8.13,8.13,0,0,1,1132.13,746.5Zm-73.12,0a8.13,8.13,0,0,1-8.13,8.12h-8.12a8.13,8.13,0,1,1,0-16.25h8.12A8.13,8.13,0,0,1,1059,746.5Z"/><path class="cls-1" d="M825.31,35.68H383.84A359.46,359.46,0,0,0,129.66,649.33,357.1,357.1,0,0,0,383.84,754.62h658.92V738.37H383.84c-189.25,0-343.22-154-343.22-343.22s154-343.22,343.22-343.22H825.31Z"/><path class="cls-1" d="M3758.36,359.47,3789,395.15l34.35-35.68A383.68,383.68,0,0,0,3635.2,29.19L3602,85.08C3698.45,142.33,3758.36,247.47,3758.36,359.47Z"/><path class="cls-1" d="M2113.56,8.12A8.13,8.13,0,0,1,2121.68,0h.83a8.13,8.13,0,0,1,0,16.25h-.83A8.13,8.13,0,0,1,2113.56,8.12Zm65.82,0A8.13,8.13,0,0,1,2187.51,0h8.12a8.13,8.13,0,1,1,0,16.25h-8.12A8.13,8.13,0,0,1,2179.38,8.12Zm73.12,0A8.13,8.13,0,0,1,2260.63,0h8.12a8.13,8.13,0,1,1,0,16.25h-8.12A8.13,8.13,0,0,1,2252.5,8.12Zm73.12,0A8.13,8.13,0,0,1,2333.75,0h8.12a8.13,8.13,0,1,1,0,16.25h-8.12A8.13,8.13,0,0,1,2325.62,8.12Zm73.12,0A8.13,8.13,0,0,1,2406.87,0H2415a8.13,8.13,0,1,1,0,16.25h-8.12A8.13,8.13,0,0,1,2398.74,8.12Zm73.13,0A8.12,8.12,0,0,1,2480,0h8.12a8.13,8.13,0,1,1,0,16.25H2480A8.12,8.12,0,0,1,2471.87,8.12Zm73.12,0A8.12,8.12,0,0,1,2553.11,0h8.13a8.13,8.13,0,0,1,0,16.25h-8.13A8.12,8.12,0,0,1,2545,8.12Zm73.12,0A8.12,8.12,0,0,1,2626.23,0h8.13a8.13,8.13,0,0,1,0,16.25h-8.13A8.12,8.12,0,0,1,2618.11,8.12Zm73.12,0A8.13,8.13,0,0,1,2699.35,0h8.13a8.13,8.13,0,0,1,0,16.25h-8.13A8.13,8.13,0,0,1,2691.23,8.12Zm73.12,0A8.13,8.13,0,0,1,2772.47,0h8.13a8.13,8.13,0,0,1,0,16.25h-8.13A8.13,8.13,0,0,1,2764.35,8.12Z"/><path class="cls-1" d="M2998.05,718.94h441.46a359.46,359.46,0,0,0,254.18-613.65A357.08,357.08,0,0,0,3439.51,0H2780.6V16.25h658.91c189.25,0,343.22,154,343.22,343.22s-154,343.22-343.22,343.22H2998.05Z"/></svg>