      <svg id="Layer_1" data-name="Layer 1" xmlns="http://www.w3.org/2000/svg" viewBox="0 0 3823.35 754.62">
        <defs>
        <style>
        .left-circle-svg{
          fill:#ffb401;
        }
        </style>
        </defs>
        <path class="left-circle-svg"
          d="M65,395.15,34.35,359.47,0,395.15A383.68,383.68,0,0,0,188.15,725.43l33.18-55.89C124.9,612.29,65,507.15,65,395.15Z" />
        <path class="left-circle-svg"
          d="M1709.79,746.5a8.12,8.12,0,0,1-8.12,8.12h-.83a8.13,8.13,0,0,1,0-16.25h.83A8.12,8.12,0,0,1,1709.79,746.5Zm-65.82,0a8.13,8.13,0,0,1-8.12,8.12h-8.13a8.13,8.13,0,0,1,0-16.25h8.13A8.13,8.13,0,0,1,1644,746.5Zm-73.12,0a8.13,8.13,0,0,1-8.12,8.12h-8.13a8.13,8.13,0,0,1,0-16.25h8.13A8.13,8.13,0,0,1,1570.85,746.5Zm-73.12,0a8.13,8.13,0,0,1-8.12,8.12h-8.13a8.13,8.13,0,0,1,0-16.25h8.13A8.13,8.13,0,0,1,1497.73,746.5Zm-73.12,0a8.13,8.13,0,0,1-8.12,8.12h-8.13a8.13,8.13,0,0,1,0-16.25h8.13A8.13,8.13,0,0,1,1424.61,746.5Zm-73.12,0a8.13,8.13,0,0,1-8.13,8.12h-8.12a8.13,8.13,0,0,1,0-16.25h8.12A8.13,8.13,0,0,1,1351.49,746.5Zm-73.12,0a8.13,8.13,0,0,1-8.13,8.12h-8.12a8.13,8.13,0,1,1,0-16.25h8.12A8.13,8.13,0,0,1,1278.37,746.5Zm-73.12,0a8.13,8.13,0,0,1-8.13,8.12H1189a8.13,8.13,0,1,1,0-16.25h8.12A8.13,8.13,0,0,1,1205.25,746.5Zm-73.12,0a8.13,8.13,0,0,1-8.13,8.12h-8.12a8.13,8.13,0,1,1,0-16.25H1124A8.13,8.13,0,0,1,1132.13,746.5Zm-73.12,0a8.13,8.13,0,0,1-8.13,8.12h-8.12a8.13,8.13,0,1,1,0-16.25h8.12A8.13,8.13,0,0,1,1059,746.5Z" />
        <path class="left-circle-svg"
          d="M825.31,35.68H383.84A359.46,359.46,0,0,0,129.66,649.33,357.1,357.1,0,0,0,383.84,754.62h658.92V738.37H383.84c-189.25,0-343.22-154-343.22-343.22s154-343.22,343.22-343.22H825.31Z" />
      </svg>