<svg xmlns="http://www.w3.org/2000/svg" viewBox="0 0 314.59 318.12"><defs><style>.cls-1{fill:#ffb009;}.cls-2{fill:#1b75ba;}.cls-3{fill:#252d32;}.cls-4{fill:#273773;}</style></defs><g id="Icons"><path class="cls-1" d="M167.75,264.05l13.66-1.52-2.67-24L165.08,240a45.79,45.79,0,0,0-4.87-9.15l8.48-10.6-18.86-15.08-8.19,10.23a45,45,0,0,0-10.4-3.36l-1.41-12.67-24,2.68,1.34,12a45.2,45.2,0,0,0-10.45,5.35l-9.12-7.29L72.51,231l8.76,7a45,45,0,0,0-3.55,11.77l-11,1.23,2.67,24,11-1.22a45.19,45.19,0,0,0,6,10.7l-7,8.75L98.3,308.31l7.29-9.12A45.36,45.36,0,0,0,117,302.11l1.34,12,24-2.67-1.41-12.67a45.71,45.71,0,0,0,9.41-5.56l10.23,8.18,15.09-18.86L165,274A45.54,45.54,0,0,0,167.75,264.05Zm-45,12.83a20.13,20.13,0,1,1,20.13-20.12A20.12,20.12,0,0,1,122.72,276.88Z"/><path class="cls-2" d="M185.78,62.21,153.58,30,132.12,51.48l24.15,24.15c6-4.7,14.95-7.6,20.7-5.2Z"/><path class="cls-2" d="M246.1,120.94c-5.95,8.4-14.54,22.56-21.94,19.83l28.71,28.78,20.55-20.76Z"/><path d="M178.79,205.1a4,4,0,0,1-3-6.69c1.17-1.34,2.61-2.08,5-3.29,1.95-1,4.63-2.38,8.64-4.8a62.52,62.52,0,0,0,11.31-8.58c2.08-2,9.33-10.37,11.84-13.59,0,0,1.83-2.69,4.19-6.63a4,4,0,1,1,6.9,4.14c-2.57,4.29-4.52,7.12-4.6,7.24-2.68,3.46-10.16,12.17-12.76,14.66a70.81,70.81,0,0,1-12.73,9.66c-4.25,2.56-7.17,4.06-9.12,5.06a21.6,21.6,0,0,0-2.61,1.45A4,4,0,0,1,178.79,205.1Z"/><path d="M199,82.35a4,4,0,0,1-3.18-6.5l4.05-5.18a6.64,6.64,0,0,0-1.14-9.28l-.21-.17a6.66,6.66,0,0,0-9.28,1.14l-5.39,6.9a4,4,0,0,1-6.34-5l5.39-6.9a14.67,14.67,0,0,1,20.57-2.53l.21.16a14.68,14.68,0,0,1,2.53,20.58l-4,5.18A4,4,0,0,1,199,82.35Z"/><path d="M190,121.66a14.67,14.67,0,0,1-9-3.11l-.21-.17A14.68,14.68,0,0,1,175.62,103a4,4,0,0,1,7.78,2.08,6.63,6.63,0,0,0,2.31,7l.21.16a6.68,6.68,0,0,0,8.15,0,4,4,0,0,1,5,6.34A14.67,14.67,0,0,1,190,121.66Z"/><path d="M220,90.42a4,4,0,0,1-2.47-.85,4,4,0,0,1-.69-5.65,6.64,6.64,0,0,0-1.15-9.27l-.21-.17a6.63,6.63,0,0,0-9.28,1.14,4,4,0,0,1-6.34-5,14.68,14.68,0,0,1,20.57-2.54l.22.17a14.7,14.7,0,0,1,2.53,20.58A4,4,0,0,1,220,90.42Z"/><path d="M206.86,134.77a14.48,14.48,0,0,1-8.92-3l-.21-.17A14.76,14.76,0,0,1,193.9,113a4,4,0,0,1,7,3.87,6.67,6.67,0,0,0,1.73,8.39l.21.16a6.73,6.73,0,0,0,5.1,1.19,7.46,7.46,0,0,0,4.8-2.66,4,4,0,1,1,6.35,5,15.57,15.57,0,0,1-10,5.67A16,16,0,0,1,206.86,134.77Z"/><path d="M234,107.82a4,4,0,0,1-3.27-6.36c3.54-5,3.66-9.48.32-12.1l-.21-.16c-2.36-1.84-5.44-.93-7.36.42A4,4,0,1,1,218.89,83c5.41-3.8,12.21-3.86,16.93-.18L236,83c5.68,4.44,8.28,13.31,1.27,23.12A4,4,0,0,1,234,107.82Z"/><path d="M225.52,146.69a14.57,14.57,0,0,1-9-3.09l-.21-.17a14.67,14.67,0,0,1-2.53-20.57L228.55,104a14.66,14.66,0,0,1,20.57-2.53l.23.18a14.69,14.69,0,0,1,2.52,20.56l-14.75,18.89a14.6,14.6,0,0,1-9.77,5.51A14,14,0,0,1,225.52,146.69Zm9.37-37.77-14.75,18.89a6.67,6.67,0,0,0,1.14,9.28l.22.16a6.64,6.64,0,0,0,9.27-1.13l14.75-18.89a6.64,6.64,0,0,0-1.14-9.28l-.23-.18a6.61,6.61,0,0,0-9.26,1.15Z"/><path d="M120.85,158a4,4,0,0,1-3.79-5.37c1.64-4.65,2.38-15.06,3.09-25.12,1.54-21.86,2.92-35.43,9.17-39.58l1.54-1C155.18,70.55,168.43,64,175.07,64.82a4,4,0,0,1,1.66.6,96.76,96.76,0,0,0,26.06,11.92c2.55.71,4.86,1.24,6.91,1.72,6.46,1.48,11.56,2.65,13.18,7.68,2.43,7.52-6.26,15.77-12.9,19-10.19,4.93-20.83,1.43-26.7-1.4-2.92,4.18-8.31,7.17-12.91,9.69a29.15,29.15,0,0,1,5.23,11.16c2.51,10,.82,20.13-4.54,27a4,4,0,1,1-6.34-4.95c4.52-5.79,4.55-14.17,3.07-20.08-1.42-5.7-4.11-9.2-6-10a4,4,0,0,1-.59-7c1.52-1,3.31-2,5.2-3,4.21-2.31,10.57-5.82,10.94-8.85a4,4,0,0,1,6.17-2.89c1.31.84,13,8,23,3.2,5.46-2.64,9.21-7.83,8.75-9.26-.57-.77-4.47-1.66-7.32-2.32-2.15-.49-4.58-1.05-7.29-1.81a104.71,104.71,0,0,1-27.3-12.3c-2.88.2-11.67,3.12-38,20.76l-1.57,1c-3.4,2.26-4.83,22.54-5.59,33.43-.78,11.1-1.52,21.57-3.54,27.25A4,4,0,0,1,120.85,158Z"/><path d="M184,210a4,4,0,0,1-2.48-.85L115,157l-8.82,10.7a4,4,0,0,1-6.21-5.12l11.31-13.73a4,4,0,0,1,5.59-.61l69.61,54.63a4,4,0,0,1,.68,5.65A4,4,0,0,1,184,210Z"/><path d="M253,176a4,4,0,0,1-2.85-1.17L222.9,147.56a4,4,0,1,1,5.69-5.7L253,166.26l16.66-16.69a4,4,0,0,1,5.7,5.7l-19.51,19.52A4,4,0,0,1,253,176Z"/><path d="M154.74,77.81a4,4,0,0,1-2.84-1.18L128.76,53.52a4,4,0,0,1,0-5.7l19.51-19.53A4,4,0,0,1,154,34L137.29,50.67l20.3,20.27a4,4,0,0,1-2.85,6.87Z"/><path d="M272,188.42a16.92,16.92,0,0,1-12-5l-9.28-9.27a4,4,0,0,1,0-5.69l18.3-18.32a4,4,0,0,1,5.69,0l9.28,9.27a17,17,0,0,1-12,29ZM259.3,171.34l6.44,6.43A8.92,8.92,0,0,0,281,171.45a8.83,8.83,0,0,0-2.62-6.3l-6.43-6.43Z"/><path d="M131.6,54.69a4.14,4.14,0,0,1-.7-.06,4,4,0,0,1-3-2.26L111.08,16.16a4,4,0,0,1,5.33-5.36l36.37,16.68A4,4,0,0,1,154,34L134.45,53.51A4,4,0,0,1,131.6,54.69Zm-8.6-32,9.82,21.07,11.35-11.36Z"/><path d="M114.73,18.48a4,4,0,0,1-2.77-1.1L100.94,7a4,4,0,1,1,5.53-5.85l11,10.43a4,4,0,0,1-2.76,7Z"/><path class="cls-3" d="M122.68,282.25a25.61,25.61,0,1,1,2.24-.1C124.17,282.22,123.42,282.25,122.68,282.25Zm.08-42.94c-.51,0-1,0-1.54.07a17.28,17.28,0,1,0,1.54-.07Z"/><path class="cls-3" d="M118.29,318.12a4,4,0,0,1-4-3.58l-1-8.93a47.2,47.2,0,0,1-6.37-1.65l-5.48,6.86a4,4,0,0,1-5.66.63L76.92,296.37a4,4,0,0,1-.63-5.66l5.11-6.38a50.4,50.4,0,0,1-3.52-6.24l-8,.9a4,4,0,0,1-4.45-3.55l-2.67-24a4,4,0,0,1,.86-3,4.07,4.07,0,0,1,2.7-1.49l8-.89a49.53,49.53,0,0,1,2.06-6.85L70,234.14a4,4,0,0,1-.63-5.66l15.08-18.86a4,4,0,0,1,5.66-.64L97,214.47a48.93,48.93,0,0,1,5.86-3l-1-8.93a4,4,0,0,1,.86-3,4.07,4.07,0,0,1,2.7-1.49l24-2.67a4.06,4.06,0,0,1,4.45,3.56l1.09,9.81a51.91,51.91,0,0,1,5.47,1.77l6.29-7.86a4,4,0,0,1,5.65-.63l18.87,15.08a4,4,0,0,1,.63,5.66l-6.67,8.34a49.44,49.44,0,0,1,2.42,4.57l10.7-1.19a4,4,0,0,1,4.45,3.56l2.67,24a4,4,0,0,1-3.56,4.45l-13.66,1.52a4,4,0,0,1-.89-8L177,259l-1.78-16L165.52,244a4.07,4.07,0,0,1-4.18-2.51,41.23,41.23,0,0,0-4.43-8.34,4,4,0,0,1,.16-4.81l6-7.46-12.58-10.06L144.79,218A4,4,0,0,1,140,219.1a41,41,0,0,0-9.48-3.06,4,4,0,0,1-3.25-3.51l-1-8.67-16,1.78.89,8a4,4,0,0,1-2.63,4.23A41.44,41.44,0,0,0,99,222.73a4.07,4.07,0,0,1-4.82-.16l-6-4.78L78.17,230.36l5.61,4.49a4,4,0,0,1,1.15,4.82,41.48,41.48,0,0,0-3.24,10.72,4,4,0,0,1-3.53,3.38l-7,.77,1.78,16,7-.78a4.08,4.08,0,0,1,4.19,2.52A41.34,41.34,0,0,0,89.64,282a4,4,0,0,1-.06,5l-4.48,5.61,12.57,10.06,4.78-6a4,4,0,0,1,4.66-1.21,41.46,41.46,0,0,0,10.36,2.66,4,4,0,0,1,3.49,3.55l.89,8,16-1.78-1-8.67a4,4,0,0,1,8-.89L146.3,311a4,4,0,0,1-3.56,4.45l-24,2.67A3.39,3.39,0,0,1,118.29,318.12Z"/><path class="cls-1" d="M35,221.16a4,4,0,0,1-4-3.63l-.58-5.7-3.63,4.44a4,4,0,0,1-5.66.56L8.67,206.64A4,4,0,0,1,8.1,201l3.63-4.44-5.7.57a4,4,0,0,1-4.41-3.61l-1.6-16a4,4,0,0,1,3.6-4.4l5.71-.57-4.44-3.63a4,4,0,0,1-.56-5.67l10.19-12.46a4,4,0,0,1,5.66-.57l4.44,3.63-.57-5.7a4,4,0,0,1,3.61-4.4l16-1.61a4.1,4.1,0,0,1,3,.89,4,4,0,0,1,1.45,2.72l.57,5.7L52.28,147a4,4,0,0,1,5.67-.56L70.41,156.6a4,4,0,0,1,.56,5.67l-3.63,4.43,5.71-.56a4,4,0,0,1,4.4,3.6l1.61,16a4.09,4.09,0,0,1-.89,3,4,4,0,0,1-2.72,1.45l-6.46.65c-.23.73-.5,1.48-.81,2.27a4,4,0,1,1-7.48-3,24.47,24.47,0,0,0,.85-2.5c.08-.29.13-.57.19-.86l.1-.48a4,4,0,0,1,3.53-3.18l5.28-.53-.81-8-5.25.52a4,4,0,0,1-4.1-2.41,22.38,22.38,0,0,0-1.9-3.53,4,4,0,0,1,.25-4.75l3.36-4.1L56,155.19l-3.34,4.08a4,4,0,0,1-4.6,1.19,25.32,25.32,0,0,0-2.5-.85c-.3-.08-.6-.14-.89-.2l-.45-.09A4,4,0,0,1,41,155.78l-.53-5.27-8,.8.53,5.26a4,4,0,0,1-2.42,4.1,22.74,22.74,0,0,0-3.52,1.9,4,4,0,0,1-4.75-.25L18.2,159l-5.1,6.24,4.09,3.33a4,4,0,0,1,1.19,4.61,21,21,0,0,0-.85,2.5c-.08.28-.13.56-.19.83l-.11.53a4,4,0,0,1-3.53,3.16l-5.27.53.8,8,5.26-.53a4,4,0,0,1,4.09,2.42,24.58,24.58,0,0,0,1.9,3.52,4,4,0,0,1-.25,4.75L16.88,203l6.23,5.09L26.45,204a4,4,0,0,1,4.61-1.19,23.66,23.66,0,0,0,2.5.85c.28.08.55.13.83.19l.53.1a4,4,0,0,1,3.16,3.54l.52,5.27,8-.8-.52-5.26a4,4,0,0,1,3.6-4.4,4,4,0,0,1,4.41,3.6l.92,9.26a4,4,0,0,1-3.6,4.4l-16,1.61Z"/><path class="cls-1" d="M39.56,196.38a14.88,14.88,0,0,1-3.9-.52,14.75,14.75,0,1,1,3.9.52Zm0-21.47a6.72,6.72,0,0,0-6.48,5,6.71,6.71,0,1,0,8.24-4.71A6.72,6.72,0,0,0,39.54,174.91Z"/><path class="cls-4" d="M22.77,129.24a3.78,3.78,0,0,1-.67-.05,4,4,0,0,1-3.3-4.64c.6-3.61,1.36-7.25,2.23-10.8a4,4,0,0,1,7.82,1.91c-.83,3.37-1.54,6.81-2.11,10.23A4,4,0,0,1,22.77,129.24Zm6.88-25.9a4,4,0,0,1-3.78-5.41c1.27-3.44,2.68-6.87,4.2-10.21a4,4,0,0,1,7.33,3.34c-1.44,3.16-2.78,6.41-4,9.65A4,4,0,0,1,29.65,103.34ZM41.21,79.17a4,4,0,0,1-2.06-.57,4,4,0,0,1-1.39-5.52c1.89-3.16,3.91-6.28,6-9.25a4,4,0,1,1,6.58,4.63c-2,2.82-3.89,5.76-5.68,8.75A4,4,0,0,1,41.21,79.17ZM57,57.54a4,4,0,0,1-3-6.69c2.43-2.74,5-5.43,7.61-8a4,4,0,1,1,5.62,5.76c-2.48,2.42-4.9,5-7.19,7.56A4,4,0,0,1,57,57.54ZM76.54,39.17A4,4,0,0,1,74.07,32c2.86-2.24,5.87-4.41,8.92-6.46a4,4,0,1,1,4.49,6.69c-2.9,1.94-5.75,4-8.46,6.11A4,4,0,0,1,76.54,39.17Z"/><path class="cls-4" d="M195.34,295.31a4,4,0,0,1-.82-8c3.42-.71,6.82-1.56,10.13-2.5a4,4,0,1,1,2.22,7.73c-3.49,1-7.1,1.9-10.7,2.65A3.91,3.91,0,0,1,195.34,295.31ZM221,287.43a4,4,0,0,1-1.53-7.75c3.19-1.32,6.38-2.78,9.47-4.33a4,4,0,1,1,3.62,7.19c-3.27,1.64-6.64,3.19-10,4.58A4,4,0,0,1,221,287.43ZM244.65,275a4,4,0,0,1-2.21-7.39c2.92-1.9,5.79-3.93,8.53-6a4,4,0,0,1,4.88,6.41c-2.9,2.2-5.93,4.34-9,6.35A4,4,0,0,1,244.65,275Zm21-16.63a4,4,0,0,1-2.78-6.93c2.51-2.4,5-4.92,7.28-7.48a4,4,0,0,1,6,5.4c-2.45,2.71-5,5.37-7.69,7.9A4,4,0,0,1,265.65,258.32Zm17.6-20.19a4,4,0,0,1-3.26-6.38c2-2.8,4-5.72,5.79-8.68a4,4,0,1,1,6.86,4.21c-1.93,3.13-4,6.22-6.12,9.18A4,4,0,0,1,283.25,238.13ZM296.86,215a4,4,0,0,1-3.64-5.74c1.47-3.13,2.84-6.36,4.08-9.6a4,4,0,0,1,7.52,2.87c-1.31,3.43-2.76,6.85-4.32,10.16A4,4,0,0,1,296.86,215Zm9.1-25.22a3.94,3.94,0,0,1-1-.13,4,4,0,0,1-2.89-4.9c.87-3.36,1.62-6.79,2.23-10.19a4,4,0,0,1,7.93,1.43c-.65,3.6-1.45,7.22-2.36,10.77A4,4,0,0,1,306,189.82Zm4.27-26.44H310a4,4,0,0,1-3.74-4.29c.22-3.19.33-6.44.33-9.66v-.75a4,4,0,0,1,8.05-.08v.83c0,3.4-.12,6.83-.35,10.21A4,4,0,0,1,310.23,163.38Zm-.64-26.78a4,4,0,0,1-4-3.56c-.39-3.43-.92-6.9-1.58-10.31a4,4,0,0,1,7.91-1.51c.69,3.6,1.25,7.27,1.67,10.89a4,4,0,0,1-3.53,4.47Zm-5.53-26.21a4,4,0,0,1-3.84-2.83c-1-3.31-2.2-6.61-3.47-9.83a4,4,0,1,1,7.49-3c1.34,3.41,2.58,6.9,3.67,10.4a4,4,0,0,1-2.65,5A4.16,4.16,0,0,1,304.06,110.39ZM293.77,85.66a4,4,0,0,1-3.56-2.13c-1.62-3.06-3.38-6.09-5.22-9a4,4,0,0,1,6.81-4.29c1.95,3.11,3.81,6.32,5.52,9.54a4,4,0,0,1-1.67,5.45A4,4,0,0,1,293.77,85.66Zm-14.68-22.4a4,4,0,0,1-3.15-1.51c-2.16-2.71-4.44-5.38-6.79-7.92a4,4,0,1,1,5.91-5.46c2.48,2.68,4.89,5.5,7.18,8.36a4,4,0,0,1-3.15,6.53ZM260.54,43.93a4,4,0,0,1-2.63-1c-2.62-2.27-5.35-4.47-8.13-6.54A4,4,0,0,1,254.59,30c2.94,2.19,5.83,4.51,8.59,6.91a4,4,0,0,1-2.64,7.07ZM238.77,28.31a4.06,4.06,0,0,1-2-.55c-3-1.75-6.06-3.4-9.19-4.94a4,4,0,1,1,3.54-7.23c3.31,1.62,6.58,3.38,9.73,5.22a4,4,0,0,1-2,7.5ZM214.49,17a4,4,0,0,1-1.36-.23c-3.26-1.17-6.6-2.22-9.94-3.14a4,4,0,0,1,2.13-7.77c3.54,1,7.08,2.09,10.52,3.33A4,4,0,0,1,214.49,17Zm-26-6.63a4.6,4.6,0,0,1-.64-.05c-3.41-.55-6.89-1-10.35-1.25a4,4,0,0,1-3.68-4.35A4.1,4.1,0,0,1,178.22,1c3.66.31,7.34.75,10.94,1.33a4,4,0,0,1-.62,8ZM151.09,9.26a4,4,0,0,1-.4-8c3.63-.36,7.33-.59,11-.69a4,4,0,0,1,.21,8.05c-3.48.09-7,.31-10.42.65A2.68,2.68,0,0,1,151.09,9.26Z"/></g></svg>