      <svg id="Layer_1" data-name="Layer 1" xmlns="http://www.w3.org/2000/svg" viewBox="0 0 3823.35 754.62">
        <defs>
          <style>
            .right-circle-svg {
               fill:#ffb401;
              }
          </style>
        </defs>
        <path class="right-circle-svg"
          d="M3758.36,359.47,3789,395.15l34.35-35.68A383.68,383.68,0,0,0,3635.2,29.19L3602,85.08C3698.45,142.33,3758.36,247.47,3758.36,359.47Z" />
        <path class="right-circle-svg"
          d="M2113.56,8.12A8.13,8.13,0,0,1,2121.68,0h.83a8.13,8.13,0,0,1,0,16.25h-.83A8.13,8.13,0,0,1,2113.56,8.12Zm65.82,0A8.13,8.13,0,0,1,2187.51,0h8.12a8.13,8.13,0,1,1,0,16.25h-8.12A8.13,8.13,0,0,1,2179.38,8.12Zm73.12,0A8.13,8.13,0,0,1,2260.63,0h8.12a8.13,8.13,0,1,1,0,16.25h-8.12A8.13,8.13,0,0,1,2252.5,8.12Zm73.12,0A8.13,8.13,0,0,1,2333.75,0h8.12a8.13,8.13,0,1,1,0,16.25h-8.12A8.13,8.13,0,0,1,2325.62,8.12Zm73.12,0A8.13,8.13,0,0,1,2406.87,0H2415a8.13,8.13,0,1,1,0,16.25h-8.12A8.13,8.13,0,0,1,2398.74,8.12Zm73.13,0A8.12,8.12,0,0,1,2480,0h8.12a8.13,8.13,0,1,1,0,16.25H2480A8.12,8.12,0,0,1,2471.87,8.12Zm73.12,0A8.12,8.12,0,0,1,2553.11,0h8.13a8.13,8.13,0,0,1,0,16.25h-8.13A8.12,8.12,0,0,1,2545,8.12Zm73.12,0A8.12,8.12,0,0,1,2626.23,0h8.13a8.13,8.13,0,0,1,0,16.25h-8.13A8.12,8.12,0,0,1,2618.11,8.12Zm73.12,0A8.13,8.13,0,0,1,2699.35,0h8.13a8.13,8.13,0,0,1,0,16.25h-8.13A8.13,8.13,0,0,1,2691.23,8.12Zm73.12,0A8.13,8.13,0,0,1,2772.47,0h8.13a8.13,8.13,0,0,1,0,16.25h-8.13A8.13,8.13,0,0,1,2764.35,8.12Z" />
        <path class="right-circle-svg"
          d="M2998.05,718.94h441.46a359.46,359.46,0,0,0,254.18-613.65A357.08,357.08,0,0,0,3439.51,0H2780.6V16.25h658.91c189.25,0,343.22,154,343.22,343.22s-154,343.22-343.22,343.22H2998.05Z" />
      </svg>