<svg id="Ñëîé_1" data-name="Ñëîé 1" xmlns="http://www.w3.org/2000/svg" viewBox="0 0 567.43 524.33"><defs><style>.cls-1{fill:#fff;}.cls-2{fill:#273773;}.cls-3{fill:#ffb10a;}</style></defs><path class="cls-1" d="M6.59,15.94H6a.63.63,0,0,1-.59-.41L0,1.12A.63.63,0,0,1,.63.27H2.3A.63.63,0,0,1,2.89.7L5.74,9A.63.63,0,0,0,6.93,9L10,.69a.63.63,0,0,1,.59-.42h1.59a.63.63,0,0,1,.59.86L7.17,15.54A.63.63,0,0,1,6.59,15.94Z"/><path class="cls-1" d="M17.43,3.34V5.7a.63.63,0,0,0,.62.63H21.9a.63.63,0,0,1,.63.63V8a.63.63,0,0,1-.63.63H18.05a.63.63,0,0,0-.62.63v3.37a.63.63,0,0,0,.62.63H23.8a.63.63,0,0,1,.63.63V15.1a.63.63,0,0,1-.63.63H15.31a.63.63,0,0,1-.63-.63V.9a.64.64,0,0,1,.63-.63h8.61a.63.63,0,0,1,.63.63V2.08a.63.63,0,0,1-.63.63H18.05A.63.63,0,0,0,17.43,3.34Z"/><path class="cls-1" d="M37.3,1.62l-.53,1.06a.62.62,0,0,1-.86.28,4.93,4.93,0,0,0-2.43-.51,3.8,3.8,0,0,0-3.16,1.62,6.51,6.51,0,0,0-1.24,4.09,6.16,6.16,0,0,0,1.15,3.94,3.68,3.68,0,0,0,3.05,1.45,4.2,4.2,0,0,0,2.87-1,.64.64,0,0,1,1,.15l.61,1.06a.63.63,0,0,1-.13.79A6.71,6.71,0,0,1,33.06,16a6.2,6.2,0,0,1-5-2.13,8.72,8.72,0,0,1-1.8-5.81,8.47,8.47,0,0,1,2-5.73A6.42,6.42,0,0,1,33.31,0,8,8,0,0,1,37,.79.62.62,0,0,1,37.3,1.62Z"/><path class="cls-1" d="M46.48,3.34V15.1a.63.63,0,0,1-.63.63H44.36a.63.63,0,0,1-.63-.63V3.34a.63.63,0,0,0-.62-.63H39.45a.63.63,0,0,1-.63-.63V.9a.63.63,0,0,1,.63-.63H51a.63.63,0,0,1,.63.63V2.08a.63.63,0,0,1-.63.63H47.1A.63.63,0,0,0,46.48,3.34Z"/><path class="cls-1" d="M51.38,7.87a8.72,8.72,0,0,1,1.81-5.59A5.85,5.85,0,0,1,58,0a6.31,6.31,0,0,1,5.1,2.07,8.7,8.7,0,0,1,1.76,5.8A8.93,8.93,0,0,1,63,13.8,6.46,6.46,0,0,1,57.81,16,5.64,5.64,0,0,1,53,13.82,9.56,9.56,0,0,1,51.38,7.87Zm2.85,0a9.84,9.84,0,0,0,.41,3.07,3.69,3.69,0,0,0,4.82,2.32A3.45,3.45,0,0,0,61,12.1,7,7,0,0,0,62,7.87c0-3.62-1.33-5.43-4-5.43a3.17,3.17,0,0,0-2.81,1.47A7,7,0,0,0,54.23,7.87Z"/><path class="cls-1" d="M75.83,15.44,72.08,9.62a.62.62,0,0,0-.51-.28l-.76,0a.62.62,0,0,0-.65.62V15.1a.63.63,0,0,1-.63.63h-1.6a.63.63,0,0,1-.62-.63V.88A.63.63,0,0,1,67.9.25l1.19,0c1-.06,1.87-.08,2.5-.08,3.92,0,5.89,1.51,5.89,4.55a4.18,4.18,0,0,1-.82,2.5,4.37,4.37,0,0,1-1.44,1.31.63.63,0,0,0-.21.89l3.54,5.38a.64.64,0,0,1-.53,1H76.36A.64.64,0,0,1,75.83,15.44ZM70.16,3.23V6.37a.62.62,0,0,0,.59.62c.22,0,.41,0,.57,0a5,5,0,0,0,2.51-.48,2,2,0,0,0,.8-1.89,1.64,1.64,0,0,0-.86-1.59,6,6,0,0,0-2.69-.46h-.34A.62.62,0,0,0,70.16,3.23Z"/><path class="cls-1" d="M111,15.1V5.7a.63.63,0,0,0-1-.54l-1.24.75a.63.63,0,0,1-1-.54V4.23a.62.62,0,0,1,.35-.56A13.85,13.85,0,0,0,112.41.43a.64.64,0,0,1,.48-.22h.18a.63.63,0,0,1,.63.63V15.1a.63.63,0,0,1-.63.63h-1.49A.63.63,0,0,1,111,15.1Z"/><path class="cls-1" d="M118.4,7.53A9,9,0,0,1,120,2.18,4.81,4.81,0,0,1,124.07,0q5.4,0,5.39,7.87A10.48,10.48,0,0,1,128,13.74a4.62,4.62,0,0,1-4.08,2.2,4.67,4.67,0,0,1-4.18-2C118.85,12.56,118.4,10.44,118.4,7.53Zm2.85.19a12.76,12.76,0,0,0,.6,4.55,2,2,0,0,0,2,1.45A2.2,2.2,0,0,0,126,12.41a11.8,11.8,0,0,0,.64-4.68A10.61,10.61,0,0,0,126,3.41a2.06,2.06,0,0,0-2-1.19Q121.25,2.22,121.25,7.72Z"/><path class="cls-1" d="M141.1,3.34V5.7a.63.63,0,0,0,.63.63h3.85a.63.63,0,0,1,.62.63V8a.63.63,0,0,1-.62.63h-3.85a.63.63,0,0,0-.63.63v3.37a.63.63,0,0,0,.63.63h5.75a.63.63,0,0,1,.62.63V15.1a.63.63,0,0,1-.62.63H139a.63.63,0,0,1-.62-.63V.9A.63.63,0,0,1,139,.27h8.61a.63.63,0,0,1,.63.63V2.08a.63.63,0,0,1-.63.63h-5.86A.63.63,0,0,0,141.1,3.34Z"/><path class="cls-1" d="M153.39,10.72V15.1a.63.63,0,0,1-.63.63h-1.49a.63.63,0,0,1-.63-.63V.89a.63.63,0,0,1,.61-.63l2.6-.09a9.87,9.87,0,0,1,5.35,1.12,3.92,3.92,0,0,1,1.7,3.51c0,3.54-2.09,5.32-6.27,5.32l-.57,0A.62.62,0,0,0,153.39,10.72Zm0-7.48V7a.63.63,0,0,0,.58.63l.51,0a4.73,4.73,0,0,0,2.75-.63,2.37,2.37,0,0,0,.86-2q0-2.4-3.87-2.4H154A.63.63,0,0,0,153.39,3.24Z"/><path class="cls-1" d="M162.79,14.37l.52-1.26a.64.64,0,0,1,.91-.3,5.13,5.13,0,0,0,2.57.74c1.61,0,2.42-.56,2.42-1.68a2.39,2.39,0,0,0-.57-1.51,7.17,7.17,0,0,0-2.35-1.61,10.84,10.84,0,0,1-2.39-1.47,3.93,3.93,0,0,1-1-1.36,4.51,4.51,0,0,1-.33-1.75,3.82,3.82,0,0,1,1.31-3A4.85,4.85,0,0,1,167.3,0a7.12,7.12,0,0,1,3.48.7.63.63,0,0,1,.29.76l-.41,1.17a.62.62,0,0,1-.88.34,5.07,5.07,0,0,0-2.43-.64,2.06,2.06,0,0,0-1.47.5,1.73,1.73,0,0,0-.52,1.31q0,1.32,2.94,2.76a9.21,9.21,0,0,1,2.24,1.4,4.37,4.37,0,0,1,1,1.48,4.84,4.84,0,0,1,.36,1.9,3.82,3.82,0,0,1-1.48,3.09,6.07,6.07,0,0,1-4,1.21,7.18,7.18,0,0,1-3.42-.83A.63.63,0,0,1,162.79,14.37Z"/><path class="cls-2" d="M231,475.86l1.13,2.84c1.21,2.88,3.51,5.26,6.4,5.26H471.29V470.6H231.69C228.8,470.6,230,472.5,231,475.86Z"/><path class="cls-2" d="M253.83,444.1V298.57a1.67,1.67,0,0,1,1.67-1.67h254a1.67,1.67,0,0,1,1.67,1.67v50.65h12.63V294.15a9.81,9.81,0,0,0-9.77-9.78H251a9.8,9.8,0,0,0-9.77,9.78V448.51a9.8,9.8,0,0,0,9.77,9.78H471.29V445.76H255.5A1.66,1.66,0,0,1,253.83,444.1Z"/><path class="cls-3" d="M555.72,358.18H492a11.72,11.72,0,0,0-11.72,11.71v75.87h0v12.53h0V470.6h0V484h0V512.6A11.73,11.73,0,0,0,492,524.33h63.76a11.72,11.72,0,0,0,11.71-11.73V369.89A11.71,11.71,0,0,0,555.72,358.18Zm-48.37,8.74a.61.61,0,0,1,.62-.61h31.74a.61.61,0,0,1,.61.61v2.56a.62.62,0,0,1-.61.62H508a.62.62,0,0,1-.62-.62Zm16.49,154.93a6.92,6.92,0,1,1,6.92-6.91A6.91,6.91,0,0,1,523.84,521.85ZM561,505.66H486.68V378.24H561Z"/></svg>