<svg xmlns="http://www.w3.org/2000/svg" viewBox="0 0 273.87 284.71"><defs><style>.cls-1{fill:#ffb009;}.cls-2{fill:#1b75ba;}.cls-3{fill:#273773;}</style></defs><g id="Icons"><path class="cls-1" d="M164.22,5.37h-146A12.87,12.87,0,0,0,5.37,18.25V29.52H177.11V18.25A12.88,12.88,0,0,0,164.22,5.37Z"/><path class="cls-1" d="M5.37,252.24v11.27a12.88,12.88,0,0,0,12.88,12.88h146a12.89,12.89,0,0,0,12.89-12.88V252.24Z"/><path d="M164.46,281.76H18a18,18,0,0,1-18-18V18A18,18,0,0,1,18,0H164.46a18,18,0,0,1,18,18V55a4,4,0,1,1-8.05,0V18a10,10,0,0,0-10-10H18a10,10,0,0,0-10,10V263.75a10,10,0,0,0,10,10H164.46a10,10,0,0,0,10-10v-20.9a4,4,0,1,1,8.05,0v20.9A18,18,0,0,1,164.46,281.76Z"/><path class="cls-2" d="M195.5,179.09l4.51,4.15a13.53,13.53,0,0,1,4.25,11.68l60.51,55.85a15.29,15.29,0,0,1,1.14,21.61L263,275.63a15.31,15.31,0,0,1-21.61,1.14l-60.94-56.22a13.55,13.55,0,0,1-11.68-3.33l-4.51-4.14Z"/><path d="M251.6,284.71a19.22,19.22,0,0,1-12.91-4.95l-59.61-55A17.54,17.54,0,0,1,166,220.19L161.52,216a4,4,0,0,1,5.45-5.92l4.51,4.14a9.47,9.47,0,0,0,8.24,2.33,4,4,0,0,1,3.45,1l60.94,56.22a11.29,11.29,0,0,0,15.89-.88l2.92-3.25a11.27,11.27,0,0,0-.84-15.92l-60.55-55.88a4,4,0,0,1-1.27-3.44,9.47,9.47,0,0,0-3-8.24l-4.51-4.15a4,4,0,1,1,5.45-5.92l4.51,4.15a17.59,17.59,0,0,1,5.64,13l59.13,54.55a19.34,19.34,0,0,1,1.4,27.26L266,278.32A19.3,19.3,0,0,1,251.6,284.71Z"/><path d="M116.88,230.74a89.85,89.85,0,1,1,43.44-11.26A89.94,89.94,0,0,1,116.88,230.74ZM116.61,59a82.07,82.07,0,1,0,22.65,3.2A81.38,81.38,0,0,0,116.61,59Z"/><path d="M184.32,222.71a4,4,0,0,1-2.9-6.82l10-10.37a4,4,0,0,1,5.79,5.6l-10,10.36A4,4,0,0,1,184.32,222.71Z"/><path class="cls-3" d="M116.84,209.3A68.43,68.43,0,0,1,68.11,92.71a4,4,0,1,1,5.72,5.67A60.38,60.38,0,0,0,146,193.68a4,4,0,0,1,3.91,7A68.11,68.11,0,0,1,116.84,209.3Z"/><path class="cls-3" d="M163.31,189.4a4,4,0,0,1-2.91-6.8,60.39,60.39,0,0,0-73-94.52,4,4,0,1,1-3.9-7,68.44,68.44,0,0,1,82.68,107.12A4,4,0,0,1,163.31,189.4Z"/><circle class="cls-2" cx="128.8" cy="163.69" r="10.73"/><circle class="cls-2" cx="101.97" cy="118.07" r="10.73"/><path class="cls-1" d="M71.11,153a4,4,0,0,1-2.85-6.87L84.37,130a4,4,0,0,1,5.69,5.69L74,151.78A4,4,0,0,1,71.11,153Z"/><path class="cls-1" d="M116.73,150.27a4,4,0,0,1-3.35-1.79l-5.37-8a4,4,0,0,1,6.7-4.47l5.37,8a4,4,0,0,1-3.35,6.26Z"/><path class="cls-1" d="M140.88,150.27a4,4,0,0,1-3-6.67l18.78-21.47a4,4,0,0,1,6.06,5.3L143.91,148.9A4,4,0,0,1,140.88,150.27Z"/></g></svg>