<svg xmlns="http://www.w3.org/2000/svg" viewBox="0 0 322.01 273.71"><defs><style>.cls-1{fill:#ffb009;}.cls-2{fill:#252d32;}.cls-3{fill:#273773;}.cls-4{fill:#1b75ba;}</style></defs><g id="Icons"><path class="cls-1" d="M161,187.84v21.47H306.28a10.36,10.36,0,0,0,10.36-10.37v-11.1Z"/><path d="M306.13,214.67H165a4,4,0,1,1,0-8h141.1A7.83,7.83,0,0,0,314,198.8V16.35a8.31,8.31,0,0,0-8.3-8.3h-241a8.31,8.31,0,0,0-8.3,8.3V49.64a4,4,0,1,1-8.05,0V16.35A16.37,16.37,0,0,1,64.65,0h241A16.37,16.37,0,0,1,322,16.35V198.8A15.89,15.89,0,0,1,306.13,214.67Z"/><path d="M213.78,251.67a4,4,0,0,1-3.57-2.18,56.35,56.35,0,0,1-6.27-25.77V213.33a4,4,0,0,1,8.05,0v10.39a48.14,48.14,0,0,0,5.37,22.07,4,4,0,0,1-1.73,5.43A4.07,4.07,0,0,1,213.78,251.67Z"/><path d="M240.17,271a4,4,0,0,1-4-4V254.92H191.86a4,4,0,0,1,0-8h48.31a4,4,0,0,1,4,4V267A4,4,0,0,1,240.17,271Z"/><path d="M315.3,273.71H4a4,4,0,1,1,0-8H315.3a4,4,0,1,1,0,8Z"/><path class="cls-2" d="M312.62,190.52H165a4,4,0,1,1,0-8.05H312.62a4,4,0,0,1,0,8.05Z"/><path class="cls-3" d="M18.78,246.87H142.22a0,0,0,0,1,0,0V266a2.34,2.34,0,0,1-2.34,2.34H21.12A2.34,2.34,0,0,1,18.78,266V246.87A0,0,0,0,1,18.78,246.87Z"/><path class="cls-3" d="M21.12,64.4H139.88a2.34,2.34,0,0,1,2.34,2.34V85.87a0,0,0,0,1,0,0H18.78a0,0,0,0,1,0,0V66.74A2.34,2.34,0,0,1,21.12,64.4Z"/><path d="M134.74,273.71H26.27a12.87,12.87,0,0,1-12.85-12.85v-189A12.86,12.86,0,0,1,26.27,59H134.74a12.87,12.87,0,0,1,12.85,12.85v55.57a4,4,0,1,1-8.05,0V71.89a4.81,4.81,0,0,0-4.8-4.8H26.27a4.8,4.8,0,0,0-4.8,4.8v189a4.81,4.81,0,0,0,4.8,4.8H134.74a4.81,4.81,0,0,0,4.8-4.8V154.3a4,4,0,1,1,8.05,0V260.86A12.87,12.87,0,0,1,134.74,273.71Z"/><path class="cls-4" d="M178.44,153a4,4,0,0,1-2.06-.57l-13.42-8a4,4,0,0,1,0-6.9l13.42-8.05a4,4,0,1,1,4.14,6.9l-7.67,4.6,7.67,4.6a4,4,0,0,1-2.08,7.47Z"/><path class="cls-4" d="M272.37,144.9H167.71a4,4,0,0,1,0-8.05H268.34V41.59a4,4,0,0,1,8.05,0v99.29A4,4,0,0,1,272.37,144.9Z"/><path class="cls-4" d="M248.82,45.62H127.46a4,4,0,0,1,0-8H248.82a4,4,0,1,1,0,8Z"/><path class="cls-4" d="M237.48,53.67a4,4,0,0,1-2.07-7.48l7.67-4.6L235.41,37a4,4,0,0,1,4.14-6.9L253,38.14a4,4,0,0,1,0,6.9l-13.42,8.05A4,4,0,0,1,237.48,53.67Z"/><path class="cls-1" d="M87.21,120.75H41.59a4,4,0,0,1,0-8H87.21a4,4,0,1,1,0,8Z"/><path class="cls-1" d="M87.21,147.59H41.59a4,4,0,0,1,0-8.05H87.21a4,4,0,1,1,0,8.05Z"/><path class="cls-1" d="M119.41,198.57H73.79a4,4,0,0,1,0-8h45.62a4,4,0,1,1,0,8Z"/><path class="cls-1" d="M119.41,225.41H73.79a4,4,0,0,1,0-8h45.62a4,4,0,1,1,0,8Z"/></g></svg>