<?xml version="1.0" encoding="utf-8"?>
<!-- Generator: Adobe Illustrator 26.1.0, SVG Export Plug-In . SVG Version: 6.00 Build 0)  -->
<svg version="1.1" id="icons" xmlns="http://www.w3.org/2000/svg" xmlns:xlink="http://www.w3.org/1999/xlink" x="0px" y="0px"
	 viewBox="0 0 208.7 254.6" style="enable-background:new 0 0 208.7 254.6;" xml:space="preserve">
<style type="text/css">
	.st0{fill:#EF5A28;}
	.st1{fill:#FFB10A;}
	.st2{fill:#FFFFFF;}
</style>
<g>
	<g>
		<rect x="83.4" y="91.1" class="st0" width="8.7" height="8.7"/>
		<rect x="99.9" y="91.1" class="st0" width="8.7" height="8.7"/>
		<rect x="116.4" y="91.1" class="st0" width="8.7" height="8.7"/>
		<rect x="83.4" y="104.9" class="st0" width="8.7" height="8.7"/>
		<rect x="99.9" y="104.9" class="st0" width="8.7" height="8.7"/>
		<rect x="116.4" y="104.9" class="st0" width="8.7" height="8.7"/>
		<rect x="132.9" y="104.9" class="st0" width="8.7" height="8.7"/>
	</g>
	<path class="st1" d="M43.5,67.4c11.2,0,20.7,5.8,23.8,13.7V46.6c-6,0-10.8-4.8-10.8-10.8h-26c0,6-4.9,10.8-10.8,10.8v34.5
		C22.8,73.2,32.3,67.4,43.5,67.4L43.5,67.4z M39.2,52c0-2.4,1.9-4.3,4.3-4.3s4.3,1.9,4.3,4.3s-1.9,4.3-4.3,4.3S39.2,54.4,39.2,52z
		 M67.3,128.9V94.5c-3.2,7.9-12.6,13.7-23.8,13.7s-20.7-5.8-23.9-13.7v34.5c6,0,10.8,4.9,10.8,10.8h26
		C56.5,133.8,61.3,128.9,67.3,128.9L67.3,128.9z M38.1,123.5c0-2.4,1.9-4.3,4.3-4.3s4.3,1.9,4.3,4.3s-1.9,4.3-4.3,4.3
		S38.1,125.9,38.1,123.5z"/>
	
		<ellipse transform="matrix(0.4857 -0.8741 0.8741 0.4857 -38.138 214.7317)" class="st1" cx="163.4" cy="139.8" rx="26.2" ry="26.2"/>
	<circle class="st2" cx="71" cy="18.6" r="2.5"/>
	<g>
		<path class="st2" d="M2.5,131.2c-1.4,0-2.5-1.1-2.5-2.5V18.6c0-1.4,1.1-2.5,2.5-2.5h57.7c1.4,0,2.5,1.1,2.5,2.5s-1.1,2.5-2.5,2.5
			H5v107.7C5,130.1,3.8,131.2,2.5,131.2z"/>
		<path class="st2" d="M73.8,148.8H13.1c-1.4,0-2.5-1.1-2.5-2.5v-117c0-1.4,1.1-2.5,2.5-2.5h60.7c1.4,0,2.5,1.1,2.5,2.5v117
			C76.3,147.6,75.2,148.8,73.8,148.8L73.8,148.8z M15.6,143.8h55.7V31.7H15.6V143.8z"/>
	</g>
	<path class="st0" d="M143.3,34.8h-23.9c-1.4,0-2.5-1.1-2.5-2.5s1.1-2.5,2.5-2.5h23.9c1.4,0,2.5,1.1,2.5,2.5S144.6,34.8,143.3,34.8z
		"/>
	<path class="st0" d="M143.3,45.4h-23.9c-1.4,0-2.5-1.1-2.5-2.5s1.1-2.5,2.5-2.5h23.9c1.4,0,2.5,1.1,2.5,2.5S144.6,45.4,143.3,45.4z
		"/>
	<path class="st0" d="M143.3,23.4h-23.9c-1.4,0-2.5-1.1-2.5-2.5s1.1-2.5,2.5-2.5h23.9c1.4,0,2.5,1.1,2.5,2.5S144.6,23.4,143.3,23.4z
		"/>
	<g>
		<path class="st2" d="M177.7,101.4c-1,0-2-0.6-2.3-1.6l-6-16.4c-0.1-0.3-0.1-0.6-0.1-0.9V38.7h-15c-1.4,0-2.5-1.1-2.5-2.5
			s1.1-2.5,2.5-2.5h17.5c1.4,0,2.5,1.1,2.5,2.5v45.8l5.9,16c0.5,1.3-0.2,2.7-1.5,3.2C178.3,101.3,178,101.4,177.7,101.4L177.7,101.4
			z"/>
		<path class="st2" d="M153.2,72.6c-1.4,0-2.5-1.1-2.5-2.5V4c0-1.4,1.1-2.5,2.5-2.5s2.5,1.1,2.5,2.5v66.1
			C155.6,71.5,154.5,72.6,153.2,72.6L153.2,72.6z"/>
		<path class="st2" d="M145.8,7.7c-2.6,0-4-1-5.1-1.7c-0.8-0.5-1.2-0.8-2.3-0.8s-1.5,0.3-2.3,0.8c-1,0.7-2.5,1.7-5.1,1.7
			s-4-1-5.1-1.7c-0.8-0.5-1.2-0.8-2.3-0.8s-1.5,0.3-2.3,0.8c-1,0.7-2.5,1.7-5.1,1.7s-4-1-5.1-1.7c-0.8-0.5-1.2-0.8-2.3-0.8
			c-1.4,0-2.5-1.1-2.5-2.5s1.1-2.5,2.5-2.5c2.6,0,4,1,5.1,1.7c0.8,0.5,1.2,0.8,2.3,0.8s1.5-0.3,2.3-0.8c1-0.7,2.5-1.7,5.1-1.7
			s4,1,5.1,1.7c0.8,0.5,1.2,0.8,2.3,0.8s1.5-0.3,2.3-0.8c1-0.7,2.5-1.7,5.1-1.7s4,1,5.1,1.7c0.8,0.5,1.2,0.8,2.3,0.8
			s1.5-0.3,2.3-0.8c1-0.7,2.5-1.7,5.1-1.7c1.4,0,2.5,1.1,2.5,2.5s-1.1,2.5-2.5,2.5c-1.1,0-1.5,0.3-2.3,0.8
			C149.8,6.8,148.4,7.7,145.8,7.7L145.8,7.7z"/>
		<path class="st2" d="M160.2,72.6h-59.8c-1.4,0-2.5-1.1-2.5-2.5s1.1-2.5,2.5-2.5h59.8c1.4,0,2.5,1.1,2.5,2.5S161.5,72.6,160.2,72.6
			z"/>
		<path class="st2" d="M148.9,59.3h-3.7c-1.4,0-2.5-1.1-2.5-2.5s1.1-2.5,2.5-2.5h3.7c1.4,0,2.5,1.1,2.5,2.5S150.3,59.3,148.9,59.3z
			 M132.8,59.3h-3.7c-1.4,0-2.5-1.1-2.5-2.5s1.1-2.5,2.5-2.5h3.7c1.4,0,2.5,1.1,2.5,2.5S134.2,59.3,132.8,59.3z M116.7,59.3H113
			c-1.4,0-2.5-1.1-2.5-2.5s1.1-2.5,2.5-2.5h3.7c1.4,0,2.5,1.1,2.5,2.5S118.1,59.3,116.7,59.3z"/>
		<path class="st2" d="M108.1,70.6c-1.4,0-2.5-1.1-2.5-2.5V2.5c0-1.4,1.1-2.5,2.5-2.5s2.5,1.1,2.5,2.5v65.6
			C110.6,69.5,109.5,70.6,108.1,70.6z"/>
		<path class="st2" d="M107.2,38.4H81.6c-1.4,0-2.5-1.1-2.5-2.5s1.1-2.5,2.5-2.5h25.6c1.4,0,2.5,1.1,2.5,2.5S108.6,38.4,107.2,38.4z
			"/>
	</g>
	<path class="st1" d="M196.8,147.4c-0.2,0-0.4,0-0.6-0.1c-1.3-0.3-2.2-1.6-1.9-3c1.9-7.9,0.5-16.1-3.8-23c-0.9-1.4-1.9-2.7-2.9-4
		c-6-6.8-14.6-10.6-23.6-10.4c-1.4,0.1-2.5-1.1-2.5-2.4c0-1.4,1.1-2.5,2.4-2.5c10.6-0.3,20.5,4.1,27.5,12.1c1.3,1.4,2.4,3,3.4,4.6
		c5,8,6.6,17.5,4.4,26.7C199,146.6,198,147.4,196.8,147.4L196.8,147.4z"/>
	<g>
		<path class="st2" d="M164.5,159.1c-1.4,0-2.5-1.1-2.5-2.5v-1.8c0-1.4,1.1-2.5,2.5-2.5l0,0c1.4,0,2.5,1.1,2.5,2.5v1.8
			C166.9,157.9,165.8,159.1,164.5,159.1L164.5,159.1z"/>
		<path class="st2" d="M164.4,129c-1.4,0-2.5-1.1-2.5-2.5v-2c0-1.4,1.1-2.5,2.5-2.5l0,0c1.4,0,2.5,1.1,2.5,2.5v2
			C166.9,127.9,165.8,129,164.4,129L164.4,129z"/>
		<path class="st2" d="M164,156c-5,0-8.4-3.2-9.4-4.3c-0.9-1-0.9-2.6,0.1-3.5c1-0.9,2.6-0.9,3.5,0.1c0.4,0.5,2.9,2.9,6.2,2.7
			c1.7-0.1,4.6-1,5.2-2.9c0.4-1.2,0-2.9-1-4c-1.1-1.3-2.6-1.6-5.1-1.9c-2.6-0.3-5.8-0.7-7.9-3.6c-1.8-2.4-2.2-5.7-1.1-8.3
			c1.6-4,6.2-5.6,9.8-5.3c4.3,0.3,6.9,3,7.9,4.2c0.9,1.1,0.7,2.6-0.4,3.5c-1.1,0.9-2.6,0.7-3.5-0.4c-0.4-0.5-2-2.2-4.3-2.4
			c-1.9-0.1-4.2,0.7-4.9,2.3c-0.4,1.1-0.2,2.5,0.5,3.5c0.8,1.1,2.2,1.3,4.5,1.6c2.6,0.3,5.8,0.7,8.2,3.6c2.1,2.5,2.8,5.9,1.9,8.7
			c-1.4,4.2-6,6-9.5,6.3C164.5,156,164.3,156,164,156L164,156z"/>
	</g>
	<g>
		<path class="st2" d="M164.5,159.1c-1.4,0-2.5-1.1-2.5-2.5v-1.8c0-1.4,1.1-2.5,2.5-2.5l0,0c1.4,0,2.5,1.1,2.5,2.5v1.8
			C166.9,157.9,165.8,159.1,164.5,159.1L164.5,159.1z"/>
		<path class="st2" d="M164.4,129c-1.4,0-2.5-1.1-2.5-2.5v-2c0-1.4,1.1-2.5,2.5-2.5l0,0c1.4,0,2.5,1.1,2.5,2.5v2
			C166.9,127.9,165.8,129,164.4,129L164.4,129z"/>
		<path class="st2" d="M164,156c-5,0-8.4-3.2-9.4-4.3c-0.9-1-0.9-2.6,0.1-3.5c1-0.9,2.6-0.9,3.5,0.1c0.4,0.5,2.9,2.9,6.2,2.7
			c1.7-0.1,4.6-1,5.2-2.9c0.4-1.2,0-2.9-1-4c-1.1-1.3-2.6-1.6-5.1-1.9c-2.6-0.3-5.8-0.7-7.9-3.6c-1.8-2.4-2.2-5.7-1.1-8.3
			c1.6-4,6.2-5.6,9.8-5.3c4.3,0.3,6.9,3,7.9,4.2c0.9,1.1,0.7,2.6-0.4,3.5c-1.1,0.9-2.6,0.7-3.5-0.4c-0.4-0.5-2-2.2-4.3-2.4
			c-1.9-0.1-4.2,0.7-4.9,2.3c-0.4,1.1-0.2,2.5,0.5,3.5c0.8,1.1,2.2,1.3,4.5,1.6c2.6,0.3,5.8,0.7,8.2,3.6c2.1,2.5,2.8,5.9,1.9,8.7
			c-1.4,4.2-6,6-9.5,6.3C164.5,156,164.3,156,164,156L164,156z"/>
	</g>
	<g>
		<circle class="st2" cx="13.3" cy="175.6" r="2.5"/>
		<path class="st2" d="M137.9,124.9H81.8c-1.4,0-2.5-1.1-2.5-2.5s1.1-2.5,2.5-2.5h56.1c1.4,0,2.5,1.1,2.5,2.5
			S139.3,124.9,137.9,124.9z"/>
		<path class="st2" d="M161.3,177.9H22.7c-1.4,0-2.5-1.1-2.5-2.5s1.1-2.5,2.5-2.5h138.6c1.4,0,2.5,1.1,2.5,2.5
			S162.7,177.9,161.3,177.9L161.3,177.9z"/>
		<path class="st2" d="M140.5,166.2H34.3c-1.4,0-2.5-1.1-2.5-2.5v-9.5c0-1.4,1.1-2.5,2.5-2.5s2.5,1.1,2.5,2.5v7h103.7
			c1.4,0,2.5,1.1,2.5,2.5S141.9,166.2,140.5,166.2L140.5,166.2z"/>
		<path class="st2" d="M110.9,151.9c-5.3,0-9.6-4.3-9.6-9.6s4.3-9.6,9.6-9.6s9.6,4.3,9.6,9.6S116.2,151.9,110.9,151.9z M110.9,137.7
			c-2.5,0-4.6,2.1-4.6,4.6s2.1,4.6,4.6,4.6s4.6-2.1,4.6-4.6S113.4,137.7,110.9,137.7z"/>
		<path class="st2" d="M171.7,85H82.5c-1.4,0-2.5-1.1-2.5-2.5s1.1-2.5,2.5-2.5h89.3c1.4,0,2.5,1.1,2.5,2.5S173.1,85,171.7,85z"/>
		<path class="st2" d="M160.5,97.5h-24.1c-1.4,0-2.5-1.1-2.5-2.5s1.1-2.5,2.5-2.5h24.1c1.4,0,2.5,1.1,2.5,2.5S161.8,97.5,160.5,97.5
			z"/>
	</g>
	<path class="st1" d="M195.1,156.6c-0.5,1.3-1.9,1.9-3.2,1.4c-1.3-0.5-1.9-1.9-1.4-3.2c0.5-1.3,1.9-1.9,3.2-1.4
		C194.9,153.8,195.6,155.3,195.1,156.6z"/>
</g>
</svg>
