<?xml version="1.0" encoding="UTF-8"?>
<svg id="icons" xmlns="http://www.w3.org/2000/svg" viewBox="0 0 208.7 1042.3">
  <defs>
    <style>
      .cls-1 {
        fill: #ffb10a;
      }

      .cls-1, .cls-2, .cls-3 {
        stroke-width: 0px;
      }

      .cls-2 {
        fill: #fff;
      }

      .cls-3 {
        fill: #ef5a28;
      }
    </style>
  </defs>
  <g>
    <g>
      <rect class="cls-3" x="115.46" y="676.99" width="27.07" height="8.1"/>
      <rect class="cls-3" x="115.46" y="663.49" width="27.07" height="8.1"/>
      <rect class="cls-3" x="115.46" y="650" width="27.07" height="8.1"/>
      <rect class="cls-3" x="115.46" y="623.42" width="27.07" height="8.1"/>
      <rect class="cls-3" x="121.58" y="637.04" width="20.95" height="8.1"/>
    </g>
    <circle class="cls-1" cx="82.73" cy="625.04" r="20.16" transform="translate(-116.69 26.92) rotate(-10.9)"/>
    <path class="cls-1" d="M155.74,581.07c-1.37,0-2.48-1.11-2.48-2.48v-7.76c0-3.41,3.01-6.19,6.72-6.19h13.49c.96,0,1.51-.49,1.7-.9.13-.3.1-.57-.1-.84l-32.62-26.86c-1.59-1.2-2.25-1.07-3.64.03l-32.58,26.83c-.2.28-.23.55-.1.84.19.42.74.9,1.7.9h12.82c3.71,0,6.72,2.78,6.72,6.19,0,1.37-1.11,2.48-2.48,2.48s-2.48-1.11-2.48-2.48c0-.65-.82-1.23-1.76-1.23h-12.82c-2.74,0-5.18-1.51-6.23-3.84-.95-2.11-.55-4.53,1.02-6.29.08-.09.18-.18.27-.26l32.8-27.01c3.26-2.58,6.46-2.6,9.83-.07l32.88,27.07c.1.08.19.17.27.26,1.58,1.77,1.97,4.18,1.02,6.29-1.04,2.33-3.49,3.84-6.23,3.84h-13.49c-.94,0-1.76.57-1.76,1.23v7.76c0,1.37-1.11,2.48-2.48,2.48Z"/>
    <path class="cls-2" d="M67.16,574.61c-1.37,0-2.48-1.11-2.48-2.48v-9.73c0-.76-.9-1.4-1.96-1.4h-13.43c-2.82,0-5.34-1.55-6.41-3.95-.97-2.17-.57-4.65,1.05-6.46.08-.09.18-.18.27-.26l34.34-28.27c3.41-2.7,6.62-2.72,10.14-.07l17.19,13.97c1.06.86,1.22,2.43.36,3.49-.86,1.06-2.43,1.22-3.49.36l-17.12-13.91c-1.74-1.3-2.49-1.16-3.96.02l-34.12,28.1c-.24.33-.28.66-.13,1.01.21.47.83,1.01,1.89,1.01h13.43c3.82,0,6.92,2.85,6.92,6.36v9.73c0,1.37-1.11,2.48-2.48,2.48Z"/>
    <path class="cls-2" d="M162.92,714.61H39.46c-1.37,0-2.48-1.11-2.48-2.48v-130.28c0-1.37,1.11-2.48,2.48-2.48h123.46c1.37,0,2.48,1.11,2.48,2.48v130.28c0,1.37-1.11,2.48-2.48,2.48ZM41.94,709.65h118.49v-125.32H41.94v125.32Z"/>
    <path class="cls-2" d="M186.62,723.25c-.3,0-.6-.06-.88-.16l-22.96-8.76c-1.28-.49-1.92-1.92-1.43-3.2.49-1.28,1.93-1.92,3.2-1.43l22.53,8.59,6.12-.05v-142.09h-5.55s-23.94,8.06-23.94,8.06c-1.3.44-2.71-.26-3.14-1.56-.44-1.3.26-2.71,1.56-3.14l24.32-8.19c.25-.09.52-.13.79-.13h8.44s0,0,0,0c.66,0,1.29.26,1.75.73.47.47.73,1.1.73,1.76v147.03c0,1.36-1.1,2.47-2.46,2.48l-9.05.07h-.02Z"/>
    <path class="cls-2" d="M71.97,726.52h-16.01c-1.06,0-2.01-.67-2.35-1.68l-3.47-10.17c-.44-1.3.25-2.71,1.55-3.15,1.3-.45,2.71.25,3.15,1.55l2.9,8.49h12.48l2.89-8.09c.46-1.29,1.89-1.96,3.17-1.5,1.29.46,1.96,1.88,1.5,3.17l-3.47,9.73c-.35.99-1.29,1.65-2.34,1.65Z"/>
    <path class="cls-2" d="M148.27,726.52h-16.01c-1.06,0-2.01-.67-2.35-1.68l-3.47-10.17c-.44-1.3.25-2.71,1.55-3.15,1.3-.45,2.71.25,3.15,1.55l2.9,8.49h12.48l2.89-8.09c.46-1.29,1.89-1.96,3.17-1.5,1.29.46,1.96,1.88,1.5,3.17l-3.47,9.73c-.35.99-1.29,1.65-2.34,1.65Z"/>
    <circle class="cls-2" cx="27.96" cy="700.14" r="2.48"/>
    <circle class="cls-2" cx="206.22" cy="687.11" r="2.48"/>
    <circle class="cls-2" cx="110.47" cy="544.42" r="2.48"/>
    <path class="cls-2" d="M83.19,641.66c-1.34,0-2.45-1.07-2.48-2.42l-.03-1.41c-.03-1.37,1.05-2.51,2.42-2.54,1.37-.07,2.51,1.05,2.54,2.42l.03,1.41c.03,1.37-1.05,2.51-2.42,2.54-.02,0-.04,0-.06,0Z"/>
    <path class="cls-2" d="M82.43,638.42c-4.22,0-7.12-2.64-7.95-3.5-.95-.99-.93-2.56.06-3.51.99-.95,2.56-.93,3.51.06.36.37,2.31,2.22,4.88,1.97,1.28-.12,3.46-.82,3.88-2.18.26-.85-.07-2.07-.8-2.89-.83-.95-2.05-1.12-3.98-1.32-2.21-.23-4.97-.53-6.89-3.02-1.59-2.06-2.02-4.93-1.1-7.32,1.36-3.53,5.39-4.99,8.45-4.87,3.7.15,6.07,2.49,6.91,3.49.89,1.05.75,2.61-.29,3.5-1.05.89-2.61.76-3.5-.29-.33-.39-1.55-1.67-3.33-1.74-1.36-.06-3.18.58-3.62,1.7-.25.64-.19,1.73.4,2.5.6.78,1.66.92,3.48,1.12,2.24.24,5.03.53,7.18,2.98,1.87,2.13,2.59,5.12,1.82,7.63-1.14,3.72-5.11,5.38-8.16,5.67-.33.03-.65.05-.97.05Z"/>
    <path class="cls-2" d="M151.13,703.94h-2.07c-1.37,0-2.48-1.11-2.48-2.48s1.11-2.48,2.48-2.48h2.07c1.37,0,2.48,1.11,2.48,2.48s-1.11,2.48-2.48,2.48ZM136.65,703.94h-3.72c-1.37,0-2.48-1.11-2.48-2.48s1.11-2.48,2.48-2.48h3.72c1.37,0,2.48,1.11,2.48,2.48s-1.11,2.48-2.48,2.48ZM120.52,703.94h-3.72c-1.37,0-2.48-1.11-2.48-2.48s1.11-2.48,2.48-2.48h3.72c1.37,0,2.48,1.11,2.48,2.48s-1.11,2.48-2.48,2.48ZM104.39,703.94h-3.72c-1.37,0-2.48-1.11-2.48-2.48s1.11-2.48,2.48-2.48h3.72c1.37,0,2.48,1.11,2.48,2.48s-1.11,2.48-2.48,2.48ZM88.26,703.94h-3.72c-1.37,0-2.48-1.11-2.48-2.48s1.11-2.48,2.48-2.48h3.72c1.37,0,2.48,1.11,2.48,2.48s-1.11,2.48-2.48,2.48ZM72.13,703.94h-3.72c-1.37,0-2.48-1.11-2.48-2.48s1.11-2.48,2.48-2.48h3.72c1.37,0,2.48,1.11,2.48,2.48s-1.11,2.48-2.48,2.48ZM56,703.94h-3.72c-1.37,0-2.48-1.11-2.48-2.48s1.11-2.48,2.48-2.48h3.72c1.37,0,2.48,1.11,2.48,2.48s-1.11,2.48-2.48,2.48Z"/>
    <path class="cls-2" d="M151.75,692.69H50.63c-1.37,0-2.48-1.11-2.48-2.48v-96.57c0-1.37,1.11-2.48,2.48-2.48h101.12c1.37,0,2.48,1.11,2.48,2.48v96.57c0,1.37-1.11,2.48-2.48,2.48ZM53.11,687.73h96.15v-91.61H53.11v91.61Z"/>
    <path class="cls-2" d="M27.47,690.21c-1.37,0-2.48-1.11-2.48-2.48v-90.58c0-1.37,1.11-2.48,2.48-2.48s2.48,1.11,2.48,2.48v90.58c0,1.37-1.11,2.48-2.48,2.48Z"/>
    <path class="cls-2" d="M206.01,678.92c-1.37,0-2.48-1.11-2.48-2.48v-79.28c0-1.37,1.11-2.48,2.48-2.48s2.48,1.11,2.48,2.48v79.28c0,1.37-1.11,2.48-2.48,2.48Z"/>
    <path class="cls-2" d="M187.19,721.85c-1.37,0-2.48-1.11-2.48-2.48v-143.1c0-1.37,1.11-2.48,2.48-2.48s2.48,1.11,2.48,2.48v143.1c0,1.37-1.11,2.48-2.48,2.48Z"/>
    <path class="cls-1" d="M105.51,686.43c-1.37,0-2.48-1.11-2.48-2.48v-4.13h-37.23v4.07c0,1.37-1.11,2.48-2.48,2.48s-2.48-1.11-2.48-2.48v-6.55c0-1.37,1.11-2.48,2.48-2.48h42.19c1.37,0,2.48,1.11,2.48,2.48v6.6c0,1.37-1.11,2.48-2.48,2.48Z"/>
    <path class="cls-1" d="M105.51,673.4c-1.37,0-2.48-1.11-2.48-2.48v-4.13h-37.23v4.07c0,1.37-1.11,2.48-2.48,2.48s-2.48-1.11-2.48-2.48v-6.55c0-1.37,1.11-2.48,2.48-2.48h42.19c1.37,0,2.48,1.11,2.48,2.48v6.6c0,1.37-1.11,2.48-2.48,2.48Z"/>
    <path class="cls-1" d="M105.51,660.38c-1.37,0-2.48-1.11-2.48-2.48v-4.13h-37.23v4.07c0,1.37-1.11,2.48-2.48,2.48s-2.48-1.11-2.48-2.48v-6.55c0-1.37,1.11-2.48,2.48-2.48h42.19c1.37,0,2.48,1.11,2.48,2.48v6.6c0,1.37-1.11,2.48-2.48,2.48Z"/>
    <path class="cls-2" d="M81.85,614.93c-1.34,0-2.45-1.07-2.48-2.43l-.04-1.65c-.03-1.37,1.05-2.51,2.42-2.54,1.35-.07,2.51,1.05,2.54,2.42l.04,1.65c.03,1.37-1.05,2.51-2.42,2.54-.02,0-.04,0-.06,0Z"/>
  </g>
  <g>
    <circle class="cls-1" cx="43.93" cy="309.16" r="23.21" transform="translate(-3.66 .54) rotate(-.68)"/>
    <path class="cls-1" d="M59.61,418.02c5.17-1.1,10.51-2.24,13.11-3.21.58-.19.94-.37,1.16-.5,1.54-.97,7.64-6.77,13.01-11.88,3.17-3.01,5.69-5.41,7.7-7.27-7.97,4.38-23.97,14.27-27.22,15.36-.38.13-.91.23-1.56.29-5.2.67-18.17-.2-26.03.12l5.41,10.58c3.5-1.17,9.04-2.35,14.41-3.5Z"/>
    <circle class="cls-1" cx="157.26" cy="408.25" r="36.68" transform="translate(-278.8 372.83) rotate(-64.29)"/>
    <path class="cls-1" d="M113.93,408.24c-.31.06-.62.1-.94.1-2.8,0-5.08-2.27-5.08-5.08s2.27-5.08,5.08-5.08c.82,0,1.58.21,2.27.56.97-3.96,2.44-7.77,4.38-11.34-2.15.4-4.37.63-6.65.63-.87,0-1.73-.04-2.57-.09-5,4.07-11.29,6.63-15.66,11.38-3.33,3.61-6.36,7.37-9.85,10.67,5.27,1.54,10.32,7.81,10.32,13.58h20.7c-1.54-5.09-2.17-10.26-1.99-15.33Z"/>
    <path class="cls-1" d="M130.76,301.72h-35.54c0,7.01-5.68,12.69-12.69,12.69v40.64c3.34-11.67,15.71-20.33,30.46-20.33s27.12,8.66,30.46,20.33v-40.64c-7.01,0-12.69-5.68-12.69-12.69ZM112.99,327.1c-2.8,0-5.08-2.27-5.08-5.08s2.27-5.08,5.08-5.08,5.08,2.27,5.08,5.08-2.27,5.08-5.08,5.08Z"/>
    <path class="cls-3" d="M43.34,327.5s-.06,0-.09,0c-1.38-.05-2.47-1.22-2.41-2.6l.07-1.8c.05-1.39,1.17-2.46,2.6-2.41,1.38.05,2.47,1.22,2.41,2.6l-.07,1.8c-.05,1.35-1.16,2.42-2.51,2.42Z"/>
    <path class="cls-3" d="M43.49,298.13s-.06,0-.09,0c-1.38-.05-2.47-1.22-2.41-2.6l.07-1.92c.05-1.38,1.21-2.46,2.6-2.41,1.38.05,2.47,1.22,2.41,2.6l-.07,1.92c-.05,1.35-1.16,2.42-2.51,2.42Z"/>
    <path class="cls-3" d="M43.34,324.47c-5.18,0-8.57-3.47-9.5-4.56-.9-1.05-.78-2.64.27-3.54,1.05-.9,2.64-.78,3.54.27.42.49,2.64,2.9,5.92,2.8,1.68-.06,4.42-.79,5.08-2.56.41-1.11.08-2.72-.79-3.85-1-1.29-2.49-1.6-4.83-1.99-2.51-.42-5.62-.94-7.61-3.86-1.64-2.42-1.94-5.66-.74-8.27,1.77-3.86,6.34-5.24,9.85-4.89,4.18.42,6.7,3.24,7.59,4.43.83,1.11.6,2.68-.51,3.51-1.11.83-2.68.6-3.51-.51-.38-.51-1.82-2.21-4.07-2.44-1.82-.18-4.11.5-4.78,1.98-.39.85-.4,2.28.33,3.36.74,1.09,2.04,1.36,4.28,1.73,2.54.42,5.71.95,7.97,3.85,1.97,2.52,2.57,5.93,1.53,8.69-1.53,4.09-6.13,5.69-9.61,5.81-.14,0-.27,0-.41,0Z"/>
    <path class="cls-3" d="M12.12,308.27s-.06,0-.09,0c-1.38-.05-2.47-1.22-2.41-2.6.67-18.21,16.01-32.45,34.24-31.8,1.38.05,2.47,1.22,2.41,2.6-.05,1.38-1.23,2.46-2.6,2.41-15.49-.59-28.47,11.53-29.04,26.97-.05,1.35-1.16,2.42-2.51,2.42Z"/>
    <path class="cls-2" d="M151.07,354.95c-1.39,0-2.51-1.12-2.51-2.51v-55.83h-71.13v31.99c0,1.39-1.12,2.51-2.51,2.51s-2.51-1.12-2.51-2.51v-34.49c0-1.39,1.12-2.51,2.51-2.51h76.15c1.39,0,2.51,1.12,2.51,2.51v58.34c0,1.39-1.12,2.51-2.51,2.51Z"/>
    <path class="cls-2" d="M121.06,433.69h-46.15c-1.39,0-2.51-1.12-2.51-2.51v-7.15c0-1.39,1.12-2.51,2.51-2.51s2.51,1.12,2.51,2.51v4.64h43.64c1.39,0,2.51,1.12,2.51,2.51s-1.12,2.51-2.51,2.51Z"/>
    <path class="cls-2" d="M44.66,426.25c-1,0-1.94-.6-2.33-1.58-.51-1.29.11-2.75,1.4-3.26,3.49-1.4,9.92-2.77,16.13-4.09,5.19-1.11,10.55-2.25,13.16-3.22.64-.21.94-.39,1.02-.44,1.61-1,8.07-7.15,13.26-12.09,8.13-7.74,12.13-11.48,13.75-12.35,14.38-7.73,16.62-13.84,16.68-16.79.07-3.63-2.82-5.52-3.4-5.86-4.76-2.81-9.62.48-17.07,6.24-3.48,2.69-7.07,5.47-10.8,7.08-3.33,1.44-6.95,1.32-9.93-.32-2.77-1.53-4.64-4.15-5.12-7.21-.16-.93-.17-1.89-.03-2.89v-28.63c-7.09,1.19-12.05,2.6-15.68,3.72-6.42,2.02-10.19,7.51-12.21,10.46l-.09.13c-1.94,2.8-3.82,8.42-5.64,13.85-2.4,7.18-4.89,14.6-8.26,18.26-.94,1.02-2.52,1.09-3.55.14-1.02-.94-1.08-2.53-.15-3.55,2.65-2.87,5.06-10.08,7.19-16.45,2.02-6.03,3.93-11.73,6.27-15.11l.08-.12c2.2-3.2,6.77-9.87,14.85-12.41,4.27-1.33,10.32-3.02,19.32-4.35.72-.1,1.45.11,2.01.58.55.48.87,1.17.87,1.9v31.75c0,.13-.01.27-.03.4-.09.53-.09,1,0,1.48.24,1.55,1.19,2.86,2.59,3.64,1.63.9,3.59.94,5.52.11,3.15-1.36,6.49-3.95,9.72-6.45,6.87-5.32,14.65-11.34,22.69-6.59,2.9,1.71,5.96,5.31,5.86,10.28-.14,7.19-6.64,14.29-19.32,21.11-1.29.73-7.87,6.99-12.67,11.57-7.48,7.12-12.16,11.53-14.09,12.72-.55.34-1.23.65-1.98.9-2.87,1.07-8.17,2.2-13.78,3.39-6.01,1.28-12.21,2.6-15.31,3.84-.31.12-.62.18-.93.18Z"/>
    <path class="cls-2" d="M27.25,444.54c-.91,0-1.79-.5-2.24-1.37-.63-1.23-.14-2.75,1.09-3.38l18.62-9.52-22.93-44.83-8.4,4.3c-1.24.63-2.75.14-3.38-1.09-.63-1.23-.14-2.75,1.09-3.38l10.63-5.44c1.23-.63,2.75-.14,3.38,1.09l25.22,49.3c.3.59.36,1.28.15,1.91-.2.63-.65,1.16-1.24,1.46l-20.85,10.67c-.37.19-.76.28-1.14.28Z"/>
    <path class="cls-2" d="M36.08,427.42c.6,2.17-.68,4.42-2.85,5.02s-4.42-.68-5.02-2.85.68-4.42,2.85-5.02,4.42.68,5.02,2.85Z"/>
    <path class="cls-3" d="M203.82,414.57c-.08,0-.16,0-.25-.01-1.38-.14-2.39-1.36-2.25-2.74.63-6.36-.13-12.65-2.25-18.72-6.15-17.57-22.79-29.38-41.4-29.38-4.93,0-9.8.83-14.49,2.47-1.85.65-3.67,1.42-5.41,2.31-1.23.63-2.75.13-3.37-1.1-.63-1.24-.14-2.75,1.1-3.37,1.93-.98,3.96-1.85,6.02-2.57,5.22-1.83,10.65-2.75,16.15-2.75,20.74,0,39.28,13.16,46.14,32.74,2.37,6.76,3.21,13.78,2.51,20.87-.13,1.3-1.22,2.26-2.49,2.26Z"/>
    <g>
      <path class="cls-3" d="M148.08,428.67c-.46,0-.92-.13-1.33-.39-1.15-.74-1.49-2.27-.75-3.42l21.93-34.25c.74-1.15,2.27-1.49,3.42-.75,1.15.74,1.49,2.27.75,3.42l-21.93,34.25c-.47.74-1.27,1.14-2.09,1.14Z"/>
      <path class="cls-3" d="M149.08,406.74c-4.36,0-7.91-3.55-7.91-7.91s3.55-7.91,7.91-7.91,7.91,3.55,7.91,7.91-3.55,7.91-7.91,7.91ZM149.08,395.88c-1.63,0-2.96,1.33-2.96,2.96s1.33,2.96,2.96,2.96,2.96-1.33,2.96-2.96-1.33-2.96-2.96-2.96Z"/>
      <path class="cls-3" d="M168.97,426.79c-4.36,0-7.91-3.55-7.91-7.91s3.55-7.91,7.91-7.91,7.91,3.55,7.91,7.91-3.55,7.91-7.91,7.91ZM168.97,415.93c-1.63,0-2.96,1.33-2.96,2.95s1.33,2.96,2.96,2.96,2.96-1.33,2.96-2.96-1.33-2.95-2.96-2.95Z"/>
    </g>
    <path class="cls-2" d="M162.68,351.38c-1.39,0-2.51-1.12-2.51-2.51v-64.4h-85.26c-1.39,0-2.51-1.12-2.51-2.51s1.12-2.51,2.51-2.51h87.77c1.39,0,2.51,1.12,2.51,2.51v66.91c0,1.39-1.12,2.51-2.51,2.51Z"/>
    <rect class="cls-3" x="200.03" y="418.75" width="4.7" height="4.7" rx="1.62" ry="1.62" transform="translate(664.19 350.29) rotate(106.95)"/>
    <path class="cls-3" d="M55.14,277.59c0,1.37-1.11,2.48-2.48,2.48s-2.48-1.11-2.48-2.48,1.11-2.48,2.48-2.48,2.48,1.11,2.48,2.48Z"/>
  </g>
  <g>
    <g>
      <rect class="cls-3" x="83.36" y="91.12" width="8.67" height="8.67"/>
      <rect class="cls-3" x="99.86" y="91.12" width="8.67" height="8.67"/>
      <rect class="cls-3" x="116.37" y="91.12" width="8.67" height="8.67"/>
      <rect class="cls-3" x="83.36" y="104.94" width="8.67" height="8.67"/>
      <rect class="cls-3" x="99.86" y="104.94" width="8.67" height="8.67"/>
      <rect class="cls-3" x="116.37" y="104.94" width="8.67" height="8.67"/>
      <rect class="cls-3" x="132.94" y="104.94" width="8.67" height="8.67"/>
    </g>
    <path class="cls-1" d="M43.5,67.36c11.19,0,20.66,5.75,23.83,13.67v-34.44c-5.98,0-10.84-4.85-10.84-10.84h-26.01c0,5.98-4.85,10.84-10.84,10.84v34.51c3.14-7.95,12.63-13.74,23.85-13.74ZM39.15,52.01c0-2.39,1.94-4.33,4.33-4.33s4.33,1.94,4.33,4.33-1.94,4.33-4.33,4.33-4.33-1.94-4.33-4.33ZM67.32,128.95v-34.44c-3.17,7.92-12.64,13.67-23.83,13.67s-20.71-5.78-23.85-13.74v34.51c5.98,0,10.84,4.85,10.84,10.84h26.01c0-5.98,4.85-10.84,10.84-10.84ZM38.06,123.53c0-2.39,1.94-4.33,4.33-4.33s4.33,1.94,4.33,4.33-1.94,4.33-4.33,4.33-4.33-1.94-4.33-4.33Z"/>
    <circle class="cls-1" cx="163.42" cy="139.78" r="26.21" transform="translate(-38.14 214.73) rotate(-60.94)"/>
    <circle class="cls-2" cx="71" cy="18.61" r="2.51"/>
    <g>
      <path class="cls-2" d="M2.48,131.23c-1.37,0-2.48-1.11-2.48-2.48V18.6c0-1.37,1.11-2.48,2.48-2.48h57.72c1.37,0,2.48,1.11,2.48,2.48s-1.11,2.48-2.48,2.48H4.96v107.67c0,1.37-1.11,2.48-2.48,2.48Z"/>
      <path class="cls-2" d="M73.82,148.77H13.14c-1.37,0-2.48-1.11-2.48-2.48V29.25c0-1.37,1.11-2.48,2.48-2.48h60.68c1.37,0,2.48,1.11,2.48,2.48v117.03c0,1.37-1.11,2.48-2.48,2.48ZM15.62,143.81h55.72V31.74H15.62v112.07Z"/>
    </g>
    <path class="cls-3" d="M143.27,34.82h-23.94c-1.37,0-2.48-1.11-2.48-2.48s1.11-2.48,2.48-2.48h23.94c1.37,0,2.48,1.11,2.48,2.48s-1.11,2.48-2.48,2.48Z"/>
    <path class="cls-3" d="M143.27,45.41h-23.94c-1.37,0-2.48-1.11-2.48-2.48s1.11-2.48,2.48-2.48h23.94c1.37,0,2.48,1.11,2.48,2.48s-1.11,2.48-2.48,2.48Z"/>
    <path class="cls-3" d="M143.27,23.43h-23.94c-1.37,0-2.48-1.11-2.48-2.48s1.11-2.48,2.48-2.48h23.94c1.37,0,2.48,1.11,2.48,2.48s-1.11,2.48-2.48,2.48Z"/>
    <g>
      <path class="cls-2" d="M177.73,101.38c-1.01,0-1.96-.62-2.33-1.63l-6.02-16.37c-.1-.27-.15-.56-.15-.86v-43.78h-14.98c-1.37,0-2.48-1.11-2.48-2.48s1.11-2.48,2.48-2.48h17.46c1.37,0,2.48,1.11,2.48,2.48v45.82l5.87,15.96c.47,1.29-.19,2.71-1.47,3.19-.28.1-.57.15-.86.15Z"/>
      <path class="cls-2" d="M153.16,72.57c-1.37,0-2.48-1.11-2.48-2.48V3.99c0-1.37,1.11-2.48,2.48-2.48s2.48,1.11,2.48,2.48v66.11c0,1.37-1.11,2.48-2.48,2.48Z"/>
      <path class="cls-2" d="M145.81,7.71c-2.6,0-4.02-.96-5.06-1.66-.8-.54-1.21-.82-2.29-.82s-1.48.27-2.28.82c-1.04.7-2.47,1.67-5.06,1.67s-4.02-.96-5.06-1.67c-.8-.54-1.21-.81-2.28-.81s-1.48.27-2.28.82c-1.04.7-2.47,1.67-5.06,1.67s-4.02-.96-5.06-1.67c-.8-.54-1.21-.82-2.28-.82-1.37,0-2.48-1.11-2.48-2.48s1.11-2.48,2.48-2.48c2.6,0,4.02.96,5.06,1.67.8.54,1.21.82,2.28.82s1.48-.27,2.28-.82c1.04-.7,2.47-1.67,5.06-1.67s4.02.96,5.06,1.67c.8.54,1.21.82,2.28.82s1.48-.27,2.28-.82c1.04-.7,2.47-1.67,5.06-1.67s4.02.96,5.06,1.67c.8.54,1.21.82,2.29.82s1.48-.27,2.29-.82c1.04-.7,2.47-1.67,5.06-1.67,1.37,0,2.48,1.11,2.48,2.48s-1.11,2.48-2.48,2.48c-1.08,0-1.48.27-2.29.82-1.04.7-2.47,1.67-5.06,1.67Z"/>
      <path class="cls-2" d="M160.18,72.57h-59.78c-1.37,0-2.48-1.11-2.48-2.48s1.11-2.48,2.48-2.48h59.78c1.37,0,2.48,1.11,2.48,2.48s-1.11,2.48-2.48,2.48Z"/>
      <path class="cls-2" d="M148.94,59.35h-3.72c-1.37,0-2.48-1.11-2.48-2.48s1.11-2.48,2.48-2.48h3.72c1.37,0,2.48,1.11,2.48,2.48s-1.11,2.48-2.48,2.48ZM132.81,59.35h-3.72c-1.37,0-2.48-1.11-2.48-2.48s1.11-2.48,2.48-2.48h3.72c1.37,0,2.48,1.11,2.48,2.48s-1.11,2.48-2.48,2.48ZM116.68,59.35h-3.72c-1.37,0-2.48-1.11-2.48-2.48s1.11-2.48,2.48-2.48h3.72c1.37,0,2.48,1.11,2.48,2.48s-1.11,2.48-2.48,2.48Z"/>
      <path class="cls-2" d="M108.08,70.57c-1.37,0-2.48-1.11-2.48-2.48V2.48c0-1.37,1.11-2.48,2.48-2.48s2.48,1.11,2.48,2.48v65.61c0,1.37-1.11,2.48-2.48,2.48Z"/>
      <path class="cls-2" d="M107.21,38.39h-25.62c-1.37,0-2.48-1.11-2.48-2.48s1.11-2.48,2.48-2.48h25.62c1.37,0,2.48,1.11,2.48,2.48s-1.11,2.48-2.48,2.48Z"/>
    </g>
    <path class="cls-1" d="M196.82,147.42c-.19,0-.38-.02-.57-.07-1.34-.31-2.16-1.65-1.85-2.98,1.85-7.92.5-16.08-3.79-22.98-.87-1.4-1.86-2.74-2.95-3.98-5.99-6.85-14.58-10.64-23.64-10.42-1.35.05-2.51-1.05-2.54-2.42-.04-1.37,1.05-2.51,2.42-2.54,10.56-.3,20.54,4.14,27.51,12.11,1.26,1.44,2.41,3,3.42,4.63,4.99,8.03,6.56,17.52,4.41,26.73-.27,1.15-1.29,1.92-2.41,1.92Z"/>
    <g>
      <path class="cls-2" d="M164.47,159.07c-1.37,0-2.48-1.11-2.48-2.48v-1.84c0-1.37,1.1-2.48,2.47-2.49h0c1.37,0,2.48,1.11,2.48,2.48v1.84c0,1.37-1.1,2.48-2.47,2.49h0Z"/>
      <path class="cls-2" d="M164.4,129c-1.37,0-2.48-1.11-2.48-2.48v-1.97c0-1.37,1.1-2.48,2.47-2.49h0c1.37,0,2.48,1.11,2.48,2.48v1.97c0,1.37-1.1,2.48-2.47,2.49h0Z"/>
      <path class="cls-2" d="M163.98,155.98c-5,0-8.41-3.22-9.37-4.26-.93-1-.88-2.57.13-3.51,1-.93,2.57-.88,3.51.13.45.49,2.87,2.9,6.24,2.66,1.74-.13,4.55-1,5.17-2.88.39-1.17-.02-2.85-.98-3.98-1.1-1.3-2.65-1.56-5.08-1.87-2.56-.33-5.75-.73-7.87-3.61-1.76-2.38-2.18-5.66-1.08-8.34,1.64-3.98,6.24-5.55,9.79-5.34,4.26.26,6.92,3.02,7.87,4.2.86,1.07.7,2.63-.37,3.49-1.07.86-2.63.7-3.49-.37-.42-.52-1.97-2.22-4.32-2.36-1.92-.12-4.25.7-4.9,2.27-.44,1.06-.23,2.54.48,3.51.82,1.11,2.18,1.34,4.51,1.63,2.6.33,5.84.74,8.24,3.59,2.09,2.48,2.84,5.91,1.9,8.74-1.39,4.21-6,6.01-9.52,6.27-.29.02-.58.03-.87.03Z"/>
    </g>
    <g>
      <path class="cls-2" d="M164.47,159.07c-1.37,0-2.48-1.11-2.48-2.48v-1.84c0-1.37,1.1-2.48,2.47-2.49h0c1.37,0,2.48,1.11,2.48,2.48v1.84c0,1.37-1.1,2.48-2.47,2.49h0Z"/>
      <path class="cls-2" d="M164.4,129c-1.37,0-2.48-1.11-2.48-2.48v-1.97c0-1.37,1.1-2.48,2.47-2.49h0c1.37,0,2.48,1.11,2.48,2.48v1.97c0,1.37-1.1,2.48-2.47,2.49h0Z"/>
      <path class="cls-2" d="M163.98,155.98c-5,0-8.41-3.22-9.37-4.26-.93-1-.88-2.57.13-3.51,1-.93,2.57-.88,3.51.13.45.49,2.87,2.9,6.24,2.66,1.74-.13,4.55-1,5.17-2.88.39-1.17-.02-2.85-.98-3.98-1.1-1.3-2.65-1.56-5.08-1.87-2.56-.33-5.75-.73-7.87-3.61-1.76-2.38-2.18-5.66-1.08-8.34,1.64-3.98,6.24-5.55,9.79-5.34,4.26.26,6.92,3.02,7.87,4.2.86,1.07.7,2.63-.37,3.49-1.07.86-2.63.7-3.49-.37-.42-.52-1.97-2.22-4.32-2.36-1.92-.12-4.25.7-4.9,2.27-.44,1.06-.23,2.54.48,3.51.82,1.11,2.18,1.34,4.51,1.63,2.6.33,5.84.74,8.24,3.59,2.09,2.48,2.84,5.91,1.9,8.74-1.39,4.21-6,6.01-9.52,6.27-.29.02-.58.03-.87.03Z"/>
    </g>
    <g>
      <circle class="cls-2" cx="13.31" cy="175.57" r="2.51"/>
      <path class="cls-2" d="M137.9,124.86h-56.06c-1.37,0-2.48-1.11-2.48-2.48s1.11-2.48,2.48-2.48h56.06c1.37,0,2.48,1.11,2.48,2.48s-1.11,2.48-2.48,2.48Z"/>
      <path class="cls-2" d="M161.33,177.88H22.69c-1.37,0-2.48-1.11-2.48-2.48s1.11-2.48,2.48-2.48h138.65c1.37,0,2.48,1.11,2.48,2.48s-1.11,2.48-2.48,2.48Z"/>
      <path class="cls-2" d="M140.51,166.22H34.34c-1.37,0-2.48-1.11-2.48-2.48v-9.52c0-1.37,1.11-2.48,2.48-2.48s2.48,1.11,2.48,2.48v7.04h103.69c1.37,0,2.48,1.11,2.48,2.48s-1.11,2.48-2.48,2.48Z"/>
      <path class="cls-2" d="M110.9,151.88c-5.28,0-9.57-4.29-9.57-9.57s4.29-9.57,9.57-9.57,9.57,4.29,9.57,9.57-4.29,9.57-9.57,9.57ZM110.9,137.7c-2.54,0-4.61,2.07-4.61,4.61s2.07,4.61,4.61,4.61,4.61-2.07,4.61-4.61-2.07-4.61-4.61-4.61Z"/>
      <path class="cls-2" d="M171.71,85.01h-89.26c-1.37,0-2.48-1.11-2.48-2.48s1.11-2.48,2.48-2.48h89.26c1.37,0,2.48,1.11,2.48,2.48s-1.11,2.48-2.48,2.48Z"/>
      <path class="cls-2" d="M160.47,97.49h-24.08c-1.37,0-2.48-1.11-2.48-2.48s1.11-2.48,2.48-2.48h24.08c1.37,0,2.48,1.11,2.48,2.48s-1.11,2.48-2.48,2.48Z"/>
    </g>
    <path class="cls-1" d="M195.05,156.59c-.5,1.29-1.95,1.93-3.25,1.43-1.29-.5-1.93-1.95-1.43-3.25.5-1.29,1.95-1.93,3.25-1.43,1.29.5,1.93,1.95,1.43,3.25Z"/>
  </g>
  <g>
    <path class="cls-1" d="M108.29,907.89c2.05-1.95,3.33-4.7,3.33-7.75,0-5.92-4.8-10.72-10.72-10.72s-10.72,4.8-10.72,10.72c0,3.12,1.34,5.92,3.47,7.88h-.28v13.2l7.65-5.1,7.65,5.1v-13.33h-.39Z"/>
    <path class="cls-3" d="M158.04,997.49c-2.41,1.4-5.95,2.84-10.07,5.5-9.82,6.35-21.65,14.67-23.77,15.5-3.58,1.4-7.68,2.34-23.45-1.24-14.87-3.36-26.5-6.26-32.69-6.02-5.11.2-19.71,2.19-19.71,2.19l-6.49-30.8c-.61.25-1.19.45-1.78.63l8.27,39.25s14.6-1.98,19.71-2.19c6.2-.25,17.82,2.66,32.69,6.02,15.77,3.58,19.87,2.64,23.45,1.24,2.12-.83,13.95-9.15,23.77-15.5,6.85-4.42,12.12-5.47,13.2-8.49.97-2.77-.79-4.98-3.13-6.08Z"/>
    <path class="cls-3" d="M92.57,997.04l19.35,8.76c.7.32,1.42.45,2.14.45,1.49,0,2.95-.63,3.97-1.76t.02-.02c.34-.38.61-.83.83-1.31.27-.59.41-1.17.45-1.76.27-.2.54-.45.77-.72.45-.5.86-1.06,1.17-1.67.72-1.37,1.01-2.86.92-4.3-.07-1.44-.54-2.86-1.37-4.08.18-.23.32-.45.45-.7.05-.07.07-.16.09-.23l-.92-.43-1.42-.63c.56.41,1.06.9,1.46,1.46-.02.43-.09.86-.23,1.28-.07.23-.14.45-.25.68-.88,1.94-2.82,3.11-4.82,3.11-.72,0-1.44-.16-2.14-.47l-1.73-.79-13.54-6.11v.05l-.88-.41c-.7-.32-1.42-.47-2.14-.47-2,0-3.94,1.17-4.82,3.11-1.17,2.64,0,5.75,2.64,6.94Z"/>
    <polygon class="cls-1" points="148.01 996.98 122.78 1003.5 121.85 990.47 115.75 985.51 115.75 948.18 148.01 948.18 148.01 996.98"/>
    <circle class="cls-1" cx="44.45" cy="931.55" r="26.21" transform="translate(-357.76 90.13) rotate(-22.82)"/>
    <path class="cls-2" d="M138.14,852c0,1.42-1.15,2.57-2.57,2.57s-2.57-1.15-2.57-2.57,1.15-2.57,2.57-2.57,2.57,1.15,2.57,2.57Z"/>
    <path class="cls-3" d="M42.46,968.58c-8.84,0-17.4-3.33-24.02-9.47-1.4-1.3-2.71-2.73-3.89-4.24-5.81-7.46-8.36-16.74-7.19-26.12.17-1.36,1.41-2.33,2.77-2.15,1.36.17,2.32,1.41,2.15,2.77-1.01,8.07,1.19,16.04,6.18,22.46,1.02,1.31,2.14,2.54,3.35,3.65,6.67,6.19,15.64,9.07,24.6,7.89,1.36-.17,2.61.78,2.78,2.14.18,1.36-.78,2.61-2.14,2.78-1.54.2-3.08.3-4.61.3Z"/>
    <g>
      <path class="cls-2" d="M46.08,950.8c-1.33,0-2.43-1.05-2.48-2.39l-.07-1.84c-.05-1.37,1.02-2.52,2.39-2.57,1.36-.04,2.52,1.02,2.57,2.39l.07,1.84c.05,1.37-1.02,2.52-2.39,2.57-.03,0-.06,0-.09,0Z"/>
      <path class="cls-2" d="M44.97,920.75c-1.33,0-2.43-1.05-2.48-2.39l-.07-1.96c-.05-1.37,1.02-2.52,2.39-2.57,1.38-.08,2.52,1.02,2.57,2.39l.07,1.96c.05,1.37-1.02,2.52-2.39,2.57-.03,0-.06,0-.09,0Z"/>
      <path class="cls-2" d="M45.17,947.73c-4.79,0-8.14-2.96-9.11-3.94-.97-.97-.96-2.54,0-3.51.97-.97,2.54-.96,3.51,0,.47.47,2.99,2.8,6.32,2.43,1.73-.19,4.51-1.16,5.07-3.05.35-1.19-.12-2.85-1.12-3.95-1.15-1.26-2.7-1.47-5.14-1.69-2.57-.23-5.77-.53-8-3.33-1.84-2.32-2.38-5.58-1.37-8.3,1.46-3.93,5.79-5.68,9.32-5.68.1,0,.19,0,.28,0,4.26.12,7.02,2.78,8.02,3.91.9,1.03.79,2.6-.24,3.5-1.03.9-2.6.79-3.5-.24-.44-.5-2.05-2.15-4.4-2.21-1.94-.03-4.22.85-4.81,2.44-.4,1.08-.14,2.54.61,3.49.86,1.09,2.22,1.26,4.56,1.47,2.61.24,5.86.54,8.37,3.3,2.18,2.4,3.04,5.8,2.21,8.67-1.24,4.25-5.78,6.21-9.29,6.6-.44.05-.86.07-1.28.07Z"/>
    </g>
    <path class="cls-2" d="M37.79,1042.3c-1.19,0-2.24-.84-2.46-2.05-.25-1.36.65-2.67,2.01-2.92l10.81-2.01-10.99-52.99-4.41.98c-1.34.31-2.69-.55-2.99-1.9-.3-1.35.55-2.69,1.9-2.99l6.89-1.53c.65-.15,1.34-.02,1.91.34.56.36.96.94,1.1,1.6l12.02,58c.14.66,0,1.35-.37,1.91-.38.56-.96.95-1.63,1.07l-13.33,2.47c-.15.03-.31.04-.46.04Z"/>
    <path class="cls-2" d="M118.04,1032.36c-3.72,0-9-.68-17.38-2.58-1.95-.44-3.84-.87-5.67-1.29-12.07-2.76-21.58-4.96-26.74-4.73-4.98.2-19.55,2.16-19.7,2.18-1.3.19-2.52-.68-2.79-1.97l-8.37-39.68c-.27-1.26.47-2.52,1.7-2.91,5-1.57,11.01-4.81,16.32-7.66,4.79-2.57,8.57-4.61,10.98-5.1,6.1-1.26,9.99-1.61,14.88-1.35,3.59.19,12.92,5.14,27.84,13.26,3.79,2.06,7.37,4.01,10.48,5.65,5.32,2.79,7.37,9.39,4.58,14.71-.15.28-.31.56-.48.83,2.36-.71,4.86-1.7,7.48-2.74,8.32-3.31,17.75-7.06,27.95-3.52h0c2.42.84,4.35,2.45,5.29,4.43.79,1.66.87,3.48.23,5.27-1.01,2.82-3.83,4.23-7.39,6.02-2.05,1.03-4.37,2.19-6.94,3.85-3.82,2.47-8.01,5.28-11.71,7.76-7.37,4.94-11.28,7.55-12.78,8.13-2.06.81-4.19,1.45-7.8,1.45ZM68.91,1018.72c5.89,0,15.36,2.17,27.2,4.87,1.83.42,3.72.85,5.66,1.29,16.29,3.68,19.59,2.39,22.24,1.35,1.1-.44,6.79-4.26,11.82-7.63,3.71-2.49,7.92-5.31,11.78-7.8,2.8-1.81,5.36-3.09,7.42-4.12,2.36-1.18,4.59-2.3,4.92-3.22.19-.53.18-.98-.03-1.42-.36-.75-1.28-1.46-2.41-1.86-8.43-2.92-16.57.31-24.45,3.44-8.05,3.2-16.38,6.51-23.76,1.71-1.12-.73-1.48-2.21-.8-3.37.68-1.15,2.14-1.58,3.33-.95,2.87,1.5,6.42.4,7.93-2.47,1.5-2.87.4-6.43-2.47-7.93-3.15-1.65-6.74-3.61-10.55-5.68-9.16-4.98-22.99-12.51-25.71-12.66-3.87-.21-7.19-.07-13.6,1.25-1.69.35-5.72,2.51-9.62,4.61-4.79,2.57-10.13,5.45-15.03,7.28l7.43,35.24c4.4-.57,13.83-1.75,17.85-1.92.28-.01.57-.02.87-.02Z"/>
    <path class="cls-2" d="M118.11,1007.77c-.44,0-.87-.02-1.3-.05-3.68-.28-6.34-1.71-7.47-2.32-3.99-2.14-9.8-4.68-17.81-7.81-1.29-.51-1.93-1.96-1.42-3.25.51-1.29,1.96-1.92,3.25-1.42,8.2,3.21,14.18,5.83,18.28,8.03,1.07.58,2.94,1.58,5.56,1.78,1.72.14,3.49-.11,5.25-.72,1.31-.45,2.74.24,3.19,1.55.45,1.31-.24,2.74-1.55,3.19-1.98.69-3.99,1.04-5.98,1.04Z"/>
    <path class="cls-2" d="M59.18,904.54c-1.37,0-2.48-1.11-2.48-2.48v-31.6c0-11.39,9.27-20.66,20.66-20.66h44.81c1.37,0,2.48,1.11,2.48,2.48s-1.11,2.48-2.48,2.48h-44.81c-8.66,0-15.7,7.05-15.7,15.71v31.6c0,1.37-1.11,2.48-2.48,2.48Z"/>
    <path class="cls-2" d="M173.4,1014.35h-6.62c-1.37,0-2.48-1.11-2.48-2.48s1.11-2.48,2.48-2.48h6.62c2.06,0,3.73-1.67,3.73-3.73v-105c0-.99-.39-1.92-1.09-2.62l-31.04-31.04c-.69-.69-1.64-1.09-2.62-1.09h-65.04c-2.5,0-4.54,2.04-4.54,4.54v85.57c0,1.37-1.11,2.48-2.48,2.48s-2.48-1.11-2.48-2.48v-85.57c0-5.23,4.26-9.49,9.49-9.49h65.04c2.28,0,4.51.92,6.12,2.54l31.04,31.04c1.63,1.64,2.53,3.81,2.53,6.12v105c0,4.79-3.89,8.68-8.68,8.68Z"/>
    <path class="cls-2" d="M177.04,900.59h-19.71c-7.63,0-14.85-6.94-14.85-14.29v-19.71c0-1.41.88-2.65,2.29-3.24,1.51-.63,3.24-.34,4.3.71l29.82,29.82c1.19,1.19,1.63,3.28,1.02,4.77-.49,1.19-1.59,1.93-2.86,1.93ZM147.43,869.43v16.87c0,4.62,5,9.34,9.9,9.34h16.3l-26.2-26.2Z"/>
    <path class="cls-2" d="M86.16,926.94c-.4,0-.8-.1-1.17-.29-.8-.43-1.31-1.27-1.31-2.18v-23.33c0-1.37,1.11-2.48,2.48-2.48s2.48,1.11,2.48,2.48v18.7l8.38-5.58c.83-.55,1.91-.55,2.75,0l8.37,5.58v-17.72c-.2-.35-.31-.76-.31-1.2,0-1.37,1.11-2.48,2.48-2.48h.31c1.37,0,2.48,1.11,2.48,2.48v23.55c0,.91-.5,1.75-1.31,2.18-.8.43-1.78.39-2.54-.12l-10.85-7.23-10.85,7.23c-.41.28-.89.42-1.37.42Z"/>
    <path class="cls-2" d="M98.5,909.63c-9.05,0-16.41-7.36-16.41-16.41s7.36-16.41,16.41-16.41,16.41,7.36,16.41,16.41-7.36,16.41-16.41,16.41ZM98.5,881.75c-6.32,0-11.46,5.14-11.46,11.46s5.14,11.46,11.46,11.46,11.46-5.14,11.46-11.46-5.14-11.46-11.46-11.46Z"/>
    <path class="cls-2" d="M148.22,993.25c-1.37,0-2.48-1.11-2.48-2.48v-15.96h-31.02c-1.37,0-2.48-1.11-2.48-2.48s1.11-2.48,2.48-2.48h33.5c1.37,0,2.48,1.11,2.48,2.48v18.44c0,1.37-1.11,2.48-2.48,2.48Z"/>
    <path class="cls-2" d="M148.22,968.39c-1.37,0-2.48-1.11-2.48-2.48v-4.13h-31.02c-1.37,0-2.48-1.11-2.48-2.48s1.11-2.48,2.48-2.48h33.5c1.37,0,2.48,1.11,2.48,2.48v6.6c0,1.37-1.11,2.48-2.48,2.48Z"/>
    <path class="cls-2" d="M107.27,976.3c-1.37,0-2.48-1.11-2.48-2.48v-27.54c0-1.37,1.11-2.48,2.48-2.48h40.94c1.37,0,2.48,1.11,2.48,2.48v6.6c0,1.37-1.11,2.48-2.48,2.48s-2.48-1.11-2.48-2.48v-4.13h-35.99v25.06c0,1.37-1.11,2.48-2.48,2.48Z"/>
    <path class="cls-2" d="M146.98,986.93h-21.71c-1.37,0-2.48-1.11-2.48-2.48s1.11-2.48,2.48-2.48h21.71c1.37,0,2.48,1.11,2.48,2.48s-1.11,2.48-2.48,2.48Z"/>
    <path class="cls-2" d="M136.01,886.14h-13.73c-1.37,0-2.48-1.11-2.48-2.48s1.11-2.48,2.48-2.48h13.73c1.37,0,2.48,1.11,2.48,2.48s-1.11,2.48-2.48,2.48Z"/>
    <path class="cls-2" d="M136.01,901.44h-13.73c-1.37,0-2.48-1.11-2.48-2.48s1.11-2.48,2.48-2.48h13.73c1.37,0,2.48,1.11,2.48,2.48s-1.11,2.48-2.48,2.48Z"/>
    <path class="cls-2" d="M164.55,916.74h-42.27c-1.37,0-2.48-1.11-2.48-2.48s1.11-2.48,2.48-2.48h42.27c1.37,0,2.48,1.11,2.48,2.48s-1.11,2.48-2.48,2.48Z"/>
    <path class="cls-2" d="M164.55,932.04h-42.27c-1.37,0-2.48-1.11-2.48-2.48s1.11-2.48,2.48-2.48h42.27c1.37,0,2.48,1.11,2.48,2.48s-1.11,2.48-2.48,2.48Z"/>
    <path class="cls-3" d="M10.37,917.28c.36-1.34,1.74-2.13,3.08-1.77,1.34.36,2.13,1.74,1.77,3.08s-1.74,2.13-3.08,1.77-2.13-1.74-1.77-3.08Z"/>
  </g>
</svg>