<?xml version="1.0" encoding="utf-8"?>
<!-- Generator: Adobe Illustrator 26.1.0, SVG Export Plug-In . SVG Version: 6.00 Build 0)  -->
<svg width="150" version="1.1" id="icons" xmlns="http://www.w3.org/2000/svg" xmlns:xlink="http://www.w3.org/1999/xlink" x="0px" y="0px"
	 viewBox="0 0 208.7 232.4" style="enable-background:new 0 0 208.7 232.4;" xml:space="preserve">
<style type="text/css">
	.st0{fill:#FFB10A;}
	.st1{fill:#EF5A28;}
	.st2{fill:#FFFFFF;}
</style>
<g>
	<circle class="st0" cx="40.3" cy="50.3" r="23.2"/>
	<path class="st0" d="M56,159.2c5.2-1.1,10.5-2.2,13.1-3.2c0.6-0.2,0.9-0.4,1.2-0.5c1.5-1,7.6-6.8,13-11.9c3.2-3,5.7-5.4,7.7-7.3
		c-8,4.4-24,14.3-27.2,15.4c-0.4,0.1-0.9,0.2-1.6,0.3c-5.2,0.7-18.2-0.2-26,0.1l5.4,10.6C45.1,161.5,50.6,160.3,56,159.2L56,159.2z"
		/>
	
		<ellipse transform="matrix(0.4966 -0.868 0.868 0.4966 -52.3247 208.5826)" class="st0" cx="153.7" cy="149.4" rx="36.7" ry="36.7"/>
	<path class="st0" d="M110.3,149.4c-0.3,0.1-0.6,0.1-0.9,0.1c-2.8,0-5.1-2.3-5.1-5.1s2.3-5.1,5.1-5.1c0.8,0,1.6,0.2,2.3,0.6
		c1-4,2.4-7.8,4.4-11.3c-2.2,0.4-4.4,0.6-6.7,0.6c-0.9,0-1.7,0-2.6-0.1c-5,4.1-11.3,6.6-15.7,11.4c-3.3,3.6-6.4,7.4-9.8,10.7
		c5.3,1.5,10.3,7.8,10.3,13.6h20.7C110.8,159.6,110.2,154.5,110.3,149.4L110.3,149.4z"/>
	<path class="st0" d="M127.2,42.9H91.6c0,7-5.7,12.7-12.7,12.7v40.6c3.3-11.7,15.7-20.3,30.5-20.3s27.1,8.7,30.5,20.3V55.6
		C132.8,55.6,127.2,49.9,127.2,42.9L127.2,42.9z M109.4,68.3c-2.8,0-5.1-2.3-5.1-5.1s2.3-5.1,5.1-5.1s5.1,2.3,5.1,5.1
		S112.2,68.3,109.4,68.3z"/>
	<path class="st1" d="M39.7,68.7C39.7,68.7,39.7,68.7,39.7,68.7c-1.5,0-2.6-1.2-2.5-2.6l0.1-1.8c0-1.4,1.2-2.5,2.6-2.4
		c1.4,0,2.5,1.2,2.4,2.6l-0.1,1.8C42.2,67.6,41.1,68.7,39.7,68.7L39.7,68.7z"/>
	<path class="st1" d="M39.9,39.3C39.9,39.3,39.8,39.3,39.9,39.3c-1.5,0-2.6-1.2-2.5-2.6l0.1-1.9c0-1.4,1.2-2.5,2.6-2.4
		c1.4,0,2.5,1.2,2.4,2.6l-0.1,1.9C42.4,38.2,41.2,39.3,39.9,39.3L39.9,39.3z"/>
	<path class="st1" d="M39.7,65.6c-5.2,0-8.6-3.5-9.5-4.6c-0.9-1-0.8-2.6,0.3-3.5s2.6-0.8,3.5,0.3c0.4,0.5,2.6,2.9,5.9,2.8
		c1.7-0.1,4.4-0.8,5.1-2.6c0.4-1.1,0.1-2.7-0.8-3.9c-1-1.3-2.5-1.6-4.8-2c-2.5-0.4-5.6-0.9-7.6-3.9c-1.6-2.4-1.9-5.7-0.7-8.3
		c1.8-3.9,6.3-5.2,9.9-4.9c4.2,0.4,6.7,3.2,7.6,4.4c0.8,1.1,0.6,2.7-0.5,3.5c-1.1,0.8-2.7,0.6-3.5-0.5c-0.4-0.5-1.8-2.2-4.1-2.4
		c-1.8-0.2-4.1,0.5-4.8,2c-0.4,0.9-0.4,2.3,0.3,3.4c0.7,1.1,2,1.4,4.3,1.7c2.5,0.4,5.7,1,8,3.9c2,2.5,2.6,5.9,1.5,8.7
		c-1.5,4.1-6.1,5.7-9.6,5.8C40,65.6,39.9,65.6,39.7,65.6L39.7,65.6z"/>
	<path class="st1" d="M8.5,49.4C8.5,49.4,8.5,49.4,8.5,49.4c-1.5,0-2.6-1.2-2.5-2.6C6.7,28.6,22,14.4,40.3,15c1.4,0,2.5,1.2,2.4,2.6
		c0,1.4-1.2,2.5-2.6,2.4c-15.5-0.6-28.5,11.5-29,27C11,48.4,9.9,49.4,8.5,49.4L8.5,49.4z"/>
	<path class="st2" d="M147.5,96.1c-1.4,0-2.5-1.1-2.5-2.5V37.8H73.8v32c0,1.4-1.1,2.5-2.5,2.5s-2.5-1.1-2.5-2.5V35.3
		c0-1.4,1.1-2.5,2.5-2.5h76.2c1.4,0,2.5,1.1,2.5,2.5v58.3C150,95,148.9,96.1,147.5,96.1L147.5,96.1z"/>
	<path class="st2" d="M117.5,174.8H71.3c-1.4,0-2.5-1.1-2.5-2.5v-7.1c0-1.4,1.1-2.5,2.5-2.5s2.5,1.1,2.5,2.5v4.6h43.6
		c1.4,0,2.5,1.1,2.5,2.5S118.9,174.8,117.5,174.8L117.5,174.8z"/>
	<path class="st2" d="M41.1,167.4c-1,0-1.9-0.6-2.3-1.6c-0.5-1.3,0.1-2.8,1.4-3.3c3.5-1.4,9.9-2.8,16.1-4.1
		c5.2-1.1,10.6-2.2,13.2-3.2c0.6-0.2,0.9-0.4,1-0.4c1.6-1,8.1-7.1,13.3-12.1c8.1-7.7,12.1-11.5,13.8-12.4
		c14.4-7.7,16.6-13.8,16.7-16.8c0.1-3.6-2.8-5.5-3.4-5.9c-4.8-2.8-9.6,0.5-17.1,6.2c-3.5,2.7-7.1,5.5-10.8,7.1
		c-3.3,1.4-6.9,1.3-9.9-0.3c-2.8-1.5-4.6-4.1-5.1-7.2c-0.2-0.9-0.2-1.9,0-2.9V82c-7.1,1.2-12,2.6-15.7,3.7
		c-6.4,2-10.2,7.5-12.2,10.5l-0.1,0.1c-1.9,2.8-3.8,8.4-5.6,13.9c-2.4,7.2-4.9,14.6-8.3,18.3c-0.9,1-2.5,1.1-3.5,0.1
		c-1-0.9-1.1-2.5-0.1-3.5c2.6-2.9,5.1-10.1,7.2-16.5c2-6,3.9-11.7,6.3-15.1l0.1-0.1c2.2-3.2,6.8-9.9,14.9-12.4
		c4.3-1.3,10.3-3,19.3-4.4c0.7-0.1,1.4,0.1,2,0.6c0.6,0.5,0.9,1.2,0.9,1.9v31.8c0,0.1,0,0.3,0,0.4c-0.1,0.5-0.1,1,0,1.5
		c0.2,1.5,1.2,2.9,2.6,3.6c1.6,0.9,3.6,0.9,5.5,0.1c3.2-1.4,6.5-4,9.7-6.5c6.9-5.3,14.7-11.3,22.7-6.6c2.9,1.7,6,5.3,5.9,10.3
		c-0.1,7.2-6.6,14.3-19.3,21.1c-1.3,0.7-7.9,7-12.7,11.6c-7.5,7.1-12.2,11.5-14.1,12.7c-0.6,0.3-1.2,0.6-2,0.9
		c-2.9,1.1-8.2,2.2-13.8,3.4c-6,1.3-12.2,2.6-15.3,3.8C41.7,167.3,41.4,167.4,41.1,167.4L41.1,167.4z"/>
	<path class="st2" d="M23.7,185.7c-0.9,0-1.8-0.5-2.2-1.4c-0.6-1.2-0.1-2.8,1.1-3.4l18.6-9.5l-22.9-44.8l-8.4,4.3
		c-1.2,0.6-2.8,0.1-3.4-1.1s-0.1-2.8,1.1-3.4l10.6-5.4c1.2-0.6,2.8-0.1,3.4,1.1l25.2,49.3c0.3,0.6,0.4,1.3,0.2,1.9
		c-0.2,0.6-0.7,1.2-1.2,1.5l-20.9,10.7C24.4,185.6,24,185.7,23.7,185.7L23.7,185.7z"/>
	<path class="st2" d="M32.5,168.6c0.6,2.2-0.7,4.4-2.8,5s-4.4-0.7-5-2.9s0.7-4.4,2.9-5S31.9,166.4,32.5,168.6z"/>
	<path class="st1" d="M200.2,155.7c-0.1,0-0.2,0-0.2,0c-1.4-0.1-2.4-1.4-2.2-2.7c0.6-6.4-0.1-12.6-2.2-18.7
		c-6.1-17.6-22.8-29.4-41.4-29.4c-4.9,0-9.8,0.8-14.5,2.5c-1.9,0.6-3.7,1.4-5.4,2.3c-1.2,0.6-2.8,0.1-3.4-1.1
		c-0.6-1.2-0.1-2.8,1.1-3.4c1.9-1,4-1.9,6-2.6c5.2-1.8,10.6-2.8,16.1-2.8c20.7,0,39.3,13.2,46.1,32.7c2.4,6.8,3.2,13.8,2.5,20.9
		C202.6,154.8,201.5,155.7,200.2,155.7L200.2,155.7z"/>
	<g>
		<path class="st1" d="M144.5,169.8c-0.5,0-0.9-0.1-1.3-0.4c-1.1-0.7-1.5-2.3-0.8-3.4l21.9-34.2c0.7-1.1,2.3-1.5,3.4-0.8
			s1.5,2.3,0.8,3.4l-21.9,34.2C146.1,169.4,145.3,169.8,144.5,169.8L144.5,169.8z"/>
		<path class="st1" d="M145.5,147.9c-4.4,0-7.9-3.5-7.9-7.9s3.6-7.9,7.9-7.9s7.9,3.5,7.9,7.9S149.8,147.9,145.5,147.9z M145.5,137
			c-1.6,0-3,1.3-3,3s1.3,3,3,3s3-1.3,3-3S147.1,137,145.5,137z"/>
		<path class="st1" d="M165.4,167.9c-4.4,0-7.9-3.5-7.9-7.9s3.6-7.9,7.9-7.9s7.9,3.5,7.9,7.9S169.7,167.9,165.4,167.9z M165.4,157.1
			c-1.6,0-3,1.3-3,3s1.3,3,3,3s3-1.3,3-3S167,157.1,165.4,157.1z"/>
	</g>
	<path class="st2" d="M159.1,92.5c-1.4,0-2.5-1.1-2.5-2.5V25.6H71.3c-1.4,0-2.5-1.1-2.5-2.5s1.1-2.5,2.5-2.5h87.8
		c1.4,0,2.5,1.1,2.5,2.5V90C161.6,91.4,160.5,92.5,159.1,92.5z"/>
	<path class="st1" d="M201.2,162.3l-0.4,1.4c-0.3,0.9-1.2,1.3-2,1.1l-1.4-0.4c-0.9-0.3-1.3-1.2-1.1-2l0.4-1.4c0.3-0.9,1.2-1.3,2-1.1
		l1.4,0.4C201,160.5,201.5,161.4,201.2,162.3z"/>
	<path class="st1" d="M51.5,18.7c0,1.4-1.1,2.5-2.5,2.5s-2.5-1.1-2.5-2.5s1.1-2.5,2.5-2.5S51.5,17.4,51.5,18.7z"/>
</g>
</svg>
