<?xml version="1.0" encoding="utf-8"?>
<!-- Generator: Adobe Illustrator 26.1.0, SVG Export Plug-In . SVG Version: 6.00 Build 0)  -->
<svg version="1.1" id="Ñëîé_1" xmlns="http://www.w3.org/2000/svg" xmlns:xlink="http://www.w3.org/1999/xlink" x="0px" y="0px"
	 viewBox="0 0 438 500" style="enable-background:new 0 0 438 500;" xml:space="preserve">
<style type="text/css">
	.st0{fill:#FFFFFF;}
	.st1{fill:#FF5B57;}
	.st2{fill:#EF5A28;}
</style>
<g>
	<path class="st0" d="M433.1,132.5L408,109.3l-86-79.4L293.9,4c-2.8-2.6-6.4-4-10.1-4H85C64.9,0,48.7,16.3,48.6,36.4v208.7h29.9
		V36.4c0-3.6,2.9-6.4,6.4-6.4h183.8v113.6c0,8.3,6.7,15,15,15l0,0H408v305.1c0,3.6-2.9,6.4-6.5,6.5H85c-3.6,0-6.4-2.9-6.4-6.5v-49.1
		H48.6v49.1c0,20.1,16.3,36.4,36.4,36.4h316.6c20.1,0,36.4-16.3,36.4-36.4V143.5C438,139.3,436.2,135.3,433.1,132.5z"/>
	<path class="st1" d="M74.2,305.2c-0.9-0.2-3.2-0.6-8.2-0.6H49.8v21.5h16.4c5.5,0,9.4-1,11.6-2.9s3.2-4.5,3.2-8.1
		c0.1-2.3-0.6-4.6-1.9-6.5C77.9,307,76.2,305.8,74.2,305.2z"/>
	<path class="st1" d="M146.4,306c-2.3-0.9-6.1-1.3-11.4-1.3h-13v50.2h13.2c3.5,0.1,7-0.3,10.4-1.2c2.1-0.6,4-1.7,5.6-3.2
		c2.2-2.3,3.8-5.1,4.7-8.2c1.3-4.2,1.9-8.6,1.8-13c0-7-1.1-12.4-3.4-16S149.4,307.2,146.4,306z"/>
	<path class="st2" d="M273.2,376.2v-92.9c0-10.1-8.2-18.2-18.2-18.3H18.3C8.2,265.1,0,273.2,0,283.3v92.9c0,10.1,8.2,18.3,18.3,18.3
		c0,0,0,0,0,0H255C265.1,394.4,273.2,386.3,273.2,376.2z M88.1,331.4c-4.2,4.6-11.4,6.8-22.1,6.8H49.8v28.7H36.8v-74.2h28.5
		c3.7-0.1,7.4,0.2,11,0.7c3.4,0.5,6.6,1.7,9.4,3.6c2.7,1.9,4.9,4.5,6.3,7.5C96.2,313.4,94.7,324,88.1,331.4L88.1,331.4z M169,344.1
		c-1.1,3.9-2.7,7.5-5,10.9c-1.9,2.7-4.2,5-6.9,6.9c-2.8,1.8-5.8,3.1-9,3.8c-3.9,0.9-7.8,1.3-11.8,1.3H109v-74.3h26.1
		c4.4-0.1,8.7,0.2,13,1.1c4.1,0.9,7.9,2.8,11.1,5.4c4,3.5,7.1,7.9,8.8,12.9c2,5.6,3,11.5,2.9,17.4
		C171.1,334.4,170.4,339.3,169,344.1z M237.4,304.7h-38.2v18.1h33.1v12h-33.1v32h-13v-74.2h51.3L237.4,304.7z"/>
</g>
</svg>
