<?xml version="1.0" encoding="utf-8"?>
<!-- Generator: Adobe Illustrator 26.1.0, SVG Export Plug-In . SVG Version: 6.00 Build 0)  -->
<svg version="1.1" id="Layer_1" xmlns="http://www.w3.org/2000/svg" xmlns:xlink="http://www.w3.org/1999/xlink" x="0px" y="0px"
	 viewBox="0 0 199.7 235.9" style="enable-background:new 0 0 199.7 235.9;" xml:space="preserve">
<style type="text/css">
	.st0{fill:#FFB10A;}
	.st1{fill:#FABF62;}
	.st2{fill:#273773;}
</style>
<g id="hand_with_phone">
	<g>
		<path class="st0" d="M150.9,77.3l2.1-1.4V36.8H79.5V134H153v-7.6c-2.9-0.9-5.1-3.6-5.1-6.8c-0.1-2.9,1.6-5.5,4.1-6.7h0
			c0.3-0.2,0.7-0.3,1-0.4V110c-0.6,0.1-1.1,0.2-1.7,0.2c-3.2,0-6.3-2-7.3-5.2c-0.2-0.7-0.3-1.5-0.3-2.3c0-3.2,2.1-6.2,5.3-7.2
			l4.1-1.3v-3.1c-1.8-0.5-3.4-1.6-4.5-3.3C146.3,84.3,147.3,79.6,150.9,77.3L150.9,77.3z M108.4,118.2c-1.4,0-2.6-1.2-2.6-2.6
			s1.2-2.6,2.6-2.6s2.6,1.2,2.6,2.6S109.8,118.2,108.4,118.2z M139.8,86.3c-0.8,1.7-2.5,2.8-4.4,2.8h-6v34.5c0,1.4-1.2,2.6-2.6,2.6
			s-2.6-1.2-2.6-2.6V88.7c0-2.7,2.2-4.9,4.9-4.9h5.6l-16.9-21.5l-16.9,21.5h5.2c2.7,0,4.9,2.2,4.9,4.9v19.1c0,1.4-1.2,2.6-2.6,2.6
			s-2.6-1.2-2.6-2.6V89h-5.6c-1.9,0-3.6-1.1-4.4-2.8c-0.8-1.7-0.6-3.7,0.6-5.2l17.6-22.4c1.9-2.4,5.9-2.4,7.7,0l17.6,22.4
			C140.4,82.6,140.6,84.6,139.8,86.3L139.8,86.3z"/>
		<path class="st1" d="M118.2,179l-1.9,1C117.1,179.7,117.7,179.4,118.2,179z"/>
		<path class="st0" d="M100.8,161.6c-5.5,0.5-11.6,1.2-16.8-2.5c-5.7-4.1-7.1-11.4-7.6-15.6c-0.7,1.3-1.5,3.4-1.8,6.1
			c-1.4,12.2,4.7,21.2,17.9,21.2h22.4c4.1,0,6.7,5.5,3.2,8.2l11.2-5.6c3-3.7,5.9-7.4,8.9-11.2C122,160.5,109.5,160.9,100.8,161.6
			L100.8,161.6z"/>
		<circle class="st2" cx="115.7" cy="149.4" r="5.2"/>
		<path class="st2" d="M141.3,165.5h1.9c8.3,0,15.1-6.8,15.1-15.1v-21.1l0.9,0c2.6-0.1,5.1-1.2,7-3.1c1.9-1.9,2.8-4.4,2.8-7.1
			c-0.1-2.7-1.2-5.1-3.1-6.9c-1.1-1-2.3-1.8-3.7-2.3l1.7-0.6c5.4-1.7,8.4-7.4,6.7-12.8c-1-3.1-3.4-5.5-6.3-6.5l4.6-2.9
			c4.8-3,6.2-9.4,3.1-14.2c-1.9-3-5.1-4.8-8.7-4.8c-1.8,0-3.5,0.4-5,1.4v-5.8l11.4-7.2c4.9-3.1,6.3-9.5,3.2-14.4
			c-1.9-3-5.2-4.8-8.8-4.8c-2,0-3.9,0.5-5.6,1.6l-0.2,0.1v-5.5c0-8.3-6.8-15.1-15.1-15.1H89.3c-8.3,0-15.1,6.8-15.1,15.1v19.6
			c-1.6-1-3.5-1.4-5.2-1.3c-4.5,0.3-9.1,4-9.2,10.7C59.7,75,55.2,86,51.3,95.8c-4,9.9-7.4,18.4-5.2,25.8l0.4,1.4
			c1.6,5.2,5.1,16.6,6.2,24.9l-17,15.1c-1.1,1-1.2,2.6-0.2,3.7c1,1.1,2.6,1.2,3.7,0.2l15.5-13.7L94.3,196c0,0,0,0,0,0.1
			c0,0,0.1,0,0.1,0.1l3.2,3.4l-6.6,6.1c-1.1,1-1.1,2.6-0.1,3.7c0.5,0.6,1.2,0.8,1.9,0.8c0.6,0,1.3-0.2,1.8-0.7l8.5-7.9
			c0.5-0.5,0.8-1.1,0.8-1.8s-0.2-1.4-0.7-1.9l-2.9-3.1c2.6-2,4.5-3.4,5.2-4c2.2-1.6,5.3-2.8,8.9-4.3c8.6-3.6,19.4-8,26.7-20.1
			C141.2,166.1,141.3,165.8,141.3,165.5L141.3,165.5z M163.6,119.2c0,1.3-0.4,2.4-1.3,3.4c-0.9,0.9-2.1,1.4-3.3,1.5l-3.4,0.1h-0.3
			v0.1c0,0-0.1,0-0.1,0v-0.1c-2.6,0-4.6-2.1-4.7-4.6c-0.1-2.6,2-4.8,4.6-4.8h0.5c0,0,0,0,0,0c0.1,0,0.1,0,0.1,0h0.2l3-0.1
			C161.5,114.6,163.6,116.7,163.6,119.2L163.6,119.2z M165.5,98.2c0.8,2.6-0.6,5.4-3.2,6.2l-7.1,2.3h0l-0.4,0.1
			c-0.1,0-0.1,0.1-0.2,0.1l-1.8,0.6c-2.6,0.8-5.4-0.7-6.2-3.2c-0.4-1.3-0.3-2.6,0.3-3.8c0.6-1.2,1.6-2.1,2.9-2.4l9.6-3
			c0.5-0.2,1-0.2,1.5-0.2C162.9,94.7,164.9,96.2,165.5,98.2L165.5,98.2z M160.6,74.2c0.8-0.5,1.7-0.8,2.7-0.8c1.7,0,3.3,0.9,4.2,2.3
			c0.7,1.1,0.9,2.5,0.7,3.8s-1.1,2.4-2.2,3.1l-8.4,5.3c-2.3,1.4-5.5,0.7-6.9-1.5c-0.7-1.1-0.9-2.5-0.7-3.8s1.1-2.4,2.2-3.1l4.8-3.1
			L160.6,74.2L160.6,74.2z M161.3,43.3c2.3-1.5,5.7-0.7,7.1,1.6c1.6,2.4,0.8,5.6-1.6,7.2l-8.6,5.4V45.2L161.3,43.3z M79.5,33.5
			c0-5.4,4.4-9.9,9.8-9.9h53.9c5.4,0,9.9,4.4,9.9,9.9v39.3l-3.6,2.3c-2.3,1.5-3.9,3.8-4.5,6.4s-0.1,5.4,1.3,7.7
			c0.9,1.4,2,2.5,3.3,3.2l-1.5,0.5c-2.6,0.8-4.7,2.6-6,5c-1.3,2.4-1.5,5.2-0.7,7.8c1,3.2,3.5,5.7,6.6,6.6c-1.8,1.9-2.9,4.4-2.9,7.2
			c0.1,4.6,3.4,8.5,7.8,9.5v21.3c0,5.4-4.4,9.9-9.9,9.9H89.3c-5.4,0-9.8-4.4-9.8-9.9L79.5,33.5L79.5,33.5z M112.3,181.6
			c-3.7,1.5-7.2,3-9.9,4.9c-1.1,0.7-3.6,2.7-5.8,4.4l-38.5-41.6c-0.8-9-4.9-22.2-6.6-27.9l-0.4-1.4c-1.7-5.7,1.4-13.4,5-22.3
			c4.1-10.2,8.8-21.7,8.9-35.1c0-3.6,2.2-5.4,4.2-5.5c1.9-0.1,4.3,1.3,4.9,5.7v87.6c0,8.3,6.8,15.1,15.1,15.1h46
			C129,174.8,120.2,178.4,112.3,181.6L112.3,181.6z"/>
		<path class="st2" d="M50.5,165.9c-2.4,1.4-3.2,4.5-1.7,6.9c1.4,2.4,4.5,3.1,6.9,1.7c2.4-1.4,3.2-4.5,1.7-6.9
			C56,165.2,52.9,164.4,50.5,165.9z"/>
		<path class="st2" d="M61.1,44.7c1.5,0,2.6-1.2,2.6-2.6V30.9c0-14.1,11.5-25.6,25.6-25.6h3.3c1.4,0,2.6-1.2,2.6-2.6S94.1,0,92.6,0
			h-3.3c-17,0-30.9,13.8-30.9,30.9v11.2C58.5,43.5,59.6,44.7,61.1,44.7L61.1,44.7z"/>
		<path class="st2" d="M102.3,5.9c0.2,0,0.3,0.1,0.5,0.1c1.4,0,2.7-1,2.9-2.4c0.1-0.8-0.1-1.6-0.5-2.2c-0.4-0.7-1.1-1.1-1.9-1.2
			c-1.6-0.3-3.2,0.8-3.4,2.4c-0.2,0.8,0,1.6,0.5,2.2C100.8,5.3,101.5,5.8,102.3,5.9L102.3,5.9z"/>
		<path class="st2" d="M172.3,140.9c-1.6-0.3-3.1,0.8-3.4,2.4c-0.1,0.8,0.1,1.6,0.5,2.2s1.1,1.1,1.9,1.2c0.2,0,0.3,0,0.5,0
			c1.4,0,2.7-1,2.9-2.4c0.2-0.8,0-1.6-0.5-2.2C173.7,141.4,173,141,172.3,140.9L172.3,140.9z"/>
		<path class="st2" d="M171.4,150c-1.4,0-2.6,1.2-2.6,2.6c0,14.1-11.5,25.6-25.6,25.6c-1.4,0-2.6,1.2-2.6,2.6s1.2,2.6,2.6,2.6
			c17,0,30.9-13.9,30.9-30.9C174.1,151.2,172.9,150,171.4,150L171.4,150z"/>
	</g>
</g>
</svg>
