<?xml version="1.0" encoding="utf-8"?>
<!-- Generator: Adobe Illustrator 26.1.0, SVG Export Plug-In . SVG Version: 6.00 Build 0)  -->
<svg version="1.1" id="Layer_1" xmlns="http://www.w3.org/2000/svg" xmlns:xlink="http://www.w3.org/1999/xlink" x="0px" y="0px"
	 viewBox="0 0 199.7 242.7" style="enable-background:new 0 0 199.7 242.7;" xml:space="preserve">
<style type="text/css">
	.st0{fill:#FFB10A;}
	.st1{fill:#FABF62;}
	.st2{fill:#273773;}
</style>
<g id="secure">
	<g>
		<path class="st0" d="M137.4,128c12.6-19,13.6-47.9,0.9-74.5c-4.2,0.9-11.4,1.8-20.2,0c-8.6-1.7-14.9-5.4-18.4-7.8
			c-3.5,2.4-9.8,6-18.4,7.8c-8.7,1.8-15.9,0.9-20.2,0C48.5,80.1,49.5,109,62.1,128c2.2,3.3,15.3,22.8,37.7,28.4
			C122.2,150.7,135.3,131.2,137.4,128z M105.3,105.5v14.9h-11v-14.9c-3-1.8-5-5.2-5-8.9c0-5.8,4.7-10.5,10.5-10.5
			s10.5,4.7,10.5,10.5C110.3,100.4,108.3,103.7,105.3,105.5L105.3,105.5z"/>
		<path class="st1" d="M99.8,156.4C99.7,156.4,99.9,156.4,99.8,156.4C99.7,156.4,99.8,156.4,99.8,156.4z"/>
		<path class="st0" d="M63.7,146.5H31.5v15.8h54C76.5,158,69.2,152.1,63.7,146.5L63.7,146.5z"/>
		<path class="st0" d="M135.9,146.5L135.9,146.5c-5.5,5.6-12.8,11.5-21.8,15.8h54v-15.8H135.9L135.9,146.5z"/>
		<g>
			<rect x="123.4" y="178.2" class="st2" width="7.9" height="5.2"/>
			<path class="st2" d="M123.7,175.6h7.6v-5.2H130C127,170.3,124.5,172.6,123.7,175.6z"/>
			<rect x="123.4" y="186.1" class="st2" width="7.9" height="5.2"/>
			<path class="st2" d="M130,199.1h1.3V194h-7.6C124.6,196.9,127.1,199.1,130,199.1z"/>
			<rect x="147.1" y="178.2" class="st2" width="7.9" height="5.2"/>
			<rect x="147.1" y="186.1" class="st2" width="7.9" height="5.2"/>
			<path class="st2" d="M147.1,199.1h1.3c2.9,0,5.4-2.2,6.2-5.1h-7.6L147.1,199.1L147.1,199.1z"/>
			<path class="st2" d="M154.7,175.6c-0.8-3-3.3-5.2-6.3-5.2h-14.4v28.7h10.5v-23.5H154.7z"/>
		</g>
		<circle class="st2" cx="32.4" cy="53.6" r="3"/>
		<circle class="st2" cx="172.5" cy="108.8" r="3"/>
		<path class="st2" d="M170.5,100.9c-0.1,1.4,0.9,2.7,2.4,2.8c0.1,0,0.1,0,0.2,0c1.4,0,2.5-1,2.6-2.4c1.3-14.6-0.5-30-5.1-44.6
			c-0.4-1.4-1.9-2.2-3.3-1.7c-1.4,0.4-2.1,1.9-1.7,3.3C170,72.3,171.7,87,170.5,100.9L170.5,100.9z"/>
		<path class="st2" d="M183.8,117.4c-0.3,1.4,0.6,2.8,2,3.1c0.2,0,0.4,0.1,0.6,0.1c1.2,0,2.3-0.8,2.6-2c5.3-23.3,3.3-49.2-5.5-72.9
			c-0.5-1.4-2-2-3.4-1.5c-1.4,0.5-2.1,2-1.6,3.4C187,70.2,188.9,95,183.8,117.4L183.8,117.4z"/>
		<path class="st2" d="M27,108.8c0.1,0,0.2,0,0.4,0c1.4-0.2,2.4-1.5,2.2-3c-1.9-13.9-0.8-28.8,3.1-43.2c0.4-1.4-0.4-2.8-1.8-3.2
			c-1.4-0.4-2.8,0.4-3.2,1.8c-4.1,15-5.2,30.6-3.2,45.3C24.6,107.8,25.7,108.8,27,108.8L27,108.8z"/>
		<path class="st2" d="M12.9,119.3c0.2,0,0.4,0,0.6-0.1c1.4-0.3,2.3-1.7,2-3.1c-4.7-22-2.7-46.3,5.6-68.7c0.5-1.4-0.2-2.9-1.5-3.4
			c-1.3-0.5-2.9,0.2-3.4,1.5c-8.6,23.2-10.7,48.7-5.8,71.6C10.6,118.4,11.7,119.3,12.9,119.3z"/>
		<circle class="st2" cx="168.1" cy="220.1" r="3"/>
		<path class="st2" d="M160.2,217.5h-134c-1.5,0-2.6,1.2-2.6,2.6s1.2,2.6,2.6,2.6h134c1.4,0,2.6-1.2,2.6-2.6
			S161.7,217.5,160.2,217.5L160.2,217.5z"/>
		<path class="st2" d="M41.7,185.9h28.8c1.4,0,2.6-1.2,2.6-2.6s-1.2-2.6-2.6-2.6H41.7c-1.5,0-2.6,1.2-2.6,2.6S40.3,185.9,41.7,185.9
			z"/>
		<path class="st2" d="M81.7,188.6H42c-1.5,0-2.6,1.2-2.6,2.6s1.2,2.6,2.6,2.6h39.7c1.4,0,2.6-1.2,2.6-2.6S83.2,188.6,81.7,188.6z"
			/>
		<path class="st2" d="M197,206.9h-26.6c1.8-2.3,2.9-5.2,2.9-8.3v-57c0-7.5-6.1-13.5-13.5-13.5h-7.4c11.3-22.8,10.7-53.3-2.3-80.3
			l-4.4-9.2l-10,2c-4.9,1-10,1-14.9,0c-4.8-1-9.5-3-13.6-5.7l-7.4-5l-7.4,5c-4.1,2.8-8.8,4.8-13.6,5.7c-4.8,1-10,1-14.9,0l-10-2
			l-4.4,9.2c-13,27-13.6,57.5-2.3,80.3h-7.4c-7.5,0-13.5,6.1-13.5,13.5v57c0,3.1,1.1,6,2.9,8.3H2.6c-1.5,0-2.6,1.2-2.6,2.6
			s1.2,2.6,2.6,2.6H197c1.4,0,2.6-1.2,2.6-2.6S198.5,206.9,197,206.9L197,206.9z M54.2,50.1l2.7-5.5l6,1.2c5.6,1.1,11.5,1.1,17,0
			c5.5-1.1,10.9-3.4,15.5-6.5l4.4-3l4.4,3c4.6,3.2,10,5.4,15.5,6.5c5.6,1.1,11.5,1.1,17,0l6-1.2l2.7,5.5c13.6,28.2,13,60.5-1.4,82.2
			c-4.3,6.4-16.3,22.2-35.3,29.5l-7.3,2.3c-1.1,0.3-2.2,0.3-3.2,0l-7.1-2.2c-19.2-7.3-31.2-23.1-35.5-29.5
			C41.2,110.6,40.6,78.4,54.2,50.1L54.2,50.1z M39.8,206.9c-4.6,0-8.3-3.7-8.3-8.3v-57c0-4.6,3.7-8.3,8.3-8.3h10.3
			c0.4,0.6,0.7,1.2,1.1,1.8c4.5,6.8,17.4,23.6,38.2,31.6l7.3,2.3c1,0.3,2.1,0.5,3.2,0.5s2.2-0.2,3.2-0.5l7.4-2.3
			c20.6-7.9,33.4-24.7,38-31.5c0.4-0.6,0.8-1.2,1.1-1.8h10.3c4.6,0,8.3,3.7,8.3,8.3v57c0,4.6-3.7,8.3-8.3,8.3H39.8z"/>
	</g>
</g>
</svg>
