<svg xmlns="http://www.w3.org/2000/svg" viewBox="0 0 630.12 572.32"><defs><style>.cls-1{fill:#ffb10a;}.cls-2{fill:#fff;}.cls-3{fill:#ef5a28;}</style></defs><g id="icons"><path class="cls-1" d="M599.17,560.75H398.75A28.77,28.77,0,0,1,370,532v-5.91H624.34v9.5A25.17,25.17,0,0,1,599.17,560.75Z"/><path class="cls-1" d="M592,161.87H395.65c-14.18,0-25.67,13.4-25.67,29.94v10.52H624.34v-2.7C624.34,178.77,609.85,161.87,592,161.87Z"/><path class="cls-2" d="M588.91,572.32H399.63a41.26,41.26,0,0,1-41.21-41.22V197.3a41.25,41.25,0,0,1,41.21-41.21H588.91a41.25,41.25,0,0,1,41.21,41.21V531.1A41.26,41.26,0,0,1,588.91,572.32ZM399.63,173.43a23.9,23.9,0,0,0-23.87,23.87V531.1A23.9,23.9,0,0,0,399.63,555H588.91a23.9,23.9,0,0,0,23.87-23.87V197.3a23.9,23.9,0,0,0-23.87-23.87Z"/><path class="cls-1" d="M289.05,387.32v38.49c-5,19.24-34.69,14.43-34.69,0V387.32Z"/><path class="cls-2" d="M271.67,453.88A28.53,28.53,0,0,1,257.21,450a29,29,0,0,1-14.41-25V384.43a8.67,8.67,0,0,1,17.34,0V425a11.67,11.67,0,0,0,5.8,10c2.2,1.28,6.78,2.93,12.68-.41,2.82-1.6,4.65-5.08,4.65-8.87v-41.3a8.67,8.67,0,0,1,17.34,0v41.3a27.34,27.34,0,0,1-13.45,24A31.48,31.48,0,0,1,271.67,453.88Z"/><path class="cls-2" d="M15,502.94a9.19,9.19,0,1,0,9.19,9.19A9.2,9.2,0,0,0,15,502.94Z"/><path class="cls-2" d="M147.41,509a9,9,0,0,1-9-9V476.93a9,9,0,0,1,9-9H297.72a9,9,0,0,1,0,18H156.39v14.14A9,9,0,0,1,147.41,509Z"/><path class="cls-2" d="M186.29,481.41a8.67,8.67,0,0,1-7.21-13.49,69.33,69.33,0,0,0,11.69-38.63V384.43a8.67,8.67,0,0,1,17.34,0v44.86a86.74,86.74,0,0,1-14.6,48.27A8.66,8.66,0,0,1,186.29,481.41Z"/><path class="cls-2" d="M332.41,393.11H35.61A35.66,35.66,0,0,1,0,357.49V35.61A35.66,35.66,0,0,1,35.61,0H502a35.66,35.66,0,0,1,35.61,35.61V135.85a8.67,8.67,0,1,1-17.34,0V35.61A18.3,18.3,0,0,0,502,17.34H35.61A18.3,18.3,0,0,0,17.34,35.61V357.49a18.29,18.29,0,0,0,18.27,18.27h296.8a8.68,8.68,0,0,1,0,17.35Z"/><path class="cls-2" d="M355.53,520.29H49.14a8.68,8.68,0,0,1,0-17.35H355.53a8.68,8.68,0,0,1,0,17.35Z"/><path class="cls-3" d="M103.93,185.13a102.27,102.27,0,0,1,185.12-46.34l-30.92-15.46a8.68,8.68,0,1,0-7.76,15.52l53.25,26.62a8.67,8.67,0,0,0,12.46-9l-8.87-62.13A8.67,8.67,0,1,0,290,96.81L292.78,116A119.56,119.56,0,0,0,86.71,183a8.69,8.69,0,0,0,7.56,9.66c.36,0,.72.06,1.07.06A8.67,8.67,0,0,0,103.93,185.13Z"/><path class="cls-3" d="M316.08,209.5a8.69,8.69,0,0,0-10.1,6.95,102.28,102.28,0,0,1-184.19,40l31,15.48a8.67,8.67,0,0,0,7.76-15.51l-53.25-26.62a8.68,8.68,0,0,0-12.47,9l8.88,62.12a8.67,8.67,0,0,0,17.17-2.45l-2.73-19.13A119.61,119.61,0,0,0,323,219.61,8.68,8.68,0,0,0,316.08,209.5Z"/><path class="cls-3" d="M424.7,354.41a8.06,8.06,0,0,0,8-7.07,61.63,61.63,0,0,1,103-37.76l-7.49-3.74a8,8,0,0,0-7.2,14.4L554.52,337a8,8,0,0,0,11.57-8.33l-5.58-39.07a8.05,8.05,0,0,0-15.94,2.28l.66,4.61A77.75,77.75,0,0,0,416.7,345.39a8.07,8.07,0,0,0,7,9C424.05,354.39,424.38,354.41,424.7,354.41Z"/><path class="cls-3" d="M569.6,366.19a8.69,8.69,0,0,0-10.11,6.95,66.45,66.45,0,0,1-118.66,27.45l-.93-6.51L459.64,404a8,8,0,0,0,7.2-14.4l-33.48-16.75a8,8,0,0,0-11.57,8.34l2.8,19.61a8.66,8.66,0,0,0,.9,8.28l.34.45,1.54,10.73a8.05,8.05,0,0,0,8,6.91,8.86,8.86,0,0,0,1.14-.08,8,8,0,0,0,4-1.8A83.77,83.77,0,0,0,576.54,376.3,8.67,8.67,0,0,0,569.6,366.19Z"/></g></svg>