<svg xmlns="http://www.w3.org/2000/svg" viewBox="0 0 579.38 576.9"><defs><style>.cls-1{fill:#ef5a28;}.cls-2{fill:#ffb10a;}.cls-3{fill:#fff;}</style></defs><g id="icons"><path class="cls-1" d="M389.72,137.32c40.91,0,75.53,20.89,87.11,49.66V70.13a39.37,39.37,0,0,1-39.37-39.37H341.88a39.37,39.37,0,0,1-39.37,39.37v117.1C314,158.33,348.69,137.32,389.72,137.32ZM372.37,84.9a15.75,15.75,0,1,1,15.75,15.75A15.75,15.75,0,0,1,372.37,84.9Z"/><path class="cls-2" d="M526.57,376.41A20.56,20.56,0,1,1,506,355.85,20.56,20.56,0,0,1,526.57,376.41Z"/><path class="cls-1" d="M445,197.4c0,3.63-2.47,7.69-5.51,7.69h-5.36c-.95,7.69-3.49,12.63-7.56,17a20.49,20.49,0,0,1-11,5.95c-1.45.32-2.36-.23-3.57-1.2-1.51-1.21-1.86-3.42-1.86-5.58v-.94c0-3,1.27-5.67,3.87-6.37,6.05-1.65,8.72-6.92,8.72-16.11,0-4.79-1.32-8.63-3.66-11.4A11.33,11.33,0,0,0,410,182.3c-4.15,0-7.19,1.6-9.21,4.88-1.41,2.28-2.77,6.6-4,12.82-3.39,16.76-10.61,25.25-21.47,25.25-6.09,0-11.25-1.19-15.32-5.1-3.86-3.71-6.37-11.22-7.46-15.06H346.6c-3,0-5.51-4.06-5.51-7.69s2.47-7.69,5.51-7.69h6c.88-3.85,3-10.64,6.44-14.19a19.48,19.48,0,0,1,7.32-4.76,4.89,4.89,0,0,1,4.59.67,7.72,7.72,0,0,1,3,6.34c0,3.06-1.52,5.76-3.79,6.68a9,9,0,0,0-4,3.34,16.23,16.23,0,0,0-2.59,9.39c0,4.16,1.06,7.53,3.14,10a9.77,9.77,0,0,0,7.88,3.63c3.66,0,6.3-2.48,8.07-7.59,1.24-4.92,2.46-9.93,3.66-14.95,4.1-13.93,11.57-21,22.22-21,6.38,0,11.93,1.76,16.51,5.84s7.53,8.87,8.52,16.56h5.93C442.57,189.71,445,193.76,445,197.4Z"/><path class="cls-3" d="M569.12,435.82H472.69c-14.68,0-26.62-12.66-26.62-28.2V346.09c0-15.55,11.94-28.2,26.62-28.2H574.25v15.38H472.69c-6.2,0-11.24,5.75-11.24,12.82v61.53c0,7.07,5,12.81,11.24,12.81h96.43Z"/><path class="cls-3" d="M499.91,169.2a7.69,7.69,0,0,1-7.69-7.69V12.82a7.69,7.69,0,1,1,15.38,0V161.51A7.7,7.7,0,0,1,499.91,169.2Z"/><path class="cls-3" d="M499.91,225.6a7.69,7.69,0,0,1-7.69-7.69V15.38H287.13V217.91a7.7,7.7,0,0,1-15.39,0V7.69A7.69,7.69,0,0,1,279.44,0H499.91a7.69,7.69,0,0,1,7.69,7.69V217.91A7.7,7.7,0,0,1,499.91,225.6Z"/><path class="cls-3" d="M530.67,220.47a7.69,7.69,0,0,1-7.69-7.69V28.2a7.69,7.69,0,0,1,15.38,0V212.78A7.69,7.69,0,0,1,530.67,220.47Z"/><path class="cls-3" d="M544.85,523H351.22a7.69,7.69,0,1,1,0-15.38H544.85A19.17,19.17,0,0,0,564,488.45V265a13.8,13.8,0,0,0-13.78-13.77H265.63c-19,0-33.33-14.33-33.33-33.33s14.33-33.33,33.33-33.33h13.81a7.69,7.69,0,0,1,0,15.38H265.63c-10.56,0-17.94,7.38-17.94,17.95s7.38,17.94,17.94,17.94H550.22A29.2,29.2,0,0,1,579.38,265V488.45A34.57,34.57,0,0,1,544.85,523Z"/><path class="cls-3" d="M524.48,287.13H513.22a7.7,7.7,0,0,1,0-15.39h11.26a7.7,7.7,0,0,1,0,15.39Zm-48.81,0H464.41a7.7,7.7,0,0,1,0-15.39h11.26a7.7,7.7,0,0,1,0,15.39Zm-48.8,0H415.6a7.7,7.7,0,0,1,0-15.39h11.27a7.7,7.7,0,0,1,0,15.39Zm-48.81,0H366.79a7.7,7.7,0,0,1,0-15.39h11.27a7.7,7.7,0,0,1,0,15.39Zm-48.81,0H318a7.7,7.7,0,0,1,0-15.39h11.26a7.7,7.7,0,0,1,0,15.39Zm-48.81,0H269.18a7.7,7.7,0,0,1,0-15.39h11.26a7.7,7.7,0,0,1,0,15.39Z"/><path class="cls-3" d="M519.16,482H507.89a7.69,7.69,0,0,1,0-15.38h11.27a7.69,7.69,0,1,1,0,15.38Zm-48.81,0H459.08a7.69,7.69,0,0,1,0-15.38h11.27a7.69,7.69,0,0,1,0,15.38Zm-48.81,0H410.28a7.69,7.69,0,0,1,0-15.38h11.26a7.69,7.69,0,0,1,0,15.38Zm-48.81,0H361.47a7.69,7.69,0,0,1,0-15.38h11.26a7.69,7.69,0,0,1,0,15.38Z"/><path class="cls-2" d="M213.07,361.49c10.12,1.27,18.25,3.08,22.88,5.4,21.47,10.74,26.84,42.94,48.31,59.05,24.72,18.54,37.58,38.85,37.58,61.73,0,17.23-5.27,48.45-21.47,61.73-12.06,9.88-32.37,14.28-51.7,17.16H89.73c-21.07-2.73-34.13-4.53-47-15.1C26.5,538.18,21.23,507,21.23,489.73c0-22.88,12.86-43.19,37.58-61.73,21.47-16.11,26.84-48.31,48.31-59.05,9.53-4.76,33.87-7.41,59.86-7.48Z"/><path class="cls-3" d="M89.74,574.25a8.51,8.51,0,0,1-1-.06c-21-2.72-36.15-4.68-50.91-16.78-19.17-15.71-24.29-49.93-24.29-67.68,0-24.82,13.68-47.65,40.66-67.88,8.86-6.66,15-17.14,21-27.28,7.43-12.69,15.12-25.8,28.52-32.5,15.16-7.58,52.28-8.26,63.29-8.29h9.92a7.69,7.69,0,0,1,0,15.38H167c-29.92.08-49.9,3.41-56.43,6.67-9.32,4.66-15.55,15.28-22.13,26.52-6.71,11.45-13.66,23.29-25,31.8-23.21,17.41-34.49,35.59-34.49,55.58,0,16.28,5,44.57,18.65,55.78,10.87,8.91,21.67,10.64,43.13,13.43a7.69,7.69,0,0,1-1,15.31Z"/><path class="cls-3" d="M248.66,574.25A7.69,7.69,0,0,1,247.53,559c16.53-2.47,36.92-6.46,48-15.51,13.69-11.21,18.65-39.5,18.65-55.78,0-20-11.28-38.17-34.49-55.58-11.35-8.51-18.3-20.35-25-31.8-6.58-11.24-12.81-21.87-22.13-26.52-2.09-1-7.52-3-20.39-4.64a7.69,7.69,0,1,1,1.9-15.26c11.55,1.43,20.09,3.5,25.36,6.14,13.41,6.7,21.1,19.81,28.53,32.49,5.95,10.14,12.09,20.63,21,27.28,27,20.24,40.65,43.07,40.65,67.89,0,17.74-5.12,52-24.29,67.68-13.87,11.36-35.8,15.89-55.43,18.82A7.5,7.5,0,0,1,248.66,574.25Z"/><path class="cls-3" d="M294.82,435.82a7.69,7.69,0,0,1-7.69-7.69V411.47a78.29,78.29,0,0,0-78.2-78.2H134.6a78.29,78.29,0,0,0-78.2,78.2v16.66a7.69,7.69,0,0,1-15.38,0V411.47a93.69,93.69,0,0,1,93.58-93.58h74.33a93.69,93.69,0,0,1,93.58,93.58v16.66A7.7,7.7,0,0,1,294.82,435.82Z"/><path class="cls-3" d="M145,305.07a30.77,30.77,0,1,1,30.76-30.76A30.8,30.8,0,0,1,145,305.07Zm0-46.14a15.38,15.38,0,1,0,15.38,15.38A15.4,15.4,0,0,0,145,258.93Z"/><path class="cls-3" d="M196.27,305.07A30.77,30.77,0,1,1,227,274.31,30.8,30.8,0,0,1,196.27,305.07Zm0-46.14a15.38,15.38,0,1,0,15.38,15.38A15.4,15.4,0,0,0,196.27,258.93Z"/><path class="cls-3" d="M125.61,328.14A7.69,7.69,0,0,1,118.74,317L129,296.5a7.69,7.69,0,0,1,13.76,6.88L132.5,323.89A7.69,7.69,0,0,1,125.61,328.14Z"/><path class="cls-3" d="M207.65,328.14a7.69,7.69,0,0,1-7.46-5.82l-5.12-20.51A7.69,7.69,0,1,1,210,298.08l5.12,20.51a7.67,7.67,0,0,1-5.59,9.32A7.54,7.54,0,0,1,207.65,328.14Z"/><path class="cls-3" d="M166.16,485.2a7.67,7.67,0,0,1-4.47-1.44C126.79,458.82,94.61,461,94.29,461A7.6,7.6,0,0,1,86,453.94a7.69,7.69,0,0,1,7.07-8.26c1.56-.13,38.13-2.58,77.53,25.57a7.69,7.69,0,0,1-4.48,13.95Z"/><path class="cls-3" d="M144.69,469.09A7.69,7.69,0,0,1,139.26,456c14.59-14.6,51.14-35.78,85.06-11.56a7.7,7.7,0,0,1-8.95,12.52c-31.89-22.78-63.89,8.57-65.24,9.92A7.67,7.67,0,0,1,144.69,469.09Z"/><path class="cls-3" d="M497.15,568.36a8.54,8.54,0,1,1-8.53-8.53A8.53,8.53,0,0,1,497.15,568.36Z"/><path class="cls-3" d="M448.63,574.25H7.69a7.69,7.69,0,0,1,0-15.38H448.63a7.69,7.69,0,1,1,0,15.38Z"/></g></svg>