<svg xmlns="http://www.w3.org/2000/svg" viewBox="0 0 595.25 529.74"><defs><style>.cls-1{fill:#ffb10a;}.cls-2{fill:#fff;}.cls-3{fill:#ef5a28;}</style></defs><g id="icons"><path class="cls-1" d="M189.72,387.84h-2.09l5,88.37L173,515.49,158.31,471.3l4.21-83.46h-2.09a7.3,7.3,0,0,1-7.17-8.74l3-14.84a7.3,7.3,0,0,1,7.16-5.87h23.37a7.32,7.32,0,0,1,7.17,5.88l3,14.83A7.3,7.3,0,0,1,189.72,387.84Z"/><path class="cls-2" d="M175.2,529.74c-32.94,0-64.29-5.83-93.19-17.32-30.18-12-57.69-28.68-79.56-48.24A7.4,7.4,0,0,1,0,458.23C3.18,406.9,32.63,348.57,105.78,338.81a7.37,7.37,0,0,1,2,14.61C29.79,363.81,17.06,434.05,15,455.59,35.14,473,60.11,487.86,87.46,498.73,114.61,509.54,144.14,515,175.2,515h.28c35.35,0,68.83-7.18,99.52-21.24a256.24,256.24,0,0,0,60.11-38.2c-3.51-45-21.64-97.79-86.47-102.11a7.36,7.36,0,1,1,1-14.69c81.3,5.42,97.82,77.18,100.44,119.46a7.44,7.44,0,0,1-2.44,5.95c-18.79,16.8-41.78,31.66-66.48,43C248.51,522.11,213,529.71,175.5,529.74Z"/><path class="cls-1" d="M207.84,91.46s-54.2-16.3-85.23,24.92c-23.07-1.88-38.87,25.75-39.34,43.08-.94,10.77,13,63.68,13,63.68s19-58.51,24-63.47a54.41,54.41,0,0,0,14.2,19c22.9,19.42,54.58,17.71,92.63-2.58,3.42,4.89,24.35,41.87,25,49,0,0,8-42.61,8.67-59.59C260.76,165.55,262.87,110.64,207.84,91.46Z"/><path class="cls-2" d="M258.29,253.38a8.22,8.22,0,0,1-1.47-.14,7.43,7.43,0,0,1-5.74-8.77c1.13-5.76,5-8.51,7.62-10.33,2.93-2,5.45-3.83,7.25-11.29,2.79-11.62.63-15.85-.1-16.35a2,2,0,0,0-1.63.48,7.37,7.37,0,0,1-8.45-12.07c5.77-4,13-4.26,18.37-.58s10.88,12.23,6.12,32c-3.09,12.87-9.35,17.27-13.09,19.9a14.81,14.81,0,0,0-1.77,1.36A7.19,7.19,0,0,1,258.29,253.38Z"/><path class="cls-2" d="M89.81,253.26a7.37,7.37,0,0,1-7.21-5.95v0h0A16.67,16.67,0,0,1,81,246.19c-3.74-2.63-10-7-13.1-19.9-4.75-19.73.71-28.28,6.13-32s12.6-3.46,18.37.58A7.37,7.37,0,1,1,83.91,207a2,2,0,0,0-1.63-.48c-.73.5-2.89,4.73-.1,16.35,1.8,7.46,4.32,9.24,7.25,11.29,2.58,1.82,6.49,4.57,7.62,10.33a7.37,7.37,0,0,1-5.81,8.65A7.78,7.78,0,0,1,89.81,253.26Z"/><path class="cls-2" d="M174.06,345.3C129.6,345.3,91.11,304,82.54,247a7.37,7.37,0,1,1,14.57-2.19c7.47,49.69,39.84,85.77,77,85.77S243.53,294.49,251,244.8A7.36,7.36,0,1,1,265.57,247C257,304,218.51,345.3,174.06,345.3Z"/><path class="cls-2" d="M214.76,245.47H195.13a7.37,7.37,0,1,1,0-14.73h19.63a7.37,7.37,0,1,1,0,14.73Z"/><path class="cls-2" d="M150.94,245.47H131.3a7.37,7.37,0,0,1,0-14.73h19.64a7.37,7.37,0,1,1,0,14.73Z"/><path class="cls-2" d="M174.06,311.71c-9.06,0-18.24-3.34-26.57-9.65a7.37,7.37,0,1,1,8.9-11.74c11.65,8.84,23.67,8.84,35.34,0a7.36,7.36,0,0,1,8.89,11.74C192.29,308.37,183.11,311.71,174.06,311.71Z"/><path class="cls-2" d="M252.1,232.5h-.36a7.35,7.35,0,0,1-7-6.7c-.85-4.93-13.63-28.61-20.34-40-39.07,19.2-70.91,18.72-94.7-1.45a58.67,58.67,0,0,1-8.78-9.29c-4.67,11.88-11.68,31.95-17.67,50.39a7.26,7.26,0,0,1-7.22,5.08A7.36,7.36,0,0,1,89.14,225c-2.38-9-14.2-54.73-13.21-66.2.35-13.31,8.24-29.76,19.16-39.56,7.22-6.47,15.44-10,24-10.31,34-41,88.51-25.25,90.86-24.54l.31.1c59.48,20.73,57.87,80.72,57.85,81.32-.71,17.33-8.46,58.9-8.79,60.66A7.36,7.36,0,0,1,252.1,232.5Zm-25-63.74a7.39,7.39,0,0,1,6.05,3.14c1.13,1.62,9,14.85,15.86,27.92,2-12.4,4.07-26.59,4.39-34.57.07-2,1-49.63-47.8-66.77-3.51-1-50.09-13.57-77.11,22.33a7.5,7.5,0,0,1-6.47,2.91c-6-.48-11.74,1.7-17.09,6.5-9,8.07-14.08,21.19-14.3,29.44-.39,4.61,2.83,20.61,6.68,37.12,7-20.24,14.07-38.66,17.78-42.34A7.37,7.37,0,0,1,127,156.57a47.84,47.84,0,0,0,12.28,16.52c20,16.92,48.36,15.76,84.4-3.47A7.33,7.33,0,0,1,227.1,168.76Z"/><path class="cls-1" d="M422.32,189.89a7.34,7.34,0,0,1-5.43-2.39L364,129.83l-46.6,35.58a7.37,7.37,0,0,1-8.94-11.71L360.43,114a7.38,7.38,0,0,1,9.9.88l51.74,56.45,28.51-34a7.37,7.37,0,1,1,11.29,9.47L428,187.26a7.39,7.39,0,0,1-5.48,2.63Z"/><rect class="cls-1" x="443.05" y="270.02" width="29.46" height="58.91"/><rect class="cls-1" x="389.05" y="284.75" width="29.46" height="44.18"/><rect class="cls-1" x="335.04" y="304.38" width="29.46" height="24.55"/><path class="cls-2" d="M200,525.31a7.36,7.36,0,0,1-6-11.66l47.42-66.1-6.14-26.38a7.37,7.37,0,0,1,3.77-8.2l18.61-9.71-18.55-55a7.36,7.36,0,1,1,14-4.7l20.56,61a7.36,7.36,0,0,1-3.57,8.88l-19.14,10,5.61,24.08a7.39,7.39,0,0,1-1.19,6L206,522.24A7.34,7.34,0,0,1,200,525.31Z"/><path class="cls-2" d="M146,525.31a7.36,7.36,0,0,1-6-3.15L92,453.35a7.35,7.35,0,0,1-1.13-5.88l5.6-24.08-19.14-10a7.36,7.36,0,0,1-3.42-9.27l24.5-61A7.36,7.36,0,0,1,112,348.63l-22,54.8L108.32,413a7.37,7.37,0,0,1,3.76,8.2l-6.15,26.44,46.14,66.12a7.36,7.36,0,0,1-6,11.58Z"/><path class="cls-2" d="M170.58,520.4a7.37,7.37,0,0,1-6.88-4.73L99.88,348.75a7.37,7.37,0,0,1,13.76-5.27L177.46,510.4a7.36,7.36,0,0,1-6.88,10Z"/><path class="cls-2" d="M175.48,520.4a7.37,7.37,0,0,1-6.8-10.17l68.73-166.92A7.37,7.37,0,0,1,251,348.92L182.3,515.84A7.37,7.37,0,0,1,175.48,520.4Z"/><path class="cls-3" d="M522.51,177.2l-4.39-19.74a7.35,7.35,0,0,0-11.54-4.34l-16.45,12.06a7.36,7.36,0,0,0,7.23,12.7l-29.29,53.2-39.44-15.34a7.38,7.38,0,0,0-8.42,2.27l-23.74,29.68L364.61,185.3a7.36,7.36,0,0,0-13.36.53l-26.93,64.8-44.8,19.23A7.36,7.36,0,0,0,282.43,284a7.45,7.45,0,0,0,2.9-.59L332.87,263a7.41,7.41,0,0,0,3.9-3.94l22-52.86,29.8,58.35a7.33,7.33,0,0,0,5.81,4,7.41,7.41,0,0,0,6.49-2.73l27.49-34.36,40.42,15.71a7.36,7.36,0,0,0,9.12-3.31l32.72-59.44a7.33,7.33,0,0,0,11.92-7.19Z"/><path class="cls-2" d="M546.42,412.39H367a7.37,7.37,0,1,1,0-14.73H546.42a19.38,19.38,0,0,0,19.37-19.36V41.73a7.37,7.37,0,0,1,14.73,0V378.3A34.13,34.13,0,0,1,546.42,412.39Z"/><path class="cls-2" d="M391.5,446.76a7.37,7.37,0,0,1-7.36-7.37V405a7.37,7.37,0,1,1,14.73,0v34.36A7.37,7.37,0,0,1,391.5,446.76Z"/><path class="cls-2" d="M392.46,483.87c-14.14,0-25.64-11.24-25.64-25.05s11.5-25.06,25.64-25.06,25.63,11.24,25.63,25.06S406.59,483.87,392.46,483.87Zm0-35.38c-6,0-10.91,4.63-10.91,10.33s4.9,10.32,10.91,10.32,10.9-4.63,10.9-10.32S398.47,448.49,392.46,448.49Z"/><path class="cls-2" d="M576.57,44.18H177c-10.29,0-18.67-8-18.67-17.88V17.89C158.31,8,166.69,0,177,0H576.57c10.29,0,18.68,8,18.68,17.89V26.3C595.25,36.16,586.86,44.18,576.57,44.18ZM177,14.73c-2.14,0-3.95,1.45-3.95,3.16V26.3c0,1.71,1.81,3.16,3.95,3.16H576.57c2.14,0,3.95-1.45,3.95-3.16V17.89c0-1.71-1.81-3.16-3.95-3.16Z"/><path class="cls-2" d="M190.22,68.73a7.37,7.37,0,0,1-7.37-7.36V36.82a7.37,7.37,0,0,1,14.73,0V61.37A7.37,7.37,0,0,1,190.22,68.73Z"/></g></svg>