<svg xmlns="http://www.w3.org/2000/svg" viewBox="0 0 607.38 557.4"><defs><style>.cls-1{fill:#ef5a28;}.cls-2{fill:#fff;}.cls-3{fill:#ffb10a;}</style></defs><g id="icons"><path class="cls-1" d="M255.94,458.71H244.86a7.57,7.57,0,0,1,0-15.13h11.08a7.57,7.57,0,0,1,0,15.13Zm-48,0H196.88a7.57,7.57,0,0,1,0-15.13H208a7.57,7.57,0,0,1,0,15.13Zm-48,0H148.9a7.57,7.57,0,1,1,0-15.13H160a7.57,7.57,0,0,1,0,15.13Zm-48,0H100.91a7.57,7.57,0,0,1,0-15.13H112a7.57,7.57,0,0,1,0,15.13Zm-48,0H52.93a7.57,7.57,0,0,1,0-15.13H64a7.57,7.57,0,0,1,0,15.13Z"/><path class="cls-2" d="M330.17,504.07H7.56A7.55,7.55,0,0,1,0,496.51V37.81a7.56,7.56,0,0,1,7.56-7.57h433.5a7.56,7.56,0,0,1,7.56,7.57V189a7.56,7.56,0,0,1-15.12,0V45.37H15.12V489H330.17a7.56,7.56,0,1,1,0,15.12Z"/><path class="cls-2" d="M562,216.75a7.56,7.56,0,0,1-7.56-7.56V15.12H532.76l-83.9,28.49A7.56,7.56,0,1,1,444,29.29L529.08.4a7.8,7.8,0,0,1,2.44-.4H562a7.56,7.56,0,0,1,7.56,7.56V209.19A7.56,7.56,0,0,1,562,216.75Z"/><path class="cls-2" d="M289.84,423.42H47.89a7.56,7.56,0,0,1-7.56-7.56V73.09a7.56,7.56,0,0,1,7.56-7.56H400.74a7.57,7.57,0,0,1,7.56,7.56v136.1a7.56,7.56,0,1,1-15.12,0V80.65H55.45V408.3H289.84a7.56,7.56,0,1,1,0,15.12Z"/><path class="cls-2" d="M526.76,226.83a7.56,7.56,0,0,1-7.57-7.56V7.56a7.57,7.57,0,0,1,15.13,0V219.27A7.56,7.56,0,0,1,526.76,226.83Z"/><polygon class="cls-2" points="312.52 378.05 277.24 378.05 277.24 272.2 327.65 272.2 312.52 332.8 312.52 378.05"/><rect class="cls-2" x="146.18" y="307.48" width="50.41" height="70.57"/><path class="cls-3" d="M239.43,383.1a7.57,7.57,0,0,1-7.56-7.57V345.29a7.57,7.57,0,0,1,7.56-7.56H310a7.56,7.56,0,1,1,0,15.12H247v22.68A7.57,7.57,0,0,1,239.43,383.1Z"/><path class="cls-3" d="M239.43,342.77a7.57,7.57,0,0,1-7.56-7.56V305a7.57,7.57,0,0,1,7.56-7.56H310a7.56,7.56,0,1,1,0,15.12H247v22.69A7.57,7.57,0,0,1,239.43,342.77Z"/><path class="cls-3" d="M239.43,302.44a7.56,7.56,0,0,1-7.56-7.56V264.64a7.56,7.56,0,0,1,7.56-7.56h90.74a7.56,7.56,0,1,1,0,15.12H247v22.68A7.56,7.56,0,0,1,239.43,302.44Z"/><path class="cls-3" d="M199.11,342.77a7.56,7.56,0,0,1-7.56-7.56V312.52H115.94v22.69a7.57,7.57,0,0,1-15.13,0V305a7.57,7.57,0,0,1,7.57-7.56h90.73a7.56,7.56,0,0,1,7.56,7.56v30.25A7.56,7.56,0,0,1,199.11,342.77Z"/><path class="cls-3" d="M199.11,383.1a7.56,7.56,0,0,1-7.56-7.57V352.85H115.94v22.68a7.57,7.57,0,1,1-15.13,0V345.29a7.57,7.57,0,0,1,7.57-7.56h90.73a7.56,7.56,0,0,1,7.56,7.56v30.24A7.56,7.56,0,0,1,199.11,383.1Z"/><path class="cls-2" d="M454.88,557.4a27.83,27.83,0,0,1-8.22-1.25l-18.61-5.8c-51.82-19.8-83.94-61.88-95.35-79.06C294,413,292.23,327,328.2,252.08l11.39-23.75,25.82,5.26a92.42,92.42,0,0,0,70.44-14.19l19-13,19,13a92.38,92.38,0,0,0,70.43,14.19l25.82-5.26,11.4,23.76c36,74.89,34.2,160.94-4.51,219.21-11.4,17.17-43.52,59.25-95.32,79l-18.64,5.81A27.9,27.9,0,0,1,454.88,557.4Zm-21.66-21.26,17.92,5.57a12.71,12.71,0,0,0,7.48,0l18.19-5.65c47.26-18.08,77.07-57.17,87.67-73.13C600.29,409,601.66,328.82,568,258.63l-6.3-13.13-14.27,2.9a107.52,107.52,0,0,1-82-16.51l-10.52-7.17-10.52,7.17a107.56,107.56,0,0,1-82,16.51l-14.26-2.9-6.3,13.13C308.12,328.82,309.48,409,345.3,462.92,355.88,478.86,385.61,517.87,433.22,536.14Z"/><path class="cls-1" d="M551.11,266.71a126.22,126.22,0,0,1-96.22-19.38,126.22,126.22,0,0,1-96.22,19.38c-31.83,66.28-29.28,138.51,2.19,185.88,5.42,8.16,38.19,56.81,94,70.86,55.84-14.05,88.6-62.7,94-70.86C580.38,405.22,582.94,333,551.11,266.71Z"/><path class="cls-2" d="M397.19,338.55q0-11.48,7.42-19.12t20.68-7.65q13.43,0,20.81,7.61t7.39,19.16v6.85q0,11.48-7.39,19T425.47,372q-13.35,0-20.81-7.56t-7.47-19Zm17.25,6.85a13.31,13.31,0,0,0,2.85,8.67c1.89,2.34,4.62,3.52,8.18,3.52a9.61,9.61,0,0,0,8-3.52,13.45,13.45,0,0,0,2.8-8.67v-6.85a13.68,13.68,0,0,0-2.85-8.76,9.7,9.7,0,0,0-8.09-3.6,9.6,9.6,0,0,0-8.05,3.6,13.82,13.82,0,0,0-2.8,8.76Zm15.3,88.05-12.63-6.67,63.24-101.22L493,332.23Zm29.35-22.06a26.15,26.15,0,0,1,7.47-19q7.47-7.65,20.72-7.65t20.77,7.61q7.43,7.59,7.43,19.07v6.85q0,11.56-7.39,19.13t-20.63,7.55q-13.33,0-20.86-7.6t-7.51-19.08Zm17.25,6.85a13,13,0,0,0,3.07,8.68,10.1,10.1,0,0,0,8,3.59c3.85,0,6.61-1.1,8.27-3.33s2.49-5.2,2.49-8.94v-6.85a13.59,13.59,0,0,0-2.84-8.67,9.73,9.73,0,0,0-8.1-3.6c-3.55,0-6.27,1.2-8.14,3.6a13.74,13.74,0,0,0-2.8,8.67Z"/><path class="cls-2" d="M87.43,190.21a77.38,77.38,0,1,1,71,83.27A77.39,77.39,0,0,1,87.43,190.21Z"/><path class="cls-3" d="M168.72,245.88a42.56,42.56,0,0,1-5-.3c-24.77-3.05-42.23-27.53-38.9-54.56a51.5,51.5,0,0,1,17.12-32.8,43.18,43.18,0,0,1,33.84-10.71c10.54,1.3,20,6.53,27.34,15.15a7.56,7.56,0,0,1-11.5,9.81,27.86,27.86,0,0,0-17.69-9.95c-7.83-1-15.68,1.56-22.08,7.12a36.37,36.37,0,0,0-12,23.22c-2.31,18.76,9.24,35.68,25.74,37.71a28,28,0,0,0,19.57-5.38,7.56,7.56,0,1,1,8.78,12.31A43.06,43.06,0,0,1,168.72,245.88Z"/><path class="cls-3" d="M182.88,192.11c-.3,0-.62,0-.93-.05l-60-7.37a7.57,7.57,0,0,1,1.84-15l60,7.38a7.56,7.56,0,0,1-.92,15.06Z"/><path class="cls-3" d="M179.94,216.1c-.31,0-.62,0-.94,0l-60-7.37a7.57,7.57,0,0,1,1.84-15l60,7.37a7.56,7.56,0,0,1-.91,15.07Z"/></g></svg>