<?xml version="1.0" encoding="UTF-8"?>
<svg xmlns="http://www.w3.org/2000/svg" viewBox="0 0 231.33 920.39">
  <defs>
    <style>
      .cls-1 {
        fill-rule: evenodd;
      }

      .cls-1, .cls-2 {
        fill: #ffb10a;
      }

      .cls-1, .cls-2, .cls-3, .cls-4 {
        stroke-width: 0px;
      }

      .cls-3 {
        fill: #fabf62;
      }

      .cls-4 {
        fill: #273773;
      }
    </style>
  </defs>
  <g id="hand_with_cash" data-name="hand with cash">
    <g>
      <g>
        <path class="cls-2" d="M188.13,446.74s13.32-16.07,13.32-16.23c0-.16-.48-6.95-.48-6.95l-8.05-.9c.84,1.15,1.35,2.56,1.35,4.09,0,1.88-.75,3.59-1.97,4.84,0,0-13.87,13.98-13.87,13.98-3.15,3.29-4.92,7.67-4.92,12.23l.29,1.59,14.32-12.65Z"/>
        <path class="cls-2" d="M207.27,371.24l-8.4-4.43-4.23,3.64c3.44.25,6.16,2.97,6.42,6.41.02.11,5.53,65.06,5.53,65.06-.08,2.87-1.05,5.64-2.78,7.93l-24.17,32.05c-1.75,2.33-4.48,3.7-7.39,3.7-8.8,0-17.24,3.5-23.46,9.72l-2.53,2.53h45.57l.34-15.3,21.42-30.6,1.5-17.06-7.83-63.63Z"/>
        <path class="cls-2" d="M30.36,423.56s-.48,6.79-.48,6.95c0,.16,13.32,16.23,13.32,16.23l14.32,12.65.29-1.59c0-4.56-1.76-8.94-4.92-12.23,0,0-13.86-13.97-13.87-13.98-1.21-1.25-1.97-2.96-1.97-4.84,0-1.53.51-2.94,1.35-4.09l-8.05.9Z"/>
        <path class="cls-2" d="M59.08,485.6c-2.91,0-5.65-1.37-7.39-3.7l-24.17-32.05c-1.73-2.29-2.7-5.06-2.78-7.93,0,0,5.51-64.94,5.53-65.06.25-3.44,2.98-6.16,6.42-6.41l-4.23-3.64-8.4,4.43-7.83,63.63,1.5,17.06,21.42,30.6.34,15.3h45.57l-2.53-2.53c-6.22-6.22-14.66-9.72-23.46-9.72Z"/>
      </g>
      <path class="cls-4" d="M74.43,344.16c-.12.43-.24.87-.35,1.3-.12.47-.23.96-.34,1.45-.28,1.22-.49,2.48-.63,3.75v.05c-.06.47-.11.95-.14,1.42-.02.17-.03.32-.05.49-.02.18-.02.37-.03.55-.02.14-.02.28-.02.41-.05.64-.06,1.27-.06,1.91v.14c0,1.01.05,2.02.14,3.01.06,1.01.17,2.02.32,3.03.2,1.36.47,2.69.81,4.01.17.66.37,1.32.57,1.97.2.66.41,1.3.64,1.94s.49,1.27.75,1.9c.02.03.03.06.03.09.8,1.84,1.7,3.63,2.74,5.34l.02.02c.72,1.18,1.48,2.31,2.33,3.41.41.55.84,1.09,1.29,1.61.44.54.9,1.06,1.38,1.56.47.52.95,1.01,1.45,1.5.03.03.08.08.11.11,1.77,1.77,2.74,3.99,2.74,6.27v12.9c0,6,4.9,10.89,10.89,10.89h30.24c6,0,10.89-4.9,10.89-10.89v-12.9c0-2.28.96-4.5,2.74-6.27.03-.03.08-.08.11-.11.47-.46.93-.93,1.41-1.42,1.91-2.07,3.61-4.3,5.05-6.67.7-1.13,1.35-2.31,1.91-3.5.02-.02.03-.03.03-.05,1.16-2.42,2.1-4.94,2.75-7.54.35-1.32.63-2.66.83-4.02.11-.69.2-1.38.26-2.07.14-1.39.21-2.8.21-4.22,0-11.4-4.64-21.71-12.12-29.2-.93-.93-1.91-1.82-2.94-2.66-3.17-2.62-6.73-4.77-10.6-6.37-.9-.37-1.84-.72-2.79-1.03-.43-.14-.84-.28-1.27-.4-1.09-.32-2.17-.6-3.29-.83h-.03c-.67-.14-1.36-.26-2.05-.37-2.05-.31-4.15-.47-6.29-.47-.4,0-.8.02-1.19.02-.15,0-.31.02-.46.02-.14,0-.28.02-.41.03-.66.03-1.33.08-1.99.15-.14,0-.26.02-.38.03-.46.05-.92.11-1.38.18-.52.08-1.06.15-1.56.26-.63.11-1.25.24-1.87.38-.96.23-1.91.49-2.85.78-12.88,3.93-23.08,14.03-27.18,26.84-.14.41-.26.84-.38,1.25ZM78.97,354.22c0-.31.02-.61.05-.92,0-.09.02-.17.02-.26.02-.14.02-.29.05-.43.02-.34.05-.66.09-.98.03-.34.08-.67.12-1.01.02-.2.05-.4.09-.58.03-.29.09-.58.15-.86.05-.34.12-.67.18-.99.12-.54.24-1.06.38-1.58.21-.78.44-1.56.7-2.33,3.52-10.22,11.74-18.44,21.93-22.02,1.13-.4,2.3-.73,3.47-1.01.46-.11.9-.2,1.36-.29.47-.09.96-.18,1.44-.24.35-.06.69-.11,1.04-.14.24-.03.49-.06.75-.08.31-.05.63-.06.95-.08.31-.03.61-.05.92-.06.49-.02.98-.03,1.47-.03,19.4,0,35.19,15.79,35.19,35.19,0,4.19-.73,8.28-2.14,12.09-.18.54-.4,1.07-.63,1.59-.21.54-.44,1.06-.7,1.58-.41.87-.87,1.71-1.38,2.54-.37.66-.78,1.3-1.21,1.93-.34.47-.67.95-1.03,1.42-.35.46-.72.92-1.1,1.38s-.78.89-1.18,1.33c-.4.43-.81.86-1.24,1.27-.14.14-.28.28-.4.41-.06.05-.11.09-.15.15-2.68,2.86-4.15,6.46-4.15,10.19v12.9c0,2.63-2.14,4.77-4.77,4.77h-30.24c-2.63,0-4.77-2.14-4.77-4.77v-12.9c0-3.73-1.47-7.33-4.15-10.19-.05-.06-.09-.11-.15-.15-.12-.14-.26-.28-.4-.41-.43-.41-.84-.84-1.24-1.27-.4-.44-.8-.87-1.18-1.33-1.5-1.79-2.82-3.73-3.93-5.77-.26-.52-.54-1.04-.8-1.56-.51-1.06-.95-2.13-1.35-3.21-.41-1.16-.78-2.34-1.07-3.53-.12-.49-.24-.99-.34-1.48-.11-.58-.21-1.16-.31-1.73-.17-1.13-.29-2.28-.35-3.43-.05-1.04-.06-2.08-.02-3.12Z"/>
      <path class="cls-2" d="M101.89,375.3h1.68s.03,0,.04,0h2.99v24.6c0,1.63,1.32,2.94,2.94,2.94s2.94-1.32,2.94-2.94v-24.6h3.3v24.6c0,1.63,1.32,2.94,2.94,2.94s2.94-1.32,2.94-2.94v-24.6h4.71s.05,0,.08,0c.08,0,.16,0,.24-.01,5.69-.15,10.27-4.84,10.27-10.57s-4.74-10.59-10.59-10.59-10.59,4.74-10.59,10.59v4.71h-3.31v-4.71c0-5.85-4.74-10.59-10.59-10.59s-10.59,4.74-10.59,10.59,4.74,10.59,10.59,10.59ZM126.38,360c2.6,0,4.71,2.11,4.71,4.71s-2.1,4.7-4.69,4.71c0,0-.01,0-.02,0h-4.71v-4.71c0-2.6,2.11-4.71,4.71-4.71ZM101.89,360c2.6,0,4.71,2.11,4.71,4.71v4.71h-2.99s-.03,0-.04,0h-1.68c-2.6,0-4.71-2.11-4.71-4.71s2.11-4.71,4.71-4.71Z"/>
      <path class="cls-4" d="M134.03,418.39h-39.78c-1.63,0-2.94,1.32-2.94,2.94s1.32,2.94,2.94,2.94h39.78c1.63,0,2.94-1.32,2.94-2.94s-1.32-2.94-2.94-2.94Z"/>
      <path class="cls-4" d="M130.97,427.57h-33.66c-1.63,0-2.94,1.32-2.94,2.94s1.32,2.94,2.94,2.94h33.66c1.63,0,2.94-1.32,2.94-2.94s-1.32-2.94-2.94-2.94Z"/>
      <path class="cls-4" d="M121.79,436.75h-15.3c-1.62,0-2.94,1.32-2.94,2.94v1.53c0,5.85,4.74,10.59,10.59,10.59s10.59-4.74,10.59-10.59v-1.53c0-1.62-1.32-2.94-2.94-2.94ZM114.13,445.93c-2.11,0-3.89-1.39-4.5-3.31h9c-.61,1.91-2.39,3.31-4.5,3.31Z"/>
      <path class="cls-4" d="M226.4,435.22c2.11,0,3.84-1.71,3.84-3.83s-1.73-3.84-3.84-3.84-3.83,1.73-3.83,3.84,1.71,3.83,3.83,3.83Z"/>
      <path class="cls-4" d="M112.6,307.03c1.69,0,3.06-1.37,3.06-3.06v-11.17c0-1.69-1.37-3.06-3.06-3.06s-3.06,1.37-3.06,3.06v11.17c0,1.69,1.37,3.06,3.06,3.06Z"/>
      <path class="cls-4" d="M77.47,318.98c.61.72,1.47,1.09,2.35,1.09.69,0,1.39-.23,1.97-.72,1.29-1.09,1.46-3.02.38-4.31l-7.18-8.56c-1.09-1.29-3.02-1.46-4.31-.38-1.29,1.09-1.46,3.02-.38,4.31l7.18,8.56Z"/>
      <path class="cls-4" d="M51.55,349.16l11,1.94c.18.03.36.05.53.05,1.46,0,2.75-1.05,3.01-2.53.29-1.66-.82-3.25-2.48-3.55l-11-1.94c-1.66-.29-3.25.82-3.55,2.48-.29,1.66.82,3.25,2.48,3.55Z"/>
      <path class="cls-4" d="M57.92,389.76c.57.98,1.6,1.53,2.65,1.53.52,0,1.05-.13,1.53-.41l9.67-5.58c1.46-.84,1.97-2.72,1.12-4.18-.85-1.46-2.72-1.97-4.18-1.12l-9.67,5.58c-1.46.84-1.97,2.72-1.12,4.18Z"/>
      <path class="cls-4" d="M158.03,382.64l9.67,5.58c.48.28,1.01.41,1.53.41,1.06,0,2.09-.55,2.65-1.53.84-1.46.34-3.34-1.12-4.18l-9.67-5.58c-1.46-.85-3.34-.34-4.18,1.12-.84,1.46-.34,3.34,1.12,4.18Z"/>
      <path class="cls-4" d="M164.65,348.13c.18,0,.35-.02.53-.05l11-1.94c1.66-.29,2.77-1.88,2.48-3.55-.29-1.67-1.87-2.78-3.55-2.48l-11,1.94c-1.66.29-2.77,1.88-2.48,3.55.26,1.49,1.55,2.53,3.01,2.53Z"/>
      <path class="cls-4" d="M146.11,318.11c.87,0,1.74-.37,2.35-1.09l7.18-8.56c1.09-1.29.92-3.22-.38-4.31-1.29-1.09-3.22-.92-4.31.38l-7.18,8.56c-1.09,1.3-.92,3.23.38,4.31.57.48,1.27.72,1.97.72Z"/>
      <path class="cls-4" d="M198.29,494.78h-4.01l-.15-.72c-1.1-4.93.02-10.07,3.03-14.11l17.96-23.93c3.03-4.05,4.39-9.04,3.84-14.08l-7.5-67.4c-.7-6.47-6.15-11.34-12.67-11.35-7.04,0-12.75,5.71-12.75,12.73v40.9l-20.06,20.15-.35.35s0,0,0,0l-10.72,10.77c-7.54,7.57-11.71,17.66-11.71,28.35v18.33h-6.12c-1.68,0-3.06,1.38-3.06,3.06v21.7c0,1.68,1.38,3.06,3.06,3.06s3.06-1.38,3.06-3.06v-18.64h55.09v18.38c.02,1.68,1.38,3.05,3.06,3.05s3.06-1.38,3.06-3.06v-21.42c0-1.68-1.38-3.06-3.06-3.06ZM149.33,476.45c0-9.07,3.52-17.61,9.93-24.04l10.71-10.76,1.69-1.7,15.4-15.4c1.26-1.26,2.94-1.95,4.73-1.95s3.47.69,4.73,1.95c2.61,2.61,2.61,6.85,0,9.46l-22.19,22.19c-1.2,1.19-1.2,3.13,0,4.33.6.6,1.38.9,2.16.9s1.57-.3,2.16-.9l22.19-22.19c4.99-4.99,4.99-13.12,0-18.12-2.32-2.32-5.4-3.63-8.68-3.72v-40.58c0-2.23,1.13-4.22,2.85-5.42,1.07-.77,2.37-1.19,3.78-1.19,3.38,0,6.21,2.54,6.59,5.91l7.48,67.42c.4,3.46-.55,6.92-2.65,9.72l-17.95,23.93c-3.98,5.31-5.52,12.01-4.25,18.5h-38.7v-18.33Z"/>
      <path class="cls-4" d="M186.13,507.11c-2.45-.67-4.99.64-5.88,2.97-.05.14-.09.28-.14.43-.63,2.3.47,4.67,2.52,5.69.28.14.57.24.87.34,1.21.34,2.45.18,3.49-.34,1.19-.6,2.14-1.68,2.52-3.08.29-1.04.21-2.1-.14-3.05-.54-1.41-1.7-2.54-3.26-2.97Z"/>
      <path class="cls-4" d="M231.13,440.59c-.19-1.68-1.7-2.89-3.38-2.7-1.68.19-2.89,1.7-2.7,3.38.73,6.58-1.06,13.12-5.01,18.4l-11.5,15.09c-1.02,1.34-.77,3.26.58,4.29.55.42,1.21.63,1.85.63.92,0,1.83-.42,2.44-1.21l11.52-15.11c4.91-6.54,7.11-14.63,6.21-22.76Z"/>
      <path class="cls-4" d="M14.29,465.31c-2.11,0-3.83,1.71-3.83,3.84s1.71,3.83,3.83,3.83,3.84-1.71,3.84-3.83-1.71-3.84-3.84-3.84Z"/>
      <path class="cls-4" d="M94.24,494.78h-6.12v-18.33c0-10.7-4.16-20.78-11.71-28.35l-10.73-10.77s0,0,0,0l-.19-.19-20.22-20.31v-40.9c0-7.02-5.71-12.73-12.75-12.73-6.52.02-11.97,4.88-12.67,11.35l-7.5,67.4c-.55,5.03.81,10.02,3.84,14.08l17.96,23.93c3.01,4.04,4.13,9.18,3.03,14.11l-.15.72h-4.01c-1.68,0-3.06,1.38-3.06,3.06v21.42c0,1.68,1.38,3.06,3.06,3.06s3.05-1.36,3.06-3.05v-18.38h55.09v18.64c0,1.68,1.38,3.06,3.06,3.06s3.06-1.38,3.06-3.06v-21.7c0-1.68-1.38-3.06-3.06-3.06ZM39.06,476.28l-17.96-23.93c-2.1-2.8-3.05-6.26-2.65-9.72l7.48-67.42c.38-3.37,3.21-5.91,6.61-5.91,1.41,0,2.71.43,3.76,1.19,1.71,1.19,2.85,3.18,2.85,5.42v40.58c-3.29.09-6.36,1.4-8.68,3.72s-3.74,5.63-3.74,9.06,1.33,6.65,3.74,9.06l22.19,22.19c.6.6,1.38.9,2.16.9s1.57-.3,2.16-.9c1.2-1.19,1.2-3.13,0-4.33l-22.19-22.19c-1.26-1.26-1.95-2.94-1.95-4.73s.69-3.48,1.95-4.73c1.26-1.26,2.94-1.95,4.73-1.95s3.47.69,4.73,1.95l15.54,15.54,1.55,1.56,10.71,10.76c6.41,6.43,9.93,14.97,9.93,24.04v18.33h-38.7c1.27-6.49-.26-13.19-4.24-18.5Z"/>
      <path class="cls-4" d="M51.08,510.08c-.89-2.33-3.43-3.64-5.88-2.97-1.56.43-2.72,1.56-3.26,2.97-.35.95-.43,2-.14,3.05.38,1.39,1.33,2.48,2.52,3.08,1.04.52,2.28.67,3.49.34.31-.09.6-.2.87-.34,2.05-1.03,3.15-3.4,2.52-5.69-.05-.15-.09-.29-.14-.43Z"/>
      <path class="cls-4" d="M11.31,459.68c-3.97-5.29-5.75-11.83-5.03-18.41l3.2-28.78c.19-1.68-1.02-3.19-2.7-3.38-1.67-.18-3.19,1.02-3.38,2.7l-3.2,28.78c-.9,8.13,1.3,16.21,6.21,22.76.6.8,1.52,1.22,2.45,1.22.64,0,1.28-.2,1.83-.61,1.35-1.01,1.63-2.93.61-4.28Z"/>
    </g>
    <g>
      <path class="cls-1" d="M180.52,831.14c-.83-4.84-2.34-10.86-5.22-17.39-4.75-10.8-11.16-18.34-15.8-22.95-.47.19-.83.42-1.14.67-1.86,1.59-5.9,3.48-5.9,3.48,0,0-1.59.81-2.39,0-.81-.81.86-5.9-2.14-6.2-3.03-.31-12.19-.31-16.72,2.81-4.51,3.12-7.73,7.54-7.12,8.26.58.7,1.31.89,1.31,2.31,0,1.06.72,2.92-.08,4.31-.5.33-1.28.95-2.17,1.45-.14.06-.28.14-.44.19l.03.03c-1.42.7-3.09.97-4.59-.56-.28-.31-.14-.97-.19-1.56v-.03c-.22-1.89-.45-4.4-.61-5.15-.19-1-1.31-3.62-2.31-3.12-1,.5-4.73,5.01-6.12,5.43-1.42.39-3.23.11-3.31,1.31-.11,1.2,1.7,4.51,3.62,4.23,1.89-.31,4.42-2.11,5.31-1.72.92.42,1.81,3.03,1.61,4.34-.19,1.31.42,2.31-2.31,2.92-2.73.58-4.62-1.31-5.65,0-1,1.31-2.92,4.51-2.62,5.62.25.86,2.75,1.47,4.26,1.86,2.98-.22,5.98-.75,7.43-1.75,2.31-1.61,6.34-3.12,7.43-3.12.42,0,2.42.14,4.73.19,1.45,1.67,3.12,2.95,5.34,3.31,2.06.36,3.37.17,4.17-.17.86-.39,1.84-.08,2.28.72.25.47.53.95.89,1.36,1.61,1.92,2.34.39,2.34.39,0,0-1.14-2.31.36-2.31s3.53,1,3.53,1.31,1.42,1.81,3.23,2.53c1.81.7,1.31,2.7,1.31,2.7,0,0-10.38,1.31-14.49.5s-5.43-2-7.73-4.42c-2.31-2.42-1.53-4.81-6.23-3.51-4.73,1.31-5.04,2.31-8.07,2.89-3,.61-2.84.95-5.45,1.73-.06.03-.11.03-.17.06-2.06.64-4.92,1.17-5.73,2.75-1,2-.7,2.31-2,4.42-1.31,2.11-4.45,3.84-4.53,4.84-.11,1-.7,9.85,0,14.08.7,4.23,2.7,4.53,4.81,7.23,2.11,2.73,3.03,3.23,5.73,3.12,2.73-.08,4.95-1.2,8.76-1.5,3.81-.31,6.43-1,7.85,1.11,1.42,2.11.39,4.81,2.11,6.73,1.7,1.92,4.31-.11,4.42,4.03.11,4.12-.81,9.74-.92,12.85-.08,3.12,3.73,8.46,4.53,11.07.81,2.62,1.42,3,4.73,3s5.54-.28,8.85-3.81c3.31-3.51,4.84-6.23,6.84-8.96,2-2.7,3.73-5.62,3.92-8.85.19-3.2-2.73-2.92,1.2-6.73,3.92-3.81,7.26-7.23,9.77-10.85,2.5-3.64,3.73-7.85,2.5-8.15-1.2-.31-9.85-.61-9.85-.61-.22,0-4.84-.06-5.54-4.73-2.42-15.89-.2-8.65-.2-12.58,4.03,2.92,3.81,4.92,5.12,8.26.87,2.19.72,4.13,1.87,5.27.65.64,1.59.94,3.08,1.04,1.77.13,11.03.78,13.87-5.59,2.14-4.82-1.06-9.92-1.39-10.43Z"/>
      <path class="cls-1" d="M96.51,912.33c-4.35-1.54-7.65-3.35-9.88-4.74-4.49-2.79-5.29-4.28-5.56-4.87-1.3-2.75.31-3.74-.43-8.23-.82-4.99-3.2-6.03-2.2-8.55.46-1.15,1.51-2.4,2.3-4.89.21-.65.35-1.41.02-2.02-.23-.43-.74-.64-1.58-1.25-1.59-1.14-.24-2.75-.48-5.49-.24-2.75,1.1-2.01.84-5.07-.27-3.06-.16-1.8-1.78-3.36-.87-.84-1.41-1.28-2-1.48-.99-.33-1.35.24-1.96-.09-.8-.43-.6-1.64-.98-3.47-.27-1.31-.7-3.44-2.06-4.45-1.28-.96-2.38-.19-5.03-.43-3.42-.31-3.58-1.77-6.35-2.2-4.66-.72-6.78,3.02-9.77,1.95-1.29-.46-2.87-1.87-3.85-6.22-1.95-2.38-4.66-7.03-3.12-9.21.86-1.21,2.14-.41,4.21-1.78,2.35-1.55,1.54-3.13,4.58-6.78,2.88-3.46,5.15-3.9,5.86-3.61.02,0,.06.02.11.02.51-.06.66-2.42.68-5.05.19-.42.51-.95.92-.97.54-.02.75.84,1.5,1.17.88.39,1.92-.21,2.38-.46,3.68-1.99,5.59-.88,9.19-3.51,1.41-1.03,4.54-3.27,5.13-6.84.36-2.16-.53-2.9,0-5.62.5-2.59,1.49-2.86,2.2-5.38.24-.85,1.22-4.35-.24-7.33-2.18-4.45-8.37-4.86-8.8-4.89-1.91-2.77-3.83-5.54-5.74-8.31-1.95.86-3.91,1.71-5.86,2.57-4.73,4.16-8.4,7.86-11,10.63-3.89,4.14-5.2,5.98-5.86,6.96-2.02,2.98-3.11,5.4-5.13,9.9-1.14,2.54-2.12,5.03-4.03,9.9-2.12,5.4-3.18,8.09-3.3,8.8-.15.88-.52,9.38,3.75,15.78h0s4.32,1.09,6.88,2.93c2.57,1.83,3.67,4.76,3.67,5.86,0,2.58-1.13,3.51-.73,6.96.2,1.78.6,1.67.73,3.29.24,2.91-.94,4.42-1.47,6.84-.51,2.36-.09,4.13.73,7.57,2.05,8.56,9.11,16.12,10.51,17.59,3.66,4.3,7.24,7.14,9.82,8.93,4.45,3.07,8.63,4.88,11.82,6.26,3.54,1.53,3.9,1.39,8.69,3.48,4.32,1.88,4.96,2.39,6.96,2.78,4.64.91,9.52-.25,9.62-1.41.04-.47-.67-1.16-3.91-2.2Z"/>
      <path class="cls-1" d="M145.54,728.98c0-23.89-17.81-39.78-39.78-39.78s-39.78,15.89-39.78,39.78,39.78,69.49,39.78,69.49c0,0,39.78-44.63,39.78-69.49ZM90.9,729.52c0-8.2,6.65-14.85,14.85-14.85s14.85,6.65,14.85,14.85-6.65,14.85-14.85,14.85-14.85-6.65-14.85-14.85Z"/>
      <path class="cls-4" d="M183.76,837.42c-1.02-17.37-7.64-33.48-19.16-46.59-6.81-7.83-15.03-14.13-24.12-18.65-1.36-.68-3.01-.18-3.84,1.09-.02.03-.03.05-.05.08-.99,1.51-.44,3.54,1.18,4.34,8.37,4.16,15.95,9.95,22.23,17.17,10.62,12.09,16.73,26.93,17.66,42.97.11,1.46.16,2.9.16,4.39,0,39.73-32.32,72.06-72.06,72.06s-72.06-32.32-72.06-72.06c0-1.88.08-3.75.24-5.61.6-8.05,2.52-15.81,5.71-23.09.02-.04.04-.09.06-.13.85-1.98,1.85-3.99,3.06-6.14.02-.04.05-.09.07-.13,4.81-8.6,11.18-15.98,18.83-21.87.62-.44,1.24-.9,1.86-1.35.59-.43,1.18-.87,1.75-1.27,2.72-1.86,5.54-3.51,8.46-4.96,1.61-.8,2.16-2.84,1.17-4.34-.01-.02-.02-.03-.03-.05-.83-1.27-2.48-1.76-3.84-1.09-3.18,1.58-6.27,3.38-9.24,5.41-.63.45-1.26.91-1.89,1.37-.58.43-1.17.86-1.86,1.35-8.44,6.49-15.37,14.53-20.59,23.89h0s-.04.08-.06.12c-1.28,2.28-2.35,4.43-3.27,6.56-.02.05-.05.1-.07.16-3.47,7.92-5.56,16.37-6.21,25.07-.17,2-.26,4.05-.26,6.11,0,43.11,35.07,78.18,78.18,78.18s78.18-35.07,78.18-78.18c0-1.65-.06-3.23-.17-4.8Z"/>
      <path class="cls-4" d="M105.75,801.54c.87,0,1.7-.37,2.28-1.02,1.66-1.86,40.56-45.8,40.56-71.53s-18.02-42.84-42.84-42.84-42.84,18.02-42.84,42.84,38.9,69.67,40.56,71.53c.58.65,1.41,1.02,2.28,1.02ZM105.75,692.26c21.28,0,36.72,15.45,36.72,36.72,0,20.06-28.37,54.97-36.73,64.81-8.35-9.83-36.72-44.72-36.72-64.81,0-21.28,15.45-36.72,36.72-36.72Z"/>
      <path class="cls-4" d="M123.67,729.51c0-9.88-8.04-17.91-17.91-17.91s-17.91,8.03-17.91,17.91,8.04,17.91,17.91,17.91,17.91-8.04,17.91-17.91ZM93.96,729.51c0-6.5,5.29-11.79,11.79-11.79s11.79,5.29,11.79,11.79-5.29,11.79-11.79,11.79-11.79-5.29-11.79-11.79Z"/>
      <path class="cls-4" d="M151.43,755.53c.41.18.83.27,1.24.27,1.17,0,2.29-.68,2.8-1.82,4.19-9.41,6.32-17.82,6.32-25,0-9.01-1.89-17.47-5.6-25.14-.74-1.52-2.57-2.15-4.09-1.42-1.52.74-2.16,2.57-1.42,4.09,3.31,6.84,4.99,14.4,4.99,22.47,0,6.32-1.95,13.89-5.79,22.51-.69,1.55,0,3.35,1.55,4.04Z"/>
      <path class="cls-4" d="M58.83,755.8c.42,0,.84-.09,1.24-.27,1.54-.69,2.24-2.5,1.55-4.04-3.84-8.61-5.79-16.19-5.79-22.51,0-8.07,1.68-15.64,4.99-22.47.74-1.52.1-3.35-1.42-4.09-1.52-.74-3.35-.1-4.09,1.42-3.72,7.68-5.6,16.14-5.6,25.14,0,7.18,2.12,15.59,6.32,25,.51,1.14,1.63,1.82,2.8,1.82Z"/>
      <path class="cls-4" d="M43.86,763.32c.42,0,.85-.09,1.26-.27,1.54-.69,2.23-2.51,1.53-4.05-5-11.1-7.54-21.2-7.54-30.02,0-10.75,2.24-20.86,6.67-30.04.73-1.52.09-3.35-1.43-4.09-1.52-.73-3.35-.1-4.09,1.43-4.83,10.01-7.27,21.01-7.27,32.69,0,9.7,2.72,20.65,8.08,32.54.51,1.13,1.62,1.81,2.79,1.81Z"/>
      <path class="cls-4" d="M166.4,763.05c.41.18.83.27,1.25.27,1.17,0,2.29-.67,2.79-1.81,5.36-11.96,8.07-22.91,8.07-32.53,0-11.68-2.45-22.68-7.27-32.69-.74-1.52-2.56-2.16-4.09-1.43-1.52.73-2.16,2.56-1.43,4.09,4.42,9.18,6.67,19.29,6.67,30.04,0,8.76-2.54,18.86-7.54,30.03-.69,1.54,0,3.35,1.54,4.04Z"/>
      <path class="cls-4" d="M31.29,890.43c-10.92-16.8-15.73-36.24-13.93-56.21.2-2.21.51-4.57.93-7.01,1.6-9.59,4.77-18.78,9.41-27.28l.42-.76c1.16-2.14,2.5-4.31,4.09-6.64.06-.08.11-.16.16-.24.01-.02.03-.04.04-.06,2.61-3.84,5.55-7.5,8.73-10.87,1.16-1.23,1.1-3.17-.13-4.33s-3.17-1.1-4.33.13c-3.39,3.6-6.52,7.49-9.3,11.57-.06.08-.11.16-.17.24,0,.01-.02.03-.03.04-1.73,2.52-3.19,4.89-4.44,7.2l-.41.74c-4.98,9.14-8.38,18.98-10.09,29.23-.44,2.58-.78,5.1-.99,7.47-1.93,21.34,3.22,42.12,14.89,60.09.59.9,1.57,1.39,2.57,1.39.57,0,1.15-.16,1.66-.49,1.42-.92,1.82-2.82.9-4.23Z"/>
      <path class="cls-4" d="M185.69,791.21c-.92-1.42-2.81-1.83-4.23-.92-1.42.92-1.83,2.81-.92,4.23,9.66,14.99,14.46,32.37,13.89,50.3-.05,1.88-.15,3.69-.3,5.38-1.72,18.98-9.31,36.54-21.95,50.77-1.12,1.26-1.01,3.2.26,4.32.58.52,1.31.77,2.03.77.84,0,1.69-.35,2.29-1.03,13.52-15.22,21.63-33.99,23.47-54.29.16-1.83.27-3.77.32-5.76.61-19.15-4.53-37.75-14.86-53.78Z"/>
      <path class="cls-4" d="M175.07,785.83c0,1.75,1.42,3.17,3.17,3.17s3.16-1.42,3.16-3.17-1.42-3.16-3.16-3.16-3.17,1.42-3.17,3.16Z"/>
      <path class="cls-4" d="M34.27,896.35c-1.75,0-3.17,1.42-3.17,3.16s1.42,3.16,3.17,3.16,3.16-1.42,3.16-3.16-1.42-3.16-3.16-3.16Z"/>
    </g>
  </g>
  <g id="hand_with_coins" data-name="hand with coins">
    <g>
      <path class="cls-2" d="M182.37,170.51c-3.27,1.9-8.08,3.86-13.68,7.47-13.34,8.63-29.41,19.92-32.29,21.06-4.87,1.9-10.44,3.18-31.86-1.68-20.2-4.56-35.99-8.51-44.41-8.17-6.95.28-26.78,2.97-26.78,2.97l-8.81-41.83c-.83.34-1.62.61-2.42.86l11.23,53.31s19.83-2.69,26.78-2.97c8.42-.34,24.21,3.61,44.41,8.17,21.42,4.87,26.99,3.58,31.86,1.68,2.88-1.13,18.94-12.42,32.29-21.06,9.3-6,16.46-7.44,17.93-11.54,1.32-3.76-1.07-6.76-4.25-8.26Z"/>
      <path class="cls-2" d="M93.44,169.9l26.29,11.9c.95.43,1.93.61,2.91.61,2.02,0,4.01-.86,5.39-2.39t.03-.03c.46-.52.83-1.13,1.13-1.78.37-.8.55-1.59.61-2.39.37-.28.73-.61,1.04-.98.61-.67,1.16-1.44,1.59-2.26.98-1.87,1.38-3.89,1.25-5.85-.09-1.96-.73-3.89-1.87-5.54.24-.31.43-.61.61-.95.06-.09.09-.21.12-.31l-1.25-.58-1.93-.86c.77.55,1.44,1.22,1.99,1.99-.03.58-.12,1.16-.31,1.74-.09.31-.18.61-.34.92-1.19,2.63-3.83,4.22-6.55,4.22-.98,0-1.96-.21-2.91-.64l-2.36-1.07-18.39-8.29v.06l-1.19-.55c-.95-.43-1.93-.64-2.91-.64-2.72,0-5.36,1.59-6.55,4.22-1.59,3.58,0,7.8,3.58,9.43Z"/>
      <path class="cls-2" d="M125.84,66.49c14.23-4.96,21.7-20.53,16.74-34.77-4.99-14.23-20.54-21.7-34.77-16.74-14.23,4.99-21.73,20.57-16.74,34.77,4.96,14.23,20.53,21.73,34.77,16.74ZM108.09,25.03l-.15-.43c-.58-1.59.28-3.34,1.87-3.92,1.59-.55,3.34.31,3.89,1.9l.31.83c3.43-.09,6.09,1.32,7.25,2.05,1.44.89,1.9,2.75.98,4.19-.89,1.44-2.75,1.9-4.19.98-.64-.37-2.88-1.59-5.42-.89-2.05.55-4.22,2.26-4.32,4.1-.06,1.07.52,2.6,1.74,3.46,1.26.86,2.79.58,5.36.03,3-.64,6.7-1.41,10.47.8,3.24,1.96,5.39,5.45,5.45,8.97.06,4.16-2.72,7.38-5.75,9.33l.31.89c.55,1.59-.31,3.34-1.9,3.89-.34.12-.67.18-1.01.18-1.25,0-2.45-.8-2.88-2.05l-.24-.73c-.7.15-1.41.18-2.08.18-3.55,0-6.4-1.29-7.41-1.84-1.5-.8-2.08-2.66-1.29-4.16.8-1.47,2.66-2.05,4.13-1.25.67.37,4.13,2.02,7.59.52,1.81-.77,4.44-2.69,4.41-4.87-.03-1.35-1.04-2.94-2.45-3.79-1.62-.95-3.37-.64-6.09-.06-2.94.61-6.58,1.38-10.07-.98-2.85-1.99-4.59-5.45-4.41-8.84.24-3.86,2.88-6.79,5.91-8.48Z"/>
      <path class="cls-2" d="M117.78,6.16c8.75-.43,17.15,2.56,23.65,8.45,6.52,5.89,10.34,13.94,10.78,22.69.08,1.64,1.43,2.91,3.05,2.91.05,0,.1,0,.16,0,1.69-.08,2.99-1.52,2.91-3.21-.52-10.37-5.07-19.94-12.79-26.92C137.81,3.08,127.83-.48,117.47.05c-1.69.09-2.99,1.52-2.9,3.21.09,1.69,1.55,3.02,3.21,2.9Z"/>
      <path class="cls-2" d="M157.15,43.88l-.55-.28c-1.65-.83-3.79-.09-4.62,1.56l-.28.55c-.86,1.71-.15,3.76,1.56,4.62l.55.28c.46.24.98.37,1.53.37,1.32,0,2.51-.73,3.09-1.9l.28-.55c.83-1.71.15-3.79-1.56-4.65Z"/>
      <path class="cls-2" d="M34.19,84.33c-3.58,13.99,4.8,28.22,18.79,31.83,13.96,3.61,28.22-4.77,31.83-18.76,3.58-13.96-4.8-28.22-18.79-31.83-13.96-3.61-28.22,4.8-31.83,18.76ZM60.81,73.56l.09-.31c.4-1.65,2.08-2.63,3.7-2.2,1.65.43,2.63,2.08,2.2,3.73l-.18.7c2.72,1.78,4.13,4.32,4.65,5.51.7,1.53.03,3.37-1.5,4.04-1.56.7-3.37.03-4.07-1.53-.28-.61-1.41-2.75-3.73-3.52-1.84-.61-4.47-.43-5.48.95-.61.8-.92,2.26-.43,3.55.52,1.29,1.87,1.87,4.16,2.78,2.75,1.1,6.15,2.45,7.96,6.27,1.59,3.34,1.44,7.31-.43,10.16-2.11,3.31-5.97,4.44-9.4,4.44h-.15l-5.97-1.38c-3.92-1.84-6-5.23-6.64-6.4-.8-1.5-.24-3.34,1.25-4.13,1.5-.83,3.34-.24,4.13,1.22.34.64,2.17,3.76,5.69,4.41,1.71.31,4.87.18,5.94-1.5.7-1.04.7-2.82.06-4.19-.77-1.56-2.3-2.23-4.71-3.21-2.69-1.1-6.06-2.42-7.56-6.21-1.25-3.12-.8-6.86,1.19-9.49,2.23-2.97,5.91-3.92,9.21-3.7Z"/>
      <path class="cls-2" d="M24.11,99.38c.22,0,.44-.02.66-.07,1.65-.36,2.7-1.99,2.33-3.65-3.71-16.86,6.99-33.59,23.85-37.3,1.65-.36,2.7-2,2.33-3.65-.36-1.65-2.01-2.7-3.65-2.33-9.75,2.14-18.08,7.97-23.48,16.4-5.39,8.43-7.18,18.44-5.03,28.19.31,1.43,1.58,2.4,2.99,2.4Z"/>
      <path class="cls-2" d="M58.95,57.25l.8.24c.28.09.61.15.92.15,1.41,0,2.66-.95,3.09-2.3l.21-.8c.28-.8.18-1.68-.21-2.45-.4-.73-1.1-1.32-1.9-1.56l-.8-.24c-1.65-.49-3.52.49-4.01,2.14l-.24.8c-.52,1.68.43,3.49,2.14,4.01Z"/>
      <path class="cls-2" d="M146.65,89.66c-14.11-3-27.97,6-30.97,20.11-3.03,14.11,5.97,28,20.11,31,14.11,3,27.97-6,30.97-20.11,3.03-14.11-6-27.97-20.11-31ZM161.25,119.5c-.31,1.44-1.59,2.42-3,2.42-.21,0-.43-.03-.64-.06l-.73-.15c-1.65,2.78-4.1,4.28-5.29,4.87-.43.24-.89.34-1.38.34-1.1,0-2.17-.61-2.72-1.68-.77-1.5-.15-3.34,1.35-4.1.61-.31,2.72-1.53,3.37-3.89.52-1.87.25-4.47-1.16-5.45-.83-.55-2.3-.83-3.55-.24-1.29.55-1.81,1.93-2.63,4.25-.98,2.79-2.2,6.24-5.94,8.23-3.24,1.71-7.22,1.74-10.16,0-3.46-2.02-4.71-5.88-4.81-9.36l-.8-.15c-1.65-.37-2.69-1.99-2.36-3.64.34-1.65,1.99-2.72,3.64-2.36l.58.12c1.71-3.98,4.99-6.21,6.12-6.89,1.44-.86,3.34-.4,4.19,1.07.86,1.44.4,3.34-1.07,4.19-.61.37-3.64,2.33-4.13,5.85-.25,1.74,0,4.9,1.74,5.91,1.07.64,2.82.58,4.16-.15,1.56-.83,2.17-2.36,3.03-4.84.98-2.75,2.17-6.15,5.88-7.83,3.09-1.38,6.82-1.07,9.55.8,3.06,2.11,4.19,5.72,4.04,9.03l.37.09c1.65.34,2.69,1.99,2.36,3.64Z"/>
      <path class="cls-2" d="M148.16,79.97c-.35,1.65.71,3.28,2.36,3.63,16.88,3.6,27.69,20.26,24.09,37.14-.35,1.65.71,3.28,2.36,3.63.22.05.43.07.64.07,1.41,0,2.68-.98,2.99-2.42,2.08-9.76.22-19.76-5.22-28.16-5.45-8.39-13.82-14.16-23.59-16.24-1.65-.36-3.28.7-3.63,2.36Z"/>
      <path class="cls-3" d="M176.86,128.19c-1.29-1.13-3.43-.98-4.56.28l-.52.61c-.58.64-.86,1.47-.8,2.36.03.86.43,1.62,1.07,2.2l.61.55c.58.49,1.35.8,2.14.8.92,0,1.81-.4,2.39-1.1l.55-.61c1.19-1.35,1.04-3.37-.28-4.53l-.61-.55Z"/>
      <path class="cls-4" d="M189.19,172.94c-1.23-2.58-3.76-4.69-6.93-5.79-3.62-1.26-7.45-1.89-11.39-1.89-9.29,0-18.14,3.52-25.95,6.62-3.78,1.5-7.45,2.96-10.91,3.93.41-.56.79-1.16,1.12-1.79,3.67-6.99.97-15.67-6.03-19.34-4.19-2.2-9.05-4.84-14.07-7.58-20.03-10.9-32.53-17.54-37.29-17.79-6.32-.34-11.52.07-19.91,1.8-3.19.66-8.26,3.38-14.67,6.83-5.97,3.21-12.61,6.77-18.56,9.09l-.51-2.45c-.35-1.66-1.98-2.72-3.62-2.37l-16.8,3.48c-1.66.34-2.72,1.96-2.38,3.62.34,1.65,1.96,2.71,3.62,2.37l13.8-2.86.38,1.82c-.07.38-.07.77.02,1.16l11.23,53.3c.02.07.06.13.08.2l3.2,15.43-29.96,6.21c-1.66.34-2.72,1.96-2.38,3.62.3,1.44,1.58,2.44,2.99,2.44.21,0,.42-.02.62-.06l32.96-6.83c1.66-.34,2.72-1.96,2.38-3.62l-3.2-15.41c5.91-.77,18.17-2.29,23.19-2.5,6.91-.29,19.69,2.64,36,6.37l7.63,1.74c10.39,2.35,17.77,3.44,23.22,3.44h0c5.11,0,8.06-.99,10.42-1.92,1.98-.78,7.22-4.27,17.09-10.88,5.04-3.38,10.6-7.11,15.74-10.43,3.47-2.24,6.6-3.81,9.35-5.19,4.73-2.37,8.47-4.24,9.78-7.91.83-2.33.73-4.7-.3-6.85ZM183.73,177.73c-.48,1.35-3.39,2.81-6.76,4.5-2.76,1.38-6.19,3.1-9.94,5.52-5.18,3.35-10.76,7.09-15.83,10.49-6.78,4.55-14.47,9.7-15.92,10.27-2,.79-4.14,1.49-8.18,1.49h0c-4.91,0-12.07-1.08-21.87-3.29l-7.61-1.73c-15.97-3.65-28.59-6.54-36.43-6.54-.41,0-.81,0-1.19.02-5.45.22-18.39,1.85-24.19,2.6l-9.94-47.96c6.57-2.45,13.76-6.31,20.2-9.77,5.5-2.95,10.69-5.74,13.01-6.22,7.85-1.62,12.59-2,18.34-1.69,3.73.2,22.36,10.34,34.69,17.05,5.05,2.75,9.94,5.41,14.15,7.62,4,2.1,5.55,7.07,3.45,11.07-1.42,2.7-4.21,4.38-7.3,4.38-1.33,0-2.6-.31-3.78-.93-.04-.02-.08-.02-.11-.03-.04-.02-.09-.05-.13-.06-5.5-2.94-13.52-6.46-24.52-10.77-1.58-.62-3.35.16-3.97,1.73-.62,1.58.16,3.35,1.74,3.96,10.78,4.21,18.59,7.64,23.97,10.52.29.15.67.35,1.09.57,2.63,1.48,5.46,2.29,8.57,2.48.08,0,.16.02.24.03.15.01.3,0,.45.02.23,0,.44.04.67.04.07,0,.14,0,.21-.01.13,0,.26.01.39.01.29,0,.59-.07.89-.08.58-.03,1.17-.08,1.75-.15.7-.08,1.39-.17,2.08-.31,4.92-.92,9.96-2.91,15.22-5,7.66-3.04,15.57-6.19,23.69-6.19,3.29,0,6.36.51,9.38,1.56,1.59.55,2.9,1.57,3.42,2.65.32.67.34,1.35.06,2.14Z"/>
      <path class="cls-4" d="M186.62,196.98c-1.87-.34-3.66.95-3.99,2.8-.33,1.87.93,3.66,2.8,3.99.2.04.4.05.59.05,1.68,0,3.11-1.2,3.4-2.85.16-.9-.04-1.82-.57-2.57-.53-.76-1.32-1.26-2.23-1.42Z"/>
      <path class="cls-4" d="M22.12,213.07c0-3.24-2.63-5.87-5.87-5.87s-5.87,2.63-5.87,5.87,2.63,5.87,5.87,5.87,5.87-2.63,5.87-5.87Z"/>
      <path class="cls-4" d="M177,203.17c-5.09,3.29-10.59,6.97-15.57,10.32-12.87,8.63-16.46,10.95-19.45,12.12-3.48,1.36-7.96,2.76-14.89,2.76-6.38,0-14.61-1.19-25.92-3.75-1.65-.37-3.29.66-3.66,2.31-.37,1.65.66,3.29,2.31,3.66,11.76,2.66,20.43,3.9,27.27,3.9,7.94,0,13.11-1.61,17.12-3.18,3.59-1.4,6.88-3.51,20.62-12.73,4.96-3.33,10.42-6.99,15.49-10.26,1.42-.92,1.83-2.81.91-4.23-.92-1.42-2.81-1.83-4.23-.91Z"/>
    </g>
  </g>
</svg>