<?xml version="1.0" encoding="UTF-8"?>
<svg id="icons" xmlns="http://www.w3.org/2000/svg" viewBox="0 0 264.31 851.2">
  <defs>
    <style>
      .cls-1 {
        fill: #ffb10a;
      }

      .cls-1, .cls-2 {
        stroke-width: 0px;
      }

      .cls-2 {
        fill: #fff;
      }
    </style>
  </defs>
  <g>
    <path class="cls-1" d="M151.55,174.22s-13.4,10.35,0,36.55c-34.99-9.45-37.29-36.48-37.29-36.48-1.2,0-67.77,0-66.56,0-5.46,0-9.88-4.42-9.88-9.88v-87.19c0-5.46,4.42-9.88,9.88-9.88h133.8c5.46,0,9.88,4.42,9.88,9.88v87.19c0,5.46-4.42,9.88-9.88,9.88-31.92,0-28.79.04-29.94-.07Z"/>
    <path class="cls-2" d="M243.88,123.64c0,4.43,6.7,4.43,6.7,0s-6.7-4.43-6.7,0Z"/>
    <path class="cls-2" d="M137.75,31.86c0,4.43,6.7,4.43,6.7,0s-6.7-4.43-6.7,0Z"/>
    <g>
      <path class="cls-2" d="M233.46,167.14c-4.35,0-7.91,3.56-7.91,7.91v11.87h15.82v-11.87c0-4.33-3.53-7.91-7.91-7.91Z"/>
      <path class="cls-2" d="M239.56,235.71h-12.19c-13.64,0-24.75-11.1-24.75-24.75v-43.84c0-13.64,11.1-24.75,24.75-24.75h12.19c13.64,0,24.75,11.1,24.75,24.75v43.84c0,13.64-11.1,24.75-24.75,24.75ZM227.37,148.69c-10.17,0-18.44,8.27-18.44,18.44v43.84c0,10.17,8.27,18.44,18.44,18.44h12.19c10.17,0,18.44-8.27,18.44-18.44v-43.84c0-10.17-8.27-18.44-18.44-18.44h-12.19Z"/>
      <path class="cls-2" d="M261.15,192.2h-55.38c-4.17,0-4.17-6.31,0-6.31h55.38c4.17,0,4.17,6.31,0,6.31Z"/>
      <path class="cls-2" d="M238.22,185.09c0-12.69.41-13.45-1.38-15.18-2.98-3.06-8.14-.91-8.14,3.32v11.87c0,4.17-6.31,4.17-6.31,0v-11.87c0-9.95,12.13-14.73,18.9-7.78,4.05,3.93,3.23,7.58,3.23,19.64,0,4.17-6.31,4.17-6.31,0Z"/>
    </g>
    <path class="cls-2" d="M144.75,226.87c-1.58-.47-3.15-.98-4.66-1.52-3.92-1.4-1.81-7.34,2.12-5.94,1.4.5,2.86.98,4.33,1.42,4,1.19,2.2,7.23-1.8,6.05ZM125.3,218.26c-1.42-.88-2.8-1.82-4.11-2.78-3.36-2.46.35-7.56,3.73-5.09,1.19.87,2.44,1.72,3.72,2.52,3.55,2.21.19,7.55-3.34,5.35ZM109.22,204.05c-1.03-1.29-2.02-2.65-2.95-4.03-2.32-3.46,2.91-6.98,5.24-3.51.83,1.24,1.72,2.45,2.64,3.6,2.6,3.26-2.32,7.2-4.93,3.94ZM98.98,191.65h-4.73c-4.17,0-4.17-6.31,0-6.31h4.73c4.17,0,4.17,6.31,0,6.31ZM78.48,191.65h-4.73c-4.17,0-4.17-6.31,0-6.31h4.73c4.17,0,4.17,6.31,0,6.31ZM57.97,191.65h-4.73c-4.17,0-4.17-6.31,0-6.31h4.73c4.17,0,4.17,6.31,0,6.31ZM36.48,189.23c-1.62-.73-3.18-1.64-4.63-2.68-3.38-2.43.29-7.56,3.68-5.12,1.11.8,2.3,1.49,3.55,2.05,3.8,1.72,1.18,7.47-2.6,5.74ZM21.64,172.33c-1.16-3.82-2.04-8.31,1.79-8.69,1.77-.19,3.28,1.1,3.45,2.83.13,1.36.4,2.71.8,4.02,1.21,3.98-4.82,5.83-6.03,1.84ZM20.46,151.02v-4.73c0-4.17,6.31-4.17,6.31,0v4.73c0,4.17-6.31,4.17-6.31,0ZM20.46,130.52v-4.73c0-4.17,6.31-4.17,6.31,0v4.73c0,4.17-6.31,4.17-6.31,0ZM20.46,110.02v-4.73c0-4.17,6.31-4.17,6.31,0v4.73c0,4.17-6.31,4.17-6.31,0ZM20.46,89.52v-4.73c0-4.17,6.31-4.17,6.31,0v4.73c0,4.17-6.31,4.17-6.31,0ZM23.95,72.14c-3.63-1.29-1.71-5.39.37-8.86,2.15-3.59,7.55-.33,5.41,3.24-.71,1.18-1.29,2.43-1.75,3.71-.58,1.64-2.38,2.5-4.03,1.91ZM35.88,56.02c-1.43-3.58,2.91-4.85,6.9-5.57,4.1-.75,5.24,5.45,1.14,6.2-1.35.25-2.67.63-3.94,1.13-1.6.64-3.45-.13-4.1-1.76ZM63.82,56.31h-4.73c-4.17,0-4.17-6.31,0-6.31h4.73c4.17,0,4.17,6.31,0,6.31Z"/>
    <path class="cls-2" d="M150.72,213.85c-30.22-8.17-37.48-28.69-39.16-36.36h-63.87c-7.21,0-13.07-5.86-13.07-13.07v-87.19c0-7.21,5.86-13.07,13.07-13.07h133.8c7.21,0,13.07,5.86,13.07,13.07v87.19c0,7.21-5.86,13.07-13.07,13.07h-28.74c-2.34,2.61-8.47,12.07,1.64,31.83.57,1.12.43,2.48-.36,3.46-.78.96-2.06,1.4-3.31,1.07ZM47.69,70.54c-3.69,0-6.69,3-6.69,6.69v87.19c0,3.69,3,6.69,6.69,6.69h66.56c1.66,0,3.04,1.27,3.18,2.92.09.93,2.32,21.53,28.26,31.5-8.55-22.06,2.13-34.89,6.18-34.47.91.09,28.71.06,29.62.06,3.69,0,6.69-3,6.69-6.69v-87.19c0-3.69-3-6.69-6.69-6.69H47.69Z"/>
    <path class="cls-2" d="M162.84,136.35c3.58-5.22,2.85-10.93,2.85-23.04,0-10.79-6.78-17.07-16.97-17.07s-16.83,6.17-16.83,17.07c0,13.28-.97,19.74,4.59,25.21,5.62,5.51,15.11,5.45,20.69,2.72l5.51,6.06,5.8-4.62-5.64-6.33ZM148.75,136.11c-9.94,0-7.9-11.42-7.9-22.89,0-5.82,2.03-10.03,7.87-10.03s8,4.25,8,10.03c0,11.77,1.91,22.89-7.97,22.89ZM107.52,96.89l-13.16,45.47h9.37l2.61-9.84h11.61l2.63,9.84h9.41l-13.16-45.47h-9.3ZM108.18,125.58l3.86-14.43h.19l3.86,14.43h-7.9ZM77.65,116.47h14.72v6.86h-14.72v19.03h-8.98v-45.47h26.51v6.89h-17.53v12.69Z"/>
    <path class="cls-2" d="M69.37,38.01C69.37.04,119.32-14.47,139.63,17.81c2.25,3.58-3.16,6.95-5.4,3.4-16.89-26.84-58.48-14.84-58.48,16.81,0,4.21-6.38,4.22-6.38,0Z"/>
    <path class="cls-2" d="M83.56,64.19v-26.18c0-13.15,10.7-23.85,23.85-23.85s23.85,10.7,23.85,23.85v13.56c0,4.21-6.38,4.22-6.38,0v-13.56c0-9.63-7.84-17.47-17.47-17.47s-17.47,7.84-17.47,17.47v26.18c0,4.21-6.38,4.22-6.38,0Z"/>
    <path class="cls-2" d="M232.98,94.22c-8.81-9.37-19.44-11.83-31.81-11.83-4.21,0-4.22-6.38,0-6.38h3.45c20.92,0,38.32,13.3,43.64,32.77.47,1.7-.54,3.45-2.23,3.92-5.61,1.53-2.37-7.13-13.04-18.48Z"/>
    <path class="cls-2" d="M229.27,165.44v-44.79c0-13.46-10.95-24.41-24.41-24.41h-11.67c-4.21,0-4.22-6.38,0-6.38h11.67c16.98,0,30.79,13.81,30.79,30.79v44.79c0,4.21-6.38,4.22-6.38,0Z"/>
  </g>
  <g>
    <path class="cls-1" d="M132.25,503.53v12.73c0,4.08-3.34,7.44-7.43,7.44s-7.44-3.36-7.44-7.44v-12.73h14.87Z"/>
    <path class="cls-2" d="M225.31,342.68H24.58c-3.79,0-6.87,3.08-6.87,6.87v147.11c0,3.79,3.08,6.87,6.87,6.87h70.91v17c0,5.16-1.42,10.16-4.08,14.54h-16.93c-1.74,0-3.15,1.41-3.15,3.15v12.62c0,1.74,1.41,3.15,3.15,3.15h100.93c1.74,0,3.15-1.41,3.15-3.15v-12.62c0-1.74-1.41-3.15-3.15-3.15h-17.19c-2.66-4.38-4.08-9.38-4.08-14.54v-17h70.71c4.04,0,7.34-3.29,7.34-7.34v-146.65c0-3.79-3.08-6.87-6.87-6.87ZM172.26,541.38v6.31h-94.62v-6.31h94.62ZM120.54,503.53h8.56v12.73c0,2.36-1.92,4.28-4.28,4.28s-4.28-1.92-4.28-4.28v-12.73ZM124.82,526.84c5.84,0,10.59-4.75,10.59-10.59v-12.73h12.43v17c0,5.07,1.11,10.01,3.23,14.54h-52.48c2.12-4.53,3.22-9.47,3.22-14.54v-17h12.43v12.73c0,5.84,4.75,10.59,10.59,10.59ZM225.87,496.19c0,.57-.46,1.03-1.03,1.03H24.58c-.31,0-.56-.25-.56-.56v-147.11c0-.31.25-.56.56-.56h200.73c.31,0,.56.25.56.56v146.65Z"/>
    <path class="cls-2" d="M216.41,355.46H33.48c-1.74,0-3.15,1.41-3.15,3.15v129.14c0,1.74,1.41,3.15,3.15,3.15h182.93c1.74,0,3.15-1.41,3.15-3.15v-129.14c0-1.74-1.41-3.15-3.15-3.15ZM213.26,484.6H36.64v-122.84h176.62v122.84Z"/>
    <g>
      <path class="cls-1" d="M52.41,459.37h31.54c1.74,0,3.15-1.41,3.15-3.15s-1.41-3.15-3.15-3.15h-31.54c-1.74,0-3.15,1.41-3.15,3.15s1.41,3.15,3.15,3.15Z"/>
      <path class="cls-1" d="M52.41,471.99h18.92c1.74,0,3.15-1.41,3.15-3.15s-1.41-3.15-3.15-3.15h-18.92c-1.74,0-3.15,1.41-3.15,3.15s1.41,3.15,3.15,3.15Z"/>
      <path class="cls-1" d="M106.02,465.68h-25.23c-1.74,0-3.15,1.41-3.15,3.15s1.41,3.15,3.15,3.15h25.23c1.74,0,3.15-1.41,3.15-3.15s-1.41-3.15-3.15-3.15Z"/>
    </g>
    <path class="cls-2" d="M158.05,479.87c9.63,0,19.01-2.64,27.1-7.62,7.05-4.29,13.04-10.28,17.31-17.31,4.99-8.11,7.63-17.49,7.63-27.12,0-28.7-23.35-52.04-52.04-52.04s-52.04,23.35-52.04,52.04,23.35,52.04,52.04,52.04ZM158.05,385.25c23.48,0,42.58,19.1,42.58,42.58,0,7.88-2.15,15.54-6.24,22.18-3.51,5.76-8.4,10.66-14.18,14.17-6.62,4.07-14.28,6.22-22.16,6.22-23.48,0-42.58-19.1-42.58-42.58s19.1-42.58,42.58-42.58Z"/>
    <path class="cls-1" d="M100.69,402.6c-.06-14.43-11.77-26.11-26.21-26.11v26.11h26.21Z"/>
    <path class="cls-2" d="M71.33,377.37c-15.68,0-28.39,12.71-28.39,28.39s12.71,28.39,28.39,28.39,28.39-12.71,28.39-28.39h-28.39v-28.39Z"/>
    <path class="cls-1" d="M182.19,469.94l43.46,43.46c3.65,3.65,9.61,3.65,13.26,0,3.65-3.65,3.65-9.61,0-13.26l-43.46-43.46c-3.3,5.42-7.84,9.96-13.26,13.26Z"/>
    <g>
      <rect class="cls-1" x="169.1" y="418.37" width="15.77" height="25.23" transform="translate(353.98 861.97) rotate(180)"/>
      <rect class="cls-1" x="150.18" y="405.75" width="15.77" height="37.85" transform="translate(316.13 849.36) rotate(180)"/>
      <rect class="cls-1" x="131.26" y="424.68" width="15.77" height="18.92" transform="translate(278.28 868.28) rotate(180)"/>
    </g>
    <path class="cls-2" d="M232.28,519.3c-3.35,0-6.5-1.3-8.86-3.66l-43.47-43.46c-.68-.68-1.02-1.64-.9-2.61.11-.96.67-1.82,1.49-2.32,4.96-3.02,9.18-7.24,12.2-12.2.5-.83,1.36-1.38,2.32-1.49.97-.11,1.92.22,2.61.9l43.46,43.46c2.36,2.36,3.66,5.5,3.66,8.86s-1.3,6.5-3.66,8.86c-2.36,2.36-5.5,3.66-8.86,3.66ZM187.12,470.42l40.76,40.76c1.17,1.17,2.73,1.81,4.4,1.81s3.23-.64,4.4-1.81c1.17-1.17,1.81-2.73,1.81-4.4s-.64-3.23-1.81-4.4l-40.76-40.76c-2.49,3.34-5.46,6.31-8.8,8.8Z"/>
  </g>
  <g>
    <path class="cls-1" d="M125.72,803.37v14.17c0,3.9-3.19,7.08-7.08,7.08s-7.08-3.19-7.08-7.08v-14.17h14.17Z"/>
    <path class="cls-1" d="M105.64,751.33l-2.61,1.42-.89-2.24c.9-2.57,1.11-.49-13-43.22-1.01-3.06-3.28-5.53-6.24-6.8l-4.68-13.23,7.07-2.85,4.72,13.32c2.96,1.27,5.23,3.74,6.24,6.8l13.05,39.53c1,3.02-.64,6.27-3.66,7.26Z"/>
    <path class="cls-1" d="M188.93,709.77l-2.61-1.42-.89,2.24c.9,2.57,1.11.49-13,43.22-1.01,3.06-3.28,5.53-6.24,6.8l-4.68,13.23,7.07,2.85,4.72-13.32c2.96-1.27,5.23-3.74,6.24-6.8l13.05-39.53c1-3.02-.64-6.27-3.66-7.26Z"/>
    <path class="cls-2" d="M227.32,651.73H7.73c-4.26,0-7.73,3.47-7.73,7.73v139.03c0,4.26,3.47,7.73,7.73,7.73h83.04c0,13.45.82,19.01-3.59,26.73h-25.4c-1.73,0-3.13,1.4-3.13,3.13v12.77c0,.94.42,1.77,1.08,2.35h113.32c.66-.57,1.08-1.41,1.08-2.35v-12.77c0-1.73-1.4-3.13-3.13-3.13h-20.93c-2.05-3.59-3.25-7.59-3.52-11.74h39.42c4.54,0,8.23,3.69,8.23,8.23v21.76h6.29v-21.76c0-8-6.51-14.51-14.51-14.51h-39.48v-8.7h69.79c.19,0,18.77-.94,18.77-7.73v-139.03c0-4.26-3.47-7.73-7.73-7.73ZM167.88,839.21v6.52h-102.97v-6.52h102.97ZM97.03,806.23h11.45v11.01c0,5.6,4.56,10.15,10.15,10.15s10.15-4.56,10.15-10.15v-11.01h11.45c0,13.62-.65,18.77,2.86,26.73h-48.92c3.51-7.97,2.86-13.13,2.86-26.73ZM114.73,817.24v-11.01h7.8v11.01c0,2.15-1.75,3.9-3.9,3.9s-3.9-1.75-3.9-3.9ZM228.76,659.47v137.86c-7.59,3.59-4.16,2.61-221.03,2.61-2.15,0-1.44,6.87-1.44-140.47,0-.8.65-1.44,1.44-1.44,234.04,0,221.03-.71,221.03,1.44Z"/>
    <path class="cls-2" d="M213.13,665.92H21.93c-4.26,0-7.73,3.47-7.73,7.73v110.64c0,4.26,3.47,7.73,7.73,7.73h191.2c4.26,0,7.73-3.47,7.73-7.73v-110.64c0-4.26-3.47-7.73-7.73-7.73ZM213.13,785.74c-203.48,0-192.64.7-192.64-1.44,0-118.67-.67-112.09,1.44-112.09,203.48,0,192.64-.7,192.64,1.44,0,118.67.67,112.08-1.44,112.08Z"/>
    <path class="cls-2" d="M92.23,695.03l-3.26-9.87c-.54-1.65-2.32-2.54-3.97-2-1.65.54-2.55,2.32-2,3.97l3.67,11.12c.9,2.73,4.57,1.73,6.24,6.8,13.75,41.64,13.7,39.94,12.91,41.52-.42.84-1.01,1.13-1.82,1.4l-4.84-14.68c-1.3-3.95-7.28-1.98-5.97,1.97l7.12,21.58c.33,1.02-.22,2.11-1.24,2.45l-.7.23-7.73-23.42c-.54-1.65-2.32-2.54-3.97-2-1.65.54-2.54,2.32-2,3.97l8.71,26.41h0s1.34,4.06,1.34,4.06c.89,2.69-3.17,4.01-4.05,1.34l-.34-1.03h0s-9.71-29.43-9.71-29.44c-1.3-3.94-7.27-1.98-5.97,1.97l8.73,26.45-1.38.46c-3.15,1.05-2-2.06-14.5-37-1.88-5.33-11.28-5.97-14.1,5.24-.76,2.8-.91,4.08-2.09,5.6-1.06,1.35-1.69,2.44-3.3,3,2.11-4.62,6.92-15.79,9.04-26.05,1.17-7.35,4.12-8.94,4.11-8.96,1.51-.36,2.62-1.92,1.95-3.95l-3.8-11.53c-.54-1.65-2.32-2.55-3.97-2-1.65.54-2.55,2.32-2,3.97l3.07,9.3c-1.98,1.8-4.48,5.33-5.54,12.03-2.54,12.28-9.01,25.24-9.62,26.82-1.31,3.38,1.57,6.69,4.48,6.88,5.1.35,7.93-2.29,10.56-5.66,2-2.56,2.32-4.56,3.22-7.88.69-2.75,1.91-4.01,2.29-4.17,3.78,10.56,1.4,3.53,11.81,35.08,1.43,4.32,6.1,6.65,10.39,5.23l1.65-.54c5,7.86,18.51,3.25,14.73-8.21,5.14-1.7,7.53-5.8,5.63-11.55,2.43-.81,4.28-2.2,5.47-4.55,1.07-2.12,1.25-4.53.5-6.79-14.14-42.83-13.35-44.04-19.71-47.58Z"/>
    <path class="cls-2" d="M189.6,706.68c1.88-5.7-.46-9.85-5.63-11.56,3.79-11.49-9.78-16.05-14.75-8.22l-1.63-.54c-4.3-1.42-8.97.93-10.39,5.23l-8.84,26.78-2.97,8.3c-1.57-.69-2.62-5.39-3.07-7.08-.78-3.09-2.22-4.71-3.56-6.42-3.3-4.22-10.55-6.22-13.44-1.69-.96,1.51-1,3.27-.36,4.6,11.98,24.76,8.04,32.18,15.06,38.6l-3.07,9.31c-.55,1.65.35,3.43,2,3.97.33.11.66.16.99.16,1.32,0,2.55-.84,2.99-2.16l3.8-11.53c.69-2.1-.34-3.55-1.81-3.9-4.9-2.45-2.04-10.46-13.29-35.06.85.29,1.6.83,2.17,1.56,1.17,1.5,1.97,2.33,2.43,4.14.84,3.11,2.18,9.81,7.19,11.46,3.33,1.1,6.64-.33,7.69-3.3l3.19-8.93,8.87-26.85c.34-1.01,1.43-1.57,2.45-1.24l1.38.46-8.73,26.45c-.54,1.65.35,3.43,2,3.97,1.66.55,3.43-.35,3.97-2l10.05-30.47c.6-1.81,3.08-1.98,3.93-.29.65,1.29.63.09-9.93,32.1-.67,2.05.86,4.13,2.99,4.13,3.03,0,2.56-.85,10.72-25.59l.7.23c1.03.34,1.57,1.44,1.23,2.45l-7.12,21.58c-.54,1.65.35,3.43,2,3.97,1.67.55,3.43-.37,3.97-2l4.84-14.68c4,1.32,2.39,2.11-11.09,42.92-1.64,4.98-5.35,4.11-6.24,6.8l-3.67,11.12c-.55,1.65.35,3.43,2,3.97.33.11.66.16.99.16,1.32,0,2.55-.84,2.99-2.16l3.26-9.87c3.13-1.74,5.52-4.61,6.65-8.05,14.03-42.48,14.79-41.87,12.55-46.32-1.15-2.28-2.97-3.73-5.47-4.55Z"/>
    <path class="cls-1" d="M147.57,686.72c-7.16-4.22-15.36-6.45-23.71-6.45s-16.57,2.23-23.74,6.46c-1.5.88-1.99,2.81-1.11,4.31.88,1.49,2.81,1.99,4.31,1.11,12.63-7.45,28.44-7.45,41.06-.02,3.59,2.11,6.77-3.31,3.19-5.42Z"/>
  </g>
</svg>