<?xml version="1.0" encoding="utf-8"?>
<!-- Generator: Adobe Illustrator 26.1.0, SVG Export Plug-In . SVG Version: 6.00 Build 0)  -->
<svg version="1.1" id="Layer_1" xmlns="http://www.w3.org/2000/svg" xmlns:xlink="http://www.w3.org/1999/xlink" x="0px" y="0px"
	 viewBox="0 0 199.7 245" style="enable-background:new 0 0 199.7 245;" xml:space="preserve">
<style type="text/css">
	.st0{fill:#FFB10A;}
	.st1{fill:#273773;}
</style>
<g id="hand_with_cash">
	<g>
		<path class="st0" d="M145.8,48.8H109c0,7.2-5.9,13.1-13.1,13.1v42.1C99.3,92,112.1,83,127.4,83s28.1,9,31.5,21.1V62
			C151.7,62,145.8,56.1,145.8,48.8z M127.4,75.1c-2.9,0-5.2-2.4-5.2-5.2s2.4-5.2,5.2-5.2s5.2,2.4,5.2,5.2S130.3,75.1,127.4,75.1z"/>
		<path class="st0" d="M128.5,138.1L128.5,138.1c-1.8,1.1-3.6,2.2-5.7,3.3c-0.2,0.1-0.6,0.4-0.9,0.6c-0.8,0.2-1.7,0.5-2.5,0.7
			c-4.1,1.1-34.1,20-39.1,21.7c-0.5,0.2-1.1,0.3-1.9,0.4c-7.2,0.9-26.2-0.5-35.3,0.3l8.4,16.3c0.2-0.1,0.3-0.2,0.5-0.2
			c7.7-3.1,28.8-6.3,36-9c0.8-0.3,1.4-0.5,1.8-0.8c0.4-0.3,1-0.7,1.8-1.3c0.2-0.2,0.5-0.5,0.8-0.7c2-1.7,4.7-4.2,7.7-7
			c5.3,1.7,9.1,6.7,9.1,12.5h36.8c0-7.2,5.9-13.1,13.1-13.1v-44.7C155.6,128.9,143.3,137.7,128.5,138.1L128.5,138.1z M121,142.8
			C121,142.8,121,142.8,121,142.8C121,142.8,121,142.8,121,142.8z M127.4,159.2c-2.9,0-5.2-2.4-5.2-5.2s2.4-5.2,5.2-5.2
			s5.2,2.4,5.2,5.2S130.3,159.2,127.4,159.2z"/>
		<path class="st1" d="M177.3,190.7V48.8c0-0.7-0.3-1.4-0.8-1.9l-7.9-7.9c-0.2-0.2-0.5-0.4-0.9-0.6c-0.3-0.1-0.7-0.2-1-0.2H88
			c-1.4,0-2.6,1.2-2.6,2.6v32.2c-9.8,1.5-16.7,3.5-21.7,5c-9.9,3.1-15.5,11.3-18.2,15.3c-2.8,4.1-5.2,11.1-7.7,18.5
			c-2.6,7.7-5.5,16.4-8.8,20.2l-1.8-3.5c-0.3-0.6-0.9-1.1-1.5-1.3s-1.4-0.2-2,0.2l-13.1,6.7c-1.3,0.7-1.8,2.2-1.1,3.5
			c0.7,1.3,2.2,1.8,3.5,1.1l10.8-5.5l28.7,56.1l-23.4,12c-1.3,0.7-1.8,2.2-1.1,3.5c0.5,0.9,1.4,1.4,2.3,1.4c0.4,0,0.8-0.1,1.2-0.3
			L57.2,193c1.3-0.7,1.8-2.2,1.1-3.5l-3.3-6.5c4.2-1.3,10.5-2.6,16.6-4c5.1-1.1,10.1-2.1,13.7-3.1v7c0,1.1,2.8,3.9,3.4,4.5l5.2,5.2
			c0.5,0.5,1.2,0.8,1.9,0.8h78.8C176.1,193.3,177.3,192.1,177.3,190.7L177.3,190.7z M90.6,43.6h73.6v136.6H90.6v-6.3
			c0.1-0.1,0.3-0.1,0.4-0.2c2.3-1.5,8-6.8,17.2-15.5c6-5.7,14.3-13.6,15.8-14.4c15.5-8.3,23.4-17,23.6-25.7c0.1-5.9-3.6-10.2-7-12.2
			c-9.7-5.7-19.1,1.6-27.5,8.1c-4,3.1-7.9,6.4-11.8,8.1c-2.5,1.1-5.1,1-7.2-0.1c-3.9-2.1-3.5-5.6-3.5-8.1
			C90.6,113.8,90.6,115.4,90.6,43.6L90.6,43.6z M70.6,173.8c-6.7,1.4-13.6,2.9-18,4.4l-21-41c0.4-0.4,0.7-0.8,1.1-1.2
			c4.1-4.4,7.1-13.6,10.1-22.4c2.3-6.7,4.6-13.7,7.1-17.3c2.5-3.7,7.2-10.6,15.4-13.2c4.7-1.4,11.3-3.2,20.2-4.7
			c0,0.1-0.1,29.2,0,37.4c0,5.1,2.3,8.5,6.1,10.6c3.5,2,7.8,2.1,11.8,0.4c4.5-2,8.7-5.5,12.9-8.8c7.7-6,15-11.6,21.6-7.8
			c2.2,1.3,4.5,4,4.4,7.6c-0.1,3.8-2.9,11.5-20.8,21.1c-1.9,1-6.9,5.7-17,15.3c-6.7,6.4-14.3,13.6-16.2,14.8
			c-0.3,0.1-0.7,0.4-1.4,0.6C83.7,171,77,172.4,70.6,173.8L70.6,173.8z M172.1,188.1H97l-2.6-2.6h72.5c1.4,0,2.6-1.2,2.6-2.6V47.3
			l2.6,2.6L172.1,188.1L172.1,188.1z M85.5,78.5c0,40.4,0,36.1,0,37.4"/>
		<g>
			<path class="st1" d="M37.7,192c2.3-0.6,3.8-2.8,3.7-5.1c0-0.3,0-0.7-0.2-1c-0.6-2.2-2.6-3.6-4.7-3.7c-0.5,0-1,0-1.4,0.2
				c-2.7,0.7-4.3,3.5-3.5,6.2C32.3,191.2,35,192.7,37.7,192z"/>
			<path class="st1" d="M167,201.2c-1.6-0.3-3.1,0.8-3.4,2.4c-0.1,0.8,0,1.6,0.5,2.2c0.4,0.6,1.1,1.1,1.9,1.2c0.2,0,0.3,0,0.5,0
				c1.4,0,2.7-1,2.9-2.5c0.1-0.8,0-1.6-0.5-2.2C168.5,201.8,167.8,201.4,167,201.2L167,201.2z"/>
			<path class="st1" d="M187.8,114.5c-1.4,0-2.6,1.2-2.6,2.6v77.7c0,3.5-2.9,6.4-6.4,6.4h-4.1c-1.4,0-2.6,1.2-2.6,2.6
				s1.2,2.6,2.6,2.6h4.1c6.4,0,11.7-5.2,11.7-11.7v-77.7C190.5,115.7,189.3,114.5,187.8,114.5L187.8,114.5z"/>
			<path class="st1" d="M100.3,30.4c0.2,0,0.3,0,0.5,0c1.4,0,2.7-1,2.9-2.5c0.1-0.8,0-1.6-0.5-2.2s-1.1-1.1-1.9-1.2
				c-1.6-0.3-3.2,0.8-3.4,2.4c-0.1,0.8,0,1.6,0.5,2.2S99.5,30.2,100.3,30.4L100.3,30.4z"/>
			<path class="st1" d="M74.9,69.8c1.4,0,2.6-1.2,2.6-2.6V36.8c0-3.5,2.9-6.4,6.4-6.4h9.4c1.4,0,2.6-1.2,2.6-2.6s-1.2-2.6-2.6-2.6
				h-9.4c-6.4,0-11.7,5.2-11.7,11.7v30.4C72.2,68.7,73.4,69.8,74.9,69.8z"/>
		</g>
	</g>
</g>
</svg>
