<svg id="Layer_1" data-name="Layer 1" xmlns="http://www.w3.org/2000/svg" viewBox="0 0 382.78 138.51"><defs><style>.cls-1{fill:#2e2b6c;}.cls-2{fill:#4468b1;}</style></defs><path class="cls-1" d="M82.63,66.18c16.88,4.07,27.42,18.23,26.51,35a48.82,48.82,0,0,1-2.39,13.62c-4.92,13.9-16.55,23.05-33.64,23.43-23.41.53-46.84.1-70.27.19-2.3,0-2.84-.62-2.84-2.86Q.11,69.16,0,2.76C0,.7.35,0,2.64,0,23.45.12,44.26.07,65.07.12A57.88,57.88,0,0,1,79.72,2c10.37,2.73,17.72,9,21.09,19.22,3,9,4.16,18.29.48,27.46C97.9,57.1,92.33,63.44,82.63,66.18ZM47.4,115.34c6,0,12,.18,18,0,7.71-.27,12.29-5,15.17-11.6C83.33,97.34,82.7,91.25,77.88,86c-4-4.36-9.33-5.74-15-5.82-11.3-.14-22.61,0-33.92-.08-1.5,0-2,.43-2,2q.09,15.61,0,31.21c0,1.66.48,2.14,2.12,2.12C35.22,115.29,41.31,115.34,47.4,115.34Zm-1.17-91.6c-5.61,0-11.22.08-16.83,0-2,0-2.42.61-2.4,2.46.09,9.35.11,18.7,0,28.05,0,2,.69,2.4,2.5,2.38,9.77-.06,19.54,0,29.31,0s15.86-5.2,17.34-14.72c1.65-10.54-7.27-19-15.41-18.18C55.94,24.13,51.07,23.74,46.23,23.74Z"/><path class="cls-1" d="M382.68,138.37c-9.1,0-18.26,0-27.42,0-1.92,0-2.1-1.44-2.67-2.55-7.37-14.52-14.34-29.23-21.22-44Q321.18,70,310.86,48.19c-.26-.56-.28-1.34-1.3-1.69l-9.68,20.84q-15.92,34.2-31.76,68.43c-1,2.13-2.12,2.69-4.34,2.66-8.59-.13-17.18-.05-26.21-.05l8.17-15.9q31-60.09,62.08-120.19c.54-1,.74-2.29,2.52-2.29s2,1.19,2.57,2.25q34.68,67.17,69.33,134.34C382.49,137.08,383,137.51,382.68,138.37Z"/><path class="cls-1" d="M196,80.8c0-18.13,0-36.26.05-54.39,0-2.15-.5-2.75-2.7-2.73-11.71.12-23.42,0-35.13.1-2,0-2.66-.5-2.62-2.56.12-6.36.1-12.73,0-19.09,0-1.66.47-2.1,2.11-2.1q51.54.08,103.09,0c1.9,0,2.2.66,2.18,2.32-.09,6.27-.15,12.54,0,18.81.06,2.31-.79,2.65-2.83,2.63-11.42-.09-22.85,0-34.27-.1-2.37,0-3.06.56-3,3,.08,36.17,0,72.34.12,108.5,0,2.73-.78,3.32-3.35,3.26-6.87-.18-13.75-.23-20.62,0-2.76.09-3.07-.89-3.06-3.26C196,117.07,196,98.94,196,80.8Z"/><path class="cls-1" d="M147.31,69.21c0,22.08,0,44.16.06,66.24,0,2.42-.6,3.05-3,3-7.16-.18-14.32-.12-21.48,0-1.76,0-2.3-.43-2.3-2.24q.08-67,0-133.92c0-1.84.57-2.24,2.3-2.22,7.26.09,14.51.12,21.77,0,2.14,0,2.73.48,2.72,2.68C147.28,24.86,147.31,47,147.31,69.21Z"/><path class="cls-2" d="M310.12,74.5c5.49,10.79,10.73,21.09,16,31.39,2.54,5,5,10,7.64,14.92.85,1.61.66,2.18-1.28,2.17q-22.05-.11-44.11-.12c-1.19,0-2.21.08-1.33-1.68C294.64,105.82,302.23,90.45,310.12,74.5Z"/></svg>