<?xml version="1.0" encoding="UTF-8"?>
<svg id="Layer_1" data-name="Layer 1" xmlns="http://www.w3.org/2000/svg" viewBox="0 0 543.62 373.38">
  <defs>
    <style>
      .cls-1 {
        fill: #faaf40;
      }

      .cls-1, .cls-2 {
        stroke-width: 1.5px;
      }

      .cls-1, .cls-2, .cls-3 {
        stroke: #feb61c;
        stroke-miterlimit: 10;
      }

      .cls-2, .cls-4 {
        fill: #feb61c;
      }

      .cls-4 {
        stroke-width: 0px;
      }

      .cls-3 {
        fill: none;
        stroke-width: 4px;
      }
    </style>
  </defs>
  <path class="cls-2" d="m455.73,273.93c15.27.04,27.62,11.89,27.64,26.52.02,14.81-12.44,26.71-27.91,26.67-15.41-.04-27.74-12.07-27.64-26.94.11-14.55,12.58-26.28,27.91-26.24Zm.1,2.4c-14.03-.08-25.51,10.66-25.61,23.94-.1,13.36,11.21,24.35,25.14,24.44,13.98.09,25.49-10.69,25.61-23.97.12-13.36-11.18-24.33-25.14-24.41Z"/>
  <path class="cls-3" d="m420.8,58.63c.12-16.41,12.23-30.63,25.5-39.24-41.38-28.56-127.12-17.13-233.26.07C83.03,40.54,17.81,165.4,46.03,249.74c28.22,84.34,127.98,142.57,256.67,114.52,114.38-24.93,167.93-162.37,170.65-256.57-.72.03-1.44.05-2.17.05-28.09-.08-50.57-21.99-50.38-49.11Z"/>
  <path class="cls-1" d="m522.7,217.91c11.15.03,20.16,8.67,20.17,19.35.01,10.81-9.08,19.49-20.37,19.46-11.25-.03-20.25-8.8-20.17-19.66.08-10.62,9.18-19.18,20.37-19.15Zm.07,1.75c-10.24-.06-18.62,7.78-18.69,17.47-.07,9.75,8.18,17.77,18.35,17.83,10.2.07,18.6-7.8,18.69-17.49.09-9.75-8.16-17.75-18.35-17.81Z"/>
  <path class="cls-2" d="m21.12,314.92c11.15.03,20.16,8.67,20.17,19.35.01,10.81-9.08,19.49-20.37,19.46-11.25-.03-20.25-8.8-20.17-19.66.08-10.62,9.18-19.18,20.37-19.15Zm.07,1.75c-10.24-.06-18.62,7.78-18.69,17.47-.07,9.75,8.18,17.77,18.35,17.83,10.2.07,18.6-7.8,18.69-17.49.09-9.75-8.16-17.75-18.35-17.81Z"/>
  <path class="cls-4" d="m471.2,11.08c28.41.07,51.37,22.11,51.4,49.32.03,27.54-23.14,49.68-51.91,49.6-28.66-.08-51.6-22.44-51.4-50.11.2-27.07,23.4-48.88,51.91-48.81Zm.18,4.46c-26.09-.15-47.45,19.82-47.63,44.53-.18,24.85,20.85,45.29,46.76,45.45,26,.17,47.41-19.88,47.63-44.59.22-24.85-20.8-45.25-46.76-45.4Z"/>
</svg>