<svg id="Layer_1" data-name="Layer 1" xmlns="http://www.w3.org/2000/svg" viewBox="0 0 349.64 362.06"><defs><style>.cls-1{fill:#ed5a28;}.cls-2{fill:#fff;}</style></defs><path class="cls-1" d="M47.62,101.44c0-4.27.57-6.89-2-9.43-12-12-3.37-32.16,13-32.61A19.08,19.08,0,0,1,72.64,92c-2.56,2.56-2,5.14-2,9.45A6.38,6.38,0,0,0,77,107.82l-.44-.13h32.94V75.32a6.38,6.38,0,0,1,6.38-6.38c4.3,0,6.89-.57,9.45,2,12.14,12.16,33.07,3.25,32.6-14.05-.45-16.29-20.59-25-32.61-13a6.53,6.53,0,0,1-4.6,2h-4.84a6.38,6.38,0,0,1-6.38-6.38V4H5.86V107.69H40.29A6.29,6.29,0,0,0,47.62,101.44Z"/><path class="cls-1" d="M329.21,216.39c-11-16.9-27.65-45.53-27.65-63.23,0-8.06.28-6.86.28-12.34a122.33,122.33,0,0,0-73.22-112V47.36c29.58,22.32,38.48,50.09,38.48,90,0,5.33-.28,4.37-.28,12.34,0,17.7,18,45,28.93,62,3.84,5.92.48,11.54-7.51,13.74l-20.14,4.22-1.28,64.23c0,7.31-7.42,13.77-12.91,17.78h25.65a22,22,0,0,0,22-22V234.35l20.14-4.21C329.69,227.94,333.05,222.32,329.21,216.39Z"/><path class="cls-2" d="M329.74,186.93c-7.67-14.19-12.25-26.36-12.25-32.55,0-.22,0-3.91,0-4.13a139.93,139.93,0,0,0-60-123.47,5.12,5.12,0,1,1,5.82-8.42A150.23,150.23,0,0,1,328,142c0,6.05-.28,5.44-.28,12.35,0,2.53,2.31,11.56,11,27.68a5.12,5.12,0,1,1-9,4.87Z"/><path class="cls-2" d="M209.54,362a5.12,5.12,0,0,1-4.38-5.76l6.07-44.09a5.11,5.11,0,0,1,5.06-4.42h61.29a16.91,16.91,0,0,0,16.89-16.89V235.57a5.11,5.11,0,0,1,4.07-5c17.46-3.66,28.14-4.41,24.4-10.17-13-20-28.47-47.73-28.47-66v-4.52s.28-4.24.28-7.83A116.69,116.69,0,0,0,230.12,37.26a5.11,5.11,0,1,1,4.59-9.14,126.84,126.84,0,0,1,70,121.9v4.36c0,12.32,9.53,33.78,26.82,60.45,6.32,9.74-.64,19.44-10.75,21.53l-16.07,3.37v51.12A27.16,27.16,0,0,1,277.58,318H220.76l-5.46,39.67A5.1,5.1,0,0,1,209.54,362ZM319.73,231.36h0Z"/><path class="cls-2" d="M73.37,356.19l14.32-95.5c-4.26-6.17-10.39-17.12-15.8-28.28A5.12,5.12,0,0,1,81.1,228c5.63,11.61,12.23,23.28,16.05,28.38a5.13,5.13,0,0,1,1,3.83L83.48,357.7C82.48,364.39,72.36,362.88,73.37,356.19Z"/><path class="cls-2" d="M108.92,114H76c-6.76,0-6.77-10.23,0-10.23H103.8V76.55a11.5,11.5,0,0,1,11.49-11.49c4.9,0,9-.61,13.08,3.49a14,14,0,0,0,23.86-10.3c-.33-11.88-15-18.33-23.88-9.48-4,4.06-8.09,3.48-13.06,3.48A11.51,11.51,0,0,1,103.8,40.76V10.36H10.36V103.8H39.67c6.76,0,6.77,10.23,0,10.23H5.25a5.11,5.11,0,0,1-5.12-5.11V5.25A5.12,5.12,0,0,1,5.25.13H108.92A5.11,5.11,0,0,1,114,5.25V40.76A1.27,1.27,0,0,0,115.29,42h4.84a1.51,1.51,0,0,0,1-.47C136.32,26.29,161.89,37.3,162.45,58a24.2,24.2,0,0,1-41.32,17.81,1.51,1.51,0,0,0-1-.49h-4.84A1.26,1.26,0,0,0,114,76.55v32.37A5.11,5.11,0,0,1,108.92,114Z"/><path class="cls-2" d="M159.3,162.33A24.2,24.2,0,0,1,142.19,121a1.56,1.56,0,0,0,.49-1v-4.84a1.27,1.27,0,0,0-1.26-1.26H109.05a5.11,5.11,0,0,1-5.12-5.11V75.84a5.12,5.12,0,0,1,10.23,0v27.83h27.26a11.51,11.51,0,0,1,11.49,11.49V120a11.61,11.61,0,0,1-3.49,8.24,14,14,0,0,0,10.29,23.86,14.16,14.16,0,0,0,13.59-13.57,13.82,13.82,0,0,0-4.11-10.3,11.59,11.59,0,0,1-3.47-8.23v-4.84a11.5,11.5,0,0,1,11.49-11.49H207.6V10.23H114.16V39.54c0,6.76-10.23,6.77-10.23,0V5.12A5.12,5.12,0,0,1,109.05,0H212.72a5.12,5.12,0,0,1,5.12,5.12V108.79a5.12,5.12,0,0,1-5.12,5.11H177.21a1.26,1.26,0,0,0-1.26,1.26V120a1.42,1.42,0,0,0,.47,1,24,24,0,0,1,7.11,17.85A24.52,24.52,0,0,1,160,162.32Z"/><path class="cls-2" d="M108.79,217.84H5.12A5.12,5.12,0,0,1,0,212.72V109.05a5.12,5.12,0,0,1,5.12-5.12c36,0,36.77.81,36.77-1.26V97.83a1.46,1.46,0,0,0-.47-1C26.11,81.59,37.25,56.08,57.84,55.51a24.2,24.2,0,0,1,17.8,41.33,1.47,1.47,0,0,0-.48,1v4.83c0,2.07,1,1.26,33.63,1.26a5.11,5.11,0,0,1,5.11,5.12v33.53a5.14,5.14,0,0,1-.1,1,11.54,11.54,0,0,1-11.26,9.17H97.7c-8.47,0-8.45-7.59-18.11-7.59a14,14,0,0,0-14,14.39,14.17,14.17,0,0,0,13.58,13.59,13.76,13.76,0,0,0,10.3-4.11,11.55,11.55,0,0,1,8.22-3.47h4.84a11.53,11.53,0,0,1,11.26,9.17,5.07,5.07,0,0,1,.1,1v36.93A5.12,5.12,0,0,1,108.79,217.84ZM10.23,207.6h93.44V176.52a1.25,1.25,0,0,0-1.13-.7H97.7a1.46,1.46,0,0,0-1,.46,23.94,23.94,0,0,1-17.85,7.12c-20.43-.59-31.58-25.77-16.65-41.11a24.18,24.18,0,0,1,34.48-.23,1.48,1.48,0,0,0,1,.49h4.84a1.25,1.25,0,0,0,1.13-.7V114.16H76.42a11.5,11.5,0,0,1-11.49-11.49V97.84c0-8.47,7.59-8.46,7.59-18.11a14,14,0,0,0-14.4-14A14.17,14.17,0,0,0,44.53,79.31c-.29,10,7.59,9.93,7.59,18.52v4.84a11.51,11.51,0,0,1-11.5,11.49H10.23Z"/><path class="cls-2" d="M199.59,217.84h-7.68c-6.76,0-6.76-10.24,0-10.24h7.68a5.12,5.12,0,0,1,0,10.24Zm-33.25,0h-7.68c-6.76,0-6.77-10.24,0-10.24h7.68a5.12,5.12,0,0,1,0,10.24Zm-33.25,0h-7.68a5.12,5.12,0,0,1,0-10.24h7.68a5.12,5.12,0,0,1,0,10.24Zm75.07-17v-7.68a5.12,5.12,0,0,1,10.23,0v7.68C218.39,207.59,208.16,207.6,208.16,200.83Zm5.11-28.14a5.11,5.11,0,0,1-5.11-5.11V159.9a5.12,5.12,0,0,1,10.23,0v7.68A5.11,5.11,0,0,1,213.27,172.69Zm0-33.25a5.11,5.11,0,0,1-5.11-5.11v-7.68a5.12,5.12,0,0,1,10.23,0v7.68A5.11,5.11,0,0,1,213.27,139.44Z"/><path class="cls-2" d="M344.62,205.21c6.69,0,6.7-10.13,0-10.13S337.91,205.21,344.62,205.21Z"/></svg>