<?xml version="1.0" encoding="UTF-8"?>
<svg id="Layer_1" data-name="Layer 1" xmlns="http://www.w3.org/2000/svg" viewBox="0 0 372.13 468">
  <defs>
    <style>
      .cls-1, .cls-2, .cls-3 {
        stroke-width: 0px;
      }

      .cls-2 {
        fill: #1b75b9;
      }

      .cls-3 {
        fill: #ef6131;
      }
    </style>
  </defs>
  <path class="cls-3" d="m176.31,344.5c0,7.15,5.85,13,13,13s13-5.85,13-13v-26h-26v26Z"/>
  <g>
    <circle class="cls-3" cx="189.31" cy="71.5" r="9.75"/>
    <path class="cls-3" d="m216.6,52.69c2.5-2.58,2.43-6.7-.15-9.19-7.33-7.09-16.97-10.99-27.14-10.99s-20.49,4.18-27.91,11.77c-2.51,2.57-2.47,6.68.1,9.19,1.27,1.24,2.91,1.86,4.55,1.86s3.37-.65,4.64-1.95c4.96-5.07,11.58-7.86,18.63-7.86s13.21,2.61,18.1,7.34c2.58,2.49,6.7,2.42,9.19-.15Z"/>
    <path class="cls-3" d="m143.1,32.37c1.68,0,3.36-.65,4.63-1.94,11.06-11.24,25.82-17.43,41.58-17.43s30.08,5.98,41.06,16.84c2.55,2.53,6.67,2.5,9.19-.05,2.53-2.55,2.5-6.67-.05-9.19C226.08,7.32,208.25,0,189.31,0s-37.33,7.57-50.85,21.31c-2.52,2.56-2.49,6.67.08,9.19,1.27,1.24,2.91,1.87,4.56,1.87Z"/>
  </g>
  <path class="cls-1" d="m332.31,91H39.81c-7.17,0-13,5.83-13,13v208c0,7.17,5.83,13,13,13h97.24v27.63c0,8.61-2.18,16.97-6.33,24.38h-25.91c-3.59,0-6.5,2.91-6.5,6.5v13H13.81c-3.59,0-6.5,2.91-6.5,6.5s2.91,6.5,6.5,6.5h26v52c0,3.59,2.91,6.5,6.5,6.5s6.5-2.91,6.5-6.5v-52h19.5v52c0,3.59,2.91,6.5,6.5,6.5s6.5-2.91,6.5-6.5v-52h231.66c1.3-3.14-1.2-8.35-4.11-13h-32.55v-13c0-3.59-2.91-6.5-6.5-6.5h-25.91c-4.15-7.41-6.33-15.76-6.33-24.38v-27.63h90.74c7.17,0,13-5.83,13-13V104c0-7.17-5.83-13-13-13Zm-65,299v6.5H111.31v-6.5h156Zm-78-26c10.75,0,19.5-8.75,19.5-19.5v-19.5h19.76v27.63c0,8.46,1.71,16.71,4.92,24.38h-88.37c3.22-7.66,4.92-15.92,4.92-24.38v-27.63h19.76v19.5c0,10.75,8.75,19.5,19.5,19.5Zm-6.5-19.5v-19.5h13v19.5c0,3.58-2.92,6.5-6.5,6.5s-6.5-2.92-6.5-6.5Zm149.5-32.5H39.81V104h292.5v208Z"/>
  <circle class="cls-1" cx="364.81" cy="247" r="7.31"/>
  <circle class="cls-1" cx="7.31" cy="123.5" r="7.31"/>
  <path class="cls-1" d="m246.43,418.71H106.2c-2.09,0-3.79,1.7-3.79,3.79s1.7,3.79,3.79,3.79h140.23c2.09,0,3.79-1.7,3.79-3.79s-1.7-3.79-3.79-3.79Z"/>
  <path class="cls-1" d="m319.31,292.5V123.5c0-3.59-2.91-6.5-6.5-6.5H59.31c-3.59,0-6.5,2.91-6.5,6.5v169c0,3.59,2.91,6.5,6.5,6.5h253.5c3.59,0,6.5-2.91,6.5-6.5Zm-13-6.5H65.81v-156h240.5v156Z"/>
  <g>
    <path class="cls-2" d="m117.81,188.5h130c3.59,0,6.5-2.91,6.5-6.5s-2.91-6.5-6.5-6.5H117.81c-3.59,0-6.5,2.91-6.5,6.5s2.91,6.5,6.5,6.5Z"/>
    <path class="cls-2" d="m117.81,240.5h130c3.59,0,6.5-2.91,6.5-6.5s-2.91-6.5-6.5-6.5H117.81c-3.59,0-6.5,2.91-6.5,6.5s2.91,6.5,6.5,6.5Z"/>
    <path class="cls-2" d="m117.81,214.5h52c3.59,0,6.5-2.91,6.5-6.5s-2.91-6.5-6.5-6.5h-52c-3.59,0-6.5,2.91-6.5,6.5s2.91,6.5,6.5,6.5Z"/>
    <path class="cls-2" d="m189.31,201.5c-3.59,0-6.5,2.91-6.5,6.5s2.91,6.5,6.5,6.5h39c3.59,0,6.5-2.91,6.5-6.5s-2.91-6.5-6.5-6.5h-39Z"/>
  </g>
  <path class="cls-1" d="m332.31,338c-3.59,0-6.5,2.91-6.5,6.5s2.91,6.5,6.5,6.5c21.51,0,39-17.49,39-39v-43.88c0-3.59-2.91-6.5-6.5-6.5s-6.5,2.91-6.5,6.5v43.88c0,14.34-11.66,26-26,26Z"/>
  <path class="cls-1" d="m7.31,110.5c3.59,0,6.5-2.91,6.5-6.5,0-14.34,11.66-26,26-26h65.01c3.59,0,6.5-2.91,6.5-6.5s-2.91-6.5-6.5-6.5H39.81C18.31,65,.81,82.49.81,104c0,3.59,2.91,6.5,6.5,6.5Z"/>
  <path class="cls-1" d="m350.3,396.5c2.19,1.05,3.71,3.26,3.71,5.85,0,3.59-2.91,6.5-6.5,6.5h-26s0,52,0,52c0,3.59-2.91,6.5-6.5,6.5s-6.5-2.91-6.5-6.5v-52s-19.5,0-19.5,0v52c0,3.59-2.91,6.5-6.5,6.5-3.59,0-6.5-2.91-6.5-6.5v-52s-263.73,0-263.73,0c-.69-4.08-.81-8.21-.56-12.35h338.58Z"/>
</svg>