<svg id="Layer_1" data-name="Layer 1" xmlns="http://www.w3.org/2000/svg" xmlns:xlink="http://www.w3.org/1999/xlink" viewBox="0 0 478.92 125.34"><defs><style>.cls-1{fill:#161f2b;}</style></defs><path class="cls-1" d="M478.92,96.83l-18.08,0c-1.83,0-1.95.18-1.79,2a13.5,13.5,0,0,0,1,4.16c1.15,2.69,3,4.52,6.08,4.78,3.31.27,5.9-.85,7.54-3.86.68-1.25,3.56-1.2,4.3.06.29.5,0,.93-.22,1.34a11.58,11.58,0,0,1-5.47,5.28,12.28,12.28,0,0,1-17.06-7.19,24,24,0,0,1,0-15.78c2.76-8.26,10.68-9.2,15.76-7.56,3.51,1.14,5.55,3.75,6.83,7.08.26.69.3,1.53,1.09,1.93Zm-12.41-3.69c1.91,0,3.82,0,5.73,0,1.57,0,1.93-.45,1.74-2a12.11,12.11,0,0,0-1.3-4.22,6.7,6.7,0,0,0-11.59-.65,11.8,11.8,0,0,0-1.89,5c-.22,1.41.12,1.82,1.59,1.85C462.7,93.17,464.61,93.14,466.51,93.14Z"/><path class="cls-1" d="M295.08,31.08q0,12.27,0,24.54c0,2.22-.16,2.38-2.34,2.39-2.92,0-5.84,0-8.76,0-1.85,0-2-.22-2.08-2.07a5.42,5.42,0,0,0,0-.57c0-.37.12-.85-.27-1s-.68.24-.95.48A15,15,0,0,1,270,58.94c-5.19-.17-8.94-2.55-11.11-7.24-2.68-5.76-2.91-11.93-2.64-18.13a34.78,34.78,0,0,1,1.67-9.29c3.59-11,15.78-11.34,21.56-6.22.61.54,1.3,1.65,2,1.29s.37-1.65.38-2.52c.05-3.64,0-7.27,0-10.91,0-1.9.19-2.1,2-2.11q4.59,0,9.19,0c1.73,0,2,.23,2,2Q295.09,18.45,295.08,31.08Zm-13.18,6V29.8a2.81,2.81,0,0,0,0-.29,2.51,2.51,0,0,0-.43-1.77,7.68,7.68,0,0,0-4.93-2.93c-3.1-.34-5.48,1.55-6.28,5.2a33.11,33.11,0,0,0-.13,13.23,9.75,9.75,0,0,0,1.12,3.08,5.18,5.18,0,0,0,6.24,2.52,9.14,9.14,0,0,0,3-1.65,3.25,3.25,0,0,0,1.44-2.92C281.85,41.88,281.9,39.49,281.9,37.11Z"/><path class="cls-1" d="M213.87,36.82q0-9.39,0-18.8c0-1.95.17-2.12,2.14-2.13,3.07,0,6.13,0,9.19,0,1.36,0,1.87.53,1.88,1.88,0,1-.55,2.52.35,2.92s1.67-1,2.49-1.63c3.27-2.52,6.78-4.21,11.06-4.1,6.1.16,9.63,3.43,9.9,9.56.13,3,.05,6,.06,9q0,11.13,0,22.25c0,2-.18,2.2-2.22,2.21-2.92,0-5.84,0-8.76,0-1.76,0-2-.24-2-2q0-11.41,0-22.82a19.89,19.89,0,0,0-.34-4c-.61-3-3-4.16-5.75-2.9a15.41,15.41,0,0,0-4.24,3.15,2.82,2.82,0,0,0-.57,2.29q0,11.78,0,23.54c0,2.75,0,2.75-2.82,2.76h-8c-2.21,0-2.32-.12-2.33-2.39Z"/><path class="cls-1" d="M344.5,37V18.18c0-2.13.16-2.28,2.3-2.29,3,0,5.93,0,8.9,0,1.28,0,1.87.53,1.78,1.81a.33.33,0,0,0,0,.14c.17,1-.53,2.51.42,2.91s1.69-1,2.5-1.63A17.09,17.09,0,0,1,372.16,15c5.14.26,8.29,2.94,9.09,8a25.4,25.4,0,0,1,.33,4q0,14.36,0,28.7c0,2.18-.12,2.31-2.25,2.32q-4.31,0-8.61,0c-2.21,0-2.32-.12-2.32-2.39q0-11.85,0-23.69a11.15,11.15,0,0,0-.39-3.4A3.49,3.49,0,0,0,363.43,26a12,12,0,0,0-5.51,3.74c-.57.6-.43,1.44-.43,2.2,0,7.89,0,15.79,0,23.68,0,2.31-.12,2.43-2.44,2.43-2.87,0-5.74,0-8.61,0-1.67,0-1.92-.27-1.92-1.94C344.49,49.71,344.5,43.34,344.5,37Z"/><path class="cls-1" d="M339.93,36.87a25,25,0,0,1-1.6,9.87c-2.95,7.62-8.66,11.53-16.71,12.15a23.55,23.55,0,0,1-8-.66c-7.16-1.93-11.4-6.72-13.26-13.72a29.11,29.11,0,0,1,.2-15.87C303,20.28,309.66,15.23,318.36,15c4.39-.13,8.62.4,12.42,2.75,5.35,3.32,7.89,8.4,8.84,14.44A23.89,23.89,0,0,1,339.93,36.87Zm-13.44,0a29.4,29.4,0,0,0-.39-6.29,15.59,15.59,0,0,0-.69-2.33,5.42,5.42,0,0,0-5.51-3.79c-3.24,0-5.36,1.6-6.24,5.2a31.9,31.9,0,0,0-.1,14.22,8.64,8.64,0,0,0,1.09,2.8,5.43,5.43,0,0,0,4.71,2.8c3.2.13,5.22-1.27,6.27-4.38A24.3,24.3,0,0,0,326.49,36.85Z"/><path class="cls-1" d="M189.26,15c11.44,0,19.19,7.31,20,18.74a29.22,29.22,0,0,1-1.89,13.93,17.37,17.37,0,0,1-14.47,11c-6.19.85-12,0-17.06-4.1a13.92,13.92,0,0,1-3.37-3.89,26.79,26.79,0,0,1-.66-26.24c3.07-6.21,8.65-8.92,15.4-9.42C187.92,15,188.59,15,189.26,15Zm6.81,22.8a31.48,31.48,0,0,0-.82-8.52c-.86-3.12-2.76-4.73-5.63-4.84-3.22-.12-5.23,1.16-6.22,4.41a27.5,27.5,0,0,0,0,16.12,5.7,5.7,0,0,0,6.06,4.49c2.93-.06,4.8-1.55,5.76-4.69A26,26,0,0,0,196.07,37.8Z"/><path class="cls-1" d="M134.3,33.17V11.07c0-2.64.06-2.69,2.62-2.7h8.33c2.52,0,2.6.08,2.61,2.56V44.08c0,.53,0,1.06,0,1.58-.07,1.28.49,1.81,1.78,1.8,4.6,0,9.19,0,13.78,0h1.44a1.21,1.21,0,0,1,1.35,1.32c0,2.63,0,5.27,0,7.9,0,.89-.51,1.28-1.36,1.31l-1,0q-13.57,0-27.13,0c-2.31,0-2.42-.11-2.42-2.45Z"/><path class="cls-1" d="M438.84,121.54a17.17,17.17,0,0,1-8.08-1.7,7,7,0,0,1-2-11.16,13.69,13.69,0,0,1,2.71-2.33c.53-.34.67-.67.22-1.27-1.67-2.19-1.57-3.9.41-5.8.94-.9,1-1.36-.18-2.11-3.52-2.31-4.65-5.73-4-9.74S431,81.15,434.69,80a11.65,11.65,0,0,1,5.39-.56,60.41,60.41,0,0,0,11.71.68c1.16,0,1.83.36,1.8,1.64,0,1-.41,1.53-1.45,1.52-.86,0-1.72,0-2.59,0s-1.06.17-.57,1c3.56,6.24.56,12.9-6.46,14.44a20,20,0,0,1-5,.32,2.08,2.08,0,0,0-2.4,1.76c-.23,1.32.82,1.75,1.8,2,2.69.71,5.39,1.33,8.08,2a21.28,21.28,0,0,1,3.53,1.2c5.58,2.48,5.36,10.21.77,13.06C446.21,121,442.8,121.56,438.84,121.54Zm.38-38.8c-4.38,0-7,2.39-7,6.36A6.5,6.5,0,0,0,439,95.89c4.18,0,6.92-2.58,7-6.69S443.49,82.76,439.22,82.74Zm.85,35.33a13.06,13.06,0,0,0,4.94-1,4.38,4.38,0,0,0,2.92-4.47c-.12-2.12-1.64-2.93-3.35-3.4-2.53-.71-5.09-1.27-7.64-1.89a2.07,2.07,0,0,0-1.67.16,9,9,0,0,0-3.24,3.16c-1.44,2.63-.65,5,2.08,6.26A16.87,16.87,0,0,0,440.07,118.07Z"/><path class="cls-1" d="M268.74,92.38q0-8.25,0-16.51c0-2,.2-2.22,2.22-2.23q9.11,0,18.23,0a2.28,2.28,0,0,1,1.94,3.58c-.41.73-1.13.62-1.78.63H276.15c-2.13,0-2.27.16-2.28,2.31q0,3.72,0,7.46c0,1.79.21,2,2,2,4.21,0,8.43,0,12.64,0,1.74,0,2,.27,2,2s-.25,2-2,2c-4.21,0-8.43,0-12.64,0-1.76,0-2,.22-2,2q0,4.66,0,9.33c0,1.64.28,1.91,1.95,1.92,4.55,0,9.09,0,13.64,0a2.32,2.32,0,0,1,2,3.61,1.39,1.39,0,0,1-1.38.59c-6.6,0-13.2,0-19.81,0-1.31,0-1.6-.72-1.59-1.84C268.76,103.67,268.75,98,268.74,92.38Z"/><path class="cls-1" d="M348.52,90.65q0-9.11,0-18.23c0-.69-.16-1.62.7-1.85a4.55,4.55,0,0,1,3.49.16c.56.32.42,1,.42,1.59,0,3.54,0,7.08,0,10.62,0,.45-.22,1.08.31,1.3s.83-.36,1.17-.65c2.24-1.92,4.55-3.65,7.6-4.09,4.58-.66,7.94,1.73,8.67,6.28a17.07,17.07,0,0,1,.26,2.85q0,10.13,0,20.24c0,.73.24,1.72-.65,2a4.83,4.83,0,0,1-3.64-.06c-.71-.32-.49-1.18-.5-1.83q0-9.47,0-18.94a11,11,0,0,0-.32-3.13,4.08,4.08,0,0,0-4.62-3.2c-3.47.32-5.86,2.38-7.93,4.94a3.06,3.06,0,0,0-.36,2.08c0,6.08,0,12.15,0,18.23,0,.72.26,1.71-.72,2a4.41,4.41,0,0,1-3.47-.19c-.6-.37-.41-1.13-.41-1.74Q348.52,99.84,348.52,90.65Z"/><path class="cls-1" d="M235.77,93.06l7-8.15a15.23,15.23,0,0,0,1.87-2.17c1.57-2.7,4-3.11,6.79-2.78.37,0,.84-.07,1,.35s-.25.68-.49,1c-3.49,3.94-7,7.9-10.51,11.78-1,1-.87,1.76,0,2.78,3.72,4.44,7.37,8.93,11,13.4.22.26.42.53.62.8.49.66.36,1.09-.5,1.11-1.33,0-2.67,0-4,0-.9,0-1.32-.7-1.79-1.3L236.76,97.09c-.28-.35-.52-1-1-.87s-.35.92-.35,1.41c0,3.78,0,7.56,0,11.34,0,2-.17,2.18-2.24,2.19l-1.15,0a1.24,1.24,0,0,1-1.42-1.4c0-.33,0-.67,0-1v-36a2.69,2.69,0,0,1,4.21-2.31c.78.45.62,1.24.62,1.93,0,6.22,0,12.44,0,18.66A3.12,3.12,0,0,0,235.77,93.06Z"/><path class="cls-1" d="M143.71,111.86c-4.88,0-8.88-1.6-11.39-6-1-1.75-.85-2,1.06-2.78.35-.13.72-.25,1.07-.41,1.16-.55,1.86-.3,2.48,1a7.83,7.83,0,0,0,12.1,2.19A6.09,6.09,0,0,0,147.8,96c-2.91-1.54-6-2.82-8.94-4.25-4.92-2.37-6.91-5.78-6.08-10.31a10.35,10.35,0,0,1,9.66-8.37,17.58,17.58,0,0,1,6.69.48,9.86,9.86,0,0,1,6,4.82c.53,1,.38,1.64-.74,2l-1,.32c-2.14.72-2.14.72-3.37-1.1-1.61-2.37-5.71-3.28-8.89-2-2.43,1-3.6,3.51-3,6.59.38,2.12,1.95,3.22,3.74,4,2.56,1.18,5.16,2.28,7.74,3.42A12.11,12.11,0,0,1,153,93.76a10.23,10.23,0,0,1-3.43,17.12A18.23,18.23,0,0,1,143.71,111.86Z"/><path class="cls-1" d="M392.8,106.46c-1.1,1-2.07,2-3.16,2.79-4.4,3.39-10.91,2.61-13.49-1.57a10,10,0,0,1,4.58-14.35,22.34,22.34,0,0,1,9.16-1.4c3.28,0,3.43-.12,3.12-3.39-.2-2.2-.88-4.21-3.18-5a6.62,6.62,0,0,0-8.55,2.92c-1.2,2.12-1.32,2.13-3.69,1.25-1-.37-1.24-.89-.81-1.86a9.71,9.71,0,0,1,6.6-5.9,15.31,15.31,0,0,1,7.81,0,8,8,0,0,1,5.93,5.86,18.51,18.51,0,0,1,.57,5c.09,6.32-.23,12.63.18,18.94.06,1-.39,1.37-1.32,1.46-3.18.3-3.46.07-3.5-3.09A2.72,2.72,0,0,0,392.8,106.46Zm.24-6.95V96.83a1.19,1.19,0,0,0-1.27-1.38,21.22,21.22,0,0,0-8.19,1,6,6,0,0,0-3.73,8,4.18,4.18,0,0,0,3.65,3c2.8.4,5-.83,7.05-2.52C392.41,103.39,393.66,101.68,393,99.51Z"/><path class="cls-1" d="M201.55,94.46c0,5.25-.73,9.45-3.58,13-5.25,6.52-16.41,5.65-20.19-1.79a21.39,21.39,0,0,1,0-20c2.32-4.64,6.49-6.49,11.53-6.24,5.27.27,9,2.87,10.88,7.91A19.48,19.48,0,0,1,201.55,94.46Zm-21,1a18,18,0,0,0,1.31,7.86,6.72,6.72,0,0,0,6.44,4.42,6.52,6.52,0,0,0,6.81-4.27,20.83,20.83,0,0,0,.06-15.82,6.64,6.64,0,0,0-6.91-4.37,6.78,6.78,0,0,0-6.48,4.59A18.2,18.2,0,0,0,180.55,95.49Z"/><path class="cls-1" d="M401.7,95.64c0-4.45,0-8.9,0-13.34,0-2,.19-2.14,2.29-2.15,2.3,0,2.44.12,2.52,2.06,0,.69-.36,1.66.35,2s1.08-.62,1.58-1a14.53,14.53,0,0,1,6.75-3.59c5.17-.9,9,2,9.13,7.26.14,7.55,0,15.11.07,22.66,0,1.17-.53,1.66-1.66,1.63a11.05,11.05,0,0,0-1.15,0c-1.36.09-1.84-.56-1.83-1.89,0-6.22,0-12.44,0-18.65a14.55,14.55,0,0,0-.34-3.42,4.08,4.08,0,0,0-4.85-3.4c-3.36.35-5.65,2.39-7.66,4.85a3.26,3.26,0,0,0-.41,2.21c0,6,0,12,0,18.08,0,.73.23,1.72-.68,2a4.93,4.93,0,0,1-3.64-.1c-.64-.3-.46-1.09-.47-1.7C401.69,104.62,401.7,100.13,401.7,95.64Z"/><path class="cls-1" d="M317.83,111.13c-1.64.42-2.66-.61-3.53-2.22-1.78-3.28-3.74-6.46-5.57-9.71-.57-1-.94-1-1.55,0-2.15,3.51-4.34,7-6.54,10.47-.82,1.3-4.05,2.12-5.38,1.37-.75-.43-.22-.92,0-1.32,1.73-2.81,3.49-5.61,5.23-8.4,1.12-1.79,2.2-3.6,3.37-5.35a2.15,2.15,0,0,0,0-2.63c-2.35-3.72-4.65-7.47-7-11.22-.28-.47-.84-1-.51-1.54s1-.35,1.58-.39,1.15,0,1.72,0A2.3,2.3,0,0,1,302,81.47c1.69,3,3.43,5.87,5.16,8.79.23.39.32,1,.9,1s.64-.64.89-1c1.81-2.92,3.61-5.86,5.44-8.78.71-1.14,4-1.89,5.05-1.15.74.51.12,1-.15,1.46-2.31,3.64-4.57,7.31-7,10.85a3.1,3.1,0,0,0,0,4c2.63,4.11,5.13,8.3,7.65,12.48.31.5,1,1,.58,1.65s-1.13.33-1.73.39A9.9,9.9,0,0,1,317.83,111.13Z"/><path class="cls-1" d="M204.1,94.69A18.6,18.6,0,0,1,207.25,84c3.6-5,11.65-6.19,16.26-2.44a11.86,11.86,0,0,1,3.34,4.93A1,1,0,0,1,226.1,88c-.45.15-.92.27-1.36.45a1.49,1.49,0,0,1-2.23-1c-1-2.56-2.69-4.24-5.7-4.15a6.5,6.5,0,0,0-6.31,4.37,21.89,21.89,0,0,0,0,15.83,5.84,5.84,0,0,0,5.4,4.25,6.73,6.73,0,0,0,6.67-3.83c.33-.58.4-1.57,1.34-1.47a6.24,6.24,0,0,1,3.07,1.1c.42.31.18.79,0,1.19-1.84,4.22-5,6.74-9.65,7s-8.68-1.35-11-5.74C204.57,102.76,204.1,99.26,204.1,94.69Z"/><path class="cls-1" d="M334.26,107.78c2.92.08,4.85-1.41,6.19-3.87.31-.56.4-1.46,1.26-1.39a5.37,5.37,0,0,1,3,1.12c.39.32.15.82,0,1.2-1.63,3.56-4.1,6.07-8.18,6.64-7.14,1-12.07-2.23-13.79-9.21a26.54,26.54,0,0,1,.19-13.76c2.1-7.37,8.1-10,14.6-8.78,3.83.72,5.87,3.52,7.2,6.94a.84.84,0,0,1,.07.55c-.57,1.11-1.79.93-2.72,1.31a1,1,0,0,1-1.44-.52c-.13-.31-.26-.62-.41-.92-.94-2-2.26-3.57-4.65-3.76a6.61,6.61,0,0,0-6.48,2.85,8.42,8.42,0,0,0-1.26,2.57,23.87,23.87,0,0,0,.31,14.53C329.25,106.39,331.27,107.79,334.26,107.78Z"/><path class="cls-1" d="M162.75,96.14c0-2.73,0-5.45,0-8.18,0-1.29-.53-1.86-1.8-1.78a8.42,8.42,0,0,1-.87,0c-1.67,0-1.89-.32-1.95-1.91-.05-1.42.62-1.89,1.92-1.8.43,0,.86,0,1.29,0,1,0,1.39-.51,1.39-1.44,0-1.48.06-3,0-4.44a2.2,2.2,0,0,1,1.57-2.4c3.27-1.38,3.26-1.42,3.26,2.17,0,1.34,0,2.68,0,4,0,1.87.24,2.08,2.06,2.11,1.24,0,2.48,0,3.73,0s1.42.84,1.43,1.84-.15,1.85-1.43,1.85-2.58,0-3.87,0-1.94.45-1.93,1.83c.05,5.35,0,10.71.07,16.06,0,2.85,1.07,3.75,3.91,3.67a13.8,13.8,0,0,0,1.56-.18c.7-.09,1.52-.72,1.9.46a2.58,2.58,0,0,1-.88,3c-5.58,2.6-11.26-.9-11.36-7,0-2.63,0-5.26,0-7.89Z"/><image width="256" height="256" transform="scale(0.49)" xlink:href="lse_128x128@2x.png"/></svg>