<svg id="Layer_1" data-name="Layer 1" xmlns="http://www.w3.org/2000/svg" viewBox="0 0 465.17 73.37"><defs><style>.cls-1{fill:#0d2190;}.cls-2{fill:#0372ce;}</style></defs><path class="cls-1" d="M125.29,46.41c0,8.34,0,16.69,0,25,0,1.39-.37,1.71-1.72,1.58-11-1-17.91-8.48-17.93-19.54,0-7.94,0-15.89,0-23.83a29.9,29.9,0,0,0-.74-6.93c-1.23-5.17-5.22-7.29-10.94-5.8-4.91,1.28-8,4.59-9.93,9.07a28,28,0,0,0-2.32,11.25c0,11,0,21.91,0,32.86,0,1.4-.33,1.84-1.78,1.81q-8-.14-16,0c-1.46,0-1.78-.46-1.78-1.83,0-13.34,0-26.68,0-40a22.65,22.65,0,0,0-1.41-8.85,7,7,0,0,0-5.74-4.49c-6.48-1-12.41,2.59-15.21,9.23a28.28,28.28,0,0,0-2.1,11.13c0,11,0,22,0,33,0,1.41-.35,1.82-1.79,1.8-5.28-.09-10.56-.11-15.84,0-1.68,0-1.93-.55-1.92-2,.05-16.17,0-32.35,0-48.52,0-2.74.29-2.4-2.49-2.41-4.77,0-9.54,0-14.31,0C.37,19,0,18.66,0,17.54.05,12.37,0,7.21,0,2,0,1.36,0,.78,1,.81c5.84.17,11.71-.48,17.52.4,6.82,1,11.4,5.2,14.73,11a41,41,0,0,1,2.92,6.69c.18.5.14,1.28.92,1.23s.61-.75.77-1.2c2-5.69,4.82-10.84,9.84-14.36,7.14-5,14.89-6,22.89-2.39,5.6,2.53,8.29,7.5,9.69,13.25.26,1,.39,2.12.58,3.18.06.33,0,.74.45.82s.66-.31.82-.69c.66-1.56,1.22-3.18,2-4.69C87.55,7.26,92.65,2.3,100.32.7c8.09-1.68,16,.08,20.47,6.55,3,4.29,4,9.21,4.38,14.3.06.74.12,1.48.12,2.21Z"/><path class="cls-2" d="M203.28,71.89c-6.51,0-12.62,0-18.73,0-1.28,0-1.6-1.17-2-2.07a26.78,26.78,0,0,1-1.83-8.1c-.07-.72-.14-1.44-.21-2.14-.81-.07-.79.53-1,.88-4.25,8.72-12.5,13.46-22.28,12.86-5.16-.32-9.92-1.59-14-5-7.53-6.47-9-23,2.64-30.1,5.13-3.13,10.77-4.71,16.56-5.94,4.72-1,9.45-1.91,14.09-3.26,3.61-1.05,4-1.69,3.56-5.45-.64-5.12-3.8-8.1-9.19-8.58-7.86-.69-14,2-17.89,9.13-.41.74-.72.83-1.42.44-4.19-2.27-8.37-4.55-12.59-6.76-1-.54-.88-1.07-.41-1.88A27.43,27.43,0,0,1,151.36,4.43a44.53,44.53,0,0,1,33.17-1.89c8.43,2.76,12.86,9.07,14.33,17.63a40.81,40.81,0,0,1,.5,6.44c.12,10.78-.35,21.56.34,32.33a35.8,35.8,0,0,0,1.78,9.84A11.9,11.9,0,0,0,203.28,71.89ZM180.3,42c0-2.2,0-3.73,0-5.26,0-.92-.14-1.35-1.12-.66a17.86,17.86,0,0,1-4.66,2c-3.12,1-6.34,1.77-9.35,3.11-2.72,1.22-5.27,2.67-6.95,5.26-2.81,4.3-1.77,12.87,6.25,13.56a12.66,12.66,0,0,0,9.54-3.3C178.74,52.72,181,47.61,180.3,42Z"/><path class="cls-2" d="M343.84,71.64c-.59.46-1.18.25-1.72.25-5.22,0-10.44,0-15.66,0a2.8,2.8,0,0,1-3-1.9,31.29,31.29,0,0,1-1.93-8.43,5.62,5.62,0,0,0-.3-2.12c-.56-.12-.54.32-.67.59a22.41,22.41,0,0,1-22.38,13.24,24.4,24.4,0,0,1-11.37-3.11c-6.51-3.91-9.7-11.88-8.17-20.15C280,42.68,285,38.55,291.4,35.74c5.19-2.26,10.73-3.24,16.22-4.42a89.8,89.8,0,0,0,11.05-2.79c2.35-.82,2.51-1.13,2.44-3.57-.17-6.17-3.7-9.72-9.88-10.08-7.69-.46-13.61,2.34-17.34,9.24-.36.65-.67.78-1.32.42q-6.44-3.48-12.89-6.92c-1.06-.56-.49-1.2-.14-1.81A27,27,0,0,1,289.69,5.74C297.09,1.43,305.16.09,313.6.38A36.29,36.29,0,0,1,326.54,3c9.52,4,13.26,11.8,13.53,21.51.26,9.13.05,18.27.12,27.41a72.41,72.41,0,0,0,1.21,13.7A16.31,16.31,0,0,0,343.84,71.64ZM321.12,42V36.54c0-.62-.12-1.06-.87-.58-3.26,2.08-7.06,2.69-10.64,3.92s-7,2.47-9.55,5.31A9.13,9.13,0,0,0,298.3,55c1.23,3.34,3.93,4.92,7.38,5.07a13.11,13.11,0,0,0,9.59-3.71C319.71,52.34,321.79,47.35,321.12,42Z"/><path class="cls-2" d="M249.24,16.58H222.79c-2.89,0-5.79,0-8.68,0-1.06,0-1.55-.22-1.54-1.4q.09-6,0-11.92c0-1.16.44-1.42,1.51-1.42q26.65,0,53.31,0c1.17,0,1.58.34,1.57,1.55q-.1,6.3,0,12.6a3.26,3.26,0,0,1-1.12,2.35q-16.74,18-33.45,36.05c-.53.57-1.59,1.17-1.32,1.81.35.86,1.52.38,2.31.38,10.85,0,21.69.06,32.53,0,1.53,0,1.91.42,1.87,1.9-.11,3.91-.1,7.83,0,11.74,0,1.41-.47,1.7-1.76,1.7q-27.49-.06-55,0c-1.57,0-1.9-.52-1.87-2,.1-3.57.08-7.15,0-10.73a3.56,3.56,0,0,1,1.09-2.7q18-19.19,35.93-38.4A3.34,3.34,0,0,0,249.24,16.58Z"/><path class="cls-2" d="M437.25,73.37c-8.08.1-16.1-1.64-23.15-6.75a26.46,26.46,0,0,1-6-6.19c-.61-.86-.47-1.29.3-1.92,3.18-2.65,6.34-5.33,9.45-8.06.88-.78,1.29-.68,1.95.25,3.88,5.44,9.06,8.63,15.86,8.89a13.07,13.07,0,0,0,6-1.05c4.29-1.93,5.05-6.69,1.54-9.84-2.95-2.64-6.67-3.8-10.28-5.13-4.36-1.62-8.78-3-12.86-5.34-13.29-7.53-13.17-25.31-.27-33.1,6.51-3.93,13.67-5,21.12-4.53,6.64.4,12.88,2.05,18.19,6.31a32.86,32.86,0,0,1,4.68,4.68c.62.74.55,1.2-.18,1.81-3.28,2.79-6.56,5.59-9.77,8.48-.92.83-1.19.46-1.72-.35A15.42,15.42,0,0,0,439.23,14a10.92,10.92,0,0,0-7,1.76,5.46,5.46,0,0,0-1,8.43,14.52,14.52,0,0,0,5.05,3.38c4.39,2,9.07,3.27,13.52,5.11s8.41,4,11.46,7.7c5.61,6.86,6.14,21.14-5.2,28.1C450.45,72,444.22,73.16,437.25,73.37Z"/><path class="cls-2" d="M362.46,44.33c0-8.57,0-17.14,0-25.71,0-1.52-.43-1.9-1.91-1.86-3.92.1-7.84,0-11.75.06-1.21,0-1.54-.37-1.52-1.55q.09-5.86,0-11.75c0-1.21.38-1.54,1.55-1.53q14.75.06,29.47,0c1.37,0,1.55.53,1.56,1.71.1,7.67-.39,15.31-.69,23a2.12,2.12,0,0,0,0,.5c.13.56-.38,1.54.33,1.6s.52-.94.62-1.49c1.26-6.94,3.19-13.61,7.83-19.15A19.68,19.68,0,0,1,404.52.93c.94,0,1.14.41,1.14,1.24,0,6.75,0,13.51,0,20.26,0,1.13-.47,1.3-1.43,1.29a44.57,44.57,0,0,0-10.5.67,13.61,13.61,0,0,0-10.41,9.06,34.83,34.83,0,0,0-1.8,12.06q-.07,12.35,0,24.69c0,1.3-.29,1.76-1.69,1.74q-7.74-.14-15.49,0c-1.48,0-1.95-.36-1.94-1.89C362.5,61.47,362.46,52.9,362.46,44.33Z"/></svg>