<?xml version="1.0" encoding="UTF-8"?>
<svg id="Layer_2" data-name="Layer 2" xmlns="http://www.w3.org/2000/svg" viewBox="0 0 2668.78 479.53">
  <defs>
    <style>
      .cls-1 {
        fill: #ffb10a;
        stroke-width: 0px;
      }
    </style>
  </defs>
  <path class="cls-1" d="m2644.91,200.69c-189.78-10.02-377.19-79.43-527.69-195.46-11.04-8.48-26.83-6.44-35.34,4.57-8.48,11.02-6.44,26.84,4.57,35.34,90.99,70.13,194.8,124.05,304.53,159.3H104.82c-13.91,0-25.19,11.28-25.19,25.19s11.27,25.19,25.19,25.19h2320.03c-116.48,37.6-219.58,91.35-293.66,183.77-8.69,10.86-6.95,26.71,3.9,35.42,4.66,3.72,10.22,5.53,15.74,5.53,7.38,0,14.69-3.23,19.68-9.43,106.67-133.11,287.07-179.83,478.2-219.59,12.4-2.57,20.94-13.95,19.99-26.58-.97-12.63-11.15-22.56-23.79-23.24Z"/>
  <path class="cls-1" d="m1190.48,178.01c13.9,0,25.19-11.28,25.19-25.19s-11.28-25.19-25.19-25.19h-239.27c-13.91,0-25.19,11.28-25.19,25.19s11.27,25.19,25.19,25.19h239.27Z"/>
  <path class="cls-1" d="m1261.84,178.01c4.36,0,8.53-1.24,12.24-3.32,2.73,1.02,5.66,1.65,8.74,1.65h46.18c13.91,0,25.19-11.28,25.19-25.19s-11.28-25.19-25.19-25.19h-46.18c-4.64,0-8.93,1.34-12.66,3.53-8.89-2.92-19.38-1.22-26.13,5.52-1.16,1.18-2.18,2.53-3.18,3.87-.84,1.34-1.69,2.85-2.36,4.36-.49,1.51-1,3.02-1.33,4.71-.34,1.51-.51,3.18-.51,4.87,0,6.71,2.69,13.1,7.38,17.79,2.36,2.36,5.05,4.2,8.07,5.54,3.18,1.18,6.38,1.85,9.74,1.85Z"/>
  <path class="cls-1" d="m25.19,201.53c-13.91,0-25.19,11.28-25.19,25.19v4.2c0,13.91,11.27,25.19,25.19,25.19s25.19-11.28,25.19-25.19v-4.2c0-13.91-11.27-25.19-25.19-25.19Z"/>
</svg>