<?xml version="1.0" encoding="UTF-8"?>
<svg id="Layer_2" data-name="Layer 2" xmlns="http://www.w3.org/2000/svg" viewBox="0 0 1426.71 2042.25">
  <defs>
    <style>
      .cls-1 {
        fill: #ffb10a;
        stroke-width: 0px;
      }
    </style>
  </defs>
  <path class="cls-1" d="m1365.02,11.91c70.66,145.89,57.54,326.84-33.43,461-35.62,52.54-82.33,96.64-135.69,130.16-8.16-4.82-16.51-9.38-25.02-13.62-87.67-43.77-181.28-51.27-263.59-21.11-21.6,7.91-50.5,26.36-60.84,52.33-5.09,12.81-4.68,25.83,1.2,37.65,9.72,19.53,31.58,30.26,66.84,32.8,98.4,7.1,197.35-18.28,281.36-68.6,63.36,39.32,116.65,97.67,146.81,168.75,64.91,153,31.18,348.49-85.94,498.03-56.78,72.5-123.3,122.08-192.36,143.36-7.64,2.36-15.34,4.34-23.06,5.98-45.38-53.73-107.36-93.27-175.9-110.5-25-6.28-42.92-3.02-53.27,9.68-15.81,19.43-2.9,47.01,15.79,64.43,51.38,47.88,129.72,67.86,206.82,54.52,14.14,17.8,26.4,37.12,36.42,57.64,40.9,83.84,42.77,184.82,5.01,270.11-46.25,104.46-152.75,186.61-284.88,219.75-131.09,32.88-268.69,16.91-373.91-.68-40.89-6.84-82.36-14.91-122.47-22.73-77.81-15.15-158.12-30.69-238.62-38.17l129.45-28.36c4.47-.98,7.32-5.4,6.32-9.87-.98-4.47-5.4-7.31-9.88-6.33l-175.66,38.48c-3.71.81-6.39,4.04-6.51,7.84,0,.1,0,.19,0,.28,0,3.68,2.45,6.93,6.01,7.96,55.03,15.75,105.13,45.85,144.88,87.03,3.18,3.3,8.43,3.39,11.73.21,3.31-3.19,3.39-8.44.21-11.73-26.51-27.47-57.43-50.2-91.25-67.41,74.09,7.91,148.2,22.33,220.15,36.35,40.21,7.83,81.79,15.93,122.9,22.8,106.82,17.86,246.62,34.04,380.69.42,137.05-34.38,247.71-120.04,296.01-229.13,39.72-89.72,37.75-195.92-5.27-284.09-9.33-19.11-20.5-37.23-33.26-54.12,5.5-1.34,10.98-2.84,16.44-4.52,72.31-22.29,141.65-73.8,200.53-148.98,120.79-154.23,155.38-356.27,88.15-514.74-29.06-68.51-81.26-129.37-146.47-172.02,52.48-34.16,98.45-78.33,133.85-130.53,94.23-138.97,107.83-326.41,34.63-477.54-2-4.12-6.96-5.85-11.08-3.85s-5.85,6.96-3.85,11.08Zm-525.79,1378.19c-10.62-9.89-23.87-30-14.24-41.83,7.38-9.07,23.85-7.21,36.36-4.07,62.01,15.58,118.36,50.37,160.85,97.72-68.87,9.3-137.48-9.42-182.98-51.82Zm340.28-777.2c-79.39,45.54-171.86,68.29-263.82,61.66-28.91-2.08-46.3-9.81-53.19-23.64-3.83-7.69-4.03-15.58-.64-24.12,6.63-16.66,27.66-34.3,51.13-42.9,85.3-31.25,183.27-17.17,266.51,29Z"/>
  <path class="cls-1" d="m1392.8,1184.08c-13.61,66.47-52.04,128.6-105.44,170.46-2.09,1.64-3.18,4.08-3.18,6.55,0,1.78.58,3.58,1.77,5.09,2.82,3.61,8.04,4.24,11.64,1.41,56.45-44.24,97.07-109.92,111.45-180.19.92-4.46-1.97-8.87-6.46-9.79-4.49-.92-8.87,1.97-9.79,6.46Z"/>
  <path class="cls-1" d="m1250.02,1387.46c.01,4.58,3.73,8.29,8.31,8.27h2.76c4.58-.02,8.29-3.74,8.27-8.32s-3.73-8.29-8.31-8.27h-2.76c-4.58.02-8.29,3.74-8.27,8.32Z"/>
  <path class="cls-1" d="m1097.53,529.93c1.77-4.23-.22-9.09-4.45-10.85-63.13-26.44-137.94-25.13-200.11,3.5-3.04,1.41-4.83,4.42-4.83,7.56,0,1.16.25,2.33.76,3.44,1.92,4.16,6.84,5.98,11,4.07,58.02-26.72,127.84-27.94,186.76-3.27,4.22,1.77,9.08-.22,10.85-4.44Z"/>
  <path class="cls-1" d="m852.79,553.48c.01,4.58,3.73,8.29,8.31,8.27s8.29-3.73,8.27-8.31v-2.76c-.02-4.58-3.74-8.29-8.32-8.27s-8.29,3.73-8.27,8.31v2.76Z"/>
  <path class="cls-1" d="m849.84,1451.31c-1.06,1.47-1.56,3.17-1.56,4.85,0,2.57,1.21,5.11,3.45,6.73,35.82,25.72,81.55,38.02,125.44,33.73,4.56-.45,7.93-4.49,7.45-9.06-.45-4.56-4.5-7.89-9.06-7.45-39.94,3.91-81.55-7.28-114.15-30.7-3.72-2.67-8.9-1.82-11.57,1.9Z"/>
</svg>