<?xml version="1.0" encoding="UTF-8"?>
<svg id="Layer_2" data-name="Layer 2" xmlns="http://www.w3.org/2000/svg" viewBox="0 0 1832.4 2022.95">
  <defs>
    <style>
      .cls-1 {
        fill: #ffb10a;
        stroke-width: 0px;
      }
    </style>
  </defs>
  <path class="cls-1" d="m1205.28,255.37C866.44,60.64,417.33,103.5,115.71,346.97c62.58-106.78,132.69-209.28,210.34-305.41,8.86-10.96,7.17-27.01-3.81-35.89-10.97-8.86-27.03-7.15-35.89,3.81C177.37,144.41,81.97,291.07,2.81,445.43c-2.61,5.09-3.37,10.76-2.42,16.12.89,4.97,3.25,9.7,6.98,13.47,7.76,7.85,19.68,9.81,29.54,4.88,138.32-69.09,299.29-99.41,453.25-85.38,14.03,1.28,26.45-9.05,27.73-23.08,1.23-14.07-9.07-26.46-23.1-27.73-113.02-10.3-226.21,1.36-334.05,33.19,283.71-217.81,708.49-255.8,1019.11-77.28,345.9,198.78,531.32,655.06,422.11,1038.81-80.96,284.43-288.64,493.6-533.56,626.95v57.57c266.34-138.58,494.9-362.28,582.64-670.55,117.29-411.99-74.37-883.63-445.77-1097.03Z"/>
  <path class="cls-1" d="m1619.88,1623.67c-1.38-7.74.83-16.01,6.68-22.13,114.99-120.24,172.38-297.34,149.75-462.17-1.92-13.97,7.85-26.85,21.82-28.76,13.96-1.91,26.52,7.8,28.75,21.81,25.06,182.62-36.03,371.19-163.43,504.4-9.74,10.19-25.89,10.54-36.08.81-4.07-3.9-6.56-8.8-7.48-13.96Z"/>
  <path class="cls-1" d="m1550.03,1707.44l8.37-1.49c13.88-2.47,27.13,6.78,29.6,20.65,2.47,13.87-6.77,27.13-20.65,29.6l-8.37,1.49c-13.88,2.47-27.13-6.78-29.6-20.65-2.47-13.87,6.77-27.13,20.65-29.6Z"/>
</svg>