<svg id="Layer_1" data-name="Layer 1" xmlns="http://www.w3.org/2000/svg" viewBox="0 0 434.65 89.76"><defs><style>.cls-1{fill:#001efe;}.cls-2{fill:#010101;}</style></defs><path class="cls-1" d="M337.75,89.76c0-.32-.06-.63-.06-1q0-43.9,0-87.81c0-.77.16-1,1-1q44,0,88,0c.87,0,1,.24,1,1.05-.06,2.66-.05,5.32,0,8,0,.77-.18,1-1,1q-26.57,0-53.14,0h-24.7c-1.21,0-1.21,0-1.21,1.26V89.76Z"/><path class="cls-1" d="M420.38,89.76c-.1-.36-.42-.54-.66-.77L371.44,40.83a7.36,7.36,0,0,0-.81-.64c.3-.34.55-.23.76-.23q27.69,0,55.39,0c.73,0,.91.2.9.91,0,2.72-.06,5.44,0,8.16,0,.81-.26.93-1,.92q-15.34,0-30.69,0h-1c.06.43.37.58.58.79L434,89c.23.24.56.41.65.78Z"/><path class="cls-2" d="M0,22.76c6,0,12,0,18,0a17.83,17.83,0,0,1,5.23.75,11.5,11.5,0,0,1,8.43,10.71,15.46,15.46,0,0,1-.45,5.5,10.14,10.14,0,0,1-7.06,7.13c-.62.2-.73.35-.42,1,3,6.06,6,12.14,9,18.22l.47,1c-2.28,0-4.48-.14-6.65,0-1.71.15-2.48-.44-3.16-2-2.27-5.24-4.75-10.39-7.12-15.58a1.06,1.06,0,0,0-1.16-.72q-3.18.06-6.35,0c-.63,0-.76.18-.76.78,0,5.55,0,11.1,0,16.66,0,.65-.13.87-.83.85C4.81,67,2.41,67,0,67Zm8,13c0,2,0,4,0,6.08,0,.34,0,.61.48.6,3.12-.09,6.26.18,9.38-.21,3.92-.49,5.74-2.43,5.87-6.2.12-3.26-1.44-5.58-4.32-6.42A9.44,9.44,0,0,0,17,29.17c-2.75,0-5.5,0-8.26,0-.53,0-.68.14-.68.68C8.06,31.78,8,33.75,8,35.71Z"/><path class="cls-2" d="M150.11,34.47V56.59c0,3.24,0,6.48,0,9.72,0,.61-.17.77-.77.76q-3-.06-6.09,0c-.52,0-.68-.1-.68-.66q0-21.47,0-42.94c0-.53.13-.69.67-.68,2.32,0,4.64,0,7,0a1.27,1.27,0,0,1,1.29.74q8.58,14.89,17.22,29.75c.14.25.28.48.55.94,0-.52,0-.82,0-1.11,0-9.8,0-19.61,0-29.41,0-.77.18-1,.95-.94,2,.06,3.94,0,5.91,0,.53,0,.74.09.74.69q0,21.44,0,42.86c0,.54-.1.75-.7.74-2.14,0-4.29-.05-6.43,0a1.12,1.12,0,0,1-1.12-.7q-9-15.62-18-31.23l-.42-.7Z"/><path class="cls-2" d="M42.52,44.89c0-7.08,0-14.17,0-21.25,0-.72.18-.9.9-.9q13.74,0,27.48,0c.63,0,.83.12.81.79-.06,1.71,0,3.42,0,5.12,0,.61-.16.75-.76.75-6.5,0-13,0-19.48,0-.71,0-.93.15-.92.89,0,3.18,0,6.36,0,9.54,0,.65.13.87.83.86,4.61,0,9.22,0,13.83,0,.58,0,.79.11.77.74,0,1.74,0,3.47,0,5.21,0,.58-.17.7-.72.7-4.58,0-9.16,0-13.74,0-.85,0-1,.28-1,1,0,3.7,0,7.41,0,11.11,0,.8.14,1.06,1,1.06,6.67,0,13.33,0,20,0,.65,0,.88.13.86.83-.06,1.7,0,3.41,0,5.12,0,.48,0,.7-.63.7q-14.31,0-28.61,0c-.71,0-.63-.36-.63-.8Z"/><path class="cls-2" d="M266.88,22.76c2.42,0,4.85,0,7.28,0,.59,0,.56.41.65.72q2.47,8.47,4.92,17,2.52,8.73,5,17.45c.06.22.15.43.28.81.74-2.56,1.45-5,2.14-7.37q4-13.94,8-27.86c.16-.54.37-.72.94-.71,2.34,0,4.69,0,7.14,0-.56,1.85-1.1,3.63-1.65,5.41q-5.89,19-11.79,38.1c-.16.53-.33.79-1,.77-2.58-.05-5.16,0-7.74,0a.75.75,0,0,1-.88-.65Q273.63,44.92,267,23.48A1.21,1.21,0,0,1,266.88,22.76Z"/><path class="cls-2" d="M83.32,44.85c0-7.09,0-14.17,0-21.26,0-.69.18-.84.85-.84q13.18,0,26.35,0c.64,0,.9.1.87.82-.06,1.68-.05,3.36,0,5,0,.65-.16.8-.81.79-6.11,0-12.23,0-18.35,0-.71,0-.91.15-.9.89,0,3.18,0,6.36,0,9.54,0,.64.11.87.83.86,4.43,0,8.87,0,13.3,0,.76,0,.9.22.87.91,0,1.68,0,3.36,0,5,0,.56-.14.71-.71.71-4.43,0-8.87,0-13.3,0-.74,0-1,.12-1,.93,0,6,0,12,0,18,0,.62-.11.84-.79.82-2.17-.05-4.35,0-6.52,0-.62,0-.76-.16-.76-.76C83.33,59.14,83.32,52,83.32,44.85Z"/><path class="cls-2" d="M228,48.22c0,6,0,12,0,18,0,.66-.14.88-.84.86-2.11-.05-4.23-.07-6.35,0-.83,0-.91-.27-.91-1q0-12.49,0-25c0-3.58,0-7.17,0-10.76,0-.72-.12-1-.93-1-3.36.06-6.72,0-10.08,0-.6,0-.79-.13-.77-.75.05-1.73,0-3.47,0-5.2,0-.5.07-.7.65-.7q15.12,0,30.26,0c.48,0,.63.12.63.61,0,1.8,0,3.59,0,5.38,0,.58-.19.65-.69.65-3.42,0-6.84,0-10.26,0-.65,0-.81.16-.81.81C228.05,36.19,228,42.2,228,48.22Z"/><path class="cls-2" d="M190.36,44.8c0-7.06,0-14.11,0-21.17,0-.73.19-.91.9-.89,2.15.05,4.29,0,6.44,0,.58,0,.71.17.71.72q0,21.43,0,42.86c0,.57-.14.72-.72.71-2.17,0-4.34,0-6.52,0-.65,0-.81-.16-.81-.81C190.37,59.09,190.36,51.94,190.36,44.8Z"/><path class="cls-2" d="M129,44.89c0,7.11,0,14.23,0,21.34,0,.64-.13.82-.8.81-2.17-.05-4.34,0-6.52,0-.56,0-.72-.13-.72-.71q0-21.42,0-42.86c0-.57.15-.72.72-.71,2.17,0,4.35,0,6.52,0,.66,0,.8.16.8.8C128.94,30.66,129,37.77,129,44.89Z"/><path class="cls-2" d="M249.46,44.8c0-7.08,0-14.16,0-21.24,0-.62.1-.84.78-.82,2.17.05,4.35,0,6.52,0,.52,0,.73.07.73.68q0,21.47,0,42.92c0,.63-.22.69-.74.68-2.17,0-4.34,0-6.52,0-.69,0-.77-.22-.77-.82C249.47,59.08,249.46,51.94,249.46,44.8Z"/></svg>