<svg xmlns="http://www.w3.org/2000/svg" xmlns:xlink="http://www.w3.org/1999/xlink" viewBox="0 0 390.21 196.52"><defs><clipPath id="a"><rect width="285.31" height="70.38" fill="none"/></clipPath></defs><g clip-path="url(#a)"><path d="M75,24.94h28.89v5.42H92.51V60.79H86.26V30.36H75V24.94Zm27.65,9.89H108v5h.1a6,6,0,0,1,1-2.05A9.27,9.27,0,0,1,110.79,36a9.7,9.7,0,0,1,2.27-1.34,6.89,6.89,0,0,1,2.55-.5,13.63,13.63,0,0,1,1.38,0c.25,0,.5.07.78.1v5.51c-.4-.07-.8-.12-1.23-.17a8.79,8.79,0,0,0-1.24-.08,6.68,6.68,0,0,0-2.72.58,6.26,6.26,0,0,0-2.21,1.7,8.49,8.49,0,0,0-1.51,2.78,11.77,11.77,0,0,0-.56,3.82V60.76h-5.69V34.83Zm41.31,26h-5.59V57.17h-.1a7.81,7.81,0,0,1-3.13,3.14,8.53,8.53,0,0,1-4.23,1.19c-3.4,0-5.87-.84-7.38-2.53s-2.26-4.25-2.26-7.67V34.83h5.69V50.75c0,2.27.43,3.89,1.31,4.83A4.74,4.74,0,0,0,131.9,57a7,7,0,0,0,3-.55A5.14,5.14,0,0,0,136.84,55a5.87,5.87,0,0,0,1.08-2.23,10.88,10.88,0,0,0,.33-2.81v-15h5.69Zm9.7-8.32A4.36,4.36,0,0,0,155.53,56a7.53,7.53,0,0,0,3.95,1c.53,0,1.13-.05,1.81-.12a7.72,7.72,0,0,0,1.92-.48,3.65,3.65,0,0,0,1.48-1,2.5,2.5,0,0,0,.53-1.77,2.46,2.46,0,0,0-.8-1.8,5.71,5.71,0,0,0-1.92-1.13,18.44,18.44,0,0,0-2.67-.74c-1-.2-2-.43-3.05-.66a27.17,27.17,0,0,1-3.07-.86A9.42,9.42,0,0,1,151.07,47a6.09,6.09,0,0,1-1.87-2.18,6.91,6.91,0,0,1-.7-3.29,6,6,0,0,1,1-3.54,7.78,7.78,0,0,1,2.6-2.3,11.82,11.82,0,0,1,3.5-1.24,20.85,20.85,0,0,1,3.67-.35,17,17,0,0,1,3.83.43,9.61,9.61,0,0,1,3.3,1.39,8,8,0,0,1,2.44,2.48,8.62,8.62,0,0,1,1.24,3.69h-6a3.55,3.55,0,0,0-1.86-2.76,7.58,7.58,0,0,0-3.37-.71,10,10,0,0,0-1.44.11,7.89,7.89,0,0,0-1.56.37,3.56,3.56,0,0,0-1.24.81,2,2,0,0,0-.5,1.4,2.16,2.16,0,0,0,.73,1.69,6.27,6.27,0,0,0,1.89,1.09,18.5,18.5,0,0,0,2.67.73c1,.2,2,.43,3.1.66s2,.53,3,.86a9.23,9.23,0,0,1,2.67,1.37,6.28,6.28,0,0,1,2.61,5.36,7.06,7.06,0,0,1-1,3.92,8.58,8.58,0,0,1-2.72,2.61,12.9,12.9,0,0,1-3.73,1.46,18.26,18.26,0,0,1-4.06.46,17.14,17.14,0,0,1-4.53-.56,11,11,0,0,1-3.6-1.67,8.19,8.19,0,0,1-2.39-2.81,9.2,9.2,0,0,1-.94-4h5.75Zm18.79-17.64h4.3V27h5.69v7.79h5.14v4.28h-5.14V53a14.12,14.12,0,0,0,.08,1.57,3,3,0,0,0,.35,1.11,1.63,1.63,0,0,0,.83.69,4.14,4.14,0,0,0,1.52.22c.4,0,.8,0,1.2,0a7.07,7.07,0,0,0,1.21-.18v4.43c-.63.08-1.26.13-1.84.2a13.75,13.75,0,0,1-1.83.1,12.62,12.62,0,0,1-3.63-.43,4.73,4.73,0,0,1-2.14-1.26,4.39,4.39,0,0,1-1.06-2.08,15.63,15.63,0,0,1-.33-2.86V39.16h-4.3V34.83Zm19.16,0H197v3.52h.1a7.09,7.09,0,0,1,3.35-3.24,11,11,0,0,1,4.66-1,12.09,12.09,0,0,1,5.32,1.08,10.38,10.38,0,0,1,3.77,3,13.14,13.14,0,0,1,2.25,4.41A19.35,19.35,0,0,1,216.5,53a13.52,13.52,0,0,1-2,4.35,10,10,0,0,1-3.47,3,10.28,10.28,0,0,1-5,1.14,14,14,0,0,1-2.49-.23,10.68,10.68,0,0,1-2.39-.73A8.65,8.65,0,0,1,199,59.25a8.08,8.08,0,0,1-1.63-1.83h-.11v13h-5.69Zm19.9,13a13.05,13.05,0,0,0-.45-3.42,9.51,9.51,0,0,0-1.36-2.93,6.88,6.88,0,0,0-2.25-2.05,6.17,6.17,0,0,0-3.09-.79,6.27,6.27,0,0,0-5.42,2.51,11.13,11.13,0,0,0-1.81,6.68,12.77,12.77,0,0,0,.48,3.64A8.11,8.11,0,0,0,199,54.36a6.77,6.77,0,0,0,2.27,1.9,6.33,6.33,0,0,0,3.07.71,6.4,6.4,0,0,0,3.3-.81,7,7,0,0,0,2.22-2.07,8.66,8.66,0,0,0,1.26-2.91A16.82,16.82,0,0,0,211.49,47.84Zm10-22.9h5.69v5.42h-5.69Zm0,9.89h5.69v26h-5.69Zm10.78-9.89H238V60.79h-5.69ZM255.47,61.5a14.07,14.07,0,0,1-5.52-1,12.22,12.22,0,0,1-4.11-2.83,12.54,12.54,0,0,1-2.54-4.33,16.75,16.75,0,0,1-.88-5.51,16.56,16.56,0,0,1,.88-5.47A12.41,12.41,0,0,1,245.84,38,11.68,11.68,0,0,1,250,35.16a15.28,15.28,0,0,1,11,0,11.6,11.6,0,0,1,6.65,7.16,16.56,16.56,0,0,1,.88,5.47,16.75,16.75,0,0,1-.88,5.51,12.54,12.54,0,0,1-2.54,4.33A11.66,11.66,0,0,1,261,60.46,14.06,14.06,0,0,1,255.47,61.5Zm0-4.53a6.57,6.57,0,0,0,3.29-.81,7,7,0,0,0,2.3-2.1,9.54,9.54,0,0,0,1.33-2.93,13.11,13.11,0,0,0,0-6.66,8.81,8.81,0,0,0-1.33-2.93,7,7,0,0,0-2.3-2.08,7.11,7.11,0,0,0-6.59,0,7.19,7.19,0,0,0-2.3,2.08,9.23,9.23,0,0,0-1.33,2.93,13.11,13.11,0,0,0,0,6.66,9.1,9.1,0,0,0,1.33,2.93,7,7,0,0,0,2.3,2.1A6.29,6.29,0,0,0,255.47,57Zm14.7-22.14h4.31V27h5.69v7.79h5.14v4.28h-5.14V53a14.12,14.12,0,0,0,.08,1.57,3,3,0,0,0,.35,1.11,1.63,1.63,0,0,0,.83.69,4.12,4.12,0,0,0,1.51.22c.41,0,.81,0,1.21,0a7.07,7.07,0,0,0,1.21-.18v4.43c-.63.08-1.26.13-1.84.2a13.9,13.9,0,0,1-1.84.1,12.55,12.55,0,0,1-3.62-.43,4.73,4.73,0,0,1-2.14-1.26,4.39,4.39,0,0,1-1.06-2.08,15.63,15.63,0,0,1-.33-2.86V39.16h-4.31V34.83Z"/><path d="M68.33,24.94H42.24L34.18,0,26.09,24.94,0,24.92,21.13,40.35,13.05,65.27,34.18,49.86l21.1,15.41L47.22,40.35Z" fill="#00b67a"/><path d="M49,46l-1.81-5.64-13,9.51Z" fill="#005128"/></g><path d="M312.79,54.66a3.78,3.78,0,0,0-.27-1.47,3.08,3.08,0,0,0-.91-1.15,6.28,6.28,0,0,0-1.67-1,21.13,21.13,0,0,0-2.61-.89,25,25,0,0,1-2.71-.94,10.1,10.1,0,0,1-2.07-1.16,4.33,4.33,0,0,1-1.76-3.61,4.46,4.46,0,0,1,.5-2.1,4.92,4.92,0,0,1,1.38-1.64,6.63,6.63,0,0,1,2.13-1.05,9.34,9.34,0,0,1,2.71-.38,7.73,7.73,0,0,1,3.62.8,5.85,5.85,0,0,1,2.37,2.16,5.48,5.48,0,0,1,.85,3h-1.68a4.37,4.37,0,0,0-.62-2.32,4.05,4.05,0,0,0-1.76-1.61,6,6,0,0,0-2.78-.59,6.74,6.74,0,0,0-2.78.51,3.86,3.86,0,0,0-1.68,1.33,3.16,3.16,0,0,0-.57,1.84,3.1,3.1,0,0,0,.28,1.32,3.33,3.33,0,0,0,.89,1.11,7.2,7.2,0,0,0,1.66,1,19.85,19.85,0,0,0,2.54.84,21.16,21.16,0,0,1,2.83,1,8.61,8.61,0,0,1,2.08,1.24,4.48,4.48,0,0,1,1.29,1.6,4.81,4.81,0,0,1,.44,2.14,4.55,4.55,0,0,1-.52,2.2,4.76,4.76,0,0,1-1.44,1.63,6.77,6.77,0,0,1-2.18,1,9.9,9.9,0,0,1-2.73.36A10.43,10.43,0,0,1,305,59.5a8.08,8.08,0,0,1-2.42-1,5.67,5.67,0,0,1-1.74-1.87,5.42,5.42,0,0,1-.65-2.72h1.68a4.12,4.12,0,0,0,.51,2.13,4,4,0,0,0,1.34,1.4,6.07,6.07,0,0,0,1.87.78,9,9,0,0,0,2.06.24,7.29,7.29,0,0,0,2.73-.47,4.24,4.24,0,0,0,1.8-1.3A3.19,3.19,0,0,0,312.79,54.66Zm18.93-1.32h1.68a7.94,7.94,0,0,1-1.11,3.49,6,6,0,0,1-2.47,2.24,8.37,8.37,0,0,1-3.77.78A7.21,7.21,0,0,1,323,59.2a6.87,6.87,0,0,1-2.36-1.82,8.41,8.41,0,0,1-1.52-2.86,11.87,11.87,0,0,1-.54-3.69v-2.5a11.8,11.8,0,0,1,.54-3.68,8.3,8.3,0,0,1,1.53-2.85A6.83,6.83,0,0,1,323,40a7.5,7.5,0,0,1,3.16-.65,8.09,8.09,0,0,1,3.68.79,5.82,5.82,0,0,1,2.44,2.22,7.9,7.9,0,0,1,1.11,3.51h-1.68a7.19,7.19,0,0,0-.85-2.74A4.4,4.4,0,0,0,329,41.37a6.16,6.16,0,0,0-2.87-.6,5.77,5.77,0,0,0-2.5.53,5.2,5.2,0,0,0-1.86,1.54,6.89,6.89,0,0,0-1.18,2.38,10.94,10.94,0,0,0-.4,3.08v2.53a11.53,11.53,0,0,0,.38,3,7.35,7.35,0,0,0,1.13,2.41,5.21,5.21,0,0,0,4.31,2.14,6.77,6.77,0,0,0,2.95-.57,4.23,4.23,0,0,0,1.85-1.7A7.27,7.27,0,0,0,331.72,53.34Zm21.68-4.83v2.14a12.19,12.19,0,0,1-.55,3.8,8.25,8.25,0,0,1-1.56,2.9,6.74,6.74,0,0,1-2.45,1.85,8.18,8.18,0,0,1-6.39,0A7,7,0,0,1,340,57.35a8.64,8.64,0,0,1-1.59-2.9,11.9,11.9,0,0,1-.56-3.8V48.51a12.13,12.13,0,0,1,.55-3.79A8.52,8.52,0,0,1,340,41.81,7,7,0,0,1,342.43,40a8.18,8.18,0,0,1,6.39,0,7,7,0,0,1,2.45,1.85,8.33,8.33,0,0,1,1.58,2.91A12.13,12.13,0,0,1,353.4,48.51Zm-1.67,2.14V48.48a11.51,11.51,0,0,0-.41-3.18,7,7,0,0,0-1.2-2.42,5.2,5.2,0,0,0-1.92-1.53,6,6,0,0,0-2.59-.54,5.78,5.78,0,0,0-2.54.54,5.48,5.48,0,0,0-1.93,1.53,7.31,7.31,0,0,0-1.2,2.42,11.15,11.15,0,0,0-.41,3.18v2.17a11.36,11.36,0,0,0,.41,3.21,7.12,7.12,0,0,0,1.22,2.43,5.39,5.39,0,0,0,1.92,1.54,5.88,5.88,0,0,0,2.55.54,6,6,0,0,0,2.6-.54,5.24,5.24,0,0,0,1.9-1.54,6.9,6.9,0,0,0,1.19-2.43A11.73,11.73,0,0,0,351.73,50.65Zm7-11.06h6.5a8.78,8.78,0,0,1,3.59.67,5.12,5.12,0,0,1,2.35,2,5.81,5.81,0,0,1,.84,3.21,5.48,5.48,0,0,1-.61,2.57A5.64,5.64,0,0,1,369.79,50,6.16,6.16,0,0,1,367.37,51l-.59.22h-6.93l0-1.44h5.81a5.19,5.19,0,0,0,2.61-.6,4.06,4.06,0,0,0,1.56-1.6,4.42,4.42,0,0,0,.54-2.14,4.52,4.52,0,0,0-.59-2.34A3.81,3.81,0,0,0,368,41.58a6.47,6.47,0,0,0-2.78-.54h-4.81V59.57h-1.69Zm12.34,20-5.17-8.93,1.81,0,5.16,8.78v.17Zm19.12-1.44v1.44H379V58.13ZM379.48,39.59v20h-1.69v-20Zm9.33,9V50H379V48.55Zm1.33-9V41H379V39.59Z"/><path d="M26.12,98.64h4.95a6.89,6.89,0,0,1,2.84.52,3.72,3.72,0,0,1,1.77,1.51,4.59,4.59,0,0,1,.62,2.45,4.19,4.19,0,0,1-.42,1.88,4.11,4.11,0,0,1-1.19,1.44,5.28,5.28,0,0,1-1.85.87l-.55.21H27.64l0-1.61h3.51a3.74,3.74,0,0,0,1.77-.37,2.61,2.61,0,0,0,1.07-1,2.79,2.79,0,0,0,.36-1.41,3.25,3.25,0,0,0-.34-1.5,2.32,2.32,0,0,0-1.07-1,4.12,4.12,0,0,0-1.85-.36h-3v13.31h-2Zm8.73,14.93-3.63-6.76h2.06L37,113.45v.12Zm9.37.21a5.46,5.46,0,0,1-2.1-.39,4.81,4.81,0,0,1-1.61-1.12,5.13,5.13,0,0,1-1-1.7,6.51,6.51,0,0,1-.35-2.15V108a6.75,6.75,0,0,1,.4-2.42,5.21,5.21,0,0,1,1.08-1.8,4.83,4.83,0,0,1,1.56-1.12,4.52,4.52,0,0,1,1.81-.38,4.81,4.81,0,0,1,2.05.41,3.82,3.82,0,0,1,1.42,1.15,5,5,0,0,1,.82,1.73,8.06,8.06,0,0,1,.27,2.15v.85H40.25V107h6.39v-.14a4.82,4.82,0,0,0-.31-1.44,2.57,2.57,0,0,0-.82-1.15,2.36,2.36,0,0,0-1.53-.45,2.52,2.52,0,0,0-1.19.28,2.48,2.48,0,0,0-.94.8,3.91,3.91,0,0,0-.6,1.3A6.37,6.37,0,0,0,41,108v.43a4.78,4.78,0,0,0,.22,1.48,3.78,3.78,0,0,0,.64,1.21,3.05,3.05,0,0,0,1,.82,3.12,3.12,0,0,0,1.39.3,3.38,3.38,0,0,0,1.71-.41,4.23,4.23,0,0,0,1.22-1.1l1.15.92a5.45,5.45,0,0,1-.92,1,4.22,4.22,0,0,1-1.36.8A5.18,5.18,0,0,1,44.22,113.78Zm10.6-1.92,3-9.38H59.8l-4,11.09H54.54Zm-2.53-9.38,3.13,9.43.21,1.66H54.36l-4-11.09Zm12.23,0v11.09h-1.9V102.48Zm-2-2.94a1.12,1.12,0,0,1,.28-.78,1.25,1.25,0,0,1,1.67,0,1.09,1.09,0,0,1,.3.78,1.05,1.05,0,0,1-.3.75,1.28,1.28,0,0,1-1.67,0A1.08,1.08,0,0,1,62.47,99.54ZM73,113.78a5.46,5.46,0,0,1-2.1-.39,4.81,4.81,0,0,1-1.61-1.12,5.13,5.13,0,0,1-1-1.7,6.51,6.51,0,0,1-.35-2.15V108a6.75,6.75,0,0,1,.4-2.42,5.21,5.21,0,0,1,1.08-1.8A4.83,4.83,0,0,1,71,102.65a4.52,4.52,0,0,1,1.81-.38,4.81,4.81,0,0,1,2,.41,3.82,3.82,0,0,1,1.42,1.15,5,5,0,0,1,.82,1.73,8.06,8.06,0,0,1,.27,2.15v.85H69V107h6.39v-.14a4.82,4.82,0,0,0-.31-1.44,2.57,2.57,0,0,0-.82-1.15,2.36,2.36,0,0,0-1.53-.45,2.52,2.52,0,0,0-1.19.28,2.48,2.48,0,0,0-.94.8,3.91,3.91,0,0,0-.6,1.3,6.77,6.77,0,0,0-.22,1.78v.43A5.09,5.09,0,0,0,70,109.9a3.78,3.78,0,0,0,.64,1.21,3.05,3.05,0,0,0,1,.82,3.15,3.15,0,0,0,1.39.3,3.38,3.38,0,0,0,1.71-.41,4.23,4.23,0,0,0,1.22-1.1l1.15.92a5.45,5.45,0,0,1-.92,1,4.22,4.22,0,0,1-1.36.8A5.18,5.18,0,0,1,73,113.78Zm10.18-2.17L86,102.48H87.3l-.25,1.81-2.9,9.28H82.93Zm-1.91-9.13,2.43,9.23.17,1.86H82.6l-3.22-11.09ZM90,111.64l2.32-9.16h1.89L91,113.57H89.74Zm-2.45-9.16,2.79,9,.32,2.12H89.47l-3-9.3-.25-1.79Zm15.9,8.15a1.64,1.64,0,0,0-.18-.76,1.57,1.57,0,0,0-.73-.64,6.08,6.08,0,0,0-1.64-.52,12.91,12.91,0,0,1-1.67-.46,5.3,5.3,0,0,1-1.26-.64,2.69,2.69,0,0,1-.79-.9,2.53,2.53,0,0,1-.28-1.2,2.82,2.82,0,0,1,.29-1.24,3.25,3.25,0,0,1,.83-1,4.07,4.07,0,0,1,1.3-.71,5.3,5.3,0,0,1,1.69-.26,5,5,0,0,1,2.28.48,3.52,3.52,0,0,1,1.45,1.26,3.15,3.15,0,0,1,.5,1.73h-1.9a1.63,1.63,0,0,0-.27-.89,2.07,2.07,0,0,0-.79-.73,2.62,2.62,0,0,0-1.27-.29,2.81,2.81,0,0,0-1.28.25,1.68,1.68,0,0,0-.7.6,1.49,1.49,0,0,0-.22.78,1.07,1.07,0,0,0,.49,1,3.57,3.57,0,0,0,.78.37c.34.11.76.23,1.28.35a10.62,10.62,0,0,1,2.25.73,3.31,3.31,0,0,1,1.31,1.06,2.59,2.59,0,0,1,.43,1.52,2.83,2.83,0,0,1-.31,1.33,2.88,2.88,0,0,1-.87,1.05,4.26,4.26,0,0,1-1.35.67,5.92,5.92,0,0,1-1.75.24,5.52,5.52,0,0,1-2.49-.52,3.78,3.78,0,0,1-1.53-1.36,3.23,3.23,0,0,1-.53-1.75h1.91a2,2,0,0,0,.45,1.24,2.45,2.45,0,0,0,1,.65,4,4,0,0,0,1.18.18,3.5,3.5,0,0,0,1.3-.21,1.81,1.81,0,0,0,.81-.56A1.32,1.32,0,0,0,103.47,110.63Zm17.31-12.07v15h-1.9V100.93l-3.82,1.39v-1.71l5.42-2Zm15.79,6.36v2.27a12.41,12.41,0,0,1-.33,3.1,5.24,5.24,0,0,1-.94,2,3.61,3.61,0,0,1-1.49,1.12,5.16,5.16,0,0,1-1.94.34,5.32,5.32,0,0,1-1.59-.22,3.77,3.77,0,0,1-1.32-.68,4.08,4.08,0,0,1-1-1.26,7,7,0,0,1-.63-1.86,13.83,13.83,0,0,1-.21-2.57v-2.27a12.19,12.19,0,0,1,.33-3.08,5.27,5.27,0,0,1,.95-2,3.49,3.49,0,0,1,1.48-1.08,5.46,5.46,0,0,1,1.95-.33,5.67,5.67,0,0,1,1.59.21,3.66,3.66,0,0,1,1.32.67,3.83,3.83,0,0,1,1,1.21,6.71,6.71,0,0,1,.63,1.84A13.52,13.52,0,0,1,136.57,104.92Zm-1.91,2.58v-2.9a11.31,11.31,0,0,0-.12-1.76,5.18,5.18,0,0,0-.34-1.31,2.63,2.63,0,0,0-.57-.89,2.1,2.1,0,0,0-.79-.49,2.82,2.82,0,0,0-1-.16,2.65,2.65,0,0,0-1.2.25,2.23,2.23,0,0,0-.89.79,4.24,4.24,0,0,0-.53,1.43,10.89,10.89,0,0,0-.18,2.14v2.9a11.87,11.87,0,0,0,.11,1.78,5.69,5.69,0,0,0,.36,1.33,3,3,0,0,0,.57.91,2.28,2.28,0,0,0,.78.54,2.87,2.87,0,0,0,1,.16,2.64,2.64,0,0,0,1.22-.27,2.22,2.22,0,0,0,.87-.83,4.37,4.37,0,0,0,.53-1.46A11.26,11.26,0,0,0,134.66,107.5Zm7.12,3.82v1.53a4.79,4.79,0,0,1-.47,2,4.91,4.91,0,0,1-1.32,1.75l-1.08-.75a5.88,5.88,0,0,0,.55-.92,4.14,4.14,0,0,0,.34-1,4.36,4.36,0,0,0,.12-1v-1.56Zm12.7-12.68v1.07l-6.18,13.86h-2l6.17-13.37h-8.08V98.64ZM167.27,112v1.56H157.5v-1.36l4.89-5.45a16.47,16.47,0,0,0,1.39-1.7,5.11,5.11,0,0,0,.7-1.26,3.25,3.25,0,0,0,.21-1.15,2.93,2.93,0,0,0-.31-1.33,2.32,2.32,0,0,0-.88-1,2.65,2.65,0,0,0-1.42-.36,3.24,3.24,0,0,0-1.66.39,2.34,2.34,0,0,0-1,1.06,3.63,3.63,0,0,0-.33,1.58h-1.9a5,5,0,0,1,.55-2.31,4.12,4.12,0,0,1,1.65-1.66,5.33,5.33,0,0,1,2.67-.62,5.44,5.44,0,0,1,2.42.5,3.55,3.55,0,0,1,1.54,1.4,3.94,3.94,0,0,1,.54,2.09,4.21,4.21,0,0,1-.22,1.33,6.87,6.87,0,0,1-.61,1.33,10.54,10.54,0,0,1-.89,1.32c-.33.43-.69.85-1.08,1.27l-4,4.33Zm5.27-5.54-1.52-.39.75-7.44h7.66v1.76h-6.05l-.45,4.06a5,5,0,0,1,1-.44,4.68,4.68,0,0,1,1.46-.21,4.61,4.61,0,0,1,1.86.36,3.78,3.78,0,0,1,1.39,1,4.32,4.32,0,0,1,.89,1.57,6.43,6.43,0,0,1,.31,2.07,6.21,6.21,0,0,1-.3,2,4.34,4.34,0,0,1-.87,1.58,3.93,3.93,0,0,1-1.47,1,5.53,5.53,0,0,1-2.09.37,5.66,5.66,0,0,1-1.71-.25,4.21,4.21,0,0,1-1.43-.77,4.11,4.11,0,0,1-1-1.29,5.23,5.23,0,0,1-.49-1.82h1.8a3.56,3.56,0,0,0,.5,1.41,2.3,2.3,0,0,0,1,.87,3.24,3.24,0,0,0,1.4.29,2.79,2.79,0,0,0,1.2-.24,2.36,2.36,0,0,0,.89-.67,3.17,3.17,0,0,0,.54-1.07,4.69,4.69,0,0,0,.19-1.4,4.3,4.3,0,0,0-.19-1.32,3,3,0,0,0-.59-1,2.49,2.49,0,0,0-.93-.7,3,3,0,0,0-1.27-.26,3.24,3.24,0,0,0-1.45.26A5.18,5.18,0,0,0,172.54,106.47Z" fill="#555"/><rect x="24.05" y="121.57" width="34.49" height="34.49" rx="1.79" fill="#00b67a"/><path d="M55.49,135.2h-11l-3.39-10.49-3.4,10.49h-11l8.89,6.49-3.4,10.49,8.89-6.49L50,152.17l-3.39-10.49Z" fill="#fff"/><path d="M47.37,144.06l-.76-2.38-5.49,4Z" fill="#e2e2e2"/><rect x="66.52" y="121.57" width="34.49" height="34.49" rx="1.79" fill="#00b67a"/><path d="M98,135.2H87l-3.39-10.49-3.4,10.49h-11l8.89,6.49-3.4,10.49,8.89-6.49,8.88,6.49-3.39-10.49Z" fill="#fff"/><path d="M89.84,144.06l-.76-2.38-5.49,4Z" fill="#e2e2e2"/><rect x="109" y="121.57" width="34.49" height="34.49" rx="1.79" fill="#00b67a"/><path d="M140.43,135.2h-11l-3.39-10.49-3.4,10.49h-11l8.89,6.49-3.4,10.49,8.89-6.49,8.88,6.49-3.39-10.49Z" fill="#fff"/><path d="M132.31,144.06l-.76-2.38-5.49,4Z" fill="#e2e2e2"/><rect x="151.47" y="121.57" width="34.49" height="34.49" rx="1.79" fill="#00b67a"/><path d="M182.9,135.2h-11l-3.39-10.49-3.4,10.49h-11l8.89,6.49-3.4,10.49,8.89-6.49,8.88,6.49L174,141.68Z" fill="#fff"/><path d="M174.78,144.06l-.76-2.38-5.49,4Z" fill="#e2e2e2"/><path d="M193.94,123.36a1.79,1.79,0,0,1,1.79-1.79h30.9a1.79,1.79,0,0,1,1.79,1.79v30.91a1.79,1.79,0,0,1-1.79,1.79h-30.9a1.79,1.79,0,0,1-1.79-1.79Z" fill="#d7d7d7"/><path d="M211.4,121.57h15.46a1.79,1.79,0,0,1,1.79,1.79v30.91a1.79,1.79,0,0,1-1.79,1.79H211.4Z" fill="#d7d7d7"/><path d="M225.37,135.2h-11L211,124.71l-3.4,10.49h-11l8.89,6.49-3.4,10.49,8.89-6.49,8.88,6.49-3.39-10.49Z" fill="#fff"/><path d="M217.26,144.06l-.77-2.38-5.49,4Z" fill="#e2e2e2"/><path d="M102.39,185.46v7.92a7,7,0,0,1-1.28,1.33A7.89,7.89,0,0,1,98.69,196a12.29,12.29,0,0,1-3.94.53,9.59,9.59,0,0,1-3.64-.68,8.1,8.1,0,0,1-2.86-2,9.27,9.27,0,0,1-1.87-3.23,13.32,13.32,0,0,1-.66-4.34v-1.68a15.07,15.07,0,0,1,.57-4.32A9,9,0,0,1,88,177a7.12,7.12,0,0,1,2.73-2,9.37,9.37,0,0,1,3.71-.69,8.88,8.88,0,0,1,4.14.86,6.32,6.32,0,0,1,2.61,2.34,8.43,8.43,0,0,1,1.22,3.42H99.53a6,6,0,0,0-.78-2.14,4.05,4.05,0,0,0-1.61-1.54,5.48,5.48,0,0,0-2.72-.6,5.83,5.83,0,0,0-2.6.55A4.82,4.82,0,0,0,90,178.79a7.45,7.45,0,0,0-1.07,2.47,14.89,14.89,0,0,0-.34,3.28v1.71a12.14,12.14,0,0,0,.43,3.34,7.68,7.68,0,0,0,1.26,2.51,5.62,5.62,0,0,0,1.95,1.56,6,6,0,0,0,2.52.53,9.86,9.86,0,0,0,2.48-.25,5.52,5.52,0,0,0,1.48-.62,4.39,4.39,0,0,0,.82-.7v-4.84h-5v-2.32Zm10-2.77v13.54h-2.75V180.16h2.67Zm5-2.61,0,2.55a3.9,3.9,0,0,0-.65-.09c-.2,0-.43,0-.68,0a4.34,4.34,0,0,0-1.68.3,3.34,3.34,0,0,0-1.23.83,4,4,0,0,0-.81,1.27,6.55,6.55,0,0,0-.37,1.61l-.77.44a13.15,13.15,0,0,1,.28-2.73,7.32,7.32,0,0,1,.91-2.25,4.19,4.19,0,0,1,3.8-2.11,3.56,3.56,0,0,1,.68.07A2,2,0,0,1,117.38,180.08Zm11.79,16.44a7.8,7.8,0,0,1-3-.56,7,7,0,0,1-2.33-1.62,7.12,7.12,0,0,1-1.49-2.46,9.2,9.2,0,0,1-.52-3.12v-.62a9.93,9.93,0,0,1,.58-3.49,7.87,7.87,0,0,1,1.57-2.61,6.65,6.65,0,0,1,2.26-1.62,6.4,6.4,0,0,1,2.61-.55,6.93,6.93,0,0,1,3,.59,5.54,5.54,0,0,1,2.07,1.66,7.14,7.14,0,0,1,1.18,2.5,11.79,11.79,0,0,1,.39,3.12V189h-12v-2.24h9.24v-.21a7.09,7.09,0,0,0-.44-2.08,3.77,3.77,0,0,0-1.19-1.66,3.45,3.45,0,0,0-2.23-.66,3.85,3.85,0,0,0-1.72.4,3.81,3.81,0,0,0-1.35,1.16,5.68,5.68,0,0,0-.87,1.89,9.45,9.45,0,0,0-.32,2.57v.62a7.17,7.17,0,0,0,.32,2.15,5.25,5.25,0,0,0,.93,1.75,4.36,4.36,0,0,0,3.52,1.62,4.82,4.82,0,0,0,2.46-.59,6.2,6.2,0,0,0,1.77-1.59l1.66,1.32a7.64,7.64,0,0,1-1.32,1.5,6.22,6.22,0,0,1-2,1.16A7.85,7.85,0,0,1,129.17,196.52Zm21.81-3v-8.27a3.4,3.4,0,0,0-.38-1.64,2.51,2.51,0,0,0-1.13-1.1,4.07,4.07,0,0,0-1.87-.39,4.39,4.39,0,0,0-1.83.36,3.11,3.11,0,0,0-1.21.93,2,2,0,0,0-.43,1.25h-2.75a3.72,3.72,0,0,1,.44-1.71,5.23,5.23,0,0,1,1.28-1.53,6.53,6.53,0,0,1,2-1.1,8.12,8.12,0,0,1,2.64-.41,7.64,7.64,0,0,1,3.09.59,4.7,4.7,0,0,1,2.11,1.8,5.39,5.39,0,0,1,.77,3v7.48a11.51,11.51,0,0,0,.13,1.71,6.75,6.75,0,0,0,.43,1.56v.24h-2.86a5.14,5.14,0,0,1-.33-1.27A10,10,0,0,1,151,193.48Zm.48-7,0,1.93h-2.78a10.13,10.13,0,0,0-2.09.19,4.71,4.71,0,0,0-1.54.55,2.52,2.52,0,0,0-1,.94,2.43,2.43,0,0,0-.33,1.29,2.82,2.82,0,0,0,.34,1.38,2.56,2.56,0,0,0,1,1,3.72,3.72,0,0,0,1.71.36,4.52,4.52,0,0,0,2.23-.54,4.68,4.68,0,0,0,1.53-1.3,2.89,2.89,0,0,0,.62-1.5l1.17,1.32a3.93,3.93,0,0,1-.56,1.38,6.74,6.74,0,0,1-3,2.6,6.61,6.61,0,0,1-5.21-.2,4.77,4.77,0,0,1-1.9-1.7,4.48,4.48,0,0,1-.67-2.42,5,5,0,0,1,.5-2.27,4.29,4.29,0,0,1,1.46-1.65,6.81,6.81,0,0,1,2.28-1,12,12,0,0,1,3-.34Zm16.2-6.33v2.11H159v-2.11Zm-5.74-3.9h2.74v16a2.51,2.51,0,0,0,.25,1.23,1.21,1.21,0,0,0,.66.55,2.63,2.63,0,0,0,.86.13,4.44,4.44,0,0,0,.71-.06l.58-.12v2.25a7.87,7.87,0,0,1-.86.19,6.42,6.42,0,0,1-1.26.1,4.21,4.21,0,0,1-1.85-.4,2.94,2.94,0,0,1-1.35-1.33,5.61,5.61,0,0,1-.49-2.56Z"/><path d="M295.25,152.81v4H254.48v-2.73l26.61-40.31h4l-5.62,9.77-19.18,29.23Zm-9-39V171.4h-4.71V113.81Zm19.45,54.7a3.32,3.32,0,0,1,.87-2.33,3.18,3.18,0,0,1,2.45-1,3.19,3.19,0,0,1,3.41,3.32,3.24,3.24,0,0,1-.91,2.3,3.32,3.32,0,0,1-2.5.95,3.26,3.26,0,0,1-2.45-.95A3.3,3.3,0,0,1,305.73,168.51Zm58.34-1.18v4.07H328v-3.68l18.86-21.4a79.84,79.84,0,0,0,5.62-7,25.39,25.39,0,0,0,3-5.53,13.82,13.82,0,0,0,1-4.91,13.09,13.09,0,0,0-1.38-6.13,9.74,9.74,0,0,0-4-4.15,15.09,15.09,0,0,0-13.52.2,11.45,11.45,0,0,0-4.51,4.74,14.78,14.78,0,0,0-1.54,6.84h-4.71a18.28,18.28,0,0,1,2.1-8.7A16,16,0,0,1,335,115.4a17.93,17.93,0,0,1,9.45-2.38,20.07,20.07,0,0,1,9,1.86,13.16,13.16,0,0,1,5.77,5.26,15.93,15.93,0,0,1,2.06,8.31,15.6,15.6,0,0,1-1,5.26,27.44,27.44,0,0,1-2.53,5.3,49.36,49.36,0,0,1-3.64,5.18q-2,2.56-4.23,5.06l-16.06,18.08Z"/></svg>