<?xml version="1.0" encoding="utf-8"?>
<!-- Generator: Adobe Illustrator 26.1.0, SVG Export Plug-In . SVG Version: 6.00 Build 0)  -->
<svg version="1.1" id="Layer_1" xmlns="http://www.w3.org/2000/svg" xmlns:xlink="http://www.w3.org/1999/xlink" x="0px" y="0px"
	 viewBox="0 0 199.7 240.4" style="enable-background:new 0 0 199.7 240.4;" xml:space="preserve">
<style type="text/css">
	.st0{fill:#FFB10A;}
	.st1{fill:#273773;}
</style>
<g id="hand_with_coins">
	<g>
		<path class="st0" d="M106,158.4c2.2,0,3.8-2,3.4-4.1l-1.2-6.3c-0.3-1.6-1.7-2.8-3.4-2.8H94.6c-1.6,0-3,1.2-3.4,2.8l-1.3,6.3
			c-0.4,2.1,1.2,4.1,3.4,4.1h0.7l-4.6,55.1c-0.2,2.2,1.5,4,3.7,4h12.9c2.2,0,3.9-1.9,3.7-4l-4.6-55.1
			C105.3,158.4,106,158.4,106,158.4z"/>
		<path class="st1" d="M57.1,84.4c1,0.7,1.1,0.8,1.1,1c0,0,0,0,0,0c4,26.2,21.7,45.3,42.1,45.3s38.1-19,42.1-45.3l0,0
			c0.1-0.2,0.1-0.3,1.1-1c1.8-1.2,4.4-3.1,5.8-8.8c2.1-8.8-0.2-12.5-2.5-14.1c-0.8-0.5-1.7-0.9-2.6-1c1.1-5.4,0.8-11-0.8-16.2
			c-6.2-19.8-20.3-29.3-43.1-29.3S64.1,24,57.7,42.8c-1.9,5.7-2.2,11.8-0.9,17.6c-1,0.1-2.1,0.4-3,1c-2.3,1.6-4.7,5.3-2.5,14.1
			C52.6,81.3,55.3,83.2,57.1,84.4L57.1,84.4z M62.6,44.5c5.7-16.6,17.7-24.3,37.7-24.3s32.6,8.2,38.1,25.7
			c1.8,5.6,1.6,11.8-0.4,17.6c-0.3-0.6-0.6-1.2-1-1.8c-0.9-1.7-2.6-2.8-4.6-2.8c-0.4,0-0.7,0-1.1,0.1c-4.4,1-8.8,1.6-13,1.8
			l-9.9-9.9c-1-1-2.7-1-3.7,0c-1,1-1,2.7,0,3.7l6.2,6.2c-4.8-0.3-9.3-1-13.7-2.3c-3.3-1-6.4-2.2-9.3-3.4c-4.8-1.9-9-3.6-13-3.6
			c-2.2,0-4.2,0.5-6,1.6c-2.8,1.6-5,4.4-6.4,8.3C60.7,55.8,60.8,49.9,62.6,44.5L62.6,44.5z M56.8,65.8c0.5-0.3,1.2-0.1,1.7,0.2
			c0,0,0.1,0,0.2,0.1c0.7,1.6,1.5,3.2,2.4,4.7c0.5,0.8,1.3,1.2,2.2,1.2c0.2,0,0.4,0,0.6-0.1c1.1-0.2,1.9-1.2,2-2.3
			c0.7-6.4,2.6-10.5,5.6-12.2c3.4-2,8.3-0.1,14.5,2.4c2.9,1.2,6.2,2.5,9.8,3.5c11.2,3.3,23.7,3.6,36.6,0.6c0.4,0.9,0.9,1.7,1.3,2.5
			c0.7,1.3,1.4,2.5,2.1,4c0.4,0.9,1.3,1.5,2.3,1.5h0.1c1,0,1.8-0.5,2.3-1.4c0.9-1.6,1.6-3.2,2.2-4.9c0.4-0.1,0.8-0.2,1.1,0
			c0.8,0.5,1.7,2.9,0.4,8.5c-0.9,3.8-2.4,4.8-3.7,5.8c-1.2,0.8-2.8,2-3.2,4.3c0,0,0,0,0,0.1s0,0,0,0.1c-3.6,23.7-19.1,41-36.9,41
			s-33.4-17.2-36.9-41c0,0,0,0,0-0.1c0,0,0,0,0,0c-0.5-2.4-2.1-3.5-3.2-4.3c-1.4-1-2.8-2-3.7-5.8C55,68.7,56,66.3,56.8,65.8
			L56.8,65.8z"/>
		<path class="st1" d="M181.1,184.6c-1.8-29.2-23.2-53.1-51.9-58.2c-0.1,0-0.2,0-0.3,0l0,0c-0.3-0.1-0.6-0.1-0.9-0.1
			c-0.1,0-0.1,0-0.2,0c-0.7-0.1-1.4,0.1-2,0.6c-7.2,6.5-16.5,10-26.2,10s-18.9-3.6-26.2-10c0,0-0.1,0-0.1-0.1
			c-0.2-0.1-0.3-0.2-0.5-0.3c-0.1,0-0.2-0.1-0.3-0.2c-0.2-0.1-0.4-0.1-0.6-0.1c-0.2,0-0.3,0-0.4,0c-0.1,0-0.1,0-0.2,0l-0.9,0.2
			c-28.8,5-50.2,29-51.9,58.2c0,0.8,0.3,1.6,0.9,2.1c18.1,16.2,40.3,26.4,64.2,29.6c0.1,0,0.2,0,0.3,0c1.3,0,2.4-1,2.6-2.3
			c0.2-1.4-0.8-2.8-2.3-3c-10.1-1.4-19.9-4-29.2-8v-26.8c0-1.5-1.2-2.6-2.6-2.6s-2.6,1.2-2.6,2.6v24.5c-9.3-4.5-18-10.2-25.9-17.1
			c2.1-25.2,20-45.7,44.4-51.4v20.4c0,1,0.5,1.8,1.3,2.3c0.4,0.2,0.8,0.3,1.3,0.3c0.5,0,0.9-0.1,1.4-0.4l21.8-13.2
			c1.8,0.2,3.7,0.4,5.6,0.4s3.7-0.2,5.6-0.4l21.8,13.2c0.4,0.2,0.9,0.4,1.4,0.4c0.4,0,0.9-0.1,1.3-0.3c0.8-0.5,1.3-1.3,1.3-2.3
			v-20.5c24.5,5.5,42.6,26.2,44.7,51.4c-7.2,6.3-15.1,11.7-23.6,16v-23.3c0-1.5-1.2-2.6-2.6-2.6s-2.6,1.2-2.6,2.6v25.8
			c-10.1,4.5-20.8,7.5-31.9,9c-1.4,0.2-2.4,1.5-2.3,3c0.2,1.3,1.3,2.3,2.6,2.3c0.1,0,0.2,0,0.3,0c23.9-3.1,46.4-13.4,64.5-29.6
			C180.8,186.2,181.1,185.5,181.1,184.6L181.1,184.6z M73.6,148.1v-14.4c4,2.9,8.4,5.1,13.1,6.5L73.6,148.1z M112.8,140.2
			c4.7-1.4,9.1-3.6,13.1-6.5v14.4L112.8,140.2z"/>
		<path class="st1" d="M82.6,83.5h9.2c1.4,0,2.6-1.2,2.6-2.6s-1.2-2.6-2.6-2.6h-9.2c-1.4,0-2.6,1.2-2.6,2.6S81.2,83.5,82.6,83.5z"/>
		<path class="st1" d="M111.5,83.5h9.2c1.4,0,2.6-1.2,2.6-2.6s-1.2-2.6-2.6-2.6h-9.2c-1.4,0-2.6,1.2-2.6,2.6S110.1,83.5,111.5,83.5z
			"/>
		<path class="st1" d="M87.8,107c-0.9,1.2-0.7,2.8,0.5,3.7c3.8,2.8,7.9,4.4,12,4.4s8.2-1.5,12-4.4c1.2-0.9,1.4-2.5,0.5-3.7
			c-0.9-1.2-2.5-1.4-3.7-0.5c-5.8,4.4-11.8,4.4-17.6,0C90.3,105.6,88.7,105.8,87.8,107z"/>
	</g>
</g>
</svg>
