<svg id="Layer_1" data-name="Layer 1" xmlns="http://www.w3.org/2000/svg" viewBox="0 0 416.24 142.81"><defs><style>.cls-1{fill:#33b440;}.cls-2{fill:#1d2953;}</style></defs><path class="cls-1" d="M113.24,0c0,.37.3.49.5.68Q118.86,5.83,124,10.92c.45.45.47.69,0,1.15q-5.25,5.17-10.44,10.42c-.41.42-.62.4-1,0q-5.22-5.27-10.5-10.48c-.41-.4-.4-.62,0-1q5.19-5.13,10.33-10.3c.2-.2.53-.31.52-.68Z"/><path class="cls-2" d="M164.16,56.07a39.26,39.26,0,0,1,15.71-7.16c12-2.49,23.64-1.54,34.5,4.53,8.8,4.92,14.56,12.46,18,21.84a58.44,58.44,0,0,1,3.23,22,53.55,53.55,0,0,1-4,19.64c-6.09,14.31-16.9,22.72-32.25,25.15a51,51,0,0,1-26.67-2.66,36.06,36.06,0,0,1-8.81-4.9l-1-.74c-.22,1.4-.44,2.71-.64,4-.13.84-.26,1.68-.36,2.53-.06.43-.19.65-.72.65-4.7,0-9.4,0-14.1,0-.48,0-.65-.15-.59-.61,0-.13,0-.27,0-.41V14.2c0-1.21-.14-1,1.05-1,5.2,0,10.39,0,15.59,0,.79,0,.93.23.92,1q0,20.52,0,41C164,55.43,163.93,55.76,164.16,56.07Zm2.06,38.6a46.47,46.47,0,0,0,2.63,16.75c3.41,9,9.45,14.9,19.34,16a23.28,23.28,0,0,0,15.28-3.13c5.1-3.13,8.24-7.8,10.24-13.31a47.15,47.15,0,0,0,2.46-17.91,42.55,42.55,0,0,0-3.44-16.23c-6.51-14.6-20.78-16.24-30.5-12.46-6.32,2.46-10.32,7.26-12.89,13.36A44.56,44.56,0,0,0,166.22,94.67Z"/><path class="cls-2" d="M0,76.46C0,63.67,1.7,53.06,6.17,43,13.49,26.55,25.6,15.21,42.81,9.53A63.45,63.45,0,0,1,70.89,7C84,8.66,94.91,14.54,104,24c1.14,1.19,2.27,2.4,3.44,3.55.46.45.38.68,0,1.1Q102.2,33.78,97,39c-.51.52-.74.42-1.18,0a80.11,80.11,0,0,0-6.67-6.49A37.32,37.32,0,0,0,68.78,23.7a43.48,43.48,0,0,0-21,2.42c-9.38,3.66-16.22,10.19-21,19a55.08,55.08,0,0,0-6.14,19.57A71.64,71.64,0,0,0,22,91.23c2.09,8.52,5.82,16.19,12.07,22.48a37.32,37.32,0,0,0,22.18,10.92A44.14,44.14,0,0,0,95.66,110c.4-.45.61-.57,1.11-.07q5.37,5.46,10.83,10.85c.4.4.49.62.08,1.11A54.91,54.91,0,0,1,76.17,141a65.7,65.7,0,0,1-38.62-2.81c-13-5.12-22.67-14.11-29.19-26.45A71.66,71.66,0,0,1,1,88.64,88.43,88.43,0,0,1,0,76.46Z"/><path class="cls-2" d="M329.2,95.24c-.06,8.41-1.38,16.57-5.13,24.18-6,12.23-15.82,19.7-29.2,22.33a54.33,54.33,0,0,1-27.43-1.58c-11.8-3.8-19.56-11.8-23.68-23.39-2.91-8.19-3.65-16.69-3.22-25.31a50.11,50.11,0,0,1,6.4-23.08,39.64,39.64,0,0,1,27.9-19.77,49.17,49.17,0,0,1,27.71,2.24c11.89,4.64,19.53,13.36,23.67,25.28A58.68,58.68,0,0,1,329.2,95.24Zm-69.38.05a46.9,46.9,0,0,0,2.56,16c3.63,10,11.28,16.3,22,16.38,7,0,13-2.24,17.68-7.52a29.46,29.46,0,0,0,6.34-12.77,53,53,0,0,0,1.2-16.6,40.41,40.41,0,0,0-3.53-14.38C299.35,62,284.84,60.64,275.3,64.64c-6.07,2.54-9.91,7.28-12.4,13.22A45.08,45.08,0,0,0,259.82,95.29Z"/><path class="cls-2" d="M384.45,99.63H353.6c-.33,0-.81-.22-.79.47.16,5.46,1,10.77,3.59,15.66a20.72,20.72,0,0,0,14.7,10.94c13.19,2.66,25.11-.25,35.52-8.89.38-.32.52-.31.77.11,2.33,3.79,4.65,7.57,7,11.33.37.59,0,.78-.28,1.06A44,44,0,0,1,401.62,138a62.22,62.22,0,0,1-27.9,4.47,41.35,41.35,0,0,1-22.27-7.67c-7.51-5.44-12.27-12.83-14.94-21.61a62.06,62.06,0,0,1-2.23-23.71,50.49,50.49,0,0,1,5.68-20c6.21-11.46,15.8-18.38,28.59-20.81A43,43,0,0,1,391,50,34.4,34.4,0,0,1,410.5,66.9,50.32,50.32,0,0,1,416,86.39c.38,4.12.14,8.23.11,12.35,0,.65-.2.82-.84.81q-15.44,0-30.85,0ZM375.67,86c7.34,0,14.68,0,22,0,.89,0,1-.26,1-1.05a34.6,34.6,0,0,0-1-7.16c-1.3-4.88-3.64-9.11-7.81-12.15a21.58,21.58,0,0,0-13-3.87c-8,0-14.4,3-19,9.65a30,30,0,0,0-5,13.71c-.09.72.06.87.76.86C361,86,368.33,86,375.67,86Z"/><path class="cls-1" d="M141.13,28.1c-.13.13-.23.26-.35.37q-5.35,5.36-10.72,10.72c-.28.28-.46.33-.77,0q-5.38-5.4-10.79-10.77c-.3-.29-.25-.44,0-.7q5.4-5.37,10.78-10.77c.33-.34.49-.23.76,0l10.72,10.71C140.9,27.84,141,28,141.13,28.1Z"/><path class="cls-1" d="M113.05,33.24c.15.13.27.23.38.34q5.37,5.37,10.75,10.71c.33.33.25.5,0,.79q-5.36,5.31-10.68,10.66c-.32.33-.51.34-.84,0Q107.31,50.4,102,45.08c-.35-.35-.28-.53,0-.85Q107.31,39,112.6,33.64Z"/></svg>