<?xml version="1.0" encoding="UTF-8"?>
<svg id="Layer_1" data-name="Layer 1" xmlns="http://www.w3.org/2000/svg" viewBox="0 0 1056.33 985.32">
  <defs>
    <style>
      .cls-1 {
        fill: #1476b8;
      }

      .cls-1, .cls-2, .cls-3, .cls-4 {
        stroke-width: 0px;
      }

      .cls-2 {
        fill: #ec5a29;
      }

      .cls-3 {
        fill: #fff;
      }

      .cls-4 {
        fill: #231f20;
      }
    </style>
  </defs>
  <path class="cls-2" d="m982.67,248.37h-170.06c-14.77,0-23.74,4.87-23.74,21.14v279.91c0,59.92-40.92,108.67-91.21,108.67h-290.41c-9.45,0-17.5,4.84-17.5,13.72v53.71c0,48.64,31.74,88.21,70.75,88.21h340.45c2.55,0,5.01.95,6.89,2.67l166.82,152.19v-147.19c0-7.21,5.58-13.14,12.99-13.79,26.14-2.31,65.77-49.52,65.77-82.09v-388.96c0-48.63-31.74-88.19-70.75-88.19Z"/>
  <g>
    <path class="cls-3" d="m950.47,439.33h-177.1c-5.65,0-10.23-4.58-10.23-10.23s4.58-10.23,10.23-10.23h177.1c5.65,0,10.23,4.58,10.23,10.23s-4.58,10.23-10.23,10.23Z"/>
    <path class="cls-3" d="m950.47,544.12h-177.1c-5.65,0-10.23-4.58-10.23-10.23s4.58-10.23,10.23-10.23h177.1c5.65,0,10.23,4.58,10.23,10.23s-4.58,10.23-10.23,10.23Z"/>
  </g>
  <g>
    <path class="cls-4" d="m938.19,426.29h-177.1c-5.65,0-10.23-4.58-10.23-10.23s4.58-10.23,10.23-10.23h177.1c5.65,0,10.23,4.58,10.23,10.23s-4.58,10.23-10.23,10.23Z"/>
    <path class="cls-4" d="m938.19,531.08h-177.1c-5.65,0-10.23-4.58-10.23-10.23s4.58-10.23,10.23-10.23h177.1c5.65,0,10.23,4.58,10.23,10.23s-4.58,10.23-10.23,10.23Z"/>
  </g>
  <path class="cls-1" d="m754.95,541.85V131.04c0-47.11-30.75-85.43-68.54-85.43H115.95c-44.99,0-68.54,31.96-68.54,85.43v410.8c0,45.03,29.35,83.31,65.43,85.36,7.01.4,12.1,5.75,12.1,12.74v137.36l161.59-147.43c1.82-1.66,4.21-2.59,6.68-2.59h393.19c37.79,0,68.54-38.33,68.54-85.45Z"/>
  <path class="cls-4" d="m90.27,809.21c-1.39,0-2.8-.28-4.13-.87-3.71-1.63-6.1-5.31-6.1-9.36v-158.39c-45.4-6.59-80.04-52.49-80.04-107.86V108.66C0,48.74,40.92,0,91.21,0h588.9c50.29,0,91.21,48.74,91.21,108.66v424.08c0,59.92-40.92,108.67-91.21,108.67h-401.93l-181.01,165.14c-1.92,1.75-4.39,2.67-6.9,2.67Zm.95-788.75c-39.01,0-70.75,39.57-70.75,88.2v424.08c0,46.48,30.3,86.01,67.55,88.12,7.24.41,12.49,5.94,12.49,13.15v141.8l166.82-152.19c1.88-1.72,4.34-2.68,6.89-2.68h405.9c39.01,0,70.75-39.57,70.75-88.21V108.66c0-48.63-31.74-88.2-70.75-88.2H91.21Z"/>
  <path class="cls-4" d="m967.34,985.32c-2.5,0-4.97-.92-6.9-2.67l-181.02-165.14h-336.48c-50.29,0-91.21-48.75-91.21-108.67v-77.66c0-5.65,4.58-10.23,10.23-10.23s10.23,4.58,10.23,10.23v77.66c0,48.64,31.74,88.21,70.75,88.21h340.44c2.55,0,5.01.95,6.89,2.67l166.82,152.19v-141.29c0-7.21,5.59-13.14,12.99-13.8,36.88-3.26,65.77-41.91,65.77-87.99v-388.96c0-48.63-31.74-88.19-70.75-88.19h-204.02c-5.65,0-10.23-4.58-10.23-10.23s4.58-10.23,10.23-10.23h204.02c50.3,0,91.21,48.74,91.21,108.65v388.96c0,54.31-34.16,100.34-78.76,107.66v158.59c0,4.05-2.39,7.72-6.1,9.36-1.33.59-2.73.87-4.13.87Z"/>
  <g>
    <path class="cls-4" d="m483.99,238.38H125.79c-5.65,0-10.23-4.58-10.23-10.23s4.58-10.23,10.23-10.23h358.21c5.65,0,10.23,4.58,10.23,10.23s-4.58,10.23-10.23,10.23Z"/>
    <path class="cls-4" d="m645.54,343.17H125.79c-5.65,0-10.23-4.58-10.23-10.23s4.58-10.23,10.23-10.23h519.75c5.65,0,10.23,4.58,10.23,10.23s-4.58,10.23-10.23,10.23Z"/>
  </g>
  <g>
    <path class="cls-3" d="m499.51,252.46H141.31c-5.65,0-10.23-4.58-10.23-10.23s4.58-10.23,10.23-10.23h358.21c5.65,0,10.23,4.58,10.23,10.23s-4.58,10.23-10.23,10.23Z"/>
    <path class="cls-3" d="m661.06,357.25H141.31c-5.65,0-10.23-4.58-10.23-10.23s4.58-10.23,10.23-10.23h519.75c5.65,0,10.23,4.58,10.23,10.23s-4.58,10.23-10.23,10.23Z"/>
  </g>
  <g>
    <path class="cls-4" d="m483.99,238.38H125.79c-5.65,0-10.23-4.58-10.23-10.23s4.58-10.23,10.23-10.23h358.21c5.65,0,10.23,4.58,10.23,10.23s-4.58,10.23-10.23,10.23Z"/>
    <path class="cls-4" d="m645.54,343.17H125.79c-5.65,0-10.23-4.58-10.23-10.23s4.58-10.23,10.23-10.23h519.75c5.65,0,10.23,4.58,10.23,10.23s-4.58,10.23-10.23,10.23Z"/>
  </g>
  <g>
    <path class="cls-2" d="m884.2,33.4c3,0,6,0,9,0,.4.09.8.21,1.2.26,2.5.32,5.04.47,7.5.95,17.53,3.43,31.97,12.07,43.14,26.02,8.04,10.03,12.96,21.46,14.83,34.18.3,2.02.54,4.05.81,6.08v9c-.09.4-.21.8-.26,1.2-.32,2.5-.47,5.04-.95,7.51-3.46,17.64-12.09,32.24-26.27,43.31-17.09,13.34-36.53,18.07-57.83,14.19-17.63-3.21-32.15-12.06-43.18-26.19-13.35-17.09-18.08-36.53-14.2-57.83,3.21-17.63,12.14-32.05,26.16-43.21,9.98-7.94,21.34-12.81,33.97-14.67,2.02-.3,4.05-.54,6.08-.81Zm65.78,72.08c.1-33.7-27.38-61.26-61.2-61.36-33.7-.1-61.26,27.38-61.36,61.2-.1,33.7,27.38,61.26,61.2,61.36,33.7.1,61.26-27.38,61.36-61.2Z"/>
    <path class="cls-2" d="m888.68,113.08c-.43.4-.81.74-1.16,1.09-5.87,5.86-11.72,11.73-17.6,17.58-2.19,2.19-4.54,2.61-6.85,1.31-2.9-1.63-3.64-5.37-1.57-7.97.44-.55.94-1.04,1.44-1.54,6-5.99,12-11.98,18.11-18.09-.39-.42-.71-.8-1.06-1.15-5.86-5.87-11.72-11.74-17.59-17.59-1.63-1.63-2.54-3.44-1.85-5.81,1.08-3.69,5.47-5.08,8.47-2.67.47.38.91.81,1.34,1.24,5.7,5.69,11.4,11.39,17.09,17.1.36.36.62.83,1,1.36.62-.58.99-.91,1.34-1.26,5.77-5.76,11.53-11.53,17.3-17.29,2.88-2.88,6-3.16,8.38-.77,2.38,2.39,2.08,5.49-.8,8.38-5.73,5.73-11.46,11.47-17.19,17.2-.36.36-.7.73-1.13,1.18.39.42.72.8,1.07,1.15,5.83,5.83,11.65,11.67,17.5,17.49,1.47,1.46,2.46,3.11,2.05,5.25-.82,4.26-5.63,5.92-8.88,3.04-1.65-1.46-3.15-3.08-4.71-4.63-4.51-4.5-9.01-9.01-13.52-13.51-.36-.36-.73-.69-1.17-1.1Z"/>
  </g>
</svg>