<svg id="Layer_1" data-name="Layer 1" xmlns="http://www.w3.org/2000/svg" viewBox="0 0 62.27 75.57"><defs><style>.cls-1{fill:#cab66f;}.cls-2{fill:#ba151a;}.cls-3{fill:#3a5fa5;}.cls-4{fill:#f6e235;}.cls-5{fill:#cab66e;}</style></defs><path class="cls-1" d="M0,18.07A61.93,61.93,0,0,1,1,5.91c.26-1.42.27-1.42,1.64-1.16,9.85,1.89,19.1.1,27.87-4.57a1,1,0,0,1,1.14,0A42.2,42.2,0,0,0,54.93,5.33a26.48,26.48,0,0,0,5.17-.79c.69-.18.84.1,1,.63a51.84,51.84,0,0,1,1,6.9,72,72,0,0,1,.21,7.77A66.75,66.75,0,0,1,51.66,55.05,64.28,64.28,0,0,1,33.11,74.41c-2.36,1.57-1.49,1.54-3.83,0A65.1,65.1,0,0,1,9.4,53,65.81,65.81,0,0,1,1.32,32,64.91,64.91,0,0,1,0,18.07Z"/><path class="cls-2" d="M59.74,17.26c.39,1.26-.42,2.3-1.57,3.38Q41.69,36,25.28,51.47c-2.62,2.46-5.26,4.9-7.87,7.37-.44.43-.65.5-1.08-.05A69.2,69.2,0,0,1,7.46,43.57a.88.88,0,0,1,.26-1.16Q20.14,30.8,32.53,19.15c3.92-3.68,7.84-7.35,11.73-11.06A1.87,1.87,0,0,1,46,7.55a38.18,38.18,0,0,0,11.69,0c1.19-.19,1.26-.17,1.41,1C59.45,11.32,59.64,14.1,59.74,17.26Z"/><path class="cls-3" d="M59.58,22A58.38,58.38,0,0,1,57.7,34.84,65.71,65.71,0,0,1,41.85,63.6,60.27,60.27,0,0,1,32.2,72a1.43,1.43,0,0,1-2,.06,65,65,0,0,1-11.92-10.8c-.4-.46-.23-.68.12-1,4-3.72,7.92-7.46,11.89-11.18,3.44-3.23,6.91-6.45,10.36-9.68l18-16.9A1.3,1.3,0,0,1,59.58,22Z"/><path class="cls-4" d="M6.53,41.14a54.81,54.81,0,0,1-2.22-7.35A67.54,67.54,0,0,1,2.7,23.2c-.23-2.91-.17-5.82-.11-8.73,0-2.08.35-4.17.56-6.25.05-.52.28-.77.91-.67a39.54,39.54,0,0,0,12.52,0A45,45,0,0,0,30.7,3a.81.81,0,0,1,.81,0A46.3,46.3,0,0,0,42.87,7Z"/><path class="cls-1" d="M26.13,43.77A5.55,5.55,0,0,1,24.41,48c-.88.86-1.8,1.67-2.68,2.53-.34.33-.57.43-.94,0q-3.76-4-7.57-8.06c-.36-.38-.4-.65,0-1,.95-.83,1.81-1.76,2.79-2.56A5.72,5.72,0,0,1,22.38,38,6.32,6.32,0,0,1,26.13,43.77Z"/><path class="cls-1" d="M49,24.75a3.17,3.17,0,0,1-.31.38c-.61.58-1.25,1.14-1.85,1.73-.28.27-.47.23-.72,0q-3.87-4.16-7.77-8.29c-.26-.27-.26-.46,0-.72,1.56-1.46,3.12-2.92,4.66-4.4.29-.28.5-.23.72.05,0,0,0,0,.06.07,1.82,1.78,1.82,1.78,0,3.54a2.4,2.4,0,0,0-.28.27c-.21.27-.77.48-.61.77a5.06,5.06,0,0,0,1.18,1.27c.23.19.39-.14.54-.27.6-.55,1.19-1.1,1.75-1.69.37-.38.6-.41,1,0,1.75,1.75,1.77,1.73-.05,3.47-1,.95-1,.94,0,2,.44.48.87,1,1.31,1.43Z"/><path class="cls-1" d="M38.12,35c-.11.13-.2.26-.31.37-.6.58-1.22,1.15-1.81,1.75-.31.31-.51.25-.79,0-2.53-2.71-5.06-5.43-7.62-8.12-.4-.43-.35-.68.06-1s.57-.53.85-.8c1.21-1.16,1.22-1.17,2.34,0l6.81,7.3Z"/><path class="cls-5" d="M28.56,40.22a1.77,1.77,0,0,1,1.8-1.85,1.86,1.86,0,0,1,1.93,1.86,1.89,1.89,0,0,1-1.84,1.86A1.82,1.82,0,0,1,28.56,40.22Z"/><path class="cls-5" d="M51.13,19.05A1.8,1.8,0,0,1,53,17.2a1.86,1.86,0,1,1-.11,3.71A1.79,1.79,0,0,1,51.13,19.05Z"/><path class="cls-5" d="M41.35,31.82a1.77,1.77,0,0,1-1.88-1.76,1.85,1.85,0,0,1,1.81-2A1.91,1.91,0,0,1,43.19,30,1.84,1.84,0,0,1,41.35,31.82Z"/><path class="cls-2" d="M22.81,44.19a6.41,6.41,0,0,1-.21.84c-.52,1.36-.84,1.41-1.8.36s-1.94-2.09-2.94-3.1c-.41-.42-.36-.67.11-1a2.67,2.67,0,0,1,2.93-.18A3.37,3.37,0,0,1,22.81,44.19Z"/></svg>