<svg id="Layer_1" data-name="Layer 1" xmlns="http://www.w3.org/2000/svg" viewBox="0 0 136.31 60.5"><defs><style>.cls-1{fill:#cab66f;}.cls-2{fill:#ba151a;}.cls-3{fill:#3a5fa5;}.cls-4{fill:#f6e235;}.cls-5{fill:#cab66e;}.cls-6{fill:#f9bc39;}.cls-7{fill:#010101;}.cls-8{font-size:6.99px;font-family:Poppins-MediumItalic, Poppins;font-weight:500;font-style:italic;}</style></defs><path class="cls-1" d="M100.26,18.58a35.4,35.4,0,0,1,.57-7c.16-.82.16-.82,1-.67a23.87,23.87,0,0,0,16.14-2.64.59.59,0,0,1,.66,0,24.44,24.44,0,0,0,13.48,3,15.9,15.9,0,0,0,3-.46c.4-.1.49.06.56.37a29.7,29.7,0,0,1,.56,4,42.26,42.26,0,0,1,.12,4.5A38.56,38.56,0,0,1,130.16,40a37.13,37.13,0,0,1-10.74,11.2c-1.36.91-.86.89-2.21,0A37.63,37.63,0,0,1,105.7,38.83,37.76,37.76,0,0,1,101,26.67,37.86,37.86,0,0,1,100.26,18.58Z"/><path class="cls-2" d="M134.84,18.11c.23.73-.24,1.34-.91,2q-9.54,8.91-19,17.85c-1.52,1.43-3,2.84-4.56,4.27-.25.25-.38.29-.62,0a40,40,0,0,1-5.14-8.81.5.5,0,0,1,.15-.67l14.37-13.47q3.41-3.2,6.79-6.4a1.06,1.06,0,0,1,1-.32,22.34,22.34,0,0,0,6.78,0c.68-.11.73-.1.81.58A48,48,0,0,1,134.84,18.11Z"/><path class="cls-3" d="M134.75,20.83a34.54,34.54,0,0,1-1.09,7.47A38.1,38.1,0,0,1,124.48,45a35.37,35.37,0,0,1-5.58,4.86.83.83,0,0,1-1.13,0,37.59,37.59,0,0,1-6.9-6.25c-.24-.27-.14-.39.06-.58l6.89-6.48c2-1.87,4-3.73,6-5.6Q129,26,134.23,21.14A.75.75,0,0,1,134.75,20.83Z"/><path class="cls-4" d="M104,31.94a31.14,31.14,0,0,1-1.29-4.25,38.58,38.58,0,0,1-.93-6.14,50,50,0,0,1-.07-5.05c0-1.21.21-2.41.33-3.62,0-.3.16-.44.52-.38a22.9,22.9,0,0,0,7.25,0A26.14,26.14,0,0,0,118,9.85a.44.44,0,0,1,.47,0,27,27,0,0,0,6.58,2.33Z"/><path class="cls-1" d="M115.38,33.47a3.18,3.18,0,0,1-1,2.41c-.51.5-1,1-1.55,1.47-.2.19-.33.25-.55,0-1.45-1.56-2.92-3.11-4.38-4.66-.21-.22-.23-.37,0-.59.55-.48,1-1,1.61-1.48a3.32,3.32,0,0,1,3.68-.5A3.66,3.66,0,0,1,115.38,33.47Z"/><path class="cls-1" d="M128.65,22.45a2.38,2.38,0,0,1-.18.22c-.36.34-.72.66-1.07,1-.16.16-.28.14-.42,0l-4.5-4.8c-.15-.15-.15-.26,0-.41l2.7-2.55c.16-.16.28-.14.41,0l0,0c1,1,1,1,0,2a1.21,1.21,0,0,0-.16.16c-.12.16-.45.28-.35.45a2.61,2.61,0,0,0,.68.73c.13.12.22-.08.31-.15.35-.32.69-.64,1-1s.35-.24.59,0c1,1,1,1,0,2-.57.55-.57.54,0,1.13l.75.83C128.49,22.26,128.56,22.35,128.65,22.45Z"/><path class="cls-1" d="M122.33,28.38l-.18.21c-.35.34-.71.67-1.05,1-.18.18-.3.14-.46,0q-2.19-2.35-4.41-4.7c-.23-.25-.2-.4,0-.59a5.33,5.33,0,0,0,.49-.46c.71-.67.71-.67,1.36,0l3.94,4.22Z"/><path class="cls-5" d="M116.79,31.41a1,1,0,0,1,1-1.07A1.07,1.07,0,0,1,119,31.41a1.09,1.09,0,0,1-1.07,1.08A1.05,1.05,0,0,1,116.79,31.41Z"/><path class="cls-5" d="M129.85,19.15A1.06,1.06,0,0,1,131,18.08a1.08,1.08,0,1,1-.07,2.15A1,1,0,0,1,129.85,19.15Z"/><path class="cls-5" d="M124.19,26.55a1,1,0,0,1-1.08-1,1.07,1.07,0,0,1,1-1.14,1.11,1.11,0,0,1,1.1,1.1A1.07,1.07,0,0,1,124.19,26.55Z"/><path class="cls-2" d="M113.46,33.71a4.78,4.78,0,0,1-.12.48c-.3.79-.49.82-1,.22s-1.12-1.22-1.7-1.8c-.23-.25-.2-.39.07-.57a1.57,1.57,0,0,1,1.7-.1A2,2,0,0,1,113.46,33.71Z"/><path d="M8.45,15.71l.19.07a1.4,1.4,0,0,0,.44.22.91.91,0,0,1,.44.31c.4.44,1,.66,1.26,1.24a2.63,2.63,0,0,0-.58-.24,9.24,9.24,0,0,1-.92-.1,1,1,0,0,0-.43,0,10.31,10.31,0,0,0-1.48.58c-.27.15-.58.19-.85.34s-.53.33-.82.47A3.91,3.91,0,0,1,4.4,19c.37-.19.75-.38,1.11-.58-.86.09-1.7.35-2.56.46a6.45,6.45,0,0,1,1.11-.63c.47-.11.89-.35,1.37-.43a3,3,0,0,0,1.05-.56,1.64,1.64,0,0,0-.54,0c-.36.07-.63.34-1,.44a4.48,4.48,0,0,1-1.37.1,3.29,3.29,0,0,1,.68-.26A5.07,5.07,0,0,0,5,17.2a10.1,10.1,0,0,1,1.51-.83c.42-.06.85-.05,1.28-.09a2.76,2.76,0,0,1,1.35.28A5.2,5.2,0,0,0,8.7,16,3.07,3.07,0,0,1,8.45,15.71Z"/><path d="M8.07,17.76a1.18,1.18,0,0,1,1-.25,4,4,0,0,1,1.71.43,3.15,3.15,0,0,1-.92,0,7.07,7.07,0,0,0,1.1.36,2.89,2.89,0,0,1,.91.36,2.76,2.76,0,0,1-1,.07,7.58,7.58,0,0,1,.65.62,2.75,2.75,0,0,1,.22.26,4.15,4.15,0,0,0-.7-.15,4,4,0,0,1-.46.08,10,10,0,0,1-1.45,0c.19-.21.4-.41.6-.62a1.45,1.45,0,0,1,.49-.36l-.74-.28c-.17-.06-.32-.21-.52-.18a1,1,0,0,0-.72.37c-.27.32-.53.63-.81.94a.81.81,0,0,1-.39.29,5.62,5.62,0,0,0-1,.29c-.27.11-.49.32-.76.44s-.77.1-1.15.19a1.94,1.94,0,0,1,.7-.36A2.09,2.09,0,0,0,5.39,20a6.67,6.67,0,0,1,.72-.45c.37-.17.59-.53.89-.79S7.72,18.09,8.07,17.76Zm1.85,1.51c.32,0,.63,0,.94,0a3.18,3.18,0,0,0-.16-.32A2.6,2.6,0,0,0,9.92,19.27Z"/><path d="M11.36,17.91a12,12,0,0,0,1.3.38,6,6,0,0,1,1.57-.4.45.45,0,0,1,.37.27,2.68,2.68,0,0,1,.05,1.13,2.64,2.64,0,0,1-.08,1c-.16-.27-.49-.33-.76-.46a6,6,0,0,0-.7,1.17,5.94,5.94,0,0,0-.17.7,1.58,1.58,0,0,0,1,.14,4.84,4.84,0,0,0,.7-.27,12.73,12.73,0,0,1-.25,1.72,1.88,1.88,0,0,1-.44.71,3.64,3.64,0,0,1-.47.28l-.6.43c.09-.29.31-.69,0-.93A3.76,3.76,0,0,0,11.34,23a1.59,1.59,0,0,1-.69-.11,10.91,10.91,0,0,1,1.6-.27c.51,0,.95.32,1.45.37.17-.13.39-.25.42-.49a3.25,3.25,0,0,1,.2-.6,2.39,2.39,0,0,1-1,.3,2,2,0,0,1-.93-.23.57.57,0,0,1-.15-.71,3.43,3.43,0,0,1,1.37-1.8,1.22,1.22,0,0,1,.81.35c0-.28,0-.56,0-.85-.16-.13-.3-.28-.47-.4-.44-.14-.85.15-1.28.18-.14,0-.25-.09-.38-.15A3.38,3.38,0,0,1,11.36,17.91Z"/><path d="M5.82,18.8a1.67,1.67,0,0,1,.51-.14,3,3,0,0,1-.52.42c-.3.2-.48.53-.78.72a10.6,10.6,0,0,1-1.35.55A17,17,0,0,1,2,21.18a7.93,7.93,0,0,0-.88.42,3.41,3.41,0,0,1,.48-.45,4.51,4.51,0,0,1,.81-.63c.25-.13.49-.29.75-.4-.35.06-.71.05-1.06.08a4.28,4.28,0,0,0-.95.55c-.27.2-.48.47-.75.66a4,4,0,0,1,.91-1.24A3.86,3.86,0,0,1,2,19.73a1.48,1.48,0,0,1,.59-.26l1.79-.23a2.15,2.15,0,0,0,.86-.19C5.4,19,5.62,18.91,5.82,18.8Z"/><path d="M8.64,18.91a1.37,1.37,0,0,1,.85,0c-.44.3-.9.57-1.36.85-.21.12-.36.31-.56.43.12-.23.34-.4.46-.64A1.25,1.25,0,0,1,8.64,18.91Z"/><path d="M8.68,19.94a5.34,5.34,0,0,1,1,0,3.64,3.64,0,0,1,.66,0c-.12.34-.43.54-.63.82a2.3,2.3,0,0,1-.39.43A2.53,2.53,0,0,0,9.83,21l.16-.11a5.85,5.85,0,0,0-.21,1.76,2.07,2.07,0,0,1,.73-.68,3.33,3.33,0,0,1,.94-.24c-.22.29-.59.39-.83.65a4.57,4.57,0,0,0-1,1.11c-.05.13-.16.22-.21.35,0-.35-.12-.69-.17-1a5.78,5.78,0,0,1-.16-1A4.45,4.45,0,0,0,8,22.72c-.22.28-.44.5-.68.81s-.41.5-.66.7c.07-.19.2-.36.28-.55s.19-.66.31-1a1.66,1.66,0,0,1,.3-.66,8.37,8.37,0,0,1,1.17-1,6.36,6.36,0,0,0,.66-.5c-.34.12-.67.27-1,.4a6.34,6.34,0,0,0-1.49.86,9.12,9.12,0,0,1,1.05-1.19C8.17,20.39,8.32,20,8.68,19.94Z"/><path d="M6.71,20.25c.24-.09.49-.15.74-.24a1.74,1.74,0,0,1-.88.75c-.26.09-.51.22-.78.3.38,0,.71.21,1.08.22-.18.08-.37.14-.56.21a1.46,1.46,0,0,1-.69,0c-.21,0-.43,0-.63,0a1.63,1.63,0,0,0-.44,0,2.79,2.79,0,0,1,1-.77C6,20.56,6.32,20.36,6.71,20.25Z"/><path d="M2,21.71c.49-.2.89-.56,1.39-.72a6.17,6.17,0,0,1,1.05.06c0,.12-.16.14-.24.22a7.08,7.08,0,0,0-.59.52,10.83,10.83,0,0,1,1.27.08,4.19,4.19,0,0,0,1,.12,2.66,2.66,0,0,1,.74.12A13.83,13.83,0,0,1,5,22.54a15,15,0,0,0-1.77.34,6.21,6.21,0,0,0-2.3.74,2.42,2.42,0,0,1,.5-.51c.39-.22.62-.62,1-.85A10.55,10.55,0,0,1,0,22.47a8,8,0,0,1,.77-.4C1.17,21.94,1.58,21.85,2,21.71Z"/><path d="M20,22.94c0-.28.22-.49.39-.68a4.6,4.6,0,0,1-.13.5,8.05,8.05,0,0,1,.63.68,1.26,1.26,0,0,1,0,.79,4.44,4.44,0,0,1-.6.63,2.31,2.31,0,0,0,.52-.22,1,1,0,0,0,.36-.43c0-.24,0-.48,0-.73a5.31,5.31,0,0,1,.33.83c0,.31,0,.71-.33.88a3,3,0,0,1-1.17.42,1.61,1.61,0,0,0-.8,1,3.08,3.08,0,0,0-.18,1,2.43,2.43,0,0,0,.79,1.57,6.86,6.86,0,0,0,1.28,1.07A8.51,8.51,0,0,1,23,31.68a2.76,2.76,0,0,1,.65,2.4,2.11,2.11,0,0,1-1.19,1.47,3.22,3.22,0,0,1-1.91.22c.13.53.2,1.08.35,1.61a5.64,5.64,0,0,0,.86,1.1,7.16,7.16,0,0,0,1.5,1.61,9.19,9.19,0,0,1,1.05.93,1.61,1.61,0,0,1,.44.7,1,1,0,0,1-.19,1c-.32.31-.66.61-1,.93a1.27,1.27,0,0,1-.88.17c-.27-.05-.34-.33-.33-.57a1.28,1.28,0,0,1,.64-.89,1.51,1.51,0,0,0-.72.28,1.37,1.37,0,0,0-.48,1.16s-.16,0-.2,0a.91.91,0,0,1-.07-1.36,1.38,1.38,0,0,0-.54.48,1.29,1.29,0,0,0-.14.89s-.06,0-.1,0a.58.58,0,0,1-.39-.4,1,1,0,0,1,.08-.9,1.86,1.86,0,0,1,.42-.42,4.16,4.16,0,0,1,.47-.24c-.38-.25-.73-.54-1.13-.76a2.2,2.2,0,0,1-1-.75,4.16,4.16,0,0,0-.68-1.15c-.16-.18-.42-.17-.63-.23a3.57,3.57,0,0,0-.72-.1,9.81,9.81,0,0,0-1.21.81,7.76,7.76,0,0,0-.88.75,6.75,6.75,0,0,0,.8,1.47.89.89,0,0,1-.1,1.12,6.71,6.71,0,0,0-1,.67.68.68,0,0,1-.57.12.67.67,0,0,1-.19-.5,1.07,1.07,0,0,1,.44-.79.68.68,0,0,0-.44.14,1.51,1.51,0,0,0-.49,1.08c0,.07-.05.1-.16.08a1.14,1.14,0,0,1-.25-1.39,1.22,1.22,0,0,0-.35.4,1.39,1.39,0,0,0,0,.68,3,3,0,0,0,.11.29s-.1,0-.17,0a1.14,1.14,0,0,1-.46-.65,1,1,0,0,1,.26-.91,2.27,2.27,0,0,1,.8-.64,11.64,11.64,0,0,1-1.22-1.11,1.88,1.88,0,0,1-.46-.55,3.22,3.22,0,0,1,.68-1.53,11.37,11.37,0,0,0-.27,1.29,8.06,8.06,0,0,0,1.13.68,1,1,0,0,0,.77,0,.29.29,0,0,0,.22-.21,3.1,3.1,0,0,0,.08-.86,5.34,5.34,0,0,0-2.2-1.53,8.26,8.26,0,0,0-.95,1.59.75.75,0,0,0-.09.29c-.1.86-.16,1.73-.24,2.59a7.39,7.39,0,0,1-.15,1.15c-.07.17-.19.36-.4.35-.71.06-1.42.06-2.14.06-.14,0-.35,0-.4-.16a1.2,1.2,0,0,1,.17-.82,1.55,1.55,0,0,1,.72-.71,1.18,1.18,0,0,1,.84.15,3,3,0,0,1,.75.54,6.78,6.78,0,0,1,0-.9c.05-.86,0-1.72,0-2.58A3.26,3.26,0,0,1,11,37.47a11.88,11.88,0,0,1,.73-1,3.13,3.13,0,0,0,.49-.75,2.42,2.42,0,0,0-.08-1c-.26-1.05-.56-2.1-.78-3.16a3.39,3.39,0,0,1,.1-1.27c.15-.63.54-1.17.7-1.79,0-.67-.15-1.34-.1-2a1.32,1.32,0,0,1,.08-.56,5.94,5.94,0,0,1,.18.6c.15.43.36.84.5,1.28s.35.67.27,1a13.72,13.72,0,0,1-.64,2,2.24,2.24,0,0,0,0,1.15,6.72,6.72,0,0,0,.48,1.39,12.6,12.6,0,0,0,1.9,3.47,9.55,9.55,0,0,0,2-.85c.29-.16.55-.34.84-.49a1.4,1.4,0,0,0,.38-.31,2,2,0,0,1,0,.49,4.58,4.58,0,0,1-1.08,2.18,7.08,7.08,0,0,1,1.57.46,1.56,1.56,0,0,1,.6.34,7.86,7.86,0,0,1,.35,1,1.25,1.25,0,0,0,.37.65,1.44,1.44,0,0,0,.77.08,1.21,1.21,0,0,0,.68-.43,1.61,1.61,0,0,0,.13-1,3.62,3.62,0,0,1-.88-.91c-.38-.84-.64-1.73-1.06-2.55a3,3,0,0,0-.6-1,3.82,3.82,0,0,0-.81-.57,8.48,8.48,0,0,0-1.74-.71,4.93,4.93,0,0,1-.54-.05,2.82,2.82,0,0,1-1.41-.8A6.78,6.78,0,0,1,13.22,31a1.37,1.37,0,0,1-.23-.81,3.35,3.35,0,0,0,1.08,1.07,6.11,6.11,0,0,0,1.07.65,8.89,8.89,0,0,0,1,.24c.44.09.88.2,1.32.28a1.18,1.18,0,0,1,.46.14,15,15,0,0,1,2,1.8,1.82,1.82,0,0,0,1.65.36,1.32,1.32,0,0,0,.84-.37,1.75,1.75,0,0,0,.21-1.29,2.32,2.32,0,0,0-.53-1.22,20.07,20.07,0,0,0-1.68-1.37,4.33,4.33,0,0,1-1.63-2.1,2.9,2.9,0,0,1,.72-2.81,8.25,8.25,0,0,1,0-.86,1.28,1.28,0,0,1,.24-.61,1.59,1.59,0,0,1,.56-.45C20.36,23.3,20.17,23.2,20,22.94Z"/><path d="M6.31,22.94a2.86,2.86,0,0,1,.48-.36A4.88,4.88,0,0,1,6.13,24a7.66,7.66,0,0,0-.87,1.62,8.65,8.65,0,0,1,1-.88,1.92,1.92,0,0,1,.56-.42c-.08.26-.25.49-.34.75a4.93,4.93,0,0,1-.22.53,4.81,4.81,0,0,1,.78-.48,2.61,2.61,0,0,0,.75-.46c.16-.16.31-.35.46-.52.3-.38.39-.89.7-1.27a5.43,5.43,0,0,1-.12.89,7.82,7.82,0,0,1-.21,1,1.18,1.18,0,0,1-.4.71,12.5,12.5,0,0,0-1.63,1.27,3.57,3.57,0,0,0-.93,1.21c-.14.3-.17.73-.32,1a8,8,0,0,1-.07-1.29,6.23,6.23,0,0,1,.05-1.06,7.92,7.92,0,0,0-.6,1.45c-.08.6-.11,1.2-.17,1.79,0,.41,0,.82,0,1.22s.08.73.06,1.11a6.38,6.38,0,0,1-.45-1c-.21-.64-.31-1.31-.48-2a5.33,5.33,0,0,1,.25-2,6.77,6.77,0,0,0,.26-1.1,6,6,0,0,1-.68.54,10.12,10.12,0,0,0-1.06,1c-.08.09-.15.19-.23.27a15.11,15.11,0,0,1,.88-1.81,3.62,3.62,0,0,1,.58-.81c.18-.19.31-.42.5-.6.35-.35.75-.63,1.1-1S6,23.21,6.31,22.94Z"/><path d="M3.9,23.32c.52-.11,1-.31,1.53-.42-.11.11-.25.19-.36.3-.34.32-.81.49-1.09.87s-.51.57-.76.85c-.34.57-.88,1-1.26,1.51S1.38,27.69,1,28.3a7.43,7.43,0,0,0-.37.81,6.08,6.08,0,0,1,.22-1.19c.13-.31.09-.67.2-1A9.68,9.68,0,0,1,2.6,24.28,5,5,0,0,0,1,25.06a8.27,8.27,0,0,1-.74.71c.11-.24.26-.48.37-.72a1.69,1.69,0,0,1,.43-.62,11,11,0,0,1,1.18-.85,3.84,3.84,0,0,1,1.11-.38l-.62.54C3.16,23.62,3.53,23.46,3.9,23.32Z"/><path d="M10,24.25a3.34,3.34,0,0,1,.43-.84c0,.44.08.88,0,1.32s-.24.69-.3,1.05a3,3,0,0,0,1.13-1.14,8.56,8.56,0,0,1,.35-1.12,5.44,5.44,0,0,1,.26,2.08A10.31,10.31,0,0,1,11,27.43c-.13.23-.26.46-.41.68a5.55,5.55,0,0,1-1.11.75,6.13,6.13,0,0,1-1.2.67c.16-.24.44-.38.62-.61a4.37,4.37,0,0,0,1-1.28c.08-.2.12-.42.2-.63a11.36,11.36,0,0,0-1.14.62,2.81,2.81,0,0,0-.55.41,14.69,14.69,0,0,1-1.22,1.15c.07-.21.17-.41.25-.62a4.83,4.83,0,0,1,.46-1.1,10.75,10.75,0,0,0-1.19.68c-.28.17-.57.31-.84.5A1.45,1.45,0,0,1,6.25,28c.35-.28.59-.66.93-.93a10.35,10.35,0,0,1,1.61-.93,3.54,3.54,0,0,0,.59-.79A5.21,5.21,0,0,0,10,24.25Z"/><path d="M3.09,27.52c.2-.2.35-.44.57-.63a2.8,2.8,0,0,1-.09.31,12.41,12.41,0,0,0-.5,1.45,4.69,4.69,0,0,1-.85,2.27c-.13.15-.23.32-.36.46a8.65,8.65,0,0,0,.25-.87,8.7,8.7,0,0,0,0-1A5.75,5.75,0,0,1,2.4,28.4,2.12,2.12,0,0,1,3.09,27.52Z"/><path d="M9.21,29.77a5.36,5.36,0,0,1,.74-.69l-.11.24c-.22.53-.58.72-.68,1.3a11.66,11.66,0,0,0-.05,3.82.84.84,0,0,0,.17.37,9.75,9.75,0,0,0,.92,1.1.25.25,0,0,1,.11.25,8.89,8.89,0,0,1-.89,2.14c-.13.41-.28.82-.43,1.23a2.93,2.93,0,0,1-.67,1.07,9.09,9.09,0,0,0-.68.81c.05-.59.33-1.13.4-1.72a10.64,10.64,0,0,0,.33-2.31,3,3,0,0,0-.1-1c-.09-.14-.27-.18-.41-.27a6.2,6.2,0,0,0-1.31-.53,1.18,1.18,0,0,0-.59,0c-.5.1-1,.26-1.48.38l.47.41a3.69,3.69,0,0,1,.39.35c-.43,0-.85-.33-1.25-.42s-.71-.12-1.06-.19a7.61,7.61,0,0,0,1.19-.82,15.84,15.84,0,0,0-.58-1.49,7.58,7.58,0,0,0-.41-.92.75.75,0,0,1-.12-.41c0-.69,0-1.39,0-2.08a1.84,1.84,0,0,1,.12-.66c.13.39.18.8.32,1.18a4.49,4.49,0,0,0,1,1.9l.93.94c-.14-.24-.28-.47-.4-.72s-.26-.39-.36-.61c.58.43,1.16.86,1.72,1.31-.28-.53-.55-1.07-.79-1.62a3.24,3.24,0,0,1-.19-1.38,5,5,0,0,1,.22-1.48c.07.27.08.46.14.68a16,16,0,0,0,1.48,3.58A9.11,9.11,0,0,1,7.08,32a12.58,12.58,0,0,1,.14-1.39,5.69,5.69,0,0,1,.31-1.23,5,5,0,0,1,.14,1.23A7.57,7.57,0,0,0,8,31.88a3.58,3.58,0,0,0,.14.54,6.32,6.32,0,0,1,.46-1.82A3.31,3.31,0,0,1,9.21,29.77Z"/><path d="M2.25,34.83a5.45,5.45,0,0,1,.37-.77c-.06.65-.31,1.28-.39,1.93a2.09,2.09,0,0,0,0,.93,2.45,2.45,0,0,0,.42.91c.26.3.5.62.76.91a1.79,1.79,0,0,0,.39.43,2.85,2.85,0,0,0,2.06.55,1.53,1.53,0,0,1-.41.31,2.23,2.23,0,0,1-.67.14c-.24,0-.47,0-.7.06A.91.91,0,0,1,3.44,40a3,3,0,0,1-.84-.89c-.34-.55-.81-1-1.11-1.59a.66.66,0,0,1,0-.44A20,20,0,0,1,2.25,34.83Z"/><path d="M4.51,37.42a1.48,1.48,0,0,1,.52,0,4.16,4.16,0,0,0,1.27,0c.09.11.25.22.19.38a.72.72,0,0,1-.58.32c-.23,0-.55.09-.74-.08A2.64,2.64,0,0,1,4.51,37.42Z"/><path d="M4.35,38.41a3.07,3.07,0,0,0,1.2.3c.2,0,.63-.11.83-.09a.81.81,0,0,1,0,.31,1,1,0,0,1-.94.37,1.62,1.62,0,0,1-.57-.16A1.43,1.43,0,0,1,4.35,38.41Z"/><path d="M6.74,42.55A1.69,1.69,0,0,1,8.19,42a2.19,2.19,0,0,0-.71.71,3.15,3.15,0,0,0-.13,1c-.07.15-.28.09-.42.1s-.31-.22-.34-.4S6.5,42.76,6.74,42.55Z"/><path d="M5.89,42.47a1,1,0,0,1,.91-.34c-.18.14-.44.29-.53.51s0,.65-.08,1c0,.15-.18.14-.29.15s-.22-.14-.22-.26A1.4,1.4,0,0,1,5.89,42.47Z"/><path d="M34,29.36a3.71,3.71,0,0,0-.69-1.48c-.36-.38-.82-.5-1.78-.5h-.86c-.6,0-.66,0-.66.6v3.79h1.38c1.55,0,1.7-.15,1.91-1.25H34v3.41h-.61c-.19-1.16-.36-1.3-1.91-1.3H30.05v2.71c0,1.61.13,1.72,1.62,1.84v.6H26.32v-.6c1.26-.12,1.43-.23,1.43-1.84V29c0-1.54-.17-1.66-1.43-1.76v-.62h8.13c0,.29.1,1.61.19,2.61Z"/><path d="M41.29,37.78v-.6c1.14-.21,1.07-.45.76-1-.17-.29-.57-.94-1.82-3.07-.82,1.22-1.51,2.34-1.89,3s-.25.88.91,1.07v.6H35v-.6a2.94,2.94,0,0,0,2-1c.62-.79,1.82-2.33,2.79-3.8-.82-1.36-1.52-2.54-2.43-4a2.34,2.34,0,0,0-2.11-1.23v-.6h5.18v.6c-1,.22-.93.41-.72.82s.84,1.44,1.54,2.59a21.8,21.8,0,0,0,1.55-2.4c.32-.62.27-.79-.83-1v-.6h4.13v.6a2.88,2.88,0,0,0-2.26,1.18c-.6.69-1.32,1.7-2.14,2.83,1,1.6,1.85,3,2.84,4.51a2.41,2.41,0,0,0,2.27,1.43v.6Z"/><path class="cls-6" d="M51.63,26.39a5.53,5.53,0,0,1,5.66,5.69,5.85,5.85,0,1,1-5.67-5.69Zm-.34.7c-1.71,0-3.07,1.84-3.07,4.8s1.3,5.42,3.5,5.42c1.63,0,3-1.59,3-4.75,0-3.41-1.39-5.47-3.36-5.47Z"/><path class="cls-6" d="M69,37.93l-.51,0c-2.16-.1-2.83-.58-3.52-1.66-.44-.7-.91-1.63-1.4-2.52A1.19,1.19,0,0,0,62.44,33h-.33v2.51c0,1.4.17,1.58,1.46,1.7v.6H58.39v-.6c1.28-.12,1.47-.3,1.47-1.7V28.89c0-1.37-.15-1.54-1.4-1.66v-.6h4.82a5.08,5.08,0,0,1,3,.65,2.63,2.63,0,0,1,1.16,2.28,3,3,0,0,1-2.14,2.8c.24.49.89,1.64,1.39,2.43a15.13,15.13,0,0,0,1.32,1.85,2.48,2.48,0,0,0,1,.74Zm-6.44-5.62a2.42,2.42,0,0,0,1.68-.47,2.47,2.47,0,0,0,.82-2c0-1.82-1.06-2.48-2-2.48a1.16,1.16,0,0,0-.78.17c-.12.1-.15.27-.15.63v4.19Z"/><path class="cls-6" d="M75.59,26.39a5.54,5.54,0,0,1,5.66,5.69,5.85,5.85,0,1,1-5.68-5.69Zm-.35.7c-1.71,0-3.06,1.84-3.06,4.8s1.3,5.42,3.49,5.42c1.63,0,3-1.59,3-4.75,0-3.41-1.39-5.47-3.36-5.47Z"/><path class="cls-7" d="M29.3,43.36h-.46l-.32-.91H27.11l-.32.91h-.45l1.19-3.26h.58Zm-.92-1.28-.57-1.6-.57,1.6Z"/><path class="cls-7" d="M32.37,43.36H32V42c0-.11,0-.22,0-.32a.62.62,0,0,0-.08-.23.27.27,0,0,0-.15-.13.68.68,0,0,0-.27,0,.93.93,0,0,0-.35.08,1.93,1.93,0,0,0-.36.22v1.82h-.41V40.92h.41v.27a1.56,1.56,0,0,1,.4-.25,1.06,1.06,0,0,1,.42-.09.76.76,0,0,1,.61.24,1,1,0,0,1,.21.68Z"/><path class="cls-7" d="M35.7,40.92l-1.42,3.35h-.45l.46-1-1-2.32h.44l.75,1.81.76-1.81Z"/><path class="cls-7" d="M38.07,43.34l-.25,0-.24,0a.77.77,0,0,1-.57-.2.9.9,0,0,1-.2-.65v-1.3h-.28v-.34h.28v-.71h.41v.71h.85v.34h-.85v1.12c0,.13,0,.23,0,.3a.66.66,0,0,0,.06.2.35.35,0,0,0,.14.13.54.54,0,0,0,.25,0l.21,0,.16-.05h0Z"/><path class="cls-7" d="M41.18,43.36h-.41V42c0-.11,0-.22,0-.32a.62.62,0,0,0-.08-.23.24.24,0,0,0-.15-.13.68.68,0,0,0-.27,0,.93.93,0,0,0-.35.08,1.93,1.93,0,0,0-.36.22v1.82h-.41V40h.41v1.24a1.75,1.75,0,0,1,.4-.25,1.07,1.07,0,0,1,.43-.09.75.75,0,0,1,.6.24,1,1,0,0,1,.21.68Z"/><path class="cls-7" d="M42.8,40.51h-.47v-.43h.47Zm0,2.85h-.41V40.92h.41Z"/><path class="cls-7" d="M46.1,43.36h-.41V42c0-.11,0-.22,0-.32a.63.63,0,0,0-.07-.23.29.29,0,0,0-.16-.13.68.68,0,0,0-.27,0,.93.93,0,0,0-.35.08,1.86,1.86,0,0,0-.35.22v1.82h-.41V40.92h.41v.27a1.56,1.56,0,0,1,.4-.25,1,1,0,0,1,.42-.09.74.74,0,0,1,.6.24,1,1,0,0,1,.21.68Z"/><path class="cls-7" d="M49.44,43.08a1.28,1.28,0,0,1-.28.92,1.18,1.18,0,0,1-.87.29,2.34,2.34,0,0,1-.38,0,2.45,2.45,0,0,1-.37-.08v-.42h0a2.08,2.08,0,0,0,.32.1,1.59,1.59,0,0,0,.43.06,1.13,1.13,0,0,0,.35-.05.49.49,0,0,0,.22-.14.7.7,0,0,0,.11-.21,1.12,1.12,0,0,0,0-.27V43a1.59,1.59,0,0,1-.36.22,1,1,0,0,1-.43.08.88.88,0,0,1-.7-.32,1.39,1.39,0,0,1-.25-.89,1.51,1.51,0,0,1,.09-.55,1.28,1.28,0,0,1,.24-.39.94.94,0,0,1,.34-.25,1.24,1.24,0,0,1,.41-.08,1.28,1.28,0,0,1,.36,0A1.82,1.82,0,0,1,49,41l0-.1h.38ZM49,42.69V41.36a1.45,1.45,0,0,0-.31-.11,1.27,1.27,0,0,0-.28,0,.64.64,0,0,0-.53.23,1,1,0,0,0-.2.66,1.07,1.07,0,0,0,.15.62.53.53,0,0,0,.48.21,1.13,1.13,0,0,0,.36-.06A1.35,1.35,0,0,0,49,42.69Z"/><path class="cls-7" d="M53.39,40.51h-.46v-.43h.46Zm0,2.85H53V40.92h.41Z"/><path class="cls-7" d="M56.49,42.66a.67.67,0,0,1-.28.55,1.19,1.19,0,0,1-.75.21,2,2,0,0,1-.5-.06,3.14,3.14,0,0,1-.38-.14v-.47h0A1.82,1.82,0,0,0,55,43a1.31,1.31,0,0,0,.46.08,1,1,0,0,0,.43-.08.3.3,0,0,0,.15-.28.29.29,0,0,0-.08-.22.83.83,0,0,0-.32-.13l-.23,0-.26-.06a.91.91,0,0,1-.46-.25.63.63,0,0,1-.13-.41.67.67,0,0,1,.06-.28.72.72,0,0,1,.19-.24.91.91,0,0,1,.31-.16,1.44,1.44,0,0,1,.43-.06,1.7,1.7,0,0,1,.44,0,2.09,2.09,0,0,1,.38.13v.44h0a1.23,1.23,0,0,0-.38-.19,1.17,1.17,0,0,0-.44-.08.74.74,0,0,0-.38.08.28.28,0,0,0-.16.26.29.29,0,0,0,.09.23.85.85,0,0,0,.3.12l.26.05.23,0a1,1,0,0,1,.45.23A.61.61,0,0,1,56.49,42.66Z"/><path class="cls-7" d="M61.93,42.11a1.53,1.53,0,0,1-.08.54,1.22,1.22,0,0,1-.24.42,1,1,0,0,1-.34.25,1,1,0,0,1-.42.09,1.18,1.18,0,0,1-.34,0,1.44,1.44,0,0,1-.32-.13v1h-.41V40.92h.41v.25a1.54,1.54,0,0,1,.37-.23,1.08,1.08,0,0,1,.44-.09.83.83,0,0,1,.69.33A1.56,1.56,0,0,1,61.93,42.11Zm-.42,0a1.19,1.19,0,0,0-.15-.66.52.52,0,0,0-.47-.22.89.89,0,0,0-.35.08,1.75,1.75,0,0,0-.35.2v1.39a2.08,2.08,0,0,0,.3.1,1.29,1.29,0,0,0,.29,0,.68.68,0,0,0,.54-.23A1.13,1.13,0,0,0,61.51,42.12Z"/><path class="cls-7" d="M65.22,42.14a1.38,1.38,0,0,1-.3.94,1,1,0,0,1-.83.35,1,1,0,0,1-.82-.35,1.58,1.58,0,0,1,0-1.88,1,1,0,0,1,.82-.35,1,1,0,0,1,.83.35A1.38,1.38,0,0,1,65.22,42.14Zm-.42,0a1.09,1.09,0,0,0-.19-.71.64.64,0,0,0-.52-.23.65.65,0,0,0-.52.23,1.16,1.16,0,0,0-.18.71,1.15,1.15,0,0,0,.18.7.63.63,0,0,0,.52.24.62.62,0,0,0,.52-.24A1.14,1.14,0,0,0,64.8,42.14Z"/><path class="cls-7" d="M68.17,42.66a.67.67,0,0,1-.28.55,1.19,1.19,0,0,1-.75.21,1.9,1.9,0,0,1-.5-.06,3.14,3.14,0,0,1-.38-.14v-.47h0a1.64,1.64,0,0,0,.43.24,1.28,1.28,0,0,0,.46.08A1,1,0,0,0,67.6,43a.3.3,0,0,0,.15-.28.29.29,0,0,0-.08-.22.9.9,0,0,0-.32-.13l-.23,0-.26-.06A.87.87,0,0,1,66.4,42a.63.63,0,0,1-.13-.41.67.67,0,0,1,.06-.28.61.61,0,0,1,.19-.24.91.91,0,0,1,.31-.16,1.44,1.44,0,0,1,.43-.06,1.7,1.7,0,0,1,.44,0,2,2,0,0,1,.37.13v.44h0a1.23,1.23,0,0,0-.38-.19,1.19,1.19,0,0,0-.45-.08.76.76,0,0,0-.38.08.29.29,0,0,0-.15.26.29.29,0,0,0,.09.23.71.71,0,0,0,.3.12l.26.05.23,0a.88.88,0,0,1,.44.23A.57.57,0,0,1,68.17,42.66Z"/><path class="cls-7" d="M71.07,42.66a.67.67,0,0,1-.28.55,1.23,1.23,0,0,1-.76.21,1.88,1.88,0,0,1-.49-.06,2.61,2.61,0,0,1-.38-.14v-.47h0a1.64,1.64,0,0,0,.43.24,1.28,1.28,0,0,0,.46.08,1,1,0,0,0,.42-.08.29.29,0,0,0,.16-.28.27.27,0,0,0-.09-.22.76.76,0,0,0-.32-.13l-.22,0-.26-.06A.87.87,0,0,1,69.3,42a.63.63,0,0,1-.13-.41.67.67,0,0,1,.06-.28.61.61,0,0,1,.19-.24.82.82,0,0,1,.31-.16,1.42,1.42,0,0,1,.42-.06,1.73,1.73,0,0,1,.45,0A2,2,0,0,1,71,41v.44h0a1.35,1.35,0,0,0-.38-.19,1.19,1.19,0,0,0-.45-.08.76.76,0,0,0-.38.08.29.29,0,0,0-.15.26.29.29,0,0,0,.09.23.71.71,0,0,0,.3.12l.25.05.24,0a.88.88,0,0,1,.44.23A.57.57,0,0,1,71.07,42.66Z"/><path class="cls-7" d="M72.66,40.51H72.2v-.43h.46Zm0,2.85h-.41V40.92h.41Z"/><path class="cls-7" d="M76.07,42.12a1.55,1.55,0,0,1-.08.55,1.17,1.17,0,0,1-.24.41.84.84,0,0,1-.34.26.91.91,0,0,1-.41.09,1.25,1.25,0,0,1-.36,0,2,2,0,0,1-.31-.13l0,.11h-.39V40h.41v1.22a2.06,2.06,0,0,1,.37-.23,1,1,0,0,1,.44-.09.8.8,0,0,1,.68.33A1.52,1.52,0,0,1,76.07,42.12Zm-.42,0a1.19,1.19,0,0,0-.15-.66.5.5,0,0,0-.46-.23,1,1,0,0,0-.37.08,1.68,1.68,0,0,0-.34.2v1.4l.3.11a1.29,1.29,0,0,0,.29,0,.67.67,0,0,0,.54-.22A1.14,1.14,0,0,0,75.65,42.13Z"/><path class="cls-7" d="M77.69,43.36h-.41V40h.41Z"/><path class="cls-7" d="M81,42.18H79.22a1.24,1.24,0,0,0,.07.4.77.77,0,0,0,.19.27.81.81,0,0,0,.27.16,1.21,1.21,0,0,0,.34.05,1.32,1.32,0,0,0,.51-.1,1.14,1.14,0,0,0,.36-.2h0v.45a3.12,3.12,0,0,1-.43.15,1.63,1.63,0,0,1-.45.06,1.31,1.31,0,0,1-.95-.33,1.23,1.23,0,0,1-.34-.94,1.38,1.38,0,0,1,.32-.95,1.15,1.15,0,0,1,.87-.35,1,1,0,0,1,.76.29A1.14,1.14,0,0,1,81,42Zm-.4-.31a.73.73,0,0,0-.17-.51.65.65,0,0,0-.49-.17.69.69,0,0,0-.52.19.78.78,0,0,0-.23.49Z"/><rect x="89.31" width="1" height="60"/><text class="cls-8" transform="translate(26.94 56.43)">MAIN PARTNER</text></svg>