<?xml version="1.0" encoding="utf-8"?>
<!-- Generator: Adobe Illustrator 26.1.0, SVG Export Plug-In . SVG Version: 6.00 Build 0)  -->
<svg version="1.1" id="Layer_1" xmlns="http://www.w3.org/2000/svg" xmlns:xlink="http://www.w3.org/1999/xlink" x="0px" y="0px"
	 viewBox="0 0 4900 1530" enable-background="new 0 0 4900 1530" xml:space="preserve">
<path fill="#1B75B8" d="M1649.01,752.15h11.77c2.34,0,4.23-1.9,4.23-4.24v-10.53c13.16-2.86,23.05-13.48,24.31-26.32
	c0.83-8.6-1.88-16.84-7.67-23.21c-5.7-6.28-13.83-9.89-22.29-9.89h-8.93c-2.78,0-5.45-1.19-7.32-3.26c-1.9-2.1-2.78-4.81-2.49-7.65
	c0.5-4.94,5.12-8.83,10.51-8.83h10.42c2.94,0,5.52,2.09,6.14,4.94c0.4,1.88,2.12,3.24,4.09,3.24h11.92c1.21,0,2.38-0.51,3.19-1.42
	c0.78-0.86,1.16-2.01,1.05-3.14c-1.23-12.3-10.74-21.94-22.92-23.53v-10.07c0-2.33-1.9-4.23-4.23-4.23h-11.77
	c-2.34,0-4.24,1.9-4.24,4.23v10.31c-15.26,2.89-25.83,16.88-24.3,32.55c1.48,15.2,15.2,27.11,31.22,27.11h7.68
	c2.78,0,5.45,1.2,7.32,3.26c1.9,2.09,2.78,4.81,2.49,7.63c-0.51,4.95-5.12,8.83-10.5,8.83h-10.43c-2.93,0-5.51-2.08-6.13-4.95
	c-0.41-1.86-2.13-3.21-4.09-3.21h-11.91c-1.21,0-2.38,0.51-3.19,1.41c-0.78,0.86-1.17,2.01-1.05,3.15
	c1.24,12.29,10.75,21.93,22.92,23.51v10.08C1644.77,750.25,1646.67,752.15,1649.01,752.15z"/>
<path fill="#273773" d="M1890.44,664.12h-183.6c-0.38,4.97-2.3,9.95-5.74,13.58c-0.57,0.57-1.15,1.15-1.72,1.72
	c7.08,9.75,10.14,21.42,8.99,33.47c-1.53,15.87-10.71,29.65-24.29,37.49c-1.34,11.67-11.28,20.85-23.33,20.85h-11.67
	c-1.34,0-2.68-0.19-3.82-0.38V874.5l93.52-115.52c1.91-2.29,4.78-3.63,8.03-3.44c3.06,0.19,5.93,1.91,7.65,4.59l21.61,35.57
	l38.44-52.78l-15.3,2.29c-5.16,0.77-10.14-2.87-10.71-8.22c-0.77-5.16,2.87-9.95,8.03-10.71l37.87-5.36
	c5.16-0.77,9.95,2.87,10.71,8.04l5.55,37.87c0.57,5.16-3.06,10.13-8.22,10.9h-1.34c-4.59,0-8.8-3.44-9.37-8.22l-2.1-14.73
	l-46.48,63.69c-1.91,2.68-4.97,4.02-8.22,4.02c-3.06-0.19-5.93-1.91-7.65-4.59l-22.19-36.34l-84.73,104.81h230.08
	c5.16,0,9.56-4.21,9.56-9.56V673.68C1900,668.32,1895.6,664.12,1890.44,664.12z"/>
<path fill="#273773" d="M1376.71,753.86v118.61c0,9.02-7.3,16.36-16.31,16.36h-188.42c-9.02,0-16.36-7.34-16.36-16.36V753.86h-0.47
	c-5.79,0-11.42-0.9-16.7-2.66v121.28c0,18.5,15.03,33.53,33.53,33.53h188.42c18.46,0,33.49-15.03,33.49-33.53V751.2
	c-5.28,1.76-10.86,2.66-16.66,2.66H1376.71z"/>
<path fill="#273773" d="M1410.52,685.49l-8.11-19.98c-4.52-11.13-15.33-18.4-27.34-18.4h-217.78c-12.01,0-22.82,7.28-27.34,18.4
	l-8.12,20c-3.65,9-4.19,19.16-0.57,28.18c5.69,14.18,19.16,23,33.86,23c10.77,0,20.56-4.71,27.29-12.35
	c6.91,7.84,16.7,12.35,27.24,12.35h2.02c10.36,0,19.83-4.47,26.52-11.6c6.86,7.37,16.56,11.6,26.63,11.6h2.7
	c10.08,0,19.77-4.23,26.63-11.61c6.69,7.14,16.16,11.61,26.52,11.61h2.02c10.54,0,20.33-4.51,27.24-12.36
	c6.73,7.65,16.53,12.36,27.29,12.36c14.69,0,28.15-8.81,33.85-22.99C1414.72,704.68,1414.18,694.5,1410.52,685.49z"/>
<path fill="#1B75B8" d="M1197.75,822.09c-3.16,0-5.72,2.56-5.72,5.72v35.55c0,3.16,2.56,5.72,5.72,5.72h12.24
	c3.16,0,5.72-2.56,5.72-5.72v-35.55c0-3.16-2.56-5.72-5.72-5.72H1197.75z"/>
<path fill="#1B75B8" d="M1239.29,799.54c-3.16,0-5.72,2.56-5.72,5.72v58.11c0,3.16,2.56,5.72,5.72,5.72h12.24
	c3.16,0,5.72-2.56,5.72-5.72v-58.1c0-3.16-2.56-5.72-5.72-5.72H1239.29z"/>
<path fill="#1B75B8" d="M1280.83,822.09c-3.16,0-5.72,2.56-5.72,5.72v35.55c0,3.16,2.56,5.72,5.72,5.72h12.24
	c3.16,0,5.72-2.56,5.72-5.72v-35.55c0-3.16-2.56-5.72-5.72-5.72H1280.83z"/>
<path fill="#1B75B8" d="M1322.36,799.54c-3.16,0-5.72,2.56-5.72,5.72v58.1c0,3.16,2.56,5.72,5.72,5.72h12.24
	c3.16,0,5.72-2.56,5.72-5.72v-58.1c0-3.16-2.56-5.72-5.72-5.72H1322.36z"/>
<path fill="#1B75B8" d="M1203.87,781.86c-7.47,0-13.53,6.06-13.53,13.53c0,7.47,6.06,13.53,13.53,13.53
	c7.47,0,13.53-6.06,13.53-13.53c0-1.07-0.15-2.09-0.39-3.09l20.14-12.94c2.29,1.77,5.13,2.87,8.25,2.87c3.12,0,5.96-1.1,8.25-2.87
	l20.14,12.94c-0.23,0.99-0.39,2.02-0.39,3.09c0,7.47,6.06,13.53,13.53,13.53c7.47,0,13.53-6.06,13.53-13.53
	c0-1.07-0.15-2.09-0.39-3.09l20.14-12.94c2.29,1.77,5.13,2.87,8.25,2.87c7.47,0,13.53-6.06,13.53-13.53
	c0-7.47-6.06-13.53-13.53-13.53c-7.47,0-13.53,6.06-13.53,13.53c0,1.06,0.15,2.09,0.39,3.09l-20.14,12.94
	c-2.29-1.78-5.13-2.88-8.25-2.88c-3.12,0-5.96,1.1-8.25,2.88l-20.14-12.94c0.23-0.99,0.39-2.02,0.39-3.09
	c0-7.47-6.06-13.53-13.53-13.53c-7.47,0-13.53,6.06-13.53,13.53c0,1.06,0.15,2.09,0.39,3.09l-20.14,12.94
	C1209.83,782.96,1206.99,781.86,1203.87,781.86z"/>
<path id="Vector_124" fill="#1B75B8" d="M2146.41,709.09c-25.39,0-46.08,20.69-46.08,46.08c0,25.39,20.69,46.08,46.08,46.08
	c25.39,0,46.08-20.69,46.08-46.08C2192.5,729.78,2171.8,709.09,2146.41,709.09z M2174.88,746.97l-28.56,28.56
	c-1.71,1.62-3.85,2.48-6.07,2.48s-4.36-0.86-6.07-2.48l-16.25-16.25c-3.33-3.34-3.33-8.81,0-12.14c3.34-3.33,8.72-3.33,12.06,0
	l10.26,10.26l22.57-22.57c3.34-3.34,8.72-3.34,12.06,0C2178.22,738.16,2178.22,743.64,2174.88,746.97z"/>
<path id="Vector_125" fill="#273773" d="M2260.47,732.18l-18.98-6.92c-1.71-5.56-3.93-10.94-6.67-16.16l8.55-18.38
	c1.45-3.25,0.77-7.1-1.71-9.58l-21.2-21.2c-2.48-2.48-6.41-3.16-9.58-1.71l-18.38,8.55c-5.22-2.74-10.6-4.96-16.16-6.67l-6.93-18.98
	c-1.28-3.42-4.45-5.64-8.04-5.64h-29.92c-3.59,0-6.75,2.22-8.04,5.64l-6.92,18.98c-5.56,1.71-10.94,3.93-16.16,6.67l-18.38-8.55
	c-3.25-1.45-7.1-0.77-9.58,1.71l-21.2,21.2c-2.48,2.48-3.16,6.33-1.71,9.58l8.55,18.38c-2.74,5.22-4.96,10.6-6.67,16.16l-18.98,6.92
	c-3.42,1.28-5.64,4.45-5.64,8.04v29.92c0,3.59,2.22,6.75,5.64,8.04l18.98,6.92c1.71,5.56,3.93,10.94,6.67,16.16l-8.55,18.38
	c-1.45,3.25-0.77,7.1,1.71,9.58l21.2,21.2c2.48,2.48,6.33,3.16,9.58,1.71l18.38-8.55c5.22,2.74,10.6,4.96,16.16,6.67l6.92,18.98
	c1.28,3.42,4.45,5.64,8.04,5.64h29.92c3.59,0,6.75-2.22,8.04-5.64l6.93-18.98c5.56-1.71,10.94-3.93,16.16-6.67l18.38,8.55
	c3.16,1.45,7.1,0.77,9.58-1.71l21.2-21.2c2.48-2.48,3.16-6.33,1.71-9.58l-8.55-18.38c2.74-5.22,4.96-10.6,6.67-16.16l18.98-6.92
	c3.42-1.28,5.64-4.45,5.64-8.04v-29.92C2266.12,736.62,2263.89,733.46,2260.47,732.18z M2209.6,755.18
	c0,34.88-28.3,63.19-63.19,63.19s-63.19-28.3-63.19-63.19c0-34.88,28.3-63.19,63.19-63.19S2209.6,720.29,2209.6,755.18z"/>
<path id="Vector_65" fill="#1B75B8" d="M2603.16,731.07v68.51c0,5.74-1.09,11.44-3.21,16.76c-2.12,5.32-5.22,10.15-9.13,14.21
	c-3.91,4.07-8.56,7.29-13.67,9.49c-5.11,2.21-10.59,3.34-16.13,3.34h-109.57v8.75c0.02,6.97,2.69,13.63,7.43,18.56
	c4.74,4.92,11.16,7.69,17.86,7.72h97.18c1.32,0.01,2.61,0.35,3.79,0.96l30.09,15.6c1.18,0.62,2.47,0.96,3.79,0.97
	c1.58,0,3.12-0.45,4.47-1.32c1.21-0.79,2.22-1.88,2.91-3.19c0.69-1.3,1.06-2.76,1.05-4.26v-131.4c-0.01-5.42-1.64-10.72-4.66-15.13
	C2612.34,736.22,2608.08,732.87,2603.16,731.07z"/>
<path id="Vector_66" fill="#273773" d="M2586.31,799.58V694.45c0-6.97-2.66-13.66-7.41-18.59c-4.74-4.93-11.17-7.69-17.88-7.69
	h-151.71c-6.71,0-13.14,2.76-17.88,7.69c-4.74,4.93-7.41,11.62-7.41,18.59v157.68c0,1.65,0.45,3.27,1.29,4.66
	c0.84,1.41,2.05,2.52,3.48,3.24c1.43,0.71,3.03,0.99,4.61,0.8c1.58-0.18,3.07-0.83,4.31-1.86l37.52-31.2
	c1.49-1.24,3.34-1.91,5.25-1.92h120.53c6.71,0,13.14-2.76,17.88-7.69C2583.64,813.22,2586.31,806.54,2586.31,799.58z
	 M2492.92,785.38c-0.38,1.08-0.98,2.08-1.77,2.89c-0.79,0.83-1.74,1.45-2.78,1.85c-1.01,0.45-2.1,0.7-3.2,0.7
	c-1.1,0-2.19-0.25-3.2-0.7c-1.05-0.4-2-1.02-2.78-1.85c-0.79-0.81-1.39-1.81-1.77-2.89c-0.43-1.05-0.66-2.18-0.67-3.33
	c0.03-2.31,0.91-4.53,2.44-6.21c0.82-0.77,1.76-1.39,2.78-1.85c1.01-0.48,2.1-0.72,3.2-0.72c1.1,0,2.2,0.25,3.2,0.72
	c1.02,0.45,1.96,1.07,2.78,1.85c1.55,1.67,2.43,3.9,2.44,6.21C2493.58,783.2,2493.35,784.33,2492.92,785.38z M2494.53,754.72
	c-0.46,0.28-0.83,0.7-1.08,1.19c-0.25,0.49-0.37,1.05-0.34,1.6c0,2.32-0.89,4.56-2.47,6.2c-1.58,1.64-3.72,2.57-5.96,2.57
	s-4.38-0.93-5.96-2.57c-1.58-1.64-2.47-3.87-2.47-6.2c-0.06-4.02,1.03-7.97,3.13-11.35c2.1-3.37,5.12-6.03,8.67-7.62
	c1.77-0.76,3.26-2.1,4.24-3.81c0.98-1.72,1.41-3.72,1.22-5.69c-0.19-1.99-1-3.86-2.29-5.33c-1.3-1.47-3.01-2.47-4.9-2.84
	c-2.1-0.4-4.27-0.01-6.12,1.08c-1.85,1.11-3.27,2.87-3.99,4.94c-0.76,2.17-2.32,3.94-4.33,4.92c-2.01,0.98-4.32,1.1-6.41,0.32
	c-2.09-0.77-3.81-2.38-4.77-4.45c-0.96-2.09-1.09-4.48-0.37-6.66c1.43-4.21,3.86-7.99,7.05-10.97c3.19-2.99,7.06-5.1,11.23-6.14
	c4.18-1.05,8.54-0.98,12.7,0.17c4.15,1.16,7.96,3.37,11.08,6.46c3.12,3.07,5.45,6.91,6.77,11.15c1.33,4.25,1.61,8.78,0.83,13.17
	c-0.78,4.39-2.61,8.51-5.32,11.98c-2.71,3.47-6.2,6.18-10.18,7.89H2494.53z"/>
<path id="Vector_16" fill="#1B75B8" d="M2809.6,828.13c-3.65-3.8-10.05-4.28-14.22-1.1l-0.11-0.07l-9.45,9.46
	c-2.08,2.07-3.22,4.82-3.22,7.76c-0.12,5.9,5.07,11.09,10.98,10.97c3.42,0.06,6.49-1.66,8.73-4.19l7.29-7.3
	c1.54-1.53,2.56-3.44,2.99-5.51C2813.36,834.56,2812.22,830.71,2809.6,828.13z"/>
<path id="Vector_17" fill="#1B75B8" d="M2783.32,795.99c-4.28-4.28-11.24-4.28-15.53,0c-1,1-7.14,7.14-8.28,8.28
	c-9.86,10.71,4.8,25.38,15.51,15.52c0,0,7.18-7.18,8.29-8.28C2787.6,807.24,2787.6,800.27,2783.32,795.99z"/>
<path id="Vector_18" fill="#1B75B8" d="M2832.03,853.16c-2.93,0-5.68,1.14-7.76,3.22l-8.28,8.28c-0.04,0.04-0.07,0.08-0.11,0.12
	c-4.16,4.1-4.09,11.36,0.11,15.4c4.28,4.28,11.24,4.28,15.53,0l8.28-8.29C2846.66,865.04,2841.72,853.12,2832.03,853.16z"/>
<path id="Vector_19" fill="#273773" d="M2905.67,731.36c-16.94,10.68-39.65,8.65-54.4-6.09l-19.19-19.19l23.96-23.95
	c-25.73-28.87-70.97-30.7-98.36-3.13c-27.53,27.35-25.77,72.53,3.05,98.27c20.98-11.73,46.77,4.65,45.08,28.55
	c13.89,1.5,25.65,14.09,26.28,27.99c13.07-0.28,26.05,9.5,29.22,22.41c10.88-2.92,23.07,0.7,30.51,9.31l0.22-0.26
	c10.8,6.48,22.22-6.83,14.09-16.53l0.01-0.02c-0.17-0.16-43.61-43.61-43.61-43.61c3.42-3.41,10.29-10.29,13.7-13.7l43.13,43.12
	c10.7,9.87,25.38-4.81,15.5-15.52l-43.1-43.12c3.41-3.41,10.29-10.28,13.7-13.7c9.69,9.69,33.2,33.2,43.11,43.12
	c4.09,4.25,11.44,4.25,15.53,0c4.27-4.28,4.27-11.24,0-15.52L2905.67,731.36z"/>
<path id="Vector_20" fill="#1B75B8" d="M2981.8,679c-26.26-26.25-68.97-26.25-95.23,0c-5.1,5.11-22.25,22.27-27.07,27.09l5.49,5.49
	c9.54,9.55,25.06,9.55,34.6,0l6.86-6.85c3.65,3.68,70.51,70.44,72.39,72.46C3007.58,751.43,3009.29,706.31,2981.8,679z"/>
<path id="Vector_21" fill="#1B75B8" d="M2876.81,877.81c-4.27-4.28-11.23-4.28-15.51,0l-8.28,8.28c-4.27,4.08-4.26,11.43,0,15.52
	c4.09,4.25,11.42,4.25,15.51,0l8.28-8.28C2881.07,889.25,2881.07,881.87,2876.81,877.81z"/>
<path id="Vector_33" fill="#273773" d="M3314.68,664.22h-192.12c-17.53,0-31.79,14.26-31.79,31.78v105.95
	c0,17.53,14.26,31.78,31.79,31.78h166.54l39.28,39.27c3.05,3.06,7.63,3.93,11.53,2.3c3.98-1.63,6.55-5.5,6.55-9.79V696
	C3346.47,678.48,3332.21,664.22,3314.68,664.22z M3261.72,780.76h-86.16c-5.86,0-10.6-4.74-10.6-10.6c0-5.85,4.74-10.59,10.6-10.59
	h86.16c5.86,0,10.6,4.74,10.6,10.59C3272.32,776.02,3267.58,780.76,3261.72,780.76z M3282.9,738.38h-128.55
	c-5.84,0-10.58-4.74-10.58-10.59c0-5.86,4.74-10.6,10.58-10.6h128.55c5.86,0,10.6,4.74,10.6,10.6
	C3293.5,733.64,3288.76,738.38,3282.9,738.38z"/>
<rect x="3090.78" y="703.16" fill="#1B75B8" width="255.69" height="89.62"/>
<path fill="#1B75B8" d="M3592.69,544.78c2.16-3.74,7.56-3.74,9.73,0l27.11,46.95l27.11,46.95c2.16,3.74-0.54,8.42-4.86,8.42h-54.21
	h-54.21c-4.32,0-7.02-4.68-4.86-8.42l27.11-46.95L3592.69,544.78z"/>
</svg>
