<?xml version="1.0" encoding="UTF-8"?>
<svg id="Layer_1" data-name="Layer 1" xmlns="http://www.w3.org/2000/svg" viewBox="0 0 381.54 382.48">
  <defs>
    <style>
      .cls-1, .cls-2, .cls-3 {
        stroke-width: 0px;
      }

      .cls-2 {
        fill: #ee5a28;
      }

      .cls-3 {
        fill: #1b75b9;
      }
    </style>
  </defs>
  <circle class="cls-2" cx="102.04" cy="161.13" r="5.42"/>
  <circle class="cls-2" cx="150.56" cy="102.41" r="5.42"/>
  <circle class="cls-2" cx="21.11" cy="73.51" r="5.42"/>
  <path class="cls-2" d="m161.05,60.12c-36.78-36.78-96.63-36.78-133.41,0-1.88,1.88-1.88,4.93,0,6.82,1.88,1.88,4.93,1.88,6.82,0,33.02-33.02,86.75-33.02,119.77,0,33.02,33.02,33.02,86.75,0,119.77-33.02,33.02-86.75,33.02-119.77,0-21.98-21.98-30.15-54.17-21.32-84,.76-2.55-.7-5.24-3.26-5.99-2.56-.75-5.24.7-5.99,3.26-9.83,33.23-.73,69.08,23.75,93.56,18.39,18.39,42.55,27.58,66.7,27.58s48.31-9.19,66.7-27.58c36.78-36.78,36.78-96.63,0-133.41Z"/>
  <path class="cls-2" d="m141.76,86.22c1.88-1.88,1.88-4.93,0-6.82-26.15-26.15-68.69-26.15-94.84,0-26.15,26.15-26.15,68.69,0,94.84,13.07,13.07,30.25,19.61,47.42,19.61s34.35-6.53,47.42-19.61c15.38-15.38,22.36-37.37,18.67-58.83-.45-2.62-2.94-4.4-5.57-3.93-2.62.45-4.39,2.94-3.93,5.57,3.16,18.38-2.82,37.21-15.98,50.38-22.39,22.38-58.81,22.38-81.2,0-22.39-22.39-22.39-58.82,0-81.2,22.39-22.38,58.81-22.39,81.2,0,1.88,1.88,4.94,1.88,6.82,0Z"/>
  <path class="cls-2" d="m115.66,154.96c1.88,1.88,4.94,1.88,6.82,0,7.52-7.51,11.65-17.51,11.65-28.14s-4.14-20.62-11.65-28.14c-15.51-15.51-40.76-15.51-56.27,0-7.52,7.51-11.65,17.51-11.65,28.14s4.14,20.62,11.65,28.14c5.59,5.59,12.64,9.36,20.37,10.89.32.06.63.09.94.09,2.26,0,4.27-1.59,4.72-3.88.52-2.61-1.18-5.15-3.79-5.67-5.85-1.16-11.19-4.01-15.43-8.25-5.69-5.69-8.83-13.26-8.83-21.32s3.14-15.62,8.83-21.32c11.75-11.75,30.88-11.75,42.64,0,11.75,11.76,11.75,30.88,0,42.64-1.88,1.88-1.88,4.93,0,6.82Z"/>
  <path class="cls-2" d="m103.2,135.68c4.88-4.88,4.88-12.82,0-17.7-4.88-4.87-12.82-4.88-17.7,0-4.88,4.88-4.88,12.82,0,17.7,2.44,2.44,5.64,3.66,8.85,3.66s6.41-1.22,8.85-3.66t0,0Zm-6.82-6.82c-1.12,1.12-2.95,1.12-4.07,0-1.12-1.12-1.12-2.95,0-4.07.56-.56,1.3-.84,2.03-.84s1.47.28,2.03.84c1.12,1.12,1.12,2.94,0,4.07Z"/>
  <path class="cls-2" d="m194.07,54.67l26.6-26.6c1.61-1.61.64-4.36-1.62-4.61l-18.94-2.1-2.1-18.94c-.25-2.26-3-3.23-4.61-1.62l-26.6,26.6c-1.35,1.35-2.01,3.24-1.8,5.13l2.39,21.55,21.54,2.39c1.9.21,3.79-.45,5.13-1.8Z"/>
  <path class="cls-3" d="m372.67,261.19c-.05-.1-.1-.2-.15-.3-.52-.96-12.95-23.63-39.32-33.11-3.31-1.19-6.67-2.09-6.81-2.13-2.5-.67-5.03-1.23-7.76-1.7l-.36-.07c-.26-.05-.5-.09-.73-.13-1.41-.2-2.84.23-3.9,1.18-9.72,8.7-22.23,13.48-35.23,13.48h-1.37c-.67-.35-1.42-.57-2.22-.57s-1.56.22-2.22.57h-.05c-13,0-25.51-4.79-35.23-13.48-.9-.8-2.06-1.21-3.25-1.2-.75-.1-1.52,0-2.24.25-.24.05-.47.11-.7.19-2.19.41-4.39.9-6.58,1.48-.14.04-3.5.94-6.81,2.13-26.37,9.48-38.81,32.15-39.32,33.11-.05.1-.1.2-.15.3-5.72,12.68-8.79,26.69-8.86,40.55v14.42c-.85,2.87-.85,5.91,0,8.77v22.5c0,11.31,4.83,21.57,13.25,28.16,5.76,4.51,12.79,6.87,20.07,6.87,2.75,0,5.54-.34,8.31-1.02l64.44-15.91,64.44,15.91c10.1,2.5,20.44.36,28.38-5.85,8.42-6.59,13.25-16.86,13.25-28.16v-45.73c-.08-13.83-3.14-27.84-8.86-40.52Zm-42.73-24.34c21.88,7.87,33.07,26.81,34.03,28.49,4.84,10.81,7.53,22.66,7.86,34.42-2.56-3.55-6.15-6.23-10.36-7.64l-6.22-2.05c-4.58-1.54-10.04-2.26-15.81-2.2-.95-.4-2.03-.53-3.1-.27-.4.1-.77.26-1.12.45-2.47.19-4.98.52-7.48,1,0,0-.01,0-.02,0l-48.09,8.36v-47.44l32.02,16.39c.69.35,1.44.53,2.2.53.8,0,1.6-.2,2.33-.6,1.4-.77,2.33-2.19,2.47-3.79l2.54-28.15c.9.21,1.8.38,2.7.62.03,0,3.13.84,6.05,1.89Zm-113.44,82.96h-11.43c-6.2,0-12.13,2.34-16.66,6.58l-5.18,4.85-4.18-8.03v-5.32l5.53-10.88c1.35-2.68,3.69-4.68,6.53-5.62l6.22-2.07c6.8-2.27,14.13-2.75,21.16-1.4l7.14,1.35c-4.24,6.29-7.3,13.26-9.14,20.54Zm104.26-6.41l-31.2-7.95,32.54-5.65c-.91,4.48-1.36,9.02-1.33,13.6Zm9.71,2.43c-.29-5.98.36-11.91,1.95-17.81,7.23-1.01,14.46-.58,19.79,1.18l6.19,2.07c2.87.94,5.18,2.94,6.56,5.64l5.57,10.92c.82,1.64.82,3.62-.02,5.25l-4.19,8.03-5.21-4.85c-3.57-3.35-19.48-7.69-30.64-10.44Zm-74.01-69.78l-16.53,8.46-1.47-16.22c5.57,3.53,11.63,6.14,17.99,7.76Zm36.97.13c6.24-1.55,12.2-4.07,17.69-7.46l-1.43,15.79-16.27-8.33Zm-72.42-9.33c2.92-1.05,6.02-1.89,6.04-1.89.47-.13.94-.23,1.4-.35l2.52,27.88c.14,1.6,1.07,3.02,2.47,3.79.72.4,1.52.6,2.33.6.75,0,1.51-.18,2.2-.53l32.02-16.39v49.12l-3.28.57-31.61-8.05c-.46-.27-.96-.48-1.51-.58l-13.28-2.56c-8.65-1.66-17.67-1.06-26.03,1.71l-6.2,2.07c-3.48,1.16-6.51,3.17-8.91,5.81.54-11.2,3.2-22.44,7.81-32.72.97-1.71,12.03-20.57,34.02-28.48Zm-12.28,135.24c-7.31,1.8-14.46.36-20.12-4.08-6.07-4.75-9.55-12.25-9.55-20.57v-4.46c.59.43,1.29.73,2.04.86.27.05.53.07.8.07,1.23,0,2.39-.46,3.3-1.3l9.81-9.18c2.75-2.56,6.34-3.98,10.08-3.98h9.74c-.48,4.68-.43,9.45.14,14.17l.34,2.77s0,.01,0,.02c.03.2.08.4.13.59.03.11.05.22.08.33.04.13.11.26.16.39.07.16.13.32.22.46.05.1.12.18.18.28.11.16.21.32.34.46.07.09.15.16.23.24.13.13.26.26.41.38.09.08.19.15.3.22.15.1.3.2.45.28.11.06.23.12.35.17.16.07.33.13.5.19.08.02.15.06.23.08l37.66,9.8-47.79,11.8Zm153.62-4.08c-5.66,4.43-12.81,5.88-20.12,4.08l-40.5-10-77.24-20.1c-1.58-14.32,2.49-28.88,11.26-40.29l89.01,22.67s.03,0,.05,0c0,0,.02,0,.02.01,12.44,2.96,27.38,7.26,29.7,8.92l9.83,9.18c.89.84,2.07,1.3,3.28,1.3.27,0,.55-.02.82-.07,1.45-.24,2.73-1.16,3.43-2.45v6.17c0,8.32-3.48,15.82-9.55,20.57Z"/>
  <path class="cls-1" d="m203.52,150.78c2.08,8.65,6.29,11.61,8.81,13.38.43.3,1.03.76,1.07.69v.02s.02.05.02.07c5.84,38.08,31.62,65.69,61.39,65.69s55.53-27.59,61.39-65.66c.22-.2.71-.55,1.09-.82,2.52-1.77,6.73-4.73,8.81-13.38,3.19-13.27-.49-19.03-4.13-21.51-.58-.4-1.2-.7-1.84-.96,2.4-8.15,3.52-17.6,1.46-27.66-6.35-31.05-40.13-54.19-80.33-55.02-2.73,0-4.99,2.07-5.1,4.79-.17,4.03-1.22,7.47-3.13,10.21-2.61,3.76-5.9,4.9-10.87,6.64-3.49,1.22-7.46,2.6-11.73,5.2-11.25,6.85-19.84,19.36-22.4,32.66-1.67,8.68-.56,16.59,1.52,23.16-.65.27-1.29.58-1.89.98-3.65,2.48-7.33,8.23-4.13,21.51Zm14.33-43.76c2.01-10.45,8.99-20.66,17.78-26,3.37-2.05,6.65-3.19,9.82-4.3,5.57-1.94,11.33-3.95,15.79-10.38,2.13-3.07,3.59-6.59,4.34-10.51,33.53,2.25,61.01,21.45,66.2,46.82,2.09,10.2.13,19.79-2.91,27.61-.91.92-1.39,2.14-1.42,3.38-.11.25-.22.52-.33.76-5.69-3.87-11.3-7.9-16.73-12.04-5.02-3.82-10.03-7.82-14.87-11.9-.93-.78-2.07-1.17-3.22-1.17-.97,0-1.94.28-2.78.85-1.85,1.24-2.66,3.56-1.98,5.68,1.28,4,2.75,7.99,4.37,11.86.61,1.46,1.25,2.92,1.91,4.36-7.58-.49-15.02-1.96-22.2-4.41-12.86-4.37-24.74-11.9-34.37-21.78-1.04-1.07-2.5-1.62-3.99-1.49-1.49.12-2.84.9-3.7,2.12-3.12,4.46-5.72,9.27-7.75,14.3-.81,2.02-1.53,4.08-2.16,6.16-2-5.55-3.23-12.42-1.79-19.94Zm0,37.64c.96,1.31,2.47,2.04,4.03,2.04.45,0,.9-.06,1.35-.18,2.01-.56,3.46-2.3,3.64-4.38.54-6.07,1.95-11.99,4.21-17.61,1.01-2.51,2.19-4.95,3.52-7.31,9.83,8.87,21.4,15.69,33.78,19.9,10.82,3.68,22.16,5.4,33.68,5.08,1.73-.04,3.32-.98,4.19-2.48.87-1.49.91-3.34.1-4.87-.84-1.59-1.66-3.2-2.44-4.83.14.1.28.21.41.31,7.08,5.39,14.45,10.61,21.91,15.52,1.16.76,2.58,1.01,3.92.69,1.35-.32,2.5-1.19,3.18-2.4,1.09-1.91,2.19-4.03,3.23-6.32.57.9,1.42,3.9-.2,10.61-1.2,4.98-2.88,6.16-4.83,7.54-1.74,1.22-4.37,3.08-5.14,6.97,0,.04,0,.08-.01.11,0,.04-.02.07-.03.11-5.01,33.29-26.69,57.46-51.54,57.46s-46.53-24.17-51.54-57.46c0-.06-.03-.11-.04-.17,0-.02,0-.04,0-.05-.04-.2-.1-.37-.15-.56-.02-.07-.03-.15-.06-.22-.94-3.35-3.31-5.06-4.93-6.19-1.95-1.37-3.64-2.56-4.83-7.54-1.86-7.75-.44-10.57.04-10.9.01,0,.1,0,.14,0,1.61,3.06,3.23,5.49,4.42,7.12Z"/>
  <path class="cls-1" d="m249.56,163.06h13.14c2.76,0,5-2.24,5-5s-2.24-5-5-5h-13.14c-2.76,0-5,2.24-5,5s2.24,5,5,5Z"/>
  <path class="cls-1" d="m290.87,163.06h13.14c2.76,0,5-2.24,5-5s-2.24-5-5-5h-13.14c-2.76,0-5,2.24-5,5s2.24,5,5,5Z"/>
  <path class="cls-1" d="m255.99,194.62c-1.67,2.2-1.24,5.34.97,7.01,5.6,4.24,11.77,6.49,17.85,6.49s12.26-2.24,17.86-6.49c2.2-1.67,2.64-4.81.97-7.01-1.67-2.2-4.81-2.64-7.01-.97-7.79,5.91-15.82,5.91-23.62,0-2.2-1.67-5.34-1.24-7.01.97Z"/>
  <path class="cls-1" d="m95.8,130.49c1.23,0,2.47-.47,3.41-1.41L203.53,24.76c1.88-1.88,1.88-4.93,0-6.82-1.88-1.88-4.94-1.88-6.82,0l-104.32,104.31c-1.88,1.88-1.88,4.93,0,6.82.94.94,2.18,1.41,3.41,1.41Z"/>
  <circle class="cls-1" cx="120.54" cy="353.57" r="6.03"/>
  <path class="cls-1" d="m99.58,229.69c-2.4-3.05-6-4.8-9.88-4.8s-7.48,1.75-9.84,4.76l-59.78,74.08c-2.99,3.81-3.54,8.89-1.41,13.25,2.12,4.36,6.45,7.07,11.3,7.07h20.17c1.61,0,2.92,1.31,2.92,2.92v21.8c0,2.66,2.16,4.82,4.82,4.82s4.82-2.16,4.82-4.82v-21.8c0-6.93-5.63-12.56-12.56-12.56h-20.17c-1.65,0-2.38-1.15-2.62-1.64-.24-.49-.69-1.78.29-3.03l59.78-74.08c.76-.97,1.77-1.12,2.3-1.12s1.53.15,2.34,1.17l59.7,73.98c1.02,1.3.57,2.59.33,3.08-.24.49-.98,1.64-2.62,1.64h-21.05c-6.93,0-12.56,5.64-12.56,12.56v7.73c0,2.66,2.16,4.82,4.82,4.82s4.82-2.16,4.82-4.82v-7.73c0-1.61,1.31-2.92,2.92-2.92h21.05c4.85,0,9.17-2.71,11.29-7.07,2.12-4.36,1.58-9.44-1.45-13.3l-59.7-73.98Z"/>
</svg>