<?xml version="1.0" encoding="UTF-8"?>
<svg id="Layer_1" data-name="Layer 1" xmlns="http://www.w3.org/2000/svg" viewBox="0 0 404.31 403.32">
  <defs>
    <style>
      .cls-1 {
        fill: #fff;
      }

      .cls-1, .cls-2 {
        stroke-width: 0px;
      }

      .cls-2 {
        fill: #ed5a28;
      }
    </style>
  </defs>
  <g>
    <circle class="cls-2" cx="384.89" cy="193.94" r="5.79"/>
    <path class="cls-2" d="m95.58,87.59c.5.13,1,.2,1.51.2,1,0,1.99-.26,2.89-.78,1.34-.77,2.3-2.02,2.7-3.52.4-1.49.19-3.05-.58-4.39-.77-1.34-2.02-2.3-3.52-2.7-1.49-.4-3.05-.19-4.4.58-1.34.77-2.3,2.02-2.7,3.52-.4,1.49-.19,3.06.58,4.4.77,1.34,2.02,2.3,3.52,2.7Z"/>
    <path class="cls-2" d="m146.93,382.2c-1.34-.77-2.9-.98-4.4-.58-1.49.4-2.74,1.36-3.52,2.7-1.6,2.77-.65,6.32,2.12,7.91.91.53,1.9.78,2.89.78,2,0,3.95-1.04,5.03-2.9,1.6-2.77.65-6.32-2.12-7.91Z"/>
    <path class="cls-2" d="m381.93,183.88c2.76-.68,4.45-3.46,3.77-6.23-8.83-36.03-28.28-68.17-56.23-92.97-2.13-1.89-5.38-1.69-7.27.44-1.89,2.13-1.69,5.38.43,7.27,26.38,23.4,44.73,53.73,53.06,87.71.58,2.35,2.68,3.92,5,3.92.41,0,.82-.05,1.23-.15Z"/>
    <path class="cls-2" d="m89.69,96.86c2.05-1.97,2.12-5.23.16-7.28-1.97-2.05-5.23-2.12-7.28-.16-26.78,25.66-44.9,58.57-52.4,95.18-.57,2.79,1.23,5.51,4.01,6.08.35.07.7.11,1.04.11,2.39,0,4.54-1.68,5.04-4.12,7.07-34.55,24.17-65.6,49.43-89.81Z"/>
    <path class="cls-2" d="m263.1,384.09c-33.45,11.15-68.9,11.87-102.49,2.1-2.73-.8-5.59.78-6.38,3.51-.79,2.73.77,5.59,3.51,6.38,16.61,4.83,33.65,7.25,50.69,7.25,19.5,0,39.02-3.16,57.93-9.46,2.7-.9,4.16-3.82,3.26-6.51-.9-2.7-3.82-4.15-6.51-3.26Z"/>
    <path class="cls-2" d="m208.67,65.34c-1.78,0-3.5-.23-5.15-.7,1.7-.08,3.42-.1,5.15-.1s3.45.03,5.15.1c-1.65.46-3.37.7-5.15.7Z"/>
    <path class="cls-2" d="m303.48,228.61c.8,6.62,6.82,11.3,13.41,10.48,10.43-1.29,20.75.82,29.84,6.08,5.69,3.27,10.43,7.54,14.16,12.46-.41,1.78-.88,3.53-1.36,5.28-11.66,3.32-23.58,12.95-31.67,26.98-8.08,13.98-10.48,29.09-7.57,40.86-1.26,1.31-2.57,2.6-3.89,3.84-6.1-.77-12.18-2.73-17.84-6-9.09-5.25-16.06-13.13-20.16-22.81-2.6-6.13-9.65-8.98-15.78-6.38-2.5,1.06-4.45,2.86-5.72,5.05-1.83,3.17-2.21,7.11-.67,10.74,6.15,14.52,16.63,26.36,30.3,34.27,2.19,1.26,4.4,2.39,6.62,3.4-24.38,15.65-53.37,24.74-84.49,24.74s-60.11-9.09-84.49-24.74c2.21-1,4.43-2.14,6.62-3.4,13.67-7.9,24.15-19.75,30.3-34.27,2.6-6.13-.26-13.18-6.38-15.78-6.13-2.6-13.18.26-15.78,6.38-4.09,9.68-11.07,17.56-20.16,22.81-5.66,3.27-11.74,5.23-17.84,6-1.31-1.24-2.63-2.52-3.89-3.84,2.91-11.77.52-26.88-7.57-40.86-8.08-14.03-20-23.66-31.67-26.98-.49-1.75-.95-3.5-1.36-5.28,3.73-4.92,8.47-9.19,14.16-12.46,9.09-5.25,19.41-7.36,29.84-6.08,6.59.82,12.61-3.86,13.41-10.48.33-2.68-.26-5.28-1.52-7.47-1.83-3.17-5.05-5.46-8.96-5.95-15.65-1.93-31.15,1.21-44.82,9.11-2.19,1.26-4.25,2.6-6.23,3.99-.13-2.39-.18-4.81-.18-7.26,0-60.52,34.37-113.04,84.67-139.07-.26,2.42-.39,4.92-.39,7.47,0,15.78,5.02,30.76,14.52,43.35,4.02,5.3,11.56,6.38,16.86,2.37,5.3-3.99,6.36-11.56,2.37-16.86-6.33-8.39-9.68-18.36-9.68-28.86,0-6.54,1.34-12.79,3.73-18.48,1.72-.51,3.48-1,5.2-1.47,8.73,8.44,23.04,13.93,39.23,13.93s30.51-5.48,39.23-13.93c1.72.46,3.48.95,5.2,1.47,2.39,5.69,3.73,11.95,3.73,18.48,0,10.5-3.35,20.47-9.68,28.86-3.99,5.3-2.93,12.87,2.37,16.86,2.16,1.65,4.71,2.42,7.23,2.42,3.66,0,7.26-1.65,9.63-4.79,9.5-12.59,14.52-27.57,14.52-43.35,0-2.55-.13-5.05-.39-7.47,50.3,26.03,84.67,78.55,84.67,139.07,0,2.45-.05,4.87-.18,7.29-1.98-1.42-4.04-2.75-6.23-4.02-13.67-7.9-29.17-11.04-44.82-9.11-6.62.82-11.3,6.82-10.48,13.41Z"/>
  </g>
  <path class="cls-1" d="m270.48,135.9c2.11-2.8,3.97-5.73,5.66-8.73.19-.22.39-.42.54-.67.22-.36.37-.73.49-1.11,5.84-11.02,8.88-23.25,8.88-35.96,0-32.82-19.44-57.92-49.69-67.32-3.6-14.06-13.39-22.11-27.7-22.11s-24.1,8.06-27.7,22.11c-30.25,9.4-49.69,34.5-49.69,67.32,0,12.71,3.04,24.94,8.88,35.96.12.38.28.76.49,1.11.15.25.35.46.54.67,1.69,3,3.55,5.93,5.66,8.73,5.69,7.57,16.5,9.06,24.07,3.37,3.66-2.78,6.02-6.8,6.67-11.35.64-4.53-.54-9.06-3.29-12.72-1.32-1.74-2.47-3.56-3.49-5.44-.12-.46-.29-.9-.55-1.33-.1-.17-.23-.31-.35-.46-2.78-5.75-4.26-12.02-4.26-18.53,0-4.87.85-9.68,2.45-14.24,9.99,8.37,24.82,13.36,40.57,13.36s30.58-4.99,40.57-13.36c1.6,4.56,2.45,9.37,2.45,14.24,0,6.51-1.47,12.79-4.26,18.53-.12.15-.25.3-.35.46-.26.42-.42.87-.55,1.33-1.02,1.88-2.18,3.7-3.49,5.44-2.75,3.66-3.94,8.19-3.29,12.72.64,4.56,3.01,8.57,6.67,11.35,3.01,2.27,6.59,3.45,10.35,3.45,5.43,0,10.45-2.47,13.72-6.82ZM208.67,10.3c7.54,0,12.85,3.04,15.86,9.04,1.52,2.93,2.47,6.62,2.83,10.99.15,1.54.23,3.19.23,4.92,0,13.77-8.5,24.95-18.92,24.95s-18.92-11.17-18.92-24.95c0-1.72.08-3.37.23-4.92.36-4.38,1.31-8.06,2.83-10.99,3.01-6,8.32-9.04,15.86-9.04Zm-43.95,120.74c-3.04,2.29-7.36,1.7-9.65-1.34-1.03-1.36-1.99-2.77-2.91-4.19l11.77-7.18c.68,1.04,1.38,2.08,2.13,3.08,2.29,3.01,1.7,7.36-1.34,9.63Zm86.58-69.92h-.44c-1.54,0-3.04.7-4.02,1.91-7.54,9.4-22.17,15.24-38.18,15.24s-30.64-5.84-38.18-15.24c-1.08-1.34-2.75-2.06-4.45-1.91-1.72.15-3.24,1.16-4.07,2.65-4.33,7.83-6.62,16.71-6.62,25.67,0,6.85,1.32,13.51,3.82,19.73l-11.9,7.26c-3.74-8.43-5.7-17.56-5.7-26.99,0-26.72,14.44-47.03,37.9-55.99-.03.59-.03,1.18-.03,1.8,0,19.44,13.1,35.24,29.22,35.24s29.22-15.81,29.22-35.24c0-.62,0-1.21-.03-1.8,23.45,8.96,37.9,29.27,37.9,55.99,0,9.44-1.96,18.56-5.7,26.99l-11.9-7.26c2.5-6.22,3.82-12.88,3.82-19.73,0-8.96-2.29-17.84-6.62-25.67-.82-1.49-2.34-2.5-4.07-2.65Zm1.31,69.92c-3.04-2.27-3.63-6.62-1.34-9.63.76-1,1.46-2.04,2.13-3.08l11.77,7.18c-.92,1.42-1.88,2.82-2.91,4.19-2.21,2.93-6.69,3.58-9.65,1.34Z"/>
  <path class="cls-1" d="m156.72,294.64c-4.22-1.8-8.91-1.83-13.16-.13-4.25,1.72-7.59,5.02-9.37,9.24-.85,2-1.85,3.9-2.96,5.72-.34.34-.65.71-.89,1.15-.1.18-.16.37-.23.55-3.59,5.27-8.29,9.69-13.92,12.94-4.22,2.42-8.8,4.12-13.54,4.99,2.24-12.85-.85-28.16-8.73-41.81-7.88-13.64-19.62-23.99-31.87-28.47,3.17-3.66,6.93-6.8,11.12-9.22,5.66-3.27,11.85-5.12,18.24-5.58.17.02.34.06.52.06.04,0,.09,0,.13,0,.44,0,.86-.07,1.27-.18,2.14-.06,4.3.03,6.46.29,9.42,1.16,18.02-5.56,19.18-14.96.46-3.73-.28-7.44-2.16-10.68-2.73-4.71-7.39-7.8-12.8-8.47-3.41-.42-6.8-.56-10.18-.54-.34-.08-.69-.13-1.06-.14-.41-.01-.81.05-1.21.13-12.47.45-24.58,3.94-35.6,10.3-18.18,10.48-29.91,26.16-33.93,45.26-.98,4.63-1.44,9.4-1.44,14.21,0,5.66.64,11.43,1.96,17.2-10.4,10.14-12.49,22.65-5.33,35.06,5.48,9.47,13.7,14.31,23.53,14.31,3.01,0,6.2-.46,9.5-1.39,8.06,7.44,17.17,12.95,26.93,16.14,6.75,2.19,13.59,3.3,20.47,3.3,12.05,0,24.12-3.37,35.71-10.07,11.04-6.36,20.13-15.14,26.76-25.74.25-.28.49-.57.67-.91.17-.32.31-.64.41-.97,1.71-2.91,3.29-5.92,4.63-9.09,3.71-8.73-.39-18.84-9.11-22.53Zm-13.05,13.13c1.49-3.5,5.53-5.15,9.04-3.66s5.12,5.53,3.66,9.04c-.67,1.57-1.4,3.1-2.17,4.61l-12.11-6.6c.56-1.11,1.1-2.23,1.59-3.38Zm-35.78-84.05c.75,1.29,1.06,2.78.88,4.27-.23,1.83-1.16,3.45-2.6,4.58-1.47,1.13-3.24,1.65-5.1,1.42-1.24-.16-2.48-.25-3.72-.31l.34-13.78c1.69.08,3.38.2,5.08.42,2.16.26,4.04,1.49,5.12,3.4Zm-65.96,111.94c-6.72.39-12-2.7-15.78-9.22-3.78-6.56-3.81-12.67-.1-18.33,1.83-2.75,4.53-5.41,8.14-7.93,1.26-.9,2.63-1.78,4.12-2.63,11.92-6.87,25.85-5.12,31.07,3.91,2.42,4.2,2.6,9.42.54,14.73-2.21,5.69-6.72,10.71-12.69,14.16-1.47.85-2.91,1.6-4.3,2.24-4.02,1.88-7.7,2.91-10.99,3.06Zm86.29,9.32c-15.58,8.98-32.13,11.02-47.83,5.9-6.87-2.27-13.44-5.92-19.46-10.79.49-.28.95-.54,1.44-.82,7.98-4.58,14.06-11.46,17.15-19.33,3.22-8.26,2.78-16.63-1.24-23.61-4.94-8.6-14.52-13.21-25.1-13.21-6.59,0-13.57,1.8-20.03,5.53-.49.28-.98.57-1.44.9-1.21-7.65-1.08-15.19.41-22.29,3.4-16.19,13.44-29.5,29.01-38.49,8.18-4.72,17.07-7.57,26.24-8.55l-.34,13.92c-6.63.95-13.06,3.14-19,6.57-7.75,4.45-14.29,10.89-18.92,18.54-.88,1.47-.98,3.3-.26,4.84.72,1.57,2.19,2.65,3.89,2.91,11.89,1.83,24.25,11.58,32.28,25.46,8.01,13.88,10.27,29.45,5.9,40.68-.62,1.6-.41,3.4.57,4.81.98,1.39,2.55,2.29,4.32,2.19,8.96-.18,17.76-2.63,25.54-7.11,5.94-3.43,11.04-7.9,15.17-13.17l12.24,6.67c-5.44,7.45-12.36,13.72-20.54,18.44Z"/>
  <path class="cls-1" d="m394.77,296.52c2.42-10.68,2.63-21.37.51-31.41-3.99-19.1-15.73-34.75-33.93-45.26-10.99-6.35-23.08-9.84-35.52-10.3-.41-.09-.84-.15-1.28-.13-.36,0-.72.06-1.06.14-3.38-.02-6.77.12-10.18.54-9.4,1.16-16.12,9.76-14.96,19.15,1.16,9.4,9.76,16.12,19.18,14.96,2.15-.27,4.3-.36,6.43-.3.42.11.85.19,1.31.19.04,0,.09,0,.13,0,.2,0,.38-.05.57-.07,6.36.47,12.54,2.33,18.18,5.59,4.2,2.42,7.95,5.56,11.12,9.22-12.25,4.48-23.99,14.83-31.87,28.47-7.88,13.64-10.97,28.96-8.73,41.81-4.74-.88-9.32-2.57-13.54-4.99-5.63-3.25-10.33-7.67-13.92-12.94-.07-.18-.13-.37-.23-.55-.24-.44-.55-.81-.89-1.15-1.11-1.82-2.11-3.72-2.96-5.72-3.71-8.73-13.8-12.82-22.53-9.11-3.47,1.47-6.31,3.96-8.16,7.21-2.73,4.71-3.09,10.3-.95,15.32,1.34,3.16,2.92,6.17,4.63,9.09.1.33.24.66.41.97.19.34.43.63.67.91,6.63,10.6,15.72,19.38,26.76,25.74,11.58,6.69,23.66,10.07,35.71,10.07,6.87,0,13.72-1.11,20.47-3.3,8.88-2.91,17.25-7.75,24.77-14.21.72-.62,1.44-1.26,2.16-1.93,3.3.93,6.49,1.39,9.5,1.39,9.83,0,18.05-4.84,23.53-14.31,7.16-12.41,5.07-24.92-5.33-35.06Zm-78.49-62.53c-1.83.23-3.63-.28-5.1-1.42-1.44-1.13-2.37-2.75-2.6-4.58-.46-3.76,2.24-7.21,6-7.67,1.7-.21,3.39-.34,5.08-.43l.34,13.78c-1.24.07-2.48.16-3.72.31Zm-54.91,73.01c.75-1.29,1.88-2.29,3.27-2.88.88-.36,1.78-.54,2.68-.54s1.75.15,2.6.49c1.7.7,3.04,2.01,3.76,3.71.49,1.15,1.03,2.28,1.59,3.38l-12.11,6.6c-.77-1.5-1.51-3.03-2.17-4.61-.85-2.01-.72-4.25.39-6.15Zm75.58,43.84c-15.7,5.15-32.26,3.12-47.83-5.87-8.18-4.73-15.1-10.99-20.54-18.44l12.24-6.67c4.13,5.27,9.23,9.74,15.17,13.17,7.77,4.48,16.58,6.93,25.54,7.11,1.75.1,3.35-.8,4.32-2.19.98-1.42,1.18-3.22.57-4.81-4.38-11.22-2.11-26.8,5.9-40.68,8.03-13.88,20.39-23.63,32.28-25.46,1.7-.26,3.17-1.34,3.89-2.91.72-1.54.62-3.37-.26-4.84-4.63-7.65-11.17-14.08-18.92-18.54-5.94-3.43-12.36-5.62-19-6.57l-.34-13.94c9.17.98,18.06,3.84,26.24,8.56,15.57,9.01,25.62,22.29,29.01,38.49.82,3.91,1.24,7.95,1.24,12.07,0,3.37-.28,6.77-.82,10.22-.46-.33-.95-.62-1.44-.9-16.84-9.73-37.07-6.28-45.13,7.67-4.02,6.98-4.45,15.34-1.24,23.61,3.09,7.88,9.17,14.75,17.15,19.33.49.28.95.54,1.44.82-6.02,4.87-12.59,8.52-19.46,10.76Zm54.24-24.41c-3.58,6.18-8.5,9.27-14.7,9.27-.36,0-.72,0-1.08-.05-3.3-.15-6.98-1.18-10.99-3.06-1.39-.64-2.83-1.39-4.3-2.24-5.97-3.45-10.48-8.47-12.69-14.16-2.06-5.3-1.88-10.53.54-14.73,3.06-5.3,9.16-8.11,16.09-8.11,4.84,0,10.07,1.36,14.98,4.2,1.49.85,2.86,1.72,4.12,2.63,3.6,2.52,6.31,5.17,8.13,7.93,3.71,5.66,3.68,11.77-.1,18.33Z"/>
  <path class="cls-1" d="m359.26,363.15c-5.1,3.03-10.45,5.48-15.9,7.27-7.61,2.49-15.52,3.76-23.51,3.76-2.84,0-5.15,2.31-5.15,5.15s2.31,5.15,5.15,5.15c9.08,0,18.06-1.44,26.71-4.27,6.17-2.02,12.22-4.78,17.96-8.2,2.44-1.46,3.25-4.61,1.79-7.06-1.46-2.44-4.61-3.24-7.06-1.79Z"/>
  <path class="cls-1" d="m256.44,19.58c5.17,2.9,9.97,6.31,14.25,10.14,5.97,5.35,11.02,11.56,15.01,18.48.95,1.65,2.68,2.58,4.46,2.58.87,0,1.76-.22,2.57-.69,2.46-1.42,3.31-4.57,1.88-7.03-4.54-7.86-10.27-14.92-17.06-21-4.84-4.34-10.26-8.19-16.09-11.45-2.48-1.39-5.62-.5-7.01,1.98-1.39,2.48-.5,5.62,1.98,7.01Z"/>
  <path class="cls-1" d="m18.58,233.74c-2.46-1.42-5.61-.58-7.03,1.88-4.54,7.86-7.79,16.36-9.66,25.27-1.33,6.36-1.96,12.97-1.88,19.66.04,2.82,2.34,5.08,5.15,5.08h.07c2.84-.04,5.12-2.37,5.08-5.22-.08-5.93.48-11.79,1.66-17.41,1.65-7.84,4.51-15.32,8.5-22.24,1.42-2.46.58-5.61-1.88-7.03Z"/>
  <circle class="cls-1" cx="301.99" cy="379.33" r="6.44"/>
  <path class="cls-1" d="m292.86,59.42c-.45,1.66-.22,3.4.64,4.88,1.19,2.06,3.36,3.22,5.58,3.22,1.09,0,2.2-.28,3.21-.86,3.07-1.78,4.13-5.72,2.36-8.79-.86-1.49-2.25-2.55-3.91-3-1.66-.45-3.39-.22-4.88.64-1.49.86-2.55,2.25-3,3.91Z"/>
  <path class="cls-1" d="m21.71,228.3c.99.57,2.09.86,3.21.86.56,0,1.12-.07,1.68-.22,1.66-.44,3.05-1.51,3.91-3s1.09-3.22.64-4.88c-.44-1.66-1.51-3.05-3-3.91-1.49-.86-3.22-1.09-4.88-.64-1.66.44-3.05,1.51-3.91,3-.86,1.49-1.09,3.22-.64,4.88.45,1.66,1.51,3.05,3,3.91Z"/>
</svg>