<?xml version="1.0" encoding="UTF-8"?>
<svg id="Layer_1" data-name="Layer 1" xmlns="http://www.w3.org/2000/svg" viewBox="0 0 430.23 424.8">
  <defs>
    <style>
      .cls-1, .cls-2, .cls-3 {
        stroke-width: 0px;
      }

      .cls-2 {
        fill: #ee5a28;
      }

      .cls-3 {
        fill: #1b75b9;
      }
    </style>
  </defs>
  <rect class="cls-2" x="18.95" y="398.29" width="299.17" height="21.21"/>
  <path class="cls-2" d="m404.5,152.46c-1.56-9.31-4.42-20.88-9.83-33.43-8.95-20.76-21.03-35.26-29.77-44.13-.89.37-1.57.8-2.15,1.28-3.51,3.05-11.11,6.69-11.11,6.69,0,0-2.99,1.55-4.51,0-1.52-1.55,1.62-11.34-4.04-11.93-5.71-.59-22.96-.59-31.5,5.4-8.49,5.99-14.57,14.49-13.42,15.89,1.1,1.34,2.46,1.71,2.46,4.44,0,2.03,1.36,5.62-.16,8.29-.94.64-2.41,1.82-4.09,2.78-.26.11-.52.27-.84.37l.05.05c-2.67,1.34-5.82,1.87-8.65-1.07-.52-.59-.26-1.87-.37-2.99v-.05c-.42-3.64-.84-8.45-1.15-9.89-.37-1.93-2.46-6.95-4.35-5.99-1.89.96-8.91,9.63-11.53,10.43-2.67.75-6.08.21-6.24,2.51-.21,2.3,3.2,8.66,6.81,8.13,3.56-.59,8.34-4.07,10.01-3.32,1.73.8,3.41,5.83,3.04,8.34-.37,2.51.79,4.44-4.35,5.62-5.14,1.12-8.7-2.51-10.64,0-1.89,2.51-5.5,8.66-4.93,10.8.47,1.66,5.19,2.83,8.02,3.58,5.61-.43,11.27-1.44,14-3.37,4.35-3.1,11.95-5.99,14-5.99.79,0,4.56.27,8.91.37,2.73,3.21,5.87,5.67,10.06,6.36,3.88.7,6.34.32,7.86-.32,1.63-.75,3.46-.16,4.3,1.39.47.91,1,1.82,1.68,2.62,3.04,3.69,4.4.75,4.4.75,0,0-2.15-4.44.68-4.44s6.66,1.93,6.66,2.51,2.67,3.48,6.08,4.87c3.41,1.34,2.46,5.19,2.46,5.19,0,0-19.55,2.51-27.31.96-7.76-1.55-10.22-3.85-14.57-8.5-4.35-4.65-2.88-9.25-11.74-6.74-8.91,2.51-9.49,4.44-15.2,5.56-5.66,1.18-5.35,1.82-10.27,3.32-.1.05-.21.05-.31.11-3.88,1.23-9.28,2.25-10.8,5.3-1.89,3.85-1.31,4.44-3.77,8.5-2.46,4.06-8.39,7.38-8.54,9.31-.21,1.93-1.31,18.93,0,27.06,1.31,8.13,5.09,8.72,9.07,13.91,3.98,5.24,5.71,6.2,10.8,5.99,5.14-.16,9.33-2.3,16.51-2.89,7.18-.59,12.11-1.93,14.78,2.14,2.67,4.06.73,9.25,3.98,12.94,3.2,3.69,8.12-.21,8.33,7.76.21,7.92-1.52,18.72-1.73,24.71-.16,5.99,7.02,16.26,8.54,21.29s2.67,5.78,8.91,5.78,10.43-.53,16.67-7.33c6.24-6.74,9.12-11.98,12.9-17.22,3.77-5.19,7.02-10.8,7.39-17.01.37-6.15-5.14-5.62,2.25-12.94,7.39-7.33,13.68-13.91,18.4-20.86,4.72-7.01,7.02-15.08,4.72-15.67-2.25-.59-18.56-1.18-18.56-1.18-.42,0-9.12-.11-10.43-9.09-4.56-30.54-.37-16.63-.37-24.18,7.6,5.62,7.18,9.47,9.65,15.89,1.63,4.22,1.35,7.94,3.53,10.13,1.23,1.23,3,1.81,5.8,2.01,3.34.24,20.79,1.51,26.13-10.75,4.04-9.27-1.99-19.06-2.62-20.06Z"/>
  <path class="cls-3" d="m183.07,45.7c-2.46,1.59-3.16,4.87-1.57,7.33,1.59,2.46,4.87,3.16,7.33,1.57,22.38-14.48,48.41-22.14,75.26-22.14,40.2,0,78.35,17.37,104.7,47.67,20.5,23.33,32.29,51.99,34.1,82.94.21,2.87.31,5.65.31,8.5,0,59.38-37.7,112.25-93.82,131.57-2.77.95-4.24,3.97-3.29,6.74.76,2.2,2.81,3.58,5.01,3.58.57,0,1.15-.1,1.73-.29,60.4-20.79,100.97-77.69,100.97-141.59,0-3.11-.11-6.14-.33-9.19-1.95-33.26-14.64-64.12-36.7-89.23-28.34-32.6-69.41-51.3-112.68-51.3-28.9,0-56.91,8.24-81.02,23.83Z"/>
  <path class="cls-1" d="m107.02,160.88c.25.18.56.41.76.57,5.37,36.03,28.92,62.12,56.13,62.12h.75s.94,0,.94,0c27.26,0,50.85-26.2,56.12-62.12.2-.17.52-.4.76-.58,2.34-1.72,6.26-4.59,8.18-12.92,3-13.01-.66-18.57-4.26-20.95-.94-.62-1.97-1.05-3.03-1.32,2.78-21.61-3.84-42.07-18.49-54.8-9.58-8.32-22.01-12.91-36.96-13.66-2.14-.11-4.28-.11-6.35,0-17.8.91-31.6,9.01-36.95,13.66-14.65,12.73-21.27,33.19-18.49,54.8-1.06.26-2.09.7-3.03,1.32-3.6,2.37-7.26,7.94-4.26,20.95,1.92,8.33,5.84,11.2,8.18,12.92Zm24.55-81.98c4.03-3.5,15.6-10.31,30.55-11.08h0c.86-.04,1.73-.07,2.61-.07s1.77.02,2.66.07c4.67.24,18.88.95,30.54,11.08,11.32,9.83,16.72,26.2,15.1,43.53l-3.74-8.47c-.66-1.49-1.97-2.6-3.56-3-1.59-.4-3.27-.05-4.55.96-7.47,5.82-14.74,8.65-21.61,8.52-6.57-.17-12.15-3-18.06-6.01-7.76-3.94-16.55-8.41-28.12-6.55-3.68.59-7.28,1.76-10.71,3.48-1.1.55-1.98,1.47-2.48,2.6l-3.74,8.47c-1.63-17.33,3.78-33.7,15.09-43.53Zm-21.86,62.29c.7,2.07,2.6,3.51,4.78,3.6,2.19.03,4.21-1.16,5.09-3.16l9.52-21.57c1.94-.82,3.95-1.4,5.97-1.72,8.15-1.32,14.4,1.86,21.63,5.53,6.39,3.25,13.63,6.92,22.59,7.15,7.57.18,15.25-2.13,22.89-6.89l7.72,17.5c.85,1.93,2.76,3.16,4.85,3.16.08,0,.16,0,.24,0,2.18-.1,4.09-1.53,4.78-3.6.45-1.33.83-2.66,1.2-3.99.27,1.47.31,4.13-.66,8.37-1.04,4.49-2.47,5.54-4.12,6.76-1.65,1.21-4.15,3.04-4.91,7.13-4.47,31.01-23.69,53.51-45.7,53.51h-.94s-.75,0-.75,0c-22.01,0-41.23-22.51-45.74-53.74-.73-3.86-3.22-5.7-4.88-6.91-1.65-1.21-3.08-2.26-4.12-6.75-.98-4.24-.93-6.9-.66-8.37.37,1.33.76,2.66,1.2,3.99Z"/>
  <path class="cls-1" d="m139.13,160.01h12.36c2.93,0,5.3-2.37,5.3-5.3s-2.37-5.3-5.3-5.3h-12.36c-2.93,0-5.3,2.37-5.3,5.3s2.37,5.3,5.3,5.3Z"/>
  <path class="cls-1" d="m176.25,160.01h12.36c2.93,0,5.3-2.37,5.3-5.3s-2.37-5.3-5.3-5.3h-12.36c-2.93,0-5.3,2.37-5.3,5.3s2.37,5.3,5.3,5.3Z"/>
  <path class="cls-1" d="m376.42,414.2h-54.01c2.55-3.79,4.04-8.35,4.04-13.25v-2.65c0-2.92-2.39-5.3-5.3-5.3h-21.52v-115.87c0-9.2-7.48-16.67-16.67-16.67h-16.97c-12.59-20.41-33.48-35.18-58.48-39.58-.13-.03-.27-.05-.37-.05v-.03c-.48-.08-.95-.16-1.43-.21h-.9c-1.25.05-2.41.53-3.34,1.35-9.41,8.4-21.47,13.02-33.98,13.02s-24.41-4.56-33.8-12.86c-.08-.11-.19-.19-.29-.29-1.22-1.01-2.78-1.4-4.35-1.14l-1.14.21c-25.02,4.37-45.97,19.14-58.56,39.58h-12.41c-9.2,0-16.67,7.48-16.67,16.67v115.87h-21.31c-2.92,0-5.3,2.39-5.3,5.3v2.65c0,4.9,1.49,9.46,4.04,13.25H5.3c-2.93,0-5.3,2.37-5.3,5.3s2.37,5.3,5.3,5.3h371.12c2.93,0,5.3-2.37,5.3-5.3s-2.37-5.3-5.3-5.3Zm-247.97-182.64c11.03,9.04,24.78,14,39.02,14s28.07-4.98,39.13-14.08c19.17,3.61,35.52,14.21,46.55,28.97H82.17c10.97-14.69,27.22-25.24,46.28-28.89Zm-77.59,45.57c0-3.34,2.73-6.07,6.07-6.07h226.01c3.34,0,6.07,2.73,6.07,6.07v115.87H50.87v-115.87Zm-13.36,137.08c-6.39,0-11.77-4.56-12.99-10.6h291.06c-1.25,6.04-6.57,10.6-12.99,10.6H37.51Z"/>
  <path class="cls-3" d="m426.19,206.03c-2.83-.69-5.72,1.04-6.42,3.88-8.29,33.69-27.84,64.36-55.02,86.36-2.28,1.84-2.63,5.18-.79,7.46,1.05,1.29,2.58,1.97,4.12,1.97,1.17,0,2.35-.39,3.33-1.18,28.97-23.44,49.8-56.13,58.65-92.06.7-2.84-1.04-5.72-3.88-6.42Z"/>
  <path class="cls-3" d="m170.75,40.11c1.03,0,2.07-.3,2.98-.92,26.75-18.27,58-27.92,90.36-27.92,2.93,0,5.3-2.37,5.3-5.3s-2.37-5.3-5.3-5.3c-34.51,0-67.82,10.3-96.34,29.77-2.42,1.65-3.04,4.95-1.39,7.37,1.03,1.5,2.69,2.31,4.38,2.31Z"/>
  <circle class="cls-3" cx="354.28" cy="310.7" r="5.96"/>
  <circle class="cls-1" cx="24.36" cy="321.41" r="5.96"/>
  <circle class="cls-3" cx="280.28" cy="5.96" r="5.96"/>
  <path class="cls-1" d="m24.36,310.7c2.93,0,5.3-2.37,5.3-5.3v-28.27c0-15.04,12.24-27.28,27.28-27.28,2.93,0,5.3-2.37,5.3-5.3s-2.37-5.3-5.3-5.3c-20.89,0-37.88,16.99-37.88,37.89v28.27c0,2.93,2.37,5.3,5.3,5.3Z"/>
</svg>