<?xml version="1.0" encoding="UTF-8"?>
<svg id="Layer_1" data-name="Layer 1" xmlns="http://www.w3.org/2000/svg" viewBox="0 0 412.63 403.44">
  <defs>
    <style>
      .cls-1 {
        fill: #61c4f2;
      }

      .cls-1, .cls-2, .cls-3 {
        stroke-width: 0px;
      }

      .cls-2 {
        fill: #fff;
      }

      .cls-3 {
        fill: #ed5a28;
      }
    </style>
  </defs>
  <path class="cls-3" d="m108.88,261.16c-2.98,5.2-1.04,35.21-5.07,41.68-2.85,4.59-24.96,40.13-26.11,41.96-.03.05-.05.08-.05.08l-9.3,7.62,21.26,6.86c.54-1.96,1.17-3.88,1.86-5.51.51-1.17,1.17-2.5,1.96-3.98,6.45-12.06,21.29-32.56,25.39-41.5.51-1.05.84-1.96.99-2.63,1.76-7.47,1.43-58.13,3.16-63.86,5.89-19.6,5.68-32.02,2.7-39.69-.28,16.6-4.82,38.11-16.8,58.97Z"/>
  <path class="cls-3" d="m334.97,344.88s-.03-.03-.05-.08c-1.15-1.84-23.25-37.37-26.11-41.96-4.03-6.48-2.09-36.48-5.07-41.68-11.98-20.85-16.52-42.37-16.8-58.97-2.98,7.67-3.19,20.09,2.7,39.69,1.73,5.74,1.4,56.39,3.16,63.86.15.66.48,1.58.99,2.63,4.1,8.95,18.94,29.45,25.39,41.5.79,1.48,1.45,2.8,1.96,3.98.69,1.63,1.33,3.54,1.86,5.51l21.26-6.86-9.3-7.62Z"/>
  <path class="cls-1" d="m151.07,210.09v.05s0-.03,0-.04c0,0,0,0,0,0Z"/>
  <path class="cls-2" d="m412.38,347.53l-6.48-20.04c-.87-2.68-3.72-4.13-6.42-3.29l-2.93.95c1.15-7.52,3.26-19.21,5.34-30.55,1.81-9.92,3.54-19.3,4.54-25.6,2.96-18.74,4.46-28.17,1.53-37.93,0-.05-.51-1.66-1.15-3.34-5.23-13.77-28.09-35.92-53.05-59.32-3.56-3.34-6.73-6.32-9.26-8.76V29.14c0-2.82-2.28-5.1-5.1-5.1H73.74c-2.82,0-5.1,2.28-5.1,5.1v130.02c-2.61,2.53-5.96,5.67-9.77,9.25-24.96,23.4-47.83,45.56-53.05,59.32-.64,1.68-1.15,3.29-1.15,3.34-2.93,9.76-1.43,19.2,1.53,37.93.99,6.3,2.73,15.68,4.54,25.6,2.08,11.34,4.18,23.03,5.34,30.55l-2.93-.95c-2.7-.84-5.56.61-6.42,3.29L.25,347.53c-.87,2.68.61,5.56,3.29,6.4,2.7.87,5.56-.59,6.42-3.26l4.89-15.17,2.01.66s0,.07,0,.11l9.92,3.21s0-.07.02-.11l.33.11,40.38,13.03,16.11,5.2s-.02.06-.03.1l4.84,1.56,4.84,1.58s.02-.06.03-.1l.31.1,4.38,1.4-11.12,34.42c-.87,2.7.61,5.56,3.29,6.42.51.18,1.05.25,1.56.25,2.17,0,4.16-1.38,4.87-3.52l3.8-11.78h211.85l3.8,11.78c.71,2.14,2.7,3.52,4.87,3.52.51,0,1.05-.08,1.56-.25,2.68-.87,4.15-3.72,3.29-6.42l-11.12-34.42,4.38-1.4.31-.1s.02.06.03.1l4.84-1.58,4.84-1.56s-.02-.06-.03-.1l16.11-5.2,40.38-13.03.33-.11s0,.07.02.11l9.92-3.21s0-.07,0-.11l2.01-.66,4.89,15.17c.87,2.68,3.72,4.13,6.42,3.26,2.68-.84,4.16-3.72,3.29-6.4Zm-385.18-18.79l-.35-.11c-.07-.58-.14-1.17-.22-1.8-.99-7.39-3.47-20.93-5.86-34.06-1.78-9.87-3.49-19.17-4.49-25.37-2.73-17.21-4.1-25.85-1.86-33.37.03-.05.43-1.33.92-2.68,4.84-12.7,33.45-39.49,50.53-55.5.96-.91,1.89-1.77,2.78-2.62v83.4c0,2.82,2.28,5.1,5.1,5.1,2.05,0,3.81-1.22,4.62-2.96,4.37-3.08,9.2-9.24,10.04-11.36,2.68-6.73,3.67-14.71,4.67-22.43,2.07-16.16,3.98-26.16,12.98-28.48,3.01-.79,7.65-.48,10.89,2.88,2.06,2.14,4.54,6.58,4.54,15.42,0,6.14-1.2,14.43-4.56,25.6-.94,3.21-1.27,12.42-1.76,32.71-.33,12.59-.71,28.25-1.45,31.43-.08.31-.28.87-.69,1.68-2.01,4.41-7.27,12.49-12.34,20.32-5,7.71-10.14,15.65-13.28,21.65l-10.52-3.4-49.66-16.06Zm279.44,25.47c-2.68.87-4.13,3.75-3.26,6.42l5.58,17.31H103.68l5.58-17.31c.87-2.68-.59-5.56-3.26-6.42l-8.46-2.73-.29-.09c2.91-5.34,7.49-12.39,11.98-19.28,5.51-8.51,10.73-16.55,12.98-21.47.64-1.3,1.12-2.57,1.4-3.75.92-3.95,1.27-15.3,1.71-33.52.31-11.57.69-27.41,1.38-30.06,7.34-24.52,6.55-41.68-2.42-50.99-6.27-6.55-14.84-7.21-20.75-5.71-16.39,4.23-18.61,21.67-20.57,37.07-.89,7.04-1.81,14.33-3.93,19.73v-82.27c0-.4-.08-.77-.17-1.15V34.23h255.45v124.46c-.41.74-.68,1.57-.68,2.45v82.27c-2.12-5.4-3.03-12.7-3.93-19.73-1.96-15.4-4.18-32.84-20.57-37.07-5.91-1.5-14.48-.84-20.75,5.71-8.97,9.31-9.76,26.46-2.42,50.99.69,2.65,1.07,18.48,1.38,30.06.43,18.23.79,29.57,1.71,33.52.28,1.17.76,2.45,1.4,3.75,2.24,4.92,7.47,12.95,12.98,21.47,4.49,6.9,9.07,13.94,11.98,19.28l-.29.09-8.46,2.73Zm29.14-9.41l-10.52,3.4c-3.14-6.01-8.29-13.94-13.28-21.65-5.07-7.83-10.33-15.91-12.34-20.32-.41-.82-.61-1.38-.69-1.68-.74-3.19-1.12-18.84-1.45-31.43-.48-20.29-.82-29.5-1.76-32.71-3.37-11.17-4.56-19.45-4.56-25.6,0-8.85,2.47-13.28,4.54-15.42,3.24-3.37,7.88-3.67,10.89-2.88,9,2.32,10.91,12.31,12.98,28.48.99,7.72,1.99,15.7,4.67,22.43.89,2.25,6.27,9.05,10.83,11.89.9,1.45,2.49,2.43,4.33,2.43,2.82,0,5.1-2.28,5.1-5.1v-82.92c.74.7,1.49,1.4,2.28,2.14,17.08,16.01,45.68,42.8,50.53,55.5.48,1.35.89,2.63.92,2.68,2.24,7.52.87,16.16-1.86,33.37-.99,6.19-2.7,15.5-4.49,25.37-2.4,13.13-4.87,26.67-5.86,34.06-.07.62-.14,1.22-.22,1.8l-.35.11-49.66,16.06Z"/>
  <path class="cls-2" d="m79.9,369.12c-3.45-1.96-7.84-.76-9.81,2.7-1.96,3.45-.76,7.84,2.7,9.81,3.45,1.96,7.84.76,9.81-2.7,1.96-3.45.76-7.84-2.7-9.81Z"/>
  <path class="cls-2" d="m332.72,369.12c-3.45,1.96-4.66,6.35-2.7,9.81,1.96,3.45,6.35,4.66,9.81,2.7,3.45-1.96,4.66-6.35,2.7-9.81-1.96-3.45-6.35-4.66-9.81-2.7Z"/>
  <path class="cls-2" d="m160.42,311.66h40.79c2.82,0,5.1-2.28,5.1-5.1s-2.28-5.1-5.1-5.1h-40.79c-2.82,0-5.1,2.28-5.1,5.1s2.28,5.1,5.1,5.1Z"/>
  <path class="cls-2" d="m247.1,311.66c2.82,0,5.1-2.28,5.1-5.1s-2.28-5.1-5.1-5.1h-30.59c-2.82,0-5.1,2.28-5.1,5.1s2.28,5.1,5.1,5.1h30.59Z"/>
  <path class="cls-2" d="m252.2,275.97h-91.78c-2.82,0-5.1,2.28-5.1,5.1s2.28,5.1,5.1,5.1h91.78c2.82,0,5.1-2.28,5.1-5.1s-2.28-5.1-5.1-5.1Z"/>
  <path class="cls-2" d="m252.2,326.96h-91.78c-2.82,0-5.1,2.28-5.1,5.1s2.28,5.1,5.1,5.1h91.78c2.82,0,5.1-2.28,5.1-5.1s-2.28-5.1-5.1-5.1Z"/>
  <circle class="cls-2" cx="287.89" cy="5.74" r="5.74"/>
  <path class="cls-2" d="m140.03,10.83h132.57c2.82,0,5.1-2.28,5.1-5.1s-2.28-5.1-5.1-5.1h-132.57c-2.82,0-5.1,2.28-5.1,5.1s2.28,5.1,5.1,5.1Z"/>
  <path class="cls-2" d="m160.42,207.29h40.79c2.82,0,5.1-2.28,5.1-5.1s-2.28-5.1-5.1-5.1h-40.79c-2.82,0-5.1,2.28-5.1,5.1s2.28,5.1,5.1,5.1Z"/>
  <path class="cls-2" d="m247.1,207.29c2.82,0,5.1-2.28,5.1-5.1s-2.28-5.1-5.1-5.1h-30.59c-2.82,0-5.1,2.28-5.1,5.1s2.28,5.1,5.1,5.1h30.59Z"/>
  <path class="cls-2" d="m252.2,171.6h-91.78c-2.82,0-5.1,2.28-5.1,5.1s2.28,5.1,5.1,5.1h91.78c2.82,0,5.1-2.28,5.1-5.1s-2.28-5.1-5.1-5.1Z"/>
  <path class="cls-2" d="m252.2,222.59h-91.78c-2.82,0-5.1,2.28-5.1,5.1s2.28,5.1,5.1,5.1h91.78c2.82,0,5.1-2.28,5.1-5.1s-2.28-5.1-5.1-5.1Z"/>
  <path class="cls-2" d="m160.42,109.06h40.79c2.82,0,5.1-2.28,5.1-5.1s-2.28-5.1-5.1-5.1h-40.79c-2.82,0-5.1,2.28-5.1,5.1s2.28,5.1,5.1,5.1Z"/>
  <path class="cls-2" d="m247.1,109.06c2.82,0,5.1-2.28,5.1-5.1s-2.28-5.1-5.1-5.1h-30.59c-2.82,0-5.1,2.28-5.1,5.1s2.28,5.1,5.1,5.1h30.59Z"/>
  <path class="cls-2" d="m252.2,73.37h-91.78c-2.82,0-5.1,2.28-5.1,5.1s2.28,5.1,5.1,5.1h91.78c2.82,0,5.1-2.28,5.1-5.1s-2.28-5.1-5.1-5.1Z"/>
  <path class="cls-2" d="m252.2,124.36h-91.78c-2.82,0-5.1,2.28-5.1,5.1s2.28,5.1,5.1,5.1h91.78c2.82,0,5.1-2.28,5.1-5.1s-2.28-5.1-5.1-5.1Z"/>
</svg>