<svg id="Layer_1" data-name="Layer 1" xmlns="http://www.w3.org/2000/svg" viewBox="0 0 415.75 123"><defs><style>.cls-1{fill:#030303;}.cls-2{fill:#0b0b0b;}.cls-3{fill:orange;}</style></defs><path class="cls-1" d="M0,10.45c4.29-.53,8.26-2.28,12.45-3.22A3.55,3.55,0,0,1,14.59,7v5.89c0,16,0,31.92,0,47.88,0,1.73-.29,2.42-2.21,2.32-4.13-.2-8.28-.15-12.42-.21Z"/><path class="cls-2" d="M415.75,63.35a1.41,1.41,0,0,0-1.44-.32c-1.59.22-1.82-.58-1.81-1.94.07-5.27,0-10.54,0-15.81s-1.68-7.41-5.73-7.57-6.87,2.53-7.12,7.23c-.27,5.35-.14,10.71-.18,16.07,0,1,.24,2.07-1.46,2-1.39,0-2-.3-1.94-1.85.09-5.53.06-11.06,0-16.59,0-4.17-1.32-6.25-4.17-6.77-3.67-.67-6.61,1.16-8,5a18.62,18.62,0,0,0-.85,6.63c0,4,0,8,0,11.93,0,1.16-.22,1.68-1.55,1.69s-1.74-.4-1.73-1.76c.06-7.86.12-15.72,0-23.58,0-2.4,1.67-1.82,3-2.6.07,1.63.13,2.94.19,4.42,6-6.49,12.55-6.32,15.84.21,3.75-4.52,7.29-5.77,11.63-4.51,3.06.89,3.94,3.49,5.26,5.81Z"/><path class="cls-1" d="M284.79,123c0-9.41,0-18.83,0-28.24,0-.83-.95-2.41,1.13-2.46,1.4,0,2.84-.26,2.49,2,6.64-4.9,13.25-2.26,14.65,5.53a16.8,16.8,0,0,1-.6,8.92c-2,5.57-7.52,7.48-12.58,4.4l-1.41-.84c0,2.93,0,5.56,0,8.19,0,1.06-.09,1.95-1.15,2.46Zm3.72-19.74c0,1,.08,2.08,0,3.11-.25,2.72,1.13,4.21,3.58,4.93a5,5,0,0,0,6.07-2.22,11.7,11.7,0,0,0,0-11.62,5.07,5.07,0,0,0-6.08-2.24c-2.35.77-3.9,2.17-3.6,4.94A26.7,26.7,0,0,1,288.51,103.26Z"/><path class="cls-1" d="M298.35,55.58c-8.46,10.48-24.92,5.42-27.74-7.11C269,41.23,269,34.22,273.1,27.75c4.49-7.11,14.16-9.74,20.9-5.91A19.23,19.23,0,0,1,298.47,26c-.29-2.29,1-2.73,2.49-3.12,3.4-.89,6.77-1.89,10.3-2.89,0,13.78,0,27.25,0,40.73a15.07,15.07,0,0,1-1.32,5.5c-2.38,5.85-6.9,9.22-12.85,10.61-6.36,1.5-12.71,1.32-18.76-1.56a13.54,13.54,0,0,1-6.63-7c-.55-1.22-.46-1.84.95-2.21,3-.77,6-1.62,9-2.52,1-.3,1.42-.08,2,.88,2.16,3.79,5.06,5,9.11,4.17,3.13-.66,5.35-3.51,5.66-7.48C298.46,59.33,298.35,57.55,298.35,55.58Zm.44-14.84a16.27,16.27,0,0,0-.81-4.68c-1.26-3.73-3.75-5.53-7.51-5.45-3.43.07-5.73,1.92-6.83,5.59a15.13,15.13,0,0,0,.25,9.9,6.74,6.74,0,0,0,6,4.66A7.27,7.27,0,0,0,296.74,48,12,12,0,0,0,298.79,40.74Z"/><path class="cls-1" d="M32.14,27.1c4.93-6.34,10.84-8,17.75-6.4,6,1.39,9.46,5.63,9.72,13,.33,9.31.12,18.65.17,28,0,1-.22,1.38-1.28,1.36-3.55,0-7.1-.08-10.65,0-1.62,0-1.52-.9-1.52-2q0-9.84,0-19.69c0-1,0-2.07-.07-3.11-.23-4.43-2.13-6.66-5.82-6.86a7.11,7.11,0,0,0-7.65,6.23,50.6,50.6,0,0,0-.29,7c0,5.45-.09,10.89,0,16.33,0,1.76-.55,2.19-2.21,2.13-3.11-.12-6.23-.08-9.34,0-1.25,0-1.83-.16-1.82-1.64.06-12.1,0-24.19,0-36.28,0-1.11.22-1.69,1.4-2,3.34-.86,6.66-1.83,10-2.8,1.22-.36,1.72-.12,1.62,1.26C32.05,23.17,32.14,24.79,32.14,27.1Z"/><path class="cls-1" d="M239,19.88v7.23c4.7-6.16,10.57-8,17.47-6.5,6.1,1.3,9.7,5.5,9.95,12.5.34,9.49.13,19,.19,28.51,0,.94-.19,1.41-1.27,1.39-3.55,0-7.1-.08-10.65,0-1.66,0-1.5-1-1.5-2q0-10.64,0-21.26c0-.69,0-1.38-.11-2.06-.34-3.9-1.8-5.71-5-6.22a7.12,7.12,0,0,0-8,4.42,12.11,12.11,0,0,0-.68,4.59c0,6.83,0,13.65,0,20.48,0,1.53-.29,2.15-2,2.08-3.29-.13-6.58-.08-9.87,0-1.19,0-1.66-.22-1.65-1.55.05-12.18,0-24.37,0-36.56,0-.64-.18-1.31.82-1.58C230.87,22.25,234.83,21.09,239,19.88Z"/><path class="cls-1" d="M136.56,48c1.07,2.86,2.09,5.66,3.15,8.45a1.69,1.69,0,0,1-.74,2.18c-7.92,6.3-21.92,7.47-30.65,2.42-5.26-3-8.08-7.81-9.33-13.67-2.63-12.38,4.37-24.24,16.46-26.7,14.11-2.88,24.78,5.11,25.51,19,.08,1.58-.29,2.25-1.89,2.68-8.15,2.22-16.25,4.65-24.41,6.85-2,.55-1.87,1.25-.78,2.53,2.87,3.38,6.68,3.69,10.66,3.1C129.19,54.17,131.77,52.61,136.56,48Zm-24.65-7.16c4.24-1.19,8.46-2.31,12.64-3.57,1.22-.37,3.19-.17,3.42-1.58.25-1.59-1-3-2.23-4.17a7.46,7.46,0,0,0-3.59-1.93C116.16,28.27,111.18,33.61,111.91,40.84Z"/><path class="cls-1" d="M161.18,20.13c5.55.12,10.71.9,15.1,4.33a11.57,11.57,0,0,1,1.68,1.6c2.79,3.42,2.44,4.56-1.71,5.72l-3.48,1c-2.27.67-4.36,2-5.84-1.64-1-2.54-7.4-3-9.7-1.28-1.88,1.41-1.68,3.49.59,4.78,3,1.7,6.37,2.12,9.69,2.66a35.58,35.58,0,0,1,5,1.19c5.16,1.59,8.31,5,8.67,10.41s-1.87,9.8-6.7,12.22a28.05,28.05,0,0,1-26.16.05,12,12,0,0,1-6.18-7.64c-.4-1.3-.38-2,1.17-2.41,2.77-.67,5.51-1.47,8.23-2.31,1.17-.35,1.5-.09,1.91,1.12,1.72,5,6.71,7,11.56,4.75,1.58-.72,2.77-1.75,2.82-3.65A3.5,3.5,0,0,0,165,47.49c-3-.9-6-1.57-9-2.27a29,29,0,0,1-7.83-2.57,11.28,11.28,0,0,1-1.22-18.58C151.18,20.84,156.21,20.22,161.18,20.13Z"/><path class="cls-1" d="M59.25,21.34c4.08,0,8.14.06,12.19,0,1.47,0,1.62.8,1.91,1.86,2.25,8.41,4.54,16.8,7,25.87,1.21-4.32,2.26-8.06,3.29-11.81,1.28-4.65,2.59-9.29,3.75-14,.38-1.54,1.07-2,2.63-1.95,3.28.13,6.58.08,9.86,0,1.29,0,1.66.21,1.2,1.58Q94.7,42.15,88.44,61.43A1.91,1.91,0,0,1,86.24,63C82.17,63,78.1,63,74,63a1.75,1.75,0,0,1-2-1.45Q65.69,41.9,59.26,22.26A3.85,3.85,0,0,1,59.25,21.34Z"/><path class="cls-1" d="M206.2,53c-.76,2.81-1.62,5.69-2.28,8.61A1.82,1.82,0,0,1,202,63.2a37.29,37.29,0,0,1-11.11-.42c-4.63-1.05-7.13-4.36-7.34-10.26-.21-5.69-.1-11.39-.11-17.1,0-6.56.07-13.13,0-19.69,0-1.73.54-2.37,2.16-2.75,3.18-.74,6.34-1.63,9.46-2.64,1.4-.45,1.81-.28,1.75,1.23-.09,2.59.06,5.18-.06,7.77-.07,1.52.26,2.15,2,2,2.5-.16,5,0,7.67,0-.3,1.16-.56,2.15-.83,3.13-.5,1.82-.49,4.17-1.66,5.3s-3.63.37-5.51.35c-1.24,0-1.63.32-1.61,1.59.06,5.79,0,11.58,0,17.37,0,2.69,1.08,3.77,3.74,3.9C202.34,53.08,204.22,53,206.2,53Z"/><path class="cls-1" d="M221.47,41.83c0,6.39,0,12.77,0,19.16,0,1.52-.27,2.13-2,2-3.19-.15-6.4-.11-9.59,0-1.36,0-1.76-.36-1.76-1.73q.09-18,0-36c0-1.22.32-1.83,1.6-2.14q4.89-1.2,9.71-2.69c1.76-.54,2,.11,2,1.68C221.43,28.72,221.47,35.27,221.47,41.83Z"/><path class="cls-1" d="M265,112.22c-6.72,4.7-13.3,1.88-14.69-6a17.75,17.75,0,0,1,.22-7.19c1.41-6,7.27-9.71,14.38-5,0-3.27.11-6.32,0-9.36-.09-1.77.85-1.62,2-1.67s1.77.26,1.76,1.68c-.07,9.16,0,18.31-.06,27.46,0,.75.68,2-1.06,2C266.24,114.17,264.68,114.57,265,112.22Zm-.09-8.94v-2.85c0-3-1.2-4.66-3.82-5.29a5.27,5.27,0,0,0-6.25,3,12.84,12.84,0,0,0,0,10.31c1.06,2.45,3.6,3.45,6.29,2.79s3.74-2.22,3.75-5.08Z"/><path class="cls-2" d="M351.22,49.33A15.57,15.57,0,0,1,353.1,41a11.11,11.11,0,0,1,11.37-6.08c5.14.46,8.36,3.53,10,8.19A18,18,0,0,1,374,56.73c-2.05,4.59-5.65,7.08-10.75,7.1a11.47,11.47,0,0,1-10.77-7.54A16.11,16.11,0,0,1,351.22,49.33Zm20.94-.09A13.1,13.1,0,0,0,370,41.4a7.81,7.81,0,0,0-13.26-.15c-3.2,4.49-3.08,12.18.27,16.54a7.82,7.82,0,0,0,12.65,0A13.18,13.18,0,0,0,372.16,49.24Z"/><path class="cls-2" d="M325.64,114.31c-1.83-.53-4.12,1.1-4.52-2.18-2.65,2.13-5.44,3.1-8.7,2.12a6.3,6.3,0,0,1-4.83-5.44,6.17,6.17,0,0,1,3.76-6.71,15.37,15.37,0,0,1,7.85-1.22c1.7.1,2.11-.55,1.93-2.07-.24-1.92-1.16-3.33-3.06-3.71-2.18-.44-4.31-.31-5.83,1.75-.38.5-.17,1.51-1.16,1.5s-2.12.45-2.75-.23.09-1.81.56-2.58c1.81-3,6.63-4.46,10.69-3.34,3.71,1,5.19,3.23,5.29,7.53C325,104.46,324.33,109.24,325.64,114.31Zm-4.52-8.37c-.4-.66.81-2.2-.93-2.32a14.29,14.29,0,0,0-6.61.67,3.39,3.39,0,0,0-2.25,3.16,3.32,3.32,0,0,0,1.69,3.22A5.47,5.47,0,0,0,321.12,105.94Z"/><path class="cls-2" d="M239.1,104.3c-1.9,0-3.81.1-5.71,0-1.58-.1-1.68.54-1.39,1.83,1.22,5.27,6.74,7.26,10.79,3.71,1.26-1.09,2-1,3,0,1.18,1.26-.33,1.63-.81,2.12-3.56,3.61-10.14,3.54-13.88,0-4.68-4.49-4-14.51,1.28-18.32a8.73,8.73,0,0,1,14,5.28c1.15,5.3,1,5.42-4.34,5.42Zm-1.67-3.09c1.22,0,2.44-.1,3.64,0,1.59.17,2-.48,1.61-1.9-.59-2.09-1.53-3.91-4-4.29A5.15,5.15,0,0,0,233,97.71c-1.7,2.93-1.36,3.5,2.05,3.5Z"/><path class="cls-2" d="M392.82,104.3c-1.82,0-3.64.12-5.45,0s-2.2.46-1.79,2.16c1.16,4.86,6.48,6.67,10.63,3.59.56-.41.82-1.39,1.84-1.09,1.47.44,1.76,1.66.66,2.83-4.12,4.36-12,3.67-15.41-1.35-2.74-4-2.4-11.37.7-15.11a9.35,9.35,0,0,1,10-3c4.18,1.3,5.54,4.62,6.05,8.48.47,3.56.41,3.57-3.11,3.57ZM391,101.21c1.38,0,2.76,0,4.13,0,1,0,1.33-.23,1.15-1.31-.42-2.67-2-4.55-4.23-4.9a5.29,5.29,0,0,0-5.82,3.27c-1.24,2.56-1,2.92,1.93,2.93Z"/><path class="cls-2" d="M325.34,50.17c0-8.52,4-14,10.2-15.16,5.38-1,10.17,1.63,11.79,6.5.29.87.9,1.83-.68,2.19-1,.24-2,.93-2.49-.89a6.32,6.32,0,0,0-5.86-5,7.43,7.43,0,0,0-7.61,3.87,14.73,14.73,0,0,0,0,15.27,7.34,7.34,0,0,0,7.82,3.94c3.21-.45,4.92-2.69,5.9-5.51.42-1.21.42-2.34,2.27-1.7s1,1.78.65,2.81c-1.41,4.23-4.24,6.91-8.76,7.31a10.86,10.86,0,0,1-10.47-4.93A16,16,0,0,1,325.34,50.17Z"/><path class="cls-2" d="M193,107.57c1.77-.12,3.4-.79,4.44,1.82s6.56,2.91,8.46.78a2.76,2.76,0,0,0-.76-4.37,14.19,14.19,0,0,0-3.9-1.34c-1.07-.32-2.18-.53-3.22-.92-2.4-.9-4.25-2.3-4.27-5.19a6.27,6.27,0,0,1,4.28-5.87c4.35-1.71,9.61-.22,11.45,3.29.46.87,1.17,2.34.31,2.67-1,.39-2.71,1.13-3.65-.92a5,5,0,0,0-6.89-2,2.92,2.92,0,0,0-1.76,2.64,2.47,2.47,0,0,0,1.94,2.46c1.88.64,3.83,1.05,5.71,1.66,3.81,1.23,5.43,3.14,5.29,6.09s-2.35,5.23-6.09,6C198.58,115.61,193,112.33,193,107.57Z"/><path class="cls-1" d="M188.16,103.25c0,3.11,0,6.22,0,9.33,0,.58.43,1.58-.71,1.56-1,0-2.5.6-2.75-.48-.44-1.88-1.07-.65-1.64-.34-6.34,3.5-12,.27-12.1-6.89,0-4.14.09-8.29-.05-12.44,0-1.7.76-1.69,2-1.72s1.81.25,1.78,1.69c-.1,4.14-.06,8.29,0,12.44,0,3.52,1.45,5.12,4.46,5s5.64-1.82,5.4-5.21c-.29-4,0-7.95-.11-11.92,0-1.56.32-2.08,2-2s1.86.54,1.81,1.93C188.1,97.2,188.16,100.23,188.16,103.25Z"/><path class="cls-1" d="M363.22,94.62c2.07-1.69,4-2.74,6.36-2.75,4.31,0,6.94,2.17,7.11,6.48.19,4.83,0,9.67.11,14.5,0,1.83-1.16,1.23-2.07,1.33-1.07.12-1.75,0-1.72-1.43.1-4.15.06-8.29,0-12.44,0-3.78-1.39-5.35-4.48-5.31s-5.3,2.3-5.3,5.64c0,4-.1,8,0,11.92.07,1.77-.86,1.6-2,1.66s-1.78-.3-1.76-1.7c.08-5.87,0-11.74.08-17.61,0-.86-1-2.41,1-2.59C362.08,92.19,363.62,92,363.22,94.62Z"/><path class="cls-1" d="M141.31,100.86c0-3.53-.15-7.08.06-10.6.13-2.18-.69-2.63-2.62-2.47s-3.63,0-5.44,0c-1.1,0-1.56-.27-1.49-1.44s0-1.79,1.45-1.77q10,.09,20,0c1.26,0,1.39.6,1.39,1.59s0,1.67-1.34,1.62c-2.07-.08-4.16.08-6.22,0-1.63-.11-2,.46-2,2,.07,7.42,0,14.84,0,22.26,0,1.33,0,2.17-1.82,2.19s-2-.79-2-2.28C141.37,108.29,141.31,104.57,141.31,100.86Z"/><path class="cls-2" d="M347.17,102.74c0-1.89-.1-3.8,0-5.69.12-1.6-.4-2.17-2-2-.93.11-2.1.42-2.1-1.35s1.13-1.52,2.08-1.38c2.22.33,1.95-1.06,2.06-2.49.08-1-1-2.59,1-2.88,1.67-.25,3.16-.2,2.74,2.26-.34,2-.05,3.64,2.7,3.09,1.21-.25,1.38.47,1.39,1.5s-.4,1.46-1.36,1.27c-2.74-.55-2.85,1.06-2.78,3.1.11,3.28.05,6.56,0,9.83,0,2.1.52,3.66,3.08,3.26,1-.16,1.24.3,1.19,1.13s.24,1.63-1,2a5.21,5.21,0,0,1-6.81-3.69,4.6,4.6,0,0,1-.19-1c0-2.33,0-4.66,0-7Z"/><path class="cls-2" d="M216.73,103c0-1.38,0-2.76,0-4.14.09-2.2.35-4.41-3.09-3.75-1,.19-1-.69-1-1.4s.11-1.52,1.06-1.33c3.3.67,3.24-1.4,3-3.57-.18-1.54.5-1.84,1.9-1.88s2,.52,1.83,1.94c-.35,2.38,0,4.08,3.09,3.51,1.29-.24.94.86,1,1.56s-.21,1.39-1.13,1.19c-3.07-.68-3.08,1.17-3,3.36.11,3.36,0,6.72,0,10.08,0,1.88.81,3,2.81,2.78,1-.11,1.46,0,1.43,1.12s.08,1.79-1.25,2.11c-3.51.82-6.44-1.19-6.67-4.86-.14-2.23,0-4.48,0-6.72Z"/><path class="cls-2" d="M334.66,94.35c1.4-1.48,2.6-2.4,4.14-2.42,1,0,2.54-.78,2.66,1.35.11,1.71-.34,2.3-2.21,2.29-3.22,0-4.64,1.63-4.65,4.85,0,4-.06,7.94,0,11.91,0,1.43-.34,1.92-1.85,1.92s-2.1-.29-2.07-2c.11-6,0-11.91.07-17.86,0-.78-.64-2.1,1-2.1C333.09,92.32,334.77,91.7,334.66,94.35Z"/><path class="cls-2" d="M404.45,103.06c0-3,0-6,0-9,0-.63-.3-1.58.7-1.66s2.64-.56,2.86.34c.59,2.33,1.28.57,1.87.22a6,6,0,0,1,3.14-1c1.12,0,2.26-.21,2.19,1.63-.06,1.43-.19,2.08-2,2-3.52,0-4.93,1.57-4.94,5.09,0,3.87-.09,7.75,0,11.62.06,1.67-.53,2-2.06,2s-1.94-.39-1.89-1.89C404.53,109.27,404.45,106.16,404.45,103.06Z"/><path class="cls-1" d="M160.33,94.89c1.81-2,3.11-3,4.87-3,1.06,0,2.31-.4,2.33,1.48,0,1.56-.25,2.21-2.09,2.17-3.22-.06-4.81,1.77-4.82,5,0,4-.08,7.93,0,11.89.05,1.58-.57,1.77-1.93,1.79s-1.88-.39-1.86-1.86c.08-6,0-12.06,0-18.09,0-1-.36-2.18,1.41-2C159.52,92.43,161.21,91.76,160.33,94.89Z"/><path class="cls-2" d="M321.72,60.45c.15,1.57.17,2.62-2.12,2.66-2.9.06-2-1.75-2.12-3.17s-.18-2.64,2.13-2.67C322.51,57.22,321.6,59,321.72,60.45Z"/><path class="cls-3" d="M221.44,0l.09,9.56c0,.88.05,1.62-1.16,1.92-3.91,1-7.78,2.13-11.92,3.28,0-3.51.05-6.77,0-10,0-1.46,1.07-1.35,1.89-1.6C213.84,2.07,217.38,1,220.92,0Z"/></svg>