<?xml version="1.0" encoding="UTF-8"?>
<svg id="Layer_2" data-name="Layer 2" xmlns="http://www.w3.org/2000/svg" viewBox="0 0 793.48 2149.68">
  <defs>
    <style>
      .cls-1 {
        fill: #ffb10a;
        stroke-width: 0px;
      }
    </style>
  </defs>
  <path class="cls-1" d="m282.83,29.54c-4.79-4.45-12.28-4.18-16.74.61C122.69,184.38,41.57,394.64,41.56,605.04c0,26.23,1.26,52.43,3.81,78.56,20.27,207.21,121.87,405.1,276.46,544.3-80.37,137.22-112.26,305.32-89.77,473.64,17.56,131.48,67.22,254.03,142.19,354.48-34.31-17.93-71.51-30.33-110.11-36.24-6.46-.99-12.51,3.45-13.49,9.92-.09.61-.14,1.21-.14,1.81,0,5.75,4.19,10.8,10.06,11.69,73.76,11.28,142.21,47.74,192.71,102.66,4.31,4.68,11.54,5.12,16.39,1.01,4.83-4.12,5.59-11.33,1.64-16.34-48.29-61.53-74.46-141.54-71.69-219.82.24-6.59-4.89-12.02-11.42-12.25-6.54-.23-12.02,4.88-12.25,11.42-1.67,47.43,6.77,95.55,23.69,140.36-172.4-224.7-201.27-560.54-59.64-806.46,15.68,13.31,31.89,26.02,48.56,38.1,78.56,56.89,149.72,84.28,217.54,83.73,75.51-.61,165.75-47.45,184.28-133.07,9.96-46.12-4.2-93.23-39.93-132.73-43.98-48.61-112.29-75.48-174.02-68.46-117.79,13.39-198.87,108.9-241.99,176.01-148.45-135.11-245.92-326.13-265.48-526.07C46.52,452.22,126.72,214.85,283.44,46.28c4.46-4.8,4.17-12.28-.61-16.74Zm69.58,1193.69c40.11-63.37,116.6-155.83,226.69-168.34,54.39-6.18,114.76,17.69,153.78,60.82,24.21,26.77,36.89,57.36,36.89,88.08,0,7.93-.84,15.86-2.54,23.74-15.93,73.58-95,113.85-161.32,114.39-62.59.51-129.14-25.41-203.46-79.23-17.22-12.46-33.92-25.65-50.04-39.46Z"/>
  <path class="cls-1" d="m778.92,1052.59c3.65,5.43,2.22,12.79-3.2,16.44-5.43,3.66-12.79,2.22-16.45-3.2-27.6-40.95-79.1-64.53-128.14-58.68-6.49.78-12.39-3.86-13.16-10.36-.06-.48-.08-.95-.08-1.42,0-5.91,4.42-11.03,10.44-11.74,57.63-6.88,118.16,20.83,150.6,68.96Z"/>
  <path class="cls-1" d="m525.21,1017.5c-1.43-2.06-2.11-4.41-2.11-6.75,0-3.75,1.77-7.44,5.09-9.74,17.57-12.21,39.87-18.03,61.18-15.97,6.51.63,11.29,6.48,10.65,12.93-.63,6.51-6.42,11.28-12.93,10.65-15.81-1.53-32.35,2.78-45.39,11.84-5.37,3.73-12.75,2.4-16.49-2.97Z"/>
  <path class="cls-1" d="m18.04,381c2.11-6.19,8.85-9.49,15.04-7.38,6.19,2.12,9.5,8.87,7.37,15.04-15.59,45.57-20.43,94.88-14,142.62.91,6.45-3.67,12.45-10.16,13.32-6.49.87-12.45-3.68-13.32-10.16C.99,519.7,0,504.81,0,489.92c0-36.97,6.08-73.98,18.04-108.93Z"/>
  <path class="cls-1" d="m35.04,347.38c0-.56.04-1.13.12-1.71,2.28-15.8,8.8-30.71,18.86-43.12,4.12-5.08,11.57-5.86,16.66-1.75,5.09,4.12,5.88,11.57,1.74,16.66-7.36,9.1-12.14,20.02-13.82,31.6-.93,6.47-6.94,10.97-13.42,10.03-5.9-.85-10.15-5.91-10.15-11.71Z"/>
  <path class="cls-1" d="m315.8,11.84v1.97c0,6.54-5.31,11.84-11.84,11.84s-11.84-5.3-11.84-11.84v-1.97c0-6.54,5.31-11.84,11.84-11.84,6.54,0,11.84,5.3,11.84,11.84Z"/>
</svg>