<svg id="Layer_1" data-name="Layer 1" xmlns="http://www.w3.org/2000/svg" viewBox="0 0 177.4 168.64"><path d="M89.41,129.29c2,1.53,4.09,3,6.14,4.49l20,14.52,18,13.08c3.26,2.37,6.51,4.75,9.94,7.26-.45-1.46-.81-2.67-1.21-3.88-2.23-6.86-4.49-13.71-6.7-20.58q-4-12.48-8-25L88.93,129A1.39,1.39,0,0,1,89.41,129.29Z"/><path d="M130.49,64.45c-6.62,0-13.25,0-19.87,0a1.11,1.11,0,0,1-1.27-.9c-.36-1.28-.8-2.54-1.21-3.81Q102.35,41.87,96.57,24,93.48,14.5,90.41,5c-.51-1.58-1-3.16-1.65-5-2.06,6.36-4,12.46-6,18.55q-2.67,8.26-5.38,16.52c-3.06,9.4-6.14,18.79-9.17,28.2a1.44,1.44,0,0,1-1.63,1.2c-8.48,0-17,0-25.44,0-4.56,0-9.11-.14-13.67-.16-8.75,0-17.49,0-26.24,0H0c2,1.46,3.78,2.81,5.59,4.12L20.91,79.52Q28.77,85.24,36.6,91c5.76,4.19,11.52,8.39,17.31,12.53a1.4,1.4,0,0,1,.57,1.87c-.74,2.19-1.43,4.39-2.15,6.59l-8.64,26.52q-4.78,14.66-9.56,29.31c-.07.22-.11.45-.19.79L53.38,154.4,70.51,142c5.79-4.21,11.58-8.4,17.36-12.63a1.3,1.3,0,0,1,.82-.32l33.92-24.74L123,104a1.4,1.4,0,0,1,.35-.33c2.44-1.73,4.84-3.52,7.26-5.28q10-7.26,20.08-14.52L172.5,68l4.9-3.57Z"/><path d="M88.47,129.15l.46-.11a.67.67,0,0,0-.24,0Z"/></svg>