<svg id="Layer_1" data-name="Layer 1" xmlns="http://www.w3.org/2000/svg" viewBox="0 0 595.28 841.89"><defs><style>.cls-1{fill:#8e8e8e;}.cls-2{fill:#fff;}</style></defs><rect class="cls-1" width="595.28" height="841.89"/><path class="cls-2" d="M161.09,150.75a12.53,12.53,0,0,1,11-3c5.14.86,8.71,4.3,9,9.52.36,5.92.08,11.87.08,17.9h-6.1v-1.38c0-4.79,0-9.57,0-14.35,0-4.27-3.25-6.77-7.12-5.65a5.33,5.33,0,0,0-3.78,5.4c0,4.87,0,9.74,0,14.6v1.41H158c0-.43-.06-.87-.06-1.31,0-4.82,0-9.65,0-14.47,0-3.43-2.14-5.82-5.29-5.87-3.33-.05-5.6,2.24-5.63,5.79,0,4.74,0,9.48,0,14.22v1.6h-6.15a3.12,3.12,0,0,1-.09-.56c0-5.32-.08-10.65,0-16a10.67,10.67,0,0,1,9.6-10.93A12.24,12.24,0,0,1,161.09,150.75Z"/><path class="cls-2" d="M227.77,175.21h-6.19v-1.39c0-4.45,0-8.9,0-13.35s-3.07-7.25-7.33-6.92a6.26,6.26,0,0,0-5.9,6.17c-.18,4.61-.08,9.23-.1,13.85,0,.53,0,1.06,0,1.64h-6.18c0-.39-.08-.75-.08-1.12,0-4.53,0-9.07,0-13.6.05-4.69,1.55-8.76,5.84-11.14a14,14,0,0,1,14.18,0,10.83,10.83,0,0,1,5.69,9.54C227.94,164.26,227.77,169.67,227.77,175.21Z"/><path class="cls-2" d="M107,175.23h-6.39v-1.34c0-4.49.05-9,0-13.47-.07-4.91-4.05-7.93-8.61-6.63a6.18,6.18,0,0,0-4.6,5.74c-.19,3.19-.11,6.4-.13,9.6,0,2,0,4,0,6.05H81.09c0-.36-.07-.76-.07-1.15,0-4.45,0-8.91,0-13.36,0-4.62,1.41-8.71,5.59-11.16a14.1,14.1,0,0,1,14.51-.16,9.88,9.88,0,0,1,5.4,8.1C107,163.32,106.88,169.22,107,175.23Z"/><path class="cls-2" d="M51.86,136.16H58c0,.44.06.88.06,1.32,0,4.45-.05,8.9,0,13.35.08,5.28,4.63,8.42,9.34,6.45,3-1.23,4-3.74,4-6.73,0-4.33,0-8.65,0-13v-1.42h6.15c0,.31.09.63.09,1,0,4.65.07,9.31,0,14-.07,4.43-1.57,8.23-5.48,10.73-5.51,3.53-13.94,2.32-17.7-2.51a12.5,12.5,0,0,1-2.63-7.53c-.11-5,0-10.06,0-15.09A4.16,4.16,0,0,1,51.86,136.16Z"/><path class="cls-2" d="M234.07,136.15h6.18v12.08h10.9v6.06H240.36c0,.48-.1.84-.1,1.2q0,5.49,0,11c0,1.93.67,2.64,2.62,2.66,2.73,0,5.47,0,8.27,0v6.12c-.77,0-1.54,0-2.31,0-2.58,0-5.15,0-7.73,0-4.33-.07-7.07-2.7-7.09-7-.07-10.48,0-21,0-31.44A6.37,6.37,0,0,1,234.07,136.15Z"/><path class="cls-2" d="M114.06,136.13h6.07V175.2h-6.07Z"/><path class="cls-2" d="M133.52,175.23h-6.07V148.36h6.07Z"/><path class="cls-2" d="M194.73,175.23h-6.06V148.36h6.06Z"/><path class="cls-2" d="M133.5,144.32h-6.07v-8.15h6.07Z"/><path class="cls-2" d="M194.71,144.32h-6.07v-8.15h6.07Z"/><path class="cls-2" d="M48.85,269.42V254.79c1.71.53,3.31,1.09,4.95,1.53,6,1.58,12,2.57,18.22,1.48a12.21,12.21,0,0,0,4.14-1.68,4.39,4.39,0,0,0,2.06-4.62,4.22,4.22,0,0,0-3.54-3.78c-2.45-.48-5-.55-7.45-1.06a44.14,44.14,0,0,1-7.88-2.16c-7.28-3-11.51-8.42-11.69-16.41-.18-7.75,3.29-13.65,10.08-17.47a28.56,28.56,0,0,1,13.19-3.37,64.41,64.41,0,0,1,22.81,2.94,2,2,0,0,1,1.64,2.21c-.1,4.17,0,8.35,0,12.5-3.44-1-6.73-2.05-10.07-2.85-4.75-1.15-9.57-1.78-14.45-.85-3.74.72-5.63,3.35-4.64,6.38.86,2.62,3.17,3,5.47,3.42,3.84.66,7.78,1,11.5,2.09,6.32,1.87,11.34,5.55,13.58,12.11,3.27,9.56-1.36,19.58-11,24A33.16,33.16,0,0,1,72.26,272a88.8,88.8,0,0,1-22.45-2.24A8.31,8.31,0,0,1,48.85,269.42Z"/><path class="cls-2" d="M147.45,271.4h-9.31c-3.24,0-6.49-.06-9.73,0-1.19,0-1.62-.39-1.91-1.51a63.67,63.67,0,0,0-5.94-15.43,3.09,3.09,0,0,0-1.29-1.33v18.13h-17V210.59l16.9-3.35v33l.39.17c.37-.43.77-.84,1.11-1.29a61.51,61.51,0,0,0,7.75-13.28c.25-.58,1-1.33,1.54-1.34,5.92-.09,11.85-.05,17.78,0a3.44,3.44,0,0,1,.68.18c-.26.83-.47,1.67-.78,2.47A74.19,74.19,0,0,1,137.4,245.9a2.27,2.27,0,0,0-.17,2.81c3.25,6.8,6.39,13.64,9.55,20.48A19.89,19.89,0,0,1,147.45,271.4Z"/><path class="cls-2" d="M224.17,271.27H207.78v-1.9c0-19.07,0-38.14,0-57.21,0-1.68.53-2.14,2.1-2.38,4.74-.73,9.45-1.66,14.33-2.54Z"/><path class="cls-2" d="M248.71,207.25v63.93c-.52.05-1,.15-1.48.15-4.47,0-8.94,0-13.41,0-1.28,0-1.61-.45-1.61-1.66q0-29,0-58c0-.81,0-1.55,1.06-1.73C238.39,209.09,243.49,208.17,248.71,207.25Z"/><path class="cls-2" d="M178.62,223.66V237.5c-.82.13-1.62.27-2.43.38-6,.79-8.21,3.16-8.29,9.26-.09,7.09,0,14.19,0,21.28,0,.89,0,1.78,0,2.83H151.23c0-.5-.09-.93-.09-1.37,0-8.54-.07-17.09,0-25.64.13-11.47,6.21-18.35,17.59-19.91C171.94,223.89,175.18,223.88,178.62,223.66Z"/><path class="cls-2" d="M200.36,271.28H183.9v-1.91c0-14.25,0-28.5,0-42.74,0-1.69.43-2.19,2.14-2.14,4.74.12,9.48,0,14.35,0Z"/><path class="cls-2" d="M184.05,211.58a8.18,8.18,0,0,1,16.35,0,8.18,8.18,0,1,1-16.35,0Z"/><path class="cls-2" d="M170.12,401.22h12a2.64,2.64,0,0,1,0,.28l-2.91,15.68q-1,5.18-1.93,10.35c-.06.29-.05.44.33.44,2.57,0,5.14,0,7.72,0,.28,0,.37-.1.42-.36.41-2.28.83-4.55,1.25-6.83q1.59-8.61,3.18-17.22a14.25,14.25,0,0,0,.37-2.34h23.11a2.93,2.93,0,0,1,0,.41c-.45,2.46-.92,4.93-1.35,7.4-.06.37-.2.45-.55.45-3.5,0-7,0-10.48,0-.32,0-.45.07-.51.4-.32,1.85-.67,3.7-1,5.54-.07.37,0,.46.39.46,3.34,0,6.68,0,10,0,.56,0,.56,0,.46.54q-.57,3.11-1.13,6.23c-.06.33-.18.43-.53.43-3.39,0-6.79,0-10.18,0-.34,0-.45.11-.5.42-.33,1.87-.66,3.73-1,5.58-.08.37,0,.4.35.4h17.53c.29,0,.4-.08.45-.37q1.36-7.45,2.74-14.92,1.19-6.44,2.39-12.89H236.8c0,.08.14.07.22.07a25.33,25.33,0,0,1,2.75.26,18.13,18.13,0,0,1,5.84,1.73,8.59,8.59,0,0,1,4.77,5.9c.11.47.19.95.28,1.43v2.3a4.16,4.16,0,0,0-.15,1,10.11,10.11,0,0,1-4.33,7.18,12.94,12.94,0,0,1-5,1.89c-.36.06-.43.15-.3.52q2.61,6.82,5.16,13.65c.18.48.18.48-.33.48-3.64,0-7.27,0-10.9,0a.63.63,0,0,1-.73-.54q-2.44-8.36-4.95-16.71c0-.12-.09-.23-.17-.45,0,.19-.06.27-.08.35q-1.53,8.31-3.05,16.62c-.13.72-.13.72-.86.72H113.26c-.32,0-.35-.09-.29-.38.22-1.1.41-2.21.62-3.32l3.09-16.74c.46-2.46.91-4.93,1.37-7.4,0-.27,0-.38-.29-.38-2,0-4,0-6,0a.32.32,0,0,0-.38.31q-.94,5.16-1.9,10.31-1.58,8.57-3.15,17.11c-.07.38-.2.5-.6.5H63.82a.56.56,0,0,1-.64-.45q-3.39-9.89-6.8-19.75c-.3-.88-.61-1.75-.94-2.71,0,.21-.09.32-.11.44q-1.95,11-3.9,22c-.06.33-.18.44-.52.44-3.61,0-7.21,0-10.82,0-.72,0-.71,0-.57-.72l3.09-16.74q1.52-8.14,3-16.29a22.55,22.55,0,0,0,.46-2.71H58.7c0,.16.06.29.11.43q3.86,10.61,7.74,21.2l.19.51a2.71,2.71,0,0,0,.25-.83l2.94-16c.32-1.76.66-3.53,1-5.29H142.8a2.17,2.17,0,0,1,0,.36c-.45,2.48-.92,5-1.35,7.45-.06.37-.2.45-.55.45H130.25c-.32,0-.43.1-.48.39-.33,1.84-.67,3.67-1,5.5-.09.5-.09.51.42.51h10.15c.3,0,.42,0,.34.39q-.6,3.11-1.13,6.23c-.08.44-.24.54-.66.53-3.36,0-6.71,0-10.07,0-.34,0-.49.08-.55.45q-.48,2.79-1,5.58c-.06.32,0,.36.32.36h17.74c.24,0,.35,0,.4-.32.45-2.51.92-5,1.39-7.52q1.59-8.64,3.18-17.27c.19-1,.43-2,.53-3.07h12.05a12,12,0,0,1-.33,2.06q-1.54,8.33-3.1,16.65c-.47,2.55-1,5.1-1.42,7.64,0,.22-.07.4.26.4h7.64c.22,0,.3-.08.34-.29.32-1.79.66-3.56,1-5.34q1.45-7.95,2.93-15.89C169.49,404.7,169.8,403,170.12,401.22ZM86.62,429.4h8.79c.27,0,.4,0,.45-.36.62-3.44,1.26-6.88,1.89-10.31q.81-4.37,1.61-8.74c0-.22.24-.53-.29-.53q-8.76,0-17.53,0c-.27,0-.38.07-.43.35q-.45,2.78-1,5.55c-.07.38,0,.44.38.44h10.4c.53,0,.53,0,.43.53-.37,2.08-.76,4.15-1.12,6.23-.06.37-.19.46-.55.46H79.09c-.32,0-.45.08-.51.41-.32,1.85-.65,3.7-1,5.54-.08.41,0,.44.4.44Zm144.81-11a15,15,0,0,0,3.16-.27,4.94,4.94,0,0,0,4.33-5.06,3.86,3.86,0,0,0-2.88-4,15.71,15.71,0,0,0-4.78-.43c-.22,0-.23.15-.26.3-.56,3.05-1.13,6.09-1.7,9.14-.06.29,0,.35.31.34Z"/><path class="cls-2" d="M35.41,356.68c1.17-3.22,2-6,3.25-8.62.31-.68,1.74-1.19,2.66-1.2,7.49-.1,15,0,22.48-.08a6,6,0,0,0,3.16-.56,4.07,4.07,0,0,0,1.68-2.76,3.4,3.4,0,0,0-1.72-2.39,21.9,21.9,0,0,0-4.15-1.35c-5.46-1.74-7.21-5.11-5.36-10.53,2.09-6.16,5.22-11.44,12.42-12.39a71,71,0,0,1,8.76-.2c6.19,0,12.38,0,18.64,0-2.57,2.69-4.93,5.3-7.47,7.73a4.66,4.66,0,0,1-2.86,1.11c-3.92.12-7.86,0-11.79.08a7.34,7.34,0,0,0-3.42.71,3.52,3.52,0,0,0-1.62,2.52,3.47,3.47,0,0,0,1.7,2.45,30.25,30.25,0,0,0,4.41,1.41c4.77,1.64,6.55,4.92,5.38,9.8-2.08,8.63-7.22,13.51-16.86,14.15S45.54,356.68,35.41,356.68Z"/><path class="cls-2" d="M203.44,343.11c-1.41,3.73-2.9,7.42-4.21,11.18-.64,1.83-1.59,2.61-3.6,2.49-2.9-.18-5.82,0-9.13,0,.51-1.51.88-2.69,1.3-3.85,4.08-11.23,8.21-22.44,12.22-33.69.68-1.93,1.64-2.76,3.76-2.65,5.45.3,11,0,16.37.7,5.8.79,7.86,4.82,6.28,10.44a16.22,16.22,0,0,1-8.05,9.94c-1.1.63-2.22,1.21-3.31,1.79l5.35,17.31c-4.18,0-7.64.14-11.08-.1-.79-.06-1.89-1.28-2.16-2.17-.93-3-1.53-6.18-2.29-9.28a18.08,18.08,0,0,0-.7-2Zm1.76-8.78c5.74,1,9.34-1.09,10.5-5.79.43-1.73.08-3.4-1.74-3.7s-4.59-.42-5.16.5C207.13,328,206.35,331.24,205.2,334.33Z"/><path class="cls-2" d="M165.12,357.31c-9.18,0-13.64-5.36-11.87-14.59s6.09-17.17,13.93-22.75a19.69,19.69,0,0,1,17.39-3.27,8.58,8.58,0,0,1,6.66,8.67c-.15,12-5.06,21.69-14.7,28.8A17.64,17.64,0,0,1,165.12,357.31Zm15.07-27.52c.06-4.5-1.93-6.12-5.09-4.93a10.32,10.32,0,0,0-4.39,3.06,32.62,32.62,0,0,0-6.55,16.58c-.35,3,1.86,4.89,4.86,4.08a8.16,8.16,0,0,0,4.14-2.36C177.2,341.09,179,335,180.19,329.79Z"/><path class="cls-2" d="M97.78,357.31c-7,0-11.26-2.56-12.24-8.05a20.26,20.26,0,0,1,.31-8.09c2.12-8.88,6.5-16.42,14.24-21.64a21.07,21.07,0,0,1,14.07-3.45c6.5.58,10.44,5.25,9.45,12.5-1.34,9.75-5.39,18.35-13.35,24.62A19.24,19.24,0,0,1,97.78,357.31Zm-1.43-13.43c-.12,3.57,2,5.67,4.84,4.7,2-.69,4.39-2.06,5.27-3.8a103.69,103.69,0,0,0,5.83-14.61c.45-1.37,0-4-.91-4.61-1.32-.82-3.53-.49-5.29-.2a5.2,5.2,0,0,0-2.57,1.93C99.23,332.2,97.59,338.24,96.35,343.88Z"/><path class="cls-2" d="M149.35,333.53a65.49,65.49,0,0,1-2.33,6.24c-.27.58-1.47,1-2.27,1a53.34,53.34,0,0,1-6.57,0A2.78,2.78,0,0,0,135,343c-1.32,3.88-2.83,7.7-4.14,11.58a2.82,2.82,0,0,1-3.23,2.2c-2.9-.13-5.82,0-9,0,.24-.95.36-1.63.59-2.27q5-13.75,10-27.5c2.72-7.42,7-10.37,14.89-10.38H163.5c-1.85,2.24-4.27,5.3-6.86,8.21a3.87,3.87,0,0,1-2.52.65c-3.28.07-6.58,0-9.86.06-2.54.06-5.67,4-4.92,6.39.17.53,1.4,1,2.17,1,2.36.17,4.74.12,7.11.17C148.77,333.1,148.92,333.27,149.35,333.53Z"/><path class="cls-2" d="M238.45,325.47a42.42,42.42,0,0,1-5.68-.07,2.92,2.92,0,0,1-2-1.53c-.87-2.32-1.47-4.73-2.17-7.12h38.2c-1,2.74-1.84,5.3-3,7.74-.25.56-1.49.92-2.3.94-3.28.11-6.58.16-9.86,0-2-.09-2.93.75-3.57,2.55-3.13,8.77-6.39,17.48-9.49,26.25-.65,1.82-1.48,2.69-3.52,2.54-2.43-.18-4.88,0-8,0C231,346.23,234.58,336.2,238.45,325.47Z"/><path class="cls-2" d="M115.59,505.19h-8.53c-.73,0-1.06-.58-1.46-1a45.37,45.37,0,0,0-24.93-14.1c-23.15-4.82-46.95,10.46-52.37,33.73-5.54,23.78,8.3,47.53,31.91,53.81,17.29,4.6,32.41.06,44.91-12.81a4.18,4.18,0,0,1,3.32-1.41q47.24.06,94.47,0H204c.66,0,1,.11.54.84-1.14,1.65-2.3,3.29-3.4,5-.44.66-1,.55-1.65.55l-20.53,0q-33.49,0-67,0a3.3,3.3,0,0,0-2.56,1C98.21,582,84.71,587.25,69,586.49c-23.51-1.14-44-19.26-48.17-42.36-4.4-24.6,7.73-48.17,30.68-57.79,20.11-8.43,38.83-5.07,55.54,9a44.39,44.39,0,0,1,6.12,6.51C113.88,502.83,114.59,503.84,115.59,505.19Z"/><path class="cls-2" d="M70.86,535.52q-1.87,6.16-3.77,12.34c-.15.49-.3,1-.48,1.46-.53,1.46-1.44,2.55-3.09,2.6s-2.64-1.06-3.17-2.49c-1.49-4-2.91-8-4.37-12-.29-.82-.6-1.63-1.07-2.89-.06.78-.12,1.13-.12,1.49,0,4.16,0,8.33,0,12.5,0,2.38-1,3.47-3.12,3.49s-3.32-1.1-3.32-3.49q0-13.89,0-27.78c0-2.25.7-3.43,2.13-3.88a4.13,4.13,0,0,1,4.91,1.95,11,11,0,0,1,.88,1.79l6.53,16.47c.14.36.34.7.67,1.4.8-2.17,1.48-4,2.15-5.87,1.52-4.2,3-8.4,4.58-12.59.68-1.86,1.82-3.24,4-3.28a3.12,3.12,0,0,1,3.44,3,7,7,0,0,1,0,.92q0,14,0,27.93c0,2.54-1.34,3.71-3.79,3.42-1.71-.21-2.64-1.4-2.66-3.55,0-3.81,0-7.61,0-11.42v-1.51Z"/><path class="cls-2" d="M106.52,536c0-4.68,0-9.36,0-14,0-3.45,1.42-4.89,4.86-4.92s6.89,0,10.33,0c3.65.05,6.93,1.08,8.62,4.58s1.85,7.34-.46,10.85c-.33.5-.35.72.13,1.08,4,3,3.89,11.13,1.16,14.73a9.18,9.18,0,0,1-7.34,3.64c-5.45.17-10.9.07-16.35.14-1.08,0-1-.61-1-1.29C106.53,545.84,106.52,540.9,106.52,536Zm11.42,9.8c1.6,0,2.88,0,4.17,0,2.86,0,4.34-1.49,4.37-4.23s-1.53-4.34-4.4-4.41c-1.8,0-3.6,0-5.4,0-3.56,0-3.57,0-3.55,3.57,0,1.64-.57,3.84.26,4.76S116.58,545.62,117.94,545.77Zm.11-22.2v0c-1.33,0-2.66,0-4,0-.58,0-1,0-1,.8,0,1.79,0,3.58,0,5.38,0,.57.16.83.78.82,2.71,0,5.43,0,8.14-.1,2.1-.1,3.11-1.36,3.07-3.45a3.23,3.23,0,0,0-3.22-3.41C120.62,523.51,119.33,523.57,118.05,523.57Z"/><path class="cls-2" d="M156.92,541.42c0,2.37,0,4.73,0,7.1a3.25,3.25,0,0,1-2,3.35,3.39,3.39,0,0,1-4.07-1.23c-.57-.76-.89-.15-1.25,0a11.55,11.55,0,0,1-6.87,1.21c-3.12-.49-5.45-2-6.49-5.18a8.94,8.94,0,0,1,1.75-9.21,12.09,12.09,0,0,1,7.27-3.71,15,15,0,0,1,3.83-.33c1.25.09,1.26-.44.81-1.35a2.79,2.79,0,0,0-3.19-1.6,9.9,9.9,0,0,0-4.64,1.94,14.18,14.18,0,0,1-1.52,1.05,3,3,0,0,1-3.71-.21,3.31,3.31,0,0,1-.59-4,5.36,5.36,0,0,1,.7-1c3.18-3.62,10.15-5.13,14.51-3.1,3.95,1.82,5.29,5.24,5.43,9.29C157,536.79,156.92,539.11,156.92,541.42Zm-8.48-1.72c-1.94.19-3.91.19-5.67,1.16a2.09,2.09,0,0,0-1.26,2.24,2.12,2.12,0,0,0,1.76,1.86,6.37,6.37,0,0,0,6.59-2.55c.46-.69,1-1.57.68-2.26S149.16,539.82,148.44,539.7Z"/><path class="cls-2" d="M191.43,531.87l5.13-4.77c.34-.32.67-.64,1-.94,1.82-1.53,3.6-1.58,4.93-.14s1.08,3.07-.62,4.74c-1.32,1.3-2.63,2.61-4,3.81-.88.73-.81,1.26-.19,2.15,2.08,3,4.05,6,6.07,9.09a8.64,8.64,0,0,1,1.15,2.34,2.69,2.69,0,0,1-1,3.27,3.15,3.15,0,0,1-3.86,0,6.68,6.68,0,0,1-1.6-1.87c-1.77-2.77-3.53-5.54-5.31-8.3-.26-.39-.42-1.18-1-1a1.62,1.62,0,0,0-1,1.7q.06,3.24,0,6.48c0,2.08-1.13,3.43-2.84,3.6-2.1.21-3.56-1.15-3.57-3.44,0-6.28,0-12.55,0-18.82,0-3.19,0-6.38,0-9.56,0-2.13,1.21-3.44,3.09-3.49a3.17,3.17,0,0,1,3.31,3.45c.06,3.6,0,7.2,0,10.79C191.14,531.21,191,531.54,191.43,531.87Z"/><path class="cls-2" d="M160.24,537.92c0-3.49,0-7,0-10.49a3.35,3.35,0,0,1,2-3.46c1.37-.58,2.73-.18,3.9,1.28.46.58.77.43,1.27.19a11.12,11.12,0,0,1,5.37-1.14,8.23,8.23,0,0,1,8.2,7.86c.53,5.58.23,11.19.24,16.79a3.08,3.08,0,0,1-3.34,3.09,3.13,3.13,0,0,1-3.06-3.37c0-4.26,0-8.53-.06-12.79,0-.47,0-.93,0-1.39-.2-3.15-2.16-4.3-4.95-2.85-2,1-3.34,2.32-3.13,5,.29,3.88.1,7.81.09,11.71,0,1.93-1,3.26-2.51,3.61a3.19,3.19,0,0,1-4-3.25c-.07-3.6,0-7.2,0-10.8Z"/><path class="cls-2" d="M91.68,540.51c1.27-3.67,2.55-7.34,3.81-11a7,7,0,0,1,1.35-2.57,3,3,0,0,1,3.39-.76,2.53,2.53,0,0,1,1.83,2.72,6.89,6.89,0,0,1-.24,2c-2.75,8.07-5.5,16.13-8.73,24-2.06,5-5.82,6.13-11,5.07a4,4,0,0,1-1.89-1,2.81,2.81,0,0,1,1.16-4.79,11.76,11.76,0,0,1,2.9-.3c2.92-.12,4.33-2.24,3.3-4.94q-3.21-8.41-6.42-16.84a12.82,12.82,0,0,1-.6-1.91c-.42-1.93.35-3.47,2-4a3.09,3.09,0,0,1,4.11,2c1,2.37,1.84,4.8,2.75,7.2q1,2.58,2,5.16Z"/><path class="cls-2" d="M270.18,771.54V754.86c0-.64,0-1.29.07-1.94.31-3.59,1.74-5.61,5.3-5.81,7.46-.41,15-1.25,22.37.79,8.19,2.27,12.3,8.82,11.72,17.22-.67,9.77-8.13,14.94-17.86,15.12-2.59,0-5.18.08-7.77,0-1.27-.06-1.54.38-1.5,1.55.07,2.59,0,5.18,0,7.77a9.69,9.69,0,0,1-.48,2.86c-1,3.16-2.63,4.22-6.25,4.1-2.7-.08-4.49-1.59-5.23-4.42a12.35,12.35,0,0,1-.36-3.21Q270.19,780.2,270.18,771.54Zm12.36-8c0,1.84,0,3.67,0,5.51,0,.57,0,1.08.81,1.07,2.69,0,5.41.19,8.07-.39,3.15-.68,4.84-2.87,4.84-6.15s-1.69-5.34-4.93-6c-2.62-.57-5.27-.22-7.91-.33-.76,0-.89.35-.88,1C282.55,759.93,282.54,761.71,282.54,763.49Z"/><path class="cls-2" d="M350.32,777.56c0,3.56,0,7.12,0,10.68a16,16,0,0,1-.39,3.85c-.51,2.14-1.65,3.83-3.91,4.27-2.44.48-4.88.26-6.38-2-.91-1.37-1.39-1.08-2.5-.26-5,3.66-10.48,3.69-15.79,1.26-13.16-6-15-24.7-3.42-33.46a17.45,17.45,0,0,1,14.82-3.18,10.46,10.46,0,0,1,5.08,2.67c.65.61.92.61,1.44-.14a5.78,5.78,0,0,1,5.16-2.5,5.31,5.31,0,0,1,5.54,4.62,18.31,18.31,0,0,1,.35,3.69C350.31,770.55,350.32,774.06,350.32,777.56Zm-12.29,0a15.39,15.39,0,0,0-.11-1.93c-.55-3.18-1.95-5.75-5.33-6.6a7.16,7.16,0,0,0-7.63,2.14,10.26,10.26,0,0,0-.78,11.63,7.26,7.26,0,0,0,12.72-.26A9.35,9.35,0,0,0,338,777.56Z"/><path class="cls-2" d="M173.28,780.74c-3.74,0-6.82.08-9.89,0-1.65-.07-1.5.63-1,1.69,1.48,3.44,4.45,4.45,7.83,4.71,2.85.22,5.5-.71,8.11-1.73,1.4-.55,2.79-1.12,4.22-1.58a4.74,4.74,0,0,1,5.34,1.59,5.08,5.08,0,0,1-.76,5.7c-3,3.45-7,4.67-11.24,5.41-6.47,1.14-12.67.54-18.22-3.32-10.31-7.18-10.08-21.15-2.77-29,8-8.61,25.48-8.75,32.81,4.17a13.21,13.21,0,0,1,1.7,7.45c-.16,2.56-2.32,4.43-5.27,4.75C180.28,781,176.45,780.63,173.28,780.74Zm-3.71-7.34c2.27,0,4.53,0,6.79,0,1,0,1.3-.16.94-1.25-1.11-3.43-3.76-5.12-8.18-5a7.77,7.77,0,0,0-7.1,5.36c-.19.74,0,.93.76.92C165.05,773.38,167.31,773.4,169.57,773.4Z"/><path class="cls-2" d="M245.41,797.08c-6.69,0-12.3-2.29-16.5-7.61-6.29-8-4.87-21.18,3.82-27.6,7.31-5.4,20.47-5.14,27.17,1.48a20.66,20.66,0,0,1,4.21,22.41c-2.68,6.59-10.05,11.29-17.73,11.32Zm-7.92-19.68a10.37,10.37,0,0,0,.29,2.89,8,8,0,0,0,6.12,6.34,7.46,7.46,0,0,0,7.95-3.36c2-3,2-8.22-.11-11.33a7.43,7.43,0,0,0-10.42-2.41C238.42,771.31,237.62,774.23,237.49,777.4Z"/><path class="cls-2" d="M370.91,779.94l6.56-15.49c.3-.7.58-1.4.92-2.07,1.81-3.61,4.8-4.67,8.48-3,1.75.79,2.67,2.84,2.43,5.19-.22,2.16-1.3,4-2.17,5.88q-8.55,18.45-17.18,36.88c-1.1,2.34-2.58,4.36-5.66,4.28-4-.11-6.48-3.37-5.21-7.21a58.9,58.9,0,0,1,4.43-9.15,4.6,4.6,0,0,0,.12-4.75c-3.75-7.69-7.35-15.46-11-23.21-1.07-2.31-1.21-4.63.62-6.64s4.21-2.38,6.81-1.56c1.92.6,2.73,2.2,3.42,3.84,2.23,5.25,4.39,10.53,6.57,15.8A2.05,2.05,0,0,0,370.91,779.94Z"/><path class="cls-2" d="M408.65,769.15c-3.66,0-6.87,0-10.09,0a14.21,14.21,0,0,1-4.31-.55,4.37,4.37,0,0,1-3.41-4.36c0-2.28,1-3.66,3.25-4.47a13.65,13.65,0,0,1,4.62-.62c7,0,13.93,0,20.89.05a16.46,16.46,0,0,1,3,.33c2.44.5,3.31,2.29,2.32,4.62a13.31,13.31,0,0,1-2.32,3.48l-14.83,17.28a6.67,6.67,0,0,0-.47.68,2,2,0,0,0,1.44.25c3.4,0,6.8,0,10.2,0a13,13,0,0,1,3.66.52,4.79,4.79,0,0,1,3.75,4.82,4.85,4.85,0,0,1-4,4.48,18.87,18.87,0,0,1-4.18.39l-22.14,0a5.46,5.46,0,0,1-.81,0c-1.77-.24-3.73-.3-4.55-2.22s.16-3.69,1.39-5.19c2-2.46,4.1-4.85,6.16-7.27C401.64,777.41,405,773.47,408.65,769.15Z"/><path class="cls-2" d="M211,797c-7.81-.1-13.91-2.68-17.74-9.27-4.91-8.44-3.42-21.74,7.31-27.12a23.66,23.66,0,0,1,20.74-.38,6.17,6.17,0,0,1,2.58,2.14,4.89,4.89,0,0,1,.21,5.31,5.1,5.1,0,0,1-5.53,2.12c-1.62-.37-3.18-1-4.81-1.31-3.21-.6-6.21-.26-8.56,2.4-2.89,3.27-3.25,11,1.14,14.11,2.86,2,6.08,1.86,9.29,1,1.5-.4,2.93-1.12,4.52-1.09a4.67,4.67,0,0,1,4.35,3.28,4.74,4.74,0,0,1-1.76,5.3,16.61,16.61,0,0,1-8.79,3.28C212.84,796.87,211.71,796.91,211,797Z"/><path class="cls-2" d="M231.54,759.91a40.75,40.75,0,0,0-13.71-8.43c-19-7.09-37.88-6.89-56.46,1.45-6.54,2.94-12.19,7.18-15.91,13.5-4,6.85-4,13.8-.1,20.73.3.53.85,1,.48,2a26.1,26.1,0,0,1-4.24-4.23c-2.87-3.64-4.84-7.65-4.87-12.39,0-5.29,2.17-9.72,5.58-13.59A40.88,40.88,0,0,1,159.5,747.8a78.38,78.38,0,0,1,53-.51,42.71,42.71,0,0,1,18.48,11.48C231.22,759.08,231.65,759.3,231.54,759.91Z"/><path class="cls-2" d="M84.78,671.76l-1.58-.28a18.07,18.07,0,0,1-5.79-2,16.09,16.09,0,0,1-3.9-3.06,19.6,19.6,0,0,1-2.77-3.82,22.08,22.08,0,0,1-2.24-7,13.3,13.3,0,0,1-.24-2.87,23.1,23.1,0,0,1,.58-4.74,19.08,19.08,0,0,1,1.8-5,16.35,16.35,0,0,1,2.55-3.53,19.83,19.83,0,0,1,3.39-2.94,16.83,16.83,0,0,1,6.22-2.48,17.81,17.81,0,0,1,4.12-.25,16.5,16.5,0,0,1,10.65,4.06,15.09,15.09,0,0,1,3.83,5.27,20.65,20.65,0,0,1,1.44,4.64,28.06,28.06,0,0,1,.44,5.56,7.82,7.82,0,0,1-.47,2.44,1.14,1.14,0,0,1-1.1.67H80.84c-.33,0-.63.1-1,.12s-.37.16-.26.46a7.09,7.09,0,0,0,3.95,4.25,8.63,8.63,0,0,0,3.41.66,7.28,7.28,0,0,0,4.22-1.47,1.19,1.19,0,0,1,1-.17c2.51.68,5,1.39,7.53,2.1.43.12.87.24,1.29.39a.53.53,0,0,1,.32.89,20.8,20.8,0,0,1-2.77,3.5,16.3,16.3,0,0,1-3.3,2.4,16.55,16.55,0,0,1-4.84,1.85,7.1,7.1,0,0,1-1.66.26.13.13,0,0,0-.14.09Zm1.12-24.14h5.2c.88,0,.93-.06.6-.84l0-.08A4.61,4.61,0,0,0,89,644.1a7.47,7.47,0,0,0-3.86-.58,6.71,6.71,0,0,0-2.3.62,6.51,6.51,0,0,0-2.72,2.68c-.12.21-.27.43-.16.64s.37.16.58.16Z"/><path class="cls-2" d="M29.92,654.86c.29-.47.76-.43,1.22-.4l.51,0H42.76c.62,0,.77.12.93.75a3.18,3.18,0,0,0,2.09,2.43,3.05,3.05,0,0,0,3.68-1.46,3.66,3.66,0,0,0,.45-1.79V621.56c0-.65.12-.77.78-.77,4.09,0,8.18,0,12.27,0,.58,0,.71.13.71.72v25.34c0,2.88,0,5.76,0,8.63a15.49,15.49,0,0,1-2.43,8.11,18.33,18.33,0,0,1-2.65,3.36,16.44,16.44,0,0,1-8.08,4.44c-.66.15-1.32.26-2,.38H45.08c-.26-.2-.58-.12-.87-.17a17.56,17.56,0,0,1-4.53-1.37,17.27,17.27,0,0,1-9.38-11.43c-.16-.62-.25-1.26-.38-1.88Z"/><path class="cls-2" d="M147.45,671.76l-1.54-.28A18,18,0,0,1,138,668a18.2,18.2,0,0,1-5.33-6.85,23.58,23.58,0,0,1-1.77-8.38,21.87,21.87,0,0,1,1.69-8.17,18.32,18.32,0,0,1,2.75-4.41,17.09,17.09,0,0,1,6.21-4.78,18.62,18.62,0,0,1,4.69-1.33,21.89,21.89,0,0,1,4.12-.26,18.43,18.43,0,0,1,5.82,1.16,16.67,16.67,0,0,1,4.74,2.71,19.11,19.11,0,0,1,3.44,3.63,17.77,17.77,0,0,1,2.91,6.32,21.12,21.12,0,0,1,.54,3.26c.05.53.07,1,.08,1.56a20.4,20.4,0,0,1-1.26,7.46,17.38,17.38,0,0,1-3,5.33,18.59,18.59,0,0,1-7.06,5.19,16.07,16.07,0,0,1-4.75,1.27s-.07.05-.1.08ZM149.16,644a8.41,8.41,0,0,0-1.14.07,6.83,6.83,0,0,0-5,3.73,10.65,10.65,0,0,0-1.14,5.47,11.64,11.64,0,0,0,1,4.24,6.53,6.53,0,0,0,3.64,3.42,8.13,8.13,0,0,0,4.41.58,6.19,6.19,0,0,0,4.22-2.77A10.3,10.3,0,0,0,157,652.1a14,14,0,0,0-.59-3,6.72,6.72,0,0,0-2.32-3.52A7.22,7.22,0,0,0,149.16,644Z"/><path class="cls-2" d="M172.27,652.76V635.68c0-.77.19-1,1-1H182c.71,0,.94.22,1,.91,0,.08,0,.16,0,.23.06.48.15.53.54.25a12.44,12.44,0,0,1,5-2,16,16,0,0,1,4.37-.17,11.8,11.8,0,0,1,7.93,3.93,14.91,14.91,0,0,1,2.76,4.91,13.74,13.74,0,0,1,.75,4.46c0,7.61,0,15.23,0,22.84,0,.7-.08.78-.79.78H194.4c-.7,0-.93-.23-.93-.93,0-7,0-13.92,0-20.89a5.58,5.58,0,0,0-1.52-3.88,3.63,3.63,0,0,0-2.38-1.1,6.31,6.31,0,0,0-4,.78,4.71,4.71,0,0,0-2,3.06,13.54,13.54,0,0,0-.39,3.3c0,6.11,0,12.22,0,18.33a5.87,5.87,0,0,1-.13,1c0,.29-.31.39-.64.39-2.27,0-4.55,0-6.83,0h-2.32c-.74,0-1-.22-1-.94Z"/><path class="cls-2" d="M109.88,652.87c0-2.35,0-4.71,0-7.06,0-1-.11-.87-1-1a15.42,15.42,0,0,0-2,0c-.93,0-.93-.22-1.07-1.05a9.78,9.78,0,0,1,.1-1.42q0-2.6,0-5.19a8.64,8.64,0,0,1-.1-1.24,3.17,3.17,0,0,1,.12-.76.68.68,0,0,1,.66-.47c.8,0,1.61,0,2.41,0s.9-.25.9-.92v-8c0-.89.19-1.08,1.07-1.08h8.46c1.26,0,1.28.26,1.34,1.37.11,1.7-.1,3.39-.08,5.09,0,.91,0,1.82,0,2.74,0,.67.16.83.84.83h5c.69,0,.93.23.93.94v8.21c0,.74-.22,1-.94,1h-4.93c-.79,0-.92.13-.92.93,0,4.13,0,8.26,0,12.39a7.64,7.64,0,0,0,.17,1.58c.21,1,.49,1,1.39,1.23a7.38,7.38,0,0,0,3.67-.22,3.24,3.24,0,0,1,1.08-.14c.3,0,.47.13.47.44,0,2.82,0,5.63,0,8.45a.66.66,0,0,1-.44.63,13.84,13.84,0,0,1-2.94.89,14.17,14.17,0,0,1-3.44.17,11.46,11.46,0,0,1-7.06-2.49,9.65,9.65,0,0,1-3.33-5.7,24.37,24.37,0,0,1-.36-4.43C109.89,656.67,109.88,654.77,109.88,652.87Z"/><path class="cls-2" d="M471.06,42.65c4.59-1.77,8.95-3.46,13.32-5.13q11.08-4.26,22.18-8.51a2.56,2.56,0,0,1,2,0,63.68,63.68,0,0,1,14.72,8.56,20.12,20.12,0,0,1,6.25,7.5c1,2.33.93,2.45-1.56,2.45q-24.57,0-49.13,0a3.69,3.69,0,0,1-2.52-.87C474.69,45.32,473,44.08,471.06,42.65Z"/><path class="cls-2" d="M494.73,24.25q-7.25,3.75-14.47,7.5-6.88,3.6-13.74,7.23a1.16,1.16,0,0,1-1.31,0,69.79,69.79,0,0,0-21-8.33c-.3-.06-.59-.17-.89-.24-.74-.17-1-.45-.58-1.26,1.79-3.47,3.53-7,5.25-10.47a1.34,1.34,0,0,1,1.42-.89c5.08.19,10.15.35,15.23.68,8.86.6,17.48,2.5,26.11,4.35,1.35.29,2.67.73,4,1.1Z"/><path class="cls-2" d="M489.53,85.73c-3.78,0-7.56,0-11.34,0-.76,0-1.18-.14-1-1,.48-2.53.83-5.09,1.42-7.6a9,9,0,0,1,6.4-6.71c4-1.33,8.11-2.2,12.14-3.4,1.92-.57,3.14-1.62,3.3-3.72.09-1.13.35-2.24.45-3.37.12-1.53-.25-2.13-1.72-2.28a34.56,34.56,0,0,0-10,0,2.9,2.9,0,0,0-2.4,2.15,15.61,15.61,0,0,0-.77,3.31c-.07.94-.44,1.54-1.56,1.35a10.27,10.27,0,0,0-1.84,0c-2.09,0-2.1,0-1.75-2,.12-.69.29-1.37.46-2,1.23-5,3.17-6.86,8.29-7.56a35,35,0,0,1,11.5,0A6.53,6.53,0,0,1,505,55.16a3.37,3.37,0,0,1,.91,1.87,23.1,23.1,0,0,1-1.23,9.57,8,8,0,0,1-5.49,4.87c-3.68,1.11-7.41,2.1-11.11,3.15-.55.16-1.09.32-1.63.51a4.82,4.82,0,0,0-3.24,5.23c.07.56.41.6.82.59,4.92-.12,9.84.23,14.75-.19,1-.08,1.93,0,2.9,0,.74,0,.91.35.81,1-.19,1.16-.37,2.33-.57,3.49-.12.73-.72.51-1.15.51C497,85.74,493.27,85.73,489.53,85.73Z"/><path class="cls-2" d="M437.9,69.88q-1.86,4.17-3.71,8.35c-1,2.24-2,4.48-2.93,6.74a1.24,1.24,0,0,1-1.37.92,23,23,0,0,0-3.42,0c-1.12.11-1.42-.37-1.5-1.38-.3-3.31-.66-6.62-1-9.94-.38-3.79-.74-7.59-1.16-11.37-.1-.9.09-1.34,1.07-1.16a3,3,0,0,0,.52,0c3.1,0,3.1,0,3.39,3.1q.57,6,1.16,12c0,.34.12.68.25,1.39,1.12-2.6,2.11-4.91,3.11-7.21,1.22-2.81,2.47-5.6,3.63-8.43a1.28,1.28,0,0,1,1.46-.94c1.23,0,2.46.06,3.69,0,.88-.05,1.18.2,1.26,1.14.43,4.84,1,9.67,1.46,14.51,0,.2.07.4.18,1,1.22-2.83,2.3-5.34,3.37-7.85s2.29-5.29,3.4-8c.23-.55.49-.85,1.14-.82,1.32,0,2.63,0,4.15,0-1.15,2.67-2.25,5.22-3.36,7.76-2.2,5-4.44,10.09-6.61,15.15a1.3,1.3,0,0,1-1.46,1,32.45,32.45,0,0,0-3.69,0c-.95.07-1.16-.35-1.23-1.2-.42-4.62-.89-9.24-1.35-13.87,0-.29-.12-.58-.18-.88Z"/><path class="cls-2" d="M318.05,73.6c-1.75,0-3.51,0-5.26,0-.79,0-1.07.23-1.19,1-.52,3.37-1.12,6.74-1.61,10.11-.14.93-.46,1.3-1.42,1.22a23.41,23.41,0,0,0-3,0c-.75,0-.9-.25-.78-.93q1.5-8.86,3-17.75,1.13-6.73,2.23-13.46c.09-.57.13-1,.9-1,5.48.15,11-.26,16.45.27a10.39,10.39,0,0,1,2.79.7,4.73,4.73,0,0,1,3.09,5.1,50.07,50.07,0,0,1-1.46,8.94c-1,3.58-3.92,5.62-8.28,5.8C321.65,73.66,319.85,73.6,318.05,73.6Zm1.78-15.81c-1.49,0-3,0-4.47,0-.62,0-1,.13-1.07.79-.51,3.19-1.05,6.37-1.59,9.56-.06.4,0,.69.48.67,3.76-.13,7.54.35,11.29-.26a2.41,2.41,0,0,0,2.18-1.82c.46-2.18.89-4.37,1.18-6.57.19-1.45-.33-1.9-1.84-2.12C323.94,57.73,321.88,57.89,319.83,57.79Z"/><path class="cls-2" d="M512.81,78.57c-2.42,0-4.83,0-7.25,0-.83,0-1.14-.23-.85-1.08a4.35,4.35,0,0,0,.18-1.3c.06-2.27,1.39-3.82,2.85-5.37,4.94-5.22,9.89-10.43,14.68-15.79a6.12,6.12,0,0,1,5.47-2.26c2.83.18,2.81,0,2.32,2.84-1,5.68-1.92,11.37-2.9,17.05-.12.73.1,1,.8.93,1,0,2,0,3,0,.61,0,.93.11.71.83a15.82,15.82,0,0,0-.31,1.67c-.48,2.48-.49,2.48-3.06,2.48-2,0-2,0-2.36,1.92-.26,1.41-.53,2.83-.71,4.26-.11.84-.41,1.27-1.33,1.21a21.59,21.59,0,0,0-2.9,0c-.9.06-1.19-.28-1-1.15.32-1.71.57-3.45.93-5.15.18-.85-.05-1.11-.89-1.1C517.73,78.59,515.27,78.57,512.81,78.57Zm11.54-18.44-.26-.15L511.35,73.59h10c.41,0,.75,0,.84-.58C522.92,68.72,523.64,64.42,524.35,60.13Z"/><path class="cls-2" d="M412.72,75.5c-2.37,0-4.75,0-7.12,0-.7,0-1.07.18-1.11.91,0,.52-.12,1-.15,1.56-.21,3,.33,3.56,3.35,3.56,1.36,0,2.72-.09,4.08-.13a3.32,3.32,0,0,0,3.33-2.81c.2-.79.51-1,1.23-.94a23.56,23.56,0,0,0,3,0c.94-.06,1,.34.85,1.09a8.68,8.68,0,0,1-7.09,7.07A21.71,21.71,0,0,1,404,85.7c-3.16-.75-4.56-2.53-4.67-5.78a22.51,22.51,0,0,1,.44-4.71c.36-2.07.63-4.16,1.17-6.19,1.18-4.43,3.6-6.67,8.16-7.17a27,27,0,0,1,7.35.12c3.55.59,5.38,2.75,5.35,6.36a49.36,49.36,0,0,1-.92,6.5c-.09.66-.49.69-1,.68C417.46,75.49,415.09,75.5,412.72,75.5Zm-1.62-4.59c1.53,0,3.06,0,4.6,0,.33,0,.65.08.85-.38a2.77,2.77,0,0,0-2.25-4,26.57,26.57,0,0,0-4.72,0c-2.41.17-3.42,1.14-3.84,3.52-.13.71,0,.93.76.91C408,70.88,409.56,70.91,411.1,70.91Z"/><path class="cls-2" d="M382.47,75.49c-2.37,0-4.74,0-7.11,0-.72,0-1.05.21-1.09.94s-.18,1.65-.2,2.48c0,1.71.56,2.4,2.28,2.55a31.86,31.86,0,0,0,5.26,0,3.39,3.39,0,0,0,3.26-2.75,1.15,1.15,0,0,1,1.45-1,18.42,18.42,0,0,0,2.23,0c1.73,0,1.75,0,1.25,1.71-1.06,3.6-3.34,5.87-7.13,6.48a22.5,22.5,0,0,1-8.88-.15c-3-.71-4.7-2.44-4.66-5.52a39.28,39.28,0,0,1,2.39-13.38,6.77,6.77,0,0,1,4.54-4.25,20,20,0,0,1,11.9,0c2.39.75,3.37,2.65,3.54,5s-.53,4.86-.84,7.29c-.09.73-.61.62-1.08.62h-7.11Zm-1.72-4.58c1.53,0,3.07,0,4.6,0,.33,0,.72.1,1-.23.81-1.09-.11-3.66-1.43-4a17.85,17.85,0,0,0-5.21-.2c-2.63.14-3.68,1.07-4.2,3.61-.14.68,0,.84.68.83C377.69,70.89,379.22,70.91,380.75,70.91Z"/><path class="cls-2" d="M435.1,29c-2.17-.13-4.7-.34-7.24-.41-7.05-.21-13.94,1-20.8,2.46-2.08.45-2.1.47-2.51-1.59-.28-1.42-.44-2.86-.77-4.26-.17-.73.12-.92.72-1.07,6.83-1.66,13.67-3.36,20.64-4.4q6.8-1,13.69-1.45c.95-.05,1.27.11.91,1.15q-1.51,4.34-2.86,8.73C436.63,28.94,436.24,29.23,435.1,29Z"/><path class="cls-2" d="M464.86,79.35c.5-.9.84-1.49,1.15-2.1,2.42-4.76,4.86-9.51,7.26-14.28a1.38,1.38,0,0,1,1.49-.95c1.26.08,2.54,0,3.9,0A23,23,0,0,1,476.75,66Q471,77.17,465.15,88.35a20.13,20.13,0,0,1-2.2,3.42,7.22,7.22,0,0,1-7.29,2.6c-.74-.12-1.1-.43-.8-1.22a5.41,5.41,0,0,0,.16-.91,6.55,6.55,0,0,1,.44-2.17c.44-.74,1.33-.1,2-.2a4.64,4.64,0,0,0,3.62-5.07c-1.4-7.17-2.76-14.35-4.18-21.51-.22-1.07.06-1.44,1.12-1.3a13.9,13.9,0,0,0,1.58,0c2.14.05,2.11.05,2.49,2.21C463,69.16,463.9,74.06,464.86,79.35Z"/><path class="cls-2" d="M363.44,66.71c-3.76,0-7.18-.06-10.59,0-1.23,0-1.35-.41-1.18-1.43.54-3.28.52-3.27,3.84-3.28,4.79,0,9.57,0,14.36-.06,1,0,1.15.23,1,1.16a7.24,7.24,0,0,1-2.41,5c-4.51,4-8.81,8.29-13.19,12.46-.15.14-.28.3-.59.65h10.44c2.68,0,2.68,0,2.26,2.67-.31,2-.31,2-2.3,2-5.36,0-10.72,0-16.08,0-1,0-1.32-.1-1.23-1.33.18-2.67,1.53-4.44,3.41-6.16C355.3,74.68,359.21,70.78,363.44,66.71Z"/><path class="cls-2" d="M399.29,32c.16,1-.26,1.19-.75,1.36-4.24,1.53-8.48,3.06-12.6,4.9a74.54,74.54,0,0,0-8.29,4.27,1.84,1.84,0,0,1-2.36,0c-1.73-1.26-3.53-2.44-5.34-3.59-.75-.48-.72-.76,0-1.13,2.39-1.2,4.74-2.48,7.17-3.6,6.44-3,13.08-5.44,19.77-7.79.54-.19,1.07-.4,1.25.36C398.59,28.61,399,30.49,399.29,32Z"/><path class="cls-2" d="M342.93,55.65a91.26,91.26,0,0,1,11.17-8.42c2.56-1.62,5.15-3.17,7.68-4.81a1.48,1.48,0,0,1,1.68-.07c2.28,1.11,4.6,2.15,6.9,3.23.29.14.74.2.73.64s-.4.42-.65.58a118.87,118.87,0,0,0-11.31,8.12,2.43,2.43,0,0,1-1.5.73Z"/><path class="cls-2" d="M338.13,62h2c.36,0,.78,0,.64.54-.27,1.08.26.87.87.56A13.34,13.34,0,0,1,348.15,62c.64,0,.75.24.6.77,0,.09,0,.18,0,.27-.21,1.11-.12,2.47-.74,3.27s-2.13.27-3.23.38a6.14,6.14,0,0,0-5.49,4.92c-.78,3.22-1.26,6.52-1.86,9.79-.21,1.16-.41,2.33-.59,3.5a.84.84,0,0,1-1,.84,30,30,0,0,0-3.42,0c-.91.06-1-.26-.83-1q2-10.79,3.82-21.59c.14-.78.41-1.26,1.33-1.1A8.77,8.77,0,0,0,338.13,62Z"/><path class="cls-2" d="M398.92,52.79c2.46,0,2.46,0,2.05,2.48-1.6,9.74-3.22,19.48-4.8,29.23-.16,1-.48,1.58-1.64,1.38s-2.73.54-3.34-.32c-.48-.67.16-2.15.34-3.26q2.31-13.85,4.64-27.67C396.47,52.79,396.46,52.79,398.92,52.79Z"/><path class="cls-2" d="M406.29,626c2.31,0,4.63-.12,6.94,0,5.21.3,9.25,2.58,11.58,7.39a11.94,11.94,0,0,1,.2,9.74,15.33,15.33,0,0,1-12.45,10.19,19.49,19.49,0,0,1-3.24.15h-5.25c-.91,0-1.26.31-1.4,1.2q-.85,5.48-1.72,10.94a1.08,1.08,0,0,1-1.2,1H392.8a1,1,0,0,1-1.11-1.28q1.21-7.71,2.44-15.42,1.08-6.81,2.14-13.64c.49-3.1,1-6.2,1.48-9.3a1.06,1.06,0,0,1,1.19-1h7.35Zm1.17,18.88a19.6,19.6,0,0,0,4.71-.32,5.6,5.6,0,0,0,4.28-6.17,4.16,4.16,0,0,0-4-3.69c-2.12-.24-4.26-.06-6.38-.11-.33,0-.29.23-.31.4-.51,3.16-1,6.33-1.51,9.49,0,.3,0,.41.33.41C405.56,644.82,406.51,644.84,407.46,644.84Z"/><path class="cls-2" d="M505.12,626c2.3,0,4.6-.1,6.89,0,5.25.28,9.33,2.56,11.66,7.41a12.09,12.09,0,0,1,0,10.17,15.56,15.56,0,0,1-14.85,9.89h-6c-.89,0-1.22.3-1.36,1.18l-1.71,10.88a1.13,1.13,0,0,1-1.3,1.09h-6.8c-.91,0-1.31-.45-1.17-1.36.4-2.61.82-5.22,1.24-7.83l1.95-12.36,2-12.95c.25-1.62.52-3.25.76-4.87.16-1,.45-1.29,1.47-1.29h7.1Zm1.18,18.89a20.2,20.2,0,0,0,4.72-.31,5.62,5.62,0,0,0,4.22-6.62,4.22,4.22,0,0,0-3.95-3.26c-2.09-.22-4.2,0-6.29-.1-.29,0-.32.15-.35.36-.15,1-.31,1.94-.46,2.91-.34,2.18-.68,4.36-1,6.55-.06.34,0,.49.4.48C504.47,644.81,505.38,644.84,506.3,644.84Z"/><path class="cls-2" d="M547.79,640.39c.09-.54.15-1,.25-1.43a1,1,0,0,1,1-.83c2.32,0,4.63,0,7,0a1,1,0,0,1,.95,1.19c-.44,2.79-.89,5.58-1.33,8.37q-1,6.17-1.94,12.31c-.3,1.88-.59,3.75-.89,5.62a1.07,1.07,0,0,1-1.17,1h-6.65a1,1,0,0,1-1.08-1.23c0-.24.15-.47,0-.76a17.26,17.26,0,0,1-3.54,1.84c-5.3,2-12.14.08-15.26-5a14,14,0,0,1-1.93-8.37,17.07,17.07,0,0,1,4.68-11,15.75,15.75,0,0,1,9.48-4.79,12.56,12.56,0,0,1,9.18,2c.22.15.43.32.63.48Zm-8.25,5.14a7.69,7.69,0,0,0-7.35,5.14,6.22,6.22,0,0,0,2.24,7.56,6.93,6.93,0,0,0,6.74.47,7.37,7.37,0,0,0,4.74-6.65C546.19,648.38,543.37,645.56,539.54,645.53Z"/><path class="cls-2" d="M445.05,664.67a1.32,1.32,0,0,0-.57.31,13.32,13.32,0,0,1-15.19-.26,11.55,11.55,0,0,1-4.83-8.34,17,17,0,0,1,5.27-15,15.56,15.56,0,0,1,8.92-4.09,12.37,12.37,0,0,1,9,2c.44.29.84.64,1.3,1,.08-.45.15-.86.22-1.28a1,1,0,0,1,1.12-1c2.23,0,4.47,0,6.7,0a1,1,0,0,1,1.07,1.27c-.3,2-.63,3.94-.94,5.91l-2,12.36c-.41,2.61-.81,5.22-1.23,7.82-.14.85-.49,1.13-1.36,1.13h-6.3c-1,0-1.38-.42-1.22-1.43l0-.35A.89.89,0,0,0,445.05,664.67Zm-4.37-19.14a7.69,7.69,0,0,0-7.17,4.69,6.39,6.39,0,0,0,1.18,7.3,6.7,6.7,0,0,0,6.74,1.49,7.66,7.66,0,0,0,5.62-8A6.14,6.14,0,0,0,440.68,645.53Z"/><path class="cls-2" d="M474,652.63a1.39,1.39,0,0,0,.38-.52q3.87-6.51,7.72-13a1.75,1.75,0,0,1,1.69-1c2.47,0,4.93,0,7.4,0,.4,0,.78,0,1,.41a1,1,0,0,1-.17,1.07q-10.35,17.08-20.67,34.17a1.75,1.75,0,0,1-1.67.94c-2.46,0-4.93,0-7.4,0-.39,0-.77,0-1-.41s-.05-.72.16-1.06c2.14-3.44,4.27-6.9,6.42-10.34a1,1,0,0,0,.1-.87q-3.65-11.24-7.26-22.46a1.49,1.49,0,0,1-.14-.78c.07-.43.37-.66,1-.66h7.09a1.11,1.11,0,0,1,1.27.94l3.29,10.82C473.42,650.77,473.69,651.68,474,652.63Z"/><path class="cls-2" d="M562.14,666.6h-3.35c-.95,0-1.33-.47-1.19-1.39q1.23-7.77,2.45-15.55,1.28-8.07,2.56-16.15c.35-2.16.68-4.33,1-6.5a1.08,1.08,0,0,1,1.24-1.07h6.89c.88,0,1.26.49,1.13,1.35q-1.14,7.2-2.27,14.38-1.27,8.07-2.56,16.14-.62,3.87-1.22,7.73a1.1,1.1,0,0,1-1.21,1.06Z"/><path class="cls-2" d="M339.74,671c.29-1.81.57-3.63.86-5.44s.57-3.49.84-5.24.58-3.69.86-5.54c.14-.88.25-1.77.43-2.65a2,2,0,0,1,2.06-1.49c3.18,0,6.36,0,9.54,0a18.37,18.37,0,0,0,9.73-2.81,19.07,19.07,0,0,0,8.81-12.57,17.67,17.67,0,0,0,.35-2.9,14.9,14.9,0,0,1,7.51,17.81c-2.35,7.68-7.55,12.27-15.44,13.81a18.13,18.13,0,0,1-3.68.25c-1.72,0-3.43,0-5.15,0a2,2,0,0,0-2.17,1.87q-1.31,8.29-2.62,16.59a1.87,1.87,0,0,1-2.13,1.81c-3.35,0-6.7,0-10.05,0a1.6,1.6,0,0,1-1.57-1.84c.39-2.4.77-4.79,1.15-7.19C339.3,674,339.51,672.52,339.74,671Z"/><path class="cls-2" d="M357.66,616.07c.75.13,1.52.24,2.27.41,5.49,1.26,9.52,4.31,11.68,9.61a14.38,14.38,0,0,1,1,5.55,16.66,16.66,0,0,1-.36,2.91,19,19,0,0,1-8.8,12.56,18.28,18.28,0,0,1-9.73,2.81c-3.18,0-6.36,0-9.54,0a2,2,0,0,0-2.06,1.49c-.18.87-.29,1.76-.43,2.64q-.42,2.78-.86,5.54c-.27,1.75-.56,3.5-.84,5.25s-.57,3.62-.86,5.43H327.32a1.75,1.75,0,0,1-1.66-1.19v-.8a.71.71,0,0,0,.08-.18l1.92-12.25,1.95-12.31q1-6.49,2.05-13c.65-4.11,1.33-8.23,1.94-12.35a2.45,2.45,0,0,1,1.56-2.15Z"/><path class="cls-2" d="M428.6,134.26h94.82A17.16,17.16,0,0,1,534.53,138a16.87,16.87,0,0,1,6.62,13.73q0,30.87,0,61.74a17.44,17.44,0,0,1-12.86,16.89,18.29,18.29,0,0,1-4.83.62H354.35c-6.92,0-13.84.06-20.75,0a17.08,17.08,0,0,1-15.37-8.9,16.53,16.53,0,0,1-2.22-8.56q0-30.88,0-61.78a17.34,17.34,0,0,1,13.06-16.92,18.49,18.49,0,0,1,4.75-.56Zm5.15,7.07H334.28a11.1,11.1,0,0,0-1.73.12,10.8,10.8,0,0,0-9.38,10.89q0,30.27,0,60.55a11.47,11.47,0,0,0,.38,3,10.83,10.83,0,0,0,10.75,8h98.94l.5,0Zm7.15,29.09v34.11l.47,0c2.47,0,4.94,0,7.4,0,.44,0,.53-.13.53-.54q0-6,0-12.11v-.5a8.64,8.64,0,0,0,7.61,3.88,9.83,9.83,0,0,0,9.2-5A15.31,15.31,0,0,0,467.26,177a10.71,10.71,0,0,0-4.64-5.86,10.09,10.09,0,0,0-7.73-1,8.76,8.76,0,0,0-6.1,4.46s-.06.05-.17.12v-4.33Zm72.19,15.82-.1,0c0-.12-.09-.25-.13-.38q-2.48-7.47-4.92-15a.6.6,0,0,0-.7-.5c-2.67,0-5.34,0-8,0h-.54c.09.23.14.4.21.57q4.74,12,9.47,23.92a1.1,1.1,0,0,1,.06.69,4.09,4.09,0,0,1-4.12,3c-1.11,0-2.2-.21-3.36-.34-.17,2-.36,4.12-.54,6.26a23.08,23.08,0,0,0,5.89.56,9.22,9.22,0,0,0,8-4.82,31.62,31.62,0,0,0,2-4.1q5-12.66,10-25.34c0-.13.1-.26.16-.44H526c-2.45,0-4.9,0-7.36,0a.6.6,0,0,0-.69.51q-1.92,6.17-3.86,12.32Zm-38.08-9c.08,0,.12,0,.14,0a15.89,15.89,0,0,1,7.44-1.73,8.26,8.26,0,0,1,3.58.59,3.54,3.54,0,0,1,2.1,3.55c-.74-.08-1.47-.18-2.21-.22a22.55,22.55,0,0,0-8.49.87c-3.26,1.09-5.43,3.11-5.73,6.74a7,7,0,0,0,4.1,7.26,11.57,11.57,0,0,0,7,.86,8.07,8.07,0,0,0,5.4-3.74l.36-.5.22,3.83h7.69c-.07-.53-.18-1-.2-1.52-.09-1.61-.2-3.22-.22-4.83-.05-3.18,0-6.37-.09-9.55a8.42,8.42,0,0,0-3.65-6.89,11.38,11.38,0,0,0-4.64-1.81,23,23,0,0,0-5.74-.18,23.25,23.25,0,0,0-6.88,1.52.58.58,0,0,0-.31.4C474.91,173.63,475,175.41,475,177.22Z"/><path class="cls-2" d="M354.37,170.44h7.56c0,.13,0,.25,0,.36,0,7.24,0,14.47,0,21.71a15.82,15.82,0,0,1-1.25,6.5,9.37,9.37,0,0,1-6.45,5.28,25.9,25.9,0,0,1-7.69.78,27.28,27.28,0,0,1-8.21-1.42l-.32-.12.42-6.53c.89.37,1.71.76,2.57,1.05a15.35,15.35,0,0,0,8.41.58,5.64,5.64,0,0,0,4.59-5.1c.11-1,.11-1.93.16-2.9l-.13,0-.31.36a9.31,9.31,0,0,1-7.43,3.76,10.37,10.37,0,0,1-7.34-2.38,10.78,10.78,0,0,1-3.53-6.19,16.71,16.71,0,0,1,.95-10.51,9.44,9.44,0,0,1,8.3-5.69,9.06,9.06,0,0,1,7,1.95,25.1,25.1,0,0,1,2.3,2.52c.1.12.17.26.26.39l.11,0Zm-6.06,5.84a4.06,4.06,0,0,0-3.75,2.37,7.93,7.93,0,0,0-.35,6.55,4.67,4.67,0,0,0,2.17,2.56,4.88,4.88,0,0,0,6.29-1.66,7.14,7.14,0,0,0,1.18-4.56A5.31,5.31,0,0,0,348.31,176.28Z"/><path class="cls-2" d="M414.07,195.27a15.62,15.62,0,0,1-8.89-2.45A11.4,11.4,0,0,1,400,184a13,13,0,0,1,1.33-7.44,11.77,11.77,0,0,1,7.4-5.9,17.34,17.34,0,0,1,12.61.75,11.31,11.31,0,0,1,6.74,9.33,12.85,12.85,0,0,1-1.6,8.45,12.3,12.3,0,0,1-7.73,5.5A17.65,17.65,0,0,1,414.07,195.27Zm5.64-12.37a30.33,30.33,0,0,0-.61-3.39,5.21,5.21,0,0,0-10-.17,9.85,9.85,0,0,0,.12,6.79,5.21,5.21,0,0,0,9.69,0A30.44,30.44,0,0,0,419.71,182.9Z"/><path class="cls-2" d="M381.87,170.42h6.93c.65,0,.65,0,.65.68v3.73l.12,0,.23-.43a8.1,8.1,0,0,1,3.83-4,8.94,8.94,0,0,1,4.8-.5c.36,0,.72.1,1.15.17-.13,2.3-.27,4.58-.41,6.88-.68-.06-1.34-.14-2-.17a7.69,7.69,0,0,0-3,.32,5.64,5.64,0,0,0-3.66,4.44,15.57,15.57,0,0,0-.31,3.12c0,3.12,0,6.25,0,9.37v.57h-8.34Z"/><path class="cls-2" d="M367.83,194.67V170.45h8.31v24.22Z"/><path class="cls-2" d="M376.15,160.35v6.05h-8.31c0-.13,0-.28,0-.42v-5.21c0-.25,0-.47.36-.47,2.59,0,5.18,0,7.77,0Z"/><path class="cls-2" d="M459.49,182.43a8.56,8.56,0,0,1-.65,3.39,4.57,4.57,0,0,1-4,3,4.62,4.62,0,0,1-4.4-2.19,7.72,7.72,0,0,1,0-8.17,4.62,4.62,0,0,1,4.69-2.1,4.54,4.54,0,0,1,3.85,3.22,22.19,22.19,0,0,1,.65,2.82Z"/><path class="cls-2" d="M485.78,183.84l2.2.09c.22,0,.34,0,.33.31a5.55,5.55,0,0,1-4.41,5.38,4.63,4.63,0,0,1-2.55-.27,2.38,2.38,0,0,1-1.64-2.11,2.58,2.58,0,0,1,1.18-2.51,6.25,6.25,0,0,1,3.26-.89C484.74,183.81,485.34,183.84,485.78,183.84Z"/><path class="cls-2" d="M308.73,321.32l56.57,0c1.89,0,1.67-.25,1.67,1.66,0,5.37,0,10.75,0,16.12,0,1-.29,1.31-1.31,1.3-5.14-.05-10.28,0-15.42-.05-1.25,0-1.5.38-1.49,1.53.05,7.2,0,14.4.05,21.59,0,1.07-.25,1.39-1.35,1.38-5.75-.06-11.5-.05-17.25,0-.92,0-1.17-.25-1.15-1.16.08-2.34-.59-4.93.24-6.94s3.08-3.44,4.73-5.09q5.25-5.25,10.53-10.48c.45-.45.85-.74.16-1.41q-7.61-7.5-15.16-15.07a4,4,0,0,0-.47-.29v4.86c0,3.38,0,6.77,0,10.15,0,.57,0,1-.79,1-6.53-.05-13.06-.06-19.59-.09Z"/><path class="cls-2" d="M547.67,376.23c1.08-3.38,2.12-6.77,3.26-10.13.34-1,.11-1.25-.93-1.24s-2.61.52-3.4-.24-.73-2.06-1-3.14q-3.69-13.39-7.4-26.78c-.3-1.08-.3-1.52,1-1.45,2.22.12,4.44.1,6.66,0,1,0,1.31.37,1.54,1.23,2,7.62,4,15.22,6.08,22.86.54-.34.5-.92.63-1.38,2.15-7.17,4.29-14.34,6.37-21.53a1.36,1.36,0,0,1,1.61-1.17c2.61.07,5.22,0,8,0-.76,2.47-1.47,4.84-2.2,7.21L557.31,375a2.26,2.26,0,0,0-.23,1.25Z"/><path class="cls-2" d="M459.58,361.06c-3.63,4.58-8.14,5.41-13.18,3.9-4.21-1.26-7.08-5.27-7.18-10.17-.15-6.89-.06-13.78-.08-20.68,0-.59.12-.85.78-.84,2.36,0,4.71.05,7.06,0,.9,0,.83.47.83,1.06q0,8.32,0,16.65a10.27,10.27,0,0,0,.18,2.2c.66,3.12,2.58,4.7,5.66,4.6a5.55,5.55,0,0,0,5.39-5.06,40.52,40.52,0,0,0,.12-4.41q0-7,0-13.92c0-.8.15-1.15,1.07-1.12,2.26.07,4.53,0,6.79,0,.69,0,.89.21.89.89q0,14.89,0,29.79c0,.72-.21,1-.95,1-2.14,0-4.27,0-6.41,0-.72,0-1-.21-1-1S459.58,362.24,459.58,361.06Z"/><path class="cls-2" d="M405,347.21c0,5.46,0,10.92,0,16.39,0,1-.3,1.31-1.31,1.27-2.13-.07-4.27-.1-6.4,0-1.28.07-1.47-.42-1.46-1.54,0-10.75,0-21.5,0-32.25,0-1.1-.2-1.49-1.4-1.46-3.4.1-6.8,0-10.19.06-.85,0-1.12-.22-1.09-1.08.06-2.12.05-4.25,0-6.37,0-.76.24-.94,1-.93q16.26,0,32.53,0c.77,0,1.06.16,1,1q-.09,3.19,0,6.37c0,.83-.25,1-1,1-3.48,0-7,0-10.45,0-1.07,0-1.28.32-1.28,1.32C405,336.37,405,341.79,405,347.21Z"/><path class="cls-2" d="M485.09,332.71c4.15,0,7.92,1,10.79,4.25a8.71,8.71,0,0,1,.64.83c.71,1,1.56,2.21,1.31,3.3-.28,1.24-1.93.79-3,1.12s-2.38.52-3.55.83c-.6.16-.95.17-1.17-.54-1.09-3.58-6.21-3.73-8.29-2.38a2.12,2.12,0,0,0-1.13,2.17,2.16,2.16,0,0,0,1.76,1.87c2.27.6,4.57,1.09,6.85,1.64a28.68,28.68,0,0,1,3.26.91c7.2,2.6,7.49,11.57,2.52,15.69-3.37,2.79-7.37,3.32-11.55,3a14.33,14.33,0,0,1-8.33-3,10.26,10.26,0,0,1-3.53-5.48c-.19-.73,0-1,.7-1.15,2-.43,4-.89,6-1.37.54-.13.72.05.92.55,1.36,3.36,6.35,4.81,9.38,2.75a2.1,2.1,0,0,0-.31-3.83c-1.95-.91-4.1-1.1-6.17-1.58a29,29,0,0,1-4.5-1.29,8.2,8.2,0,0,1-5.54-7.35,8.86,8.86,0,0,1,4.31-8.85A15.36,15.36,0,0,1,485.09,332.71Z"/><path class="cls-2" d="M505.78,349.32c0-2.51,0-5,0-7.54,0-.74-.21-1-1-.95-1.17.05-2.35,0-3.53,0-.64,0-.94-.13-.92-.85q.06-2.92,0-5.85c0-.69.22-.91.9-.89,1.13,0,2.26,0,3.39,0,.84,0,1.16-.18,1.12-1.07-.06-1.64,0-3.29,0-4.94,0-.76.15-1.15,1-1.36,2.23-.56,4.44-1.22,6.63-1.91.92-.29,1.1,0,1.09.86-.05,2.47,0,4.94,0,7.41,0,.81.23,1,1,1,1.48-.06,3,0,4.44,0,.64,0,1,.12.93.85q-.06,2.92,0,5.85c0,.67-.18.91-.88.89-1.52,0-3.05,0-4.57,0-.75,0-1,.22-1,.95,0,4.12,0,8.24,0,12.36,0,2.11,1,3.05,3.15,3.13h.26c1.11.09,2.63-.5,3.23.26s.18,2.16.19,3.28,0,2.17,0,3.25c0,.41,0,.8-.58.78-2.77-.1-5.58.31-8.33-.28a7.84,7.84,0,0,1-6.53-7.7c-.11-2.51,0-5,0-7.54Z"/><path class="cls-2" d="M526,343.06c0-6.81,0-13.62,0-20.43,0-1,.18-1.37,1.27-1.32,2.08.1,4.18.07,6.27,0,.9,0,1.18.23,1.18,1.15-.05,4.34,0,8.67,0,13,0,9.37,0,18.73,0,28.1,0,1-.18,1.38-1.27,1.33-2-.09-4.09-.08-6.14,0-1,0-1.31-.27-1.31-1.3C526,356.76,526,349.91,526,343.06Z"/><path class="cls-2" d="M424.62,337.69c.33.06.37-.13.46-.27,2.27-3.62,5.37-4.95,9.58-4.15.47.09.54.31.54.7,0,2.34,0,4.68,0,7,0,.57-.22.79-.77.76H433c-4.94,0-7.75,2.58-7.93,7.53-.17,4.72-.12,9.45-.07,14.17,0,1.22-.35,1.54-1.53,1.49-2-.09-4.09-.05-6.13,0-.8,0-1.15-.15-1.15-1.07q.06-14.76,0-29.52c0-.87.26-1.1,1.1-1.08q3.07.09,6.14,0c.89,0,1.26.18,1.19,1.13C424.55,335.49,424.62,336.6,424.62,337.69Z"/><path class="cls-2" d="M221.41,86.09c-2-.41-4.13-.69-6.14-1.25a23.24,23.24,0,0,1-17.22-21.61c-.47-8.33,2.09-15.45,8.5-20.94,5.43-4.65,11.88-6.33,18.93-5.76,12,1,20,9.67,21.52,21.36.34,2.6.35,5.25.53,8-.58,0-.94.09-1.3.09-10.16,0-20.31,0-30.46,0-1.16,0-1.47-.8-2.3-1.61a14.39,14.39,0,0,0,.21,1.77c1.21,4.55,4.36,7.08,8.82,7.93,5.38,1,10.28-.34,14.82-3.6l6.41,9.44c-1.56,1-3,2-4.58,2.81a32,32,0,0,1-11.68,3.14,10.13,10.13,0,0,0-1.1.2Zm-7.89-29.95h19.4c-.49-4.88-4.34-8-9.71-8.09C218.09,48,214,51.41,213.52,56.14Z"/><path class="cls-2" d="M114.85,86.09c-1.18-.23-2.37-.4-3.53-.7a12.56,12.56,0,0,1-9.84-12.54c-.15-11.57-.06-23.15-.07-34.72a3.35,3.35,0,0,1,.07-.45h15V38.9q0,12.83,0,25.66a14.61,14.61,0,0,0,.15,2.56c.56,3.33,2.26,5,5.61,5.51A11,11,0,0,0,132.64,69a3,3,0,0,0,.71-1.81c0-9.34,0-18.68,0-28V37.7h15V84.78h-15a18.18,18.18,0,0,1,.05-3.39,14.15,14.15,0,0,1,1.1-2.83c-1.9,1.35-3.83,2.88-5.92,4.16a22.38,22.38,0,0,1-9.4,3.19,2.27,2.27,0,0,0-.47.18Z"/><path class="cls-2" d="M266.64,24c-.11.36-.23.71-.32,1.06a8.54,8.54,0,0,1-9.67,6.33,8.57,8.57,0,0,1,.59-17,8.55,8.55,0,0,1,9.17,6.89,4.32,4.32,0,0,0,.23.66Z"/><path class="cls-2" d="M66.11,84.83h-15V37.7H66c.31,2.43.25,4.78-1.42,6.75,2.2-1.58,4.27-3.27,6.53-4.63a21.77,21.77,0,0,1,15.63-3c6.82,1.28,11,6,11.35,13,.12,2.84.08,5.7.08,8.55q0,12.57,0,25.14v1.36H83.12V83.55q0-12.61,0-25.24a17.78,17.78,0,0,0-.23-3.18,6.09,6.09,0,0,0-5.73-5.31,11.42,11.42,0,0,0-10.39,3.83,2.64,2.64,0,0,0-.62,1.63c0,9.41,0,18.82,0,28.23Z"/><path class="cls-2" d="M151.46,37.62h3.75c2.72,0,5.44,0,8.16,0a1.15,1.15,0,0,1,1.3.93c3,8.43,6,16.86,9,25.28.57,1.59,1.13,3.17,1.7,4.75.12.34.28.67.5,1.17a2.55,2.55,0,0,0,0-.49c-.6-2.53.13-4.83,1-7.18,2.9-7.78,5.69-15.6,8.48-23.41a1.28,1.28,0,0,1,1.44-1.06c4.57,0,9.15,0,13.73,0h1.11c-.16.47-.26.82-.4,1.17Q192.43,61.38,183.55,84a1.21,1.21,0,0,1-1.35.9q-7.06,0-14.14,0a1.2,1.2,0,0,1-1.34-.91q-7.44-19-14.9-37.92a5.46,5.46,0,0,1-.34-1.79C151.44,42.1,151.46,39.94,151.46,37.62Z"/><path class="cls-2" d="M265.48,84.83h-14.9V37.68h14.9Z"/><path class="cls-2" d="M444.29,473.34v-7.41c3.54,0,6.92-.08,10.3,0,7.38.2,14.8.05,22.12.86,7.64.85,12.48,6.91,11.74,13.6-.52,4.78-3.5,7.89-7.48,10.19l-2.09,1.2s0,.14-.08.41c.79.25,1.61.49,2.41.77,5.45,1.94,9.21,5.48,10.14,11.37,1,6.22-1.68,10.9-6.76,14.31a23.86,23.86,0,0,1-12.86,4c-9.09.22-18.19.07-27.55.07,0-2-.08-4,.05-6,0-.41.77-1,1.26-1.09a25.4,25.4,0,0,1,3.42-.26c0-1,.13-1.91.13-2.85q.09-17.67.15-35.34c0-4.17.21-3.51-3.46-3.68C445.26,473.48,444.8,473.4,444.29,473.34Zm18.89,24.44c0,3.62,0,7.17,0,10.73a30.71,30.71,0,0,0,.06,5.08,3.12,3.12,0,0,0,1.83,2.17c6,1.17,12.42-2.28,11.34-9.9C475.6,500.22,470.26,496.88,463.18,497.78Zm.34-7.55c4.29.77,8-.69,9.84-3.81a9.27,9.27,0,0,0-.69-10.48,8,8,0,0,0-9.15-2.57Z"/><path class="cls-2" d="M437.19,493c-.28,10.22-2.92,19.46-11.76,25.71-11.41,8.06-28.65,6.33-37.15-3.6-4.74-5.53-6.25-12.14-6.46-19.21-.42-14.83,8.06-26.6,21.71-29.91a31.16,31.16,0,0,1,15-.08c10.92,2.7,18,11.77,18.69,23.92C437.24,490.89,437.19,492,437.19,493Zm-15.35,2.48c-.59-6.26-1.29-12.29-4.09-17.87s-9.83-6.91-14.26-2.34a17,17,0,0,0-3.55,6c-2.31,6.49-2.25,13.26-1.47,20a29.82,29.82,0,0,0,2.21,8.42c1.87,4.29,5.25,6.67,10.19,6.47,4.69-.2,7.08-3.28,8.23-7.14C420.4,504.62,421,500,421.84,495.49Z"/><path class="cls-2" d="M439.17,447.8H391.89a14.53,14.53,0,0,1-2.19-.07,1.18,1.18,0,0,1-.86-.63,1.23,1.23,0,0,1,.44-1,7.66,7.66,0,0,1,1.48-.84c15.3-7.86,30.61-15.69,45.88-23.61a4.76,4.76,0,0,1,5,0c15.26,7.93,30.58,15.75,45.88,23.61a5.58,5.58,0,0,1,1.27.7c.33.28.73.76.69,1.11s-.64.62-1,.69a9.64,9.64,0,0,1-1.94.06Z"/><path class="cls-2" d="M439,548.44H373.67a23.84,23.84,0,0,1-2.68-.09c-2.1-.25-3.1-1.45-3.15-3.6s.83-3.6,3-4a13.17,13.17,0,0,1,2.43-.14H505c4.27,0,5.91,1.28,5.32,4.61-.2,1.13-1.49,2.3-2.57,3-.79.49-2.06.25-3.11.25Z"/><path class="cls-2" d="M439.14,529.11h57.57c3,0,4.21,1.1,3.6,3.68-.23,1-1.48,1.79-2.41,2.5-.36.27-1.1.06-1.67.06H382.07c-1.7,0-3.55.26-4.11-2.05-.68-2.78.52-4.19,3.61-4.19Z"/><path class="cls-2" d="M438.89,459.44H381.34c-2.73,0-3.65-1-3.48-3.43.12-1.75,1-2.71,2.77-2.69H496.46c3.26,0,4.29,1,4,3.69-.19,1.48-.91,2.41-2.51,2.42h-59Z"/></svg>