<svg id="Layer_1" data-name="Layer 1" xmlns="http://www.w3.org/2000/svg" viewBox="0 0 192.59 47.11"><path d="M129.26,47.11c0-.14,0-.28,0-.41V23.23h3.62V25.6a1,1,0,0,0,.16-.17,5.06,5.06,0,0,1,3.8-2.55,7.92,7.92,0,0,1,6.82,1.69,8.18,8.18,0,0,1,2.59,4.77,12,12,0,0,1-.86,7.83A7.48,7.48,0,0,1,134,39.41a12.64,12.64,0,0,1-.92-1c0,.08,0,.15,0,.21V47s0,.1,0,.15ZM142.69,32a7.44,7.44,0,0,0-1.22-4.29,4.34,4.34,0,0,0-4.21-1.9,4.08,4.08,0,0,0-3.63,2.64,8.73,8.73,0,0,0-.06,6.75,4.6,4.6,0,0,0,8.6-.12A8.86,8.86,0,0,0,142.69,32Z"/><path d="M163.54,31.9a11.7,11.7,0,0,1,.91-4.33,7.68,7.68,0,0,1,4.75-4.34,9.84,9.84,0,0,1,6.43,0,7.61,7.61,0,0,1,5,4.91,11,11,0,0,1-.06,7.67,7.85,7.85,0,0,1-7,5.24,9.42,9.42,0,0,1-5.28-.84,8,8,0,0,1-4.43-6.09C163.66,33.4,163.62,32.65,163.54,31.9Zm3.87.41a15.92,15.92,0,0,0,.39,2.09A4.65,4.65,0,0,0,171,37.89a4.56,4.56,0,0,0,5.72-2.77,8.13,8.13,0,0,0,.07-6.24,4.68,4.68,0,0,0-8.82,0A9.38,9.38,0,0,0,167.41,32.31Z"/><path d="M99.73,35.1h3.59c.1,0,.27.11.28.19a3.09,3.09,0,0,0,3,2.73,6.76,6.76,0,0,0,3.56-.36,1.8,1.8,0,0,0,1.28-2,1.76,1.76,0,0,0-.91-1.35,7.33,7.33,0,0,0-2.49-.92c-1.44-.34-2.89-.65-4.31-1.06a4.87,4.87,0,0,1-3-2.17,4.5,4.5,0,0,1,1.22-5.95,7.64,7.64,0,0,1,3.56-1.32,11.52,11.52,0,0,1,5.22.34,5.57,5.57,0,0,1,4,4.85l-.28,0H111c-.16,0-.31,0-.36-.21a2.5,2.5,0,0,0-2.19-2,6.11,6.11,0,0,0-3.31.19A1.51,1.51,0,0,0,104,27.93a1.63,1.63,0,0,0,.83,1.07,9.45,9.45,0,0,0,3,1c1.38.34,2.78.67,4.14,1.08a4.74,4.74,0,0,1,2.44,1.69,4.83,4.83,0,0,1-.34,6,7,7,0,0,1-4,2.12,11.61,11.61,0,0,1-6.45-.32,5.54,5.54,0,0,1-3.92-5C99.72,35.39,99.73,35.27,99.73,35.1Z"/><path d="M62.28,40.63H58.07V20.19H50.45v-3.6H69.92v3.58H62.28Z"/><path d="M93.19,23.24H97V40.62H93.26V38.29l-.08,0a.39.39,0,0,0-.08.1,5.74,5.74,0,0,1-5.25,2.75,10.13,10.13,0,0,1-2.19-.3,4.83,4.83,0,0,1-3.72-4.14,11.24,11.24,0,0,1-.23-2.09c0-3.69,0-7.39,0-11.08,0-.09,0-.17,0-.28h3.83v.44c0,3.36,0,6.71,0,10.06a10.84,10.84,0,0,0,.15,1.8,2.82,2.82,0,0,0,2.81,2.55,4,4,0,0,0,3.87-1.53,4.19,4.19,0,0,0,.77-2.41c0-1.88,0-3.77,0-5.65,0-1.6,0-3.19,0-4.79Z"/><path d="M192.54,26.07h-3.41c0,.11,0,.21,0,.3q0,4.69,0,9.39a4.56,4.56,0,0,0,.08.9,1.17,1.17,0,0,0,1.15,1.1c.73.05,1.47,0,2.25,0,0,.87,0,1.8,0,2.73,0,.06-.11.16-.19.17a12.11,12.11,0,0,1-4.45,0,2.94,2.94,0,0,1-2.5-2.73,14.23,14.23,0,0,1-.15-1.95q0-4.68,0-9.35v-.49h-2.87v-2.9h2.84V18h3.83v5.2h3.46Z"/><path d="M126.53,37.72v2.93a14.3,14.3,0,0,1-1.59.17,19.37,19.37,0,0,1-2.85-.15c-1.74-.27-2.59-1.31-2.77-3.19a14.64,14.64,0,0,1-.08-1.62q0-4.63,0-9.27V26.1h-2.89V23.23h2.86V18H123V23.2h3.46v2.86h-3.4a1.15,1.15,0,0,0,0,.2c0,3.32,0,6.64,0,10,0,1.09.48,1.53,1.58,1.61a7.39,7.39,0,0,0,.94,0C125.9,37.8,126.19,37.75,126.53,37.72Z"/><path d="M160.58,40.63H156.8V16.58h3.78Z"/><path d="M79.33,22.87v3.64c-.37,0-.72-.1-1.08-.13a4.56,4.56,0,0,0-5,3.6,8.81,8.81,0,0,0-.3,2.23c0,2.63,0,5.27,0,7.91v.48H69.13V23.23h3.58V26.5A6.21,6.21,0,0,1,76.25,23,5.37,5.37,0,0,1,79.33,22.87Z"/><path d="M153.28,40.63H149.5V23.23h3.78Z"/><path d="M153.29,16.59v3.57h-3.8V16.59Z"/><path d="M32.86,30.68h0L22.9,33.31l8.73-6.4.08,0v0l0,0a.47.47,0,0,1,.17-.18l13.8-10h-17c-.31,0-.5-.05-.61-.4C26.37,10.79,24.64,5.43,22.86,0q-2.64,8-5.24,16.1a.63.63,0,0,1-.71.52c-5.64,0-11.26,0-16.91,0,4.57,3.35,9.16,6.66,13.75,10a.54.54,0,0,1,.24.71C12.22,32.7,10.46,38,8.73,43.45c4.61-3.26,9.14-6.63,13.73-9.94a.55.55,0,0,1,.76,0c4.59,3.36,9.12,6.66,13.74,10-1.33-4.28-2.7-8.53-4.08-12.79Z"/></svg>