<?xml version="1.0" encoding="utf-8"?>
<!-- Generator: Adobe Illustrator 26.1.0, SVG Export Plug-In . SVG Version: 6.00 Build 0)  -->
<svg width="200" version="1.1" id="Layer_1" xmlns="http://www.w3.org/2000/svg" xmlns:xlink="http://www.w3.org/1999/xlink" x="0px" y="0px"
	 viewBox="0 0 668.1 709.8" style="enable-background:new 0 0 668.1 709.8;" xml:space="preserve">
<style type="text/css">
	.st0{opacity:0.36;}
	.st1{fill:#FFFFFF;fill-opacity:0;}
	.st2{opacity:1.000000e-02;fill:#FDFDFD;enable-background:new    ;}
	.st3{opacity:2.000000e-02;fill:#FCFCFC;enable-background:new    ;}
	.st4{opacity:3.000000e-02;fill:#FAFAFA;enable-background:new    ;}
	.st5{opacity:4.000000e-02;fill:#F9F9F9;enable-background:new    ;}
	.st6{opacity:5.000000e-02;fill:#F7F7F7;enable-background:new    ;}
	.st7{opacity:6.000000e-02;fill:#F6F6F6;enable-background:new    ;}
	.st8{opacity:7.000000e-02;fill:#F4F4F4;enable-background:new    ;}
	.st9{opacity:8.000000e-02;fill:#F3F3F3;enable-background:new    ;}
	.st10{opacity:9.000000e-02;fill:#F1F1F1;enable-background:new    ;}
	.st11{opacity:0.1;fill:#F0F0F0;enable-background:new    ;}
	.st12{opacity:0.11;fill:#EEEEEE;enable-background:new    ;}
	.st13{opacity:0.12;fill:#EDEDED;enable-background:new    ;}
	.st14{opacity:0.13;fill:#EBEBEB;enable-background:new    ;}
	.st15{opacity:0.14;fill:#EAEAEA;enable-background:new    ;}
	.st16{opacity:0.15;fill:#E8E8E8;enable-background:new    ;}
	.st17{opacity:0.16;fill:#E7E7E7;enable-background:new    ;}
	.st18{opacity:0.17;fill:#E5E5E5;enable-background:new    ;}
	.st19{opacity:0.18;fill:#E4E4E4;enable-background:new    ;}
	.st20{opacity:0.19;fill:#E2E2E2;enable-background:new    ;}
	.st21{opacity:0.2;fill:#E1E1E1;enable-background:new    ;}
	.st22{opacity:0.21;fill:#DFDFDF;enable-background:new    ;}
	.st23{opacity:0.22;fill:#DEDEDE;enable-background:new    ;}
	.st24{opacity:0.23;fill:#DCDCDC;enable-background:new    ;}
	.st25{opacity:0.24;fill:#DBDBDB;enable-background:new    ;}
	.st26{opacity:0.25;fill:#D9D9D9;enable-background:new    ;}
	.st27{opacity:0.26;fill:#D8D8D8;enable-background:new    ;}
	.st28{opacity:0.27;fill:#D6D6D6;enable-background:new    ;}
	.st29{opacity:0.28;fill:#D5D5D5;enable-background:new    ;}
	.st30{opacity:0.29;fill:#D3D3D3;enable-background:new    ;}
	.st31{opacity:0.3;fill:#D2D2D2;enable-background:new    ;}
	.st32{opacity:0.31;fill:#D0D0D0;enable-background:new    ;}
	.st33{opacity:0.32;fill:#CFCFCF;enable-background:new    ;}
	.st34{opacity:0.33;fill:#CDCDCD;enable-background:new    ;}
	.st35{opacity:0.34;fill:#CBCBCB;enable-background:new    ;}
	.st36{opacity:0.35;fill:#CACACA;enable-background:new    ;}
	.st37{opacity:0.36;fill:#C8C8C8;enable-background:new    ;}
	.st38{opacity:0.37;fill:#C7C7C7;enable-background:new    ;}
	.st39{opacity:0.38;fill:#C5C5C5;enable-background:new    ;}
	.st40{opacity:0.39;fill:#C4C4C4;enable-background:new    ;}
	.st41{opacity:0.4;fill:#C2C2C2;enable-background:new    ;}
	.st42{opacity:0.41;fill:#C1C1C1;enable-background:new    ;}
	.st43{opacity:0.42;fill:#BFBFBF;enable-background:new    ;}
	.st44{opacity:0.43;fill:#BEBEBE;enable-background:new    ;}
	.st45{opacity:0.44;fill:#BCBCBC;enable-background:new    ;}
	.st46{opacity:0.45;fill:#BBBBBB;enable-background:new    ;}
	.st47{opacity:0.46;fill:#B9B9B9;enable-background:new    ;}
	.st48{opacity:0.47;fill:#B8B8B8;enable-background:new    ;}
	.st49{opacity:0.48;fill:#B6B6B6;enable-background:new    ;}
	.st50{opacity:0.49;fill:#B5B5B5;enable-background:new    ;}
	.st51{opacity:0.5;fill:#B3B3B3;enable-background:new    ;}
	.st52{opacity:0.5;fill:#B2B2B2;enable-background:new    ;}
	.st53{opacity:0.51;fill:#B0B0B0;enable-background:new    ;}
	.st54{opacity:0.52;fill:#AFAFAF;enable-background:new    ;}
	.st55{opacity:0.53;fill:#ADADAD;enable-background:new    ;}
	.st56{opacity:0.54;fill:#ACACAC;enable-background:new    ;}
	.st57{opacity:0.55;fill:#AAAAAA;enable-background:new    ;}
	.st58{opacity:0.56;fill:#A9A9A9;enable-background:new    ;}
	.st59{opacity:0.57;fill:#A7A7A7;enable-background:new    ;}
	.st60{opacity:0.58;fill:#A6A6A6;enable-background:new    ;}
	.st61{opacity:0.59;fill:#A4A4A4;enable-background:new    ;}
	.st62{opacity:0.6;fill:#A3A3A3;enable-background:new    ;}
	.st63{opacity:0.61;fill:#A1A1A1;enable-background:new    ;}
	.st64{opacity:0.62;fill:#A0A0A0;enable-background:new    ;}
	.st65{opacity:0.63;fill:#9E9E9E;enable-background:new    ;}
	.st66{opacity:0.64;fill:#9D9D9D;enable-background:new    ;}
	.st67{opacity:0.65;fill:#9B9B9B;enable-background:new    ;}
	.st68{opacity:0.66;fill:#9A9A9A;enable-background:new    ;}
	.st69{opacity:0.67;fill:#989898;enable-background:new    ;}
	.st70{opacity:0.68;fill:#969696;enable-background:new    ;}
	.st71{opacity:0.69;fill:#959595;enable-background:new    ;}
	.st72{opacity:0.7;fill:#939393;enable-background:new    ;}
	.st73{opacity:0.71;fill:#929292;enable-background:new    ;}
	.st74{opacity:0.72;fill:#909090;enable-background:new    ;}
	.st75{opacity:0.73;fill:#8F8F8F;enable-background:new    ;}
	.st76{opacity:0.74;fill:#8D8D8D;enable-background:new    ;}
	.st77{opacity:0.75;fill:#8C8C8C;enable-background:new    ;}
	.st78{opacity:0.76;fill:#8A8A8A;enable-background:new    ;}
	.st79{opacity:0.77;fill:#898989;enable-background:new    ;}
	.st80{opacity:0.78;fill:#878787;enable-background:new    ;}
	.st81{opacity:0.79;fill:#868686;enable-background:new    ;}
	.st82{opacity:0.8;fill:#848484;enable-background:new    ;}
	.st83{opacity:0.81;fill:#838383;enable-background:new    ;}
	.st84{opacity:0.82;fill:#818181;enable-background:new    ;}
	.st85{opacity:0.83;fill:#808080;enable-background:new    ;}
	.st86{opacity:0.84;fill:#7E7E7E;enable-background:new    ;}
	.st87{opacity:0.85;fill:#7D7D7D;enable-background:new    ;}
	.st88{opacity:0.86;fill:#7B7B7B;enable-background:new    ;}
	.st89{opacity:0.87;fill:#7A7A7A;enable-background:new    ;}
	.st90{opacity:0.88;fill:#787878;enable-background:new    ;}
	.st91{opacity:0.89;fill:#777777;enable-background:new    ;}
	.st92{opacity:0.9;fill:#757575;enable-background:new    ;}
	.st93{opacity:0.91;fill:#747474;enable-background:new    ;}
	.st94{opacity:0.92;fill:#727272;enable-background:new    ;}
	.st95{opacity:0.93;fill:#717171;enable-background:new    ;}
	.st96{opacity:0.94;fill:#6F6F6F;enable-background:new    ;}
	.st97{opacity:0.95;fill:#6E6E6E;enable-background:new    ;}
	.st98{opacity:0.96;fill:#6C6C6C;enable-background:new    ;}
	.st99{opacity:0.97;fill:#6B6B6B;enable-background:new    ;}
	.st100{opacity:0.98;fill:#696969;enable-background:new    ;}
	.st101{opacity:0.99;fill:#686868;enable-background:new    ;}
	.st102{fill:#666666;}
	.st103{fill:#FFFFFF;}
	.st104{fill:#808080;}
</style>
<g>
	<g class="st0">
		<path class="st1" d="M677.3,450.9c0,136.4-110.6,247.1-247.1,247.1S183.1,587.4,183.1,451c0-103.1,63.2-191.5,152.9-228.5
			c60.3-24.8,127.9-24.8,188.2,0C614.2,259.5,677.3,347.8,677.3,450.9z"/>
		<path class="st2" d="M676,449.6c0,136.4-110.6,247-247.1,247S181.8,586,181.8,449.6c0-103.1,63.2-191.5,152.9-228.5
			c60.3-24.7,127.9-24.7,188.2,0C612.9,258.2,676,346.5,676,449.6z"/>
		<path class="st3" d="M674.7,448.4c0,136.4-110.6,247-247.1,247s-247.1-110.6-247.1-247c0-103.1,63.2-191.5,152.9-228.5
			c60.3-24.7,127.9-24.7,188.2,0C611.5,256.9,674.7,345.2,674.7,448.4z"/>
		<path class="st4" d="M673.4,447.1c0,136.4-110.6,247.1-247.1,247.1s-247-110.7-247-247.1c0-103.1,63.2-191.5,152.9-228.5
			c60.3-24.8,127.9-24.8,188.2,0C610.2,255.6,673.4,343.9,673.4,447.1z"/>
		<path class="st5" d="M672.1,445.8c0,136.4-110.6,247.1-247.1,247.1s-247.1-110.7-247.1-247c0-103.1,63.2-191.5,152.9-228.5
			c60.3-24.8,127.9-24.8,188.2,0C608.9,254.3,672.1,342.7,672.1,445.8z"/>
		<path class="st6" d="M670.8,444.5c0,136.4-110.6,247-247.1,247s-247.1-110.6-247.1-247c0-103.1,63.2-191.5,152.9-228.5
			c60.3-24.7,127.9-24.7,188.2,0C607.6,253,670.8,341.4,670.8,444.5z"/>
		<path class="st7" d="M669.4,443.2c0,136.4-110.6,247.1-247.1,247.1s-247.1-110.6-247.1-247c0-103.1,63.2-191.5,152.9-228.5
			c60.3-24.8,127.9-24.8,188.2,0C606.3,251.7,669.4,340.1,669.4,443.2z"/>
		<path class="st8" d="M668.1,441.9c0,136.4-110.6,247-247.1,247s-247.1-110.6-247.1-247c0-103.1,63.2-191.5,152.9-228.5
			c60.3-24.7,127.9-24.7,188.2,0C605,250.4,668.1,338.8,668.1,441.9z"/>
		<path class="st9" d="M666.8,440.6c0,136.4-110.6,247-247.1,247S172.6,577,172.6,440.6c0-103.1,63.2-191.5,152.9-228.5
			c60.3-24.7,127.9-24.7,188.2,0C603.7,249.1,666.8,337.5,666.8,440.6z"/>
		<path class="st10" d="M665.5,439.3c0,136.4-110.6,247.1-247.1,247.1s-247.1-110.6-247.1-247c0-103.1,63.2-191.5,152.9-228.5
			c60.3-24.8,127.9-24.8,188.2,0C602.4,247.9,665.5,336.2,665.5,439.3z"/>
		<path class="st11" d="M664.2,438c0,136.4-110.6,247-247.1,247S170,574.4,170,438c0-103.1,63.2-191.5,152.9-228.5
			c60.3-24.8,127.9-24.8,188.2,0C601,246.6,664.2,334.9,664.2,438z"/>
		<path class="st12" d="M662.9,436.7c0,136.4-110.6,247-247.1,247s-247.1-110.6-247.1-247c0-103.1,63.2-191.5,152.9-228.5
			c60.3-24.7,127.9-24.7,188.2,0C599.7,245.3,662.9,333.6,662.9,436.7z"/>
		<path class="st13" d="M661.6,435.4c0,136.4-110.6,247.1-247.1,247.1s-247.1-110.7-247.1-247c0-103.1,63.2-191.5,152.9-228.5
			c60.3-24.7,127.9-24.7,188.2,0C598.4,244,661.6,332.3,661.6,435.4z"/>
		<path class="st14" d="M660.2,434.2c0,136.4-110.6,247-247.1,247S166,570.6,166,434.2c0-103.1,63.2-191.5,152.9-228.5
			c60.3-24.8,127.9-24.8,188.2,0C597.1,242.7,660.2,331,660.2,434.2z"/>
		<path class="st15" d="M658.9,432.9c0,136.4-110.6,247.1-247.1,247.1S164.7,569.4,164.7,433c0-103.1,63.2-191.5,152.9-228.5
			c60.3-24.8,127.9-24.8,188.2,0C595.8,241.4,658.9,329.7,658.9,432.9z"/>
		<path class="st16" d="M657.6,431.6c0,136.4-110.6,247.1-247.1,247.1s-247.1-110.6-247.1-247c0-103.1,63.2-191.5,152.9-228.5
			c60.3-24.7,127.9-24.7,188.2,0C594.5,240.1,657.6,328.5,657.6,431.6z"/>
		<path class="st17" d="M656.3,430.3c0,136.4-110.6,247.1-247.1,247.1s-247.1-110.6-247.1-247c0-103.1,63.2-191.5,152.9-228.5
			c60.3-24.7,127.9-24.7,188.2,0C593.2,238.8,656.3,327.1,656.3,430.3z"/>
		<path class="st18" d="M655,429c0,136.4-110.6,247.1-247.1,247.1s-247-110.6-247-247.1c0-103.1,63.2-191.5,152.9-228.5
			c60.3-24.8,127.9-24.8,188.2,0C591.9,237.5,655,325.9,655,429z"/>
		<path class="st19" d="M653.7,427.7c0,136.4-110.6,247.1-247.1,247.1s-247.1-110.6-247.1-247c0-103.1,63.2-191.5,152.9-228.5
			c60.3-24.7,127.9-24.7,188.2,0C590.5,236.3,653.7,324.6,653.7,427.7z"/>
		<path class="st20" d="M652.4,426.4c0,136.4-110.6,247-247.1,247s-247-110.6-247-247c0-103.1,63.2-191.5,152.9-228.5
			c60.3-24.8,127.9-24.8,188.2,0C589.2,235,652.4,323.3,652.4,426.4z"/>
		<path class="st21" d="M651.1,425.1c0,136.4-110.6,247.1-247.1,247.1s-247.1-110.6-247.1-247c0-103.1,63.2-191.5,152.9-228.5
			c60.3-24.8,127.9-24.8,188.2,0C587.9,233.7,651.1,322,651.1,425.1z"/>
		<path class="st22" d="M649.7,423.8c0,136.4-110.6,247.1-247.1,247.1s-247.1-110.6-247.1-247c0-103.1,63.2-191.5,152.9-228.5
			c60.3-24.7,127.9-24.7,188.2,0C586.6,232.4,649.7,320.7,649.7,423.8z"/>
		<path class="st23" d="M648.4,422.5c0,136.4-110.6,247-247.1,247s-247-110.5-247-247c0-103.1,63.2-191.5,152.9-228.5
			c60.3-24.7,127.9-24.7,188.2,0C585.3,231.1,648.4,319.4,648.4,422.5z"/>
		<path class="st24" d="M647.1,421.2c0,136.4-110.6,247.1-247.1,247.1s-247.1-110.6-247.1-247c0-103.1,63.2-191.5,152.9-228.5
			c60.3-24.8,127.9-24.8,188.2,0C584,229.8,647.1,318.1,647.1,421.2z"/>
		<path class="st25" d="M645.8,420c0,136.4-110.6,247-247.1,247s-247-110.6-247-247c0-103.1,63.2-191.5,152.9-228.5
			c60.3-24.8,127.9-24.8,188.2,0C582.7,228.5,645.8,316.8,645.8,420z"/>
		<path class="st26" d="M644.5,418.7c0,136.4-110.6,247-247.1,247s-247-110.6-247-247c0-103.1,63.2-191.5,152.9-228.5
			c60.3-24.7,127.9-24.7,188.2,0C581.4,227.2,644.5,315.6,644.5,418.7z"/>
		<path class="st27" d="M643.2,417.4c0,136.4-110.6,247.1-247.1,247.1S149,553.9,149,417.5C149,314.4,212.2,226,301.9,189
			c60.3-24.7,127.9-24.7,188.2,0C580,225.9,643.2,314.2,643.2,417.4z"/>
		<path class="st28" d="M641.9,416.1c0,136.4-110.6,247-247.1,247s-247.1-110.6-247.1-247c0-103.1,63.2-191.5,152.9-228.5
			c60.3-24.8,127.9-24.8,188.2,0C578.7,224.6,641.9,313,641.9,416.1z"/>
		<path class="st29" d="M640.6,414.8c0,136.4-110.6,247-247.1,247s-247.1-110.6-247.1-247c0-103.1,63.2-191.5,152.9-228.5
			c60.3-24.7,127.9-24.7,188.2,0C577.4,223.3,640.6,311.7,640.6,414.8z"/>
		<path class="st30" d="M639.2,413.5c0,136.4-110.6,247.1-247.1,247.1S145,550,145,413.6c0-103.1,63.2-191.5,152.9-228.5
			c60.3-24.8,127.9-24.8,188.2,0C576.1,222.1,639.2,310.4,639.2,413.5z"/>
		<path class="st31" d="M637.9,412.2c0,136.4-110.6,247.1-247.1,247.1s-247-110.6-247-247c0-103.1,63.2-191.5,152.9-228.5
			c60.3-24.8,127.9-24.8,188.2,0C574.8,220.7,637.9,309.1,637.9,412.2z"/>
		<path class="st32" d="M636.6,410.9c0,136.4-110.6,247-247.1,247s-247.1-110.6-247.1-247c0-103.1,63.2-191.5,152.9-228.5
			c60.3-24.7,127.9-24.7,188.2,0C573.5,219.5,636.6,307.8,636.6,410.9z"/>
		<path class="st33" d="M635.3,409.6c0,136.4-110.6,247.1-247.1,247.1s-247.1-110.6-247.1-247c0-103.1,63.2-191.5,152.9-228.5
			c60.3-24.7,127.9-24.7,188.2,0C572.2,218.2,635.3,306.5,635.3,409.6z"/>
		<path class="st34" d="M634,408.3c0,136.4-110.6,247-247.1,247s-247.1-110.6-247.1-247c0-103.1,63.2-191.5,152.9-228.5
			c60.3-24.8,127.9-24.8,188.2,0C570.8,216.9,634,305.2,634,408.3z"/>
		<path class="st35" d="M632.7,407.1c0,136.4-110.6,247-247.1,247c-136.4,0-247.1-110.6-247.1-247c0-103.1,63.2-191.5,152.9-228.5
			c60.3-24.8,127.9-24.8,188.2,0C569.5,215.6,632.7,303.9,632.7,407.1z"/>
		<path class="st36" d="M631.4,405.8c0,136.4-110.6,247.1-247.1,247.1s-247.1-110.6-247.1-247c0-103.1,63.2-191.5,152.9-228.5
			c60.3-24.7,127.9-24.7,188.2,0C568.2,214.3,631.4,302.6,631.4,405.8z"/>
		<path class="st37" d="M630.1,404.5c0,136.4-110.6,247-247.1,247s-247.1-110.6-247.1-247c0-103.1,63.2-191.5,152.9-228.5
			c60.3-24.7,127.9-24.7,188.2,0C566.9,213,630.1,301.3,630.1,404.5z"/>
		<path class="st38" d="M628.7,403.2c0,136.4-110.6,247.1-247.1,247.1s-247.1-110.6-247.1-247c0-103.1,63.2-191.5,152.9-228.5
			c60.3-24.8,127.9-24.8,188.2,0C565.6,211.7,628.7,300.1,628.7,403.2z"/>
		<path class="st39" d="M627.4,401.9c0,136.4-110.6,247.1-247.1,247.1s-247-110.7-247-247.1c0-103.1,63.2-191.5,152.9-228.5
			c60.3-24.7,127.9-24.7,188.2,0C564.3,210.4,627.4,298.8,627.4,401.9z"/>
		<path class="st40" d="M626.1,400.6c0,136.4-110.6,247-247.1,247S131.9,537,131.9,400.6c0-103.1,63.2-191.5,152.9-228.5
			c60.3-24.8,127.9-24.8,188.2,0C563,209.1,626.1,297.5,626.1,400.6z"/>
		<path class="st41" d="M624.8,399.3c0,136.4-110.6,247-247.1,247s-247.1-110.6-247.1-247c0-103.1,63.2-191.5,152.9-228.5
			c60.3-24.8,127.9-24.8,188.2,0C561.7,207.8,624.8,296.2,624.8,399.3z"/>
		<path class="st42" d="M623.5,398c0,136.4-110.6,247.1-247.1,247.1s-247.1-110.6-247.1-247c0-103.1,63.2-191.5,152.9-228.5
			c60.3-24.7,127.9-24.7,188.2,0C560.3,206.6,623.5,294.9,623.5,398z"/>
		<path class="st43" d="M622.2,396.7c0,136.4-110.6,247.1-247.1,247.1S128,533.2,128,396.8c0-103.1,63.2-191.5,152.9-228.5
			c60.3-24.7,127.9-24.7,188.2,0C559,205.3,622.2,293.6,622.2,396.7z"/>
		<path class="st44" d="M620.9,395.4c0,136.4-110.6,247.1-247.1,247.1s-247.1-110.6-247.1-247c0-103.1,63.2-191.5,152.9-228.5
			c60.3-24.8,127.9-24.8,188.2,0C557.7,204,620.9,292.3,620.9,395.4z"/>
		<path class="st45" d="M619.5,394.1c0,136.4-110.6,247.1-247.1,247.1s-247.1-110.6-247.1-247c0-103.1,63.2-191.5,152.9-228.5
			c60.3-24.8,127.9-24.8,188.2,0C556.4,202.7,619.5,291,619.5,394.1z"/>
		<path class="st46" d="M618.3,392.9c0,136.4-110.6,247-247.1,247s-247.1-110.6-247.1-247c0-103.1,63.2-191.5,152.9-228.5
			c60.3-24.7,127.9-24.7,188.2,0C555.1,201.4,618.3,289.7,618.3,392.9z"/>
		<path class="st47" d="M616.9,391.6c0,136.4-110.6,247.1-247.1,247.1s-247.1-110.6-247.1-247c0-103.1,63.2-191.5,152.9-228.5
			c60.3-24.7,127.9-24.7,188.2,0C553.8,200.1,616.9,288.4,616.9,391.6z"/>
		<path class="st48" d="M615.6,390.3c0,136.4-110.6,247.1-247.1,247.1s-247.1-110.6-247.1-247c0-103.1,63.2-191.5,152.9-228.5
			c60.3-24.8,127.9-24.8,188.2,0C552.5,198.8,615.6,287.1,615.6,390.3z"/>
		<path class="st49" d="M614.3,389c0,136.4-110.6,247-247.1,247S120.1,525.4,120.1,389c0-103.1,63.2-191.5,152.9-228.5
			c60.3-24.7,127.9-24.7,188.2,0C551.2,197.5,614.3,285.9,614.3,389z"/>
		<path class="st50" d="M613,387.7c0,136.4-110.6,247.1-247.1,247.1s-247.1-110.6-247.1-247c0-103.1,63.2-191.5,152.9-228.5
			c60.3-24.8,127.9-24.8,188.2,0C549.8,196.2,613,284.6,613,387.7z"/>
		<path class="st51" d="M611.7,386.4c0,136.4-110.6,247-247.1,247s-247.1-110.6-247.1-247c0-103.1,63.2-191.5,152.9-228.5
			c60.3-24.8,127.9-24.8,188.2,0C548.5,194.9,611.7,283.3,611.7,386.4z"/>
		<path class="st52" d="M610.4,385.1c0,136.4-110.6,247-247.1,247s-247-110.6-247-247c0-103.1,63.2-191.5,152.9-228.5
			c60.3-24.8,127.9-24.8,188.2,0C547.2,193.6,610.4,282,610.4,385.1z"/>
		<path class="st53" d="M609.1,383.8c0,136.4-110.6,247.1-247.1,247.1s-247.1-110.6-247.1-247c0-103.1,63.2-191.5,152.9-228.5
			c60.3-24.7,127.9-24.7,188.2,0C545.9,192.3,609.1,280.7,609.1,383.8z"/>
		<path class="st54" d="M607.7,382.5c0,136.4-110.6,247-247.1,247s-247.1-110.6-247.1-247c0-103.1,63.2-191.5,152.9-228.5
			c60.3-24.7,127.9-24.7,188.2,0C544.6,191.1,607.7,279.4,607.7,382.5z"/>
		<path class="st55" d="M606.4,381.2c0,136.4-110.6,247-247.1,247s-247-110.5-247-247c0-103.1,63.2-191.5,152.9-228.5
			c60.3-24.8,127.9-24.8,188.2,0C543.3,189.8,606.4,278.1,606.4,381.2z"/>
		<path class="st56" d="M605.1,379.9C605.1,516.3,494.5,627,358,627S110.9,516.4,110.9,380c0-103.1,63.2-191.5,152.9-228.5
			c60.3-24.7,127.9-24.7,188.2,0C542,188.5,605.1,276.8,605.1,379.9z"/>
		<path class="st57" d="M603.8,378.7c0,136.4-110.6,247.1-247.1,247.1s-247.1-110.7-247.1-247c0-103.1,63.2-191.5,152.9-228.5
			c60.3-24.8,127.9-24.8,188.2,0C540.6,187.2,603.8,275.6,603.8,378.7z"/>
		<path class="st58" d="M602.5,377.4c0,136.4-110.6,247.1-247.1,247.1s-247.1-110.6-247.1-247c0-103.1,63.2-191.5,152.9-228.5
			c60.3-24.8,127.9-24.8,188.2,0C539.3,185.9,602.5,274.2,602.5,377.4z"/>
		<path class="st59" d="M601.2,376.1c0,136.4-110.6,247.1-247.1,247.1S107,512.6,107,376.2c0-103.1,63.2-191.5,152.9-228.5
			c60.3-24.7,127.9-24.7,188.2,0C538,184.6,601.2,273,601.2,376.1z"/>
		<path class="st60" d="M599.9,374.8c0,136.4-110.6,247-247.1,247s-247.1-110.6-247.1-247c0-103.1,63.2-191.5,152.9-228.5
			c60.3-24.8,127.9-24.8,188.2,0C536.7,183.3,599.9,271.7,599.9,374.8z"/>
		<path class="st61" d="M598.5,373.5c0,136.4-110.6,247-247.1,247s-247.1-110.6-247.1-247c0-103.1,63.2-191.5,152.9-228.5
			c60.3-24.8,127.9-24.8,188.2,0C535.4,182,598.5,270.4,598.5,373.5z"/>
		<path class="st62" d="M597.2,372.2c0,136.4-110.6,247.1-247.1,247.1S103,508.7,103,372.3c0-103.1,63.2-191.5,152.9-228.5
			c60.3-24.8,127.9-24.8,188.2,0C534.1,180.7,597.2,269.1,597.2,372.2z"/>
		<path class="st63" d="M595.9,370.9c0,136.4-110.6,247-247.1,247s-247.1-110.6-247.1-247c0-103.1,63.2-191.5,152.9-228.5
			c60.3-24.7,127.9-24.7,188.2,0C532.8,179.4,595.9,267.8,595.9,370.9z"/>
		<path class="st64" d="M594.6,369.6c0,136.4-110.6,247.1-247.1,247.1s-247.1-110.6-247.1-247c0-103.1,63.2-191.5,152.9-228.5
			c60.3-24.7,127.9-24.7,188.2,0C531.4,178.2,594.6,266.5,594.6,369.6z"/>
		<path class="st65" d="M593.3,368.3c0,136.4-110.6,247.1-247.1,247.1S99.1,504.8,99.1,368.4c0-103.1,63.2-191.5,152.9-228.5
			c60.3-24.8,127.9-24.8,188.2,0C530.1,176.9,593.3,265.2,593.3,368.3z"/>
		<path class="st66" d="M592,367c0,136.4-110.6,247-247.1,247S97.8,503.4,97.8,367c0-103.1,63.2-191.5,152.9-228.5
			c60.3-24.7,127.9-24.7,188.2,0C528.8,175.6,592,263.9,592,367z"/>
		<path class="st67" d="M590.7,365.7c0,136.4-110.6,247.1-247.1,247.1S96.5,502.2,96.5,365.8c0-103.1,63.2-191.5,152.9-228.5
			c60.3-24.8,127.9-24.8,188.2,0C527.5,174.3,590.7,262.6,590.7,365.7z"/>
		<path class="st68" d="M589.4,364.5c0,136.4-110.6,247-247.1,247s-247-110.6-247-247c0-103.1,63.2-191.5,152.9-228.5
			c60.3-24.8,127.9-24.8,188.2,0C526.2,173,589.4,261.3,589.4,364.5z"/>
		<path class="st69" d="M588.1,363.1c0,136.4-110.6,247.1-247.1,247.1S93.9,499.6,93.9,363.2c0-103.1,63.2-191.5,152.9-228.5
			c60.3-24.7,127.9-24.7,188.2,0C524.9,171.7,588.1,260,588.1,363.1z"/>
		<path class="st70" d="M586.7,361.9c0,136.4-110.6,247.1-247.1,247.1S92.5,498.4,92.5,362c0-103.1,63.2-191.5,152.9-228.5
			c60.3-24.7,127.9-24.7,188.2,0C523.6,170.4,586.7,258.7,586.7,361.9z"/>
		<path class="st71" d="M585.4,360.6c0,136.4-110.6,247-247.1,247S91.2,497,91.2,360.6c0-103.1,63.2-191.5,152.9-228.5
			c60.3-24.8,127.9-24.8,188.2,0C522.3,169.2,585.4,257.5,585.4,360.6z"/>
		<path class="st72" d="M584.1,359.3c0,136.4-110.6,247-247.1,247S89.9,495.7,89.9,359.3c0-103.1,63.2-191.5,152.9-228.5
			c60.3-24.8,127.9-24.8,188.2,0C520.9,167.8,584.1,256.2,584.1,359.3z"/>
		<path class="st73" d="M582.8,358c0,136.4-110.6,247.1-247.1,247.1s-247-110.6-247-247c0-103.1,63.2-191.5,152.9-228.5
			c60.3-24.7,127.9-24.7,188.2,0C519.6,166.5,582.8,254.9,582.8,358z"/>
		<path class="st74" d="M581.5,356.7c0,136.4-110.6,247-247.1,247S87.3,493.1,87.3,356.7c0-103.1,63.2-191.5,152.9-228.5
			c60.3-24.7,127.9-24.7,188.2,0C518.3,165.2,581.5,253.6,581.5,356.7z"/>
		<path class="st75" d="M580.2,355.4c0,136.4-110.6,247-247.1,247S86,491.8,86,355.4c0-103.1,63.2-191.5,152.9-228.5
			c60.3-24.8,127.9-24.8,188.2,0C517,164,580.2,252.3,580.2,355.4z"/>
		<path class="st76" d="M578.9,354.1c0,136.4-110.6,247.1-247.1,247.1S84.7,490.6,84.7,354.2c0-103.1,63.2-191.5,152.9-228.5
			c60.3-24.7,127.9-24.7,188.2,0C515.7,162.7,578.9,251,578.9,354.1z"/>
		<path class="st77" d="M577.5,352.8c0,136.4-110.6,247-247.1,247S83.3,489.2,83.3,352.8c0-103.1,63.2-191.5,152.9-228.5
			c60.3-24.8,127.9-24.8,188.2,0C514.4,161.4,577.5,249.7,577.5,352.8z"/>
		<path class="st78" d="M576.2,351.6c0,136.4-110.6,247-247.1,247S82,488,82,351.6c0-103.1,63.2-191.5,152.9-228.5
			c60.3-24.8,127.9-24.8,188.2,0C513.1,160.1,576.2,248.4,576.2,351.6z"/>
		<path class="st79" d="M574.9,350.3c0,136.4-110.6,247.1-247.1,247.1s-247-110.6-247-247c0-103.1,63.2-191.5,152.9-228.5
			c60.3-24.7,127.9-24.7,188.2,0C511.8,158.8,574.9,247.1,574.9,350.3z"/>
		<path class="st80" d="M573.6,349c0,136.4-110.6,247-247.1,247S79.4,485.4,79.4,349c0-103.1,63.2-191.5,152.9-228.5
			c60.3-24.7,127.9-24.7,188.2,0C510.4,157.5,573.6,245.9,573.6,349z"/>
		<path class="st81" d="M572.3,347.7c0,136.4-110.6,247.1-247,247.1S78.2,484.1,78.2,347.7c0-103.1,63.2-191.5,152.9-228.5
			c60.3-24.7,127.9-24.7,188.2,0C509.1,156.2,572.3,244.6,572.3,347.7z"/>
		<path class="st82" d="M571,346.4c0,136.4-110.6,247.1-247.1,247.1S76.8,482.9,76.8,346.5C76.8,243.4,140,155,229.7,118
			c60.3-24.8,127.9-24.8,188.2,0C507.8,154.9,571,243.3,571,346.4z"/>
		<path class="st83" d="M569.7,345.1c0,136.4-110.6,247.1-247.1,247.1S75.5,481.5,75.5,345.2c0-103.1,63.2-191.5,152.9-228.5
			c60.3-24.7,127.9-24.7,188.2,0C506.5,153.6,569.7,242,569.7,345.1z"/>
		<path class="st84" d="M568.4,343.8c0,136.4-110.6,247.1-247.1,247.1S74.2,480.3,74.2,343.9c0-103.1,63.2-191.5,152.9-228.5
			c60.3-24.7,127.9-24.7,188.2,0C505.2,152.3,568.4,240.7,568.4,343.8z"/>
		<path class="st85" d="M567,342.5c0,136.4-110.6,247.1-247.1,247.1c-136.4,0-247.1-110.6-247.1-247c0-103.1,63.2-191.5,152.9-228.5
			c60.3-24.8,127.9-24.8,188.2,0C503.9,151,567,239.4,567,342.5z"/>
		<path class="st86" d="M565.7,341.2c0,136.4-110.6,247-247.1,247S71.5,477.6,71.5,341.2c0-103.1,63.2-191.5,152.9-228.5
			c60.3-24.7,127.9-24.7,188.2,0C502.6,149.8,565.7,238.1,565.7,341.2z"/>
		<path class="st87" d="M564.4,339.9c0,136.4-110.6,247.1-247.1,247.1s-247-110.6-247-247.1c0-103.1,63.2-191.5,152.9-228.5
			c60.3-24.8,127.9-24.8,188.2,0C501.2,148.5,564.4,236.8,564.4,339.9z"/>
		<path class="st88" d="M563.1,338.6c0,136.4-110.6,247.1-247.1,247.1S69,475.1,69,338.6c0-103.1,63.2-191.5,152.9-228.5
			c60.3-24.8,127.9-24.8,188.2,0C499.9,147.2,563.1,235.5,563.1,338.6z"/>
		<path class="st89" d="M561.8,337.3c0,136.4-110.6,247-247.1,247S67.6,473.7,67.6,337.3c0-103.1,63.2-191.5,152.9-228.5
			c60.3-24.7,127.9-24.7,188.2,0C498.6,145.9,561.8,234.2,561.8,337.3z"/>
		<path class="st90" d="M560.5,336.1c0,136.4-110.6,247.1-247.1,247.1S66.3,472.6,66.3,336.2c0-103.1,63.2-191.5,152.9-228.5
			c60.3-24.7,127.9-24.7,188.2,0C497.3,144.6,560.5,232.9,560.5,336.1z"/>
		<path class="st91" d="M559.2,334.8c0,136.4-110.6,247.1-247.1,247.1S65,471.3,65,334.9c0-103.1,63.2-191.5,152.9-228.5
			c60.3-24.7,127.9-24.7,188.2,0C496,143.3,559.2,231.6,559.2,334.8z"/>
		<path class="st92" d="M557.9,333.5c0,136.4-110.6,247-247.1,247S63.7,469.9,63.7,333.5c0-103.1,63.2-191.5,152.9-228.5
			c60.3-24.8,127.9-24.8,188.2,0C494.7,142,557.9,230.4,557.9,333.5z"/>
		<path class="st93" d="M556.5,332.2c0,136.4-110.6,247.1-247.1,247.1S62.3,468.7,62.3,332.3c0-103.1,63.2-191.5,152.9-228.5
			c60.3-24.7,127.9-24.7,188.2,0C493.4,140.7,556.5,229.1,556.5,332.2z"/>
		<path class="st94" d="M555.2,330.9c0,136.4-110.6,247-247.1,247S61,467.3,61,330.9c0-103.1,63.2-191.5,152.9-228.5
			c60.3-24.7,127.9-24.7,188.2,0C492.1,139.4,555.2,227.8,555.2,330.9z"/>
		<path class="st95" d="M553.9,329.6c0,136.4-110.6,247.1-247.1,247.1S59.7,466.1,59.7,329.7c0-103.1,63.2-191.5,152.9-228.5
			c60.3-24.8,127.9-24.8,188.2,0C490.8,138.1,553.9,226.5,553.9,329.6z"/>
		<path class="st96" d="M552.6,328.3c0,136.4-110.6,247.1-247.1,247.1S58.4,464.8,58.4,328.3c0-103.1,63.2-191.5,152.9-228.5
			c60.3-24.7,127.9-24.7,188.2,0C489.4,136.9,552.6,225.2,552.6,328.3z"/>
		<path class="st97" d="M551.3,327c0,136.4-110.6,247.1-247.1,247.1S57.1,463.5,57.1,327.1C57.1,224,120.3,135.6,210,98.6
			c60.3-24.8,127.9-24.8,188.2,0C488.1,135.6,551.3,223.9,551.3,327z"/>
		<path class="st98" d="M550,325.7c0,136.4-110.6,247-247.1,247S55.8,462.1,55.8,325.7c0-103.1,63.2-191.5,152.9-228.5
			c60.3-24.8,127.9-24.8,188.2,0C486.8,134.3,550,222.6,550,325.7z"/>
		<path class="st99" d="M548.7,324.4c0,136.4-110.6,247.1-247.1,247.1S54.5,460.9,54.5,324.5C54.5,221.4,117.7,133,207.4,96
			c60.3-24.7,127.9-24.7,188.2,0C485.5,133,548.7,221.3,548.7,324.4z"/>
		<path class="st100" d="M547.4,323.1c0,136.4-110.6,247-247.1,247S53.2,459.5,53.2,323.1c0-103.1,63.2-191.5,152.9-228.5
			c60.3-24.7,127.9-24.7,188.2,0C484.2,131.7,547.4,220,547.4,323.1z"/>
		<path class="st101" d="M546,321.9C546,458.3,435.4,569,298.9,569S51.8,458.4,51.8,322c0-103.1,63.2-191.5,152.9-228.5
			c60.3-24.7,127.9-24.7,188.2,0C482.9,130.4,546,218.7,546,321.9z"/>
		<path class="st102" d="M544.7,320.6c0,136.4-110.6,247.1-247.1,247.1S50.5,457.1,50.5,320.7c0-103.1,63.2-191.5,152.9-228.5
			c60.3-24.8,127.9-24.8,188.2,0C481.6,129.1,544.7,217.5,544.7,320.6z"/>
	</g>
	<path class="st103" d="M544.7,320.6c0,136.4-110.6,247.1-247.1,247.1S50.5,457.1,50.5,320.7c0-103.1,63.2-191.5,152.9-228.5
		c60.3-24.8,127.9-24.8,188.2,0C481.6,129.1,544.7,217.5,544.7,320.6z"/>
	<path class="st104" d="M297.8,602.1h-0.2c-3.8,0-7.7-0.1-11.5-0.2l0.1-2.3c3.8,0.2,7.6,0.2,11.4,0.2L297.8,602.1z M309.5,601.9
		l-0.1-2.3c3.8-0.2,7.7-0.4,11.5-0.7l0.2,2.3C317.2,601.5,313.3,601.7,309.5,601.9L309.5,601.9L309.5,601.9z M274.6,601.2
		c-3.9-0.3-7.8-0.7-11.6-1.2l0.3-2.3c3.8,0.5,7.6,0.8,11.5,1.2L274.6,601.2z M332.7,600l-0.3-2.3c3.8-0.5,7.6-1,11.4-1.6l0.4,2.3
		C340.3,598.9,336.5,599.5,332.7,600L332.7,600z M251.5,598.3c-3.8-0.6-7.7-1.3-11.5-2.1l0.5-2.3c3.7,0.8,7.6,1.5,11.3,2.1
		L251.5,598.3z M355.5,596.1l-0.5-2.3c3.8-0.8,7.5-1.6,11.2-2.6l0.6,2.2C363.2,594.5,359.4,595.4,355.5,596.1z M228.7,593.6
		c-3.7-0.9-7.5-2-11.2-3.1l0.7-2.2c3.7,1.1,7.4,2.1,11.1,3L228.7,593.6z M378.1,590.4l-0.6-2.2c3.7-1.1,7.4-2.3,11-3.5l0.7,2.2
		C385.5,588.1,381.8,589.3,378.1,590.4L378.1,590.4z M206.4,587c-3.7-1.2-7.4-2.6-10.9-4l0.8-2.2c3.6,1.4,7.2,2.7,10.9,4L206.4,587z
		 M400.1,582.9l-0.8-2.2c3.6-1.4,7.1-2.9,10.6-4.4l0.9,2.1C407.3,580,403.7,581.5,400.1,582.9L400.1,582.9z M184.7,578.5
		c-3.6-1.6-7.1-3.2-10.6-4.9l1-2.1c3.4,1.6,7,3.3,10.5,4.9L184.7,578.5z M421.3,573.5l-1-2.1c3.4-1.7,6.9-3.5,10.2-5.3l1.1,2
		C428.4,570,424.9,571.8,421.3,573.5L421.3,573.5z M163.7,568.3c-3.4-1.8-6.8-3.8-10.1-5.7l1.2-2c3.3,2,6.7,3.9,10,5.7L163.7,568.3z
		 M441.8,562.4l-1.2-2c3.3-2,6.6-4,9.8-6.1l1.3,1.9C448.5,558.4,445.2,560.4,441.8,562.4L441.8,562.4z M143.7,556.4
		c-3.3-2.1-6.5-4.3-9.6-6.5l1.4-1.9c3.1,2.2,6.3,4.4,9.5,6.5L143.7,556.4z M461.3,549.7l-1.4-1.9c3.1-2.2,6.2-4.5,9.2-6.9l1.4,1.8
		C467.6,545.1,464.4,547.5,461.3,549.7L461.3,549.7z M124.8,542.8c-3-2.4-6.1-4.8-9-7.4l1.5-1.8c2.9,2.5,5.9,4.9,9,7.3L124.8,542.8z
		 M479.6,535.4l-1.5-1.8c2.9-2.5,5.8-5.1,8.6-7.6l1.6,1.7C485.5,530.3,482.6,532.9,479.6,535.4L479.6,535.4z M107,527.8
		c-2.9-2.6-5.7-5.3-8.4-8l1.6-1.6c2.7,2.7,5.5,5.4,8.3,8L107,527.8z M496.7,519.7l-1.6-1.6c2.7-2.7,5.4-5.5,8-8.3l1.7,1.6
		C502.2,514.1,499.5,516.9,496.7,519.7L496.7,519.7z M90.6,511.3c-2.6-2.8-5.2-5.7-7.7-8.7l1.8-1.5c2.5,2.9,5,5.8,7.6,8.6
		L90.6,511.3z M512.5,502.5l-1.8-1.5c2.5-2.9,4.9-5.9,7.3-9l1.8,1.4C517.5,496.6,515,499.6,512.5,502.5z M75.6,493.6
		c-2.4-3-4.7-6.2-7-9.3l1.9-1.3c2.2,3.1,4.6,6.2,6.9,9.2L75.6,493.6z M526.8,484.2l-1.9-1.3c2.2-3.1,4.4-6.3,6.6-9.5l1.9,1.3
		C531.3,477.8,529.1,481,526.8,484.2z M62,474.7c-2.1-3.3-4.2-6.5-6.2-9.8l2-1.2c1.9,3.3,4,6.5,6.1,9.8L62,474.7z M539.6,464.7
		l-2-1.2c1.9-3.3,3.9-6.6,5.7-10l2,1.1C543.5,458,541.5,461.4,539.6,464.7L539.6,464.7z M50.1,454.8c-1.9-3.4-3.6-6.9-5.3-10.3
		l2.1-1c1.6,3.4,3.4,6.9,5.3,10.2L50.1,454.8z M550.7,444.2l-2.1-1c1.7-3.5,3.3-7,4.9-10.5l2.1,0.9
		C554,437.2,552.4,440.7,550.7,444.2L550.7,444.2z M39.9,433.9c-1.6-3.5-3-7.1-4.5-10.7l2.2-0.8c1.4,3.6,2.9,7.1,4.4,10.6
		L39.9,433.9z M560,422.9l-2.2-0.8c1.4-3.5,2.7-7.2,4-10.8l2.2,0.8C562.8,415.7,561.4,419.3,560,422.9L560,422.9z M31.4,412.3
		c-1.3-3.7-2.5-7.4-3.6-11.1l2.2-0.7c1.1,3.6,2.3,7.4,3.5,11L31.4,412.3z M567.6,400.9l-2.2-0.7c1.1-3.7,2.1-7.4,3.1-11.1l2.2,0.6
		C569.7,393.4,568.7,397.2,567.6,400.9L567.6,400.9z M24.8,390c-1-3.8-1.8-7.6-2.6-11.3l2.3-0.5c0.8,3.7,1.6,7.5,2.6,11.2L24.8,390z
		 M573.3,378.4l-2.3-0.5c0.8-3.7,1.5-7.5,2.1-11.3l2.3,0.4C574.8,370.7,574.1,374.6,573.3,378.4z M20,367.2
		c-0.6-3.8-1.2-7.7-1.7-11.5l2.3-0.3c0.5,3.8,1,7.6,1.6,11.4L20,367.2z M577.1,355.4l-2.3-0.3c0.5-3.8,0.8-7.6,1.2-11.5l2.3,0.2
		C577.9,347.7,577.5,351.6,577.1,355.4L577.1,355.4z M17.1,344.1c-0.3-3.8-0.6-7.7-0.7-11.6l2.3-0.1c0.2,3.9,0.4,7.7,0.7,11.5
		L17.1,344.1z M579,332.2l-2.3-0.1c0.2-3.8,0.2-7.7,0.2-11.5h2.3C579.2,324.4,579.1,328.3,579,332.2z M18.5,320.9h-2.3v-0.3
		c0-3.8,0.1-7.6,0.2-11.3l2.3,0.1c-0.1,3.7-0.2,7.5-0.2,11.2V320.9z M576.7,308.5c-0.2-3.8-0.4-7.7-0.7-11.5l2.3-0.2
		c0.3,3.9,0.6,7.8,0.7,11.6L576.7,308.5z M19.4,297.8l-2.3-0.2c0.3-3.9,0.7-7.8,1.2-11.6l2.3,0.3C20.1,290.2,19.7,294,19.4,297.8
		L19.4,297.8z M574.7,285.4c-0.5-3.8-1-7.6-1.6-11.5l2.3-0.4c0.6,3.8,1.2,7.7,1.7,11.5L574.7,285.4z M22.2,274.9l-2.3-0.4
		c0.6-3.8,1.3-7.7,2.1-11.5l2.3,0.5C23.5,267.4,22.8,271.2,22.2,274.9L22.2,274.9z M570.9,262.7c-0.8-3.7-1.6-7.5-2.6-11.2l2.2-0.6
		c0.9,3.8,1.8,7.5,2.6,11.3L570.9,262.7z M26.9,252.3l-2.2-0.6c0.9-3.8,2-7.6,3.1-11.2l2.2,0.7C28.8,244.9,27.8,248.6,26.9,252.3z
		 M565.2,240.4c-1.1-3.7-2.3-7.4-3.5-11l2.2-0.8c1.3,3.6,2.5,7.4,3.6,11L565.2,240.4z M33.4,230.2l-2.2-0.7c1.3-3.7,2.6-7.4,4-11
		l2.2,0.8C36,222.9,34.7,226.6,33.4,230.2L33.4,230.2z M557.7,218.6c-1.4-3.5-2.9-7.1-4.4-10.6l2.1-0.9c1.6,3.5,3.1,7.1,4.5,10.7
		L557.7,218.6z M41.8,208.7l-2.1-0.9c1.5-3.5,3.2-7.1,4.9-10.6l2.1,1C44.9,201.6,43.3,205.2,41.8,208.7L41.8,208.7L41.8,208.7z
		 M548.4,197.5c-1.6-3.4-3.4-6.8-5.3-10.2l2-1.1c1.9,3.4,3.6,6.9,5.3,10.3L548.4,197.5z M51.9,187.9l-2-1.1
		c1.8-3.4,3.8-6.8,5.7-10.1l2,1.2C55.7,181.2,53.7,184.5,51.9,187.9z M537.4,177.3c-2-3.3-4-6.6-6.1-9.8l1.9-1.3
		c2.1,3.2,4.2,6.6,6.2,9.8L537.4,177.3z M63.7,168l-1.9-1.3c2.1-3.2,4.3-6.5,6.6-9.6l1.9,1.3C68,161.6,65.8,164.9,63.7,168L63.7,168
		z M524.7,158c-2.2-3.1-4.6-6.2-6.9-9.2l1.8-1.4c2.4,3.1,4.7,6.2,7,9.3L524.7,158z M77.2,149.3l-1.8-1.4c2.4-3,4.8-6.1,7.4-9
		l1.8,1.5C81.9,143.2,79.5,146.2,77.2,149.3z M510.5,139.8c-2.5-2.9-5-5.8-7.6-8.6l1.7-1.6c2.6,2.9,5.2,5.8,7.7,8.7L510.5,139.8z
		 M92.1,131.7l-1.7-1.6c2.6-2.8,5.3-5.7,8.1-8.4l1.6,1.6C97.3,126,94.6,128.9,92.1,131.7L92.1,131.7z M494.9,122.9
		c-2.7-2.7-5.5-5.4-8.3-8l1.6-1.7c2.9,2.6,5.7,5.3,8.4,8.1L494.9,122.9z M108.4,115.3l-1.6-1.7c2.8-2.6,5.7-5.2,8.7-7.7l1.5,1.8
		C114.1,110.2,111.2,112.7,108.4,115.3z M477.9,107.3c-2.9-2.5-5.9-4.9-9-7.3l1.4-1.8c3.1,2.4,6.1,4.8,9,7.4L477.9,107.3z
		 M125.9,100.4l-1.4-1.8c3-2.4,6.2-4.7,9.3-7l1.4,1.9C132.1,95.7,129,98,125.9,100.4L125.9,100.4z M459.6,93.1
		c-3.1-2.2-6.3-4.4-9.5-6.6l1.3-1.9c3.3,2.1,6.5,4.3,9.6,6.6L459.6,93.1z M144.7,87l-1.3-1.9c3.2-2.1,6.6-4.2,9.8-6.2l1.2,2
		C151.2,82.8,147.9,84.9,144.7,87L144.7,87z M440.3,80.5c-3.3-2-6.7-3.9-10-5.7l1.1-2c3.4,1.8,6.8,3.8,10.1,5.7L440.3,80.5z
		 M164.5,75.1l-1.1-2c3.4-1.8,6.9-3.6,10.3-5.3l1,2.1C171.3,71.5,167.8,73.3,164.5,75.1L164.5,75.1z M420,69.5
		c-3.4-1.7-7-3.3-10.5-4.8l0.9-2.1c3.5,1.6,7.1,3.2,10.6,4.9L420,69.5z M185.2,64.9l-0.9-2.1c2.1-0.9,4.1-1.8,6.2-2.6
		c1.5-0.6,3.1-1.2,4.6-1.8l0.8,2.2c-1.5,0.6-3,1.2-4.5,1.8C189.2,63.2,187.2,64.1,185.2,64.9L185.2,64.9z M398.8,60.2
		c-3.6-1.4-7.2-2.7-10.8-4l0.7-2.2c3.6,1.2,7.4,2.6,10.9,4L398.8,60.2z M206.6,56.5l-0.8-2.2c3.6-1.3,7.4-2.5,11.1-3.6l0.7,2.2
		C213.9,54.1,210.3,55.3,206.6,56.5L206.6,56.5z M377,52.8c-3.7-1.1-7.4-2.1-11.1-3l0.6-2.2c3.7,0.9,7.5,2,11.2,3.1L377,52.8z
		 M228.7,49.9l-0.6-2.2c3.8-0.9,7.6-1.8,11.3-2.6l0.5,2.3C236.2,48.1,232.5,49,228.7,49.9z M354.6,47.2c-3.8-0.8-7.6-1.5-11.4-2.1
		l0.4-2.3c3.8,0.6,7.7,1.3,11.5,2.1L354.6,47.2z M251.3,45.2l-0.4-2.3c3.8-0.6,7.7-1.2,11.5-1.7l0.3,2.3
		C259,44,255.1,44.5,251.3,45.2L251.3,45.2z M331.8,43.4c-3.8-0.5-7.7-0.9-11.5-1.2l0.2-2.3c3.8,0.3,7.7,0.7,11.6,1.2L331.8,43.4z
		 M274.2,42.3L274,40c3.9-0.3,7.8-0.6,11.6-0.7l0.1,2.3C281.9,41.8,278,42,274.2,42.3z M308.8,41.5c-3.7-0.2-7.4-0.2-11.1-0.2h-0.4
		V39h0.4c3.7,0,7.5,0.1,11.2,0.2L308.8,41.5z"/>
	<path d="M305.9,40L305.9,40l-0.1,17.4c33.2,2.4,65.3,8.9,95.3,21c97.7,40.7,161.5,136.1,161.9,242l17.4-0.1v0.1l17.4-0.1
		c0-0.8-0.1-1.6-0.1-2.3l0,0c-1.3-123.4-78.6-233.3-194.4-276l0,0l-0.3-0.1c-5.5-2-11-3.9-16.5-5.5c-25.1-7.8-51.2-13-78-13.6l0,0
		c-0.8,0-1.5-0.1-2.3-0.1L305.9,40z"/>
</g>
</svg>
