<?xml version="1.0" encoding="utf-8"?>
<!-- Generator: Adobe Illustrator 26.1.0, SVG Export Plug-In . SVG Version: 6.00 Build 0)  -->
<svg width="200" version="1.1" id="Layer_1" xmlns="http://www.w3.org/2000/svg" xmlns:xlink="http://www.w3.org/1999/xlink" x="0px" y="0px"
	 viewBox="0 0 705.1 779.9" style="enable-background:new 0 0 705.1 779.9;" xml:space="preserve">
<style type="text/css">
	.st0{opacity:0.36;}
	.st1{fill:#FFFFFF;fill-opacity:0;}
	.st2{opacity:1.000000e-02;fill:#FDFDFD;enable-background:new    ;}
	.st3{opacity:2.000000e-02;fill:#FCFCFC;enable-background:new    ;}
	.st4{opacity:3.000000e-02;fill:#FAFAFA;enable-background:new    ;}
	.st5{opacity:4.000000e-02;fill:#F9F9F9;enable-background:new    ;}
	.st6{opacity:5.000000e-02;fill:#F7F7F7;enable-background:new    ;}
	.st7{opacity:6.000000e-02;fill:#F6F6F6;enable-background:new    ;}
	.st8{opacity:7.000000e-02;fill:#F4F4F4;enable-background:new    ;}
	.st9{opacity:8.000000e-02;fill:#F3F3F3;enable-background:new    ;}
	.st10{opacity:9.000000e-02;fill:#F1F1F1;enable-background:new    ;}
	.st11{opacity:0.1;fill:#F0F0F0;enable-background:new    ;}
	.st12{opacity:0.11;fill:#EEEEEE;enable-background:new    ;}
	.st13{opacity:0.12;fill:#EDEDED;enable-background:new    ;}
	.st14{opacity:0.13;fill:#EBEBEB;enable-background:new    ;}
	.st15{opacity:0.14;fill:#EAEAEA;enable-background:new    ;}
	.st16{opacity:0.15;fill:#E8E8E8;enable-background:new    ;}
	.st17{opacity:0.16;fill:#E7E7E7;enable-background:new    ;}
	.st18{opacity:0.17;fill:#E5E5E5;enable-background:new    ;}
	.st19{opacity:0.18;fill:#E4E4E4;enable-background:new    ;}
	.st20{opacity:0.19;fill:#E2E2E2;enable-background:new    ;}
	.st21{opacity:0.2;fill:#E1E1E1;enable-background:new    ;}
	.st22{opacity:0.21;fill:#DFDFDF;enable-background:new    ;}
	.st23{opacity:0.22;fill:#DEDEDE;enable-background:new    ;}
	.st24{opacity:0.23;fill:#DCDCDC;enable-background:new    ;}
	.st25{opacity:0.24;fill:#DBDBDB;enable-background:new    ;}
	.st26{opacity:0.25;fill:#D9D9D9;enable-background:new    ;}
	.st27{opacity:0.26;fill:#D8D8D8;enable-background:new    ;}
	.st28{opacity:0.27;fill:#D6D6D6;enable-background:new    ;}
	.st29{opacity:0.28;fill:#D5D5D5;enable-background:new    ;}
	.st30{opacity:0.29;fill:#D3D3D3;enable-background:new    ;}
	.st31{opacity:0.3;fill:#D2D2D2;enable-background:new    ;}
	.st32{opacity:0.31;fill:#D0D0D0;enable-background:new    ;}
	.st33{opacity:0.32;fill:#CFCFCF;enable-background:new    ;}
	.st34{opacity:0.33;fill:#CDCDCD;enable-background:new    ;}
	.st35{opacity:0.34;fill:#CBCBCB;enable-background:new    ;}
	.st36{opacity:0.35;fill:#CACACA;enable-background:new    ;}
	.st37{opacity:0.36;fill:#C8C8C8;enable-background:new    ;}
	.st38{opacity:0.37;fill:#C7C7C7;enable-background:new    ;}
	.st39{opacity:0.38;fill:#C5C5C5;enable-background:new    ;}
	.st40{opacity:0.39;fill:#C4C4C4;enable-background:new    ;}
	.st41{opacity:0.4;fill:#C2C2C2;enable-background:new    ;}
	.st42{opacity:0.41;fill:#C1C1C1;enable-background:new    ;}
	.st43{opacity:0.42;fill:#BFBFBF;enable-background:new    ;}
	.st44{opacity:0.43;fill:#BEBEBE;enable-background:new    ;}
	.st45{opacity:0.44;fill:#BCBCBC;enable-background:new    ;}
	.st46{opacity:0.45;fill:#BBBBBB;enable-background:new    ;}
	.st47{opacity:0.46;fill:#B9B9B9;enable-background:new    ;}
	.st48{opacity:0.47;fill:#B8B8B8;enable-background:new    ;}
	.st49{opacity:0.48;fill:#B6B6B6;enable-background:new    ;}
	.st50{opacity:0.49;fill:#B5B5B5;enable-background:new    ;}
	.st51{opacity:0.5;fill:#B3B3B3;enable-background:new    ;}
	.st52{opacity:0.5;fill:#B2B2B2;enable-background:new    ;}
	.st53{opacity:0.51;fill:#B0B0B0;enable-background:new    ;}
	.st54{opacity:0.52;fill:#AFAFAF;enable-background:new    ;}
	.st55{opacity:0.53;fill:#ADADAD;enable-background:new    ;}
	.st56{opacity:0.54;fill:#ACACAC;enable-background:new    ;}
	.st57{opacity:0.55;fill:#AAAAAA;enable-background:new    ;}
	.st58{opacity:0.56;fill:#A9A9A9;enable-background:new    ;}
	.st59{opacity:0.57;fill:#A7A7A7;enable-background:new    ;}
	.st60{opacity:0.58;fill:#A6A6A6;enable-background:new    ;}
	.st61{opacity:0.59;fill:#A4A4A4;enable-background:new    ;}
	.st62{opacity:0.6;fill:#A3A3A3;enable-background:new    ;}
	.st63{opacity:0.61;fill:#A1A1A1;enable-background:new    ;}
	.st64{opacity:0.62;fill:#A0A0A0;enable-background:new    ;}
	.st65{opacity:0.63;fill:#9E9E9E;enable-background:new    ;}
	.st66{opacity:0.64;fill:#9D9D9D;enable-background:new    ;}
	.st67{opacity:0.65;fill:#9B9B9B;enable-background:new    ;}
	.st68{opacity:0.66;fill:#9A9A9A;enable-background:new    ;}
	.st69{opacity:0.67;fill:#989898;enable-background:new    ;}
	.st70{opacity:0.68;fill:#969696;enable-background:new    ;}
	.st71{opacity:0.69;fill:#959595;enable-background:new    ;}
	.st72{opacity:0.7;fill:#939393;enable-background:new    ;}
	.st73{opacity:0.71;fill:#929292;enable-background:new    ;}
	.st74{opacity:0.72;fill:#909090;enable-background:new    ;}
	.st75{opacity:0.73;fill:#8F8F8F;enable-background:new    ;}
	.st76{opacity:0.74;fill:#8D8D8D;enable-background:new    ;}
	.st77{opacity:0.75;fill:#8C8C8C;enable-background:new    ;}
	.st78{opacity:0.76;fill:#8A8A8A;enable-background:new    ;}
	.st79{opacity:0.77;fill:#898989;enable-background:new    ;}
	.st80{opacity:0.78;fill:#878787;enable-background:new    ;}
	.st81{opacity:0.79;fill:#868686;enable-background:new    ;}
	.st82{opacity:0.8;fill:#848484;enable-background:new    ;}
	.st83{opacity:0.81;fill:#838383;enable-background:new    ;}
	.st84{opacity:0.82;fill:#818181;enable-background:new    ;}
	.st85{opacity:0.83;fill:#808080;enable-background:new    ;}
	.st86{opacity:0.84;fill:#7E7E7E;enable-background:new    ;}
	.st87{opacity:0.85;fill:#7D7D7D;enable-background:new    ;}
	.st88{opacity:0.86;fill:#7B7B7B;enable-background:new    ;}
	.st89{opacity:0.87;fill:#7A7A7A;enable-background:new    ;}
	.st90{opacity:0.88;fill:#787878;enable-background:new    ;}
	.st91{opacity:0.89;fill:#777777;enable-background:new    ;}
	.st92{opacity:0.9;fill:#757575;enable-background:new    ;}
	.st93{opacity:0.91;fill:#747474;enable-background:new    ;}
	.st94{opacity:0.92;fill:#727272;enable-background:new    ;}
	.st95{opacity:0.93;fill:#717171;enable-background:new    ;}
	.st96{opacity:0.94;fill:#6F6F6F;enable-background:new    ;}
	.st97{opacity:0.95;fill:#6E6E6E;enable-background:new    ;}
	.st98{opacity:0.96;fill:#6C6C6C;enable-background:new    ;}
	.st99{opacity:0.97;fill:#6B6B6B;enable-background:new    ;}
	.st100{opacity:0.98;fill:#696969;enable-background:new    ;}
	.st101{opacity:0.99;fill:#686868;enable-background:new    ;}
	.st102{fill:#666666;}
	.st103{fill:#FFFFFF;}
	.st104{fill:#808080;}
	.st105{fill:#EF5A28;}
</style>
<g>
	<g class="st0">
		<path class="st1" d="M711.8,452.6c0,136.5-110.6,247.1-247,247.1S217.7,589.1,217.7,452.6c0-103.1,63.2-191.5,152.9-228.5
			c60.3-24.8,127.9-24.8,188.2,0C648.6,261.2,711.8,349.5,711.8,452.6z"/>
		<path class="st2" d="M710.5,451.3c0,136.4-110.6,247-247,247s-247.1-110.5-247.1-247c0-103.1,63.2-191.5,152.9-228.5
			c60.3-24.8,127.9-24.8,188.2,0C647.3,259.9,710.5,348.2,710.5,451.3z"/>
		<path class="st3" d="M709.2,450.1c0,136.4-110.6,247.1-247,247.1S215.1,586.5,215.1,450.1c0-103.1,63.2-191.5,152.9-228.5
			c60.3-24.7,127.9-24.7,188.2,0C646,258.6,709.2,346.9,709.2,450.1z"/>
		<path class="st4" d="M707.8,448.8c0,136.4-110.6,247.1-247,247.1s-247-110.6-247-247.1c0-103.1,63.2-191.5,152.9-228.5
			c60.3-24.8,127.9-24.8,188.2,0C644.7,257.3,707.8,345.6,707.8,448.8z"/>
		<path class="st5" d="M706.5,447.5c0,136.4-110.6,247.1-247,247.1s-247-110.7-247-247.1c0-103.1,63.2-191.5,152.9-228.5
			c60.3-24.7,127.9-24.7,188.2,0C643.4,256,706.5,344.4,706.5,447.5z"/>
		<path class="st6" d="M705.2,446.2c0,136.4-110.6,247-247,247s-247-110.6-247-247c0-103.1,63.2-191.5,152.9-228.5
			c60.3-24.7,127.9-24.7,188.3,0C642.1,254.7,705.2,343.1,705.2,446.2z"/>
		<path class="st7" d="M703.9,444.9c0,136.4-110.6,247.1-247,247.1s-247-110.6-247-247.1c0-103.1,63.2-191.5,152.9-228.5
			c60.3-24.8,127.9-24.8,188.2,0C640.7,253.4,703.9,341.8,703.9,444.9z"/>
		<path class="st8" d="M702.6,443.6c0,136.4-110.6,247-247,247s-247-110.6-247-247c0-103.1,63.2-191.5,152.9-228.5
			c60.3-24.7,127.9-24.7,188.3,0C639.5,252.1,702.6,340.5,702.6,443.6z"/>
		<path class="st9" d="M701.3,442.3c0,136.4-110.6,247-247,247s-247-110.6-247-247c0-103.1,63.2-191.5,152.9-228.5
			c60.3-24.7,127.9-24.7,188.2,0C638.1,250.8,701.3,339.2,701.3,442.3z"/>
		<path class="st10" d="M700,441c0,136.4-110.6,247.1-247,247.1S206,577.5,206,441c0-103.1,63.2-191.5,152.9-228.5
			c60.3-24.7,127.9-24.7,188.3,0C636.8,249.6,700,337.9,700,441z"/>
		<path class="st11" d="M698.7,439.7c0,136.4-110.6,247-247,247s-247.1-110.6-247.1-247c0-103.1,63.2-191.5,152.9-228.5
			c60.3-24.8,127.9-24.8,188.2,0C635.5,248.3,698.7,336.6,698.7,439.7z"/>
		<path class="st12" d="M697.4,438.4c0,136.4-110.6,247-247,247s-247-110.6-247-247c0-103.1,63.2-191.5,152.9-228.5
			c60.3-24.8,127.9-24.8,188.2,0C634.2,247,697.4,335.3,697.4,438.4z"/>
		<path class="st13" d="M696,437.1c0,136.4-110.6,247.1-247,247.1S202,573.6,202,437.1c0-103.1,63.2-191.5,152.9-228.5
			c60.3-24.7,127.9-24.7,188.2,0C632.9,245.7,696,334,696,437.1z"/>
		<path class="st14" d="M694.7,435.9c0,136.4-110.6,247-247,247s-247.1-110.6-247.1-247c0-103.1,63.2-191.5,152.9-228.5
			c60.3-24.8,127.9-24.8,188.3,0C631.6,244.4,694.7,332.7,694.7,435.9z"/>
		<path class="st15" d="M693.4,434.6c0,136.4-110.6,247-247,247s-247-110.6-247-247c0-103.1,63.2-191.5,152.9-228.5
			c60.3-24.7,127.9-24.7,188.2,0C630.3,243.1,693.4,331.4,693.4,434.6z"/>
		<path class="st16" d="M692.1,433.3c0,136.4-110.6,247.1-247,247.1s-247-110.6-247-247.1c0-103.1,63.2-191.5,152.9-228.5
			c60.3-24.7,127.9-24.7,188.3,0C629,241.8,692.1,330.2,692.1,433.3z"/>
		<path class="st17" d="M690.8,432c0,136.4-110.6,247.1-247,247.1s-247-110.6-247-247.1c0-103.1,63.2-191.5,152.9-228.5
			c60.3-24.8,127.9-24.8,188.2,0C627.6,240.5,690.8,328.8,690.8,432z"/>
		<path class="st18" d="M689.5,430.7c0,136.4-110.6,247.1-247,247.1s-247-110.6-247-247.1c0-103.1,63.2-191.5,152.9-228.5
			c60.3-24.8,127.9-24.8,188.3,0C626.3,239.2,689.5,327.6,689.5,430.7z"/>
		<path class="st19" d="M688.2,429.4c0,136.4-110.6,247.1-247,247.1S194.1,565.8,194.1,429.4c0-103.1,63.2-191.5,152.9-228.5
			c60.3-24.7,127.9-24.7,188.2,0C625,238,688.2,326.3,688.2,429.4z"/>
		<path class="st20" d="M686.9,428.1c0,136.4-110.6,247-247,247s-247-110.6-247-247c0-103.1,63.2-191.5,152.9-228.5
			c60.3-24.7,127.9-24.7,188.3,0C623.7,236.7,686.9,325,686.9,428.1z"/>
		<path class="st21" d="M685.5,426.8c0,136.4-110.6,247.1-247,247.1s-247-110.6-247-247.1c0-103.1,63.2-191.5,152.9-228.5
			c60.3-24.8,127.9-24.8,188.2,0C622.4,235.4,685.5,323.7,685.5,426.8z"/>
		<path class="st22" d="M684.2,425.5c0,136.4-110.6,247.1-247,247.1s-247-110.6-247-247.1c0-103.1,63.2-191.5,152.9-228.5
			c60.3-24.8,127.9-24.8,188.2,0C621.1,234.1,684.2,322.4,684.2,425.5z"/>
		<path class="st23" d="M682.9,424.2c0,136.4-110.6,247-247,247s-247-110.6-247-247c0-103.1,63.2-191.5,152.9-228.5
			c60.3-24.7,127.9-24.7,188.2,0C619.8,232.8,682.9,321.1,682.9,424.2z"/>
		<path class="st24" d="M681.6,422.9c0,136.4-110.6,247.1-247,247.1S187.5,559.4,187.5,422.9c0-103.1,63.2-191.5,152.9-228.5
			c60.3-24.8,127.9-24.8,188.3,0C618.5,231.5,681.6,319.8,681.6,422.9z"/>
		<path class="st25" d="M680.3,421.7c0,136.4-110.6,247-247,247s-247-110.6-247-247c0-103.1,63.2-191.5,152.9-228.5
			c60.3-24.7,127.9-24.7,188.2,0C617.1,230.2,680.3,318.5,680.3,421.7z"/>
		<path class="st26" d="M679,420.4c0,136.4-110.6,247-247,247s-247.1-110.6-247.1-247c0-103.1,63.2-191.5,152.9-228.5
			c60.3-24.7,127.9-24.7,188.2,0C615.8,228.9,679,317.3,679,420.4z"/>
		<path class="st27" d="M677.7,419.1c0,136.5-110.6,247.1-247,247.1S183.6,555.5,183.6,419.1c0-103.1,63.2-191.5,152.9-228.5
			c60.3-24.8,127.9-24.8,188.2,0C614.5,227.6,677.7,315.9,677.7,419.1z"/>
		<path class="st28" d="M676.4,417.8c0,136.4-110.6,247-247,247s-247.1-110.6-247.1-247c0-103.1,63.2-191.5,152.9-228.5
			c60.3-24.8,127.9-24.8,188.3,0C613.2,226.3,676.4,314.7,676.4,417.8z"/>
		<path class="st29" d="M675,416.5c0,136.4-110.6,247.1-247,247.1S180.9,552.9,180.9,416.5c0-103.1,63.2-191.5,152.9-228.5
			c60.3-24.7,127.9-24.7,188.2,0C611.9,225,675,313.4,675,416.5z"/>
		<path class="st30" d="M673.7,415.2c0,136.4-110.6,247.1-247,247.1s-247-110.6-247-247.1c0-103.1,63.2-191.5,152.9-228.5
			c60.3-24.7,127.9-24.7,188.3,0C610.6,223.8,673.7,312.1,673.7,415.2z"/>
		<path class="st31" d="M672.4,413.9c0,136.4-110.6,247.1-247,247.1S178.3,550.4,178.3,413.9c0-103.1,63.2-191.5,152.9-228.5
			c60.3-24.8,127.9-24.8,188.2,0C609.3,222.4,672.4,310.8,672.4,413.9z"/>
		<path class="st32" d="M671.1,412.6c0,136.4-110.6,247-247,247s-247-110.6-247-247c0-103.1,63.2-191.5,152.9-228.5
			c60.3-24.8,127.9-24.8,188.2,0C608,221.2,671.1,309.5,671.1,412.6z"/>
		<path class="st33" d="M669.8,411.3c0,136.4-110.6,247.1-247,247.1s-247-110.6-247-247.1c0-103.1,63.2-191.5,152.9-228.5
			c60.3-24.7,127.9-24.7,188.2,0C606.6,219.9,669.8,308.2,669.8,411.3z"/>
		<path class="st34" d="M668.5,410c0,136.4-110.6,247-247,247s-247-110.6-247-247c0-103.1,63.2-191.5,152.9-228.5
			c60.3-24.8,127.9-24.8,188.3,0C605.3,218.6,668.5,306.9,668.5,410z"/>
		<path class="st35" d="M667.2,408.8c0,136.4-110.6,247-247,247s-247-110.6-247-247c0-103.1,63.2-191.5,152.9-228.5
			c60.3-24.7,127.9-24.7,188.2,0C604,217.3,667.2,305.6,667.2,408.8z"/>
		<path class="st36" d="M665.8,407.5c0,136.4-110.6,247.1-247,247.1s-247-110.6-247-247.1C171.8,304.4,235,216,324.7,179
			c60.3-24.7,127.9-24.7,188.3,0C602.7,216,665.8,304.3,665.8,407.5z"/>
		<path class="st37" d="M664.5,406.2c0,136.4-110.6,247-247,247s-247-110.6-247-247c0-103.1,63.2-191.5,152.9-228.5
			c60.3-24.8,127.9-24.8,188.2,0C601.4,214.7,664.5,303,664.5,406.2z"/>
		<path class="st38" d="M663.2,404.9c0,136.4-110.6,247.1-247,247.1s-247-110.6-247-247.1c0-103.1,63.2-191.5,152.9-228.5
			c60.3-24.8,127.9-24.8,188.3,0C600.1,213.4,663.2,301.8,663.2,404.9z"/>
		<path class="st39" d="M661.9,403.6c0,136.4-110.6,247.1-247.1,247.1s-247-110.7-247-247.1c0-103.1,63.2-191.5,152.9-228.5
			c60.3-24.8,127.9-24.8,188.2,0C598.8,212.1,661.9,300.5,661.9,403.6z"/>
		<path class="st40" d="M660.6,402.3c0,136.4-110.6,247-247,247s-247-110.6-247-247c-0.1-103.1,63.1-191.5,152.8-228.5
			c60.3-24.7,127.9-24.7,188.3,0C597.5,210.8,660.6,299.2,660.6,402.3z"/>
		<path class="st41" d="M659.3,401c0,136.4-110.6,247-247,247s-247-110.6-247-247c0-103.1,63.2-191.5,152.9-228.5
			c60.3-24.8,127.9-24.8,188.2,0C596.1,209.5,659.3,297.9,659.3,401z"/>
		<path class="st42" d="M658,399.7c0,136.4-110.6,247.1-247,247.1S164,536.2,164,399.7c0-103.1,63.2-191.5,152.9-228.5
			c60.3-24.8,127.9-24.8,188.2,0C594.8,208.3,658,296.6,658,399.7z"/>
		<path class="st43" d="M656.7,398.4c0,136.4-110.6,247.1-247,247.1s-247-110.6-247-247.1c0-103.1,63.2-191.5,152.9-228.5
			c60.3-24.7,127.9-24.7,188.2,0C593.5,207,656.7,295.3,656.7,398.4z"/>
		<path class="st44" d="M655.3,397.1c0,136.4-110.6,247.1-247.1,247.1s-247-110.6-247-247.1c0-103.1,63.2-191.5,152.9-228.5
			c60.3-24.8,127.9-24.8,188.3,0C592.2,205.7,655.3,294,655.3,397.1z"/>
		<path class="st45" d="M654,395.8c0,136.4-110.6,247.1-247,247.1S159.9,532.3,159.9,395.8c0-103.1,63.2-191.5,152.9-228.5
			c60.3-24.7,127.9-24.7,188.2,0C590.9,204.4,654,292.7,654,395.8z"/>
		<path class="st46" d="M652.7,394.6c0,136.4-110.6,247-247,247s-247-110.6-247-247c0-103.1,63.2-191.5,152.9-228.5
			c60.3-24.7,127.9-24.7,188.2,0C589.6,203.1,652.7,291.4,652.7,394.6z"/>
		<path class="st47" d="M651.4,393.3c0,136.4-110.6,247.1-247,247.1s-247-110.6-247-247.1c-0.1-103.2,63.1-191.5,152.8-228.5
			c60.3-24.8,127.9-24.8,188.2,0C588.3,201.8,651.4,290.1,651.4,393.3z"/>
		<path class="st48" d="M650.1,392c0,136.4-110.6,247.1-247,247.1s-247-110.6-247-247.1c0-103.1,63.2-191.5,152.9-228.5
			c60.3-24.8,127.9-24.8,188.3,0C587,200.5,650.1,288.8,650.1,392z"/>
		<path class="st49" d="M648.8,390.7c0,136.4-110.6,247-247,247s-247-110.6-247-247c0-103.1,63.2-191.5,152.9-228.5
			c60.3-24.8,127.9-24.8,188.2,0C585.6,199.2,648.8,287.6,648.8,390.7z"/>
		<path class="st50" d="M647.5,389.4c0,136.4-110.6,247.1-247,247.1s-247-110.6-247-247.1c0-103.1,63.2-191.5,152.9-228.5
			c60.3-24.7,127.9-24.7,188.3,0C584.3,197.9,647.5,286.3,647.5,389.4z"/>
		<path class="st51" d="M646.2,388.1c0,136.4-110.6,247-247,247s-247-110.6-247-247c0-103.1,63.2-191.5,152.9-228.5
			c60.3-24.8,127.9-24.8,188.2,0C583,196.6,646.2,285,646.2,388.1z"/>
		<path class="st52" d="M644.8,386.8c0,136.4-110.6,247-247,247s-247-110.6-247-247c0-103.1,63.2-191.5,152.9-228.5
			c60.3-24.7,127.9-24.7,188.2,0C581.7,195.3,644.8,283.7,644.8,386.8z"/>
		<path class="st53" d="M643.5,385.5c0,136.4-110.6,247.1-247,247.1S149.4,522,149.4,385.5c0-103.1,63.2-191.5,152.9-228.5
			c60.3-24.7,127.9-24.7,188.2,0C580.4,194,643.5,282.4,643.5,385.5z"/>
		<path class="st54" d="M642.2,384.2c0,136.4-110.6,247-247,247s-247.1-110.6-247.1-247c0-103.1,63.2-191.5,152.9-228.5
			c60.3-24.8,127.9-24.8,188.3,0C579.1,192.8,642.2,281.1,642.2,384.2z"/>
		<path class="st55" d="M640.9,382.9c0,136.4-110.6,247.1-247,247.1s-247-110.6-247-247.1c0-103.1,63.2-191.5,152.9-228.5
			c60.3-24.8,127.9-24.8,188.2,0C577.7,191.5,640.9,279.8,640.9,382.9z"/>
		<path class="st56" d="M639.6,381.6c0,136.4-110.6,247.1-247,247.1S145.5,518.1,145.5,381.6c0-103.1,63.2-191.5,152.9-228.5
			c60.3-24.7,127.9-24.7,188.3,0C576.4,190.2,639.6,278.5,639.6,381.6z"/>
		<path class="st57" d="M638.3,380.4c0,136.4-110.6,247-247,247s-247.1-110.6-247.1-247c0-103.1,63.2-191.5,152.9-228.5
			c60.3-24.7,127.9-24.7,188.2,0C575.1,188.9,638.3,277.3,638.3,380.4z"/>
		<path class="st58" d="M637,379.1c0,136.4-110.6,247.1-247,247.1S143,515.6,143,379.1c0-103.1,63.2-191.5,152.9-228.5
			c60.3-24.8,127.9-24.8,188.3,0C573.8,187.6,637,275.9,637,379.1z"/>
		<path class="st59" d="M635.7,377.8c0,136.4-110.6,247.1-247,247.1s-247-110.6-247-247.1c0-103.1,63.2-191.5,152.9-228.5
			c60.3-24.8,127.9-24.8,188.2,0C572.5,186.3,635.7,274.7,635.7,377.8z"/>
		<path class="st60" d="M634.3,376.5c0,136.4-110.6,247-247,247s-247.1-110.6-247.1-247c0-103.1,63.2-191.5,152.9-228.5
			c60.3-24.7,127.9-24.7,188.2,0C571.2,185,634.3,273.4,634.3,376.5z"/>
		<path class="st61" d="M633,375.2c0,136.4-110.6,247-247,247s-247.1-110.6-247.1-247c0-103.1,63.2-191.5,152.9-228.5
			c60.3-24.8,127.9-24.8,188.2,0C569.9,183.7,633,272.1,633,375.2z"/>
		<path class="st62" d="M631.7,373.9c0,136.4-110.6,247.1-247,247.1S137.6,510.3,137.6,373.9c0-103.1,63.2-191.5,152.9-228.5
			c60.3-24.7,127.9-24.7,188.3,0C568.6,182.4,631.7,270.8,631.7,373.9z"/>
		<path class="st63" d="M630.4,372.6c0,136.4-110.6,247-247,247s-247-110.6-247-247c0-103.1,63.2-191.5,152.9-228.5
			c60.3-24.7,127.9-24.7,188.2,0C567.3,181.1,630.4,269.5,630.4,372.6z"/>
		<path class="st64" d="M629.1,371.3c0,136.4-110.6,247.1-247,247.1s-247-110.6-247-247.1c0-103.1,63.2-191.5,152.9-228.5
			c60.3-24.8,127.9-24.8,188.3,0C565.9,179.9,629.1,268.2,629.1,371.3z"/>
		<path class="st65" d="M627.8,370c0,136.4-110.6,247.1-247,247.1S133.7,506.4,133.7,370c0-103.1,63.2-191.5,152.9-228.5
			c60.3-24.8,127.9-24.8,188.2,0C564.6,178.6,627.8,266.9,627.8,370z"/>
		<path class="st66" d="M626.5,368.7c0,136.4-110.6,247-247,247s-247-110.6-247-247c0-103.1,63.2-191.5,152.9-228.5
			c60.3-24.7,127.9-24.7,188.3,0C563.3,177.3,626.5,265.6,626.5,368.7z"/>
		<path class="st67" d="M625.2,367.4c0,136.4-110.6,247-247.1,247s-247-110.6-247-247c0-103.1,63.2-191.5,152.9-228.5
			c60.3-24.7,127.9-24.7,188.2,0C562,176,625.2,264.3,625.2,367.4z"/>
		<path class="st68" d="M623.8,366.2c0,136.4-110.6,247-247,247s-247.1-110.6-247.1-247c0-103.1,63.2-191.5,152.9-228.5
			c60.3-24.8,127.9-24.8,188.2,0C560.7,174.7,623.8,263,623.8,366.2z"/>
		<path class="st69" d="M622.5,364.8c0,136.4-110.6,247.1-247,247.1S128.4,501.3,128.4,364.8c0-103.1,63.2-191.5,152.9-228.5
			c60.3-24.8,127.9-24.8,188.2,0C559.4,173.4,622.5,261.7,622.5,364.8z"/>
		<path class="st70" d="M621.2,363.6c0,136.4-110.6,247.1-247,247.1S127.1,500,127.1,363.6c0-103.1,63.2-191.5,152.9-228.5
			c60.3-24.7,127.9-24.7,188.2,0C558.1,172.1,621.2,260.4,621.2,363.6z"/>
		<path class="st71" d="M619.9,362.3c0,136.4-110.6,247-247,247s-247.1-110.6-247.1-247c0-103.1,63.2-191.5,152.9-228.5
			c60.3-24.8,127.9-24.8,188.2,0C556.7,170.9,619.9,259.2,619.9,362.3z"/>
		<path class="st72" d="M618.6,361c0,136.4-110.6,247-247,247S124.5,497.4,124.5,361c0-103.1,63.2-191.5,152.9-228.5
			c60.3-24.7,127.9-24.7,188.2,0C555.4,169.5,618.6,257.9,618.6,361z"/>
		<path class="st73" d="M617.3,359.7c0,136.4-110.6,247.1-247,247.1S123.2,496.1,123.2,359.7c0-103.1,63.2-191.5,152.9-228.5
			c60.3-24.7,127.9-24.7,188.2,0C554.1,168.2,617.3,256.6,617.3,359.7z"/>
		<path class="st74" d="M616,358.4c0,136.4-110.6,247-247,247s-247-110.6-247-247c0-103.1,63.2-191.5,152.9-228.5
			c60.3-24.8,127.9-24.8,188.3,0C552.8,166.9,616,255.3,616,358.4z"/>
		<path class="st75" d="M614.7,357.1c0,136.4-110.6,247-247,247s-247.1-110.6-247.1-247c0-103.1,63.2-191.5,152.9-228.5
			c60.3-24.8,127.9-24.8,188.2,0C551.5,165.7,614.7,254,614.7,357.1z"/>
		<path class="st76" d="M613.3,355.8c0,136.4-110.6,247.1-247,247.1S119.2,492.3,119.2,355.8c0-103.1,63.2-191.5,152.9-228.5
			c60.3-24.7,127.9-24.7,188.2,0C550.2,164.4,613.3,252.7,613.3,355.8z"/>
		<path class="st77" d="M612,354.5c0,136.4-110.6,247-247,247s-247.1-110.6-247.1-247c0-103.1,63.2-191.5,152.9-228.5
			c60.3-24.7,127.9-24.7,188.2,0C548.9,163.1,612,251.4,612,354.5z"/>
		<path class="st78" d="M610.7,353.3c0,136.4-110.6,247-247,247s-247.1-110.6-247.1-247c0-103.2,63.2-191.5,152.9-228.5
			c60.3-24.8,127.9-24.8,188.2,0C547.5,161.8,610.7,250.1,610.7,353.3z"/>
		<path class="st79" d="M609.4,352c0,136.4-110.6,247.1-247,247.1S115.3,488.4,115.3,352c0-103.1,63.2-191.5,152.9-228.5
			c60.3-24.8,127.9-24.8,188.2,0C546.2,160.5,609.4,248.8,609.4,352z"/>
		<path class="st80" d="M608.1,350.7c0,136.4-110.6,247-247,247S114,487.1,114,350.7c0-103.1,63.2-191.5,152.9-228.5
			c60.3-24.7,127.9-24.7,188.2,0C545,159.2,608.1,247.6,608.1,350.7z"/>
		<path class="st81" d="M606.8,349.4c0,136.4-110.6,247.1-247,247.1S112.7,485.8,112.7,349.4c0-103.1,63.2-191.5,152.9-228.5
			c60.3-24.7,127.9-24.7,188.2,0C543.6,157.9,606.8,246.3,606.8,349.4z"/>
		<path class="st82" d="M605.5,348.1c0,136.4-110.6,247.1-247,247.1S111.4,484.5,111.4,348.1c0-103.1,63.2-191.5,152.9-228.5
			c60.3-24.8,127.9-24.8,188.2,0C542.3,156.6,605.5,245,605.5,348.1z"/>
		<path class="st83" d="M604.2,346.8c0,136.4-110.6,247.1-247,247.1S110.1,483.2,110.1,346.8c0-103.1,63.2-191.5,152.9-228.5
			c60.3-24.7,127.9-24.7,188.2,0C541,155.3,604.2,243.7,604.2,346.8z"/>
		<path class="st84" d="M602.8,345.5c0,136.4-110.6,247.1-247,247.1S108.7,481.9,108.7,345.5c0-103.1,63.2-191.5,152.9-228.5
			c60.3-24.8,127.9-24.8,188.2,0C539.7,154,602.8,242.4,602.8,345.5z"/>
		<path class="st85" d="M601.5,344.2c0,136.4-110.6,247.1-247,247.1S107.4,480.6,107.4,344.2c0-103.1,63.2-191.5,152.9-228.5
			c60.3-24.8,127.9-24.8,188.2,0C538.4,152.7,601.5,241.1,601.5,344.2z"/>
		<path class="st86" d="M600.2,342.9c0,136.4-110.6,247-247,247s-247.1-110.6-247.1-247c0-103.1,63.2-191.5,152.9-228.5
			c60.3-24.7,127.9-24.7,188.2,0C537,151.5,600.2,239.8,600.2,342.9z"/>
		<path class="st87" d="M598.9,341.6c0,136.4-110.6,247.1-247,247.1S104.8,478.1,104.8,341.6c0-103.1,63.2-191.5,152.9-228.5
			c60.3-24.7,127.9-24.7,188.2,0C535.7,150.2,598.9,238.5,598.9,341.6z"/>
		<path class="st88" d="M597.6,340.3c0,136.4-110.6,247.1-247,247.1S103.5,476.8,103.5,340.3c0-103.1,63.2-191.5,152.9-228.5
			c60.3-24.8,127.9-24.8,188.2,0C534.4,148.9,597.6,237.2,597.6,340.3z"/>
		<path class="st89" d="M596.3,339c0,136.4-110.6,247-247,247S102.2,475.4,102.2,339c0-103.1,63.2-191.5,152.9-228.5
			c60.3-24.8,127.9-24.8,188.2,0C533.1,147.6,596.3,235.9,596.3,339z"/>
		<path class="st90" d="M595,337.8c0,136.4-110.6,247.1-247,247.1S100.9,474.2,100.9,337.8c0-103.1,63.2-191.5,152.9-228.5
			c60.3-24.7,127.9-24.7,188.2,0C531.8,146.3,595,234.6,595,337.8z"/>
		<path class="st91" d="M593.7,336.5c0,136.4-110.6,247.1-247,247.1S99.6,472.9,99.6,336.5c0-103.1,63.2-191.5,152.9-228.5
			c60.3-24.7,127.9-24.7,188.2,0C530.5,145,593.7,233.3,593.7,336.5z"/>
		<path class="st92" d="M592.3,335.2c0,136.4-110.6,247-247,247S98.2,471.6,98.2,335.2c0-103.1,63.2-191.5,152.9-228.5
			c60.3-24.8,127.9-24.8,188.2,0C529.2,143.7,592.3,232.1,592.3,335.2z"/>
		<path class="st93" d="M591,333.9c0,136.4-110.6,247-247,247S96.9,470.3,96.9,333.9c0-103.1,63.2-191.5,152.9-228.5
			c60.3-24.7,127.9-24.7,188.2,0C527.9,142.4,591,230.8,591,333.9z"/>
		<path class="st94" d="M589.7,332.6c0,136.4-110.6,247-247,247s-247-110.6-247-247c0-103.1,63.2-191.5,152.9-228.5
			c60.3-24.8,127.9-24.8,188.2,0C526.5,141.1,589.7,229.5,589.7,332.6z"/>
		<path class="st95" d="M588.4,331.3c0,136.4-110.6,247.1-247,247.1S94.3,467.8,94.3,331.3c0-103.1,63.2-191.5,152.9-228.5
			c60.3-24.8,127.9-24.8,188.2,0C525.2,139.8,588.4,228.2,588.4,331.3z"/>
		<path class="st96" d="M587.1,330c0,136.4-110.6,247.1-247,247.1S93,466.5,93,330c0-103.1,63.2-191.5,152.9-228.5
			c60.3-24.7,127.9-24.7,188.2,0C523.9,138.6,587.1,226.9,587.1,330z"/>
		<path class="st97" d="M585.8,328.7c0,136.4-110.6,247.1-247,247.1S91.7,465.2,91.7,328.7c0-103.1,63.2-191.5,152.9-228.5
			c60.3-24.7,127.9-24.7,188.2,0C522.6,137.3,585.8,225.6,585.8,328.7z"/>
		<path class="st98" d="M584.5,327.4c0,136.4-110.6,247-247,247S90.4,463.8,90.4,327.4c0-103.1,63.2-191.5,152.9-228.5
			c60.3-24.8,127.9-24.8,188.2,0C521.3,136,584.5,224.3,584.5,327.4z"/>
		<path class="st99" d="M583.2,326.1c0,136.4-110.6,247.1-247,247.1s-247-110.6-247-247.1c0-103.1,63.2-191.5,152.9-228.5
			c60.3-24.8,127.9-24.8,188.2,0C520,134.7,583.2,223,583.2,326.1z"/>
		<path class="st100" d="M581.8,324.8c0,136.4-110.6,247.1-247,247.1S87.7,461.3,87.7,324.8c0-103.1,63.2-191.5,152.9-228.5
			c60.3-24.7,127.9-24.7,188.2,0C518.7,133.4,581.8,221.7,581.8,324.8z"/>
		<path class="st101" d="M580.5,323.6c0,136.4-110.6,247.1-247,247.1S86.4,460,86.4,323.6c0-103.1,63.2-191.5,152.9-228.5
			c60.3-24.7,127.9-24.7,188.2,0C517.4,132.1,580.5,220.4,580.5,323.6z"/>
		<path class="st102" d="M579.2,322.3c0,136.4-110.6,247.1-247,247.1S85.1,458.7,85.1,322.3c0-103.1,63.2-191.5,152.9-228.5
			c60.3-24.8,127.9-24.8,188.2,0C516,130.8,579.2,219.2,579.2,322.3z"/>
	</g>
	<path class="st103" d="M579.2,322.3c0,136.4-110.6,247.1-247,247.1S85.1,458.7,85.1,322.3c0-103.1,63.2-191.5,152.9-228.5
		c60.3-24.8,127.9-24.8,188.2,0C516,130.8,579.2,219.2,579.2,322.3z"/>
	<path class="st104" d="M332.3,603.8h-0.1c-3.8,0-7.7-0.1-11.5-0.2l0.1-2.3c3.8,0.2,7.6,0.2,11.4,0.2L332.3,603.8z M344,603.6
		l-0.1-2.3c3.8-0.2,7.7-0.4,11.5-0.7l0.2,2.3C351.7,603.2,347.8,603.4,344,603.6L344,603.6z M309.1,602.9c-3.9-0.3-7.8-0.7-11.6-1.2
		l0.3-2.3c3.8,0.5,7.6,0.8,11.5,1.2L309.1,602.9z M367.1,601.7l-0.3-2.3c3.8-0.5,7.6-1,11.4-1.6l0.4,2.3
		C374.8,600.6,371,601.2,367.1,601.7L367.1,601.7z M286,600c-3.8-0.6-7.7-1.3-11.5-2.1l0.5-2.3c3.7,0.8,7.5,1.5,11.3,2.1L286,600z
		 M390.1,597.8l-0.5-2.3c3.8-0.8,7.5-1.6,11.2-2.6l0.6,2.2C397.6,596.2,393.8,597.1,390.1,597.8L390.1,597.8z M263.2,595.3
		c-3.8-0.9-7.5-2-11.2-3.1l0.6-2.2c3.7,1.1,7.4,2.1,11.1,3L263.2,595.3z M412.6,592.1l-0.6-2.2c3.7-1.1,7.4-2.3,11-3.5l0.8,2.2
		C420,589.8,416.3,591,412.6,592.1L412.6,592.1z M240.9,588.7c-3.7-1.2-7.4-2.6-11-4l0.8-2.2c3.6,1.4,7.2,2.7,10.9,4L240.9,588.7z
		 M434.6,584.6l-0.8-2.2c3.6-1.4,7.1-2.9,10.6-4.4l0.9,2.1C441.8,581.7,438.2,583.2,434.6,584.6L434.6,584.6z M219.2,580.2
		c-3.5-1.6-7.1-3.2-10.6-4.9l1-2.1c3.4,1.6,7,3.3,10.5,4.9L219.2,580.2z M455.9,575.2l-1-2.1c3.5-1.7,6.9-3.5,10.3-5.3l1.1,2
		C462.8,571.7,459.4,573.6,455.9,575.2L455.9,575.2L455.9,575.2z M198.3,570c-3.4-1.8-6.8-3.8-10.1-5.7l1.2-2c3.3,2,6.7,3.9,10,5.7
		L198.3,570z M476.4,564.1l-1.2-2c3.3-2,6.6-4,9.8-6.1l1.3,1.9C483,560.1,479.6,562.2,476.4,564.1L476.4,564.1z M178.3,558
		c-3.3-2.1-6.5-4.3-9.6-6.5l1.3-1.9c3.1,2.2,6.3,4.4,9.5,6.5L178.3,558z M495.8,551.4l-1.3-1.9c3.1-2.2,6.2-4.5,9.2-6.9l1.4,1.8
		C502,546.8,498.9,549.2,495.8,551.4L495.8,551.4L495.8,551.4z M159.4,544.5c-3-2.4-6.1-4.8-9-7.4l1.5-1.8c2.9,2.5,5.9,4.9,9,7.3
		L159.4,544.5z M514.2,537.1l-1.5-1.8c2.9-2.5,5.8-5.1,8.7-7.6l1.6,1.7C520,532,517.1,534.6,514.2,537.1L514.2,537.1z M141.6,529.5
		c-2.9-2.6-5.7-5.3-8.4-8l1.6-1.6c2.7,2.7,5.5,5.4,8.3,8L141.6,529.5z M531.2,521.3l-1.6-1.6c2.7-2.7,5.4-5.5,8-8.3l1.7,1.6
		C536.7,515.8,534,518.6,531.2,521.3z M125.1,513c-2.6-2.8-5.2-5.7-7.7-8.7l1.8-1.5c2.5,2.9,5,5.8,7.6,8.6L125.1,513z M547,504.2
		l-1.8-1.5c2.5-2.9,4.9-5.9,7.3-9l1.8,1.4C552,498.3,549.5,501.3,547,504.2z M110.1,495.3c-2.4-3-4.7-6.2-7-9.3l1.9-1.3
		c2.2,3.1,4.6,6.2,6.9,9.2L110.1,495.3z M561.3,485.9l-1.9-1.3c2.2-3.1,4.4-6.3,6.5-9.5l1.9,1.3
		C565.8,479.5,563.6,482.7,561.3,485.9z M96.5,476.4c-2.1-3.3-4.2-6.5-6.2-9.8l2-1.2c1.9,3.3,4,6.5,6.1,9.8L96.5,476.4z M574,466.4
		l-2-1.2c2-3.3,3.9-6.6,5.7-10l2,1.1C578,459.7,576,463.1,574,466.4L574,466.4z M84.6,456.5c-1.9-3.4-3.6-6.9-5.3-10.3l2.1-1
		c1.7,3.4,3.4,6.9,5.3,10.2L84.6,456.5z M585.2,445.9l-2.1-1c1.7-3.5,3.3-7,4.9-10.5l2.1,0.9C588.5,438.9,586.9,442.4,585.2,445.9
		L585.2,445.9z M74.4,435.6c-1.6-3.5-3-7.1-4.5-10.7l2.2-0.8c1.4,3.6,2.9,7.1,4.4,10.6L74.4,435.6z M594.5,424.6l-2.2-0.8
		c1.4-3.5,2.7-7.2,4-10.8l2.2,0.8C597.2,417.4,595.9,421,594.5,424.6L594.5,424.6L594.5,424.6z M65.9,414c-1.3-3.7-2.5-7.4-3.6-11.1
		l2.2-0.7c1.1,3.6,2.3,7.4,3.5,11L65.9,414z M602,402.6l-2.2-0.7c1.1-3.7,2.1-7.4,3.1-11.1l2.2,0.6
		C604.2,395.1,603.2,398.9,602,402.6L602,402.6z M59.3,391.7c-1-3.8-1.8-7.6-2.6-11.3l2.3-0.5c0.8,3.7,1.6,7.5,2.6,11.2L59.3,391.7z
		 M607.7,380.1l-2.3-0.5c0.8-3.7,1.5-7.5,2.1-11.3l2.3,0.4C609.3,372.4,608.5,376.3,607.7,380.1z M54.5,368.9
		c-0.6-3.8-1.2-7.7-1.6-11.5l2.3-0.3c0.5,3.8,1,7.6,1.6,11.4L54.5,368.9z M611.6,357.1l-2.3-0.3c0.5-3.8,0.9-7.6,1.2-11.5l2.3,0.2
		C612.4,349.4,612,353.3,611.6,357.1L611.6,357.1z M51.6,345.8c-0.3-3.8-0.6-7.7-0.7-11.6l2.3-0.1c0.2,3.9,0.4,7.7,0.7,11.5
		L51.6,345.8z M613.5,333.9l-2.3-0.1c0.2-3.8,0.2-7.7,0.2-11.5h2.3C613.7,326.1,613.6,330,613.5,333.9L613.5,333.9z M52.9,322.6
		h-2.3v-0.3c0-3.8,0.1-7.6,0.2-11.3l2.3,0.1c-0.2,3.7-0.2,7.5-0.2,11.2V322.6z M611.1,310.2c-0.2-3.8-0.4-7.7-0.7-11.5l2.3-0.2
		c0.3,3.9,0.6,7.8,0.7,11.6L611.1,310.2z M53.9,299.5l-2.3-0.2c0.3-3.9,0.7-7.8,1.2-11.6l2.3,0.3C54.6,291.9,54.2,295.7,53.9,299.5
		L53.9,299.5z M609.2,287.2c-0.5-3.8-1-7.6-1.6-11.5l2.3-0.4c0.6,3.8,1.2,7.7,1.7,11.5L609.2,287.2z M56.6,276.7l-2.3-0.4
		c0.6-3.8,1.3-7.7,2.1-11.5l2.3,0.5C58,269.1,57.3,272.9,56.6,276.7z M605.4,264.4c-0.8-3.7-1.6-7.5-2.6-11.2l2.2-0.6
		c1,3.8,1.8,7.5,2.6,11.3L605.4,264.4z M61.3,254l-2.2-0.5c1-3.8,2-7.6,3.1-11.2l2.2,0.7C63.3,246.6,62.3,250.3,61.3,254z
		 M599.7,242.1c-1.1-3.7-2.3-7.4-3.5-11l2.2-0.8c1.3,3.6,2.5,7.4,3.6,11L599.7,242.1z M67.9,231.9l-2.2-0.7c1.3-3.7,2.6-7.4,4-11
		l2.1,0.8C70.5,224.6,69.1,228.3,67.9,231.9z M592.2,220.3c-1.4-3.5-2.9-7.1-4.4-10.6l2.1-0.9c1.6,3.5,3.1,7.1,4.5,10.7L592.2,220.3
		z M76.3,210.4l-2.1-0.9c1.5-3.5,3.2-7.1,4.9-10.6l2.1,1C79.4,203.3,77.8,206.9,76.3,210.4z M582.9,199.2c-1.6-3.4-3.5-6.8-5.3-10.2
		l2-1.1c1.9,3.4,3.7,6.9,5.3,10.3L582.9,199.2z M86.4,189.6l-2-1.1c1.8-3.4,3.8-6.8,5.7-10.1l2,1.2
		C90.1,182.9,88.2,186.2,86.4,189.6z M571.9,179c-2-3.3-4-6.6-6.1-9.8l1.9-1.3c2.1,3.2,4.2,6.6,6.2,9.8L571.9,179z M98.2,169.8
		l-1.9-1.3c2.1-3.2,4.3-6.5,6.6-9.6l1.9,1.3C102.5,163.4,100.3,166.6,98.2,169.8z M559.2,159.7c-2.2-3.1-4.5-6.2-6.9-9.2l1.8-1.4
		c2.4,3.1,4.7,6.2,7,9.3L559.2,159.7z M111.6,151l-1.8-1.4c2.4-3,4.8-6.1,7.4-9l1.8,1.5C116.4,144.9,114,147.9,111.6,151z
		 M545,141.5c-2.5-2.9-5-5.8-7.7-8.6l1.7-1.6c2.6,2.9,5.2,5.8,7.7,8.7L545,141.5z M126.5,133.4l-1.7-1.6c2.6-2.8,5.3-5.7,8.1-8.4
		l1.6,1.6C131.8,127.7,129.1,130.6,126.5,133.4L126.5,133.4z M529.3,124.6c-2.7-2.7-5.5-5.4-8.3-8l1.6-1.7c2.8,2.6,5.7,5.3,8.4,8.1
		L529.3,124.6z M142.8,117l-1.6-1.7c2.8-2.6,5.7-5.2,8.7-7.7l1.5,1.8C148.6,111.9,145.7,114.4,142.8,117L142.8,117z M512.3,109
		c-2.9-2.5-5.9-4.9-9-7.3l1.4-1.8c3,2.4,6.1,4.8,9,7.4L512.3,109z M160.4,102.1l-1.4-1.8c3-2.4,6.2-4.7,9.3-7l1.3,1.9
		C166.6,97.4,163.4,99.7,160.4,102.1z M494.1,94.8c-3.1-2.2-6.3-4.4-9.5-6.6l1.3-1.9c3.3,2.1,6.5,4.3,9.6,6.6L494.1,94.8z
		 M179.2,88.7l-1.3-1.9c3.3-2.1,6.6-4.2,9.8-6.2l1.2,2C185.7,84.5,182.4,86.6,179.2,88.7z M474.8,82.2c-3.3-2-6.7-3.9-10-5.7l1.1-2
		c3.4,1.8,6.8,3.8,10.1,5.7L474.8,82.2z M199,76.8l-1.1-2c3.4-1.8,6.9-3.6,10.3-5.3l1,2.1C205.7,73.2,202.3,75,199,76.8L199,76.8z
		 M454.5,71.2c-3.5-1.7-7-3.3-10.5-4.8l0.9-2.1c3.5,1.6,7.1,3.2,10.6,4.9L454.5,71.2z M219.6,66.6l-0.9-2.1c2-0.9,4.1-1.8,6.2-2.6
		c1.5-0.6,3-1.2,4.6-1.8l0.8,2.2c-1.5,0.6-3,1.2-4.5,1.8C223.7,64.9,221.7,65.8,219.6,66.6z M433.3,61.9c-3.6-1.4-7.2-2.7-10.8-4
		l0.7-2.2c3.6,1.2,7.4,2.6,10.9,4L433.3,61.9z M241.1,58.2l-0.8-2.2c3.6-1.3,7.4-2.5,11.1-3.6l0.7,2.2
		C248.4,55.8,244.7,57,241.1,58.2z M411.5,54.5c-3.7-1.1-7.4-2.1-11.1-3l0.6-2.2c3.7,0.9,7.5,2,11.2,3.1L411.5,54.5z M263.2,51.6
		l-0.6-2.2c3.8-0.9,7.6-1.8,11.3-2.6l0.5,2.3C270.7,49.8,266.9,50.7,263.2,51.6z M389.1,48.9c-3.8-0.8-7.6-1.5-11.4-2.1l0.4-2.3
		c3.8,0.6,7.7,1.3,11.5,2.1L389.1,48.9z M285.8,46.9l-0.4-2.3c3.8-0.6,7.7-1.2,11.5-1.7l0.3,2.3C293.4,45.7,289.6,46.2,285.8,46.9z
		 M366.3,45.1c-3.8-0.5-7.7-0.9-11.5-1.2l0.2-2.3c3.9,0.3,7.7,0.7,11.6,1.2L366.3,45.1z M308.7,44l-0.2-2.3
		c3.9-0.3,7.8-0.6,11.6-0.7l0.1,2.3C316.4,43.5,312.5,43.7,308.7,44z M343.3,43.2c-3.7-0.2-7.4-0.2-11.1-0.2h-0.4v-2.3h0.4
		c3.7,0,7.5,0.1,11.2,0.2L343.3,43.2z"/>
	<path class="st105" d="M695.8,340.4l-50.6-34.7v16.6h-50.1c0,145.2-117.7,263-263,263l0,0v17.4H332v17.2h7.9
		c147.5-3.9,269.9-115.2,287.7-261.7h17.5v16.9L695.8,340.4z"/>
</g>
</svg>
