<?xml version="1.0" encoding="utf-8"?>
<!-- Generator: Adobe Illustrator 26.1.0, SVG Export Plug-In . SVG Version: 6.00 Build 0)  -->
<svg width="200" version="1.1" id="Layer_1" xmlns="http://www.w3.org/2000/svg" xmlns:xlink="http://www.w3.org/1999/xlink" x="0px" y="0px"
	 viewBox="0 0 718.9 775.9" style="enable-background:new 0 0 718.9 775.9;" xml:space="preserve">
<style type="text/css">
	.st0{opacity:0.36;}
	.st1{fill:#FFFFFF;fill-opacity:0;}
	.st2{opacity:1.000000e-02;fill:#FDFDFD;enable-background:new    ;}
	.st3{opacity:2.000000e-02;fill:#FCFCFC;enable-background:new    ;}
	.st4{opacity:3.000000e-02;fill:#FAFAFA;enable-background:new    ;}
	.st5{opacity:4.000000e-02;fill:#F9F9F9;enable-background:new    ;}
	.st6{opacity:5.000000e-02;fill:#F7F7F7;enable-background:new    ;}
	.st7{opacity:6.000000e-02;fill:#F6F6F6;enable-background:new    ;}
	.st8{opacity:7.000000e-02;fill:#F4F4F4;enable-background:new    ;}
	.st9{opacity:8.000000e-02;fill:#F3F3F3;enable-background:new    ;}
	.st10{opacity:9.000000e-02;fill:#F1F1F1;enable-background:new    ;}
	.st11{opacity:0.1;fill:#F0F0F0;enable-background:new    ;}
	.st12{opacity:0.11;fill:#EEEEEE;enable-background:new    ;}
	.st13{opacity:0.12;fill:#EDEDED;enable-background:new    ;}
	.st14{opacity:0.13;fill:#EBEBEB;enable-background:new    ;}
	.st15{opacity:0.14;fill:#EAEAEA;enable-background:new    ;}
	.st16{opacity:0.15;fill:#E8E8E8;enable-background:new    ;}
	.st17{opacity:0.16;fill:#E7E7E7;enable-background:new    ;}
	.st18{opacity:0.17;fill:#E5E5E5;enable-background:new    ;}
	.st19{opacity:0.18;fill:#E4E4E4;enable-background:new    ;}
	.st20{opacity:0.19;fill:#E2E2E2;enable-background:new    ;}
	.st21{opacity:0.2;fill:#E1E1E1;enable-background:new    ;}
	.st22{opacity:0.21;fill:#DFDFDF;enable-background:new    ;}
	.st23{opacity:0.22;fill:#DEDEDE;enable-background:new    ;}
	.st24{opacity:0.23;fill:#DCDCDC;enable-background:new    ;}
	.st25{opacity:0.24;fill:#DBDBDB;enable-background:new    ;}
	.st26{opacity:0.25;fill:#D9D9D9;enable-background:new    ;}
	.st27{opacity:0.26;fill:#D8D8D8;enable-background:new    ;}
	.st28{opacity:0.27;fill:#D6D6D6;enable-background:new    ;}
	.st29{opacity:0.28;fill:#D5D5D5;enable-background:new    ;}
	.st30{opacity:0.29;fill:#D3D3D3;enable-background:new    ;}
	.st31{opacity:0.3;fill:#D2D2D2;enable-background:new    ;}
	.st32{opacity:0.31;fill:#D0D0D0;enable-background:new    ;}
	.st33{opacity:0.32;fill:#CFCFCF;enable-background:new    ;}
	.st34{opacity:0.33;fill:#CDCDCD;enable-background:new    ;}
	.st35{opacity:0.34;fill:#CBCBCB;enable-background:new    ;}
	.st36{opacity:0.35;fill:#CACACA;enable-background:new    ;}
	.st37{opacity:0.36;fill:#C8C8C8;enable-background:new    ;}
	.st38{opacity:0.37;fill:#C7C7C7;enable-background:new    ;}
	.st39{opacity:0.38;fill:#C5C5C5;enable-background:new    ;}
	.st40{opacity:0.39;fill:#C4C4C4;enable-background:new    ;}
	.st41{opacity:0.4;fill:#C2C2C2;enable-background:new    ;}
	.st42{opacity:0.41;fill:#C1C1C1;enable-background:new    ;}
	.st43{opacity:0.42;fill:#BFBFBF;enable-background:new    ;}
	.st44{opacity:0.43;fill:#BEBEBE;enable-background:new    ;}
	.st45{opacity:0.44;fill:#BCBCBC;enable-background:new    ;}
	.st46{opacity:0.45;fill:#BBBBBB;enable-background:new    ;}
	.st47{opacity:0.46;fill:#B9B9B9;enable-background:new    ;}
	.st48{opacity:0.47;fill:#B8B8B8;enable-background:new    ;}
	.st49{opacity:0.48;fill:#B6B6B6;enable-background:new    ;}
	.st50{opacity:0.49;fill:#B5B5B5;enable-background:new    ;}
	.st51{opacity:0.5;fill:#B3B3B3;enable-background:new    ;}
	.st52{opacity:0.5;fill:#B2B2B2;enable-background:new    ;}
	.st53{opacity:0.51;fill:#B0B0B0;enable-background:new    ;}
	.st54{opacity:0.52;fill:#AFAFAF;enable-background:new    ;}
	.st55{opacity:0.53;fill:#ADADAD;enable-background:new    ;}
	.st56{opacity:0.54;fill:#ACACAC;enable-background:new    ;}
	.st57{opacity:0.55;fill:#AAAAAA;enable-background:new    ;}
	.st58{opacity:0.56;fill:#A9A9A9;enable-background:new    ;}
	.st59{opacity:0.57;fill:#A7A7A7;enable-background:new    ;}
	.st60{opacity:0.58;fill:#A6A6A6;enable-background:new    ;}
	.st61{opacity:0.59;fill:#A4A4A4;enable-background:new    ;}
	.st62{opacity:0.6;fill:#A3A3A3;enable-background:new    ;}
	.st63{opacity:0.61;fill:#A1A1A1;enable-background:new    ;}
	.st64{opacity:0.62;fill:#A0A0A0;enable-background:new    ;}
	.st65{opacity:0.63;fill:#9E9E9E;enable-background:new    ;}
	.st66{opacity:0.64;fill:#9D9D9D;enable-background:new    ;}
	.st67{opacity:0.65;fill:#9B9B9B;enable-background:new    ;}
	.st68{opacity:0.66;fill:#9A9A9A;enable-background:new    ;}
	.st69{opacity:0.67;fill:#989898;enable-background:new    ;}
	.st70{opacity:0.68;fill:#969696;enable-background:new    ;}
	.st71{opacity:0.69;fill:#959595;enable-background:new    ;}
	.st72{opacity:0.7;fill:#939393;enable-background:new    ;}
	.st73{opacity:0.71;fill:#929292;enable-background:new    ;}
	.st74{opacity:0.72;fill:#909090;enable-background:new    ;}
	.st75{opacity:0.73;fill:#8F8F8F;enable-background:new    ;}
	.st76{opacity:0.74;fill:#8D8D8D;enable-background:new    ;}
	.st77{opacity:0.75;fill:#8C8C8C;enable-background:new    ;}
	.st78{opacity:0.76;fill:#8A8A8A;enable-background:new    ;}
	.st79{opacity:0.77;fill:#898989;enable-background:new    ;}
	.st80{opacity:0.78;fill:#878787;enable-background:new    ;}
	.st81{opacity:0.79;fill:#868686;enable-background:new    ;}
	.st82{opacity:0.8;fill:#848484;enable-background:new    ;}
	.st83{opacity:0.81;fill:#838383;enable-background:new    ;}
	.st84{opacity:0.82;fill:#818181;enable-background:new    ;}
	.st85{opacity:0.83;fill:#808080;enable-background:new    ;}
	.st86{opacity:0.84;fill:#7E7E7E;enable-background:new    ;}
	.st87{opacity:0.85;fill:#7D7D7D;enable-background:new    ;}
	.st88{opacity:0.86;fill:#7B7B7B;enable-background:new    ;}
	.st89{opacity:0.87;fill:#7A7A7A;enable-background:new    ;}
	.st90{opacity:0.88;fill:#787878;enable-background:new    ;}
	.st91{opacity:0.89;fill:#777777;enable-background:new    ;}
	.st92{opacity:0.9;fill:#757575;enable-background:new    ;}
	.st93{opacity:0.91;fill:#747474;enable-background:new    ;}
	.st94{opacity:0.92;fill:#727272;enable-background:new    ;}
	.st95{opacity:0.93;fill:#717171;enable-background:new    ;}
	.st96{opacity:0.94;fill:#6F6F6F;enable-background:new    ;}
	.st97{opacity:0.95;fill:#6E6E6E;enable-background:new    ;}
	.st98{opacity:0.96;fill:#6C6C6C;enable-background:new    ;}
	.st99{opacity:0.97;fill:#6B6B6B;enable-background:new    ;}
	.st100{opacity:0.98;fill:#696969;enable-background:new    ;}
	.st101{opacity:0.99;fill:#686868;enable-background:new    ;}
	.st102{fill:#666666;}
	.st103{fill:#FFFFFF;}
	.st104{fill:#808080;}
	.st105{fill:#273773;}
</style>
<g>
	<g class="st0">
		<path class="st1" d="M702.2,448.6c0,136.4-110.6,247.1-247.1,247.1S208,585.1,208,448.7c0-103.1,63.2-191.5,152.9-228.5
			c60.3-24.8,127.9-24.8,188.2,0C639,257.2,702.2,345.5,702.2,448.6z"/>
		<path class="st2" d="M700.9,447.3c0,136.4-110.6,247-247.1,247s-247.1-110.6-247.1-247c0-103.1,63.2-191.5,152.9-228.5
			c60.3-24.7,127.9-24.7,188.2,0C637.7,255.9,700.9,344.2,700.9,447.3z"/>
		<path class="st3" d="M699.6,446.1c0,136.4-110.6,247-247.1,247s-247.1-110.6-247.1-247c0-103.1,63.2-191.5,152.9-228.5
			c60.3-24.7,127.9-24.7,188.2,0C636.4,254.6,699.6,342.9,699.6,446.1z"/>
		<path class="st4" d="M698.2,444.8c0,136.4-110.6,247.1-247.1,247.1s-247-110.6-247-247c0-103.1,63.2-191.5,152.9-228.5
			c60.3-24.8,127.9-24.8,188.2,0C635.1,253.3,698.2,341.6,698.2,444.8z"/>
		<path class="st5" d="M696.9,443.5c0,136.4-110.6,247.1-247.1,247.1s-247.1-110.7-247.1-247c0-103.1,63.2-191.5,152.9-228.5
			c60.3-24.7,127.9-24.7,188.2,0C633.8,252,696.9,340.4,696.9,443.5z"/>
		<path class="st6" d="M695.6,442.2c0,136.4-110.6,247-247.1,247s-247.1-110.6-247.1-247c0-103.1,63.2-191.5,152.9-228.5
			c60.3-24.8,127.9-24.8,188.2,0C632.5,250.7,695.6,339.1,695.6,442.2z"/>
		<path class="st7" d="M694.3,440.9c0,136.4-110.6,247.1-247.1,247.1S200.1,577.4,200.1,441c0-103.1,63.2-191.5,152.9-228.5
			c60.3-24.8,127.9-24.8,188.2,0C631.2,249.4,694.3,337.8,694.3,440.9z"/>
		<path class="st8" d="M693,439.6c0,136.4-110.6,247-247.1,247s-247-110.6-247-247c0-103.1,63.2-191.5,152.9-228.5
			c60.3-24.7,127.9-24.7,188.2,0C629.8,248.1,693,336.5,693,439.6z"/>
		<path class="st9" d="M691.7,438.3c0,136.4-110.6,247-247.1,247s-247-110.6-247-247c0-103.1,63.2-191.5,152.9-228.5
			c60.3-24.7,127.9-24.7,188.2,0C628.5,246.8,691.7,335.2,691.7,438.3z"/>
		<path class="st10" d="M690.4,437c0,136.4-110.6,247.1-247.1,247.1s-247.1-110.6-247.1-247c0-103.1,63.2-191.5,152.9-228.5
			c60.3-24.7,127.9-24.7,188.2,0C627.2,245.6,690.4,333.9,690.4,437z"/>
		<path class="st11" d="M689.1,435.7c0,136.4-110.6,247-247.1,247c-136.4,0-247.1-110.6-247.1-247c0-103.1,63.2-191.5,152.9-228.5
			c60.3-24.8,127.9-24.8,188.2,0C625.9,244.3,689.1,332.6,689.1,435.7z"/>
		<path class="st12" d="M687.7,434.4c0,136.4-110.6,247-247.1,247s-247.1-110.6-247.1-247c0-103.1,63.2-191.5,152.9-228.5
			c60.3-24.7,127.9-24.7,188.2,0C624.6,243,687.7,331.3,687.7,434.4z"/>
		<path class="st13" d="M686.4,433.1c0,136.4-110.6,247.1-247.1,247.1s-247-110.7-247-247.1c0-103.1,63.2-191.5,152.9-228.5
			c60.3-24.7,127.9-24.7,188.2,0C623.3,241.7,686.4,330,686.4,433.1z"/>
		<path class="st14" d="M685.1,431.9c0,136.4-110.6,247-247.1,247s-247.1-110.6-247.1-247c0-103.1,63.2-191.5,152.9-228.5
			c60.3-24.8,127.9-24.8,188.2,0C622,240.4,685.1,328.7,685.1,431.9z"/>
		<path class="st15" d="M683.8,430.6c0,136.4-110.6,247-247,247S189.7,567,189.7,430.6c0-103.1,63.2-191.5,152.9-228.5
			c60.3-24.7,127.9-24.7,188.2,0C620.7,239.1,683.8,327.4,683.8,430.6z"/>
		<path class="st16" d="M682.5,429.3c0,136.4-110.6,247.1-247.1,247.1s-247.1-110.6-247.1-247c0-103.1,63.2-191.5,152.9-228.5
			c60.3-24.8,127.9-24.8,188.2,0C619.3,237.8,682.5,326.2,682.5,429.3z"/>
		<path class="st17" d="M681.2,428c0,136.4-110.6,247.1-247.1,247.1S187,564.5,187,428.1c0-103.1,63.2-191.5,152.9-228.5
			c60.3-24.7,127.9-24.7,188.2,0C618,236.5,681.2,324.8,681.2,428z"/>
		<path class="st18" d="M679.9,426.7c0,136.4-110.6,247.1-247.1,247.1s-247.1-110.6-247.1-247c0-103.1,63.2-191.5,152.9-228.5
			c60.3-24.8,127.9-24.8,188.2,0C616.7,235.2,679.9,323.6,679.9,426.7z"/>
		<path class="st19" d="M678.6,425.4c0,136.4-110.6,247.1-247.1,247.1s-247.1-110.6-247.1-247c0-103.1,63.2-191.5,152.9-228.5
			c60.3-24.7,127.9-24.7,188.2,0C615.4,234,678.6,322.3,678.6,425.4z"/>
		<path class="st20" d="M677.2,424.1c0,136.4-110.6,247-247.1,247s-247-110.6-247-247c0-103.1,63.2-191.5,152.9-228.5
			c60.3-24.7,127.9-24.7,188.2,0C614.1,232.7,677.2,321,677.2,424.1z"/>
		<path class="st21" d="M675.9,422.8c0,136.4-110.6,247.1-247.1,247.1s-247.1-110.6-247.1-247c0-103.1,63.2-191.5,152.9-228.5
			c60.3-24.8,127.9-24.8,188.2,0C612.8,231.4,675.9,319.7,675.9,422.8z"/>
		<path class="st22" d="M674.6,421.5c0,136.4-110.6,247.1-247,247.1S180.5,558,180.5,421.6c0-103.1,63.2-191.5,152.9-228.5
			c60.3-24.7,127.9-24.7,188.2,0C611.5,230.1,674.6,318.4,674.6,421.5z"/>
		<path class="st23" d="M673.3,420.2c0,136.4-110.6,247-247.1,247s-247.1-110.6-247.1-247c0-103.1,63.2-191.5,152.9-228.5
			c60.3-24.7,127.9-24.7,188.2,0C610.1,228.8,673.3,317.1,673.3,420.2z"/>
		<path class="st24" d="M672,418.9C672,555.3,561.4,666,424.9,666S177.8,555.4,177.8,419c0-103.1,63.2-191.5,152.9-228.5
			c60.3-24.8,127.9-24.8,188.2,0C608.8,227.5,672,315.8,672,418.9z"/>
		<path class="st25" d="M670.7,417.7c0,136.4-110.6,247-247.1,247s-247.1-110.6-247.1-247c0-103.1,63.2-191.5,152.9-228.5
			c60.3-24.7,127.9-24.7,188.2,0C607.5,226.2,670.7,314.5,670.7,417.7z"/>
		<path class="st26" d="M669.4,416.4c0,136.4-110.6,247-247.1,247s-247-110.6-247-247c0-103.1,63.2-191.5,152.9-228.5
			c60.3-24.8,127.9-24.8,188.2,0C606.2,224.9,669.4,313.3,669.4,416.4z"/>
		<path class="st27" d="M668.1,415.1c0,136.4-110.6,247.1-247.1,247.1s-247.1-110.6-247.1-247c0-103.1,63.2-191.5,152.9-228.5
			c60.3-24.7,127.9-24.7,188.2,0C604.9,223.6,668.1,311.9,668.1,415.1z"/>
		<path class="st28" d="M666.7,413.8c0,136.4-110.6,247-247.1,247s-247.1-110.6-247.1-247c0-103.1,63.2-191.5,152.9-228.5
			c60.3-24.8,127.9-24.8,188.2,0C603.6,222.3,666.7,310.7,666.7,413.8z"/>
		<path class="st29" d="M665.4,412.5c0,136.4-110.6,247-247.1,247s-247-110.6-247-247c0-103.1,63.2-191.5,152.9-228.5
			c60.3-24.7,127.9-24.7,188.2,0C602.3,221,665.4,309.4,665.4,412.5z"/>
		<path class="st30" d="M664.1,411.2c0,136.4-110.6,247.1-247.1,247.1s-247.1-110.6-247.1-247c0-103.1,63.2-191.5,152.9-228.5
			c60.3-24.7,127.9-24.7,188.2,0C601,219.8,664.1,308.1,664.1,411.2z"/>
		<path class="st31" d="M662.8,409.9c0,136.4-110.6,247.1-247.1,247.1S168.6,546.4,168.6,410c0-103.1,63.2-191.5,152.9-228.5
			c60.3-24.8,127.9-24.8,188.2,0C599.7,218.4,662.8,306.8,662.8,409.9z"/>
		<path class="st32" d="M661.5,408.6c0,136.4-110.6,247-247.1,247S167.3,545,167.3,408.6c0-103.1,63.2-191.5,152.9-228.5
			c60.3-24.7,127.9-24.7,188.2,0C598.3,217.2,661.5,305.5,661.5,408.6z"/>
		<path class="st33" d="M660.2,407.3c0,136.4-110.6,247.1-247.1,247.1S166,543.8,166,407.4c0-103.1,63.2-191.5,152.9-228.5
			c60.3-24.7,127.9-24.7,188.2,0C597,215.9,660.2,304.2,660.2,407.3z"/>
		<path class="st34" d="M658.9,406c0,136.4-110.6,247-247.1,247S164.7,542.4,164.7,406c0-103.1,63.2-191.5,152.9-228.5
			c60.3-24.8,127.9-24.8,188.2,0C595.7,214.6,658.9,302.9,658.9,406z"/>
		<path class="st35" d="M657.6,404.8c0,136.4-110.6,247-247.1,247s-247.1-110.6-247.1-247c0-103.1,63.2-191.5,152.9-228.5
			c60.3-24.7,127.9-24.7,188.2,0C594.4,213.3,657.6,301.6,657.6,404.8z"/>
		<path class="st36" d="M656.2,403.5c0,136.4-110.6,247.1-247.1,247.1S162,540,162,403.6c0-103.1,63.2-191.5,152.9-228.5
			c60.3-24.8,127.9-24.8,188.2,0C593.1,212,656.2,300.3,656.2,403.5z"/>
		<path class="st37" d="M654.9,402.2c0,136.4-110.6,247-247.1,247s-247.1-110.6-247.1-247c0-103.1,63.2-191.5,152.9-228.5
			c60.3-24.7,127.9-24.7,188.2,0C591.8,210.7,654.9,299,654.9,402.2z"/>
		<path class="st38" d="M653.6,400.9C653.6,537.3,543,648,406.5,648S159.4,537.4,159.4,401c0-103.1,63.2-191.5,152.9-228.5
			c60.3-24.8,127.9-24.8,188.2,0C590.5,209.4,653.6,297.8,653.6,400.9z"/>
		<path class="st39" d="M652.3,399.6c0,136.4-110.6,247.1-247.1,247.1S158.1,536,158.1,399.7c0-103.1,63.2-191.5,152.9-228.5
			c60.3-24.7,127.9-24.7,188.2,0C589.2,208.1,652.3,296.5,652.3,399.6z"/>
		<path class="st40" d="M651,398.3c0,136.4-110.6,247-247.1,247s-247.1-110.6-247.1-247c0-103.1,63.2-191.5,152.9-228.5
			c60.3-24.7,127.9-24.7,188.2,0C587.8,206.8,651,295.2,651,398.3z"/>
		<path class="st41" d="M649.7,397c0,136.4-110.6,247.1-247.1,247.1s-247.1-110.6-247.1-247c0-103.1,63.2-191.5,152.9-228.5
			c60.3-24.8,127.9-24.8,188.2,0C586.5,205.5,649.7,293.9,649.7,397z"/>
		<path class="st42" d="M648.4,395.7c0,136.4-110.6,247.1-247.1,247.1s-247.1-110.6-247.1-247c0-103.1,63.2-191.5,152.9-228.5
			c60.3-24.7,127.9-24.7,188.2,0C585.2,204.3,648.4,292.6,648.4,395.7z"/>
		<path class="st43" d="M647.1,394.4c0,136.4-110.6,247.1-247.1,247.1s-247.1-110.6-247.1-247c0-103.1,63.2-191.5,152.9-228.5
			c60.3-24.8,127.9-24.8,188.2,0C583.9,203,647.1,291.3,647.1,394.4z"/>
		<path class="st44" d="M645.7,393.1c0,136.4-110.6,247.1-247.1,247.1s-247.1-110.6-247.1-247c0-103.1,63.2-191.5,152.9-228.5
			c60.3-24.8,127.9-24.8,188.2,0C582.6,201.7,645.7,290,645.7,393.1z"/>
		<path class="st45" d="M644.4,391.8c0,136.4-110.6,247.1-247.1,247.1s-247-110.6-247-247.1c0-103.1,63.2-191.5,152.9-228.5
			c60.3-24.7,127.9-24.7,188.2,0C581.3,200.4,644.4,288.7,644.4,391.8z"/>
		<path class="st46" d="M643.1,390.6c0,136.4-110.6,247-247.1,247S148.9,527,148.9,390.6c0-103.1,63.2-191.5,152.9-228.5
			c60.3-24.8,127.9-24.8,188.2,0C580,199.1,643.1,287.4,643.1,390.6z"/>
		<path class="st47" d="M641.8,389.3c0,136.4-110.6,247.1-247.1,247.1s-247.1-110.6-247.1-247c0-103.1,63.2-191.5,152.9-228.5
			c60.3-24.7,127.9-24.7,188.2,0C578.7,197.8,641.8,286.1,641.8,389.3z"/>
		<path class="st48" d="M640.5,388c0,136.4-110.6,247.1-247.1,247.1s-247.1-110.6-247.1-247c0-103.1,63.2-191.5,152.9-228.5
			c60.3-24.8,127.9-24.8,188.2,0C577.3,196.5,640.5,284.8,640.5,388z"/>
		<path class="st49" d="M639.2,386.7c0,136.4-110.6,247-247.1,247S145,523.1,145,386.7c0-103.1,63.2-191.5,152.9-228.5
			c60.3-24.7,127.9-24.7,188.2,0C576,195.2,639.2,283.6,639.2,386.7z"/>
		<path class="st50" d="M637.9,385.4c0,136.4-110.6,247.1-247.1,247.1s-247.1-110.6-247.1-247c0-103.1,63.2-191.5,152.9-228.5
			c60.3-24.7,127.9-24.7,188.2,0C574.7,193.9,637.9,282.3,637.9,385.4z"/>
		<path class="st51" d="M636.5,384.1c0,136.4-110.6,247-247.1,247s-247.1-110.6-247.1-247c0-103.1,63.2-191.5,152.9-228.5
			c60.3-24.8,127.9-24.8,188.2,0C573.4,192.6,636.5,281,636.5,384.1z"/>
		<path class="st52" d="M635.2,382.8c0,136.4-110.6,247-247.1,247s-247-110.6-247-247c0-103.1,63.2-191.5,152.9-228.5
			c60.3-24.7,127.9-24.7,188.2,0C572.1,191.3,635.2,279.7,635.2,382.8z"/>
		<path class="st53" d="M633.9,381.5c0,136.4-110.6,247.1-247.1,247.1S139.7,518,139.7,381.6c0-103.1,63.2-191.5,152.9-228.5
			c60.3-24.8,127.9-24.8,188.2,0C570.8,190,633.9,278.4,633.9,381.5z"/>
		<path class="st54" d="M632.6,380.2c0,136.4-110.6,247-247.1,247s-247.1-110.6-247.1-247c0-103.1,63.2-191.5,152.9-228.5
			c60.3-24.7,127.9-24.7,188.2,0C569.5,188.8,632.6,277.1,632.6,380.2z"/>
		<path class="st55" d="M631.3,378.9c0,136.4-110.6,247.1-247.1,247.1S137.1,515.4,137.1,379c0-103.1,63.2-191.5,152.9-228.5
			c60.3-24.8,127.9-24.8,188.2,0C568.1,187.5,631.3,275.8,631.3,378.9z"/>
		<path class="st56" d="M630,377.6c0,136.4-110.6,247.1-247.1,247.1s-247.1-110.6-247.1-247c0-103.1,63.2-191.5,152.9-228.5
			c60.3-24.8,127.9-24.8,188.2,0C566.8,186.2,630,274.5,630,377.6z"/>
		<path class="st57" d="M628.7,376.4c0,136.4-110.6,247.1-247.1,247.1s-247-110.7-247-247c0-103.1,63.2-191.5,152.9-228.5
			c60.3-24.7,127.9-24.7,188.2,0C565.5,184.9,628.7,273.3,628.7,376.4z"/>
		<path class="st58" d="M627.4,375.1c0,136.4-110.6,247.1-247.1,247.1s-247-110.7-247-247.1c0-103.1,63.2-191.5,152.9-228.5
			c60.3-24.8,127.9-24.8,188.2,0C564.2,183.6,627.4,271.9,627.4,375.1z"/>
		<path class="st59" d="M626,373.8c0,136.4-110.6,247.1-247.1,247.1s-247.1-110.6-247.1-247c0-103.1,63.2-191.5,152.9-228.5
			c60.3-24.7,127.9-24.7,188.2,0C562.9,182.3,626,270.7,626,373.8z"/>
		<path class="st60" d="M624.7,372.5c0,136.4-110.6,247-247.1,247s-247.1-110.6-247.1-247c0-103.1,63.2-191.5,152.9-228.5
			c60.3-24.7,127.9-24.7,188.2,0C561.6,181,624.7,269.4,624.7,372.5z"/>
		<path class="st61" d="M623.4,371.2c0,136.4-110.6,247-247.1,247s-247-110.6-247-247c0-103.1,63.2-191.5,152.9-228.5
			c60.3-24.8,127.9-24.8,188.2,0C560.3,179.7,623.4,268.1,623.4,371.2z"/>
		<path class="st62" d="M622.1,369.9C622.1,506.3,511.5,617,375,617S128,506.4,128,370c0-103.1,63.2-191.5,152.9-228.5
			c60.3-24.7,127.9-24.7,188.2,0C558.9,178.4,622.1,266.8,622.1,369.9z"/>
		<path class="st63" d="M620.8,368.6c0,136.4-110.6,247-247.1,247S126.6,505,126.6,368.6c0-103.1,63.2-191.5,152.9-228.5
			c60.3-24.8,127.9-24.8,188.2,0C557.6,177.1,620.8,265.5,620.8,368.6z"/>
		<path class="st64" d="M619.5,367.3c0,136.4-110.6,247.1-247.1,247.1s-247.1-110.6-247.1-247c0-103.1,63.2-191.5,152.9-228.5
			c60.3-24.7,127.9-24.7,188.2,0C556.3,175.9,619.5,264.2,619.5,367.3z"/>
		<path class="st65" d="M618.2,366c0,136.4-110.6,247.1-247.1,247.1S124,502.5,124,366.1c0-103.1,63.2-191.5,152.9-228.5
			c60.3-24.8,127.9-24.8,188.2,0C555,174.6,618.2,262.9,618.2,366z"/>
		<path class="st66" d="M616.9,364.7c0,136.4-110.6,247-247.1,247s-247.1-110.6-247.1-247c0-103.1,63.2-191.5,152.9-228.5
			c60.3-24.7,127.9-24.7,188.2,0C553.7,173.3,616.9,261.6,616.9,364.7z"/>
		<path class="st67" d="M615.5,363.4c0,136.4-110.6,247.1-247.1,247.1s-247.1-110.6-247.1-247c0-103.1,63.2-191.5,152.9-228.5
			c60.3-24.7,127.9-24.7,188.2,0C552.4,172,615.5,260.3,615.5,363.4z"/>
		<path class="st68" d="M614.2,362.2c0,136.4-110.6,247-247.1,247S120,498.6,120,362.2c0-103.1,63.2-191.5,152.9-228.5
			c60.3-24.8,127.9-24.8,188.2,0C551.1,170.7,614.2,259,614.2,362.2z"/>
		<path class="st69" d="M612.9,360.8c0,136.4-110.6,247.1-247.1,247.1s-247.1-110.6-247.1-247c0-103.1,63.2-191.5,152.9-228.5
			c60.3-24.7,127.9-24.7,188.2,0C549.8,169.4,612.9,257.7,612.9,360.8z"/>
		<path class="st70" d="M611.6,359.6c0,136.4-110.6,247.1-247.1,247.1s-247.1-110.6-247.1-247c0-103.1,63.2-191.5,152.9-228.5
			c60.3-24.7,127.9-24.7,188.2,0C548.4,168.1,611.6,256.4,611.6,359.6z"/>
		<path class="st71" d="M610.3,358.3c0,136.4-110.6,247-247.1,247s-247.1-110.6-247.1-247c0-103.1,63.2-191.5,152.9-228.5
			c60.3-24.8,127.9-24.8,188.2,0C547.1,166.9,610.3,255.2,610.3,358.3z"/>
		<path class="st72" d="M609,357c0,136.4-110.6,247-247.1,247S114.8,493.4,114.8,357c0-103.1,63.2-191.5,152.9-228.5
			c60.3-24.7,127.9-24.7,188.2,0C545.8,165.5,609,253.9,609,357z"/>
		<path class="st73" d="M607.7,355.7c0,136.4-110.6,247.1-247.1,247.1s-247.1-110.6-247.1-247c0-103.1,63.2-191.5,152.9-228.5
			c60.3-24.8,127.9-24.8,188.2,0C544.5,164.2,607.7,252.6,607.7,355.7z"/>
		<path class="st74" d="M606.4,354.4c0,136.4-110.6,247-247.1,247s-247.1-110.6-247.1-247c0-103.1,63.2-191.5,152.9-228.5
			c60.3-24.7,127.9-24.7,188.2,0C543.2,162.9,606.4,251.3,606.4,354.4z"/>
		<path class="st75" d="M605,353.1c0,136.4-110.6,247-247.1,247s-247.1-110.6-247.1-247c0-103.1,63.2-191.5,152.9-228.5
			c60.3-24.8,127.9-24.8,188.2,0C541.9,161.7,605,250,605,353.1z"/>
		<path class="st76" d="M603.7,351.8c0,136.4-110.6,247.1-247.1,247.1s-247.1-110.6-247.1-247c0-103.1,63.2-191.5,152.9-228.5
			c60.3-24.7,127.9-24.7,188.2,0C540.5,160.4,603.7,248.7,603.7,351.8z"/>
		<path class="st77" d="M602.4,350.5c0,136.4-110.6,247-247.1,247s-247.1-110.6-247.1-247c0-103.1,63.2-191.5,152.9-228.5
			c60.3-24.7,127.9-24.7,188.2,0C539.2,159.1,602.4,247.4,602.4,350.5z"/>
		<path class="st78" d="M601.1,349.3c0,136.4-110.6,247-247.1,247s-247.1-110.6-247.1-247c0-103.1,63.2-191.5,152.9-228.5
			C320.1,96,387.7,96,448,120.8C537.9,157.8,601.1,246.1,601.1,349.3z"/>
		<path class="st79" d="M599.8,348c0,136.4-110.6,247.1-247.1,247.1s-247.1-110.6-247.1-247c0-103.1,63.2-191.5,152.9-228.5
			c60.3-24.7,127.9-24.7,188.2,0C536.6,156.5,599.8,244.8,599.8,348z"/>
		<path class="st80" d="M598.5,346.7c0,136.4-110.6,247-247.1,247s-247.1-110.6-247.1-247c0-103.1,63.2-191.5,152.9-228.5
			c60.3-24.7,127.9-24.7,188.2,0C535.3,155.2,598.5,243.6,598.5,346.7z"/>
		<path class="st81" d="M597.2,345.4c0,136.4-110.6,247.1-247.1,247.1s-247-110.7-247-247.1c0-103.1,63.2-191.5,152.9-228.5
			c60.3-24.7,127.9-24.7,188.2,0C534,153.9,597.2,242.3,597.2,345.4z"/>
		<path class="st82" d="M595.9,344.1c0,136.4-110.6,247.1-247.1,247.1s-247.1-110.6-247.1-247c0-103.1,63.2-191.5,152.9-228.5
			c60.3-24.8,127.9-24.8,188.2,0C532.7,152.6,595.9,241,595.9,344.1z"/>
		<path class="st83" d="M594.6,342.8c0,136.4-110.6,247.1-247.1,247.1s-247.1-110.7-247.1-247c0-103.1,63.2-191.5,152.9-228.5
			c60.3-24.8,127.9-24.8,188.2,0C531.4,151.3,594.6,239.7,594.6,342.8z"/>
		<path class="st84" d="M593.2,341.5c0,136.4-110.6,247.1-247.1,247.1S99,478,99,341.6c0-103.1,63.2-191.5,152.9-228.5
			c60.3-24.7,127.9-24.7,188.2,0C530.1,150,593.2,238.4,593.2,341.5z"/>
		<path class="st85" d="M591.9,340.2c0,136.4-110.6,247.1-247.1,247.1S97.7,476.7,97.7,340.3c0-103.1,63.2-191.5,152.9-228.5
			c60.3-24.8,127.9-24.8,188.2,0C528.7,148.7,591.9,237.1,591.9,340.2z"/>
		<path class="st86" d="M590.6,338.9c0,136.4-110.6,247-247.1,247S96.4,475.3,96.4,338.9c0-103.1,63.2-191.5,152.9-228.5
			c60.3-24.7,127.9-24.7,188.2,0C527.5,147.5,590.6,235.8,590.6,338.9z"/>
		<path class="st87" d="M589.3,337.6c0,136.4-110.6,247.1-247.1,247.1S95.1,474.1,95.1,337.7c0-103.1,63.2-191.5,152.9-228.5
			c60.3-24.7,127.9-24.7,188.2,0C526.1,146.2,589.3,234.5,589.3,337.6z"/>
		<path class="st88" d="M588,336.3c0,136.4-110.6,247.1-247.1,247.1S93.8,472.8,93.8,336.4c0-103.1,63.2-191.5,152.9-228.5
			c60.3-24.8,127.9-24.8,188.2,0C524.8,144.9,588,233.2,588,336.3z"/>
		<path class="st89" d="M586.7,335c0,136.4-110.6,247-247.1,247S92.5,471.4,92.5,335c0-103.1,63.2-191.5,152.9-228.5
			c60.3-24.7,127.9-24.7,188.2,0C523.5,143.6,586.7,231.9,586.7,335z"/>
		<path class="st90" d="M585.4,333.8c0,136.4-110.6,247.1-247.1,247.1S91.2,470.3,91.2,333.9c0-103.1,63.2-191.5,152.9-228.5
			c60.3-24.7,127.9-24.7,188.2,0C522.2,142.3,585.4,230.6,585.4,333.8z"/>
		<path class="st91" d="M584,332.5c0,136.4-110.6,247.1-247.1,247.1c-136.4,0-247.1-110.6-247.1-247c0-103.1,63.2-191.5,152.9-228.5
			c60.3-24.7,127.9-24.7,188.2,0C520.9,141,584,229.3,584,332.5z"/>
		<path class="st92" d="M582.7,331.2c0,136.4-110.6,247-247.1,247S88.5,467.6,88.5,331.2c0-103.1,63.2-191.5,152.9-228.5
			c60.3-24.8,127.9-24.8,188.2,0C519.6,139.7,582.7,228.1,582.7,331.2z"/>
		<path class="st93" d="M581.4,329.9c0,136.4-110.6,247.1-247.1,247.1S87.2,466.4,87.2,330c0-103.1,63.2-191.5,152.9-228.5
			c60.3-24.8,127.9-24.8,188.2,0C518.2,138.4,581.4,226.8,581.4,329.9z"/>
		<path class="st94" d="M580.1,328.6c0,136.4-110.6,247-247.1,247S85.9,465,85.9,328.6c0-103.1,63.2-191.5,152.9-228.5
			c60.3-24.7,127.9-24.7,188.2,0C516.9,137.1,580.1,225.5,580.1,328.6z"/>
		<path class="st95" d="M578.8,327.3c0,136.4-110.6,247.1-247.1,247.1S84.6,463.8,84.6,327.4c0-103.1,63.2-191.5,152.9-228.5
			c60.3-24.8,127.9-24.8,188.2,0C515.6,135.8,578.8,224.2,578.8,327.3z"/>
		<path class="st96" d="M577.5,326c0,136.4-110.6,247.1-247.1,247.1S83.3,462.5,83.3,326.1c0-103.1,63.2-191.5,152.9-228.5
			c60.3-24.7,127.9-24.7,188.2,0C514.3,134.6,577.5,222.9,577.5,326z"/>
		<path class="st97" d="M576.2,324.7c0,136.4-110.6,247.1-247.1,247.1S82,461.2,82,324.8c0-103.1,63.2-191.5,152.9-228.5
			c60.3-24.7,127.9-24.7,188.2,0C513,133.3,576.2,221.6,576.2,324.7z"/>
		<path class="st98" d="M574.9,323.4c0,136.4-110.6,247-247.1,247S80.7,459.8,80.7,323.4c0-103.1,63.2-191.5,152.9-228.5
			c60.3-24.8,127.9-24.8,188.2,0C511.7,132,574.9,220.3,574.9,323.4z"/>
		<path class="st99" d="M573.5,322.1c0,136.4-110.6,247.1-247.1,247.1S79.3,458.6,79.3,322.2c0-103.1,63.2-191.5,152.9-228.5
			c60.3-24.7,127.9-24.7,188.2,0C510.4,130.7,573.5,219,573.5,322.1z"/>
		<path class="st100" d="M572.2,320.8c0,136.4-110.6,247-247.1,247S78,457.2,78,320.8c0-103.1,63.2-191.5,152.9-228.5
			c60.3-24.7,127.9-24.7,188.2,0C509.1,129.4,572.2,217.7,572.2,320.8z"/>
		<path class="st101" d="M570.9,319.6c0,136.4-110.6,247.1-247.1,247.1S76.7,456.1,76.7,319.6c0-103.1,63.2-191.5,152.9-228.5
			c60.3-24.7,127.9-24.7,188.2,0C507.7,128.1,570.9,216.4,570.9,319.6z"/>
		<path class="st102" d="M569.6,318.3c0,136.4-110.6,247.1-247.1,247.1S75.4,454.8,75.4,318.4c0-103.1,63.2-191.5,152.9-228.5
			c60.3-24.8,127.9-24.8,188.2,0C506.4,126.8,569.6,215.2,569.6,318.3z"/>
	</g>
	<path class="st103" d="M569.6,318.3c0,136.4-110.6,247.1-247.1,247.1S75.4,454.8,75.4,318.4c0-103.1,63.2-191.5,152.9-228.5
		c60.3-24.8,127.9-24.8,188.2,0C506.4,126.8,569.6,215.2,569.6,318.3z"/>
	<path class="st104" d="M322.7,599.8h-0.2c-3.8,0-7.7-0.1-11.5-0.2l0.1-2.3c3.8,0.2,7.6,0.2,11.4,0.2L322.7,599.8z M334.3,599.6
		l-0.1-2.3c3.8-0.2,7.7-0.4,11.5-0.7l0.2,2.3C342.1,599.2,338.2,599.4,334.3,599.6L334.3,599.6z M299.5,598.9
		c-3.9-0.3-7.8-0.7-11.6-1.2l0.3-2.3c3.8,0.5,7.6,0.8,11.5,1.2L299.5,598.9z M357.5,597.7l-0.3-2.3c3.8-0.5,7.6-1,11.4-1.6l0.4,2.3
		C365.2,596.6,361.3,597.2,357.5,597.7L357.5,597.7L357.5,597.7z M276.4,596c-3.8-0.6-7.7-1.3-11.5-2.1l0.5-2.3
		c3.7,0.8,7.6,1.5,11.3,2.1L276.4,596z M380.4,593.8l-0.5-2.3c3.8-0.8,7.5-1.6,11.2-2.6l0.6,2.2C388,592.2,384.2,593.1,380.4,593.8z
		 M253.6,591.3c-3.7-0.9-7.5-2-11.2-3.1l0.7-2.2c3.7,1.1,7.4,2.1,11.1,3L253.6,591.3z M403,588.1l-0.7-2.2c3.7-1.1,7.4-2.3,11-3.5
		l0.8,2.2C410.4,585.8,406.7,587,403,588.1L403,588.1z M231.3,584.7c-3.7-1.2-7.4-2.6-10.9-4l0.8-2.2c3.6,1.4,7.2,2.7,10.9,4
		L231.3,584.7z M425,580.6l-0.8-2.2c3.6-1.4,7.1-2.9,10.6-4.4l0.9,2.1C432.2,577.7,428.6,579.2,425,580.6L425,580.6z M209.6,576.2
		c-3.6-1.6-7.1-3.2-10.6-4.9l1-2.1c3.4,1.6,7,3.3,10.5,4.9L209.6,576.2z M446.2,571.2l-1-2.1c3.4-1.7,6.9-3.5,10.3-5.3l1.1,2
		C453.2,567.7,449.7,569.5,446.2,571.2L446.2,571.2z M188.6,566c-3.4-1.8-6.8-3.8-10.1-5.7l1.2-2c3.3,2,6.7,3.9,10,5.7L188.6,566z
		 M466.7,560.1l-1.2-2c3.3-2,6.6-4,9.8-6.1l1.3,1.9C473.4,556.1,470,558.2,466.7,560.1L466.7,560.1z M168.6,554
		c-3.3-2.1-6.5-4.3-9.6-6.5l1.4-1.9c3.1,2.2,6.3,4.4,9.5,6.5L168.6,554z M486.2,547.4l-1.3-1.9c3.1-2.2,6.2-4.5,9.2-6.9l1.4,1.8
		C492.4,542.8,489.3,545.2,486.2,547.4L486.2,547.4z M149.7,540.5c-3-2.4-6.1-4.8-9-7.4l1.5-1.8c2.9,2.5,5.9,4.9,9,7.3L149.7,540.5z
		 M504.5,533.1l-1.5-1.8c2.9-2.5,5.8-5.1,8.6-7.6l1.6,1.7C510.4,528,507.5,530.6,504.5,533.1L504.5,533.1z M131.9,525.5
		c-2.9-2.6-5.7-5.3-8.4-8l1.6-1.6c2.7,2.7,5.5,5.4,8.3,8L131.9,525.5z M521.6,517.4l-1.6-1.6c2.7-2.7,5.4-5.5,8-8.3l1.7,1.6
		C527.1,511.8,524.4,514.6,521.6,517.4L521.6,517.4z M115.5,509.1c-2.6-2.8-5.2-5.7-7.7-8.7l1.8-1.5c2.5,2.9,5,5.8,7.6,8.6
		L115.5,509.1z M537.4,500.3l-1.8-1.5c2.5-2.9,4.9-5.9,7.3-9l1.8,1.4C542.4,494.2,539.9,497.3,537.4,500.3L537.4,500.3z
		 M100.4,491.3c-2.4-3-4.7-6.2-7-9.3l1.9-1.3c2.2,3.1,4.6,6.2,6.9,9.2L100.4,491.3z M551.7,481.9l-1.9-1.3c2.2-3.1,4.4-6.3,6.6-9.5
		l1.9,1.3C556.2,475.5,553.9,478.7,551.7,481.9L551.7,481.9z M86.9,472.4c-2.1-3.3-4.2-6.5-6.2-9.8l2-1.2c1.9,3.3,4,6.5,6.1,9.8
		L86.9,472.4z M564.4,462.4l-2-1.2c2-3.3,3.9-6.6,5.7-10l2,1.1C568.4,455.7,566.4,459.1,564.4,462.4L564.4,462.4z M75,452.5
		c-1.9-3.4-3.6-6.9-5.3-10.3l2.1-1c1.6,3.4,3.4,6.9,5.3,10.2L75,452.5z M575.5,441.9l-2.1-1c1.7-3.5,3.3-7,4.9-10.5l2.1,0.9
		C578.9,434.9,577.2,438.4,575.5,441.9L575.5,441.9z M64.8,431.6c-1.6-3.5-3-7.1-4.4-10.7l2.1-0.8c1.4,3.6,2.9,7.1,4.4,10.6
		L64.8,431.6z M584.9,420.6l-2.2-0.8c1.4-3.5,2.7-7.2,4-10.8l2.2,0.8C587.6,413.4,586.3,417,584.9,420.6L584.9,420.6z M56.3,410
		c-1.3-3.7-2.5-7.4-3.6-11.1l2.2-0.7c1.1,3.6,2.3,7.4,3.5,11L56.3,410z M592.4,398.6l-2.2-0.7c1.1-3.7,2.1-7.4,3.1-11.1l2.2,0.6
		C594.6,391.1,593.5,394.9,592.4,398.6L592.4,398.6z M49.7,387.7c-1-3.8-1.8-7.6-2.6-11.3l2.3-0.5c0.8,3.7,1.6,7.5,2.6,11.2
		L49.7,387.7z M598.2,376.1l-2.3-0.5c0.8-3.7,1.5-7.5,2.1-11.3l2.3,0.4C599.7,368.4,598.9,372.3,598.2,376.1L598.2,376.1z
		 M44.9,364.9c-0.6-3.8-1.2-7.7-1.6-11.5l2.3-0.3c0.5,3.8,1,7.6,1.6,11.4L44.9,364.9z M601.9,353.1l-2.3-0.3
		c0.5-3.8,0.9-7.6,1.2-11.5l2.3,0.2C602.8,345.4,602.4,349.3,601.9,353.1z M42,341.8c-0.3-3.8-0.6-7.7-0.7-11.6l2.3-0.1
		c0.2,3.9,0.4,7.7,0.7,11.5L42,341.8z M603.9,329.9l-2.3-0.1c0.2-3.8,0.2-7.7,0.2-11.5h2.3C604.1,322.1,604,326,603.9,329.9
		L603.9,329.9z M43.3,318.6H41v-0.3c0-3.8,0.1-7.6,0.2-11.3l2.3,0.1c-0.1,3.7-0.2,7.5-0.2,11.2V318.6z M601.5,306.2
		c-0.2-3.8-0.4-7.7-0.7-11.5l2.3-0.2c0.3,3.9,0.6,7.8,0.7,11.6L601.5,306.2z M44.2,295.5l-2.3-0.2c0.3-3.9,0.7-7.8,1.2-11.6l2.3,0.3
		C44.9,287.9,44.6,291.7,44.2,295.5L44.2,295.5z M599.6,283.1c-0.5-3.8-1-7.6-1.6-11.5l2.3-0.4c0.6,3.8,1.2,7.7,1.7,11.5
		L599.6,283.1z M47,272.7l-2.3-0.4c0.6-3.8,1.3-7.7,2.1-11.5l2.3,0.5C48.4,265.1,47.7,268.9,47,272.7z M595.7,260.4
		c-0.8-3.7-1.6-7.5-2.6-11.2l2.2-0.6c0.9,3.8,1.8,7.5,2.6,11.3L595.7,260.4z M51.7,250l-2.2-0.5c0.9-3.8,2-7.6,3.1-11.2l2.2,0.7
		C53.7,242.6,52.7,246.3,51.7,250L51.7,250z M590.1,238.1c-1.1-3.7-2.3-7.4-3.5-11l2.2-0.8c1.2,3.6,2.5,7.4,3.6,11L590.1,238.1z
		 M58.3,227.9l-2.2-0.7c1.2-3.7,2.6-7.4,4-11l2.2,0.8C60.9,220.6,59.5,224.3,58.3,227.9L58.3,227.9z M582.6,216.3
		c-1.4-3.5-2.9-7.1-4.4-10.6l2.1-0.9c1.6,3.5,3.1,7.1,4.5,10.7L582.6,216.3z M66.7,206.4l-2.1-0.9c1.6-3.5,3.2-7.1,4.9-10.6l2.1,1
		C69.8,199.3,68.2,202.9,66.7,206.4z M573.3,195.2c-1.6-3.4-3.4-6.8-5.3-10.2l2-1.1c1.9,3.4,3.7,6.9,5.3,10.3L573.3,195.2z
		 M76.8,185.6l-2-1.1c1.8-3.4,3.8-6.8,5.7-10.1l2,1.2C80.5,178.9,78.6,182.2,76.8,185.6z M562.2,175c-2-3.3-4-6.6-6.1-9.8l1.9-1.3
		c2.1,3.2,4.2,6.6,6.2,9.8L562.2,175z M88.6,165.7l-1.9-1.3c2.1-3.2,4.3-6.5,6.6-9.6l1.9,1.3C92.9,159.3,90.7,162.6,88.6,165.7
		L88.6,165.7z M549.6,155.7c-2.2-3.1-4.5-6.2-6.9-9.2l1.8-1.4c2.4,3.1,4.7,6.2,7,9.3L549.6,155.7z M102,147l-1.8-1.4
		c2.4-3,4.8-6.1,7.4-9l1.8,1.5C106.8,140.9,104.4,143.9,102,147z M535.4,137.5c-2.5-2.9-5-5.8-7.6-8.6l1.7-1.6
		c2.6,2.9,5.2,5.8,7.7,8.7L535.4,137.5z M116.9,129.4l-1.7-1.6c2.6-2.8,5.3-5.7,8.1-8.4l1.6,1.6
		C122.2,123.7,119.5,126.6,116.9,129.4L116.9,129.4z M519.7,120.6c-2.7-2.7-5.5-5.4-8.3-8l1.6-1.7c2.9,2.6,5.7,5.3,8.4,8.1
		L519.7,120.6z M133.2,113l-1.6-1.7c2.8-2.6,5.7-5.2,8.7-7.7l1.5,1.8C138.9,107.9,136,110.4,133.2,113L133.2,113z M502.7,105
		c-2.9-2.5-5.9-4.9-9-7.3l1.4-1.8c3.1,2.4,6.1,4.8,9,7.4L502.7,105z M150.8,98.1l-1.4-1.8c3-2.4,6.2-4.7,9.3-7l1.4,1.9
		C157,93.4,153.8,95.7,150.8,98.1L150.8,98.1z M484.5,90.8c-3.1-2.2-6.3-4.4-9.5-6.6l1.3-1.9c3.3,2.1,6.5,4.3,9.6,6.6L484.5,90.8z
		 M169.5,84.7l-1.3-1.9c3.2-2.1,6.6-4.2,9.8-6.2l1.2,2C176,80.5,172.7,82.6,169.5,84.7L169.5,84.7z M465.2,78.2
		c-3.3-2-6.7-3.9-10-5.7l1.1-2c3.4,1.8,6.8,3.8,10.1,5.7L465.2,78.2z M189.3,72.8l-1.1-2c3.4-1.8,6.9-3.6,10.3-5.3l1,2.1
		C196.1,69.2,192.7,71,189.3,72.8L189.3,72.8z M444.9,67.2c-3.4-1.7-7-3.3-10.5-4.8l0.9-2.1c3.5,1.6,7.1,3.2,10.6,4.9L444.9,67.2z
		 M210,62.6l-1-2.1c2.1-0.9,4.1-1.8,6.2-2.6c1.5-0.6,3-1.2,4.6-1.8l0.8,2.2c-1.5,0.6-3,1.2-4.5,1.8C214.1,60.9,212.1,61.8,210,62.6
		L210,62.6z M423.7,57.9c-3.6-1.4-7.2-2.7-10.8-4l0.7-2.2c3.7,1.2,7.4,2.6,10.9,4L423.7,57.9z M231.5,54.2l-0.8-2.2
		c3.7-1.3,7.4-2.5,11.1-3.6l0.6,2.2C238.8,51.8,235.1,53,231.5,54.2L231.5,54.2z M401.9,50.5c-3.7-1.1-7.4-2.1-11.1-3l0.6-2.2
		c3.7,0.9,7.5,2,11.2,3.1L401.9,50.5z M253.6,47.6l-0.6-2.2c3.7-0.9,7.6-1.8,11.3-2.6l0.5,2.3C261.1,45.8,257.4,46.7,253.6,47.6
		L253.6,47.6z M379.5,44.9c-3.8-0.8-7.6-1.5-11.3-2.1l0.4-2.3c3.8,0.6,7.7,1.3,11.5,2.1L379.5,44.9z M276.2,42.9l-0.4-2.3
		c3.8-0.6,7.7-1.2,11.5-1.7l0.3,2.3C283.8,41.7,280,42.2,276.2,42.9z M356.7,41.1c-3.8-0.5-7.7-0.9-11.5-1.2l0.2-2.3
		c3.8,0.3,7.7,0.7,11.6,1.2L356.7,41.1z M299.1,40l-0.2-2.3c3.9-0.3,7.8-0.6,11.6-0.7l0.1,2.3C306.8,39.5,302.9,39.7,299.1,40z
		 M333.7,39.2C330,39,326.3,39,322.6,39h-0.4v-2.3h0.4c3.7,0,7.5,0.1,11.2,0.2L333.7,39.2z"/>
	<path class="st105" d="M686.2,336.4l-50.6-34.7v16.6h-50.1c0,145.2-117.8,263-263,263l0,0v17.4h-0.1v17.4h2.3
		C474.4,615,600,502.9,618,354.3h17.5v16.9L686.2,336.4z"/>
</g>
</svg>
