<?xml version="1.0" encoding="utf-8"?>
<!-- Generator: Adobe Illustrator 26.1.0, SVG Export Plug-In . SVG Version: 6.00 Build 0)  -->
<svg width="200" version="1.1" id="Layer_1" xmlns="http://www.w3.org/2000/svg" xmlns:xlink="http://www.w3.org/1999/xlink" x="0px" y="0px"
	 viewBox="0 0 709.8 772.5" style="enable-background:new 0 0 709.8 772.5;" xml:space="preserve">
<style type="text/css">
	.st0{opacity:0.36;}
	.st1{fill:#FFFFFF;fill-opacity:0;}
	.st2{opacity:1.000000e-02;fill:#FDFDFD;enable-background:new    ;}
	.st3{opacity:2.000000e-02;fill:#FCFCFC;enable-background:new    ;}
	.st4{opacity:3.000000e-02;fill:#FAFAFA;enable-background:new    ;}
	.st5{opacity:4.000000e-02;fill:#F9F9F9;enable-background:new    ;}
	.st6{opacity:5.000000e-02;fill:#F7F7F7;enable-background:new    ;}
	.st7{opacity:6.000000e-02;fill:#F6F6F6;enable-background:new    ;}
	.st8{opacity:7.000000e-02;fill:#F4F4F4;enable-background:new    ;}
	.st9{opacity:8.000000e-02;fill:#F3F3F3;enable-background:new    ;}
	.st10{opacity:9.000000e-02;fill:#F1F1F1;enable-background:new    ;}
	.st11{opacity:0.1;fill:#F0F0F0;enable-background:new    ;}
	.st12{opacity:0.11;fill:#EEEEEE;enable-background:new    ;}
	.st13{opacity:0.12;fill:#EDEDED;enable-background:new    ;}
	.st14{opacity:0.13;fill:#EBEBEB;enable-background:new    ;}
	.st15{opacity:0.14;fill:#EAEAEA;enable-background:new    ;}
	.st16{opacity:0.15;fill:#E8E8E8;enable-background:new    ;}
	.st17{opacity:0.16;fill:#E7E7E7;enable-background:new    ;}
	.st18{opacity:0.17;fill:#E5E5E5;enable-background:new    ;}
	.st19{opacity:0.18;fill:#E4E4E4;enable-background:new    ;}
	.st20{opacity:0.19;fill:#E2E2E2;enable-background:new    ;}
	.st21{opacity:0.2;fill:#E1E1E1;enable-background:new    ;}
	.st22{opacity:0.21;fill:#DFDFDF;enable-background:new    ;}
	.st23{opacity:0.22;fill:#DEDEDE;enable-background:new    ;}
	.st24{opacity:0.23;fill:#DCDCDC;enable-background:new    ;}
	.st25{opacity:0.24;fill:#DBDBDB;enable-background:new    ;}
	.st26{opacity:0.25;fill:#D9D9D9;enable-background:new    ;}
	.st27{opacity:0.26;fill:#D8D8D8;enable-background:new    ;}
	.st28{opacity:0.27;fill:#D6D6D6;enable-background:new    ;}
	.st29{opacity:0.28;fill:#D5D5D5;enable-background:new    ;}
	.st30{opacity:0.29;fill:#D3D3D3;enable-background:new    ;}
	.st31{opacity:0.3;fill:#D2D2D2;enable-background:new    ;}
	.st32{opacity:0.31;fill:#D0D0D0;enable-background:new    ;}
	.st33{opacity:0.32;fill:#CFCFCF;enable-background:new    ;}
	.st34{opacity:0.33;fill:#CDCDCD;enable-background:new    ;}
	.st35{opacity:0.34;fill:#CBCBCB;enable-background:new    ;}
	.st36{opacity:0.35;fill:#CACACA;enable-background:new    ;}
	.st37{opacity:0.36;fill:#C8C8C8;enable-background:new    ;}
	.st38{opacity:0.37;fill:#C7C7C7;enable-background:new    ;}
	.st39{opacity:0.38;fill:#C5C5C5;enable-background:new    ;}
	.st40{opacity:0.39;fill:#C4C4C4;enable-background:new    ;}
	.st41{opacity:0.4;fill:#C2C2C2;enable-background:new    ;}
	.st42{opacity:0.41;fill:#C1C1C1;enable-background:new    ;}
	.st43{opacity:0.42;fill:#BFBFBF;enable-background:new    ;}
	.st44{opacity:0.43;fill:#BEBEBE;enable-background:new    ;}
	.st45{opacity:0.44;fill:#BCBCBC;enable-background:new    ;}
	.st46{opacity:0.45;fill:#BBBBBB;enable-background:new    ;}
	.st47{opacity:0.46;fill:#B9B9B9;enable-background:new    ;}
	.st48{opacity:0.47;fill:#B8B8B8;enable-background:new    ;}
	.st49{opacity:0.48;fill:#B6B6B6;enable-background:new    ;}
	.st50{opacity:0.49;fill:#B5B5B5;enable-background:new    ;}
	.st51{opacity:0.5;fill:#B3B3B3;enable-background:new    ;}
	.st52{opacity:0.5;fill:#B2B2B2;enable-background:new    ;}
	.st53{opacity:0.51;fill:#B0B0B0;enable-background:new    ;}
	.st54{opacity:0.52;fill:#AFAFAF;enable-background:new    ;}
	.st55{opacity:0.53;fill:#ADADAD;enable-background:new    ;}
	.st56{opacity:0.54;fill:#ACACAC;enable-background:new    ;}
	.st57{opacity:0.55;fill:#AAAAAA;enable-background:new    ;}
	.st58{opacity:0.56;fill:#A9A9A9;enable-background:new    ;}
	.st59{opacity:0.57;fill:#A7A7A7;enable-background:new    ;}
	.st60{opacity:0.58;fill:#A6A6A6;enable-background:new    ;}
	.st61{opacity:0.59;fill:#A4A4A4;enable-background:new    ;}
	.st62{opacity:0.6;fill:#A3A3A3;enable-background:new    ;}
	.st63{opacity:0.61;fill:#A1A1A1;enable-background:new    ;}
	.st64{opacity:0.62;fill:#A0A0A0;enable-background:new    ;}
	.st65{opacity:0.63;fill:#9E9E9E;enable-background:new    ;}
	.st66{opacity:0.64;fill:#9D9D9D;enable-background:new    ;}
	.st67{opacity:0.65;fill:#9B9B9B;enable-background:new    ;}
	.st68{opacity:0.66;fill:#9A9A9A;enable-background:new    ;}
	.st69{opacity:0.67;fill:#989898;enable-background:new    ;}
	.st70{opacity:0.68;fill:#969696;enable-background:new    ;}
	.st71{opacity:0.69;fill:#959595;enable-background:new    ;}
	.st72{opacity:0.7;fill:#939393;enable-background:new    ;}
	.st73{opacity:0.71;fill:#929292;enable-background:new    ;}
	.st74{opacity:0.72;fill:#909090;enable-background:new    ;}
	.st75{opacity:0.73;fill:#8F8F8F;enable-background:new    ;}
	.st76{opacity:0.74;fill:#8D8D8D;enable-background:new    ;}
	.st77{opacity:0.75;fill:#8C8C8C;enable-background:new    ;}
	.st78{opacity:0.76;fill:#8A8A8A;enable-background:new    ;}
	.st79{opacity:0.77;fill:#898989;enable-background:new    ;}
	.st80{opacity:0.78;fill:#878787;enable-background:new    ;}
	.st81{opacity:0.79;fill:#868686;enable-background:new    ;}
	.st82{opacity:0.8;fill:#848484;enable-background:new    ;}
	.st83{opacity:0.81;fill:#838383;enable-background:new    ;}
	.st84{opacity:0.82;fill:#818181;enable-background:new    ;}
	.st85{opacity:0.83;fill:#808080;enable-background:new    ;}
	.st86{opacity:0.84;fill:#7E7E7E;enable-background:new    ;}
	.st87{opacity:0.85;fill:#7D7D7D;enable-background:new    ;}
	.st88{opacity:0.86;fill:#7B7B7B;enable-background:new    ;}
	.st89{opacity:0.87;fill:#7A7A7A;enable-background:new    ;}
	.st90{opacity:0.88;fill:#787878;enable-background:new    ;}
	.st91{opacity:0.89;fill:#777777;enable-background:new    ;}
	.st92{opacity:0.9;fill:#757575;enable-background:new    ;}
	.st93{opacity:0.91;fill:#747474;enable-background:new    ;}
	.st94{opacity:0.92;fill:#727272;enable-background:new    ;}
	.st95{opacity:0.93;fill:#717171;enable-background:new    ;}
	.st96{opacity:0.94;fill:#6F6F6F;enable-background:new    ;}
	.st97{opacity:0.95;fill:#6E6E6E;enable-background:new    ;}
	.st98{opacity:0.96;fill:#6C6C6C;enable-background:new    ;}
	.st99{opacity:0.97;fill:#6B6B6B;enable-background:new    ;}
	.st100{opacity:0.98;fill:#696969;enable-background:new    ;}
	.st101{opacity:0.99;fill:#686868;enable-background:new    ;}
	.st102{fill:#666666;}
	.st103{fill:#FFFFFF;}
	.st104{fill:#808080;}
	.st105{fill:#FFB10A;}
</style>
<g>
	<g class="st0">
		<path class="st1" d="M692.6,445.2c0,136.4-110.6,247.1-247.1,247.1s-247.1-110.6-247.1-247c0-103.1,63.2-191.5,152.9-228.5
			c60.3-24.8,127.9-24.8,188.2,0C629.4,253.8,692.6,342.1,692.6,445.2z"/>
		<path class="st2" d="M691.3,443.9c0,136.4-110.6,247-247.1,247s-247.1-110.6-247.1-247c0-103.1,63.2-191.5,152.9-228.5
			c60.3-24.7,127.9-24.7,188.2,0C628.1,252.5,691.3,340.8,691.3,443.9z"/>
		<path class="st3" d="M689.9,442.7c0,136.4-110.6,247-247.1,247s-247.1-110.6-247.1-247c0-103.1,63.2-191.5,152.9-228.5
			c60.3-24.7,127.9-24.7,188.2,0C626.8,251.2,689.9,339.5,689.9,442.7z"/>
		<path class="st4" d="M688.6,441.4c0,136.4-110.6,247.1-247.1,247.1s-247-110.6-247-247c0-103.1,63.2-191.5,152.9-228.5
			c60.3-24.8,127.9-24.8,188.2,0C625.5,249.9,688.6,338.2,688.6,441.4z"/>
		<path class="st5" d="M687.3,440.1c0,136.4-110.6,247.1-247.1,247.1s-247.1-110.7-247.1-247c0-103.1,63.2-191.5,152.9-228.5
			c60.3-24.7,127.9-24.7,188.2,0C624.1,248.6,687.3,337,687.3,440.1z"/>
		<path class="st6" d="M686,438.8c0,136.4-110.6,247-247.1,247s-247-110.6-247-247c0-103.1,63.2-191.5,152.9-228.5
			c60.3-24.8,127.9-24.8,188.2,0C622.8,247.3,686,335.7,686,438.8z"/>
		<path class="st7" d="M684.7,437.5c0,136.4-110.6,247.1-247.1,247.1S190.5,574,190.5,437.6c0-103.1,63.2-191.5,152.9-228.5
			c60.3-24.8,127.9-24.8,188.2,0C621.5,246,684.7,334.4,684.7,437.5z"/>
		<path class="st8" d="M683.4,436.2c0,136.4-110.6,247-247.1,247s-247.1-110.6-247.1-247c0-103.1,63.2-191.5,152.9-228.5
			c60.3-24.7,127.9-24.7,188.2,0C620.2,244.7,683.4,333.1,683.4,436.2z"/>
		<path class="st9" d="M682.1,434.9c0,136.4-110.6,247-247.1,247s-247-110.6-247-247c0-103.1,63.2-191.5,152.9-228.5
			c60.3-24.7,127.9-24.7,188.2,0C618.9,243.4,682.1,331.8,682.1,434.9z"/>
		<path class="st10" d="M680.8,433.6c0,136.4-110.6,247.1-247.1,247.1s-247.1-110.6-247.1-247c0-103.1,63.2-191.5,152.9-228.5
			c60.3-24.7,127.9-24.7,188.2,0C617.6,242.2,680.8,330.5,680.8,433.6z"/>
		<path class="st11" d="M679.4,432.3c0,136.4-110.6,247-247.1,247s-247.1-110.6-247.1-247c0-103.1,63.2-191.5,152.9-228.5
			c60.3-24.8,127.9-24.8,188.2,0C616.3,240.9,679.4,329.2,679.4,432.3z"/>
		<path class="st12" d="M678.1,431c0,136.4-110.6,247-247.1,247S183.9,567.4,183.9,431c0-103.1,63.2-191.5,152.9-228.5
			c60.3-24.7,127.9-24.7,188.2,0C615,239.6,678.1,327.9,678.1,431z"/>
		<path class="st13" d="M676.8,429.7c0,136.4-110.6,247.1-247.1,247.1s-247.1-110.7-247.1-247c0-103.1,63.2-191.5,152.9-228.5
			c60.3-24.7,127.9-24.7,188.2,0C613.7,238.3,676.8,326.6,676.8,429.7z"/>
		<path class="st14" d="M675.5,428.5c0,136.4-110.6,247-247.1,247s-247.1-110.6-247.1-247c0-103.1,63.2-191.5,152.9-228.5
			c60.3-24.8,127.9-24.8,188.2,0C612.3,237,675.5,325.3,675.5,428.5z"/>
		<path class="st15" d="M674.2,427.2c0,136.4-110.6,247-247,247s-247.1-110.6-247.1-247c0-103.1,63.2-191.5,152.9-228.5
			c60.3-24.7,127.9-24.7,188.2,0C611,235.7,674.2,324,674.2,427.2z"/>
		<path class="st16" d="M672.9,425.9c0,136.4-110.6,247.1-247.1,247.1S178.7,562.4,178.7,426c0-103.1,63.2-191.5,152.9-228.5
			c60.3-24.8,127.9-24.8,188.2,0C609.7,234.4,672.9,322.8,672.9,425.9z"/>
		<path class="st17" d="M671.6,424.6c0,136.4-110.6,247.1-247.1,247.1s-247.1-110.6-247.1-247c0-103.1,63.2-191.5,152.9-228.5
			c60.3-24.7,127.9-24.7,188.2,0C608.4,233.1,671.6,321.4,671.6,424.6z"/>
		<path class="st18" d="M670.3,423.3c0,136.4-110.6,247.1-247.1,247.1s-247.1-110.6-247.1-247c0-103.1,63.2-191.5,152.9-228.5
			c60.3-24.8,127.9-24.8,188.2,0C607.1,231.8,670.3,320.2,670.3,423.3z"/>
		<path class="st19" d="M668.9,422c0,136.4-110.6,247.1-247.1,247.1s-247.1-110.6-247.1-247c0-103.1,63.2-191.5,152.9-228.5
			c60.3-24.7,127.9-24.7,188.2,0C605.8,230.6,668.9,318.9,668.9,422z"/>
		<path class="st20" d="M667.6,420.7c0,136.4-110.6,247-247.1,247s-247-110.6-247-247c0-103.1,63.2-191.5,152.9-228.5
			c60.3-24.7,127.9-24.7,188.2,0C604.5,229.3,667.6,317.6,667.6,420.7z"/>
		<path class="st21" d="M666.3,419.4c0,136.4-110.6,247.1-247.1,247.1s-247-110.6-247-247.1c0-103.1,63.2-191.5,152.9-228.5
			c60.3-24.8,127.9-24.8,188.2,0C603.1,228,666.3,316.3,666.3,419.4z"/>
		<path class="st22" d="M665,418.1c0,136.4-110.6,247.1-247,247.1S170.9,554.6,170.9,418.1c0-103.1,63.2-191.5,152.9-228.5
			c60.3-24.7,127.9-24.7,188.2,0C601.8,226.7,665,315,665,418.1z"/>
		<path class="st23" d="M663.7,416.8c0,136.4-110.6,247-247.1,247s-247.1-110.6-247.1-247c0-103.1,63.2-191.5,152.9-228.5
			c60.3-24.7,127.9-24.7,188.2,0C600.5,225.4,663.7,313.7,663.7,416.8z"/>
		<path class="st24" d="M662.4,415.5c0,136.4-110.6,247.1-247.1,247.1S168.2,552,168.2,415.6c0-103.1,63.2-191.5,152.9-228.5
			c60.3-24.8,127.9-24.8,188.2,0C599.2,224.1,662.4,312.4,662.4,415.5z"/>
		<path class="st25" d="M661.1,414.3c0,136.4-110.6,247-247.1,247s-247.1-110.6-247.1-247c0-103.1,63.2-191.5,152.9-228.5
			c60.3-24.7,127.9-24.7,188.2,0C597.9,222.8,661.1,311.1,661.1,414.3z"/>
		<path class="st26" d="M659.7,413c0,136.4-110.6,247-247.1,247S165.5,549.4,165.5,413c0-103.1,63.2-191.5,152.9-228.5
			c60.3-24.8,127.9-24.8,188.2,0C596.6,221.5,659.7,309.9,659.7,413z"/>
		<path class="st27" d="M658.4,411.7c0,136.4-110.6,247.1-247.1,247.1s-247.1-110.6-247.1-247c0-103.1,63.2-191.5,152.9-228.5
			c60.3-24.7,127.9-24.7,188.2,0C595.3,220.2,658.4,308.5,658.4,411.7z"/>
		<path class="st28" d="M657.1,410.4c0,136.4-110.6,247-247.1,247s-247.1-110.6-247.1-247c0-103.1,63.2-191.5,152.9-228.5
			c60.3-24.8,127.9-24.8,188.2,0C594,218.9,657.1,307.3,657.1,410.4z"/>
		<path class="st29" d="M655.8,409.1c0,136.4-110.6,247-247.1,247s-247-110.6-247-247c0-103.1,63.2-191.5,152.9-228.5
			c60.3-24.7,127.9-24.7,188.2,0C592.7,217.6,655.8,306,655.8,409.1z"/>
		<path class="st30" d="M654.5,407.8c0,136.4-110.6,247.1-247.1,247.1s-247.1-110.6-247.1-247c0-103.1,63.2-191.5,152.9-228.5
			c60.3-24.7,127.9-24.7,188.2,0C591.3,216.4,654.5,304.7,654.5,407.8z"/>
		<path class="st31" d="M653.2,406.5c0,136.4-110.6,247.1-247.1,247.1S159,543,159,406.6c0-103.1,63.2-191.5,152.9-228.5
			c60.3-24.8,127.9-24.8,188.2,0C590,215,653.2,303.4,653.2,406.5z"/>
		<path class="st32" d="M651.9,405.2c0,136.4-110.6,247-247.1,247s-247.1-110.6-247.1-247c0-103.1,63.2-191.5,152.9-228.5
			c60.3-24.7,127.9-24.7,188.2,0C588.7,213.8,651.9,302.1,651.9,405.2z"/>
		<path class="st33" d="M650.6,403.9C650.6,540.3,540,651,403.5,651S156.4,540.4,156.4,404c0-103.1,63.2-191.5,152.9-228.5
			c60.3-24.7,127.9-24.7,188.2,0C587.4,212.5,650.6,300.8,650.6,403.9z"/>
		<path class="st34" d="M649.2,402.6c0,136.4-110.6,247-247.1,247S155,539,155,402.6c0-103.1,63.2-191.5,152.9-228.5
			c60.3-24.8,127.9-24.8,188.2,0C586.1,211.2,649.2,299.5,649.2,402.6z"/>
		<path class="st35" d="M648,401.4c0,136.4-110.6,247-247.1,247s-247-110.6-247-247c0-103.1,63.2-191.5,152.9-228.5
			c60.3-24.7,127.9-24.7,188.2,0C584.8,209.9,648,298.2,648,401.4z"/>
		<path class="st36" d="M646.6,400.1c0,136.4-110.6,247.1-247.1,247.1s-247.1-110.6-247.1-247c0-103.1,63.2-191.5,152.9-228.5
			c60.3-24.8,127.9-24.8,188.2,0C583.5,208.6,646.6,296.9,646.6,400.1z"/>
		<path class="st37" d="M645.3,398.8c0,136.4-110.6,247-247.1,247s-247-110.6-247-247c0-103.1,63.2-191.5,152.9-228.5
			c60.3-24.7,127.9-24.7,188.2,0C582.1,207.3,645.3,295.6,645.3,398.8z"/>
		<path class="st38" d="M644,397.5c0,136.4-110.6,247.1-247.1,247.1s-247-110.7-247-247.1c0-103.1,63.2-191.5,152.9-228.5
			c60.3-24.8,127.9-24.8,188.2,0C580.9,206,644,294.4,644,397.5z"/>
		<path class="st39" d="M642.7,396.2c0,136.4-110.6,247.1-247.1,247.1s-247.1-110.7-247.1-247c0-103.1,63.2-191.5,152.9-228.5
			c60.3-24.7,127.9-24.7,188.2,0C579.5,204.7,642.7,293.1,642.7,396.2z"/>
		<path class="st40" d="M641.4,394.9c0,136.4-110.6,247-247.1,247s-247.1-110.6-247.1-247c0-103.1,63.2-191.5,152.9-228.5
			c60.3-24.7,127.9-24.7,188.2,0C578.2,203.4,641.4,291.8,641.4,394.9z"/>
		<path class="st41" d="M640,393.6c0,136.4-110.6,247.1-247.1,247.1s-247-110.6-247-247.1c0-103.1,63.2-191.5,152.9-228.5
			c60.3-24.8,127.9-24.8,188.2,0C576.9,202.1,640,290.5,640,393.6z"/>
		<path class="st42" d="M638.7,392.3c0,136.4-110.6,247.1-247.1,247.1s-247.1-110.6-247.1-247c0-103.1,63.2-191.5,152.9-228.5
			c60.3-24.7,127.9-24.7,188.2,0C575.6,200.9,638.7,289.2,638.7,392.3z"/>
		<path class="st43" d="M637.4,391c0,136.4-110.6,247.1-247.1,247.1s-247.1-110.6-247.1-247c0-103.1,63.2-191.5,152.9-228.5
			c60.3-24.8,127.9-24.8,188.2,0C574.3,199.6,637.4,287.9,637.4,391z"/>
		<path class="st44" d="M636.1,389.7c0,136.4-110.6,247.1-247.1,247.1s-247.1-110.6-247.1-247c0-103.1,63.2-191.5,152.9-228.5
			c60.3-24.8,127.9-24.8,188.2,0C573,198.3,636.1,286.6,636.1,389.7z"/>
		<path class="st45" d="M634.8,388.4c0,136.4-110.6,247.1-247.1,247.1s-247-110.6-247-247.1c0-103.1,63.2-191.5,152.9-228.5
			c60.3-24.7,127.9-24.7,188.2,0C571.6,197,634.8,285.3,634.8,388.4z"/>
		<path class="st46" d="M633.5,387.2c0,136.4-110.6,247-247.1,247s-247.1-110.6-247.1-247c0-103.1,63.2-191.5,152.9-228.5
			c60.3-24.8,127.9-24.8,188.2,0C570.3,195.7,633.5,284,633.5,387.2z"/>
		<path class="st47" d="M632.2,385.9c0,136.4-110.6,247.1-247.1,247.1S138,522.4,138,386c0-103.1,63.2-191.5,152.9-228.5
			c60.3-24.7,127.9-24.7,188.2,0C569,194.4,632.2,282.7,632.2,385.9z"/>
		<path class="st48" d="M630.9,384.6c0,136.4-110.6,247.1-247.1,247.1s-247.1-110.6-247.1-247c0-103.1,63.2-191.5,152.9-228.5
			c60.3-24.8,127.9-24.8,188.2,0C567.7,193.1,630.9,281.4,630.9,384.6z"/>
		<path class="st49" d="M629.6,383.3c0,136.4-110.6,247-247.1,247s-247.1-110.6-247.1-247c0-103.1,63.2-191.5,152.9-228.5
			c60.3-24.7,127.9-24.7,188.2,0C566.4,191.8,629.6,280.2,629.6,383.3z"/>
		<path class="st50" d="M628.2,382c0,136.4-110.6,247.1-247.1,247.1S134,518.5,134,382.1c0-103.1,63.2-191.5,152.9-228.5
			c60.3-24.7,127.9-24.7,188.2,0C565.1,190.5,628.2,278.9,628.2,382z"/>
		<path class="st51" d="M626.9,380.7c0,136.4-110.6,247-247.1,247s-247.1-110.6-247.1-247c0-103.1,63.2-191.5,152.9-228.5
			c60.3-24.8,127.9-24.8,188.2,0C563.8,189.2,626.9,277.6,626.9,380.7z"/>
		<path class="st52" d="M625.6,379.4c0,136.4-110.6,247-247.1,247s-247-110.6-247-247c0-103.1,63.2-191.5,152.9-228.5
			c60.3-24.7,127.9-24.7,188.2,0C562.5,187.9,625.6,276.3,625.6,379.4z"/>
		<path class="st53" d="M624.3,378.1c0,136.4-110.6,247.1-247.1,247.1s-247-110.6-247-247.1c0-103.1,63.2-191.5,152.9-228.5
			c60.3-24.8,127.9-24.8,188.2,0C561.1,186.6,624.3,275,624.3,378.1z"/>
		<path class="st54" d="M623,376.8c0,136.4-110.6,247-247.1,247s-247-110.5-247-247c0-103.1,63.2-191.5,152.9-228.5
			c60.3-24.7,127.9-24.7,188.2,0C559.8,185.4,623,273.7,623,376.8z"/>
		<path class="st55" d="M621.7,375.5c0,136.4-110.6,247.1-247.1,247.1S127.5,512,127.5,375.6c0-103.1,63.2-191.5,152.9-228.5
			c60.3-24.8,127.9-24.8,188.2,0C558.5,184.1,621.7,272.4,621.7,375.5z"/>
		<path class="st56" d="M620.4,374.2c0,136.4-110.6,247.1-247.1,247.1s-247.1-110.6-247.1-247c0-103.1,63.2-191.5,152.9-228.5
			c60.3-24.8,127.9-24.8,188.2,0C557.2,182.8,620.4,271.1,620.4,374.2z"/>
		<path class="st57" d="M619.1,373c0,136.4-110.6,247.1-247.1,247.1s-247-110.7-247-247c0-103.1,63.2-191.5,152.9-228.5
			c60.3-24.7,127.9-24.7,188.2,0C555.9,181.5,619.1,269.9,619.1,373z"/>
		<path class="st58" d="M617.7,371.7c0,136.4-110.6,247.1-247.1,247.1s-247.1-110.6-247.1-247c0-103.1,63.2-191.5,152.9-228.5
			c60.3-24.8,127.9-24.8,188.2,0C554.6,180.2,617.7,268.5,617.7,371.7z"/>
		<path class="st59" d="M616.4,370.4c0,136.4-110.6,247.1-247.1,247.1s-247.1-110.6-247.1-247c0-103.1,63.2-191.5,152.9-228.5
			c60.3-24.7,127.9-24.7,188.2,0C553.3,178.9,616.4,267.3,616.4,370.4z"/>
		<path class="st60" d="M615.1,369.1c0,136.4-110.6,247-247.1,247s-247.1-110.6-247.1-247c0-103.1,63.2-191.5,152.9-228.5
			c60.3-24.7,127.9-24.7,188.2,0C552,177.6,615.1,266,615.1,369.1z"/>
		<path class="st61" d="M613.8,367.8c0,136.4-110.6,247-247.1,247s-247.1-110.6-247.1-247c0-103.1,63.2-191.5,152.9-228.5
			c60.3-24.8,127.9-24.8,188.2,0C550.6,176.3,613.8,264.7,613.8,367.8z"/>
		<path class="st62" d="M612.5,366.5c0,136.4-110.6,247.1-247.1,247.1s-247-110.6-247-247c0-103.1,63.2-191.5,152.9-228.5
			c60.3-24.7,127.9-24.7,188.2,0C549.3,175,612.5,263.4,612.5,366.5z"/>
		<path class="st63" d="M611.1,365.2c0,136.4-110.6,247-247.1,247s-247.1-110.6-247.1-247c0-103.1,63.2-191.5,152.9-228.5
			c60.3-24.8,127.9-24.8,188.2,0C548,173.7,611.1,262.1,611.1,365.2z"/>
		<path class="st64" d="M609.9,363.9c0,136.4-110.6,247.1-247.1,247.1S115.7,500.4,115.7,364c0-103.1,63.2-191.5,152.9-228.5
			c60.3-24.7,127.9-24.7,188.2,0C546.7,172.5,609.9,260.8,609.9,363.9z"/>
		<path class="st65" d="M608.6,362.6c0,136.4-110.6,247.1-247.1,247.1s-247.1-110.6-247.1-247c0-103.1,63.2-191.5,152.9-228.5
			c60.3-24.8,127.9-24.8,188.2,0C545.4,171.2,608.6,259.5,608.6,362.6z"/>
		<path class="st66" d="M607.2,361.3c0,136.4-110.6,247-247.1,247S113,497.7,113,361.3c0-103.1,63.2-191.5,152.9-228.5
			c60.3-24.7,127.9-24.7,188.2,0C544.1,169.9,607.2,258.2,607.2,361.3z"/>
		<path class="st67" d="M605.9,360c0,136.4-110.6,247.1-247.1,247.1s-247.1-110.6-247.1-247c0-103.1,63.2-191.5,152.9-228.5
			c60.3-24.7,127.9-24.7,188.2,0C542.8,168.6,605.9,256.9,605.9,360z"/>
		<path class="st68" d="M604.6,358.8c0,136.4-110.6,247-247.1,247s-247.1-110.6-247.1-247c0-103.1,63.2-191.5,152.9-228.5
			c60.3-24.8,127.9-24.8,188.2,0C541.5,167.3,604.6,255.6,604.6,358.8z"/>
		<path class="st69" d="M603.3,357.4c0,136.4-110.6,247.1-247.1,247.1s-247.1-110.6-247.1-247C109.1,254.4,172.3,166,262,129
			c60.3-24.7,127.9-24.7,188.2,0C540.1,166,603.3,254.3,603.3,357.4z"/>
		<path class="st70" d="M602,356.2c0,136.4-110.6,247.1-247.1,247.1s-247-110.7-247-247.1c0-103.1,63.2-191.5,152.9-228.5
			c60.3-24.7,127.9-24.7,188.2,0C538.8,164.7,602,253,602,356.2z"/>
		<path class="st71" d="M600.7,354.9c0,136.4-110.6,247-247.1,247s-247.1-110.6-247.1-247c0-103.1,63.2-191.5,152.9-228.5
			c60.3-24.8,127.9-24.8,188.2,0C537.5,163.5,600.7,251.8,600.7,354.9z"/>
		<path class="st72" d="M599.3,353.6c0,136.4-110.6,247-247.1,247S105.1,490,105.1,353.6c0-103.1,63.2-191.5,152.9-228.5
			c60.3-24.7,127.9-24.7,188.2,0C536.2,162.1,599.3,250.5,599.3,353.6z"/>
		<path class="st73" d="M598.1,352.3c0,136.4-110.6,247.1-247.1,247.1S103.9,488.7,103.9,352.3c0-103.1,63.2-191.5,152.9-228.5
			C317.1,99,384.7,99,445,123.8C534.9,160.8,598.1,249.2,598.1,352.3z"/>
		<path class="st74" d="M596.7,351c0,136.4-110.6,247-247.1,247S102.5,487.4,102.5,351c0-103.1,63.2-191.5,152.9-228.5
			c60.3-24.7,127.9-24.7,188.2,0C533.6,159.5,596.7,247.9,596.7,351z"/>
		<path class="st75" d="M595.4,349.7c0,136.4-110.6,247-247.1,247s-247.1-110.6-247.1-247c0-103.1,63.2-191.5,152.9-228.5
			c60.3-24.8,127.9-24.8,188.2,0C532.3,158.3,595.4,246.6,595.4,349.7z"/>
		<path class="st76" d="M594.1,348.4c0,136.4-110.6,247.1-247.1,247.1S100,484.9,100,348.4c0-103.1,63.2-191.5,152.9-228.5
			c60.3-24.7,127.9-24.7,188.2,0C530.9,157,594.1,245.3,594.1,348.4z"/>
		<path class="st77" d="M592.8,347.1c0,136.4-110.6,247-247.1,247S98.6,483.5,98.6,347.1c0-103.1,63.2-191.5,152.9-228.5
			c60.3-24.7,127.9-24.7,188.2,0C529.6,155.7,592.8,244,592.8,347.1z"/>
		<path class="st78" d="M591.5,345.9c0,136.4-110.6,247-247.1,247s-247-110.6-247-247c0-103.1,63.2-191.5,152.9-228.5
			c60.3-24.8,127.9-24.8,188.2,0C528.3,154.4,591.5,242.7,591.5,345.9z"/>
		<path class="st79" d="M590.2,344.6c0,136.4-110.6,247.1-247.1,247.1S96,481.1,96,344.7c0-103.1,63.2-191.5,152.9-228.5
			c60.3-24.7,127.9-24.7,188.2,0C527,153.1,590.2,241.4,590.2,344.6z"/>
		<path class="st80" d="M588.8,343.3c0,136.4-110.6,247-247.1,247S94.6,479.7,94.6,343.3c0-103.1,63.2-191.5,152.9-228.5
			c60.3-24.7,127.9-24.7,188.2,0C525.7,151.8,588.8,240.2,588.8,343.3z"/>
		<path class="st81" d="M587.5,342c0,136.4-110.6,247.1-247.1,247.1S93.4,478.4,93.4,342c0-103.1,63.2-191.5,152.9-228.5
			c60.3-24.7,127.9-24.7,188.2,0C524.4,150.5,587.5,238.9,587.5,342z"/>
		<path class="st82" d="M586.2,340.7c0,136.4-110.6,247.1-247.1,247.1S92,477.2,92,340.8c0-103.1,63.2-191.5,152.9-228.5
			c60.3-24.8,127.9-24.8,188.2,0C523.1,149.2,586.2,237.6,586.2,340.7z"/>
		<path class="st83" d="M585,339.4c0,136.4-110.6,247.1-247.1,247.1S90.8,475.8,90.8,339.5C90.8,236.4,154,148,243.7,111
			c60.3-24.8,127.9-24.8,188.2,0C521.8,147.9,585,236.3,585,339.4z"/>
		<path class="st84" d="M583.6,338.1c0,136.4-110.6,247.1-247.1,247.1s-247-110.6-247-247.1c0-103.1,63.2-191.5,152.9-228.5
			c60.3-24.7,127.9-24.7,188.2,0C520.5,146.6,583.6,235,583.6,338.1z"/>
		<path class="st85" d="M582.3,336.8c0,136.4-110.6,247.1-247.1,247.1S88.1,473.3,88.1,336.9c0-103.1,63.2-191.5,152.9-228.5
			c60.3-24.8,127.9-24.8,188.2,0C519.1,145.3,582.3,233.7,582.3,336.8z"/>
		<path class="st86" d="M581,335.5c0,136.4-110.6,247-247.1,247s-247-110.6-247-247c0-103.1,63.2-191.5,152.9-228.5
			c60.3-24.7,127.9-24.7,188.2,0C517.8,144.1,581,232.4,581,335.5z"/>
		<path class="st87" d="M579.7,334.2c0,136.4-110.6,247.1-247.1,247.1S85.5,470.7,85.5,334.3c0-103.1,63.2-191.5,152.9-228.5
			c60.3-24.7,127.9-24.7,188.2,0C516.5,142.8,579.7,231.1,579.7,334.2z"/>
		<path class="st88" d="M578.3,332.9c0,136.4-110.6,247.1-247.1,247.1S84.1,469.4,84.1,333c0-103.1,63.2-191.5,152.9-228.5
			c60.3-24.8,127.9-24.8,188.2,0C515.2,141.5,578.3,229.8,578.3,332.9z"/>
		<path class="st89" d="M577,331.6c0,136.4-110.6,247-247.1,247s-247-110.5-247-247c0-103.1,63.2-191.5,152.9-228.5
			c60.3-24.7,127.9-24.7,188.2,0C513.9,140.2,577,228.5,577,331.6z"/>
		<path class="st90" d="M575.7,330.4c0,136.4-110.6,247.1-247.1,247.1S81.5,466.9,81.5,330.5c0-103.1,63.2-191.5,152.9-228.5
			c60.3-24.7,127.9-24.7,188.2,0C512.6,138.9,575.7,227.2,575.7,330.4z"/>
		<path class="st91" d="M574.4,329.1c0,136.4-110.6,247.1-247.1,247.1S80.2,465.6,80.2,329.2c0-103.1,63.2-191.5,152.9-228.5
			C293.4,76,361,76,421.3,100.7C511.3,137.6,574.4,225.9,574.4,329.1z"/>
		<path class="st92" d="M573.1,327.8c0,136.4-110.6,247-247.1,247S79,464.2,79,327.8c0-103.1,63.2-191.5,152.9-228.5
			c60.3-24.8,127.9-24.8,188.2,0C509.9,136.3,573.1,224.7,573.1,327.8z"/>
		<path class="st93" d="M571.8,326.5c0,136.4-110.6,247.1-247.1,247.1S77.6,463,77.6,326.6c0-103.1,63.2-191.5,152.9-228.5
			c60.3-24.8,127.9-24.8,188.2,0C508.6,135,571.8,223.4,571.8,326.5z"/>
		<path class="st94" d="M570.5,325.2c0,136.4-110.6,247-247.1,247S76.3,461.6,76.3,325.2c0-103.1,63.2-191.5,152.9-228.5
			c60.3-24.7,127.9-24.7,188.2,0C507.3,133.7,570.5,222.1,570.5,325.2z"/>
		<path class="st95" d="M569.2,323.9c0,136.4-110.6,247.1-247.1,247.1S75,460.4,75,324c0-103.1,63.2-191.5,152.9-228.5
			c60.3-24.8,127.9-24.8,188.2,0C506,132.4,569.2,220.8,569.2,323.9z"/>
		<path class="st96" d="M567.8,322.6c0,136.4-110.6,247.1-247.1,247.1S73.6,459.1,73.6,322.7c0-103.1,63.2-191.5,152.9-228.5
			c60.3-24.7,127.9-24.7,188.2,0C504.7,131.2,567.8,219.5,567.8,322.6z"/>
		<path class="st97" d="M566.5,321.3c0,136.4-110.6,247.1-247.1,247.1S72.3,457.8,72.3,321.4c0-103.1,63.2-191.5,152.9-228.5
			c60.3-24.7,127.9-24.7,188.2,0C503.4,129.9,566.5,218.2,566.5,321.3z"/>
		<path class="st98" d="M565.2,320c0,136.4-110.6,247-247.1,247S71,456.4,71,320c0-103.1,63.2-191.5,152.9-228.5
			c60.3-24.8,127.9-24.8,188.2,0C502.1,128.6,565.2,216.9,565.2,320z"/>
		<path class="st99" d="M563.9,318.7c0,136.4-110.6,247.1-247.1,247.1S69.7,455.2,69.7,318.8c0-103.1,63.2-191.5,152.9-228.5
			c60.3-24.7,127.9-24.7,188.2,0C500.7,127.3,563.9,215.6,563.9,318.7z"/>
		<path class="st100" d="M562.6,317.4c0,136.4-110.6,247-247.1,247s-247-110.6-247-247c0-103.1,63.2-191.5,152.9-228.5
			c60.3-24.7,127.9-24.7,188.2,0C499.4,126,562.6,214.3,562.6,317.4z"/>
		<path class="st101" d="M561.3,316.2c0,136.4-110.6,247.1-247.1,247.1S67.1,452.7,67.1,316.3c0-103.1,63.2-191.5,152.9-228.5
			c60.3-24.7,127.9-24.7,188.2,0C498.1,124.7,561.3,213,561.3,316.2z"/>
		<path class="st102" d="M560,314.9C560,451.3,449.4,562,312.9,562s-247-110.7-247-247.1c0-103.1,63.2-191.5,152.9-228.5
			c60.3-24.8,127.9-24.8,188.2,0C496.8,123.4,560,211.8,560,314.9z"/>
	</g>
	<path class="st103" d="M560,314.9C560,451.3,449.4,562,312.9,562s-247-110.7-247-247.1c0-103.1,63.2-191.5,152.9-228.5
		c60.3-24.8,127.9-24.8,188.2,0C496.8,123.4,560,211.8,560,314.9z"/>
	<path class="st104" d="M313.1,596.4h-0.2c-3.8,0-7.7-0.1-11.5-0.2l0.1-2.3c3.8,0.2,7.6,0.2,11.4,0.2L313.1,596.4z M324.7,596.2
		l-0.1-2.3c3.8-0.2,7.7-0.4,11.5-0.7l0.2,2.3C332.5,595.8,328.6,596,324.7,596.2L324.7,596.2z M289.8,595.5
		c-3.8-0.3-7.8-0.7-11.6-1.2l0.3-2.3c3.8,0.5,7.7,0.8,11.5,1.2L289.8,595.5z M347.9,594.3l-0.3-2.3c3.8-0.5,7.6-1,11.4-1.6l0.4,2.3
		C355.6,593.2,351.7,593.8,347.9,594.3L347.9,594.3z M266.7,592.6c-3.8-0.6-7.7-1.3-11.5-2.1l0.5-2.3c3.7,0.8,7.6,1.5,11.3,2.1
		L266.7,592.6z M370.8,590.4l-0.5-2.3c3.8-0.8,7.5-1.6,11.2-2.6l0.6,2.2C378.4,588.8,374.6,589.7,370.8,590.4z M244,587.9
		c-3.7-0.9-7.5-2-11.2-3.1l0.7-2.2c3.7,1.1,7.4,2.1,11.1,3L244,587.9z M393.3,584.7l-0.7-2.2c3.7-1.1,7.4-2.3,11-3.5l0.8,2.2
		C400.8,582.4,397.1,583.6,393.3,584.7L393.3,584.7z M221.7,581.3c-3.7-1.2-7.4-2.6-10.9-4l0.8-2.2c3.6,1.4,7.2,2.7,10.9,4
		L221.7,581.3z M415.3,577.2l-0.8-2.2c3.6-1.4,7.2-2.9,10.6-4.4l0.9,2.1C422.6,574.3,418.9,575.8,415.3,577.2L415.3,577.2z
		 M199.9,572.8c-3.6-1.6-7.1-3.2-10.6-4.9l1-2.1c3.4,1.6,7,3.3,10.5,4.9L199.9,572.8z M436.6,567.8l-1-2.1c3.4-1.7,6.9-3.5,10.3-5.3
		l1.1,2C443.6,564.3,440.1,566.1,436.6,567.8L436.6,567.8z M179,562.6c-3.4-1.8-6.8-3.8-10.1-5.7l1.2-2c3.3,2,6.7,3.9,10,5.7
		L179,562.6z M457.1,556.7l-1.2-2c3.3-2,6.6-4,9.8-6.1l1.3,1.9C463.7,552.7,460.4,554.8,457.1,556.7L457.1,556.7z M159,550.6
		c-3.3-2.1-6.5-4.3-9.6-6.5l1.3-1.9c3.1,2.2,6.3,4.4,9.5,6.5L159,550.6z M476.6,544l-1.3-1.9c3.1-2.2,6.2-4.5,9.2-6.9l1.4,1.8
		C482.8,539.4,479.7,541.8,476.6,544L476.6,544z M140.1,537.1c-3-2.4-6.1-4.8-9-7.4l1.5-1.8c2.9,2.5,5.9,4.9,9,7.3L140.1,537.1z
		 M494.9,529.7l-1.5-1.8c2.9-2.5,5.8-5.1,8.6-7.6l1.6,1.7C500.8,524.6,497.8,527.2,494.9,529.7L494.9,529.7z M122.3,522.1
		c-2.8-2.6-5.7-5.3-8.4-8l1.6-1.6c2.7,2.7,5.5,5.4,8.3,8L122.3,522.1z M512,514l-1.6-1.6c2.7-2.7,5.4-5.5,8-8.3l1.7,1.6
		C517.4,508.4,514.7,511.2,512,514L512,514z M105.9,505.7c-2.6-2.8-5.2-5.7-7.7-8.7l1.8-1.5c2.5,2.9,5,5.8,7.6,8.6L105.9,505.7z
		 M527.8,496.9l-1.8-1.5c2.5-2.9,4.9-5.9,7.3-9l1.8,1.4C532.7,490.8,530.3,493.9,527.8,496.9L527.8,496.9z M90.8,487.9
		c-2.4-3-4.7-6.2-7-9.3l1.9-1.3c2.2,3.1,4.6,6.2,6.9,9.2L90.8,487.9z M542.1,478.5l-1.9-1.3c2.2-3.1,4.4-6.3,6.6-9.5l1.9,1.3
		C546.5,472.1,544.3,475.3,542.1,478.5L542.1,478.5z M77.3,469c-2.1-3.3-4.2-6.5-6.2-9.8l2-1.2c1.9,3.3,4,6.5,6.1,9.8L77.3,469z
		 M554.8,459l-2-1.2c2-3.3,3.9-6.6,5.7-10l2,1.1C558.8,452.3,556.8,455.7,554.8,459L554.8,459z M65.4,449.1
		c-1.8-3.4-3.6-6.9-5.3-10.3l2.1-1c1.6,3.4,3.4,6.9,5.3,10.2L65.4,449.1z M565.9,438.5l-2.1-1c1.7-3.5,3.3-7,4.8-10.5l2.1,0.9
		C569.3,431.5,567.6,435,565.9,438.5L565.9,438.5z M55.1,428.2c-1.6-3.5-3-7.1-4.4-10.7l2.2-0.8c1.4,3.6,2.9,7.1,4.4,10.6
		L55.1,428.2z M575.3,417.2l-2.2-0.8c1.4-3.5,2.7-7.2,4-10.8l2.2,0.8C578,410,576.7,413.6,575.3,417.2L575.3,417.2z M46.7,406.6
		c-1.3-3.7-2.5-7.4-3.6-11.1l2.2-0.7c1.1,3.6,2.3,7.4,3.5,11L46.7,406.6z M582.8,395.2l-2.2-0.7c1.1-3.7,2.1-7.4,3.1-11.1l2.2,0.6
		C585,387.7,583.9,391.5,582.8,395.2L582.8,395.2z M40,384.3c-1-3.8-1.8-7.6-2.6-11.3l2.3-0.5c0.8,3.7,1.6,7.5,2.6,11.2L40,384.3z
		 M588.5,372.7l-2.3-0.5c0.8-3.7,1.5-7.5,2.1-11.3l2.3,0.4C590,365,589.3,368.9,588.5,372.7L588.5,372.7z M35.2,361.5
		c-0.6-3.8-1.2-7.7-1.6-11.5l2.3-0.3c0.5,3.8,1,7.6,1.6,11.4L35.2,361.5z M592.3,349.7l-2.3-0.3c0.5-3.8,0.9-7.6,1.2-11.5l2.3,0.2
		C593.2,342,592.8,345.9,592.3,349.7z M32.4,338.4c-0.3-3.8-0.6-7.7-0.7-11.6l2.3-0.1c0.2,3.9,0.4,7.7,0.7,11.5L32.4,338.4z
		 M594.2,326.5l-2.3-0.1c0.2-3.8,0.2-7.7,0.2-11.5h2.3C594.5,318.7,594.4,322.6,594.2,326.5L594.2,326.5z M33.7,315.2h-2.3v-0.3
		c0-3.8,0.1-7.6,0.2-11.3l2.3,0.1c-0.2,3.7-0.2,7.5-0.2,11.2V315.2z M591.9,302.8c-0.2-3.8-0.4-7.7-0.7-11.5l2.3-0.2
		c0.3,3.9,0.6,7.8,0.7,11.6L591.9,302.8z M34.6,292.1l-2.3-0.2c0.3-3.9,0.7-7.8,1.2-11.6l2.3,0.3C35.3,284.5,34.9,288.3,34.6,292.1
		L34.6,292.1z M590,279.7c-0.5-3.8-1-7.6-1.6-11.5l2.3-0.4c0.6,3.8,1.2,7.7,1.7,11.5L590,279.7z M37.4,269.3l-2.3-0.4
		c0.6-3.8,1.3-7.7,2.1-11.5l2.3,0.5C38.7,261.7,38,265.5,37.4,269.3z M586.1,257c-0.8-3.7-1.6-7.5-2.6-11.2l2.2-0.6
		c0.9,3.8,1.8,7.5,2.6,11.3L586.1,257z M42.1,246.6l-2.2-0.5c0.9-3.8,2-7.6,3.1-11.2l2.2,0.7C44.1,239.2,43,242.9,42.1,246.6
		L42.1,246.6z M580.5,234.7c-1.1-3.7-2.3-7.4-3.5-11l2.2-0.8c1.2,3.6,2.5,7.4,3.6,11L580.5,234.7z M48.7,224.5l-2.2-0.7
		c1.2-3.7,2.6-7.4,4-11l2.2,0.8C51.2,217.2,49.9,220.9,48.7,224.5L48.7,224.5z M572.9,212.9c-1.4-3.5-2.9-7.1-4.4-10.6l2.1-0.9
		c1.6,3.5,3.1,7.1,4.5,10.7L572.9,212.9z M57,203l-2.1-0.9c1.6-3.5,3.2-7.1,4.9-10.6l2.1,1C60.2,195.9,58.6,199.5,57,203z
		 M563.7,191.8c-1.6-3.4-3.4-6.8-5.3-10.2l2-1.1c1.9,3.4,3.7,6.9,5.3,10.3L563.7,191.8z M67.2,182.2l-2-1.1
		c1.8-3.4,3.8-6.8,5.7-10.1l2,1.2C70.9,175.5,69,178.8,67.2,182.2z M552.6,171.6c-2-3.3-4-6.6-6.1-9.8l1.9-1.3
		c2.1,3.2,4.2,6.6,6.2,9.8L552.6,171.6z M79,162.3l-1.9-1.3c2.1-3.2,4.3-6.5,6.6-9.6l1.9,1.3C83.3,155.9,81.1,159.2,79,162.3
		L79,162.3z M539.9,152.3c-2.2-3.1-4.5-6.2-6.9-9.2l1.8-1.4c2.4,3.1,4.7,6.2,7,9.3L539.9,152.3z M92.4,143.6l-1.8-1.4
		c2.4-3,4.8-6.1,7.4-9l1.8,1.5C97.2,137.5,94.7,140.5,92.4,143.6z M525.8,134.1c-2.5-2.9-5-5.8-7.6-8.6l1.7-1.6
		c2.6,2.9,5.2,5.8,7.7,8.7L525.8,134.1z M107.3,126l-1.7-1.6c2.6-2.8,5.3-5.7,8.1-8.4l1.6,1.6C112.6,120.3,109.9,123.2,107.3,126
		L107.3,126z M510.1,117.2c-2.7-2.7-5.5-5.4-8.3-8l1.6-1.7c2.9,2.6,5.7,5.3,8.4,8.1L510.1,117.2z M123.6,109.6l-1.6-1.7
		c2.8-2.6,5.7-5.2,8.7-7.7l1.5,1.8C129.3,104.5,126.4,107,123.6,109.6L123.6,109.6z M493.1,101.6c-2.9-2.5-5.9-4.9-9-7.3l1.4-1.8
		c3.1,2.4,6.1,4.8,9,7.4L493.1,101.6z M141.2,94.7l-1.4-1.8c3-2.4,6.2-4.7,9.3-7l1.3,1.9C147.3,90,144.2,92.3,141.2,94.7L141.2,94.7
		z M474.9,87.4c-3.1-2.2-6.3-4.4-9.5-6.6l1.3-1.9c3.3,2.1,6.5,4.3,9.6,6.6L474.9,87.4z M159.9,81.3l-1.3-1.9
		c3.2-2.1,6.6-4.2,9.8-6.2l1.2,2C166.4,77.1,163.1,79.2,159.9,81.3L159.9,81.3z M455.5,74.8c-3.3-2-6.7-3.9-10-5.7l1.1-2
		c3.4,1.8,6.8,3.8,10.1,5.7L455.5,74.8z M179.7,69.4l-1.1-2c3.4-1.8,6.9-3.6,10.3-5.3l1,2.1C186.5,65.8,183.1,67.6,179.7,69.4
		L179.7,69.4z M435.2,63.8c-3.4-1.7-7-3.3-10.5-4.8l0.9-2.1c3.5,1.6,7.1,3.2,10.6,4.9L435.2,63.8z M200.4,59.2l-1-2.1
		c2.1-0.9,4.1-1.8,6.2-2.6c1.5-0.6,3-1.2,4.6-1.8l0.8,2.2c-1.5,0.6-3,1.2-4.5,1.8C204.5,57.5,202.4,58.4,200.4,59.2L200.4,59.2z
		 M414.1,54.5c-3.6-1.4-7.2-2.7-10.8-4l0.7-2.2c3.7,1.2,7.4,2.6,10.9,4L414.1,54.5z M221.9,50.8l-0.8-2.2c3.7-1.3,7.4-2.5,11.1-3.6
		l0.7,2.2C229.2,48.4,225.5,49.6,221.9,50.8L221.9,50.8z M392.2,47.1c-3.7-1.1-7.4-2.1-11.1-3l0.6-2.2c3.7,0.9,7.5,2,11.2,3.1
		L392.2,47.1z M244,44.2l-0.6-2.2c3.7-0.9,7.6-1.8,11.3-2.6l0.5,2.3C251.5,42.4,247.7,43.3,244,44.2L244,44.2z M369.8,41.5
		c-3.8-0.8-7.6-1.5-11.3-2.1l0.4-2.3c3.8,0.6,7.7,1.3,11.5,2.1L369.8,41.5z M266.6,39.5l-0.4-2.3c3.8-0.6,7.7-1.2,11.5-1.7l0.3,2.3
		C274.2,38.3,270.3,38.8,266.6,39.5z M347.1,37.7c-3.8-0.5-7.7-0.9-11.5-1.2l0.2-2.3c3.8,0.3,7.7,0.7,11.6,1.2L347.1,37.7z
		 M289.5,36.6l-0.2-2.3c3.8-0.3,7.8-0.6,11.6-0.7l0.1,2.3C297.2,36.1,293.3,36.3,289.5,36.6z M324.1,35.8c-3.7-0.2-7.4-0.2-11.2-0.2
		h-0.4v-2.3h0.4c3.7,0,7.5,0.1,11.2,0.2V35.8z"/>
	<path class="st105" d="M676.6,333L626,298.3v16.6h-50.1c0,145.2-117.8,263-263,263l0,0v17.4h-0.1v17.4h2.3
		c149.7-1.1,275.3-113.2,293.3-261.8h17.5v16.9L676.6,333z"/>
</g>
</svg>
