<?xml version="1.0" encoding="utf-8"?>
<!-- Generator: Adobe Illustrator 26.1.0, SVG Export Plug-In . SVG Version: 6.00 Build 0)  -->
<svg width="200" version="1.1" id="Layer_1" xmlns="http://www.w3.org/2000/svg" xmlns:xlink="http://www.w3.org/1999/xlink" x="0px" y="0px"
	 viewBox="0 0 698.1 788.4" style="enable-background:new 0 0 698.1 788.4;" xml:space="preserve">
<style type="text/css">
	.st0{opacity:0.36;}
	.st1{fill:#FFFFFF;fill-opacity:0;}
	.st2{opacity:1.000000e-02;fill:#FDFDFD;enable-background:new    ;}
	.st3{opacity:2.000000e-02;fill:#FCFCFC;enable-background:new    ;}
	.st4{opacity:3.000000e-02;fill:#FAFAFA;enable-background:new    ;}
	.st5{opacity:4.000000e-02;fill:#F9F9F9;enable-background:new    ;}
	.st6{opacity:5.000000e-02;fill:#F7F7F7;enable-background:new    ;}
	.st7{opacity:6.000000e-02;fill:#F6F6F6;enable-background:new    ;}
	.st8{opacity:7.000000e-02;fill:#F4F4F4;enable-background:new    ;}
	.st9{opacity:8.000000e-02;fill:#F3F3F3;enable-background:new    ;}
	.st10{opacity:9.000000e-02;fill:#F1F1F1;enable-background:new    ;}
	.st11{opacity:0.1;fill:#F0F0F0;enable-background:new    ;}
	.st12{opacity:0.11;fill:#EEEEEE;enable-background:new    ;}
	.st13{opacity:0.12;fill:#EDEDED;enable-background:new    ;}
	.st14{opacity:0.13;fill:#EBEBEB;enable-background:new    ;}
	.st15{opacity:0.14;fill:#EAEAEA;enable-background:new    ;}
	.st16{opacity:0.15;fill:#E8E8E8;enable-background:new    ;}
	.st17{opacity:0.16;fill:#E7E7E7;enable-background:new    ;}
	.st18{opacity:0.17;fill:#E5E5E5;enable-background:new    ;}
	.st19{opacity:0.18;fill:#E4E4E4;enable-background:new    ;}
	.st20{opacity:0.19;fill:#E2E2E2;enable-background:new    ;}
	.st21{opacity:0.2;fill:#E1E1E1;enable-background:new    ;}
	.st22{opacity:0.21;fill:#DFDFDF;enable-background:new    ;}
	.st23{opacity:0.22;fill:#DEDEDE;enable-background:new    ;}
	.st24{opacity:0.23;fill:#DCDCDC;enable-background:new    ;}
	.st25{opacity:0.24;fill:#DBDBDB;enable-background:new    ;}
	.st26{opacity:0.25;fill:#D9D9D9;enable-background:new    ;}
	.st27{opacity:0.26;fill:#D8D8D8;enable-background:new    ;}
	.st28{opacity:0.27;fill:#D6D6D6;enable-background:new    ;}
	.st29{opacity:0.28;fill:#D5D5D5;enable-background:new    ;}
	.st30{opacity:0.29;fill:#D3D3D3;enable-background:new    ;}
	.st31{opacity:0.3;fill:#D2D2D2;enable-background:new    ;}
	.st32{opacity:0.31;fill:#D0D0D0;enable-background:new    ;}
	.st33{opacity:0.32;fill:#CFCFCF;enable-background:new    ;}
	.st34{opacity:0.33;fill:#CDCDCD;enable-background:new    ;}
	.st35{opacity:0.34;fill:#CBCBCB;enable-background:new    ;}
	.st36{opacity:0.35;fill:#CACACA;enable-background:new    ;}
	.st37{opacity:0.36;fill:#C8C8C8;enable-background:new    ;}
	.st38{opacity:0.37;fill:#C7C7C7;enable-background:new    ;}
	.st39{opacity:0.38;fill:#C5C5C5;enable-background:new    ;}
	.st40{opacity:0.39;fill:#C4C4C4;enable-background:new    ;}
	.st41{opacity:0.4;fill:#C2C2C2;enable-background:new    ;}
	.st42{opacity:0.41;fill:#C1C1C1;enable-background:new    ;}
	.st43{opacity:0.42;fill:#BFBFBF;enable-background:new    ;}
	.st44{opacity:0.43;fill:#BEBEBE;enable-background:new    ;}
	.st45{opacity:0.44;fill:#BCBCBC;enable-background:new    ;}
	.st46{opacity:0.45;fill:#BBBBBB;enable-background:new    ;}
	.st47{opacity:0.46;fill:#B9B9B9;enable-background:new    ;}
	.st48{opacity:0.47;fill:#B8B8B8;enable-background:new    ;}
	.st49{opacity:0.48;fill:#B6B6B6;enable-background:new    ;}
	.st50{opacity:0.49;fill:#B5B5B5;enable-background:new    ;}
	.st51{opacity:0.5;fill:#B3B3B3;enable-background:new    ;}
	.st52{opacity:0.5;fill:#B2B2B2;enable-background:new    ;}
	.st53{opacity:0.51;fill:#B0B0B0;enable-background:new    ;}
	.st54{opacity:0.52;fill:#AFAFAF;enable-background:new    ;}
	.st55{opacity:0.53;fill:#ADADAD;enable-background:new    ;}
	.st56{opacity:0.54;fill:#ACACAC;enable-background:new    ;}
	.st57{opacity:0.55;fill:#AAAAAA;enable-background:new    ;}
	.st58{opacity:0.56;fill:#A9A9A9;enable-background:new    ;}
	.st59{opacity:0.57;fill:#A7A7A7;enable-background:new    ;}
	.st60{opacity:0.58;fill:#A6A6A6;enable-background:new    ;}
	.st61{opacity:0.59;fill:#A4A4A4;enable-background:new    ;}
	.st62{opacity:0.6;fill:#A3A3A3;enable-background:new    ;}
	.st63{opacity:0.61;fill:#A1A1A1;enable-background:new    ;}
	.st64{opacity:0.62;fill:#A0A0A0;enable-background:new    ;}
	.st65{opacity:0.63;fill:#9E9E9E;enable-background:new    ;}
	.st66{opacity:0.64;fill:#9D9D9D;enable-background:new    ;}
	.st67{opacity:0.65;fill:#9B9B9B;enable-background:new    ;}
	.st68{opacity:0.66;fill:#9A9A9A;enable-background:new    ;}
	.st69{opacity:0.67;fill:#989898;enable-background:new    ;}
	.st70{opacity:0.68;fill:#969696;enable-background:new    ;}
	.st71{opacity:0.69;fill:#959595;enable-background:new    ;}
	.st72{opacity:0.7;fill:#939393;enable-background:new    ;}
	.st73{opacity:0.71;fill:#929292;enable-background:new    ;}
	.st74{opacity:0.72;fill:#909090;enable-background:new    ;}
	.st75{opacity:0.73;fill:#8F8F8F;enable-background:new    ;}
	.st76{opacity:0.74;fill:#8D8D8D;enable-background:new    ;}
	.st77{opacity:0.75;fill:#8C8C8C;enable-background:new    ;}
	.st78{opacity:0.76;fill:#8A8A8A;enable-background:new    ;}
	.st79{opacity:0.77;fill:#898989;enable-background:new    ;}
	.st80{opacity:0.78;fill:#878787;enable-background:new    ;}
	.st81{opacity:0.79;fill:#868686;enable-background:new    ;}
	.st82{opacity:0.8;fill:#848484;enable-background:new    ;}
	.st83{opacity:0.81;fill:#838383;enable-background:new    ;}
	.st84{opacity:0.82;fill:#818181;enable-background:new    ;}
	.st85{opacity:0.83;fill:#808080;enable-background:new    ;}
	.st86{opacity:0.84;fill:#7E7E7E;enable-background:new    ;}
	.st87{opacity:0.85;fill:#7D7D7D;enable-background:new    ;}
	.st88{opacity:0.86;fill:#7B7B7B;enable-background:new    ;}
	.st89{opacity:0.87;fill:#7A7A7A;enable-background:new    ;}
	.st90{opacity:0.88;fill:#787878;enable-background:new    ;}
	.st91{opacity:0.89;fill:#777777;enable-background:new    ;}
	.st92{opacity:0.9;fill:#757575;enable-background:new    ;}
	.st93{opacity:0.91;fill:#747474;enable-background:new    ;}
	.st94{opacity:0.92;fill:#727272;enable-background:new    ;}
	.st95{opacity:0.93;fill:#717171;enable-background:new    ;}
	.st96{opacity:0.94;fill:#6F6F6F;enable-background:new    ;}
	.st97{opacity:0.95;fill:#6E6E6E;enable-background:new    ;}
	.st98{opacity:0.96;fill:#6C6C6C;enable-background:new    ;}
	.st99{opacity:0.97;fill:#6B6B6B;enable-background:new    ;}
	.st100{opacity:0.98;fill:#696969;enable-background:new    ;}
	.st101{opacity:0.99;fill:#686868;enable-background:new    ;}
	.st102{fill:#666666;}
	.st103{fill:#FFFFFF;}
	.st104{fill:#808080;}
	.st105{fill:#1B75BA;}
</style>
<g>
	<g class="st0">
		<path class="st1" d="M698.1,470.5c0,136.4-110.6,247.1-247.1,247.1S204,607,204,470.5C204,367.4,267.2,279,356.9,242
			c60.3-24.8,127.9-24.8,188.2,0C634.9,279.1,698.1,367.4,698.1,470.5z"/>
		<path class="st2" d="M696.8,469.2c0,136.4-110.6,247-247.1,247s-247-110.6-247-247c0-103.1,63.2-191.5,152.9-228.5
			c60.3-24.7,127.9-24.7,188.2,0C633.6,277.8,696.8,366.1,696.8,469.2z"/>
		<path class="st3" d="M695.5,467.9c0,136.4-110.6,247-247.1,247s-247-110.6-247-247c0-103.1,63.2-191.5,152.9-228.5
			c60.3-24.7,127.9-24.7,188.2,0C632.3,276.5,695.5,364.8,695.5,467.9z"/>
		<path class="st4" d="M694.1,466.7c0,136.4-110.6,247.1-247.1,247.1S200,603.2,200,466.7c0-103.1,63.2-191.5,152.9-228.5
			c60.3-24.8,127.9-24.8,188.2,0C631,275.2,694.1,363.5,694.1,466.7z"/>
		<path class="st5" d="M692.8,465.4c0,136.4-110.6,247.1-247.1,247.1s-247-110.6-247-247.1c0-103.1,63.2-191.5,152.9-228.5
			c60.3-24.7,127.9-24.7,188.2,0C629.7,273.9,692.8,362.3,692.8,465.4z"/>
		<path class="st6" d="M691.5,464.1c0,136.4-110.6,247-247.1,247s-247-110.6-247-247c0-103.1,63.2-191.5,152.9-228.5
			c60.3-24.7,127.9-24.7,188.2,0C628.4,272.6,691.5,360.9,691.5,464.1z"/>
		<path class="st7" d="M690.2,462.8c0,136.4-110.6,247.1-247.1,247.1s-247-110.6-247-247.1c0-103.1,63.2-191.5,152.9-228.5
			c60.3-24.8,127.9-24.8,188.2,0C627,271.3,690.2,359.7,690.2,462.8z"/>
		<path class="st8" d="M688.9,461.5c0,136.4-110.6,247-247.1,247s-247.1-110.6-247.1-247c0-103.1,63.2-191.5,152.9-228.5
			c60.3-24.7,127.9-24.7,188.2,0C625.7,270,688.9,358.4,688.9,461.5z"/>
		<path class="st9" d="M687.6,460.2c0,136.4-110.6,247-247.1,247s-247-110.6-247-247c0-103.1,63.2-191.5,152.9-228.5
			c60.3-24.8,127.9-24.8,188.2,0C624.4,268.7,687.6,357.1,687.6,460.2z"/>
		<path class="st10" d="M686.3,458.9c0,136.4-110.6,247-247.1,247s-247-110.6-247-247c0-103.1,63.2-191.5,152.9-228.5
			c60.3-24.7,127.9-24.7,188.2,0C623.1,267.4,686.3,355.8,686.3,458.9z"/>
		<path class="st11" d="M685,457.6c0,136.4-110.6,247-247.1,247s-247-110.6-247-247c0-103.1,63.2-191.5,152.9-228.5
			c60.3-24.8,127.9-24.8,188.2,0C621.8,266.2,685,354.5,685,457.6z"/>
		<path class="st12" d="M683.6,456.3c0,136.4-110.6,247.1-247.1,247.1s-247-110.6-247-247.1c0-103.1,63.2-191.5,152.9-228.5
			c60.3-24.7,127.9-24.7,188.2,0C620.5,264.9,683.6,353.2,683.6,456.3z"/>
		<path class="st13" d="M682.3,455c0,136.4-110.6,247.1-247.1,247.1s-247-110.7-247-247.1c0-103.1,63.2-191.5,152.9-228.5
			c60.3-24.7,127.9-24.7,188.2,0C619.2,263.6,682.3,351.9,682.3,455z"/>
		<path class="st14" d="M681,453.7c0,136.4-110.6,247-247.1,247s-247-110.6-247-247c0-103.1,63.2-191.5,152.9-228.5
			c60.3-24.8,127.9-24.8,188.2,0C617.9,262.3,681,350.6,681,453.7z"/>
		<path class="st15" d="M679.7,452.4c0,136.4-110.6,247.1-247.1,247.1s-247-110.6-247-247.1c0-103.1,63.2-191.5,152.9-228.5
			c60.3-24.7,127.9-24.7,188.2,0C616.5,261,679.7,349.3,679.7,452.4z"/>
		<path class="st16" d="M678.4,451.2c0,136.4-110.6,247-247.1,247s-247-110.6-247-247c0-103.1,63.2-191.5,152.9-228.5
			c60.3-24.7,127.9-24.7,188.2,0C615.2,259.7,678.4,348,678.4,451.2z"/>
		<path class="st17" d="M677.1,449.8c0,136.4-110.6,247.1-247.1,247.1S183,586.3,183,449.8c0-103.1,63.2-191.5,152.9-228.5
			c60.3-24.7,127.9-24.7,188.2,0C613.9,258.4,677.1,346.7,677.1,449.8z"/>
		<path class="st18" d="M675.8,448.6c0,136.4-110.6,247.1-247.1,247.1s-247-110.6-247-247.1c0-103.1,63.2-191.5,152.9-228.5
			c60.3-24.8,127.9-24.8,188.2,0C612.6,257.1,675.8,345.5,675.8,448.6z"/>
		<path class="st19" d="M674.4,447.3c0,136.4-110.6,247-247.1,247s-247-110.6-247-247c0-103.1,63.2-191.5,152.9-228.5
			c60.3-24.8,127.9-24.8,188.2,0C611.3,255.9,674.4,344.2,674.4,447.3z"/>
		<path class="st20" d="M673.1,446c0,136.4-110.6,247-247.1,247S179,582.4,179,446c0-103.1,63.2-191.5,152.9-228.5
			c60.3-24.7,127.9-24.7,188.2,0C610,254.5,673.1,342.9,673.1,446z"/>
		<path class="st21" d="M671.8,444.7c0,136.4-110.6,247.1-247.1,247.1s-247-110.6-247-247.1c0-103.1,63.2-191.5,152.9-228.5
			c60.3-24.8,127.9-24.8,188.2,0C608.7,253.2,671.8,341.6,671.8,444.7z"/>
		<path class="st22" d="M670.5,443.4c0,136.4-110.6,247-247.1,247s-247.1-110.6-247.1-247c0-103.1,63.2-191.5,152.9-228.5
			c60.3-24.7,127.9-24.7,188.2,0C607.4,251.9,670.5,340.3,670.5,443.4z"/>
		<path class="st23" d="M669.2,442.1c0,136.4-110.6,247-247.1,247s-247-110.6-247-247c0-103.1,63.2-191.5,152.9-228.5
			c60.3-24.7,127.9-24.7,188.2,0C606,250.7,669.2,339,669.2,442.1z"/>
		<path class="st24" d="M667.9,440.8c0,136.4-110.6,247.1-247.1,247.1s-247-110.6-247-247.1c0-103.1,63.2-191.5,152.9-228.5
			c60.3-24.8,127.9-24.8,188.2,0C604.7,249.4,667.9,337.7,667.9,440.8z"/>
		<path class="st25" d="M666.6,439.5c0,136.4-110.6,247-247.1,247s-247.1-110.6-247.1-247c0-103.1,63.2-191.5,152.9-228.5
			c60.3-24.7,127.9-24.7,188.2,0C603.4,248.1,666.6,336.4,666.6,439.5z"/>
		<path class="st26" d="M665.3,438.3c0,136.4-110.6,247-247.1,247s-247-110.6-247-247c0-103.1,63.2-191.5,152.9-228.5
			c60.3-24.7,127.9-24.7,188.2,0C602.1,246.8,665.3,335.1,665.3,438.3z"/>
		<path class="st27" d="M664,437c0,136.4-110.6,247.1-247.1,247.1s-247.1-110.6-247.1-247c0-103.1,63.2-191.5,152.9-228.5
			c60.3-24.7,127.9-24.7,188.2,0C600.8,245.5,664,333.8,664,437z"/>
		<path class="st28" d="M662.6,435.7c0,136.4-110.6,247-247.1,247s-247-110.6-247-247c0-103.1,63.2-191.5,152.9-228.5
			c60.3-24.8,127.9-24.8,188.2,0C599.5,244.2,662.6,332.5,662.6,435.7z"/>
		<path class="st29" d="M661.3,434.4c0,136.4-110.6,247.1-247.1,247.1s-247-110.6-247-247.1c0-103.1,63.2-191.5,152.9-228.5
			c60.3-24.8,127.9-24.8,188.2,0C598.2,242.9,661.3,331.3,661.3,434.4z"/>
		<path class="st30" d="M660,433.1c0,136.4-110.6,247.1-247.1,247.1s-247-110.6-247-247.1c0-103.1,63.2-191.5,152.9-228.5
			c60.3-24.7,127.9-24.7,188.2,0C596.9,241.6,660,330,660,433.1z"/>
		<path class="st31" d="M658.7,431.8c0,136.4-110.6,247.1-247.1,247.1s-247-110.7-247-247.1c0-103.1,63.2-191.5,152.9-228.5
			c60.3-24.8,127.9-24.8,188.2,0C595.5,240.3,658.7,328.7,658.7,431.8z"/>
		<path class="st32" d="M657.4,430.5c0,136.4-110.6,247.1-247.1,247.1s-247-110.6-247-247.1c0-103.1,63.2-191.5,152.9-228.5
			c60.3-24.7,127.9-24.7,188.2,0C594.2,239,657.4,327.4,657.4,430.5z"/>
		<path class="st33" d="M656.1,429.2c0,136.4-110.6,247.1-247.1,247.1S162,565.7,162,429.2c0-103.1,63.2-191.5,152.9-228.5
			c60.3-24.7,127.9-24.7,188.2,0C592.9,237.8,656.1,326.1,656.1,429.2z"/>
		<path class="st34" d="M654.8,427.9c0,136.4-110.6,247-247.1,247s-247.1-110.5-247.1-247c0-103.1,63.2-191.5,152.9-228.5
			c60.3-24.8,127.9-24.8,188.2,0C591.6,236.5,654.8,324.8,654.8,427.9z"/>
		<path class="st35" d="M653.4,426.6c0,136.4-110.6,247.1-247.1,247.1s-247-110.6-247-247.1c0-103.1,63.2-191.5,152.9-228.5
			c60.3-24.7,127.9-24.7,188.2,0C590.3,235.2,653.4,323.5,653.4,426.6z"/>
		<path class="st36" d="M652.1,425.3c0,136.4-110.6,247.1-247.1,247.1S158,561.8,158,425.3c0-103.1,63.2-191.5,152.9-228.5
			c60.3-24.7,127.9-24.7,188.2,0C589,233.9,652.1,322.2,652.1,425.3z"/>
		<path class="st37" d="M650.8,424.1c0,136.4-110.6,247-247.1,247s-247-110.6-247-247c0-103.1,63.2-191.5,152.9-228.5
			c60.3-24.7,127.9-24.7,188.2,0C587.7,232.6,650.8,320.9,650.8,424.1z"/>
		<path class="st38" d="M649.5,422.8c0,136.4-110.6,247.1-247.1,247.1s-247-110.6-247-247.1c0-103.1,63.2-191.5,152.9-228.5
			c60.3-24.8,127.9-24.8,188.2,0C586.4,231.3,649.5,319.7,649.5,422.8z"/>
		<path class="st39" d="M648.2,421.5c0,136.4-110.6,247.1-247.1,247.1s-247-110.7-247-247.1C154.1,318.4,217.3,230,307,193
			c60.3-24.8,127.9-24.8,188.2,0C585,230,648.2,318.3,648.2,421.5z"/>
		<path class="st40" d="M646.9,420.2c0,136.4-110.6,247-247.1,247s-247-110.6-247-247c0-103.1,63.2-191.5,152.9-228.5
			c60.3-24.7,127.9-24.7,188.2,0C583.7,228.7,646.9,317.1,646.9,420.2z"/>
		<path class="st41" d="M645.6,418.9C645.6,555.3,535,666,398.5,666s-247-110.6-247-247.1c0-103.1,63.2-191.5,152.9-228.5
			c60.3-24.8,127.9-24.8,188.2,0C582.4,227.4,645.6,315.8,645.6,418.9z"/>
		<path class="st42" d="M644.3,417.6c0,136.4-110.6,247-247.1,247S150.1,554,150.1,417.6c0-103.1,63.2-191.5,152.9-228.5
			c60.3-24.7,127.9-24.7,188.2,0C581.1,226.1,644.3,314.5,644.3,417.6z"/>
		<path class="st43" d="M642.9,416.3c0,136.4-110.6,247.1-247.1,247.1s-247-110.6-247-247.1c0-103.1,63.2-191.5,152.9-228.5
			c60.3-24.7,127.9-24.7,188.2,0C579.8,224.8,642.9,313.2,642.9,416.3z"/>
		<path class="st44" d="M641.6,415c0,136.4-110.6,247.1-247.1,247.1s-247-110.6-247-247.1c0-103.1,63.2-191.5,152.9-228.5
			c60.3-24.8,127.9-24.8,188.2,0C578.5,223.6,641.6,311.9,641.6,415z"/>
		<path class="st45" d="M640.3,413.7c0,136.4-110.6,247-247.1,247s-247-110.6-247-247c0-103.1,63.2-191.5,152.9-228.5
			c60.3-24.7,127.9-24.7,188.2,0C577.2,222.3,640.3,310.6,640.3,413.7z"/>
		<path class="st46" d="M639,412.4c0,136.4-110.6,247-247.1,247s-247-110.6-247-247c0-103.1,63.2-191.5,152.9-228.5
			c60.3-24.8,127.9-24.8,188.2,0C575.8,221,639,309.3,639,412.4z"/>
		<path class="st47" d="M637.7,411.2c0,136.4-110.6,247.1-247.1,247.1s-247-110.7-247-247.1c0-103.1,63.2-191.5,152.9-228.5
			c60.3-24.7,127.9-24.7,188.2,0C574.5,219.7,637.7,308,637.7,411.2z"/>
		<path class="st48" d="M636.4,409.9c0,136.4-110.6,247-247.1,247s-247-110.6-247-247c0-103.1,63.2-191.5,152.9-228.5
			c60.3-24.8,127.9-24.8,188.2,0C573.2,218.4,636.4,306.7,636.4,409.9z"/>
		<path class="st49" d="M635.1,408.6c0,136.4-110.6,247-247.1,247S141,545,141,408.6c0-103.1,63.2-191.5,152.9-228.5
			c60.3-24.8,127.9-24.8,188.2,0C571.9,217.1,635.1,305.4,635.1,408.6z"/>
		<path class="st50" d="M633.8,407.3c0,136.4-110.6,247.1-247.1,247.1S139.6,543.7,139.6,407.3c0-103.1,63.2-191.5,152.9-228.5
			c60.3-24.7,127.9-24.7,188.2,0C570.6,215.8,633.8,304.2,633.8,407.3z"/>
		<path class="st51" d="M632.4,406c0,136.4-110.6,247-247.1,247S138.2,542.4,138.2,406c0-103.1,63.2-191.5,152.9-228.5
			c60.3-24.8,127.9-24.8,188.2,0C569.3,214.5,632.4,302.9,632.4,406z"/>
		<path class="st52" d="M631.1,404.7c0,136.4-110.6,247-247.1,247s-247-110.6-247-247c0-103.1,63.2-191.5,152.9-228.5
			c60.3-24.7,127.9-24.7,188.2,0C568,213.2,631.1,301.6,631.1,404.7z"/>
		<path class="st53" d="M629.8,403.4c0,136.4-110.6,247.1-247.1,247.1s-247-110.6-247-247.1c0-103.1,63.2-191.5,152.9-228.5
			c60.3-24.7,127.9-24.7,188.2,0C566.7,211.9,629.8,300.3,629.8,403.4z"/>
		<path class="st54" d="M628.5,402.1c0,136.4-110.6,247-247.1,247s-247-110.6-247-247c0-103.1,63.2-191.5,152.9-228.5
			c60.3-24.8,127.9-24.8,188.2,0C565.4,210.7,628.5,299,628.5,402.1z"/>
		<path class="st55" d="M627.2,400.8c0,136.4-110.6,247.1-247,247.1S133.1,537.3,133.1,400.8c0-103.1,63.2-191.5,152.9-228.5
			c60.3-24.8,127.9-24.8,188.2,0C564,209.4,627.2,297.7,627.2,400.8z"/>
		<path class="st56" d="M625.9,399.5c0,136.4-110.6,247.1-247.1,247.1s-247-110.6-247-247.1C131.8,296.4,195,208,284.7,171
			c60.3-24.8,127.9-24.8,188.2,0C562.7,208.1,625.9,296.4,625.9,399.5z"/>
		<path class="st57" d="M624.6,398.3c0,136.4-110.6,247.1-247.1,247.1s-247-110.7-247-247.1c0-103.1,63.2-191.5,152.9-228.5
			c60.3-24.7,127.9-24.7,188.2,0C561.4,206.7,624.6,295.2,624.6,398.3z"/>
		<path class="st58" d="M623.3,396.9c0,136.4-110.6,247.1-247.1,247.1s-247-110.6-247-247.1c0-103.1,63.2-191.5,152.9-228.5
			c60.3-24.8,127.9-24.8,188.2,0C560.1,205.5,623.3,293.8,623.3,396.9z"/>
		<path class="st59" d="M621.9,395.7c0,136.4-110.6,247-247.1,247s-247-110.6-247-247c0-103.1,63.2-191.5,152.9-228.5
			c60.3-24.7,127.9-24.7,188.2,0C558.8,204.2,621.9,292.5,621.9,395.7z"/>
		<path class="st60" d="M620.6,394.4c0,136.4-110.6,247-247.1,247s-247-110.6-247-247c0-103.1,63.2-191.5,152.9-228.5
			c60.3-24.7,127.9-24.7,188.2,0C557.5,202.9,620.6,291.2,620.6,394.4z"/>
		<path class="st61" d="M619.3,393.1c0,136.4-110.6,247.1-247.1,247.1s-247-110.6-247-247.1c0-103.1,63.2-191.5,152.9-228.5
			c60.3-24.8,127.9-24.8,188.2,0C556.2,201.6,619.3,289.9,619.3,393.1z"/>
		<path class="st62" d="M618,391.8c0,136.4-110.6,247-247.1,247s-247-110.6-247-247c0-103.1,63.2-191.5,152.9-228.5
			c60.3-24.7,127.9-24.7,188.2,0C554.8,200.3,618,288.7,618,391.8z"/>
		<path class="st63" d="M616.7,390.5c0,136.4-110.6,247-247.1,247s-247-110.6-247-247c0-103.1,63.2-191.5,152.9-228.5
			c60.3-24.7,127.9-24.7,188.2,0C553.5,199,616.7,287.4,616.7,390.5z"/>
		<path class="st64" d="M615.4,389.2c0,136.4-110.6,247.1-247.1,247.1s-247-110.6-247-247.1c0-103.1,63.2-191.5,152.9-228.5
			c60.3-24.7,127.9-24.7,188.2,0C552.2,197.7,615.4,286.1,615.4,389.2z"/>
		<path class="st65" d="M614.1,387.9c0,136.4-110.6,247-247.1,247s-247-110.6-247-247c0-103.1,63.2-191.5,152.9-228.5
			c60.3-24.8,127.9-24.8,188.2,0C550.9,196.4,614.1,284.8,614.1,387.9z"/>
		<path class="st66" d="M612.8,386.6c0,136.4-110.6,247-247.1,247s-247-110.6-247-247c0-103.1,63.2-191.5,152.9-228.5
			c60.3-24.8,127.9-24.8,188.2,0C549.6,195.2,612.8,283.5,612.8,386.6z"/>
		<path class="st67" d="M611.4,385.3c0,136.4-110.6,247-247,247s-247.1-110.5-247.1-247c0-103.1,63.2-191.5,152.9-228.5
			c60.3-24.7,127.9-24.7,188.2,0C548.3,193.9,611.4,282.2,611.4,385.3z"/>
		<path class="st68" d="M610.1,384c0,136.4-110.6,247-247.1,247S115.9,520.4,115.9,384c0-103.1,63.2-191.5,152.9-228.5
			c60.3-24.8,127.9-24.8,188.2,0C546.9,192.6,610.1,280.9,610.1,384z"/>
		<path class="st69" d="M608.8,382.7c0,136.4-110.6,247.1-247.1,247.1s-247-110.6-247-247.1c0-103.1,63.2-191.5,152.9-228.5
			c60.3-24.7,127.9-24.7,188.2,0C545.7,191.3,608.8,279.6,608.8,382.7z"/>
		<path class="st70" d="M607.5,381.5c0,136.4-110.6,247.1-247.1,247.1s-247-110.7-247-247.1c0-103.1,63.2-191.5,152.9-228.5
			c60.3-24.7,127.9-24.7,188.2,0C544.4,190,607.5,278.3,607.5,381.5z"/>
		<path class="st71" d="M606.2,380.2c0,136.4-110.6,247-247.1,247s-247-110.6-247-247c0-103.1,63.2-191.5,152.9-228.5
			c60.3-24.8,127.9-24.8,188.2,0C543,188.7,606.2,277,606.2,380.2z"/>
		<path class="st72" d="M604.9,378.9c0,136.4-110.6,247.1-247.1,247.1s-247-110.6-247-247.1c0-103.1,63.2-191.5,152.9-228.5
			c60.3-24.7,127.9-24.7,188.2,0C541.7,187.4,604.9,275.8,604.9,378.9z"/>
		<path class="st73" d="M603.6,377.6c0,136.4-110.6,247.1-247.1,247.1s-247-110.6-247-247.1c0-103.1,63.2-191.5,152.9-228.5
			c60.3-24.7,127.9-24.7,188.2,0C540.4,186.1,603.6,274.5,603.6,377.6z"/>
		<path class="st74" d="M602.2,376.3c0,136.4-110.6,247-247.1,247s-247-110.6-247-247c0-103.1,63.2-191.5,152.9-228.5
			c60.3-24.7,127.9-24.7,188.2,0C539.1,184.8,602.2,273.2,602.2,376.3z"/>
		<path class="st75" d="M601,375c0,136.4-110.6,247.1-247.1,247.1S106.8,511.5,106.8,375c0-103.1,63.2-191.5,152.9-228.5
			c60.3-24.8,127.9-24.8,188.2,0C537.8,183.5,601,271.9,601,375z"/>
		<path class="st76" d="M599.6,373.7c0,136.4-110.6,247.1-247.1,247.1s-247-110.7-247-247.1c0-103.1,63.2-191.5,152.9-228.5
			c60.3-24.8,127.9-24.8,188.2,0C536.5,182.2,599.6,270.6,599.6,373.7z"/>
		<path class="st77" d="M598.3,372.4c0,136.4-110.6,247-247.1,247s-247-110.6-247-247c0-103.1,63.2-191.5,152.9-228.5
			c60.3-24.7,127.9-24.7,188.2,0C535.2,181,598.3,269.3,598.3,372.4z"/>
		<path class="st78" d="M597,371.1c0,136.4-110.6,247.1-247.1,247.1s-247-110.6-247-247.1c0-103.1,63.2-191.5,152.9-228.5
			c60.3-24.8,127.9-24.8,188.2,0C533.8,179.7,597,268,597,371.1z"/>
		<path class="st79" d="M595.7,369.8c0,136.4-110.6,247.1-247.1,247.1s-247-110.6-247-247.1c0-103.1,63.2-191.5,152.9-228.5
			c60.3-24.7,127.9-24.7,188.2,0C532.5,178.4,595.7,266.7,595.7,369.8z"/>
		<path class="st80" d="M594.4,368.5c0,136.4-110.6,247-247.1,247s-247-110.6-247-247c0-103.1,63.2-191.5,152.9-228.5
			c60.3-24.7,127.9-24.7,188.2,0C531.2,177.1,594.4,265.4,594.4,368.5z"/>
		<path class="st81" d="M593.1,367.3c0,136.4-110.6,247.1-247.1,247.1S99,503.8,99,367.3c0-103.1,63.2-191.5,152.9-228.5
			c60.3-24.8,127.9-24.8,188.2,0C529.9,175.8,593.1,264.1,593.1,367.3z"/>
		<path class="st82" d="M591.7,366c0,136.4-110.6,247.1-247.1,247.1S97.6,502.4,97.6,366c0-103.1,63.2-191.5,152.9-228.5
			c60.3-24.8,127.9-24.8,188.2,0C528.6,174.5,591.7,262.8,591.7,366z"/>
		<path class="st83" d="M590.4,364.7c0,136.4-110.6,247.1-247.1,247.1s-247-110.7-247-247.1c0-103.1,63.2-191.5,152.9-228.5
			c60.3-24.7,127.9-24.7,188.2,0C527.3,173.2,590.4,261.6,590.4,364.7z"/>
		<path class="st84" d="M589.1,363.4c0,136.4-110.6,247.1-247.1,247.1S95,499.8,95,363.4c0-103.1,63.2-191.5,152.9-228.5
			c60.3-24.7,127.9-24.7,188.2,0C526,171.9,589.1,260.3,589.1,363.4z"/>
		<path class="st85" d="M587.8,362.1c0,136.4-110.6,247-247.1,247s-247-110.6-247-247c0-103.1,63.2-191.5,152.9-228.5
			c60.3-24.8,127.9-24.8,188.2,0C524.7,170.6,587.8,259,587.8,362.1z"/>
		<path class="st86" d="M586.5,360.8c0,136.4-110.6,247-247.1,247s-247-110.6-247-247c0-103.1,63.2-191.5,152.9-228.5
			c60.3-24.8,127.9-24.8,188.2,0C523.3,169.3,586.5,257.7,586.5,360.8z"/>
		<path class="st87" d="M585.2,359.5c0,136.4-110.6,247.1-247.1,247.1S91.1,496,91.1,359.5C91.1,256.4,154.3,168,244,131
			c60.3-24.7,127.9-24.7,188.2,0C522,168.1,585.2,256.4,585.2,359.5z"/>
		<path class="st88" d="M583.9,358.2c0,136.4-110.6,247-247.1,247s-247-110.6-247-247c0-103.1,63.2-191.5,152.9-228.5
			c60.3-24.8,127.9-24.8,188.2,0C520.7,166.8,583.9,255.1,583.9,358.2z"/>
		<path class="st89" d="M582.5,356.9c0,136.4-110.6,247-247.1,247s-247-110.6-247-247c0-103.1,63.2-191.5,152.9-228.5
			c60.3-24.7,127.9-24.7,188.2,0C519.4,165.5,582.5,253.8,582.5,356.9z"/>
		<path class="st90" d="M581.2,355.6c0,136.4-110.6,247.1-247.1,247.1s-247-110.6-247-247.1c0-103.1,63.2-191.5,152.9-228.5
			c60.3-24.7,127.9-24.7,188.2,0C518.1,164.2,581.2,252.5,581.2,355.6z"/>
		<path class="st91" d="M579.9,354.4c0,136.4-110.6,247-247.1,247s-247-110.6-247-247c0-103.1,63.2-191.5,152.9-228.5
			c60.3-24.8,127.9-24.8,188.2,0C516.8,162.9,579.9,251.2,579.9,354.4z"/>
		<path class="st92" d="M578.6,353.1c0,136.4-110.6,247-247.1,247S84.4,489.5,84.4,353.1c0-103.1,63.2-191.5,152.9-228.5
			c60.3-24.8,127.9-24.8,188.2,0C515.5,161.6,578.6,249.9,578.6,353.1z"/>
		<path class="st93" d="M577.3,351.8c0,136.4-110.6,247-247.1,247S83.1,488.2,83.1,351.8c0-103.1,63.2-191.5,152.9-228.5
			c60.3-24.7,127.9-24.7,188.2,0C514.1,160.3,577.3,248.7,577.3,351.8z"/>
		<path class="st94" d="M576,350.5c0,136.4-110.6,247-247.1,247s-247-110.6-247-247c0-103.1,63.2-191.5,152.9-228.5
			c60.3-24.7,127.9-24.7,188.2,0C512.8,159,576,247.4,576,350.5z"/>
		<path class="st95" d="M574.7,349.2c0,136.4-110.6,247-247.1,247s-247-110.6-247-247c0-103.1,63.2-191.5,152.9-228.5
			c60.3-24.8,127.9-24.8,188.2,0C511.5,157.7,574.7,246,574.7,349.2z"/>
		<path class="st96" d="M573.4,347.9c0,136.4-110.6,247.1-247.1,247.1s-247-110.6-247-247.1c0-103.1,63.2-191.5,152.9-228.5
			c60.3-24.8,127.9-24.8,188.2,0C510.2,156.4,573.4,244.8,573.4,347.9z"/>
		<path class="st97" d="M572,346.6c0,136.4-110.6,247-247.1,247s-247-110.6-247-247c0-103.1,63.2-191.5,152.9-228.5
			c60.3-24.7,127.9-24.7,188.2,0C508.9,155.2,572,243.5,572,346.6z"/>
		<path class="st98" d="M570.7,345.3c0,136.4-110.6,247.1-247.1,247.1s-247-110.6-247-247.1c0-103.1,63.2-191.5,152.9-228.5
			c60.3-24.8,127.9-24.8,188.2,0C507.6,153.9,570.7,242.2,570.7,345.3z"/>
		<path class="st99" d="M569.4,344c0,136.4-110.6,247.1-247.1,247.1S75.3,480.5,75.3,344c0-103.1,63.2-191.5,152.9-228.5
			c60.3-24.7,127.9-24.7,188.2,0C506.3,152.6,569.4,240.9,569.4,344z"/>
		<path class="st100" d="M568.1,342.7c0,136.4-110.6,247.1-247.1,247.1S74,479.2,74,342.7c0-103.1,63.2-191.5,152.9-228.5
			c60.3-24.7,127.9-24.7,188.2,0C504.9,151.3,568.1,239.6,568.1,342.7z"/>
		<path class="st101" d="M566.8,341.4c0,136.4-110.6,247.1-247.1,247.1s-247-110.6-247-247.1c0-103.1,63.2-191.5,152.9-228.5
			c60.3-24.8,127.9-24.8,188.2,0C503.6,150,566.8,238.3,566.8,341.4z"/>
		<path class="st102" d="M565.5,340.2c0,136.4-110.6,247-247.1,247s-247-110.6-247-247c0-103.1,63.2-191.5,152.9-228.5
			c60.3-24.8,127.9-24.8,188.2,0C502.3,148.7,565.5,237,565.5,340.2z"/>
	</g>
	<path class="st103" d="M565.5,340.2c0,136.4-110.6,247-247.1,247s-247-110.6-247-247c0-103.1,63.2-191.5,152.9-228.5
		c60.3-24.8,127.9-24.8,188.2,0C502.3,148.7,565.5,237,565.5,340.2z"/>
	<path class="st104" d="M318.6,621.7h-0.2c-3.8,0-7.7-0.1-11.5-0.2l0.1-2.3c3.8,0.2,7.6,0.2,11.4,0.2L318.6,621.7z M330.2,621.5
		l-0.1-2.3c3.8-0.2,7.7-0.4,11.5-0.7l0.2,2.3C338,621,334.1,621.3,330.2,621.5L330.2,621.5L330.2,621.5z M295.4,620.8
		c-3.8-0.3-7.8-0.7-11.6-1.2l0.3-2.3c3.8,0.5,7.7,0.8,11.5,1.2L295.4,620.8z M353.4,619.6l-0.3-2.3c3.8-0.5,7.6-1,11.4-1.6l0.4,2.3
		C361.1,618.5,357.2,619.1,353.4,619.6L353.4,619.6L353.4,619.6z M272.3,617.9c-3.8-0.6-7.7-1.3-11.5-2.1l0.5-2.3
		c3.7,0.8,7.5,1.5,11.3,2.1L272.3,617.9z M376.4,615.7l-0.5-2.3c3.7-0.8,7.5-1.6,11.2-2.6l0.6,2.2
		C383.9,614.1,380.1,614.9,376.4,615.7z M249.5,613.2c-3.8-0.9-7.5-2-11.2-3.1l0.7-2.2c3.7,1.1,7.4,2.1,11.1,3L249.5,613.2z
		 M398.9,610l-0.7-2.2c3.7-1.1,7.4-2.3,11-3.5l0.8,2.2C406.3,607.7,402.6,608.9,398.9,610L398.9,610z M227.2,606.6
		c-3.7-1.2-7.4-2.6-11-4l0.8-2.2c3.6,1.4,7.2,2.7,10.9,4L227.2,606.6z M420.9,602.5l-0.8-2.2c3.6-1.4,7.2-2.9,10.6-4.4l0.9,2.1
		C428.1,599.6,424.5,601.1,420.9,602.5L420.9,602.5z M205.4,598.1c-3.5-1.6-7.1-3.2-10.6-4.9l1-2.1c3.4,1.6,7,3.3,10.5,4.9
		L205.4,598.1z M442.2,593.1l-1-2.1c3.4-1.7,6.9-3.5,10.3-5.3l1.1,2C449.1,589.6,445.6,591.4,442.2,593.1z M184.5,587.9
		c-3.4-1.8-6.8-3.8-10.1-5.7l1.2-2c3.3,2,6.7,3.9,10,5.7L184.5,587.9z M462.7,582l-1.2-2c3.3-2,6.6-4,9.8-6.1l1.2,2
		C469.3,578,465.9,580,462.7,582z M164.6,575.9c-3.3-2.1-6.5-4.3-9.6-6.5l1.3-1.9c3.1,2.2,6.3,4.4,9.5,6.5L164.6,575.9z
		 M482.1,569.3l-1.3-1.9c3.1-2.2,6.2-4.5,9.2-6.9l1.4,1.8C488.3,564.7,485.2,567.1,482.1,569.3L482.1,569.3L482.1,569.3z
		 M145.7,562.4c-3-2.4-6.1-4.8-9-7.4l1.5-1.8c2.9,2.5,5.9,4.9,9,7.3L145.7,562.4z M500.5,555l-1.5-1.8c2.9-2.5,5.8-5.1,8.6-7.6
		l1.6,1.7C506.3,549.9,503.4,552.5,500.5,555L500.5,555z M127.9,547.4c-2.8-2.6-5.7-5.3-8.4-8l1.6-1.6c2.7,2.7,5.5,5.4,8.3,8
		L127.9,547.4z M517.6,539.3l-1.6-1.6c2.7-2.7,5.4-5.5,8-8.3l1.7,1.6C523,533.7,520.3,536.5,517.6,539.3L517.6,539.3z M111.4,530.9
		c-2.6-2.8-5.2-5.7-7.7-8.7l1.8-1.5c2.5,2.9,5,5.8,7.6,8.6L111.4,530.9z M533.3,522.1l-1.8-1.5c2.5-2.9,4.9-5.9,7.3-9l1.8,1.4
		C538.3,516.1,535.8,519.2,533.3,522.1z M96.3,513.2c-2.4-3-4.7-6.2-7-9.3l1.9-1.3c2.2,3.1,4.5,6.2,6.9,9.2L96.3,513.2z
		 M547.6,503.8l-1.9-1.3c2.2-3.1,4.4-6.3,6.6-9.5l1.9,1.3C552.1,497.4,549.8,500.6,547.6,503.8z M82.8,494.3
		c-2.1-3.3-4.2-6.5-6.2-9.8l2-1.2c1.9,3.3,4,6.5,6.1,9.8L82.8,494.3z M560.3,484.3l-2-1.2c1.9-3.3,3.9-6.6,5.7-10l2,1.1
		C564.2,477.6,562.3,481,560.3,484.3L560.3,484.3z M70.9,474.3c-1.8-3.4-3.6-6.9-5.3-10.3l2.1-1c1.6,3.4,3.5,6.9,5.3,10.2
		L70.9,474.3z M571.4,463.8l-2.1-1c1.7-3.5,3.3-7,4.8-10.5l2.1,0.9C574.8,456.8,573.1,460.3,571.4,463.8L571.4,463.8z M60.6,453.5
		c-1.5-3.5-3-7.1-4.5-10.7l2.2-0.8c1.4,3.6,2.9,7.1,4.4,10.6L60.6,453.5z M580.8,442.5l-2.2-0.8c1.4-3.5,2.7-7.2,4-10.8l2.2,0.8
		C583.5,435.3,582.2,438.9,580.8,442.5L580.8,442.5z M52.2,431.9c-1.3-3.7-2.5-7.4-3.6-11.1l2.2-0.7c1.1,3.6,2.3,7.4,3.5,11
		L52.2,431.9z M588.3,420.5l-2.2-0.7c1.1-3.7,2.1-7.4,3.1-11.1l2.2,0.6C590.5,413,589.4,416.8,588.3,420.5L588.3,420.5z M45.5,409.6
		c-1-3.8-1.8-7.6-2.6-11.3l2.3-0.5c0.8,3.7,1.6,7.5,2.6,11.2L45.5,409.6z M594,398l-2.3-0.5c0.8-3.7,1.5-7.5,2.1-11.3l2.3,0.4
		C595.5,390.3,594.8,394.2,594,398L594,398z M40.8,386.8c-0.6-3.8-1.2-7.7-1.6-11.5l2.3-0.3c0.5,3.8,1,7.6,1.6,11.4L40.8,386.8z
		 M597.8,375l-2.3-0.3c0.5-3.8,0.9-7.6,1.2-11.5l2.3,0.2C598.7,367.3,598.3,371.2,597.8,375L597.8,375z M37.9,363.7
		c-0.3-3.8-0.6-7.7-0.7-11.6l2.3-0.1c0.2,3.9,0.4,7.7,0.7,11.5L37.9,363.7z M599.7,351.8l-2.3-0.1c0.2-3.8,0.2-7.7,0.2-11.5h2.3
		C600,344,599.9,347.9,599.7,351.8L599.7,351.8z M39.2,340.5h-2.3v-0.3c0-3.8,0.1-7.6,0.2-11.3l2.3,0.1c-0.2,3.7-0.2,7.5-0.2,11.2
		V340.5z M597.4,328c-0.2-3.8-0.4-7.7-0.7-11.5l2.3-0.2c0.3,3.9,0.6,7.8,0.7,11.6L597.4,328z M40.1,317.4l-2.3-0.2
		c0.3-3.9,0.7-7.8,1.2-11.6l2.3,0.3C40.8,309.7,40.4,313.6,40.1,317.4L40.1,317.4z M595.5,305c-0.5-3.8-1-7.6-1.6-11.5l2.3-0.4
		c0.7,3.8,1.2,7.7,1.7,11.5L595.5,305z M42.9,294.5l-2.3-0.4c0.6-3.8,1.3-7.7,2.1-11.5l2.3,0.5C44.3,287,43.6,290.7,42.9,294.5
		L42.9,294.5z M591.7,282.3c-0.8-3.7-1.6-7.5-2.6-11.2l2.2-0.6c0.9,3.8,1.8,7.5,2.6,11.3L591.7,282.3z M47.6,271.9l-2.2-0.6
		c1-3.8,2-7.6,3.1-11.2l2.2,0.7C49.6,264.4,48.6,268.2,47.6,271.9z M586,259.9c-1.1-3.7-2.3-7.4-3.5-11l2.2-0.8
		c1.3,3.6,2.5,7.4,3.6,11L586,259.9z M54.2,249.8l-2.2-0.7c1.2-3.7,2.6-7.4,4-11l2.2,0.8C56.8,242.5,55.4,246.1,54.2,249.8z
		 M578.5,238.2c-1.4-3.5-2.9-7.1-4.4-10.6l2.1-0.9c1.6,3.5,3.1,7.1,4.5,10.7L578.5,238.2z M62.6,228.2l-2.1-0.9
		c1.5-3.5,3.2-7.1,4.9-10.6l2.1,1C65.7,221.2,64.1,224.8,62.6,228.2z M569.2,217.1c-1.6-3.4-3.4-6.8-5.3-10.2l2-1.1
		c1.9,3.4,3.7,6.9,5.3,10.3L569.2,217.1z M72.7,207.5l-2-1.1c1.8-3.4,3.8-6.8,5.7-10.1l2,1.2C76.4,200.7,74.5,204.1,72.7,207.5z
		 M558.2,196.9c-2-3.3-4-6.6-6.1-9.8l1.9-1.3c2.1,3.2,4.2,6.6,6.2,9.8L558.2,196.9z M84.5,187.7l-1.9-1.3c2.1-3.2,4.3-6.5,6.5-9.6
		l1.9,1.3C88.8,181.2,86.6,184.4,84.5,187.7z M545.5,177.6c-2.2-3.1-4.5-6.2-6.9-9.2l1.8-1.4c2.4,3.1,4.7,6.2,7,9.3L545.5,177.6z
		 M97.9,168.9l-1.8-1.4c2.4-3,4.8-6.1,7.4-9l1.8,1.5C102.7,162.8,100.3,165.8,97.9,168.9z M531.3,159.4c-2.5-2.9-5-5.8-7.7-8.6
		l1.7-1.6c2.6,2.9,5.2,5.8,7.7,8.7L531.3,159.4z M112.8,151.2l-1.7-1.6c2.6-2.8,5.3-5.7,8-8.4l1.6,1.6
		C118.1,145.6,115.4,148.4,112.8,151.2L112.8,151.2z M515.6,142.5c-2.7-2.7-5.5-5.4-8.3-8l1.6-1.7c2.8,2.6,5.7,5.3,8.4,8.1
		L515.6,142.5z M129.1,134.9l-1.6-1.7c2.8-2.6,5.7-5.2,8.7-7.7l1.5,1.8C134.8,129.7,131.9,132.3,129.1,134.9L129.1,134.9z
		 M498.7,126.9c-2.9-2.5-5.9-4.9-9-7.3l1.4-1.8c3.1,2.4,6.1,4.8,9,7.4L498.7,126.9z M146.7,120l-1.4-1.8c3-2.4,6.2-4.7,9.3-7
		l1.3,1.9C152.8,115.3,149.7,117.6,146.7,120z M480.4,112.7c-3.1-2.2-6.3-4.4-9.5-6.6l1.3-1.9c3.3,2.1,6.5,4.3,9.6,6.6L480.4,112.7z
		 M165.4,106.5l-1.3-1.9c3.2-2.1,6.5-4.2,9.8-6.2l1.2,2C171.9,102.4,168.7,104.4,165.4,106.5z M461.1,100.1c-3.3-2-6.7-3.9-10-5.7
		l1.1-2c3.4,1.8,6.8,3.8,10.1,5.7L461.1,100.1z M185.3,94.7l-1.1-2c3.4-1.8,6.9-3.6,10.3-5.3l1,2.1C192,91.1,188.6,92.9,185.3,94.7
		L185.3,94.7L185.3,94.7z M440.8,89.1c-3.4-1.7-7-3.3-10.5-4.8l0.9-2.1c3.5,1.6,7.1,3.2,10.6,4.9L440.8,89.1z M205.9,84.5l-0.9-2.1
		c2-0.9,4.1-1.8,6.2-2.6c1.5-0.6,3-1.2,4.6-1.8l0.8,2.2c-1.5,0.6-3,1.2-4.5,1.8C210,82.8,208,83.6,205.9,84.5L205.9,84.5z
		 M419.6,79.8c-3.6-1.4-7.2-2.7-10.8-4l0.8-2.2c3.7,1.2,7.4,2.6,10.9,4L419.6,79.8z M227.4,76.1l-0.8-2.2c3.7-1.3,7.4-2.5,11.1-3.6
		l0.7,2.2C234.7,73.7,231,74.9,227.4,76.1L227.4,76.1z M397.8,72.4c-3.7-1.1-7.4-2.1-11.1-3l0.6-2.2c3.7,0.9,7.5,2,11.2,3.1
		L397.8,72.4z M249.5,69.5l-0.6-2.2c3.7-0.9,7.5-1.8,11.3-2.6l0.5,2.3C257,67.7,253.2,68.6,249.5,69.5L249.5,69.5z M375.4,66.7
		c-3.7-0.8-7.6-1.5-11.3-2.1l0.4-2.3c3.8,0.6,7.7,1.3,11.5,2.1L375.4,66.7z M272.1,64.8l-0.4-2.3c3.8-0.6,7.7-1.2,11.5-1.7l0.3,2.3
		C279.7,63.6,275.9,64.1,272.1,64.8L272.1,64.8z M352.6,63c-3.8-0.5-7.7-0.9-11.5-1.2l0.2-2.3c3.8,0.3,7.7,0.7,11.6,1.2L352.6,63z
		 M295,61.9l-0.2-2.3c3.8-0.3,7.8-0.6,11.6-0.7l0.1,2.3C302.7,61.3,298.8,61.6,295,61.9z M329.6,61.1c-3.7-0.2-7.4-0.2-11.2-0.2H318
		v-2.3h0.4c3.7,0,7.5,0.1,11.2,0.2V61.1z"/>
	<path class="st105" d="M682.1,319.4l-50.6-34.7v16.9H614C596.2,154.8,473.3,43.3,325.5,39.8l-7.2,0.1v17.2h0.1v17.4
		c145.2,0,263,117.7,263,263l0,0h50.1v16.6L682.1,319.4z"/>
</g>
</svg>
