<?xml version="1.0" encoding="utf-8"?>
<!-- Generator: Adobe Illustrator 26.1.0, SVG Export Plug-In . SVG Version: 6.00 Build 0)  -->
<svg width="200" version="1.1" id="Layer_1" xmlns="http://www.w3.org/2000/svg" xmlns:xlink="http://www.w3.org/1999/xlink" x="0px" y="0px"
	 viewBox="0 0 707.4 828.1" style="enable-background:new 0 0 707.4 828.1;" xml:space="preserve">
<style type="text/css">
	.st0{opacity:0.36;}
	.st1{fill:#FFFFFF;fill-opacity:0;}
	.st2{opacity:1.000000e-02;fill:#FDFDFD;enable-background:new    ;}
	.st3{opacity:2.000000e-02;fill:#FCFCFC;enable-background:new    ;}
	.st4{opacity:3.000000e-02;fill:#FAFAFA;enable-background:new    ;}
	.st5{opacity:4.000000e-02;fill:#F9F9F9;enable-background:new    ;}
	.st6{opacity:5.000000e-02;fill:#F7F7F7;enable-background:new    ;}
	.st7{opacity:6.000000e-02;fill:#F6F6F6;enable-background:new    ;}
	.st8{opacity:7.000000e-02;fill:#F4F4F4;enable-background:new    ;}
	.st9{opacity:8.000000e-02;fill:#F3F3F3;enable-background:new    ;}
	.st10{opacity:9.000000e-02;fill:#F1F1F1;enable-background:new    ;}
	.st11{opacity:0.1;fill:#F0F0F0;enable-background:new    ;}
	.st12{opacity:0.11;fill:#EEEEEE;enable-background:new    ;}
	.st13{opacity:0.12;fill:#EDEDED;enable-background:new    ;}
	.st14{opacity:0.13;fill:#EBEBEB;enable-background:new    ;}
	.st15{opacity:0.14;fill:#EAEAEA;enable-background:new    ;}
	.st16{opacity:0.15;fill:#E8E8E8;enable-background:new    ;}
	.st17{opacity:0.16;fill:#E7E7E7;enable-background:new    ;}
	.st18{opacity:0.17;fill:#E5E5E5;enable-background:new    ;}
	.st19{opacity:0.18;fill:#E4E4E4;enable-background:new    ;}
	.st20{opacity:0.19;fill:#E2E2E2;enable-background:new    ;}
	.st21{opacity:0.2;fill:#E1E1E1;enable-background:new    ;}
	.st22{opacity:0.21;fill:#DFDFDF;enable-background:new    ;}
	.st23{opacity:0.22;fill:#DEDEDE;enable-background:new    ;}
	.st24{opacity:0.23;fill:#DCDCDC;enable-background:new    ;}
	.st25{opacity:0.24;fill:#DBDBDB;enable-background:new    ;}
	.st26{opacity:0.25;fill:#D9D9D9;enable-background:new    ;}
	.st27{opacity:0.26;fill:#D8D8D8;enable-background:new    ;}
	.st28{opacity:0.27;fill:#D6D6D6;enable-background:new    ;}
	.st29{opacity:0.28;fill:#D5D5D5;enable-background:new    ;}
	.st30{opacity:0.29;fill:#D3D3D3;enable-background:new    ;}
	.st31{opacity:0.3;fill:#D2D2D2;enable-background:new    ;}
	.st32{opacity:0.31;fill:#D0D0D0;enable-background:new    ;}
	.st33{opacity:0.32;fill:#CFCFCF;enable-background:new    ;}
	.st34{opacity:0.33;fill:#CDCDCD;enable-background:new    ;}
	.st35{opacity:0.34;fill:#CBCBCB;enable-background:new    ;}
	.st36{opacity:0.35;fill:#CACACA;enable-background:new    ;}
	.st37{opacity:0.36;fill:#C8C8C8;enable-background:new    ;}
	.st38{opacity:0.37;fill:#C7C7C7;enable-background:new    ;}
	.st39{opacity:0.38;fill:#C5C5C5;enable-background:new    ;}
	.st40{opacity:0.39;fill:#C4C4C4;enable-background:new    ;}
	.st41{opacity:0.4;fill:#C2C2C2;enable-background:new    ;}
	.st42{opacity:0.41;fill:#C1C1C1;enable-background:new    ;}
	.st43{opacity:0.42;fill:#BFBFBF;enable-background:new    ;}
	.st44{opacity:0.43;fill:#BEBEBE;enable-background:new    ;}
	.st45{opacity:0.44;fill:#BCBCBC;enable-background:new    ;}
	.st46{opacity:0.45;fill:#BBBBBB;enable-background:new    ;}
	.st47{opacity:0.46;fill:#B9B9B9;enable-background:new    ;}
	.st48{opacity:0.47;fill:#B8B8B8;enable-background:new    ;}
	.st49{opacity:0.48;fill:#B6B6B6;enable-background:new    ;}
	.st50{opacity:0.49;fill:#B5B5B5;enable-background:new    ;}
	.st51{opacity:0.5;fill:#B3B3B3;enable-background:new    ;}
	.st52{opacity:0.5;fill:#B2B2B2;enable-background:new    ;}
	.st53{opacity:0.51;fill:#B0B0B0;enable-background:new    ;}
	.st54{opacity:0.52;fill:#AFAFAF;enable-background:new    ;}
	.st55{opacity:0.53;fill:#ADADAD;enable-background:new    ;}
	.st56{opacity:0.54;fill:#ACACAC;enable-background:new    ;}
	.st57{opacity:0.55;fill:#AAAAAA;enable-background:new    ;}
	.st58{opacity:0.56;fill:#A9A9A9;enable-background:new    ;}
	.st59{opacity:0.57;fill:#A7A7A7;enable-background:new    ;}
	.st60{opacity:0.58;fill:#A6A6A6;enable-background:new    ;}
	.st61{opacity:0.59;fill:#A4A4A4;enable-background:new    ;}
	.st62{opacity:0.6;fill:#A3A3A3;enable-background:new    ;}
	.st63{opacity:0.61;fill:#A1A1A1;enable-background:new    ;}
	.st64{opacity:0.62;fill:#A0A0A0;enable-background:new    ;}
	.st65{opacity:0.63;fill:#9E9E9E;enable-background:new    ;}
	.st66{opacity:0.64;fill:#9D9D9D;enable-background:new    ;}
	.st67{opacity:0.65;fill:#9B9B9B;enable-background:new    ;}
	.st68{opacity:0.66;fill:#9A9A9A;enable-background:new    ;}
	.st69{opacity:0.67;fill:#989898;enable-background:new    ;}
	.st70{opacity:0.68;fill:#969696;enable-background:new    ;}
	.st71{opacity:0.69;fill:#959595;enable-background:new    ;}
	.st72{opacity:0.7;fill:#939393;enable-background:new    ;}
	.st73{opacity:0.71;fill:#929292;enable-background:new    ;}
	.st74{opacity:0.72;fill:#909090;enable-background:new    ;}
	.st75{opacity:0.73;fill:#8F8F8F;enable-background:new    ;}
	.st76{opacity:0.74;fill:#8D8D8D;enable-background:new    ;}
	.st77{opacity:0.75;fill:#8C8C8C;enable-background:new    ;}
	.st78{opacity:0.76;fill:#8A8A8A;enable-background:new    ;}
	.st79{opacity:0.77;fill:#898989;enable-background:new    ;}
	.st80{opacity:0.78;fill:#878787;enable-background:new    ;}
	.st81{opacity:0.79;fill:#868686;enable-background:new    ;}
	.st82{opacity:0.8;fill:#848484;enable-background:new    ;}
	.st83{opacity:0.81;fill:#838383;enable-background:new    ;}
	.st84{opacity:0.82;fill:#818181;enable-background:new    ;}
	.st85{opacity:0.83;fill:#808080;enable-background:new    ;}
	.st86{opacity:0.84;fill:#7E7E7E;enable-background:new    ;}
	.st87{opacity:0.85;fill:#7D7D7D;enable-background:new    ;}
	.st88{opacity:0.86;fill:#7B7B7B;enable-background:new    ;}
	.st89{opacity:0.87;fill:#7A7A7A;enable-background:new    ;}
	.st90{opacity:0.88;fill:#787878;enable-background:new    ;}
	.st91{opacity:0.89;fill:#777777;enable-background:new    ;}
	.st92{opacity:0.9;fill:#757575;enable-background:new    ;}
	.st93{opacity:0.91;fill:#747474;enable-background:new    ;}
	.st94{opacity:0.92;fill:#727272;enable-background:new    ;}
	.st95{opacity:0.93;fill:#717171;enable-background:new    ;}
	.st96{opacity:0.94;fill:#6F6F6F;enable-background:new    ;}
	.st97{opacity:0.95;fill:#6E6E6E;enable-background:new    ;}
	.st98{opacity:0.96;fill:#6C6C6C;enable-background:new    ;}
	.st99{opacity:0.97;fill:#6B6B6B;enable-background:new    ;}
	.st100{opacity:0.98;fill:#696969;enable-background:new    ;}
	.st101{opacity:0.99;fill:#686868;enable-background:new    ;}
	.st102{fill:#666666;}
	.st103{fill:#FFFFFF;}
	.st104{fill:#808080;}
	.st105{fill:#EF5A28;}
</style>
<g>
	<g class="st0">
		<path class="st1" d="M711.4,510.2c0,136.4-110.6,247-247.1,247s-247.1-110.6-247.1-247c0-103.1,63.2-191.5,152.9-228.5
			c60.3-24.8,127.9-24.8,188.2,0C648.2,318.8,711.4,407.1,711.4,510.2z"/>
		<path class="st2" d="M710,509c0,136.4-110.6,247.1-247.1,247.1s-247.1-110.6-247.1-247c0-103.1,63.2-191.5,152.9-228.5
			c60.3-24.7,127.9-24.7,188.2,0C646.9,317.5,710,405.8,710,509z"/>
		<path class="st3" d="M708.7,507.7c0,136.4-110.6,247.1-247.1,247.1s-247.1-110.6-247.1-247c0-103.1,63.2-191.5,152.9-228.5
			c60.3-24.8,127.9-24.8,188.2,0C645.6,316.2,708.7,404.5,708.7,507.7z"/>
		<path class="st4" d="M707.4,506.4c0,136.4-110.6,247-247.1,247s-247.1-110.6-247.1-247c0-103.1,63.2-191.5,152.9-228.5
			c60.3-24.8,127.9-24.8,188.2,0C644.3,314.9,707.4,403.2,707.4,506.4z"/>
		<path class="st5" d="M706.1,505.1c0,136.4-110.6,247-247.1,247s-247.1-110.7-247.1-247c0-103.1,63.2-191.5,152.9-228.5
			c60.3-24.7,127.9-24.7,188.2,0C642.9,313.6,706.1,402,706.1,505.1z"/>
		<path class="st6" d="M704.8,503.8c0,136.4-110.6,247.1-247.1,247.1s-247.1-110.6-247.1-247c0-103.1,63.2-191.5,152.9-228.5
			c60.3-24.7,127.9-24.7,188.2,0C641.6,312.3,704.8,400.7,704.8,503.8z"/>
		<path class="st7" d="M703.5,502.5c0,136.4-110.6,247-247.1,247s-247.1-110.6-247.1-247c0-103.1,63.2-191.5,152.9-228.5
			c60.3-24.8,127.9-24.8,188.2,0C640.3,311,703.5,399.4,703.5,502.5z"/>
		<path class="st8" d="M702.1,501.2c0,136.4-110.6,247.1-247.1,247.1s-247.1-110.6-247.1-247c0-103.1,63.2-191.5,152.9-228.5
			c60.3-24.8,127.9-24.8,188.2,0C639,309.8,702.1,398.1,702.1,501.2z"/>
		<path class="st9" d="M700.8,499.9c0,136.4-110.6,247.1-247.1,247.1S206.6,636.4,206.6,500c0-103.1,63.2-191.5,152.9-228.5
			c60.3-24.7,127.9-24.7,188.2,0C637.7,308.5,700.8,396.8,700.8,499.9z"/>
		<path class="st10" d="M699.5,498.6c0,136.4-110.6,247-247.1,247S205.3,635,205.3,498.6c0-103.1,63.2-191.5,152.9-228.5
			c60.3-24.7,127.9-24.7,188.2,0C636.4,307.2,699.5,395.5,699.5,498.6z"/>
		<path class="st11" d="M698.2,497.3c0,136.4-110.6,247.1-247.1,247.1S204,633.8,204,497.4c0-103.1,63.2-191.5,152.9-228.5
			c60.3-24.8,127.9-24.8,188.2,0C635.1,305.9,698.2,394.2,698.2,497.3z"/>
		<path class="st12" d="M696.9,496c0,136.4-110.6,247-247.1,247s-247-110.6-247-247c0-103.1,63.2-191.5,152.9-228.5
			c60.3-24.7,127.9-24.7,188.2,0C633.7,304.6,696.9,392.9,696.9,496z"/>
		<path class="st13" d="M695.6,494.8c0,136.4-110.6,247-247.1,247s-247-110.6-247-247c0-103.1,63.2-191.5,152.9-228.5
			c60.3-24.8,127.9-24.8,188.2,0C632.4,303.3,695.6,391.6,695.6,494.8z"/>
		<path class="st14" d="M694.3,493.5c0,136.4-110.6,247.1-247.1,247.1S200.1,630,200.1,493.6c0-103.1,63.2-191.5,152.9-228.5
			c60.3-24.8,127.9-24.8,188.2,0C631.1,302,694.3,390.3,694.3,493.5z"/>
		<path class="st15" d="M693,492.2c0,136.4-110.6,247-247.1,247s-247.1-110.6-247.1-247c0-103.1,63.2-191.5,152.9-228.5
			c60.3-24.7,127.9-24.7,188.2,0C629.8,300.7,693,389.1,693,492.2z"/>
		<path class="st16" d="M691.6,490.9c0,136.4-110.6,247-247.1,247s-247-110.6-247-247c0-103.1,63.2-191.5,152.9-228.5
			c60.3-24.7,127.9-24.7,188.2,0C628.5,299.4,691.6,387.8,691.6,490.9z"/>
		<path class="st17" d="M690.3,489.6c0,136.4-110.6,247-247.1,247s-247-110.6-247-247c0-103.1,63.2-191.5,152.9-228.5
			c60.3-24.7,127.9-24.7,188.2,0C627.2,298.1,690.3,386.4,690.3,489.6z"/>
		<path class="st18" d="M689,488.3c0,136.4-110.6,247-247.1,247s-247.1-110.6-247.1-247c0-103.1,63.2-191.5,152.9-228.5
			c60.3-24.8,127.9-24.8,188.2,0C625.9,296.8,689,385.2,689,488.3z"/>
		<path class="st19" d="M687.7,487c0,136.4-110.6,247-247.1,247S193.5,623.4,193.5,487c0-103.1,63.2-191.5,152.9-228.5
			c60.3-24.7,127.9-24.7,188.2,0C624.6,295.6,687.7,383.9,687.7,487z"/>
		<path class="st20" d="M686.4,485.7c0,136.4-110.6,247.1-247.1,247.1s-247.1-110.6-247.1-247c0-103.1,63.2-191.5,152.9-228.5
			c60.3-24.7,127.9-24.7,188.2,0C623.3,294.3,686.4,382.6,686.4,485.7z"/>
		<path class="st21" d="M685.1,484.4c0,136.4-110.6,247-247.1,247s-247.1-110.6-247.1-247c0-103.1,63.2-191.5,152.9-228.5
			c60.3-24.8,127.9-24.8,188.2,0C621.9,293,685.1,381.3,685.1,484.4z"/>
		<path class="st22" d="M683.8,483.1c0,136.4-110.6,247-247.1,247s-247.1-110.6-247.1-247c0-103.1,63.2-191.5,152.9-228.5
			c60.3-24.7,127.9-24.7,188.2,0C620.6,291.7,683.8,380,683.8,483.1z"/>
		<path class="st23" d="M682.4,481.9c0,136.4-110.6,247.1-247.1,247.1S188.2,618.4,188.2,482c0-103.1,63.2-191.5,152.9-228.5
			c60.3-24.8,127.9-24.8,188.2,0C619.3,290.4,682.4,378.7,682.4,481.9z"/>
		<path class="st24" d="M681.1,480.6c0,136.4-110.6,247-247.1,247S187,617,187,480.6c0-103.1,63.2-191.5,152.9-228.5
			c60.3-24.8,127.9-24.8,188.2,0C618,289.1,681.1,377.4,681.1,480.6z"/>
		<path class="st25" d="M679.8,479.3c0,136.4-110.6,247.1-247.1,247.1s-247.1-110.6-247.1-247c0-103.1,63.2-191.5,152.9-228.5
			c60.3-24.7,127.9-24.7,188.2,0C616.7,287.8,679.8,376.1,679.8,479.3z"/>
		<path class="st26" d="M678.5,478c0,136.4-110.6,247-247,247S184.4,614.4,184.4,478c0-103.1,63.2-191.5,152.9-228.5
			c60.3-24.7,127.9-24.7,188.2,0C615.4,286.5,678.5,374.9,678.5,478z"/>
		<path class="st27" d="M677.2,476.7c0,136.4-110.6,247-247.1,247S183,613.1,183,476.7c0-103.1,63.2-191.5,152.9-228.5
			c60.3-24.7,127.9-24.7,188.2,0C614.1,285.2,677.2,373.6,677.2,476.7z"/>
		<path class="st28" d="M675.9,475.4c0,136.4-110.6,247.1-247.1,247.1s-247-110.6-247-247.1c0-103.1,63.2-191.5,152.9-228.5
			c60.3-24.8,127.9-24.8,188.2,0C612.7,283.9,675.9,372.3,675.9,475.4z"/>
		<path class="st29" d="M674.6,474.1c0,136.4-110.6,247-247.1,247s-247-110.6-247-247c0-103.1,63.2-191.5,152.9-228.5
			c60.3-24.7,127.9-24.7,188.2,0C611.4,282.6,674.6,371,674.6,474.1z"/>
		<path class="st30" d="M673.3,472.8c0,136.4-110.6,247-247.1,247s-247.1-110.6-247.1-247c0-103.1,63.2-191.5,152.9-228.5
			c60.3-24.7,127.9-24.7,188.2,0C610.1,281.4,673.3,369.7,673.3,472.8z"/>
		<path class="st31" d="M672,471.6c0,136.4-110.6,247-247.1,247S177.8,608,177.8,471.6c0-103.1,63.2-191.5,152.9-228.5
			c60.3-24.8,127.9-24.8,188.2,0C608.8,280,672,368.4,672,471.6z"/>
		<path class="st32" d="M670.6,470.2c0,136.4-110.6,247-247.1,247s-247-110.5-247-247c0-103.1,63.2-191.5,152.9-228.5
			c60.3-24.7,127.9-24.7,188.2,0C607.5,278.8,670.6,367.1,670.6,470.2z"/>
		<path class="st33" d="M669.4,468.9c0,136.4-110.6,247-247.1,247s-247.1-110.6-247.1-247c0-103.1,63.2-191.5,152.9-228.5
			c60.3-24.8,127.9-24.8,188.2,0C606.2,277.5,669.4,365.8,669.4,468.9z"/>
		<path class="st34" d="M668,467.7c0,136.4-110.6,247.1-247.1,247.1s-247.1-110.6-247.1-247c0-103.1,63.2-191.5,152.9-228.5
			c60.3-24.8,127.9-24.8,188.2,0C604.9,276.2,668,364.5,668,467.7z"/>
		<path class="st35" d="M666.7,466.4c0,136.4-110.6,247-247.1,247s-247.1-110.6-247.1-247c0-103.1,63.2-191.5,152.9-228.5
			c60.3-24.7,127.9-24.7,188.2,0C603.6,274.9,666.7,363.2,666.7,466.4z"/>
		<path class="st36" d="M665.4,465.1c0,136.4-110.6,247-247.1,247s-247.1-110.6-247.1-247c0-103.1,63.2-191.5,152.9-228.5
			c60.3-24.7,127.9-24.7,188.2,0C602.2,273.6,665.4,362,665.4,465.1z"/>
		<path class="st37" d="M664.1,463.8c0,136.4-110.6,247.1-247.1,247.1s-247.1-110.6-247.1-247c0-103.1,63.2-191.5,152.9-228.5
			c60.3-24.7,127.9-24.7,188.2,0C600.9,272.3,664.1,360.7,664.1,463.8z"/>
		<path class="st38" d="M662.8,462.5c0,136.4-110.6,247-247.1,247s-247.1-110.6-247.1-247c0-103.1,63.2-191.5,152.9-228.5
			c60.3-24.8,127.9-24.8,188.2,0C599.6,271,662.8,359.4,662.8,462.5z"/>
		<path class="st39" d="M661.5,461.2c0,136.4-110.6,247-247.1,247s-247.1-110.7-247.1-247c0-103.1,63.2-191.5,152.9-228.5
			c60.3-24.7,127.9-24.7,188.2,0C598.3,269.7,661.5,358.1,661.5,461.2z"/>
		<path class="st40" d="M660.1,459.9C660.1,596.3,549.5,707,413,707S165.9,596.4,165.9,460c0-103.1,63.2-191.5,152.9-228.5
			c60.3-24.7,127.9-24.7,188.2,0C597,268.5,660.1,356.8,660.1,459.9z"/>
		<path class="st41" d="M658.8,458.6c0,136.4-110.6,247-247.1,247S164.6,595,164.6,458.6c0-103.1,63.2-191.5,152.9-228.5
			c60.3-24.8,127.9-24.8,188.2,0C595.7,267.2,658.8,355.5,658.8,458.6z"/>
		<path class="st42" d="M657.5,457.3c0,136.4-110.6,247.1-247.1,247.1s-247.1-110.6-247.1-247c0-103.1,63.2-191.5,152.9-228.5
			c60.3-24.7,127.9-24.7,188.2,0C594.4,265.9,657.5,354.2,657.5,457.3z"/>
		<path class="st43" d="M656.2,456c0,136.4-110.6,247-247.1,247S162,592.4,162,456c0-103.1,63.2-191.5,152.9-228.5
			c60.3-24.8,127.9-24.8,188.2,0C593.1,264.6,656.2,352.9,656.2,456z"/>
		<path class="st44" d="M654.9,454.8c0,136.4-110.6,247-247.1,247s-247.1-110.6-247.1-247c0-103.1,63.2-191.5,152.9-228.5
			c60.3-24.8,127.9-24.8,188.2,0C591.7,263.3,654.9,351.6,654.9,454.8z"/>
		<path class="st45" d="M653.6,453.5c0,136.4-110.6,247.1-247.1,247.1s-247-110.7-247-247.1c0-103.1,63.2-191.5,152.9-228.5
			c60.3-24.7,127.9-24.7,188.2,0C590.4,262,653.6,350.3,653.6,453.5z"/>
		<path class="st46" d="M652.3,452.2c0,136.4-110.6,247.1-247.1,247.1s-247.1-110.6-247.1-247c0-103.1,63.2-191.5,152.9-228.5
			c60.3-24.7,127.9-24.7,188.2,0C589.1,260.7,652.3,349,652.3,452.2z"/>
		<path class="st47" d="M651,450.9c0,136.4-110.6,247-247.1,247s-247.1-110.6-247.1-247c0-103.1,63.2-191.5,152.9-228.5
			c60.3-24.7,127.9-24.7,188.2,0C587.8,259.4,651,347.8,651,450.9z"/>
		<path class="st48" d="M649.6,449.6c0,136.4-110.6,247.1-247.1,247.1s-247-110.7-247-247.1c0-103.1,63.2-191.5,152.9-228.5
			c60.3-24.8,127.9-24.8,188.2,0C586.5,258.1,649.6,346.5,649.6,449.6z"/>
		<path class="st49" d="M648.3,448.3c0,136.4-110.6,247.1-247.1,247.1s-247.1-110.6-247.1-247c0-103.1,63.2-191.5,152.9-228.5
			c60.3-24.7,127.9-24.7,188.2,0C585.2,256.8,648.3,345.2,648.3,448.3z"/>
		<path class="st50" d="M647,447c0,136.4-110.6,247-247.1,247S152.8,583.4,152.8,447c0-103.1,63.2-191.5,152.9-228.5
			c60.3-24.8,127.9-24.8,188.2,0C583.9,255.5,647,343.9,647,447z"/>
		<path class="st51" d="M645.7,445.7c0,136.4-110.6,247.1-247.1,247.1s-247.1-110.6-247.1-247c0-103.1,63.2-191.5,152.9-228.5
			c60.3-24.8,127.9-24.8,188.2,0C582.6,254.2,645.7,342.6,645.7,445.7z"/>
		<path class="st52" d="M644.4,444.4c0,136.4-110.6,247.1-247.1,247.1s-247.1-110.6-247.1-247c0-103.1,63.2-191.5,152.9-228.5
			c60.3-24.7,127.9-24.7,188.2,0C581.2,253,644.4,341.3,644.4,444.4z"/>
		<path class="st53" d="M643.1,443.1c0,136.4-110.6,247-247.1,247s-247.1-110.6-247.1-247c0-103.1,63.2-191.5,152.9-228.5
			c60.3-24.8,127.9-24.8,188.2,0C579.9,251.7,643.1,340,643.1,443.1z"/>
		<path class="st54" d="M641.8,441.8c0,136.4-110.6,247.1-247.1,247.1s-247.1-110.6-247.1-247c0-103.1,63.2-191.5,152.9-228.5
			c60.3-24.7,127.9-24.7,188.2,0C578.6,250.4,641.8,338.7,641.8,441.8z"/>
		<path class="st55" d="M640.5,440.5c0,136.4-110.6,247-247.1,247s-247.1-110.6-247.1-247c0-103.1,63.2-191.5,152.9-228.5
			c60.3-24.8,127.9-24.8,188.2,0C577.3,249.1,640.5,337.4,640.5,440.5z"/>
		<path class="st56" d="M639.1,439.3c0,136.4-110.6,247-247.1,247s-247.1-110.6-247.1-247c0-103.1,63.2-191.5,152.9-228.5
			c60.3-24.7,127.9-24.7,188.2,0C576,247.8,639.1,336.1,639.1,439.3z"/>
		<path class="st57" d="M637.8,438c0,136.4-110.6,247-247.1,247S143.6,574.4,143.6,438c0-103.1,63.2-191.5,152.9-228.5
			c60.3-24.7,127.9-24.7,188.2,0C574.7,246.5,637.8,334.9,637.8,438z"/>
		<path class="st58" d="M636.5,436.7c0,136.4-110.6,247-247.1,247s-247.1-110.6-247.1-247c0-103.1,63.2-191.5,152.9-228.5
			c60.3-24.8,127.9-24.8,188.2,0C573.4,245.2,636.5,333.5,636.5,436.7z"/>
		<path class="st59" d="M635.2,435.4c0,136.4-110.6,247-247.1,247S141,571.8,141,435.4c0-103.1,63.2-191.5,152.9-228.5
			c60.3-24.7,127.9-24.7,188.2,0C572.1,243.9,635.2,332.3,635.2,435.4z"/>
		<path class="st60" d="M633.9,434.1c0,136.4-110.6,247.1-247.1,247.1s-247-110.6-247-247c0-103.1,63.2-191.5,152.9-228.5
			c60.3-24.8,127.9-24.8,188.2,0C570.7,242.6,633.9,331,633.9,434.1z"/>
		<path class="st61" d="M632.6,432.8c0,136.4-110.6,247-247.1,247s-247-110.6-247-247c0-103.1,63.2-191.5,152.9-228.5
			c60.3-24.8,127.9-24.8,188.2,0C569.4,241.3,632.6,329.7,632.6,432.8z"/>
		<path class="st62" d="M631.3,431.5c0,136.4-110.6,247-247.1,247s-247.1-110.6-247.1-247C137.1,328.4,200.3,240,290,203
			c60.3-24.7,127.9-24.7,188.2,0C568.1,240.1,631.3,328.4,631.3,431.5z"/>
		<path class="st63" d="M629.9,430.2c0,136.4-110.6,247.1-247.1,247.1s-247.1-110.6-247.1-247c0-103.1,63.2-191.5,152.9-228.5
			c60.3-24.7,127.9-24.7,188.2,0C566.8,238.8,629.9,327.1,629.9,430.2z"/>
		<path class="st64" d="M628.6,428.9c0,136.4-110.6,247-247.1,247s-247-110.5-247-247c0-103.1,63.2-191.5,152.9-228.5
			c60.3-24.7,127.9-24.7,188.2,0C565.5,237.5,628.6,325.8,628.6,428.9z"/>
		<path class="st65" d="M627.3,427.6c0,136.4-110.6,247-247.1,247s-247-110.6-247-247c0-103.1,63.2-191.5,152.9-228.5
			c60.3-24.8,127.9-24.8,188.2,0C564.2,236.2,627.3,324.5,627.3,427.6z"/>
		<path class="st66" d="M626,426.4c0,136.4-110.6,247.1-247.1,247.1s-247.1-110.6-247.1-247C131.8,323.4,195,235,284.7,198
			c60.3-24.7,127.9-24.7,188.2,0C562.9,234.9,626,323.2,626,426.4z"/>
		<path class="st67" d="M624.7,425.1c0,136.4-110.6,247-247.1,247s-247.1-110.6-247.1-247c0-103.1,63.2-191.5,152.9-228.5
			c60.3-24.7,127.9-24.7,188.2,0C561.5,233.6,624.7,321.9,624.7,425.1z"/>
		<path class="st68" d="M623.4,423.8c0,136.4-110.6,247.1-247.1,247.1s-247.1-110.6-247.1-247c0-103.1,63.2-191.5,152.9-228.5
			c60.3-24.8,127.9-24.8,188.2,0C560.2,232.3,623.4,320.6,623.4,423.8z"/>
		<path class="st69" d="M622.1,422.5c0,136.4-110.6,247-247.1,247s-247.1-110.6-247.1-247c0-103.1,63.2-191.5,152.9-228.5
			c60.3-24.7,127.9-24.7,188.2,0C558.9,231,622.1,319.3,622.1,422.5z"/>
		<path class="st70" d="M620.8,421.2c0,136.4-110.6,247-247.1,247s-247-110.6-247-247c0-103.1,63.2-191.5,152.9-228.5
			c60.3-24.8,127.9-24.8,188.2,0C557.6,229.7,620.8,318.1,620.8,421.2z"/>
		<path class="st71" d="M619.4,419.9c0,136.4-110.6,247.1-247.1,247.1S125.2,556.4,125.2,420c0-103.1,63.2-191.5,152.9-228.5
			c60.3-24.8,127.9-24.8,188.2,0C556.3,228.5,619.4,316.8,619.4,419.9z"/>
		<path class="st72" d="M618.1,418.6c0,136.4-110.6,247-247.1,247S123.9,555,123.9,418.6c0-103.1,63.2-191.5,152.9-228.5
			c60.3-24.7,127.9-24.7,188.2,0C555,227.1,618.1,315.5,618.1,418.6z"/>
		<path class="st73" d="M616.8,417.3c0,136.4-110.6,247-247.1,247s-247.1-110.6-247.1-247c0-103.1,63.2-191.5,152.9-228.5
			c60.3-24.7,127.9-24.7,188.2,0C553.7,225.9,616.8,314.2,616.8,417.3z"/>
		<path class="st74" d="M615.5,416c0,136.4-110.6,247.1-247.1,247.1s-247.1-110.6-247.1-247c0-103.1,63.2-191.5,152.9-228.5
			c60.3-24.7,127.9-24.7,188.2,0C552.4,224.6,615.5,312.9,615.5,416z"/>
		<path class="st75" d="M614.2,414.7c0,136.4-110.6,247-247.1,247s-247-110.6-247-247c0-103.1,63.2-191.5,152.9-228.5
			c60.3-24.8,127.9-24.8,188.2,0C551,223.3,614.2,311.6,614.2,414.7z"/>
		<path class="st76" d="M612.9,413.5c0,136.4-110.6,247-247.1,247s-247.1-110.6-247.1-247c0-103.1,63.2-191.5,152.9-228.5
			c60.3-24.7,127.9-24.7,188.2,0C549.7,222,612.9,310.3,612.9,413.5z"/>
		<path class="st77" d="M611.6,412.1c0,136.4-110.6,247.1-247.1,247.1s-247-110.6-247-247c0-103.1,63.2-191.5,152.9-228.5
			c60.3-24.7,127.9-24.7,188.2,0C548.4,220.7,611.6,309,611.6,412.1z"/>
		<path class="st78" d="M610.3,410.9c0,136.4-110.6,247-247.1,247s-247.1-110.6-247.1-247c0-103.1,63.2-191.5,152.9-228.5
			c60.3-24.8,127.9-24.8,188.2,0C547.1,219.4,610.3,307.7,610.3,410.9z"/>
		<path class="st79" d="M608.9,409.6c0,136.4-110.6,247-247.1,247S114.7,546,114.7,409.6c0-103.1,63.2-191.5,152.9-228.5
			c60.3-24.7,127.9-24.7,188.2,0C545.8,218.1,608.9,306.5,608.9,409.6z"/>
		<path class="st80" d="M607.6,408.3c0,136.4-110.6,247.1-247.1,247.1s-247.1-110.6-247.1-247c0-103.1,63.2-191.5,152.9-228.5
			c60.3-24.8,127.9-24.8,188.2,0C544.5,216.8,607.6,305.2,607.6,408.3z"/>
		<path class="st81" d="M606.3,407c0,136.4-110.6,247.1-247.1,247.1s-247-110.7-247-247.1c0-103.1,63.2-191.5,152.9-228.5
			c60.3-24.7,127.9-24.7,188.2,0C543.2,215.5,606.3,303.9,606.3,407z"/>
		<path class="st82" d="M605,405.7c0,136.4-110.6,247-247.1,247s-247.1-110.6-247.1-247c0-103.1,63.2-191.5,152.9-228.5
			c60.3-24.8,127.9-24.8,188.2,0C541.9,214.2,605,302.6,605,405.7z"/>
		<path class="st83" d="M603.7,404.5c0,136.4-110.6,247-247.1,247s-247.1-110.7-247.1-247c0-103.1,63.2-191.5,152.9-228.5
			c60.3-24.7,127.9-24.7,188.2,0C540.5,212.9,603.7,301.3,603.7,404.5z"/>
		<path class="st84" d="M602.4,403.1c0,136.4-110.6,247-247.1,247s-247.1-110.6-247.1-247c0-103.1,63.2-191.5,152.9-228.5
			c60.3-24.7,127.9-24.7,188.2,0C539.2,211.7,602.4,300,602.4,403.1z"/>
		<path class="st85" d="M601.1,401.8c0,136.4-110.6,247.1-247.1,247.1s-247.1-110.6-247.1-247c0-103.1,63.2-191.5,152.9-228.5
			c60.3-24.8,127.9-24.8,188.2,0C537.9,210.4,601.1,298.7,601.1,401.8z"/>
		<path class="st86" d="M599.8,400.5c0,136.4-110.6,247.1-247.1,247.1S105.6,537,105.6,400.6c0-103.1,63.2-191.5,152.9-228.5
			c60.3-24.7,127.9-24.7,188.2,0C536.6,209.1,599.8,297.4,599.8,400.5z"/>
		<path class="st87" d="M598.4,399.2c0,136.4-110.6,247-247.1,247s-247.1-110.6-247.1-247c0-103.1,63.2-191.5,152.9-228.5
			c60.3-24.7,127.9-24.7,188.2,0C535.3,207.8,598.4,296.1,598.4,399.2z"/>
		<path class="st88" d="M597.1,398c0,136.4-110.6,247.1-247.1,247.1s-247.1-110.6-247.1-247c0-103.1,63.2-191.5,152.9-228.5
			c60.3-24.8,127.9-24.8,188.2,0C534,206.5,597.1,294.8,597.1,398z"/>
		<path class="st89" d="M595.8,396.7c0,136.4-110.6,247.1-247.1,247.1s-247.1-110.6-247.1-247c0-103.1,63.2-191.5,152.9-228.5
			c60.3-24.7,127.9-24.7,188.2,0C532.7,205.2,595.8,293.5,595.8,396.7z"/>
		<path class="st90" d="M594.5,395.4c0,136.4-110.6,247-247.1,247s-247.1-110.6-247.1-247c0-103.1,63.2-191.5,152.9-228.5
			c60.3-24.8,127.9-24.8,188.2,0C531.4,203.9,594.5,292.2,594.5,395.4z"/>
		<path class="st91" d="M593.2,394.1c0,136.4-110.6,247.1-247.1,247.1S99,530.6,99,394.2c0-103.1,63.2-191.5,152.9-228.5
			c60.3-24.7,127.9-24.7,188.2,0C530,202.6,593.2,291,593.2,394.1z"/>
		<path class="st92" d="M591.9,392.8c0,136.4-110.6,247.1-247.1,247.1S97.7,529.3,97.7,392.9c0-103.1,63.2-191.5,152.9-228.5
			c60.3-24.8,127.9-24.8,188.2,0C528.7,201.3,591.9,289.7,591.9,392.8z"/>
		<path class="st93" d="M590.6,391.5c0,136.4-110.6,247-247.1,247s-247-110.6-247-247c0-103.1,63.2-191.5,152.9-228.5
			c60.3-24.7,127.9-24.7,188.2,0C527.4,200,590.6,288.4,590.6,391.5z"/>
		<path class="st94" d="M589.3,390.2c0,136.4-110.6,247.1-247.1,247.1S95.1,526.7,95.1,390.3c0-103.1,63.2-191.5,152.9-228.5
			c60.3-24.7,127.9-24.7,188.2,0C526.1,198.8,589.3,287.1,589.3,390.2z"/>
		<path class="st95" d="M587.9,388.9c0,136.4-110.6,247.1-247.1,247.1S93.7,525.4,93.7,389c0-103.1,63.2-191.5,152.9-228.5
			c60.3-24.8,127.9-24.8,188.2,0C524.8,197.5,587.9,285.8,587.9,388.9z"/>
		<path class="st96" d="M586.6,387.6c0,136.4-110.6,247-247.1,247s-247-110.5-247-247c0-103.1,63.2-191.5,152.9-228.5
			c60.3-24.7,127.9-24.7,188.2,0C523.5,196.2,586.6,284.5,586.6,387.6z"/>
		<path class="st97" d="M585.3,386.3c0,136.4-110.6,247.1-247.1,247.1S91.1,522.8,91.1,386.4c0-103.1,63.2-191.5,152.9-228.5
			c60.3-24.7,127.9-24.7,188.2,0C522.2,194.9,585.3,283.2,585.3,386.3z"/>
		<path class="st98" d="M584,385c0,136.4-110.6,247-247.1,247S89.8,521.4,89.8,385c0-103.1,63.2-191.5,152.9-228.5
			c60.3-24.8,127.9-24.8,188.2,0C520.9,193.6,584,281.9,584,385z"/>
		<path class="st99" d="M582.7,383.8c0,136.4-110.6,247-247.1,247S88.5,520.2,88.5,383.8c0-103.1,63.2-191.5,152.9-228.5
			c60.3-24.7,127.9-24.7,188.2,0C519.6,192.3,582.7,280.6,582.7,383.8z"/>
		<path class="st100" d="M581.4,382.5c0,136.4-110.6,247.1-247.1,247.1S87.2,519,87.2,382.6c0-103.1,63.2-191.5,152.9-228.5
			c60.3-24.8,127.9-24.8,188.2,0C518.2,191,581.4,279.3,581.4,382.5z"/>
		<path class="st101" d="M580.1,381.2c0,136.4-110.6,247-247.1,247S85.9,517.6,85.9,381.2c0-103.1,63.2-191.5,152.9-228.5
			c60.3-24.7,127.9-24.7,188.2,0C516.9,189.7,580.1,278,580.1,381.2z"/>
		<path class="st102" d="M578.7,379.9c0,136.4-110.6,247-247.1,247S84.5,516.3,84.5,379.9c0-103.1,63.2-191.5,152.9-228.5
			c60.3-24.8,127.9-24.8,188.2,0C515.6,188.4,578.7,276.8,578.7,379.9z"/>
	</g>
	<path class="st103" d="M578.7,379.9c0,136.4-110.6,247-247.1,247S84.5,516.3,84.5,379.9c0-103.1,63.2-191.5,152.9-228.5
		c60.3-24.8,127.9-24.8,188.2,0C515.6,188.4,578.7,276.8,578.7,379.9z"/>
	<path class="st104" d="M331.9,661.5h-0.2c-3.8,0-7.7-0.1-11.5-0.2l0.1-2.3c3.8,0.2,7.6,0.2,11.4,0.2L331.9,661.5z M343.5,661.2
		l-0.1-2.3c3.8-0.2,7.7-0.4,11.5-0.7l0.2,2.3C351.3,660.8,347.4,661,343.5,661.2L343.5,661.2z M308.6,660.5
		c-3.9-0.3-7.8-0.7-11.6-1.2l0.3-2.3c3.8,0.5,7.6,0.8,11.5,1.2L308.6,660.5z M366.7,659.3l-0.3-2.3c3.8-0.5,7.6-1,11.4-1.6l0.4,2.3
		C374.4,658.2,370.5,658.8,366.7,659.3L366.7,659.3z M285.5,657.7c-3.8-0.6-7.7-1.3-11.5-2.1l0.5-2.3c3.7,0.8,7.6,1.5,11.3,2.1
		L285.5,657.7z M389.6,655.5l-0.5-2.3c3.8-0.8,7.5-1.6,11.2-2.6l0.6,2.2C397.2,653.8,393.4,654.7,389.6,655.5L389.6,655.5z
		 M262.7,652.9c-3.7-0.9-7.5-2-11.2-3.1l0.7-2.2c3.7,1.1,7.4,2.1,11.1,3L262.7,652.9z M412.1,649.8l-0.7-2.2c3.7-1.1,7.4-2.3,11-3.5
		l0.7,2.2C419.6,647.5,415.8,648.7,412.1,649.8L412.1,649.8z M240.5,646.3c-3.7-1.2-7.4-2.6-10.9-4l0.8-2.2c3.6,1.4,7.2,2.7,10.9,4
		L240.5,646.3z M434.1,642.2l-0.8-2.2c3.6-1.4,7.1-2.9,10.6-4.4l0.9,2.1C441.3,639.3,437.7,640.8,434.1,642.2L434.1,642.2z
		 M218.7,637.8c-3.6-1.6-7.1-3.2-10.6-4.9l1-2.1c3.4,1.6,7,3.3,10.5,4.9L218.7,637.8z M455.4,632.9l-1-2.1c3.4-1.7,6.9-3.5,10.2-5.3
		l1.1,2C462.4,629.4,458.9,631.2,455.4,632.9L455.4,632.9z M197.8,627.6c-3.4-1.8-6.8-3.8-10.1-5.7l1.2-2c3.3,2,6.7,3.9,10,5.7
		L197.8,627.6z M475.9,621.8l-1.2-2c3.3-2,6.6-4,9.8-6.1l1.3,1.9C482.5,617.7,479.2,619.8,475.9,621.8L475.9,621.8z M177.8,615.7
		c-3.3-2.1-6.5-4.3-9.6-6.5l1.4-1.9c3.1,2.2,6.3,4.4,9.5,6.5L177.8,615.7z M495.4,609l-1.4-1.9c3.1-2.2,6.2-4.5,9.2-6.9l1.4,1.8
		C501.6,604.4,498.4,606.8,495.4,609L495.4,609z M158.9,602.1c-3-2.4-6.1-4.8-9-7.4l1.5-1.8c2.9,2.5,5.9,4.9,8.9,7.3L158.9,602.1z
		 M513.7,594.8l-1.5-1.8c2.9-2.5,5.8-5.1,8.6-7.6l1.6,1.7C519.6,589.6,516.6,592.2,513.7,594.8L513.7,594.8z M141.1,587.1
		c-2.9-2.6-5.7-5.3-8.4-8l1.6-1.6c2.7,2.7,5.5,5.4,8.3,8L141.1,587.1z M530.8,579l-1.6-1.6c2.7-2.7,5.4-5.5,8-8.3l1.7,1.6
		C536.2,573.4,533.5,576.2,530.8,579L530.8,579z M124.7,570.7c-2.6-2.8-5.2-5.7-7.7-8.7l1.8-1.5c2.5,2.9,5,5.8,7.6,8.6L124.7,570.7z
		 M546.6,561.8l-1.8-1.5c2.5-2.9,4.9-5.9,7.3-9l1.8,1.4C551.5,555.9,549,558.9,546.6,561.8z M109.6,552.9c-2.4-3-4.7-6.2-7-9.3
		l1.9-1.3c2.2,3.1,4.6,6.2,6.9,9.2L109.6,552.9z M560.9,543.5l-1.9-1.3c2.2-3.1,4.4-6.3,6.6-9.5l1.9,1.3
		C565.3,537.1,563.1,540.3,560.9,543.5L560.9,543.5L560.9,543.5z M96.1,534c-2.1-3.3-4.2-6.5-6.2-9.8l2-1.2c1.9,3.3,4,6.5,6.1,9.8
		L96.1,534z M573.6,524l-2-1.2c1.9-3.3,3.9-6.6,5.7-10l2,1.1C577.5,517.3,575.6,520.7,573.6,524z M84.1,514.1
		c-1.9-3.4-3.6-6.9-5.3-10.3l2.1-1c1.6,3.4,3.4,6.9,5.3,10.2L84.1,514.1z M584.7,503.6l-2.1-1c1.7-3.5,3.3-7,4.9-10.5l2.1,0.9
		C588.1,496.5,586.4,500,584.7,503.6z M73.9,493.2c-1.6-3.5-3-7.1-4.4-10.7l2.1-0.8c1.4,3.6,2.9,7.1,4.4,10.6L73.9,493.2z
		 M594.1,482.2l-2.2-0.8c1.4-3.5,2.7-7.2,4-10.8l2.2,0.8C596.8,475,595.4,478.7,594.1,482.2z M65.4,471.6c-1.3-3.7-2.5-7.4-3.6-11.1
		l2.2-0.7c1.1,3.6,2.3,7.4,3.5,11L65.4,471.6z M601.6,460.2l-2.2-0.7c1.1-3.7,2.1-7.4,3.1-11.1l2.2,0.6
		C603.7,452.7,602.7,456.5,601.6,460.2L601.6,460.2z M58.8,449.3c-1-3.8-1.8-7.6-2.6-11.3l2.3-0.5c0.8,3.7,1.6,7.5,2.6,11.2
		L58.8,449.3z M607.3,437.7l-2.3-0.5c0.8-3.7,1.5-7.5,2.1-11.3l2.3,0.4C608.8,430.1,608.1,433.9,607.3,437.7L607.3,437.7
		L607.3,437.7z M54,426.5c-0.6-3.8-1.2-7.7-1.7-11.5l2.3-0.3c0.5,3.8,1,7.6,1.6,11.4L54,426.5z M611.1,414.7l-2.3-0.3
		c0.5-3.8,0.8-7.6,1.2-11.5l2.3,0.2C612,407,611.6,410.9,611.1,414.7L611.1,414.7z M51.1,403.5c-0.3-3.8-0.6-7.7-0.7-11.6l2.3-0.1
		c0.2,3.9,0.4,7.7,0.7,11.5L51.1,403.5z M613,391.5l-2.3-0.1c0.2-3.8,0.2-7.7,0.2-11.5h2.3C613.2,383.8,613.1,387.7,613,391.5
		L613,391.5z M52.5,380.2h-2.3v-0.3c0-3.8,0.1-7.6,0.2-11.3l2.3,0.1c-0.1,3.7-0.2,7.5-0.2,11.2V380.2z M610.7,367.8
		c-0.2-3.8-0.4-7.7-0.7-11.5l2.3-0.2c0.3,3.9,0.6,7.8,0.7,11.6L610.7,367.8z M53.4,357.1l-2.3-0.2c0.3-3.9,0.7-7.8,1.2-11.6l2.3,0.3
		C54.1,349.5,53.7,353.3,53.4,357.1L53.4,357.1z M608.8,344.8c-0.5-3.8-1-7.6-1.6-11.5l2.3-0.4c0.6,3.8,1.2,7.7,1.7,11.5
		L608.8,344.8z M56.2,334.2l-2.3-0.4c0.6-3.8,1.3-7.7,2.1-11.5l2.3,0.5C57.5,326.7,56.8,330.5,56.2,334.2L56.2,334.2z M604.9,322
		c-0.8-3.7-1.6-7.5-2.6-11.2l2.2-0.6c0.9,3.8,1.8,7.5,2.6,11.3L604.9,322z M60.9,311.6l-2.2-0.6c0.9-3.8,2-7.6,3.1-11.2l2.2,0.7
		C62.9,304.2,61.8,307.9,60.9,311.6L60.9,311.6z M599.2,299.7c-1.1-3.7-2.3-7.4-3.5-11l2.2-0.8c1.2,3.6,2.5,7.4,3.6,11L599.2,299.7z
		 M67.4,289.5l-2.2-0.7c1.2-3.7,2.6-7.4,4-11l2.2,0.8C70,282.2,68.7,285.9,67.4,289.5L67.4,289.5z M591.7,277.9
		c-1.4-3.5-2.9-7.1-4.4-10.6l2.1-0.9c1.6,3.5,3.1,7.1,4.5,10.7L591.7,277.9z M75.8,268l-2.1-0.9c1.5-3.5,3.2-7.1,4.9-10.6l2.1,1
		C79,261,77.3,264.5,75.8,268L75.8,268z M582.4,256.8c-1.6-3.4-3.4-6.8-5.3-10.2l2-1.1c1.9,3.4,3.7,6.9,5.3,10.3L582.4,256.8z
		 M85.9,247.2l-2-1.1c1.8-3.4,3.8-6.8,5.7-10.1l2,1.2C89.7,240.5,87.8,243.9,85.9,247.2z M571.4,236.6c-2-3.3-4-6.6-6.1-9.8l1.9-1.3
		c2.1,3.2,4.2,6.6,6.2,9.8L571.4,236.6z M97.8,227.4l-1.9-1.3c2.1-3.2,4.3-6.5,6.6-9.6l1.9,1.3C102.1,221,99.9,224.2,97.8,227.4
		L97.8,227.4z M558.7,217.3c-2.2-3.1-4.5-6.2-6.9-9.2l1.8-1.4c2.4,3.1,4.7,6.2,7,9.3L558.7,217.3z M111.1,208.6l-1.8-1.4
		c2.4-3,4.8-6.1,7.4-9l1.8,1.5C116,202.6,113.5,205.6,111.1,208.6z M544.5,199.1c-2.5-2.9-5-5.8-7.6-8.6l1.7-1.6
		c2.6,2.9,5.2,5.8,7.7,8.7L544.5,199.1z M126.1,191l-1.7-1.6c2.6-2.8,5.3-5.7,8.1-8.4l1.6,1.6C131.4,185.4,128.7,188.2,126.1,191
		L126.1,191z M528.9,182.2c-2.7-2.7-5.5-5.4-8.3-8l1.6-1.7c2.9,2.6,5.7,5.3,8.4,8.1L528.9,182.2z M142.4,174.6l-1.6-1.7
		c2.8-2.6,5.7-5.2,8.7-7.7l1.5,1.8C148.1,169.5,145.2,172.1,142.4,174.6L142.4,174.6z M511.9,166.6c-2.9-2.5-5.9-4.9-9-7.3l1.4-1.8
		c3.1,2.4,6.1,4.8,9,7.4L511.9,166.6z M159.9,159.7l-1.4-1.8c3-2.4,6.2-4.7,9.3-7l1.4,1.9C166.1,155,163,157.3,159.9,159.7
		L159.9,159.7z M493.6,152.4c-3.1-2.2-6.3-4.4-9.5-6.6l1.3-1.9c3.3,2.1,6.5,4.3,9.6,6.6L493.6,152.4z M178.7,146.3l-1.2-1.9
		c3.2-2.1,6.6-4.2,9.8-6.2l1.2,2C185.2,142.1,181.9,144.2,178.7,146.3L178.7,146.3z M474.3,139.8c-3.3-2-6.7-3.9-10.1-5.7l1.1-2
		c3.4,1.8,6.8,3.8,10.1,5.7L474.3,139.8z M198.5,134.4l-1.1-2c3.4-1.8,6.9-3.6,10.3-5.3l1,2.1C205.3,130.8,201.9,132.6,198.5,134.4
		L198.5,134.4z M454,128.8c-3.4-1.7-7-3.3-10.5-4.8l0.9-2.1c3.5,1.6,7.1,3.2,10.6,4.9L454,128.8z M219.2,124.3l-0.9-2.1
		c2.1-0.9,4.1-1.8,6.2-2.6c1.5-0.6,3.1-1.2,4.6-1.8l0.8,2.2c-1.5,0.6-3,1.2-4.5,1.8C223.3,122.5,221.2,123.4,219.2,124.3z
		 M432.9,119.6c-3.6-1.4-7.2-2.7-10.8-4l0.7-2.2c3.6,1.2,7.4,2.6,10.9,4L432.9,119.6z M240.7,115.8l-0.8-2.2
		c3.6-1.3,7.4-2.5,11.1-3.6l0.6,2.2C248,113.4,244.3,114.6,240.7,115.8L240.7,115.8z M411,112.1c-3.7-1.1-7.4-2.1-11.1-3l0.6-2.2
		c3.7,0.9,7.5,2,11.2,3.1L411,112.1z M262.8,109.2l-0.6-2.2c3.8-0.9,7.6-1.8,11.3-2.6l0.5,2.3C270.3,107.4,266.5,108.3,262.8,109.2
		L262.8,109.2z M388.6,106.5c-3.8-0.8-7.6-1.5-11.4-2.1l0.4-2.3c3.8,0.6,7.7,1.3,11.5,2.1L388.6,106.5z M285.3,104.5l-0.4-2.3
		c3.8-0.6,7.7-1.2,11.5-1.7l0.3,2.3C293,103.3,289.1,103.9,285.3,104.5L285.3,104.5z M365.9,102.7c-3.8-0.5-7.7-0.9-11.5-1.2
		l0.2-2.3c3.8,0.3,7.7,0.7,11.6,1.2L365.9,102.7z M308.3,101.6l-0.2-2.3c3.9-0.3,7.8-0.6,11.6-0.7l0.1,2.3
		C315.9,101.1,312.1,101.3,308.3,101.6z M342.9,100.9c-3.7-0.2-7.4-0.2-11.1-0.2h-0.4v-2.3h0.4c3.7,0,7.5,0.1,11.2,0.2L342.9,100.9z
		"/>
	<path class="st105" d="M695.4,359.1l-50.6-34.7v16.9h-17.5c-18-148.1-142.8-260-291.9-261.8c-1.2,0.1-2.5,0.1-3.7,0.1v17.2h0.1
		v17.4c145.2,0,263,117.7,263,263l0,0h50.1v16.6L695.4,359.1z"/>
</g>
</svg>
