<?xml version="1.0" encoding="utf-8"?>
<!-- Generator: Adobe Illustrator 28.1.0, SVG Export Plug-In . SVG Version: 6.00 Build 0)  -->
<svg version="1.1" xmlns="http://www.w3.org/2000/svg" xmlns:xlink="http://www.w3.org/1999/xlink" x="0px" y="0px"
	 viewBox="0 0 1000 1140" style="enable-background:new 0 0 1000 1140;" xml:space="preserve">
<style type="text/css">
	.st0{fill:#FFB10A;}
	.st1{fill:#EF5A28;}
	.st2{fill:#FFFFFF;}
</style>
<g id="background">
</g>
<g id="text">
</g>
<g id="icons">
	<g>
		<g>
			<path class="st0" d="M441.7,354.7l-17.9,11.1l-6,11.5L420,393l6.8,11.1l-1.3,22.5c0,0,32.7,20.4,68.4,0.9v-30.6l3-3.8l-7.2-8.9
				l2.6-11.1l5.5-6.4l-6-7.7l-11.9-5.1c0,0,0.9,14-5.1,15.3c-6,1.3-13.2-6.8-13.2-6.8s-8.5,6.8-12.8,6.8S441.7,354.7,441.7,354.7z"
				/>
		</g>
		<g>
			<rect x="501.5" y="307.8" class="st1" width="115.7" height="11.6"/>
		</g>
		<g>
			<path class="st1" d="M565.6,441c0,3.3-2.7,5.9-5.9,5.9c-3.3,0-5.9-2.7-5.9-5.9c0-3.3,2.7-5.9,5.9-5.9
				C562.9,435,565.6,437.7,565.6,441z"/>
		</g>
		<g>
			<path class="st2" d="M617.2,321.9H501.5c-1.4,0-2.6-1.1-2.6-2.6v-11.6c0-1.4,1.1-2.6,2.6-2.6h115.7c1.4,0,2.6,1.1,2.6,2.6v11.6
				C619.7,320.8,618.6,321.9,617.2,321.9z M504,316.8h110.6v-6.5H504V316.8z"/>
		</g>
		<g>
			<path class="st2" d="M617.2,422.1H503.4c-3.4,0-3.4-5.1,0-5.1h111.2v-2.8H503.8c-3.4,0-3.4-5.1,0-5.1h113.4
				c1.4,0,2.6,1.1,2.6,2.6v7.9C619.7,421,618.6,422.1,617.2,422.1z"/>
		</g>
		<g>
			<path class="st2" d="M506.5,356v-35.3c0-3.4,5.1-3.4,5.1,0V356C511.6,359.4,506.5,359.4,506.5,356z"/>
		</g>
		<g>
			<path class="st2" d="M506.5,410.6v-19.8c0-3.4,5.1-3.4,5.1,0v19.8C511.6,414,506.5,414,506.5,410.6z"/>
		</g>
		<g>
			<path class="st2" d="M608.4,408.2v-87.5c0-3.4,5.1-3.4,5.1,0v87.5C613.5,411.6,608.4,411.6,608.4,408.2z"/>
		</g>
		<g>
			<path class="st2" d="M584.2,308.9L560,282.5l-26.3,26.5c-2.4,2.4-6-1.2-3.6-3.6l28.2-28.4c1.1-1.1,2.7-1,3.7,0.1l25.9,28.4
				c1,1,0.9,2.7-0.2,3.6C586.7,310,585.1,309.9,584.2,308.9z"/>
		</g>
		<g>
			<path class="st2" d="M559.6,449.5c-4.7,0-8.5-3.8-8.5-8.5c0-4.7,3.8-8.5,8.5-8.5c4.7,0,8.5,3.8,8.5,8.5
				C568.1,445.6,564.3,449.5,559.6,449.5z M556.2,441c0,4.5,6.8,4.5,6.8,0C563,436.5,556.2,436.5,556.2,441z"/>
		</g>
		<g>
			<path class="st2" d="M557.1,435v-13.8c0-3.4,5.1-3.4,5.1,0V435C562.2,438.4,557.1,438.4,557.1,435z"/>
		</g>
		<g>
			<path class="st2" d="M540.3,382.7h-2.1c-3.4,0-3.4-5.1,0-5.1h2.1C543.7,377.6,543.7,382.7,540.3,382.7z"/>
		</g>
		<g>
			<path class="st2" d="M584.5,382.7H550c-3.4,0-3.4-5.1,0-5.1h34.5C587.9,377.6,587.9,382.7,584.5,382.7z"/>
		</g>
		<g>
			<path class="st2" d="M540.3,393.7h-2.1c-3.4,0-3.4-5.1,0-5.1h2.1C543.7,388.6,543.7,393.7,540.3,393.7z"/>
		</g>
		<g>
			<path class="st2" d="M584.5,393.7H550c-3.4,0-3.4-5.1,0-5.1h34.5C587.9,388.6,587.9,393.7,584.5,393.7z"/>
		</g>
		<g>
			<path class="st1" d="M562.4,348.5c0-8.6-7.1-15.7-15.7-15.7v15.7H562.4z"/>
		</g>
		<g>
			<path class="st0" d="M544.8,333.4c-9.4,0-17,7.6-17,17s7.6,17,17,17c9.4,0,17-7.6,17-17h-17V333.4z"/>
		</g>
		<g>
			
				<rect x="587.4" y="346" transform="matrix(-1 -1.224647e-16 1.224647e-16 -1 1187.5106 712.468)" class="st0" width="12.8" height="20.4"/>
		</g>
		<g>
			
				<rect x="572.1" y="335.8" transform="matrix(-1 -1.224647e-16 1.224647e-16 -1 1156.9036 702.2656)" class="st0" width="12.8" height="30.6"/>
		</g>
		<g>
			<path class="st2" d="M452.8,320.4h-5.8c-3.4,0-3.4-5.1,0-5.1h5.8C456.2,315.3,456.2,320.4,452.8,320.4z"/>
		</g>
		<g>
			<path class="st2" d="M473.6,320.4h-5.8c-3.4,0-3.4-5.1,0-5.1h5.8C476.9,315.3,476.9,320.4,473.6,320.4z"/>
		</g>
		<g>
			<path class="st2" d="M452.7,338.3c-2.7-2,0.4-6.1,3.1-4.1c3.3,2.5,6.6,2.5,9.9,0c2.7-2,5.8,2,3.1,4.1
				C463.8,342.1,458,342.3,452.7,338.3z"/>
		</g>
		<g>
			<path class="st2" d="M486.9,359.3c-4.7-2.5,4.7-7.8,6.1-28.4c0.2-3.2,1.7-31.6-16.1-44.6c-6.9-5.1-14.4-5.4-14.5-5.4
				c-30.4-2.4-45,42.1-27.7,75c1.6,3-2.9,5.4-4.5,2.4c-19-36.2-2-81.2,27.6-82.5c34.3-2.8,51.6,45.8,32.4,82.5
				C489.7,359.4,488.1,359.9,486.9,359.3z"/>
		</g>
		<g>
			<path class="st2" d="M435.8,313.1c0.7-3.3,5.7-2.2,5,1.1c-3.8,17.8,9.6,31.3,19.5,31.8c10.4-0.5,24.2-15.1,19.1-33.4
				c-0.9-3.3,4-4.6,4.9-1.4c5.9,21.5-10.2,39.3-23.9,39.9C449.6,351.5,430.9,336,435.8,313.1z"/>
		</g>
		<g>
			<path class="st2" d="M437.5,387.7c-2.8-1.9,0-6.1,2.8-4.2c20.7,13.8,47.6-2.4,47.9-2.5c2.9-1.8,5.5,2.6,2.7,4.4
				C476.1,394.3,453.9,398.7,437.5,387.7z"/>
		</g>
		<g>
			<path class="st2" d="M496,389.3l10.4-7c0.8-1,1.4-2.1,1.7-3.3c0.9-3.8,1.5-5.1,0.5-8.5c-2.9,4-6.9,7.1-7.5,7.5
				c-0.8,0.6-1.9,0.7-2.8,0.2c-1.9-1-1.3-2.6-0.8-7.4c-2.6,2.8-2.5,3.7-5.1,12.2c0.7,2.4-2.4,4.9-4.7,1.9c-1.1-1.4-0.6-1.9,2.1-11
				c1.4-5.7,9.5-12.9,12.6-9.8c1.2,1.2,0.7,2.8,0.4,5.2c1.6-1.7,3-3.7,3.6-5.5c0.7-2.1,3.6-2.4,4.7-0.4c2.2,4.1,3.9,8.5,2.8,13.1
				c-2.2,9.4-1.7,8-15,16.9C496,395.4,493.2,391.2,496,389.3z"/>
		</g>
		<g>
			<g>
				<path class="st2" d="M427.8,405.6c-14.1-8.8-17.1-29.3-5.6-41.7c5.6-6,12.4-9.9,20.2-11.9c1.8-0.5,3.5,1.1,3.1,2.9
					c0,0-1,6.1,2.9,10.3c1.9,2,8.4-4.4,11.8-4.4c0.6-0.2,1.7-0.2,2.3,0c3.4,0,9.9,6.5,11.8,4.4c3.9-4.2,2.9-10.3,2.9-10.3
					c-0.3-1.8,1.3-3.4,3.1-2.9c6.1,1.5,11.6,4.2,16.3,8.2c2.6,2.2-0.7,6.1-3.3,3.9c-3.2-2.7-6.9-4.7-10.9-6.1
					c-0.2,3-1.1,7.3-4.3,10.8c-5.1,5.5-13-1.8-15.6-2.8c-0.4,0-0.7,0-1.1-0.1c-0.4,0.1-0.7,0.1-1.1,0.1c-2.6,0.9-10.5,8.2-15.6,2.8
					c-3.3-3.5-4.2-7.8-4.3-10.8c-24.6,8.6-25.3,33.7-9.9,43.3c17.8,11.1,48.9,9.9,63.3-9.3l-6.2-7.3c-2.2-2.6,1.7-5.9,3.9-3.3
					l6.9,8.1c0.5,0.4,0.9,0.9,1.1,1.6c0.6,2.8-6.8,9.7-7.1,10C476.8,415.7,447.2,417.7,427.8,405.6z M462.4,365.9L462.4,365.9
					L462.4,365.9z M460.5,365.9L460.5,365.9L460.5,365.9z"/>
			</g>
		</g>
		<g>
			<path class="st2" d="M438,310.7c21.3-3.9,25-13.9,25-14c0.8-2.5,4.3-2.3,4.9,0.1c0.1,0.4,2.6,9.4,14.2,12c3.3,0.7,2.2,5.7-1.1,5
				c-8.9-2-13.6-7.1-15.9-10.9c-3.4,4.2-10.8,10.1-26.2,12.9C435.6,316.3,434.7,311.3,438,310.7z"/>
		</g>
		<g>
			<path class="st2" d="M459.2,390.4v-24.7c0-3.4,5.1-3.4,5.1,0v24.7C464.3,393.7,459.2,393.7,459.2,390.4z"/>
		</g>
		<g>
			<path class="st2" d="M459.2,434.5v-22.9c0-3.4,5.1-3.4,5.1,0v22.9C464.3,437.9,459.2,437.9,459.2,434.5z"/>
		</g>
		<g>
			<path class="st2" d="M423.8,442.6c-3-1.6-0.6-6.1,2.4-4.5c16.8,9.1,42.5,9.3,60.2,2.9c3.2-1.1,4.9,3.6,1.7,4.8
				C469.3,452.7,442.1,452.5,423.8,442.6z"/>
		</g>
		<g>
			<path class="st2" d="M423.7,428.7c-1.2-1.2-0.8-0.9-0.8-27.4c0-3.4,5.1-3.4,5.1,0v24.5c14.3,11,48.1,11.1,63.8-0.1v-28
				c0-3.4,5.1-3.4,5.1,0c0,31.1,0.4,30-0.8,31.1C480.9,442.4,437.6,442.5,423.7,428.7z"/>
		</g>
		<g>
			<path class="st2" d="M494.5,439.8c0-3,4.6-3,4.6,0C499.1,442.8,494.5,442.8,494.5,439.8z"/>
		</g>
		<g>
			<path class="st2" d="M462.9,297.5v-4.1c0-3.4,5.1-3.4,5.1,0v4.1C468,300.9,462.9,300.9,462.9,297.5z"/>
		</g>
	</g>
	<g>
		<g>
			<circle class="st1" cx="462.5" cy="67" r="8.8"/>
		</g>
		<g>
			<circle class="st1" cx="502.1" cy="67" r="8.8"/>
		</g>
		<g>
			<circle class="st1" cx="422.8" cy="67" r="8.8"/>
		</g>
		<g id="gear-5-icon_57_">
			<path class="st1" d="M523.6,181.7l-2.1-5.4l-5.5,0.1c-0.8-1-1.6-1.9-2.6-2.8l0.4-5.4l-5.3-2.4l-3.8,4c-1.2-0.2-2.5-0.2-3.8-0.1
				l-3.5-4.2l-5.4,2.1l0.1,5.5c-1,0.8-1.9,1.6-2.8,2.6l-5.4-0.4l-2.4,5.3l3.9,3.8c-0.2,1.2-0.2,2.5-0.1,3.8l-4.2,3.5l2.1,5.4
				l5.5-0.1c0.8,1,1.7,1.9,2.6,2.8l-0.4,5.4l5.3,2.4l3.8-4c1.2,0.2,2.5,0.2,3.8,0.1l3.5,4.2l5.4-2.1l-0.1-5.5c1-0.8,1.9-1.6,2.8-2.6
				l5.4,0.4l2.4-5.3l-4-3.8c0.2-1.2,0.2-2.5,0.1-3.8L523.6,181.7z M505.3,194.1c-4.1,1.6-8.6-0.5-10.2-4.6
				c-1.6-4.1,0.5-8.6,4.6-10.2c4.1-1.6,8.6,0.5,10.2,4.6C511.4,188,509.4,192.5,505.3,194.1z"/>
		</g>
		<g id="gear-5-icon_56_">
			<path class="st2" d="M502.8,206.3c-0.6,0-1.1,0-1.7,0c-2.7,2.8-3.7,4.5-5.8,3.6c-7.9-3.5-7-2.2-6.5-9.1c-0.4-0.4-0.8-0.8-1.2-1.2
				c-4,0.1-5.8,0.6-6.6-1.5c-3.1-8.1-3.4-6.5,1.9-11c0-0.6,0-1.1,0-1.7c-2.8-2.7-4.5-3.7-3.6-5.8c3.5-7.9,2.2-7,9.1-6.5
				c0.4-0.4,0.8-0.8,1.2-1.2c-0.1-3.9-0.6-5.8,1.5-6.6c8.1-3.1,6.5-3.4,11,1.9c0.6,0,1.1,0,1.7,0c2.7-2.9,3.7-4.5,5.8-3.6
				c7.9,3.5,7,2.2,6.5,9.1c0.4,0.4,0.8,0.8,1.2,1.2c4.1-0.1,5.8-0.6,6.6,1.5c3.1,8,3.4,6.5-1.9,11c0,0.6,0,1.1,0,1.7
				c2.8,2.7,4.5,3.7,3.6,5.8c-3.5,7.9-2.2,7-9.1,6.5c-0.4,0.4-0.8,0.8-1.2,1.2c0.2,7,1,5.7-7,8.7C506.2,211,505.3,209.2,502.8,206.3
				z M508.2,204.8l2-0.8c-0.1-3.7-0.4-4.8,0.9-5.8c4.4-3.3,1.1-3.4,8.1-2.8l0.9-2c-2.7-2.5-3.6-3.1-3.4-4.7c0.8-5.5-1.6-3.2,3.8-7.7
				l-0.8-2.1c-7.1,0.2-3.8,0.3-8-3.3c-1.3-1.1-0.9-2.2-0.6-5.8l-2-0.9c-4.9,5.1-2.4,2.8-7.9,3.3c-1.6,0.2-2.2-0.9-4.5-3.7l-2,0.8
				c0.2,7.1,0.3,3.7-3.3,8c-1.1,1.3-2.2,0.9-5.8,0.6l-0.9,2c5.1,4.9,2.9,2.4,3.3,8c0.1,1.6-0.9,2.1-3.7,4.5l0.8,2.1
				c7.1-0.2,3.7-0.3,8,3.3c1.3,1.1,0.9,2.2,0.6,5.8l2,0.9c4.9-5.1,2.4-2.9,7.9-3.3C505.4,201,505.9,202,508.2,204.8z M493,182.5
				c2.3-5.3,8.5-7.6,13.8-5.3c8.5,3.8,8.1,16-0.5,19.3l0,0C497.6,199.8,489.2,191,493,182.5z M497.5,188.6c1.1,2.8,4.1,4.1,6.9,3.1
				c0,0,0,0,0,0c4.4-1.7,4.6-7.9,0.3-9.9C500.4,179.9,495.8,184.2,497.5,188.6z"/>
		</g>
		<g>
			<path class="st2" d="M567.5,189.5h-3.8c-3.4,0-3.4-5.1,0-5.1h3.8C570.9,184.4,570.9,189.5,567.5,189.5z M551,189.5h-3.8
				c-3.4,0-3.4-5.1,0-5.1h3.8C554.3,184.4,554.3,189.5,551,189.5z M534.4,189.5h-3.8c-3.4,0-3.4-5.1,0-5.1h3.8
				C537.8,184.4,537.8,189.5,534.4,189.5z"/>
		</g>
		<g>
			<path class="st2" d="M473,189.5h-3.8c-3.4,0-3.4-5.1,0-5.1h3.8C476.4,184.4,476.4,189.5,473,189.5z M456.5,189.5h-3.8
				c-3.4,0-3.4-5.1,0-5.1h3.8C459.8,184.4,459.8,189.5,456.5,189.5z M439.9,189.5h-3.8c-3.4,0-3.4-5.1,0-5.1h3.8
				C443.3,184.4,443.3,189.5,439.9,189.5z"/>
		</g>
		<g>
			<path class="st2" d="M588,215.8V103.3c0-2.3-1.9-4.2-4.2-4.2h-49.1c-3.4,0-3.4-5.1,0-5.1h49.1c5.1,0,9.3,4.2,9.3,9.3v112.5
				C593.1,219.2,588,219.2,588,215.8z"/>
		</g>
		<g>
			<path class="st2" d="M411.5,215.8V103.3c0-5.1,4.2-9.3,9.3-9.3H473c3.4,0,3.4,5.1,0,5.1h-52.3c-2.3,0-4.2,1.9-4.2,4.2v112.5
				C416.6,219.2,411.5,219.2,411.5,215.8z"/>
		</g>
		<g>
			<path class="st2" d="M577.8,216.4V109.3h-42.7c-3.4,0-3.4-5.1,0-5.1h44.5c1.8,0,3.2,1.5,3.2,3.2v109
				C582.9,219.8,577.8,219.8,577.8,216.4z M579.7,109.3L579.7,109.3L579.7,109.3z"/>
		</g>
		<g>
			<path class="st2" d="M421.7,216.4v-109c0-1.8,1.5-3.2,3.2-3.2h48.5c3.4,0,3.4,5.1,0,5.1h-46.6v107.1
				C426.8,219.8,421.7,219.8,421.7,216.4z"/>
		</g>
		<g>
			<path class="st2" d="M586.8,229.2H417.8c-5.8,0-11.5-4.2-11.5-12.8c0-1.4,1.1-2.6,2.6-2.6h80.8c2.5,0,2,2.6,4.4,2.6
				c17.5,0,17.6,0.5,18.6-1.3c1.1-1.8-3.8-1.3,83-1.3c1.4,0,2.6,1.1,2.6,2.6C598.2,224.9,592.6,229.2,586.8,229.2z M586.8,224.1
				c3.1,0,5.7-2.2,6.2-5.1h-76.8c-3,3.3-5,2.6-22.1,2.6c-2.2,0-4.2-1-5.7-2.6h-76.8c0.6,2.9,3.2,5.1,6.2,5.1
				C425.4,224.1,579.5,224.1,586.8,224.1z"/>
		</g>
		<g>
			<path class="st2" d="M574.5,239.4c-3.4,0-3.4-5.1,0-5.1C577.9,234.3,577.9,239.4,574.5,239.4z"/>
		</g>
		<g>
			<path class="st2" d="M565.1,239.4H435c-3.4,0-3.4-5.1,0-5.1h130.1c1.4,0,2.6,1.1,2.6,2.6C567.6,238.2,566.5,239.4,565.1,239.4z"
				/>
		</g>
		<g>
			<g>
				<path class="st0" d="M413.3,217.7V104.6c0-4.7,3.8-8.5,8.5-8.5h54l-0.4,10.6h-52l0.9,111H413.3z"/>
			</g>
			<g>
				<path class="st0" d="M591.5,217.7V104.6c0-4.7-3.8-8.5-8.5-8.5h-50.3l0.3,10.6h47.6v111H591.5z"/>
			</g>
			<g>
				<path class="st0" d="M502.5,226.6h-84.7c-4.9,0-8.9-4-8.9-8.9v-1.3h80.8c2,3.4,3.7,2.6,20.8,2.6c1.9,0,3.5-1,4.4-2.6h80.8v1.3
					c0,4.9-4,8.9-8.9,8.9h-84.7H502.5z"/>
			</g>
			<g>
				<path class="st0" d="M441.9,136H438c-3.4,0-3.4-5.1,0-5.1h3.9C445.3,130.9,445.3,136,441.9,136z"/>
			</g>
			<g>
				<path class="st0" d="M459.5,136h-7.3c-3.4,0-3.4-5.1,0-5.1h7.3C462.8,130.9,462.8,136,459.5,136z"/>
			</g>
			<g>
				<path class="st0" d="M441.9,152.7H438c-3.4,0-3.4-5.1,0-5.1h3.9C445.3,147.6,445.3,152.7,441.9,152.7z"/>
			</g>
			<g>
				<path class="st0" d="M464.9,152.7h-12.8c-3.4,0-3.4-5.1,0-5.1h12.8C468.3,147.6,468.3,152.7,464.9,152.7z"/>
			</g>
			<g>
				<path class="st0" d="M478.1,168.5h-40.8c-3.4,0-3.4-5.1,0-5.1h40.8C481.5,163.4,481.5,168.5,478.1,168.5z"/>
			</g>
			<g>
				<path class="st0" d="M569.6,168.5h-40.8c-3.4,0-3.4-5.1,0-5.1h40.8C573,163.4,573,168.5,569.6,168.5z"/>
			</g>
			<g>
				<path class="st0" d="M568.2,136h-20.7c-3.4,0-3.4-5.1,0-5.1h20.7C571.6,130.9,571.6,136,568.2,136z"/>
			</g>
			<g>
				<path class="st0" d="M568.2,152.7h-28.9c-3.4,0-3.4-5.1,0-5.1h28.9C571.6,147.6,571.6,152.7,568.2,152.7z"/>
			</g>
		</g>
		<g>
			<g>
				<path class="st2" d="M486.6,158.7c-1.5-0.1-0.2,0.9-19.9-22.8c-0.8-0.9-0.8-2.3,0-3.2l16.8-20.7c2.1-2.6,6.1,0.6,4,3.2
					l-15.5,19.1l15.2,18.3l5.3-4.4l-10.2-12.3c-0.8-0.9-0.8-2.3,0-3.2l9.7-12c2.1-2.6,6.1,0.6,4,3.2l-8.4,10.4l10.5,12.6
					c0.9,1.1,0.8,2.7-0.3,3.6C487.7,158.8,488,158.8,486.6,158.7z"/>
			</g>
			<g>
				<path class="st2" d="M507.2,150.4c-1.1-0.9-1.2-2.5-0.3-3.6l10.5-12.6l-9-10.7c-2.2-2.6,1.7-5.9,3.9-3.3l10.4,12.3
					c0.8,0.9,0.8,2.3,0,3.3l-10.2,12.3l5.3,4.4l15.2-18.3l-16.3-20.1c-2.1-2.6,1.8-5.8,4-3.2l17.6,21.7c0.8,0.9,0.8,2.3,0,3.2
					c-19.7,23.7-18.5,22.6-19.9,22.8C516.9,158.8,517.2,158.8,507.2,150.4z"/>
			</g>
			<g>
				<path class="st2" d="M501.4,129.6c-23-23-22-21.6-22-23.1c0-1.5-1,0,22-23.1c1-1,2.6-1,3.6,0l21.3,21.3c1,1,1,2.6,0,3.6
					L505,129.6C504,130.6,502.4,130.6,501.4,129.6z M485.5,106.5l17.6,17.6l17.6-17.6l-17.6-17.6L485.5,106.5z"/>
			</g>
			<g>
				<path class="st2" d="M509.1,87.6l32.8-32.8c1-1,2.7-1,3.6,0l31,31c2.4,2.4-1.2,6-3.6,3.6l-29.2-29.2l-31,31
					C510.4,93.6,506.8,90,509.1,87.6z"/>
			</g>
			<g>
				<path class="st2" d="M519.5,98.7l23.4-23.4c1-1,2.6-1,3.6,0L557,85.7c2.4,2.4-1.2,6-3.6,3.6l-8.7-8.7l-21.6,21.6
					C520.7,104.6,517.1,101,519.5,98.7z"/>
			</g>
		</g>
		<g>
			<path class="st2" d="M422.8,78.4c-6.3,0-11.4-5.1-11.4-11.4s5.1-11.4,11.4-11.4c6.3,0,11.4,5.1,11.4,11.4S429.1,78.4,422.8,78.4z
				 M422.8,60.8c-3.5,0-6.3,2.8-6.3,6.3c0,3.5,2.8,6.3,6.3,6.3c3.5,0,6.3-2.8,6.3-6.3C429.1,63.6,426.3,60.8,422.8,60.8z"/>
		</g>
		<g>
			<path class="st2" d="M462.5,78.4c-6.3,0-11.4-5.1-11.4-11.4s5.1-11.4,11.4-11.4c6.3,0,11.4,5.1,11.4,11.4S468.7,78.4,462.5,78.4z
				 M462.5,60.8c-3.5,0-6.3,2.8-6.3,6.3c0,3.5,2.8,6.3,6.3,6.3c3.5,0,6.3-2.8,6.3-6.3C468.7,63.6,465.9,60.8,462.5,60.8z"/>
		</g>
		<g>
			<path class="st2" d="M502.1,78.4c-6.3,0-11.4-5.1-11.4-11.4s5.1-11.4,11.4-11.4c6.3,0,11.4,5.1,11.4,11.4S508.4,78.4,502.1,78.4z
				 M502.1,60.8c-3.5,0-6.3,2.8-6.3,6.3c0,3.5,2.8,6.3,6.3,6.3c3.5,0,6.3-2.8,6.3-6.3C508.4,63.6,505.6,60.8,502.1,60.8z"/>
		</g>
		<g>
			<path class="st2" d="M493.3,69.6h-22c-3.4,0-3.4-5.1,0-5.1h22C496.7,64.5,496.7,69.6,493.3,69.6z"/>
		</g>
		<g>
			<path class="st2" d="M453.7,69.6h-22c-3.4,0-3.4-5.1,0-5.1h22C457,64.5,457,69.6,453.7,69.6z"/>
		</g>
		<g>
			<path class="st2" d="M420.3,88V75.8c0-3.4,5.1-3.4,5.1,0V88C425.4,91.4,420.3,91.4,420.3,88z"/>
		</g>
	</g>
	<g>
		<g>
			<path class="st1" d="M543.9,613.4c0.2-2,0.2-4.1,0-6.2l6.6-6l-3.7-8.8l-8.9,0.5c-1.3-1.6-2.8-3.1-4.4-4.4l0.4-9l-8.8-3.6l-6,6.7
				c-2-0.2-4.1-0.2-6.2,0l-6-6.6l-8.8,3.7l0.5,8.9c-1.6,1.3-3.1,2.8-4.4,4.4l-9-0.4l-3.6,8.8l6.7,6c-0.2,2.1-0.2,4.1,0,6.2l-6.6,6
				l3.7,8.8l8.9-0.5c1.3,1.6,3.5,5.3,3.5,5.3c0.4,1.4,0.3-1,0.3,17.7c0,3.4,2.7,6.1,6.1,6.1h23.6c3.4,0,6.1-2.7,6.1-6.1v-16.7
				c0.8-1.4,2.9-4.8,4.1-6.4l9,0.4l3.6-8.8L543.9,613.4z M521.1,622.3c-6.6,2.8-14.2-0.4-16.9-7c-2.7-6.6,0.4-14.2,7-16.9
				c6.6-2.7,14.2,0.4,16.9,7C530.8,612,527.7,619.6,521.1,622.3z"/>
		</g>
		<g id="gear-5-icon_55_">
			<path class="st2" d="M501.8,604.5c3.3-7.9,12.3-11.7,20.2-8.4c12.8,5.3,12.7,23.4,0.1,28.6l0,0
				C509.5,629.9,496.5,617.3,501.8,604.5z M506.5,614.4c2.2,5.3,8.3,7.8,13.6,5.6c0,0,0,0,0,0c8.4-3.5,8.6-15.7,0-19.2
				C511.6,597.3,503,605.8,506.5,614.4z"/>
		</g>
		<g>
			<path class="st2" d="M527.8,659.5h-23.6c-4.8,0-8.7-3.9-8.7-8.7c0-0.5,0-16.2-0.1-16.7c-0.5-0.9-1.5-2.5-2.4-3.7
				c-7.5,0.4-9.2,1-10.1-1.2c-3.7-9-4.7-10.1-3-11.7l5.7-5.2c-0.1-1.4-0.1-2.8,0-4.1c-5.7-5.1-7.3-5.9-6.4-8
				c3.7-9,3.8-10.4,6.1-10.4l7.7,0.4c0.9-1,1.9-2,2.9-2.9c-0.4-7.6-1-9.3,1.2-10.2c9-3.7,10.1-4.7,11.6-3l5.2,5.7
				c1.4-0.1,2.8-0.1,4.1,0c5.1-5.7,5.9-7.3,8-6.4c9,3.7,10.5,3.8,10.4,6.1l-0.4,7.7c1,0.9,2,1.9,2.9,2.9c7.6-0.4,9.3-1,10.2,1.2
				c3.7,9,4.7,10.1,3,11.6l-5.7,5.2c0.1,1.4,0.1,2.8,0,4.1c5.7,5.1,7.3,5.9,6.4,8l-3.6,8.8c-0.9,2.2-2.7,1.6-10.1,1.2
				c-1,1.5-2.1,3.2-2.8,4.5v16C536.4,655.6,532.5,659.5,527.8,659.5z M496.3,626.3c0.6,0.8,3.8,5.3,4,6.3c0.5,1.8,0.3-0.8,0.3,18.3
				c0,2,1.6,3.6,3.6,3.6h23.6c2,0,3.6-1.6,3.6-3.6c0-17.3-0.2-17.1,0.4-18c0.8-1.4,2.9-4.9,4.3-6.6c1.1-1.3,1.9-1,9.3-0.6l2.2-5.5
				c-9.1-8.2-5.1-3.7-6.2-12.6c-0.2-1.7,0.6-1.9,6.1-7l-2.3-5.5c-12.2,0.6-6.2,1.1-13.3-4.6c-1.3-1.1-1-1.8-0.6-9.3l-5.5-2.3
				c-8.2,9.1-3.6,5.1-12.6,6.2c-1.7,0.2-1.9-0.5-7-6.1l-5.5,2.3c0.4,7.5,0.7,8.2-0.6,9.3c-7,5.6-1.1,5.2-13.3,4.6l-2.3,5.5
				c5.6,5,6.3,5.3,6.2,7c-1,9,2.9,4.5-6.1,12.6l2.3,5.5C494.5,625.3,495.2,624.9,496.3,626.3z M534.5,633.1L534.5,633.1L534.5,633.1
				z"/>
		</g>
		<g>
			<path class="st2" d="M532.6,668.1h-34.1c-3.2,0-3.2-4.9,0-4.9h34.1C535.9,663.2,535.9,668.1,532.6,668.1z"/>
		</g>
		<g>
			<path class="st2" d="M530,675.9h-28.8c-3.2,0-3.2-4.9,0-4.9H530C533.3,671,533.3,675.9,530,675.9z"/>
		</g>
		<g>
			<path class="st2" d="M515.6,691.6c-5,0-9-4-9-9v-1.3c0-1.4,1.1-2.5,2.5-2.5h13.1c1.4,0,2.5,1.1,2.5,2.5v1.3
				C524.6,687.6,520.6,691.6,515.6,691.6z M511.7,683.8c1.1,3.9,6.7,3.9,7.9,0H511.7z"/>
		</g>
		<g>
			<g>
				<path class="st0" d="M511.8,563.6v-8c0-3.4,5.1-3.4,5.1,0v8C516.9,566.9,511.8,566.9,511.8,563.6z"/>
			</g>
			<g>
				<path class="st0" d="M483.1,576.2l-4.9-5.5c-2.3-2.5,1.5-5.9,3.8-3.4l4.9,5.5C489.2,575.3,485.4,578.7,483.1,576.2z"/>
			</g>
			<g>
				<path class="st0" d="M469.9,605.3l-7.9-1.5c-3.3-0.6-2.3-5.7,1-5l7.9,1.5C474.1,600.9,473.2,605.9,469.9,605.3z"/>
			</g>
			<g>
				<path class="st0" d="M468.5,635.1l6.3-3.6c2.9-1.7,5.4,2.8,2.5,4.4l-6.3,3.6C468.1,641.2,465.6,636.7,468.5,635.1z"/>
			</g>
			<g>
				<path class="st0" d="M561.5,637.2l-6.7-3.9c-2.9-1.7-0.4-6.1,2.6-4.4l6.7,3.9C567,634.5,564.4,638.9,561.5,637.2z"/>
			</g>
			<g>
				<path class="st0" d="M559.5,597.7l8.3-1.5c3.3-0.6,4.2,4.4,0.9,5l-8.3,1.5C557.1,603.3,556.2,598.3,559.5,597.7z"/>
			</g>
			<g>
				<path class="st0" d="M542.6,571.5l4.6-5.7c2.1-2.6,6.1,0.5,4,3.2l-4.6,5.7C544.5,577.2,540.5,574.1,542.6,571.5z"/>
			</g>
		</g>
		<g>
			<path class="st0" d="M589.7,646.2l-7.1-0.8c7.2,9.9-19.8,17.4-17,32.6l12.7-11.2c0,0,11.8-14.2,11.8-14.4
				C590.2,652.2,589.7,646.2,589.7,646.2z"/>
		</g>
		<g>
			<path class="st0" d="M595.3,599.8l-7.5-3.9l-3.7,3.2c3.1,0.2,5.5,2.6,5.7,5.7c0,0.1,4.9,57.7,4.9,57.7
				c-0.1,5.2-0.6,4.6-23.9,35.5c-1.5,2.1-4,3.3-6.6,3.3c-7.8,0-15.3,3.1-20.8,8.6l-2.2,2.2c23.6,0,16.9,0,40.4,0l0.3-13.6l19-27.1
				C602.7,651.8,603.5,666.1,595.3,599.8z"/>
		</g>
		<g>
			<path class="st0" d="M609.2,653.1c0,4,6.1,4,6.1,0C615.4,649.1,609.2,649.1,609.2,653.1z"/>
		</g>
		<g>
			<path class="st2" d="M538.7,710.4c0-36.9-1.9-30,38-70.1c0-39-1.1-39.9,3.3-44.2c6.6-6.6,17.9-2.6,19,6.7l6.6,59.8
				c1,8.8-2.9,11.7-19.3,33.6c-2.7,3.6-3.7,8.2-2.7,12.6c0.7,3.3-4.3,4.4-5,1.1c-1.3-5.9,0-12,3.6-16.8c16.9-22.5,19-23.7,18.3-30
				l-6.6-59.8c-0.8-7.5-12-6.9-12,0.6v37.4c0,1.5,1.6-0.6-29.1,30.3c-10.7,10.8-8.9,21.9-8.9,38.7
				C543.8,713.7,538.7,713.7,538.7,710.4z"/>
		</g>
		<g>
			<path class="st2" d="M566.2,675.2c21.1-21.1,21.5-20.6,21.5-24c0-3.4-2.7-6.1-6.1-6.1c-3.4,0-3.2,0.7-19.5,16.9
				c-2.4,2.4-6-1.2-3.6-3.6l15.2-15.2c4.4-4.4,11.5-4.4,15.8,0c4.4,4.4,4.4,11.5,0,15.8l-19.7,19.7
				C567.5,681.2,563.9,677.6,566.2,675.2z"/>
		</g>
		<g>
			<path class="st2" d="M530.5,731.3V712c0-1.4,1.1-2.6,2.6-2.6h54.3c1.4,0,2.6,1.1,2.6,2.6v19c0,3.4-5.1,3.4-5.1,0v-16.4h-49.2
				v16.7C535.6,734.7,530.5,734.7,530.5,731.3z"/>
		</g>
		<g>
			<path class="st0" d="M579.6,725.6c-1.5,5.5-9.9,3.2-8.3-2.3C572.8,717.8,581.1,720.1,579.6,725.6z"/>
		</g>
		<g>
			<path class="st0" d="M596.6,691.7c10-13.1,15.9-18.5,14.7-29.8c-0.4-3.4,4.7-3.9,5.1-0.6c1.5,13.8-6,20.8-15.7,33.5
				C598.6,697.5,594.5,694.4,596.6,691.7z"/>
		</g>
		<g>
			<path class="st0" d="M438.4,646.2l7.1-0.8c-7.2,9.9,19.8,17.4,17,32.6l-12.7-11.2c0,0-11.8-14.2-11.8-14.4
				C438,652.2,438.4,646.2,438.4,646.2z"/>
		</g>
		<g>
			<path class="st0" d="M432.9,599.8l7.5-3.9l3.7,3.2c-3.1,0.2-5.5,2.6-5.7,5.7c0,0.1-4.9,57.7-4.9,57.7c0.1,5.2,0.6,4.6,23.9,35.5
				c1.5,2.1,4,3.3,6.6,3.3c7.8,0,15.3,3.1,20.8,8.6l2.2,2.2c-23.6,0-16.9,0-40.4,0l-0.3-13.6l-19-27.1
				C425.5,651.8,424.7,666.1,432.9,599.8z"/>
		</g>
		<g>
			<path class="st0" d="M427.3,686.6c0,4-6.1,4-6.1,0C421.1,682.6,427.3,682.6,427.3,686.6z"/>
		</g>
		<g>
			<path class="st2" d="M484.4,710.4c0-16.9,1.8-28-8.9-38.7c-30.7-30.8-29.1-28.8-29.1-30.3c0-40.8,0.6-39.3-1.8-41.7
				c-3.6-3.6-9.7-1.4-10.3,3.6l-6.6,59.8c-0.7,6.3,1.4,7.4,18.3,30c3.6,4.8,4.9,10.9,3.6,16.8c-0.7,3.3-5.7,2.2-5-1.1
				c1-4.4,0-9-2.7-12.6c-16.3-21.8-20.3-24.7-19.3-33.6l6.6-59.8c0.6-5.7,5.4-9.9,11.1-9.9c6.2,0,11.1,5,11.1,11.1v36.3
				c40,40.1,38,33.3,38,70.1C489.5,713.7,484.4,713.7,484.4,710.4z"/>
		</g>
		<g>
			<path class="st2" d="M458.3,678.8l-19.7-19.7c-4.4-4.4-4.4-11.5,0-15.8c4.4-4.4,11.5-4.4,15.8,0l15.2,15.2c2.4,2.4-1.2,6-3.6,3.6
				c-16.3-16.3-16.1-16.9-19.5-16.9c-3.4,0-6.1,2.7-6.1,6.1c0,3.4,0.3,2.9,21.5,24C464.3,677.6,460.7,681.2,458.3,678.8z"/>
		</g>
		<g>
			<path class="st2" d="M492.5,731.3v-16.7h-49.2V731c0,3.4-5.1,3.4-5.1,0v-19c0-1.4,1.1-2.6,2.6-2.6h54.3c1.4,0,2.6,1.1,2.6,2.6
				v19.2C497.6,734.7,492.5,734.7,492.5,731.3z"/>
		</g>
		<g>
			<path class="st0" d="M448.6,725.6c1.5,5.5,9.9,3.2,8.3-2.3C455.4,717.8,447.1,720.1,448.6,725.6z"/>
		</g>
		<g>
			<path class="st0" d="M417.3,681.4c-4.3-5.8-6.3-12.9-5.5-20.1l2.8-25.5c0.4-3.3,5.4-2.8,5.1,0.6l-2.8,25.5
				c-0.7,5.9,0.9,11.7,4.5,16.4c0.8,1.1,0.6,2.7-0.5,3.6C419.8,682.7,418.2,682.5,417.3,681.4z"/>
		</g>
		<g>
			<path class="st1" d="M435.6,586.3c0.8-2.5,1.8-4.9,2.9-7.3c1.4-3,6-0.9,4.6,2.2c-1,2.2-2,4.5-2.7,6.8
				C439.3,591.1,434.5,589.5,435.6,586.3z M582.6,581.9c-1-2.2-2.1-4.4-3.4-6.4c-1.7-2.9,2.6-5.5,4.4-2.6c1.3,2.2,2.6,4.6,3.7,7
				C588.6,582.9,584,585,582.6,581.9z M444.9,568.2c1.5-2.1,3.1-4.2,4.9-6.1c2.2-2.5,6,0.9,3.8,3.4c-1.6,1.8-3.1,3.7-4.5,5.7
				C447.1,573.8,443,570.9,444.9,568.2z M572.3,566c-1.6-1.8-3.3-3.6-5.1-5.3c-2.4-2.3,1-6,3.5-3.7c1.9,1.8,3.7,3.7,5.4,5.7
				C578.4,565.2,574.5,568.6,572.3,566z M458.8,553.4c2-1.6,4.1-3.2,6.3-4.6c2.8-1.9,5.6,2.4,2.8,4.2c-2,1.3-4,2.8-5.9,4.3
				C459.4,559.4,456.2,555.5,458.8,553.4z M558.1,553.4c-2-1.4-4.1-2.6-6.3-3.8c-3-1.6-0.5-6.1,2.4-4.5c2.3,1.3,4.5,2.6,6.7,4.1
				C563.8,551.1,560.9,555.3,558.1,553.4z M476,542.6c2.3-1.1,4.8-2.1,7.2-2.9c3.2-1.1,4.9,3.7,1.7,4.8c-2.3,0.8-4.6,1.8-6.8,2.8
				C475.1,548.7,473,544,476,542.6z M541.2,544.8c-2.3-0.8-4.7-1.6-7-2.2c-3.2-0.9-1.9-5.8,1.3-4.9c2.5,0.7,5,1.5,7.4,2.4
				C546.1,541.1,544.4,545.9,541.2,544.8z M495.3,536.4c2.5-0.5,5.1-0.9,7.7-1.2c3.3-0.4,3.9,4.7,0.6,5.1c-2.4,0.3-4.9,0.6-7.3,1.1
				C493,542,492,537,495.3,536.4z M522.6,540.3c-2.4-0.3-4.9-0.5-7.3-0.6c-3.4-0.1-3.2-5.3,0.2-5.1c2.6,0.1,5.2,0.3,7.8,0.6
				C526.6,535.7,526,540.7,522.6,540.3z"/>
		</g>
	</g>
	<g>
	
		<g>
			<path class="st0" d="M488.7,944.2h-24.4c-3.4,0-3.4-5.1,0-5.1h24.4C492.1,939.1,492.1,944.2,488.7,944.2z"/>
		</g>
		<g>
			<path class="st0" d="M484.9,960.4h-20.7c-3.4,0-3.4-5.1,0-5.1h20.7C488.3,955.3,488.3,960.4,484.9,960.4z"/>
		</g>
		<g>
			<path class="st0" d="M486.7,978.4h-22.5c-3.4,0-3.4-5.1,0-5.1h22.5C490.1,973.3,490.1,978.4,486.7,978.4z"/>
		</g>
		<g>
			<path class="st0" d="M428.4,1017.7V916.4c0-4.2,3.4-7.6,7.6-7.6h45.2l0.6,11.3H440v97.6H428.4z"/>
		</g>
		<g>
			<path class="st0" d="M506.6,1025.7h-75.9c-4.4,0-8-3.6-8-8v-1.1h72.4c1.7,3,3.3,2.3,18.6,2.3c1.7,0,3.1-0.9,3.9-2.3H590v1.1
				c0,4.4-3.6,8-8,8h-75.9H506.6z"/>
		</g>
		<g>
			<path class="st2" d="M426.5,1016V915.2c0-4.7,3.9-8.6,8.6-8.6h100.2c3.4,0,3.4,5.1,0,5.1H435.1c-1.9,0-3.5,1.6-3.5,3.5V1016
				C431.6,1019.4,426.5,1019.4,426.5,1016z"/>
		</g>
		<g>
			<path class="st2" d="M437.4,1016.5v-95.8c0-1.7,1.4-3.2,3.2-3.2h37.3v-7.8c0-3.4,5.1-3.4,5.1,0v10.4c0,1.4-1.1,2.6-2.6,2.6h-37.9
				v93.9C442.5,1019.9,437.4,1019.9,437.4,1016.5z"/>
		</g>
		<g>
			<path class="st0" d="M585.4,1017.7V916.4c0-4.2-3.4-7.6-7.6-7.6h-43.2l-0.6,11.3h39.9v97.6H585.4z"/>
		</g>
		<g>
			<path class="st2" d="M582.2,1016V915.2c0-1.9-1.6-3.5-3.5-3.5h-45.5c-3.4,0-3.4-5.1,0-5.1h45.5c4.7,0,8.6,3.9,8.6,8.6V1016
				C587.3,1019.4,582.2,1019.4,582.2,1016z"/>
		</g>
		<g>
			<path class="st2" d="M571.3,1016.5l-0.2-95.3h-64.2c-3.4,0-3.4-5.1,0-5.1H573c1.7,0,3.2,1.4,3.2,3.2l0.2,97.2
				c0,1.4-1.1,2.6-2.5,2.6C572.4,1019.1,571.3,1018,571.3,1016.5z M571.1,919.3C571.1,919.3,571.1,919.3,571.1,919.3L571.1,919.3z"
				/>
		</g>
		<g>
			<path class="st2" d="M581.2,1028.2H429.9c-10.6,0-13.3-14.2-8-14.2h72.4c2.4,0,1.9,2.3,3.9,2.3c15.7,0,15.6,0.4,16.4-1
				c1.1-1.8-3.1-1.3,74.6-1.3c1.4,0,2.6,1.1,2.6,2.6v1.1C591.8,1023.5,587,1028.2,581.2,1028.2z M581.2,1023.1c2.5,0,4.6-1.7,5.3-4
				h-68.4c-2.7,3-4.6,2.3-19.9,2.3c-2,0-3.9-0.8-5.2-2.3h-68.4c0.6,2.3,2.7,4,5.3,4C436.7,1023.1,574.7,1023.1,581.2,1023.1z"/>
		</g>
		<g>
			<path class="st1" d="M532,945.8l-25.3-14.5l-25.2,14.6l0.1,29.1l25.3,14.5l25.2-14.6L532,945.8z M506.6,971.8
				c-6.5,0-11.7-5.2-11.7-11.7c0-6.5,5.2-11.7,11.7-11.7c6.5,0,11.7,5.2,11.7,11.7C518.3,966.5,513,971.8,506.6,971.8z"/>
		</g>
		<g>
			<path class="st0" d="M560.7,943.4h-36.6c-3.4,0-3.4-5.1,0-5.1h36.6C564.1,938.3,564.1,943.4,560.7,943.4z"/>
		</g>
		<g>
			<path class="st0" d="M554.4,970l3-3.1l-3.2-3.3c-2.3-2.4,1.4-6,3.7-3.5l4.9,5.1c0.9,1,0.9,2.5,0,3.5l-4.7,4.9
				C555.8,976,552.1,972.5,554.4,970z"/>
		</g>
		<g>
			<path class="st0" d="M559.7,969.4h-27.2c-3.4,0-3.4-5.1,0-5.1h27.2C563,964.3,563.1,969.4,559.7,969.4z"/>
		</g>
		<g>
			<path class="st0" d="M561.5,996.1H453.9c-3.4,0-3.4-5.1,0-5.1h107.7C564.9,991,564.9,996.1,561.5,996.1z"/>
		</g>
		<g>
			<path class="st0" d="M476.4,875.6h-16.2v-16.9h16.2C476.4,861.4,477.3,867.3,476.4,875.6z"/>
		</g>
		<g>
			<path class="st0" d="M532.4,858.4c0.2,1,0,2.1-0.8,3.2c-1.7,2.4-2,4.4-4.5,6.2c-1.5,1.1-4.5,0.8-6.1-1.3
				c-2.2,2.4-10.2,3.7-12.9,0.8c-2.5,1.7-5.7,2.4-8.5,1c-3-1.5-2-4.6-5.3-4.4c-1.3,0.1-2.6,0.7-4,0.9c0.1,4.2-1.1,6,1.7,10.9h61.8
				v-17.2H532.4z"/>
		</g>
		<g>
			<path class="st2" d="M443,869.6h-7.8c-3.4,0-3.4-5.1,0-5.1h7.8c1.4,0,2.6,1.1,2.6,2.6S444.4,869.6,443,869.6z"/>
		</g>
		<g>
			<path class="st2" d="M459.2,877.9c-20.6-9.2-20.9-8.7-20.9-10.9c0-2.3,0.3-1.8,20.9-10.9c3.1-1.4,5.2,3.3,2.1,4.7l-14.1,6.3
				l14.1,6.3C464.3,874.7,462.3,879.3,459.2,877.9z"/>
		</g>
		<g>
			<path class="st2" d="M475.1,878.2h-14.9c-1.4,0-2.6-1.1-2.6-2.6v-17.2c0-1.4,1.1-2.6,2.6-2.6h16.1c3.4,0,3.4,5.1,0,5.1h-13.5
				v12.1h12.3c1.4,0,2.6,1.1,2.6,2.6S476.5,878.2,475.1,878.2z"/>
		</g>
		<g>
			<path class="st2" d="M554,878.2h-57.1c-3.4,0-3.4-5.1,0-5.1h54.6v-12.1h-19.1c-3.4,0-3.4-5.1,0-5.1H554c1.4,0,2.6,1.1,2.6,2.6
				v17.2C556.5,877,555.4,878.2,554,878.2z"/>
		</g>
		<g>
			<path class="st2" d="M530.8,918.6c0-7.7-0.2-37.2-0.2-43c0-3.4,5.1-3.4,5.1,0c0,6,0.2,35.5,0.2,43
				C535.9,922,530.8,922,530.8,918.6z"/>
		</g>
		<g>
			<path class="st2" d="M487.7,865.1c0-1.4,1.1-2.6,2.6-2.6c1.9,0,3.4-1.5,3.4-3.4v-7.9c0-4.5-6.8-4.5-6.8,0v4.2
				c0,3.4-5.1,3.4-5.1,0v-4.2c0-4.7,3.8-8.5,8.5-8.5c4.7,0,8.5,3.8,8.5,8.5v7.9C498.7,867.5,487.7,870.2,487.7,865.1z"/>
		</g>
		<g>
			<path class="st2" d="M502.1,871.6c-4.7,0-8.5-3.8-8.5-8.5v-12.3c0-4.7,3.8-8.5,8.5-8.5c4.7,0,8.5,3.8,8.5,8.5v12.3
				C510.6,867.8,506.8,871.6,502.1,871.6z M498.7,850.8v12.3c0,4.5,6.8,4.5,6.8,0v-12.3C505.5,846.3,498.7,846.3,498.7,850.8z"/>
		</g>
		<g>
			<path class="st2" d="M514,872c-4.7,0-8.5-3.8-8.5-8.5v-12.3c0-4.7,3.8-8.5,8.5-8.5c4.7,0,8.5,3.8,8.5,8.5v12.3
				C522.5,868.2,518.7,872,514,872z M510.6,851.2v12.3c0,4.5,6.8,4.5,6.8,0v-12.3C517.4,846.8,510.6,846.8,510.6,851.2z"/>
		</g>
		<g>
			<path class="st2" d="M525.9,870.4c-4.7,0-8.5-3.8-8.5-8.5v-5.8c0-4.7,3.8-8.5,8.5-8.5c4.7,0,8.5,3.8,8.5,8.5v5.8
				C534.4,866.5,530.6,870.4,525.9,870.4z M522.5,856.1v5.8c0,4.5,6.8,4.5,6.8,0v-5.8C529.3,851.6,522.5,851.6,522.5,856.1z"/>
		</g>
		<g>
			<path class="st2" d="M489.8,910.9c-2.3-1.8-5.1-3.6-7.8-7.3c-4-5.4-7-12.7-8.2-19.4c-1.2-7.3,0.6-8.4,0.3-17.9
				c-0.2-7-1.4-10.3,1.5-12.5c4.6-3.4,18.8,2.1,16.9,18.1c3.3,0.7,6.5,2.1,9.3,3.9c5,3.3,7.8,7.4,9.4,10.4c0.7,1.2,0.2,2.8-1.1,3.4
				c-3.9,2-3-4.2-11.1-9.5c-3.7-2.4-7.4-3.3-9.8-3.6c-1.5-0.2-2.5-1.7-2.2-3.2c0.2-0.8,1.9-8.2-2.3-12.5c-2.1-2.1-5-3.2-5.9-3
				c-0.1,0.5,0.4,7.7,0.4,8.3c0.3,9.9-1.5,10.8-0.4,17.1c0.9,5.6,3.6,12.2,7.3,17.2c4.1,5.6,10,6.5,7.3,9.9
				C492.5,911.6,490.9,911.8,489.8,910.9z"/>
		</g>
		<g>
			<path class="st2" d="M561.8,878.2H554c-1.4,0-2.6-1.1-2.6-2.6v-17.2c0-1.4,1.1-2.6,2.6-2.6h7.8c4.2,0,7.7,3.4,7.7,7.7v7
				C569.5,874.7,566,878.2,561.8,878.2z M556.5,873.1h5.3c1.4,0,2.6-1.1,2.6-2.6v-7c0-1.4-1.1-2.6-2.6-2.6h-5.3V873.1z"/>
		</g>
		<g>
			<g>
				<path class="st0" d="M502.9,825.3v-4.8c0-3.4,5.1-3.4,5.1,0v4.8C508,828.7,502.9,828.7,502.9,825.3z"/>
			</g>
			<g>
				<path class="st0" d="M480.9,832.6l-2.4-4.2c-1.7-2.9,2.7-5.5,4.4-2.6l2.4,4.2c0.7,1.2,0.3,2.8-0.9,3.5
					C483.2,834.2,481.6,833.8,480.9,832.6z"/>
			</g>
			<g>
				<path class="st0" d="M465.5,849.8l-4.2-2.4c-2.9-1.7-0.4-6.1,2.6-4.4l4.2,2.4c1.2,0.7,1.6,2.3,0.9,3.5
					C468.3,850.1,466.7,850.6,465.5,849.8z"/>
			</g>
			<g>
				<path class="st0" d="M542.8,845.4l4.2-2.4c2.9-1.7,5.5,2.7,2.6,4.4l-4.2,2.4C542.4,851.5,539.9,847.1,542.8,845.4z"/>
			</g>
			<g>
				<path class="st0" d="M525.5,830l2.4-4.2c1.7-2.9,6.1-0.4,4.4,2.6l-2.4,4.2C528.3,835.5,523.9,832.9,525.5,830z"/>
			</g>
		</g>
		<g>
			<g>
				<path class="st2" d="M505.6,991.8c-27-15.5-26.5-14.7-26.6-16.7l-0.1-29.1c0-2-0.5-1.2,26.5-16.8c1.8-1,0.8-1,27.8,14.5
					c1.8,1,1.3,0.2,1.4,31.3c0,2,0.5,1.2-26.5,16.8C507.4,992.2,506.4,992.2,505.6,991.8z M484.1,973.6l22.7,13l22.7-13.2l-0.1-26.2
					l-22.7-13l-22.7,13.2L484.1,973.6z"/>
			</g>
		</g>
		<g>
			<path class="st2" d="M506.6,972.2c-6.6,0-11.9-5.4-11.9-11.9s5.4-11.9,11.9-11.9c6.6,0,11.9,5.4,11.9,11.9
				S513.2,972.2,506.6,972.2z M506.6,953.4c-3.8,0-6.8,3.1-6.8,6.8c0,3.8,3.1,6.8,6.8,6.8c3.8,0,6.8-3.1,6.8-6.8
				C513.5,956.5,510.4,953.4,506.6,953.4z"/>
		</g>
		<g>
			<path class="st1" d="M455.1,944.2h-1.3c-3.4,0-3.4-5.1,0-5.1h1.3C458.5,939.1,458.5,944.2,455.1,944.2z"/>
		</g>
		<g>
			<path class="st1" d="M455.1,960.4h-1.3c-3.4,0-3.4-5.1,0-5.1h1.3C458.5,955.3,458.5,960.4,455.1,960.4z"/>
		</g>
		<g>
			<path class="st1" d="M455.1,978.4h-1.3c-3.4,0-3.4-5.1,0-5.1h1.3C458.5,973.3,458.5,978.4,455.1,978.4z"/>
		</g>
		<g>
			<path class="st2" d="M600.7,1028.2h-19.5c-3.4,0-3.4-5.1,0-5.1h19.5C604.1,1023.1,604.1,1028.2,600.7,1028.2z"/>
		</g>
		<g>
			<path class="st2" d="M429.8,1028.2h-19.5c-3.4,0-3.4-5.1,0-5.1h19.5C433.2,1023.1,433.2,1028.2,429.8,1028.2z"/>
		</g>
	</g>
</g>
</svg>
