<?xml version="1.0" encoding="utf-8"?>
<!-- Generator: Adobe Illustrator 26.1.0, SVG Export Plug-In . SVG Version: 6.00 Build 0)  -->
<svg version="1.1" id="_x3C_Layer_x3E_" xmlns="http://www.w3.org/2000/svg" xmlns:xlink="http://www.w3.org/1999/xlink" x="0px"
	 y="0px" viewBox="0 0 4904.77 4904.77" enable-background="new 0 0 4904.77 4904.77" xml:space="preserve">
<g>
	<path fill="#FFFFFF" d="M397.22,4185.31V1300.77c0-347.09,282.38-629.48,629.48-629.48h2850.87
		c347.1,0,629.48,282.38,629.48,629.48v2884.55h24.4V1300.77c0-360.55-293.34-653.88-653.88-653.88H1026.69
		c-360.55,0-653.87,293.33-653.87,653.88v2884.55H397.22z"/>
	<path fill="#FFFFFF" d="M443.75,4185.31V1305.8c0-323.22,262.96-586.18,586.18-586.18h2847.32c323.2,0,586.18,262.96,586.18,586.18
		v2879.51h24.4V1305.8c0-336.67-273.9-610.58-610.58-610.58H1029.93c-336.67,0-610.58,273.9-610.58,610.58v2879.51H443.75z"/>
	<g>
		<path fill="#FFFFFF" d="M359.37,1718.12h35.41v24.4h-35.41c-4.41,0-8.13,3.72-8.13,8.13v274.52c0,4.41,3.72,8.13,8.13,8.13v-0.01
			h35.41v24.4h-35.41v0.01c-17.93,0-32.53-14.6-32.53-32.53v-274.52C326.84,1732.72,341.44,1718.12,359.37,1718.12z"/>
	</g>
	<g>
		<path fill="#FFFFFF" d="M359.69,2392.6h35.41v24.4h-35.41c-4.42,0-8.13,3.72-8.13,8.13v535.74c0,4.42,3.71,8.13,8.13,8.13V2969
			h35.41v24.4h-35.41v0.01c-17.93,0-32.53-14.6-32.53-32.53v-535.74C327.15,2407.2,341.75,2392.6,359.69,2392.6z"/>
	</g>
	<g>
		<path fill="#FFFFFF" d="M4544.18,3550.32h-35.41v-24.4h35.41c4.42,0,8.13-3.72,8.13-8.13v-891.03c0-4.42-3.71-8.13-8.13-8.13v0
			h-35.41v-24.4h35.41v0c17.93,0,32.53,14.6,32.53,32.53v891.03C4576.71,3535.72,4562.12,3550.32,4544.18,3550.32z"/>
	</g>
	<g>
		<path fill="#FFFFFF" d="M359.69,3156.36h35.41v24.4h-35.41c-4.42,0-8.13,3.72-8.13,8.13v535.74c0,4.42,3.71,8.13,8.13,8.13v0
			h35.41v24.4h-35.41v0c-17.93,0-32.53-14.6-32.53-32.53v-535.74C327.15,3170.96,341.75,3156.36,359.69,3156.36z"/>
	</g>
	<path fill="#FFFFFF" d="M597.75,4185.31V1340.35c0-255.79,208.1-463.89,463.89-463.89h2781.05c255.79,0,463.9,208.09,463.9,463.89
		v2844.97h24.4V1340.35c0-269.25-219.04-488.28-488.3-488.28H1061.64c-269.25,0-488.29,219.04-488.29,488.28v2844.97H597.75z"/>
</g>
</svg>
