<?xml version="1.0" encoding="utf-8"?>
<!-- Generator: Adobe Illustrator 26.1.0, SVG Export Plug-In . SVG Version: 6.00 Build 0)  -->
<svg version="1.1" id="Layer_1" xmlns="http://www.w3.org/2000/svg" xmlns:xlink="http://www.w3.org/1999/xlink" x="0px" y="0px"
	 viewBox="0 0 692.38 828.11" enable-background="new 0 0 692.38 828.11" xml:space="preserve">
<path fill="#222222" d="M515.27,236.45v0.09l-21.22-0.33c-3,40.61-11.09,79.77-26,116.34c-50.1,119.28-166.87,196.86-296.24,196.82
	v21.22h-0.09v21.31c0.94-0.05,1.89-0.08,2.83-0.09l0,0c150.78-1.11,285.24-95.16,338-236.41l0,0l0.12-0.33
	c2.47-6.67,4.74-13.39,6.83-20.16c9.64-30.64,16.15-62.61,16.91-95.28l0,0c0-0.95,0.07-1.89,0.13-2.83L515.27,236.45z"/>
</svg>
