<?xml version="1.0" encoding="utf-8"?>
<!-- Generator: Adobe Illustrator 26.1.0, SVG Export Plug-In . SVG Version: 6.00 Build 0)  -->
<svg version="1.1" id="Layer_1" xmlns="http://www.w3.org/2000/svg" xmlns:xlink="http://www.w3.org/1999/xlink" x="0px" y="0px"
	 viewBox="0 0 848.69 803.36" enable-background="new 0 0 848.69 803.36" xml:space="preserve">
<path fill="#808080" d="M431.54,754.94h-0.18c-4.66,0-9.37-0.1-14-0.28l0.11-2.83c4.6,0.18,9.28,0.28,13.9,0.28L431.54,754.94z
	 M445.75,754.64l-0.12-2.83c4.68-0.19,9.41-0.48,14.08-0.86l0.23,2.82c-4.7,0.35-9.48,0.65-14.19,0.84L445.75,754.64z M403.14,753.8
	c-4.71-0.38-9.47-0.87-14.14-1.44l0.35-2.81c4.63,0.57,9.35,1,14,1.43L403.14,753.8z M474.08,752.31l-0.35-2.81
	c4.63-0.57,9.32-1.25,13.93-2l0.47,2.79c-4.66,0.72-9.38,1.41-14.05,1.99L474.08,752.31z M374.94,750.31
	c-4.67-0.77-9.37-1.65-14-2.61l0.58-2.77c4.57,1,9.23,1.82,13.85,2.58L374.94,750.31z M502.09,747.62l-0.58-2.77
	c4.58-0.95,9.19-2,13.72-3.16l0.7,2.74C511.36,745.58,506.7,746.66,502.09,747.62L502.09,747.62z M347.09,744.52
	c-4.58-1.15-9.19-2.42-13.71-3.76l0.8-2.71c4.49,1.33,9.06,2.58,13.6,3.72L347.09,744.52z M529.6,740.66l-0.8-2.71
	c4.48-1.34,9-2.78,13.41-4.3l0.92,2.68c-4.43,1.53-8.98,2.99-13.51,4.33L529.6,740.66z M319.86,736.44c-4.48-1.53-9-3.18-13.38-4.9
	l1-2.63c4.37,1.7,8.83,3.33,13.27,4.85L319.86,736.44z M556.49,731.44l-1-2.63c4.36-1.71,8.74-3.52,13-5.4l1.14,2.59
	c-4.33,1.88-8.74,3.71-13.14,5.43V731.44z M293.36,726.09c-4.34-1.9-8.69-3.92-12.92-6l1.24-2.54c4.2,2,8.51,4,12.82,5.94
	L293.36,726.09z M582.55,720l-1.25-2.54c4.22-2.07,8.43-4.24,12.53-6.46l1.35,2.48c-4.18,2.24-8.43,4.46-12.68,6.52H582.55z
	 M267.78,713.58c-4.17-2.26-8.33-4.63-12.37-7l1.45-2.43c4,2.39,8.14,4.74,12.27,7L267.78,713.58z M607.54,706.45l-1.46-2.43
	c4-2.4,8.05-4.92,12-7.48l1.55,2.37c-4.03,2.58-8.09,5.11-12.14,7.54H607.54z M243.34,699c-4-2.59-7.91-5.29-11.74-8l1.64-2.3
	c3.81,2.72,7.72,5.4,11.65,8L243.34,699z M631.34,690.88l-1.65-2.3c3.79-2.71,7.59-5.55,11.3-8.44l1.74,2.23
	c-3.82,2.92-7.65,5.78-11.47,8.51H631.34z M220.23,682.46c-3.71-2.89-7.43-5.91-11-9l1.83-2.16c3.58,3,7.27,6,11,8.9L220.23,682.46z
	 M653.75,673.46l-1.83-2.16c3.58-3,7.13-6.18,10.57-9.34l1.91,2.08c-3.54,3.14-7.12,6.31-10.73,9.37L653.75,673.46z M198.46,664.08
	c-3.49-3.21-6.94-6.52-10.26-9.84l2-2c3.29,3.29,6.72,6.58,10.17,9.76L198.46,664.08z M674.58,654.15l-2-2
	c3.31-3.31,6.6-6.73,9.76-10.18l2.09,1.92C681.23,647.36,677.92,650.81,674.58,654.15z M178.36,643.99c-3.2-3.47-6.37-7-9.41-10.64
	l2.16-1.83c3,3.56,6.16,7.11,9.33,10.55L178.36,643.99z M693.84,633.24l-2.16-1.83c3-3.57,6-7.26,8.9-11l2.23,1.74
	C699.91,625.94,696.89,629.64,693.84,633.24z M159.97,622.33c-2.9-3.72-5.76-7.55-8.5-11.38l2.3-1.64c2.72,3.8,5.56,7.59,8.43,11.28
	L159.97,622.33z M711.36,610.81l-2.3-1.64c2.72-3.82,5.4-7.73,8-11.64l2.37,1.55C716.77,603.02,714.07,606.94,711.36,610.81z
	 M143.44,599.24c-2.61-4-5.14-8-7.53-12l2.45-1.48c2.37,4,4.88,8,7.47,11.93L143.44,599.24z M726.88,587.03l-2.42-1.46
	c2.38-4,4.73-8.11,7-12.25l2.49,1.35C731.66,578.85,729.29,583,726.88,587.03L726.88,587.03z M128.88,574.88
	c-2.26-4.15-4.45-8.4-6.51-12.6l2.54-1.25c2.05,4.17,4.22,8.38,6.46,12.5L128.88,574.88z M740.45,562.03l-2.54-1.24
	c2.08-4.25,4.08-8.55,5.94-12.79l2.59,1.14c-1.89,4.27-3.9,8.61-6,12.89L740.45,562.03z M116.36,549.42
	c-1.89-4.29-3.72-8.7-5.45-13.09l2.64-1c1.71,4.35,3.52,8.72,5.4,13L116.36,549.42z M751.85,536l-2.63-1
	c1.69-4.34,3.33-8.8,4.85-13.24l2.68,0.92c-1.52,4.45-3.17,8.94-4.88,13.32H751.85z M106.01,523c-1.55-4.49-3-9-4.35-13.53
	l2.71-0.81c1.33,4.46,2.78,9,4.31,13.42L106.01,523z M761.08,509.12l-2.71-0.81c1.34-4.49,2.59-9.06,3.74-13.6l2.74,0.7
	c-1.13,4.53-2.4,9.17-3.75,13.7L761.08,509.12z M97.9,495.75c-1.17-4.59-2.24-9.25-3.21-13.81l2.77-0.58c1,4.55,2,9.17,3.18,13.73
	L97.9,495.75z M768.06,481.54l-2.77-0.58c1-4.56,1.83-9.23,2.6-13.86l2.79,0.46C769.9,472.23,769.02,476.94,768.06,481.54z
	 M92.06,467.94c-0.77-4.63-1.46-9.36-2-14.07l2.8-0.34c0.58,4.66,1.27,9.35,2,13.94L92.06,467.94z M772.71,453.48l-2.81-0.34
	c0.57-4.63,1.06-9.35,1.44-14l2.82,0.23C773.77,444.06,773.29,448.82,772.71,453.48L772.71,453.48z M88.55,439.74
	c-0.39-4.66-0.68-9.43-0.89-14.19l2.83-0.12c0.2,4.72,0.5,9.45,0.88,14.07L88.55,439.74z M775.03,425.14l-2.83-0.11
	c0.19-4.68,0.29-9.42,0.29-14.1h2.87C775.36,415.65,775.22,420.43,775.03,425.14L775.03,425.14z M90.19,411.34h-2.83v-0.4
	c0-4.61,0.09-9.25,0.27-13.83l2.83,0.11c-0.18,4.54-0.27,9.15-0.27,13.69V411.34z M772.19,396.13c-0.2-4.67-0.5-9.4-0.89-14.07
	l2.82-0.23c0.4,4.7,0.7,9.47,0.9,14.18L772.19,396.13z M91.32,383.13l-2.84-0.19c0.39-4.72,0.87-9.48,1.44-14.14l2.8,0.34
	c-0.56,4.63-1.04,9.35-1.42,14.03L91.32,383.13z M769.82,368.04c-0.58-4.62-1.27-9.31-2-14l2.79-0.46c0.78,4.67,1.47,9.4,2.06,14.06
	L769.82,368.04z M94.72,355.19l-2.79-0.46c0.77-4.67,1.64-9.38,2.59-14l2.77,0.58C96.36,345.94,95.48,350.56,94.72,355.19z
	 M765.15,340.24c-1-4.57-2-9.19-3.19-13.73l2.74-0.7c1.17,4.58,2.25,9.23,3.22,13.85L765.15,340.24z M100.44,327.58l-2.74-0.64
	c1.16-4.63,2.42-9.25,3.75-13.75l2.72,0.81C102.85,318.42,101.59,323,100.44,327.58z M758.21,312.94c-1.34-4.47-2.79-9-4.31-13.39
	l2.67-0.92c1.54,4.45,3,9,4.35,13.5L758.21,312.94z M108.46,300.5l-2.68-0.91c1.54-4.49,3.18-9,4.89-13.38l2.63,1
	C111.61,291.59,109.98,296.06,108.46,300.5z M749.03,286.35c-1.7-4.34-3.52-8.71-5.41-13l2.59-1.14c1.9,4.31,3.74,8.72,5.46,13.1
	L749.03,286.35z M118.7,274.19l-2.59-1.13c1.88-4.3,3.89-8.65,6-12.92l2.55,1.24C122.56,265.62,120.56,269.94,118.7,274.19z
	 M737.7,260.6c-2-4.16-4.22-8.36-6.47-12.51l2.48-1.35c2.28,4.18,4.47,8.42,6.53,12.61L737.7,260.6z M131.08,248.84l-2.49-1.35
	c2.24-4.13,4.6-8.29,7-12.37l2.43,1.45C135.64,240.61,133.3,244.74,131.08,248.84z M724.21,235.84c-2.41-4-4.93-8-7.49-11.94
	l2.37-1.55c2.57,3.93,5.11,8,7.55,12L724.21,235.84z M145.52,224.6l-2.37-1.55c2.58-3.94,5.28-7.9,8-11.74l2.3,1.64
	C150.76,216.77,148.08,220.69,145.52,224.6z M708.75,212.31c-2.72-3.79-5.56-7.58-8.45-11.28l2.23-1.75
	c2.91,3.74,5.78,7.56,8.52,11.38L708.75,212.31z M161.91,201.64l-2.24-1.7c2.9-3.71,5.91-7.43,9-11l2.16,1.83
	C167.77,194.27,164.78,197.94,161.91,201.64z M691.36,190.1c-3-3.55-6.16-7.09-9.35-10.55l2.08-1.92c3.21,3.48,6.39,7.06,9.42,10.64
	L691.36,190.1z M180.09,180.1l-2.08-1.91c3.18-3.46,6.49-6.91,9.84-10.27l2,2c-3.29,3.34-6.57,6.76-9.73,10.19L180.09,180.1z
	 M672.24,169.38c-3.3-3.29-6.73-6.58-10.18-9.75l1.91-2.08c3.48,3.2,6.94,6.5,10.27,9.83L672.24,169.38z M200.01,160.15l-1.92-2.08
	c3.46-3.19,7-6.36,10.64-9.42l1.83,2.15c-3.54,3.05-7.09,6.2-10.52,9.36L200.01,160.15z M651.47,150.31c-3.57-3-7.25-6-10.95-8.89
	l1.73-2.23c3.73,2.9,7.45,5.91,11.05,9L651.47,150.31z M221.52,141.94l-1.74-2.23c3.72-2.9,7.55-5.77,11.38-8.51l1.64,2.3
	C229.01,136.19,225.21,139.03,221.52,141.94z M629.24,133.04c-3.8-2.71-7.72-5.39-11.66-8l1.55-2.37c4,2.59,7.92,5.29,11.75,8
	L629.24,133.04z M244.43,125.5l-1.56-2.37c4-2.59,8-5.13,12-7.55l1.49,2.43C252.36,120.41,248.36,122.94,244.43,125.5z
	 M605.61,117.59c-4-2.39-8.14-4.74-12.27-7l1.34-2.49c4.16,2.25,8.33,4.61,12.38,7L605.61,117.59z M268.61,111.03l-1.36-2.49
	c4.14-2.25,8.38-4.44,12.62-6.52l1.24,2.53C276.9,106.62,272.7,108.8,268.61,111.03L268.61,111.03z M580.8,104.17
	c-4.21-2.06-8.52-4-12.81-5.93l1.13-2.59c4.33,1.89,8.67,3.9,12.92,6L580.8,104.17z M293.87,98.61l-1.14-2.59
	c2.49-1.1,5-2.18,7.54-3.22c1.85-0.76,3.72-1.51,5.59-2.24l1,2.63c-1.86,0.73-3.71,1.47-5.54,2.23
	C298.84,96.45,296.36,97.52,293.87,98.61z M554.93,92.86c-4.36-1.7-8.82-3.33-13.24-4.84l0.91-2.68c4.46,1.53,9,3.17,13.36,4.88
	L554.93,92.86z M320.12,88.32l-0.92-2.67c4.46-1.54,9-3,13.53-4.35l0.81,2.71C329.06,85.34,324.55,86.8,320.12,88.32z M528.25,83.74
	c-4.5-1.33-9.08-2.58-13.61-3.71l0.69-2.75c4.57,1.15,9.19,2.41,13.72,3.75L528.25,83.74z M347.13,80.25l-0.7-2.74
	c4.58-1.16,9.24-2.24,13.85-3.21l0.58,2.77C356.29,78.03,351.66,79.1,347.13,80.25z M500.9,76.88c-4.58-0.95-9.25-1.82-13.87-2.57
	l0.46-2.8c4.66,0.77,9.36,1.64,14,2.6L500.9,76.88z M374.71,74.46l-0.46-2.79c4.65-0.78,9.38-1.47,14.06-2.05l0.35,2.8
	C384.02,73,379.36,73.69,374.71,74.46z M473.07,72.31c-4.65-0.57-9.38-1.05-14-1.42l0.22-2.82c4.7,0.38,9.46,0.86,14.15,1.43
	L473.07,72.31z M402.69,70.94l-0.24-2.82c4.71-0.39,9.48-0.69,14.18-0.89l0.12,2.83C412.09,70.28,407.36,70.58,402.69,70.94z
	 M444.95,70.02c-4.5-0.18-9.08-0.27-13.61-0.27h-0.49v-2.81h0.51c4.57,0,9.19,0.09,13.73,0.27L444.95,70.02z"/>
</svg>
