<?xml version="1.0" encoding="utf-8"?>
<!-- Generator: Adobe Illustrator 26.1.0, SVG Export Plug-In . SVG Version: 6.00 Build 0)  -->
<svg version="1.1" xmlns="http://www.w3.org/2000/svg" xmlns:xlink="http://www.w3.org/1999/xlink" x="0px" y="0px"
	 viewBox="0 0 829.98 2068.73" style="enable-background:new 0 0 829.98 2068.73;" xml:space="preserve">
<style type="text/css">
	.st0{fill:#FFFFFF;}
</style>
<g id="Background">
</g>
<g id="Objects">
	<g>
		<path class="st0" d="M734.34,1947.27l18.57-18.57v-345.38l-18.57-18.57l18.57-18.57v-62.65l-18.57-18.57l18.57-18.57v-345.38
			l-18.57-18.57l18.57-18.57v-62.65l-18.57-18.57l18.57-18.57V618.7l-18.57-18.57l18.57-18.57v-62.65l-18.57-18.57l18.57-18.57
			V136.39l-18.57-18.57l18.57-18.57V67.93h-35.66V86.5l-7.11,7.11l-25.68-25.68h-48.42l-25.68,25.68l-25.68-25.68h-48.42
			l-25.68,25.68l-18.57-18.57h-30.12v-7.11h-35.66v7.11h-14.23v-7.11H376.3v7.11h-30.12l-18.57,18.57l-25.68-25.68H253.5
			l-25.68,25.68l-25.68-25.68h-48.42l-25.68,25.68l-7.11-7.11V67.93H85.25v31.33l18.57,18.57l-18.57,18.57v345.38l18.57,18.57
			l-18.57,18.57v62.65l18.57,18.57L85.25,618.7v345.38l18.57,18.57l-18.57,18.57v62.65l18.57,18.57l-18.57,18.57v345.38l18.57,18.57
			l-18.57,18.57v62.65l18.57,18.57l-18.57,18.57v345.38l18.57,18.57l-18.57,18.57v31.32h35.66v-18.57l7.11-7.11l25.68,25.69h48.42
			l25.68-25.69l25.68,25.69h48.42l25.68-25.69l18.57,18.57h30.12v7.11h35.66v-7.11h14.23v7.11h35.66v-7.11h30.12l18.57-18.57
			l25.68,25.69h48.42l25.68-25.69l25.68,25.69h48.42l25.68-25.69l7.11,7.11v18.57h35.66v-31.32L734.34,1947.27z M660.23,92.14
			l25.68,25.68l-25.68,25.68l-25.68-25.68L660.23,92.14z M660.23,1773.38l-17.37-17.37l17.37-17.37l7.11,7.11v20.51L660.23,1773.38z
			 M667.35,1828.91v37.14l-7.11,7.11l-7.11-7.11v-37.14l7.11-7.11L667.35,1828.91z M660.23,1690.22l-7.11-7.11v-37.14l7.11-7.11
			l7.11,7.11v37.14L660.23,1690.22z M660.23,1590.43l-25.68-25.68l25.68-25.69l25.68,25.69L660.23,1590.43z M636.02,1714.43
			l-17.37,17.37l-18.57-18.57h-62.65l-18.57,18.57l-25.68-25.69l7.11-7.11h102.93v-102.93l7.11-7.11l25.68,25.69l-18.57,18.57v62.65
			L636.02,1714.43z M594.44,1756.01l-7.11,7.11h-37.14l-7.11-7.11l7.11-7.11h37.14L594.44,1756.01z M238.07,1713.23l-18.57,18.57
			l-17.37-17.37l18.57-18.57v-62.65l-18.57-18.57l25.68-25.69l7.11,7.11V1699h102.93l7.11,7.11l-25.68,25.69l-18.57-18.57H238.07z
			 M295.08,1756.01l-7.11,7.11h-37.14l-7.11-7.11l7.11-7.11h37.14L295.08,1756.01z M177.92,1773.38l-7.11-7.11v-20.51l7.11-7.11
			l17.37,17.37L177.92,1773.38z M185.04,1828.91v37.14l-7.11,7.11l-7.11-7.11v-37.14l7.11-7.11L185.04,1828.91z M170.81,1683.11
			v-37.14l7.11-7.11l7.11,7.11v37.14l-7.11,7.11L170.81,1683.11z M177.92,1590.43l-25.68-25.68l25.68-25.69l25.68,25.69
			L177.92,1590.43z M177.92,291.71l17.37,17.37l-17.37,17.37l-7.11-7.11v-20.51L177.92,291.71z M170.81,236.18v-37.14l7.11-7.11
			l7.11,7.11v37.14l-7.11,7.11L170.81,236.18z M177.92,374.87l7.11,7.11v37.14l-7.11,7.11l-7.11-7.11v-37.14L177.92,374.87z
			 M177.92,474.66l25.68,25.68l-25.68,25.68l-25.68-25.68L177.92,474.66z M202.13,350.66l17.37-17.37l18.57,18.57h62.65l18.57-18.57
			l25.68,25.68l-7.11,7.11H234.93v102.93l-7.11,7.11l-25.68-25.68l18.57-18.57v-62.65L202.13,350.66z M243.71,309.08l7.11-7.11
			h37.14l7.11,7.11l-7.11,7.11h-37.14L243.71,309.08z M600.08,351.86l18.57-18.57l17.37,17.37l-18.57,18.57v62.65l18.57,18.57
			l-25.68,25.68l-7.11-7.11V366.09H500.3l-7.11-7.11l25.68-25.68l18.57,18.57H600.08z M543.08,309.08l7.11-7.11h37.14l7.11,7.11
			l-7.11,7.11h-37.14L543.08,309.08z M636.02,749.81l-17.37,17.37l-18.57-18.57h-62.65l-18.57,18.57l-25.68-25.68l7.11-7.11h102.93
			V631.46l7.11-7.11l25.68,25.68l-18.57,18.57v62.65L636.02,749.81z M636.02,932.76l-25.68,25.68l-7.11-7.11V848.4H500.3l-7.11-7.11
			l25.68-25.68l18.57,18.57h62.65l18.57-18.57l17.37,17.37l-18.57,18.57v62.65L636.02,932.76z M252.03,1564.75l25.68-25.69
			l25.68,25.69l-18.57,18.57v65.79h65.79l18.57-18.57l25.68,25.69l-25.68,25.69l-18.57-18.57H270.6v-80.02L252.03,1564.75z
			 M202.13,832.97l17.37-17.37l18.57,18.57h62.65l18.57-18.57l25.68,25.68l-7.11,7.11H234.93v102.93l-7.11,7.11l-25.68-25.68
			l18.57-18.57v-62.65L202.13,832.97z M202.13,650.03l25.68-25.68l7.11,7.11v102.93h102.93l7.11,7.11l-25.68,25.68l-18.57-18.57
			h-62.65l-18.57,18.57l-17.37-17.37l18.57-18.57V668.6L202.13,650.03z M586.13,500.34l-25.68,25.68l-25.68-25.68l18.57-18.57
			v-65.79h-65.79l-18.57,18.57l-25.68-25.68l25.68-25.68l18.57,18.57h80.02v80.02L586.13,500.34z M586.13,982.65l-25.68,25.68
			l-25.68-25.68l18.57-18.57v-65.79h-65.79l-18.57,18.57l-25.68-25.68l25.68-25.68l18.57,18.57h80.02v80.02L586.13,982.65z
			 M586.13,1464.96l-25.68,25.69l-25.68-25.69l18.57-18.57v-65.79h-65.79l-18.57,18.57l-25.68-25.69l25.68-25.69l18.57,18.57h80.02
			v80.02L586.13,1464.96z M510.55,1540.54l-18.57-18.57h-30.12v-14.23h30.12l18.57-18.57l25.68,25.69L510.55,1540.54z
			 M517.66,1596.07v17.37H500.3l-7.11-7.11l17.37-17.37L517.66,1596.07z M486.34,1564.75l-17.37,17.37l-7.11-7.11v-17.37h17.37
			L486.34,1564.75z M461.86,1472.08v-17.37l7.11-7.11l17.37,17.37l-7.11,7.11H461.86z M493.18,1423.38l7.11-7.11h17.37v17.37
			l-7.11,7.11L493.18,1423.38z M346.17,1521.97l-18.57,18.57l-25.68-25.69l25.68-25.69l18.57,18.57h30.12v14.23H346.17z
			 M376.3,1557.64V1575l-7.11,7.11l-17.37-17.37l7.11-7.11H376.3z M344.97,1606.33l-7.11,7.11h-17.37v-17.37l7.11-7.11
			L344.97,1606.33z M320.49,1433.64v-17.37h17.37l7.11,7.11l-17.37,17.37L320.49,1433.64z M358.93,1472.08l-7.11-7.11l17.37-17.37
			l7.11,7.11v17.37H358.93z M369.18,1399.17l-18.57-18.57h-65.79v65.79l18.57,18.57l-25.68,25.69l-25.68-25.69l18.57-18.57v-80.02
			h80.02l18.57-18.57l25.68,25.69L369.18,1399.17z M252.03,1082.44l25.68-25.69l25.68,25.69l-18.57,18.57v65.79h65.79l18.57-18.57
			l25.68,25.69l-25.68,25.69l-18.57-18.57H270.6v-80.02L252.03,1082.44z M252.03,600.13l25.68-25.68l25.68,25.68l-18.57,18.57v65.79
			h65.79l18.57-18.57l25.68,25.68l-25.68,25.68l-18.57-18.57H270.6V618.7L252.03,600.13z M327.61,524.55l18.57,18.57h30.12v14.23
			h-30.12l-18.57,18.57l-25.68-25.68L327.61,524.55z M320.49,469.02v-17.37h17.37l7.11,7.11l-17.37,17.37L320.49,469.02z
			 M351.81,500.34l17.37-17.37l7.11,7.11v17.37h-17.37L351.81,500.34z M376.3,593.02v17.37l-7.11,7.11l-17.37-17.37l7.11-7.11H376.3
			z M344.97,641.71l-7.11,7.11h-17.37v-17.37l7.11-7.11L344.97,641.71z M411.96,507.46v-30.12l-18.57-18.57l25.68-25.68l25.68,25.68
			l-18.57,18.57v30.12H411.96z M426.19,543.12v14.23h-14.23v-14.23H426.19z M411.96,623.14v-30.12h14.23v30.12l18.57,18.57
			l-25.68,25.68l-25.68-25.68L411.96,623.14z M393.39,1223.81l25.68-25.68l25.68,25.68l-25.68,25.69L393.39,1223.81z M444.76,1323.6
			l-25.68,25.68l-25.68-25.68l25.68-25.69L444.76,1323.6z M393.39,1124.02l18.57-18.57v-30.12h14.23v30.12l18.57,18.57l-25.69,25.69
			L393.39,1124.02z M411.96,1039.66v-14.23h14.23v14.23H411.96z M426.19,959.64v30.12h-14.23v-30.12l-18.57-18.57l25.68-25.68
			l25.68,25.68L426.19,959.64z M393.39,841.29l25.68-25.68l25.68,25.68l-25.68,25.68L393.39,841.29z M393.39,741.5l25.68-25.68
			l25.68,25.68l-25.68,25.68L393.39,741.5z M369.18,765.71l25.68,25.68l-25.68,25.68l-25.68-25.68L369.18,765.71z M369.18,865.5
			l25.68,25.68l-25.68,25.68l-18.57-18.57h-65.79v65.79l18.57,18.57l-25.68,25.68l-25.68-25.68l18.57-18.57v-80.02h80.02
			L369.18,865.5z M346.17,1039.66l-18.57,18.57l-25.68-25.69l25.68-25.68l18.57,18.57h30.12v14.23H346.17z M376.3,1075.33v17.37
			l-7.11,7.11l-17.37-17.37l7.11-7.11H376.3z M344.97,1124.02l-7.11,7.11h-17.37v-17.37l7.11-7.11L344.97,1124.02z M320.49,951.33
			v-17.37h17.37l7.11,7.11l-17.37,17.37L320.49,951.33z M358.93,989.77l-7.11-7.11l17.37-17.37l7.11,7.11v17.37H358.93z
			 M369.18,1248.02l25.68,25.69l-25.68,25.69l-25.68-25.69L369.18,1248.02z M426.19,1557.64v30.12l18.57,18.57l-25.69,25.69
			l-25.69-25.69l18.57-18.57v-30.12H426.19z M411.96,1521.97v-14.23h14.23v14.23H411.96z M426.19,1441.96v30.12h-14.23v-30.12
			l-18.57-18.57l25.69-25.69l25.69,25.69L426.19,1441.96z M468.97,1299.39l-25.68-25.69l25.68-25.69l25.68,25.69L468.97,1299.39z
			 M468.97,1199.6l-25.68-25.69l25.68-25.69l18.57,18.57h65.79v-65.79l-18.57-18.57l25.68-25.69l25.68,25.69l-18.57,18.57v80.02
			h-80.02L468.97,1199.6z M491.98,1025.43l18.57-18.57l25.68,25.68l-25.68,25.69l-18.57-18.57h-30.12v-14.23H491.98z M461.86,989.77
			V972.4l7.11-7.11l17.37,17.37l-7.11,7.11H461.86z M493.18,941.08l7.11-7.11h17.37v17.37l-7.11,7.11L493.18,941.08z
			 M517.66,1113.76v17.37H500.3l-7.11-7.11l17.37-17.37L517.66,1113.76z M479.23,1075.33l7.11,7.11l-17.37,17.37l-7.11-7.11v-17.37
			H479.23z M468.97,817.08l-25.68-25.68l25.68-25.68l25.68,25.68L468.97,817.08z M468.97,717.29l-25.68-25.68l25.68-25.68
			l18.57,18.57h65.79V618.7l-18.57-18.57l25.68-25.68l25.68,25.68l-18.57,18.57v80.02h-80.02L468.97,717.29z M491.98,543.12
			l18.57-18.57l25.68,25.68l-25.68,25.68l-18.57-18.57h-30.12v-14.23H491.98z M461.86,507.46v-17.37l7.11-7.11l17.37,17.37
			l-7.11,7.11H461.86z M493.18,458.77l7.11-7.11h17.37v17.37l-7.11,7.11L493.18,458.77z M517.66,631.46v17.37H500.3l-7.11-7.11
			l17.37-17.37L517.66,631.46z M479.23,593.02l7.11,7.11l-17.37,17.37l-7.11-7.11v-17.37H479.23z M419.08,384.66l-25.68-25.68
			l25.68-25.68l25.68,25.68L419.08,384.66z M394.87,408.87l-25.68,25.68l-18.57-18.57h-65.79v65.79l18.57,18.57l-25.68,25.68
			l-25.68-25.68l18.57-18.57v-80.02h80.02l18.57-18.57L394.87,408.87z M253.5,550.24l-25.68,25.68l-25.68-25.68l25.68-25.68
			L253.5,550.24z M295.08,791.39l-7.11,7.11h-37.14l-7.11-7.11l7.11-7.11h37.14L295.08,791.39z M253.5,1032.55l-25.68,25.69
			l-25.68-25.69l25.68-25.68L253.5,1032.55z M234.93,1113.76v102.93h102.93l7.11,7.11l-25.68,25.69l-18.57-18.57h-62.65
			l-18.57,18.57l-17.37-17.37l18.57-18.57v-62.65l-18.57-18.57l25.68-25.69L234.93,1113.76z M295.08,1273.7l-7.11,7.11h-37.14
			l-7.11-7.11l7.11-7.11h37.14L295.08,1273.7z M202.13,1315.28l17.37-17.37l18.57,18.57h62.65l18.57-18.57l25.68,25.69l-7.11,7.11
			H234.93v102.93l-7.11,7.11l-25.68-25.69l18.57-18.57v-62.65L202.13,1315.28z M253.5,1514.86l-25.68,25.69l-25.68-25.69
			l25.68-25.69L253.5,1514.86z M419.08,1680.43l25.68,25.68l-25.68,25.69l-25.68-25.69L419.08,1680.43z M443.29,1656.22l25.68-25.69
			l18.57,18.57h65.79v-65.79l-18.57-18.57l25.68-25.69l25.68,25.69l-18.57,18.57v80.02h-80.02l-18.57,18.57L443.29,1656.22z
			 M584.65,1514.86l25.68-25.69l25.68,25.69l-25.68,25.69L584.65,1514.86z M603.22,1433.64v-102.93H500.3l-7.11-7.11l25.68-25.69
			l18.57,18.57h62.65l18.57-18.57l17.37,17.37l-18.57,18.57v62.65l18.57,18.57l-25.68,25.69L603.22,1433.64z M543.08,1273.7
			l7.11-7.11h37.14l7.11,7.11l-7.11,7.11h-37.14L543.08,1273.7z M636.02,1232.12l-17.37,17.37l-18.57-18.57h-62.65l-18.57,18.57
			l-25.68-25.69l7.11-7.11h102.93v-102.93l7.11-7.11l25.68,25.69l-18.57,18.57v62.65L636.02,1232.12z M584.65,1032.55l25.68-25.68
			l25.68,25.68l-25.68,25.69L584.65,1032.55z M543.08,791.39l7.11-7.11h37.14l7.11,7.11l-7.11,7.11h-37.14L543.08,791.39z
			 M584.65,550.24l25.68-25.68l25.68,25.68l-25.68,25.68L584.65,550.24z M468.97,334.77l-25.68-25.68l25.68-25.68l25.68,25.68
			L468.97,334.77z M419.08,284.87l-25.68-25.68l25.68-25.68l25.68,25.68L419.08,284.87z M394.87,309.08l-25.68,25.68l-25.68-25.68
			l25.68-25.68L394.87,309.08z M203.61,600.13l-25.68,25.68l-25.68-25.68l25.68-25.68L203.61,600.13z M177.92,774.02l17.37,17.37
			l-17.37,17.37l-7.11-7.11v-20.51L177.92,774.02z M170.81,718.49v-37.14l7.11-7.11l7.11,7.11v37.14l-7.11,7.11L170.81,718.49z
			 M170.81,864.29l7.11-7.11l7.11,7.11v37.14l-7.11,7.11l-7.11-7.11V864.29z M177.92,956.97l25.68,25.68l-25.68,25.68l-25.68-25.68
			L177.92,956.97z M203.61,1082.44l-25.68,25.68l-25.68-25.68l25.68-25.69L203.61,1082.44z M177.92,1256.33l17.37,17.37
			l-17.37,17.37l-7.11-7.11v-20.51L177.92,1256.33z M170.81,1200.8v-37.14l7.11-7.11l7.11,7.11v37.14l-7.11,7.11L170.81,1200.8z
			 M170.81,1346.6l7.11-7.11l7.11,7.11v37.14l-7.11,7.11l-7.11-7.11V1346.6z M177.92,1439.28l25.68,25.68l-25.68,25.69l-25.68-25.69
			L177.92,1439.28z M369.18,1730.33l25.68,25.69l-25.68,25.69l-25.68-25.69L369.18,1730.33z M419.08,1780.22l25.68,25.69
			l-25.68,25.68l-25.68-25.68L419.08,1780.22z M443.29,1756.01l25.68-25.69l25.68,25.69l-25.68,25.69L443.29,1756.01z
			 M634.55,1464.96l25.68-25.68l25.68,25.68l-25.68,25.69L634.55,1464.96z M660.23,1291.07l-17.37-17.37l17.37-17.37l7.11,7.11
			v20.51L660.23,1291.07z M667.35,1346.6v37.14l-7.11,7.11l-7.11-7.11v-37.14l7.11-7.11L667.35,1346.6z M667.35,1200.8l-7.11,7.11
			l-7.11-7.11v-37.14l7.11-7.11l7.11,7.11V1200.8z M660.23,1108.13l-25.68-25.68l25.68-25.69l25.68,25.69L660.23,1108.13z
			 M634.55,982.65l25.68-25.68l25.68,25.68l-25.68,25.68L634.55,982.65z M660.23,808.76l-17.37-17.37l17.37-17.37l7.11,7.11v20.51
			L660.23,808.76z M667.35,864.29v37.14l-7.11,7.11l-7.11-7.11v-37.14l7.11-7.11L667.35,864.29z M667.35,718.49l-7.11,7.11
			l-7.11-7.11v-37.14l7.11-7.11l7.11,7.11V718.49z M660.23,625.82l-25.68-25.68l25.68-25.68l25.68,25.68L660.23,625.82z
			 M634.55,500.34l25.68-25.68l25.68,25.68l-25.68,25.68L634.55,500.34z M660.23,326.45l-17.37-17.37l17.37-17.37l7.11,7.11v20.51
			L660.23,326.45z M667.35,381.98v37.14l-7.11,7.11l-7.11-7.11v-37.14l7.11-7.11L667.35,381.98z M667.35,236.18l-7.11,7.11
			l-7.11-7.11v-37.14l7.11-7.11l7.11,7.11V236.18z M603.22,149.15l7.11-7.11l25.68,25.68l-18.57,18.57v62.65l18.57,18.57
			l-17.37,17.37l-18.57-18.57h-62.65l-18.57,18.57l-25.68-25.68l7.11-7.11h102.93V149.15z M510.55,142.03l7.11,7.11v17.37H500.3
			l-7.11-7.11L510.55,142.03z M553.33,202.18v-65.79l-18.57-18.57l25.68-25.68l25.68,25.68l-18.57,18.57v80.02h-80.02l-18.57,18.57
			l-25.68-25.68l25.68-25.68l18.57,18.57H553.33z M461.86,110.71h17.37l7.11,7.11l-17.37,17.37l-7.11-7.11V110.71z M411.96,140.83
			v-30.12h14.23v30.12l18.57,18.57l-25.68,25.68l-25.68-25.68L411.96,140.83z M358.93,110.71h17.37v17.37l-7.11,7.11l-17.37-17.37
			L358.93,110.71z M320.49,149.15l7.11-7.11l17.37,17.37l-7.11,7.11h-17.37V149.15z M277.71,92.14l25.68,25.68l-18.57,18.57v65.79
			h65.79l18.57-18.57l25.68,25.68l-25.68,25.68l-18.57-18.57H270.6v-80.02l-18.57-18.57L277.71,92.14z M234.93,149.15v102.93h102.93
			l7.11,7.11l-25.68,25.68l-18.57-18.57h-62.65l-18.57,18.57l-17.37-17.37l18.57-18.57v-62.65l-18.57-18.57l25.68-25.68
			L234.93,149.15z M177.92,92.14l25.68,25.68l-25.68,25.68l-25.68-25.68L177.92,92.14z M120.91,149.15l7.11-7.11l25.68,25.68
			l-18.57,18.57v62.65l18.57,18.57l-18.57,18.57v46.02l18.57,18.57l-18.57,18.57v62.65l18.57,18.57l-25.68,25.68l-7.11-7.11V149.15z
			 M120.91,531.67l7.11-7.11l25.68,25.68l-25.68,25.68l-7.11-7.11V531.67z M120.91,631.46l7.11-7.11l25.68,25.68l-18.57,18.57v62.65
			l18.57,18.57l-18.57,18.57v46.02l18.57,18.57l-18.57,18.57v62.65l18.57,18.57l-25.68,25.68l-7.11-7.11V631.46z M120.91,1013.98
			l7.11-7.11l25.68,25.68l-25.68,25.69l-7.11-7.11V1013.98z M120.91,1113.76l7.11-7.11l25.68,25.69l-18.57,18.57v62.65l18.57,18.57
			l-18.57,18.57v46.02l18.57,18.57l-18.57,18.57v62.65l18.57,18.57l-25.68,25.69l-7.11-7.11V1113.76z M120.91,1496.29l7.11-7.11
			l25.68,25.69l-25.68,25.69l-7.11-7.11V1496.29z M120.91,1915.95v-319.88l7.11-7.11l25.68,25.69l-18.57,18.57v62.65l18.57,18.57
			L135.14,1733v46.02l18.57,18.57l-18.57,18.57v62.65l18.57,18.57l-25.68,25.69L120.91,1915.95z M177.92,1972.96l-25.68-25.69
			l25.68-25.68l25.68,25.68L177.92,1972.96z M234.93,1915.95l-7.11,7.11l-25.68-25.69l18.57-18.57v-62.65l-18.57-18.57l17.37-17.37
			l18.57,18.57h62.65l18.57-18.57l25.68,25.69l-7.11,7.11H234.93V1915.95z M327.61,1923.06l-7.11-7.11v-17.37h17.37l7.11,7.11
			L327.61,1923.06z M284.83,1862.91v65.79l18.57,18.57l-25.68,25.69l-25.68-25.69l18.57-18.57v-80.02h80.02l18.57-18.57l25.68,25.69
			l-25.68,25.69l-18.57-18.57H284.83z M376.3,1954.39h-17.37l-7.11-7.11l17.37-17.37l7.11,7.11V1954.39z M426.19,1924.27v30.12
			h-14.23v-30.12l-18.57-18.57l25.69-25.69l25.69,25.69L426.19,1924.27z M479.23,1954.39h-17.37v-17.37l7.11-7.11l17.37,17.37
			L479.23,1954.39z M517.66,1915.95l-7.11,7.11l-17.37-17.37l7.11-7.11h17.37V1915.95z M560.44,1972.96l-25.68-25.69l18.57-18.57
			v-65.79h-65.79l-18.57,18.57l-25.68-25.69l25.68-25.69l18.57,18.57h80.02v80.02l18.57,18.57L560.44,1972.96z M603.22,1915.95
			v-102.93H500.3l-7.11-7.11l25.68-25.69l18.57,18.57h62.65l18.57-18.57l17.37,17.37l-18.57,18.57v62.65l18.57,18.57l-25.68,25.69
			L603.22,1915.95z M660.23,1972.96l-25.68-25.69l25.68-25.68l25.68,25.68L660.23,1972.96z M717.24,1915.95l-7.11,7.11l-25.68-25.69
			l18.57-18.57v-62.65l-18.57-18.57l18.57-18.57V1733l-18.57-18.57l18.57-18.57v-62.65l-18.57-18.57l25.68-25.69l7.11,7.11V1915.95z
			 M717.24,1533.43l-7.11,7.11l-25.68-25.69l25.68-25.69l7.11,7.11V1533.43z M717.24,1433.64l-7.11,7.11l-25.68-25.69l18.57-18.57
			v-62.65l-18.57-18.57l18.57-18.57v-46.02l-18.57-18.57l18.57-18.57v-62.65l-18.57-18.57l25.68-25.69l7.11,7.11V1433.64z
			 M717.24,1051.12l-7.11,7.11l-25.68-25.69l25.68-25.68l7.11,7.11V1051.12z M717.24,951.33l-7.11,7.11l-25.68-25.68l18.57-18.57
			v-62.65l-18.57-18.57l18.57-18.57v-46.02l-18.57-18.57l18.57-18.57V668.6l-18.57-18.57l25.68-25.68l7.11,7.11V951.33z
			 M717.24,568.81l-7.11,7.11l-25.68-25.68l25.68-25.68l7.11,7.11V568.81z M717.24,469.02l-7.11,7.11l-25.68-25.68l18.57-18.57
			v-62.65l-18.57-18.57l18.57-18.57v-46.02l-18.57-18.57l18.57-18.57v-62.65l-18.57-18.57l25.68-25.68l7.11,7.11V469.02z"/>
	</g>
</g>
<g id="Text">
</g>
</svg>
