<?xml version="1.0" encoding="utf-8"?>
<!-- Generator: Adobe Illustrator 26.1.0, SVG Export Plug-In . SVG Version: 6.00 Build 0)  -->
<svg version="1.1" id="Layer_1" xmlns="http://www.w3.org/2000/svg" xmlns:xlink="http://www.w3.org/1999/xlink" x="0px" y="0px"
	 viewBox="0 0 830 2068.7" style="enable-background:new 0 0 830 2068.7;" xml:space="preserve">
<style type="text/css">
	.st0{fill:#FFFFFF;}
</style>
<g id="Background">
</g>
<g id="Objects">
	<g>
		<path class="st0" d="M794.1,1992.3l22.5-19.5v-363.5l-22.5-19.5l22.5-19.5v-65.9l-22.5-19.5l22.5-19.5v-363.5l-22.5-19.5
			l22.5-19.5v-65.9l-22.5-19.5l22.5-19.5V593.8l-22.5-19.5l22.5-19.5v-65.9l-22.5-19.5l22.5-19.5V86.2l-22.5-19.5l22.5-19.5v-33
			h-43.1v19.5l-8.6,7.5l-31.1-27h-58.5l-31.1,27l-31.1-27h-58.5l-31.1,27L501,21.6h-36.4v-7.5h-43.1v7.5h-17.2v-7.5h-43.2v7.5h-36.4
			l-22.5,19.5l-31.1-27h-58.6l-31.1,27l-31.1-27H92l-31.1,27l-8.6-7.5V14.1H9.2v33l22.5,19.5L9.2,86.2v363.5l22.5,19.5L9.2,488.8
			v65.9l22.5,19.5L9.2,593.8v363.5l22.5,19.5L9.2,996.5v65.9l22.5,19.5l-22.5,19.5V1465l22.5,19.5l-22.5,19.5v65.9l22.5,19.5
			l-22.5,19.5v363.5l22.5,19.5l-22.5,19.5v33h43.1v-19.5l8.6-7.5l31.1,27h58.5l31.1-27l31.1,27h58.5l31.1-27l22.5,19.5h36.4v7.5
			h43.1v-7.5h17.2v7.5h43.1v-7.5H501l22.5-19.5l31.1,27H613l31.1-27l31.1,27h58.5l31.1-27l8.6,7.5v19.5h43.1v-33L794.1,1992.3z
			 M704.4,39.6l31.1,27l-31.1,27l-31.1-27L704.4,39.6z M704.4,1809.2l-21-18.3l21-18.3l8.6,7.5v21.6L704.4,1809.2z M713.1,1867.7
			v39.1l-8.6,7.5l-8.6-7.5v-39.1l8.6-7.5L713.1,1867.7z M704.4,1721.7l-8.6-7.5v-39.1l8.6-7.5l8.6,7.5v39.1L704.4,1721.7z
			 M704.4,1616.7l-31.1-27l31.1-27l31.1,27L704.4,1616.7z M675.2,1747.2l-21,18.3l-22.5-19.5H556l-22.5,19.5l-31.1-27l8.6-7.5h124.5
			v-108.3l8.6-7.5l31.1,27l-22.5,19.5v65.9L675.2,1747.2z M624.9,1790.9l-8.6,7.5h-44.9l-8.6-7.5l8.6-7.5h44.9L624.9,1790.9z
			 M194,1745.9l-22.5,19.5l-21-18.3l22.5-19.5v-65.9l-22.5-19.5l31.1-27l8.6,7.5v108.4h124.5l8.6,7.5l-31.1,27l-22.5-19.5H194z
			 M262.9,1790.9l-8.6,7.5h-44.9l-8.6-7.5l8.6-7.5h44.9L262.9,1790.9z M121.3,1809.2l-8.6-7.5v-21.6l8.6-7.5l21,18.3L121.3,1809.2z
			 M129.9,1867.7v39.1l-8.6,7.5l-8.6-7.5v-39.1l8.6-7.5L129.9,1867.7z M112.7,1714.2v-39.1l8.6-7.5l8.6,7.5v39.1l-8.6,7.5
			L112.7,1714.2z M121.3,1616.7l-31.1-27l31.1-27l31.1,27L121.3,1616.7z M121.3,249.7l21,18.3l-21,18.3l-8.6-7.5v-21.6L121.3,249.7z
			 M112.7,191.2v-39.1l8.6-7.5l8.6,7.5v39.1l-8.6,7.5L112.7,191.2z M121.3,337.2l8.6,7.5v39.1l-8.6,7.5l-8.6-7.5v-39.1L121.3,337.2z
			 M121.3,442.2l31.1,27l-31.1,27l-31.1-27L121.3,442.2z M150.5,311.7l21-18.3L194,313h75.8l22.5-19.5l31.1,27l-8.6,7.5H190.2v108.3
			l-8.6,7.5l-31.1-27l22.5-19.5v-65.9L150.5,311.7z M200.8,267.9l8.6-7.5h44.9l8.6,7.5l-8.6,7.5h-44.9L200.8,267.9z M631.7,313
			l22.5-19.5l21,18.3l-22.5,19.5v65.9l22.5,19.5l-31.1,27l-8.6-7.5V327.9H511.1l-8.6-7.5l31.1-27L556,313L631.7,313L631.7,313z
			 M562.8,267.9l8.6-7.5h44.9l8.6,7.5l-8.6,7.5h-44.9L562.8,267.9z M675.2,731.8l-21,18.3l-22.5-19.5H556l-22.5,19.5l-31.1-27
			l8.6-7.5h124.5V607.3l8.6-7.5l31.1,27l-22.5,19.5v65.9L675.2,731.8z M675.2,924.4l-31.1,27l-8.6-7.5V835.6H511.1l-8.6-7.5l31.1-27
			l22.5,19.5h75.8l22.5-19.5l21,18.3l-22.5,19.5v65.9L675.2,924.4z M210.9,1589.6l31.1-27l31.1,27l-22.5,19.5v69.2h79.6l22.5-19.5
			l31.1,27l-31.1,27l-22.5-19.5h-96.7v-84.2L210.9,1589.6z M150.5,819.4l21-18.3l22.5,19.5h75.8l22.5-19.5l31.1,27l-8.6,7.5H190.2
			v108.3l-8.6,7.5l-31.1-27l22.5-19.5v-65.9L150.5,819.4z M150.5,626.8l31.1-27l8.6,7.5v108.3h124.5l8.6,7.5l-31.1,27l-22.5-19.5
			H194l-22.5,19.5l-21-18.3l22.5-19.5v-65.9L150.5,626.8z M614.8,469.3l-31.1,27l-31.1-27l22.5-19.5v-69.2h-79.6L473.2,400l-31.1-27
			l31.1-27l22.5,19.5h96.8v84.2L614.8,469.3z M614.8,976.9l-31.1,27l-31.1-27l22.5-19.5v-69.2h-79.6l-22.5,19.5l-31.1-27l31.1-27
			l22.5,19.5h96.8v84.2L614.8,976.9z M614.8,1484.6l-31.1,27l-31.1-27l22.5-19.5v-69.2h-79.6l-22.5,19.5l-31.1-27l31.1-27l22.5,19.5
			h96.8v84.2L614.8,1484.6z M523.5,1564.1l-22.5-19.5h-36.4v-15H501l22.5-19.5l31.1,27L523.5,1564.1z M532.1,1622.6v18.3h-21
			l-8.6-7.5l21-18.3L532.1,1622.6z M494.2,1589.6l-21,18.3l-8.6-7.5v-18.3h21L494.2,1589.6z M464.6,1492.1v-18.3l8.6-7.5l21,18.3
			l-8.6,7.5H464.6z M502.5,1440.8l8.6-7.5h21v18.3l-8.6,7.5L502.5,1440.8z M324.7,1544.6l-22.5,19.5l-31.1-27l31.1-27l22.5,19.5
			h36.4v15L324.7,1544.6L324.7,1544.6z M361.1,1582.1v18.3l-8.6,7.5l-21-18.3l8.6-7.5L361.1,1582.1L361.1,1582.1z M323.2,1633.4
			l-8.6,7.5h-21v-18.3l8.6-7.5L323.2,1633.4z M293.6,1451.6v-18.3h21l8.6,7.5l-21,18.3L293.6,1451.6z M340.1,1492.1l-8.6-7.5
			l21-18.3l8.6,7.5v18.3H340.1z M352.5,1415.3l-22.5-19.5h-79.6v69.2l22.5,19.5l-31.1,27l-31.1-27l22.5-19.5v-84.2h96.8l22.5-19.5
			l31.1,27L352.5,1415.3z M210.9,1082l31.1-27l31.1,27l-22.5,19.5v69.2h79.6l22.5-19.5l31.1,27l-31.1,27l-22.5-19.5h-96.7v-84.2
			L210.9,1082z M210.9,574.3l31.1-27l31.1,27l-22.5,19.5v69.2h79.6l22.5-19.5l31.1,27l-31.1,27l-22.5-19.5h-96.7v-84.2L210.9,574.3z
			 M302.3,494.7l22.5,19.5h36.4v15h-36.4l-22.5,19.5l-31.1-27L302.3,494.7z M293.6,436.3V418h21l8.6,7.5l-21,18.3L293.6,436.3z
			 M331.5,469.3l21-18.3l8.6,7.5v18.3h-21L331.5,469.3z M361.1,566.8v18.3l-8.6,7.5l-21-18.3l8.6-7.5H361.1z M323.2,618.1l-8.6,7.5
			h-21v-18.3l8.6-7.5L323.2,618.1z M404.2,476.8V445l-22.5-19.5l31.1-27l31.1,27L421.4,445v31.7H404.2z M421.5,514.3v15h-17.2v-15
			H421.5z M404.2,598.5v-31.7h17.2v31.7l22.5,19.5l-31.1,27l-31.1-27L404.2,598.5z M381.8,1230.8l31.1-27l31.1,27l-31.1,27
			L381.8,1230.8z M443.9,1335.8l-31.1,27l-31.1-27l31.1-27L443.9,1335.8z M381.8,1125.7l22.5-19.5v-31.7h17.2v31.7l22.5,19.5
			l-31.1,27L381.8,1125.7z M404.2,1036.9v-15h17.2v15H404.2z M421.5,952.7v31.7h-17.2v-31.7l-22.5-19.5l31.1-27l31.1,27L421.5,952.7
			z M381.8,828.1l31.1-27l31.1,27l-31.1,27L381.8,828.1z M381.8,723.1l31.1-27l31.1,27l-31.1,27L381.8,723.1z M352.5,748.6l31.1,27
			l-31.1,27l-31.1-27L352.5,748.6z M352.5,853.6l31.1,27l-31.1,27l-22.5-19.5h-79.6v69.2l22.5,19.5l-31.1,27l-31.1-27l22.5-19.5
			v-84.2h96.8L352.5,853.6z M324.7,1036.9l-22.5,19.5l-31.1-27l31.1-27l22.5,19.5h36.4v15H324.7z M361.1,1074.5v18.3l-8.6,7.5
			l-21-18.3l8.6-7.5H361.1z M323.2,1125.7l-8.6,7.5h-21v-18.3l8.6-7.5L323.2,1125.7z M293.6,944v-18.3h21l8.6,7.5l-21,18.3
			L293.6,944z M340.1,984.4l-8.6-7.5l21-18.3l8.6,7.5v18.3H340.1z M352.5,1256.2l31.1,27l-31.1,27l-31.1-27L352.5,1256.2z
			 M421.5,1582.1v31.7l22.5,19.5l-31.1,27l-31.1-27l22.5-19.5v-31.7H421.5z M404.2,1544.6v-15h17.2v15H404.2z M421.5,1460.4v31.7
			h-17.2v-31.7l-22.5-19.5l31.1-27l31.1,27L421.5,1460.4z M473.2,1310.3l-31.1-27l31.1-27l31.1,27L473.2,1310.3z M473.2,1205.3
			l-31.1-27l31.1-27l22.5,19.5h79.6v-69.2l-22.5-19.5l31.1-27l31.1,27l-22.5,19.5v84.2h-96.8L473.2,1205.3z M501,1022l22.5-19.5
			l31.1,27l-31.1,27l-22.5-19.5h-36.4v-15H501z M464.6,984.4v-18.3l8.6-7.5l21,18.3l-8.6,7.5H464.6z M502.5,933.2l8.6-7.5h21V944
			l-8.6,7.5L502.5,933.2z M532.1,1114.9v18.3h-21l-8.6-7.5l21-18.3L532.1,1114.9z M485.6,1074.5l8.6,7.5l-21,18.3l-8.6-7.5v-18.3
			H485.6z M473.2,802.6l-31.1-27l31.1-27l31.1,27L473.2,802.6z M473.2,697.6l-31.1-27l31.1-27l22.5,19.5h79.6v-69.3l-22.5-19.5
			l31.1-27l31.1,27l-22.5,19.5v84.2h-96.8L473.2,697.6z M501,514.3l22.5-19.5l31.1,27l-31.1,27L501,529.3h-36.4v-15L501,514.3
			L501,514.3z M464.6,476.8v-18.3l8.6-7.5l21,18.3l-8.6,7.5H464.6z M502.5,425.5l8.6-7.5h21v18.3l-8.6,7.5L502.5,425.5z
			 M532.1,607.3v18.3h-21l-8.6-7.5l21-18.3L532.1,607.3z M485.6,566.8l8.6,7.5l-21,18.3l-8.6-7.5v-18.3H485.6z M412.9,347.5
			l-31.1-27l31.1-27l31.1,27L412.9,347.5z M383.6,373l-31.1,27l-22.5-19.5h-79.6v69.2l22.5,19.5l-31.1,27l-31.1-27l22.5-19.5v-84.2
			h96.8l22.5-19.5L383.6,373z M212.6,521.8l-31.1,27l-31.1-27l31.1-27L212.6,521.8z M262.9,775.6l-8.6,7.5h-44.9l-8.6-7.5l8.6-7.5
			h44.9L262.9,775.6z M212.6,1029.4l-31.1,27l-31.1-27l31.1-27L212.6,1029.4z M190.2,1114.9v108.3h124.5l8.6,7.5l-31.1,27
			l-22.5-19.5H194l-22.5,19.5l-21-18.3L173,1220V1154l-22.5-19.5l31.1-27L190.2,1114.9z M262.9,1283.3l-8.6,7.5h-44.9l-8.6-7.5
			l8.6-7.5h44.9L262.9,1283.3z M150.5,1327l21-18.3l22.5,19.5h75.8l22.5-19.5l31.1,27l-8.6,7.5H190.2v108.3l-8.6,7.5l-31.1-27
			l22.5-19.5v-65.9L150.5,1327z M212.6,1537.1l-31.1,27l-31.1-27l31.1-27L212.6,1537.1z M412.9,1711.4l31.1,27l-31.1,27l-31.1-27
			L412.9,1711.4z M442.1,1685.9l31.1-27l22.5,19.5h79.6v-69.2l-22.5-19.5l31.1-27l31.1,27l-22.5,19.5v84.2h-96.8l-22.5,19.5
			L442.1,1685.9z M613.1,1537.1l31.1-27l31.1,27l-31.1,27L613.1,1537.1z M635.5,1451.6v-108.3H511.1l-8.6-7.5l31.1-27l22.5,19.5
			h75.8l22.5-19.5l21,18.3l-22.5,19.5v65.9l22.5,19.5l-31.1,27L635.5,1451.6z M562.8,1283.3l8.6-7.5h44.9l8.6,7.5l-8.6,7.5h-44.9
			L562.8,1283.3z M675.2,1239.5l-21,18.3l-22.5-19.5H556l-22.5,19.5l-31.1-27l8.6-7.5h124.5v-108.3l8.6-7.5l31.1,27l-22.5,19.5v65.9
			L675.2,1239.5z M613.1,1029.4l31.1-27l31.1,27l-31.1,27L613.1,1029.4z M562.8,775.6l8.6-7.5h44.9l8.6,7.5l-8.6,7.5h-44.9
			L562.8,775.6z M613.1,521.8l31.1-27l31.1,27l-31.1,27L613.1,521.8z M473.2,295l-31.1-27l31.1-27l31.1,27L473.2,295z M412.9,242.5
			l-31.1-27l31.1-27l31.1,27L412.9,242.5z M383.6,267.9l-31.1,27l-31.1-27l31.1-27L383.6,267.9z M152.3,574.3l-31.1,27l-31.1-27
			l31.1-27L152.3,574.3z M121.3,757.3l21,18.3l-21,18.3l-8.6-7.5v-21.6L121.3,757.3z M112.7,698.9v-39.1l8.6-7.5l8.6,7.5v39.1
			l-8.6,7.5L112.7,698.9z M112.7,852.3l8.6-7.5l8.6,7.5v39.1l-8.6,7.5l-8.6-7.5V852.3z M121.3,949.9l31.1,27l-31.1,27l-31.1-27
			L121.3,949.9z M152.3,1082l-31.1,27l-31.1-27l31.1-27L152.3,1082z M121.3,1265l21,18.3l-21,18.3l-8.6-7.5v-21.6L121.3,1265z
			 M112.7,1206.5v-39.1l8.6-7.5l8.6,7.5v39.1l-8.6,7.5L112.7,1206.5z M112.7,1360l8.6-7.5l8.6,7.5v39.1l-8.6,7.5l-8.6-7.5V1360z
			 M121.3,1457.6l31.1,27l-31.1,27l-31.1-27L121.3,1457.6z M352.5,1763.9l31.1,27l-31.1,27l-31.1-27L352.5,1763.9z M412.9,1816.4
			l31.1,27l-31.1,27l-31.1-27L412.9,1816.4z M442.1,1790.9l31.1-27l31.1,27l-31.1,27L442.1,1790.9z M673.4,1484.6l31.1-27l31.1,27
			l-31.1,27L673.4,1484.6z M704.4,1301.6l-21-18.3l21-18.3l8.6,7.5v21.6L704.4,1301.6z M713.1,1360v39.1l-8.6,7.5l-8.6-7.5V1360
			l8.6-7.5L713.1,1360z M713.1,1206.5l-8.6,7.5l-8.6-7.5v-39.1l8.6-7.5l8.6,7.5V1206.5z M704.4,1109l-31.1-27l31.1-27l31.1,27
			L704.4,1109z M673.4,976.9l31.1-27l31.1,27l-31.1,27L673.4,976.9z M704.4,793.9l-21-18.3l21-18.3l8.6,7.5v21.6L704.4,793.9z
			 M713.1,852.3v39.1l-8.6,7.5l-8.6-7.5v-39.1l8.6-7.5L713.1,852.3z M713.1,698.9l-8.6,7.5l-8.6-7.5v-39.1l8.6-7.5l8.6,7.5V698.9z
			 M704.4,601.3l-31.1-27l31.1-27l31.1,27L704.4,601.3z M673.4,469.3l31.1-27l31.1,27l-31.1,27L673.4,469.3z M704.4,286.2l-21-18.3
			l21-18.3l8.6,7.5v21.6L704.4,286.2z M713.1,344.7v39.1l-8.6,7.5l-8.6-7.5v-39.1l8.6-7.5L713.1,344.7z M713.1,191.2l-8.6,7.5
			l-8.6-7.5v-39.1l8.6-7.5l8.6,7.5V191.2z M635.5,99.6l8.6-7.5l31.1,27l-22.5,19.5v65.9l22.5,19.5l-21,18.3l-22.5-19.5H556
			l-22.5,19.5l-31.1-27l8.6-7.5h124.5L635.5,99.6L635.5,99.6z M523.5,92.1l8.6,7.5v18.3h-21l-8.6-7.5L523.5,92.1z M575.2,155.4V86.2
			l-22.5-19.5l31.1-27l31.1,27l-22.5,19.5v84.2h-96.8l-22.5,19.5l-31.1-27l31.1-27l22.5,19.5L575.2,155.4L575.2,155.4z M464.6,59.1
			h21l8.6,7.5l-21,18.3l-8.6-7.5V59.1z M404.2,90.8V59.1h17.2v31.7l22.5,19.5l-31.1,27l-31.1-27L404.2,90.8z M340.1,59.1h21v18.3
			l-8.6,7.5l-21-18.3L340.1,59.1z M293.6,99.6l8.6-7.5l21,18.3l-8.6,7.5h-21V99.6z M241.9,39.6l31.1,27l-22.5,19.5v69.2h79.6
			l22.5-19.5l31.1,27l-31.1,27l-22.5-19.5h-96.7V86.2l-22.5-19.5L241.9,39.6z M190.2,99.6v108.3h124.5l8.6,7.5l-31.1,27l-22.5-19.5
			H194l-22.5,19.5l-21-18.3l22.5-19.5v-65.9l-22.5-19.5l31.1-27L190.2,99.6z M121.3,39.6l31.1,27l-31.1,27l-31.1-27L121.3,39.6z
			 M52.3,99.6l8.6-7.5l31.1,27l-22.5,19.5v65.9L92,224.2l-22.5,19.5v48.4L92,311.7l-22.5,19.5v65.9L92,416.8l-31.1,27l-8.6-7.5
			L52.3,99.6L52.3,99.6z M52.3,502.2l8.6-7.5l31.1,27l-31.1,27l-8.6-7.5L52.3,502.2L52.3,502.2z M52.3,607.3l8.6-7.5l31.1,27
			l-22.5,19.5v65.9L92,731.9l-22.5,19.5v48.4L92,819.4l-22.5,19.5v65.9L92,924.4l-31.1,27l-8.6-7.5L52.3,607.3L52.3,607.3z
			 M52.3,1009.9l8.6-7.5l31.1,27l-31.1,27l-8.6-7.5L52.3,1009.9L52.3,1009.9z M52.3,1114.9l8.6-7.5l31.1,27L69.5,1154v65.9
			l22.5,19.5l-22.5,19.5v48.4l22.5,19.5l-22.5,19.5v65.9l22.5,19.5l-31.1,27l-8.6-7.5L52.3,1114.9L52.3,1114.9z M52.3,1517.6
			l8.6-7.5l31.1,27l-31.1,27l-8.6-7.5L52.3,1517.6L52.3,1517.6z M52.3,1959.3v-336.7l8.6-7.5l31.1,27l-22.5,19.5v65.9l22.5,19.5
			l-22.4,19.5v48.4l22.5,19.5l-22.5,19.5v65.9l22.5,19.5l-31.1,27L52.3,1959.3z M121.3,2019.3l-31.1-27l31.1-27l31.1,27
			L121.3,2019.3z M190.2,1959.3l-8.6,7.5l-31.1-27l22.5-19.5v-65.9l-22.5-19.5l21-18.3L194,1836h75.8l22.5-19.5l31.1,27l-8.6,7.5
			H190.2V1959.3z M302.3,1966.8l-8.6-7.5V1941h21l8.6,7.5L302.3,1966.8z M250.5,1903.5v69.2l22.5,19.5l-31.1,27l-31.1-27l22.5-19.5
			v-84.2h96.8l22.5-19.5l31.1,27l-31.1,27l-22.5-19.5L250.5,1903.5L250.5,1903.5z M361.1,1999.8h-21l-8.6-7.5l21-18.3l8.6,7.5
			V1999.8z M421.5,1968.1v31.7h-17.2v-31.7l-22.5-19.5l31.1-27l31.1,27L421.5,1968.1z M485.6,1999.8h-21v-18.3l8.6-7.5l21,18.3
			L485.6,1999.8z M532.1,1959.3l-8.6,7.5l-21-18.3l8.6-7.5h21V1959.3z M583.8,2019.3l-31.1-27l22.5-19.5v-69.2h-79.6l-22.5,19.5
			l-31.1-27l31.1-27l22.5,19.5h96.8v84.2l22.5,19.5L583.8,2019.3z M635.5,1959.3V1851H511.1l-8.6-7.5l31.1-27L556,1836h75.8
			l22.5-19.5l21,18.3l-22.5,19.5v65.9l22.5,19.5l-31.1,27L635.5,1959.3z M704.4,2019.3l-31.1-27l31.1-27l31.1,27L704.4,2019.3z
			 M773.4,1959.3l-8.6,7.5l-31.1-27l22.5-19.5v-65.9l-22.5-19.5l22.5-19.5v-48.4l-22.5-19.5l22.5-19.5v-65.9l-22.5-19.5l31.1-27
			l8.6,7.5V1959.3z M773.4,1556.7l-8.6,7.5l-31.1-27l31.1-27l8.6,7.5V1556.7z M773.4,1451.6l-8.6,7.5l-31.1-27l22.5-19.5v-65.9
			l-22.5-19.5l22.5-19.5V1259l-22.5-19.5l22.5-19.5V1154l-22.5-19.5l31.1-27l8.6,7.5V1451.6z M773.4,1049l-8.6,7.5l-31.1-27l31.1-27
			l8.6,7.5V1049z M773.4,944l-8.6,7.5l-31.1-27l22.5-19.5v-65.9l-22.5-19.5l22.5-19.5v-48.4l-22.5-19.5l22.5-19.5v-65.9l-22.5-19.5
			l31.1-27l8.6,7.5V944z M773.4,541.3l-8.6,7.5l-31.1-27l31.1-27l8.6,7.5V541.3z M773.4,436.3l-8.6,7.5l-31.1-27l22.5-19.5v-65.9
			l-22.5-19.5l22.5-19.5v-48.4l-22.5-19.5l22.5-19.5v-65.9l-22.5-19.5l31.1-27l8.6,7.5V436.3z"/>
	</g>
</g>
<g id="Text">
</g>
</svg>
