<?xml version="1.0" encoding="utf-8"?>
<!-- Generator: Adobe Illustrator 26.1.0, SVG Export Plug-In . SVG Version: 6.00 Build 0)  -->
<svg version="1.1" id="Layer_1" xmlns="http://www.w3.org/2000/svg" xmlns:xlink="http://www.w3.org/1999/xlink" x="0px" y="0px"
	 viewBox="0 0 413.2 413.2" style="enable-background:new 0 0 413.2 413.2;" xml:space="preserve">
<style type="text/css">
	.st0{fill:#FFB10A;}
</style>
<path class="st0" d="M215.7,402.5c-6.1,0-12.3,0-18.4,0c-1.5-0.3-3-0.6-4.5-0.8c-8.8-1.2-17.8-1.8-26.5-3.7
	c-44.1-9.3-81-31.2-109.7-65.8C18.7,286.7,4.4,234,13.1,175.5c5.6-37.4,21.1-70.6,46.6-98.5c49.3-53.9,110.5-75.1,182.4-63
	c46.2,7.8,84.4,31,114.5,66.9c23.8,28.3,38.3,60.8,43.6,97.5c0.9,6.3,1.6,12.6,2.3,18.9c0,6.1,0,12.3,0,18.4c-0.3,1.5-0.6,3-0.8,4.5
	c-1.2,8.8-1.8,17.8-3.7,26.5c-10.1,47.4-34.6,86-72.9,115.6c-26.8,20.7-57,33.4-90.6,38.1C228.3,401.1,222,401.8,215.7,402.5z
	 M133,304.8c65.6-32.8,130.7-65.3,196.7-98.3c-66.1-33-131.2-65.6-196.7-98.3C133,173.8,133,238.8,133,304.8z"/>
</svg>
