<?xml version="1.0" encoding="UTF-8"?>
<svg xmlns="http://www.w3.org/2000/svg" version="1.1" viewBox="0 0 157 167.5">
  <defs>
    <style>
      .cls-1 {
        opacity: .8;
      }

      .cls-1, .cls-2, .cls-3, .cls-4, .cls-5, .cls-6, .cls-7, .cls-8, .cls-9, .cls-10, .cls-11 {
        isolation: isolate;
      }

      .cls-12, .cls-8 {
        opacity: .2;
      }

      .cls-3 {
        opacity: .1;
      }

      .cls-13 {
        fill-opacity: 0;
      }

      .cls-4 {
        opacity: 0;
      }

      .cls-5 {
        opacity: .4;
      }

      .cls-6 {
        opacity: .7;
      }

      .cls-7 {
        opacity: .3;
      }

      .cls-9 {
        opacity: .9;
      }

      .cls-14 {
        fill: none;
        stroke: #273773;
        stroke-miterlimit: 10;
        stroke-width: 2px;
      }

      .cls-10 {
        opacity: .5;
      }

      .cls-11 {
        opacity: .6;
      }

      .cls-15 {
        fill: #273773;
      }
    </style>
  </defs>
  <!-- Generator: Adobe Illustrator 28.7.1, SVG Export Plug-In . SVG Version: 1.2.0 Build 142)  -->
  <g>
    <g id="Layer_1">
      <g id="Layer_1-2" data-name="Layer_1">
        <g>
          <path class="cls-15" d="M1.3,45.4v16.4c0,9.1,3.1,16.4,7,16.4h2.9v-32.8s-9.9,0-9.9,0Z"/>
          <path class="cls-14" d="M126.5,1.8H39.8c-15.8,0-28.6,12.8-28.6,28.6v107.1h0c0,15.8,12.8,28.6,28.6,28.6h86.7c15.8,0,28.6-12.8,28.6-28.6V30.4h0c0-15.8-12.8-28.6-28.6-28.6Z"/>
          <g class="cls-12">
            <path class="cls-13" d="M142.2,35.6c0,4.9-1.8,9.6-5.2,13.2-3.3,3.5-7.8,5.5-12.6,5.5H19c-4.8,0-9.3,2-12.6,5.5-2.9,3.1-4.7,7.1-5.1,11.3v-37.5c.4-4.2,2.2-8.2,5.1-11.3,3.3-3.5,7.8-5.5,12.6-5.5h105.4c9.8,0,17.8,8.4,17.8,18.8h0Z"/>
            <path class="cls-4" d="M6.4,22.3c2.2-2.3,5-4,8.1-4.9,1.5-.4,3-.6,4.5-.6h105.4c9.7,0,17.6,8.3,17.7,18.5,0,4.9-1.8,9.5-5.1,13.1-3.2,3.5-7.7,5.5-12.4,5.6H19.2c-4.8,0-9.3,2-12.6,5.4-2.9,3-4.8,6.9-5.3,11.1v-37.1c.4-4.2,2.2-8.2,5.1-11.2h0Z"/>
            <path class="cls-4" d="M6.4,22.4c2.2-2.3,5.1-4,8.2-4.8,1.5-.4,3-.6,4.5-.6h105.3c9.6,0,17.5,8.2,17.5,18.2s-1.7,9.4-4.9,13c-3.1,3.5-7.6,5.5-12.3,5.6H19.4c-4.8,0-9.3,1.9-12.7,5.3-3,2.9-4.9,6.8-5.4,10.9v-36.7c.4-4.2,2.2-8,5.1-11h0Z"/>
            <path class="cls-4" d="M6.3,22.6c2.2-2.3,5.1-4,8.2-4.8,1.5-.4,3-.6,4.5-.6h105.4c9.5,0,17.3,8,17.4,18,.1,4.7-1.6,9.3-4.8,12.8-3.1,3.5-7.5,5.5-12.1,5.7-.1,0-9.3.2-9.5.2H19.5c-9.2,0-16.9,6.9-18.2,16v-36.4c.5-4.1,2.2-7.9,5-10.9Z"/>
            <path class="cls-4" d="M6.3,22.7c2.2-2.3,5.1-4,8.2-4.8,1.5-.4,3-.5,4.5-.5h105.4c9.4,0,17.1,7.9,17.3,17.7.1,4.7-1.6,9.2-4.7,12.7-3,3.5-7.3,5.6-11.9,5.7-.2.2-9.3.3-9.5.3H19.7c-4.5,0-9.7,1.9-12.7,5.1-3,2.8-5,6.5-5.7,10.6v-36c.4-4.1,2.2-7.9,5-10.8Z"/>
            <path class="cls-3" d="M6.3,22.8c2.2-2.3,5.1-4,8.2-4.8,1.5-.3,3-.5,4.5-.5h105.4c9.3,0,16.9,7.8,17.1,17.5.1,4.6-1.5,9.1-4.5,12.6-2.9,3.5-7.2,5.6-11.7,5.8-.2.2-9.2.4-9.5.4H19.9c-4.4,0-9.8,1.9-12.7,4.9-3.1,2.7-5.1,6.4-5.8,10.5v-35.6c.3-4.1,2.1-7.9,4.9-10.8Z"/>
            <path class="cls-3" d="M6.2,22.8c2.2-2.3,5.1-4,8.2-4.7,1.5-.3,3-.5,4.5-.5h105.4c9.2,0,16.7,7.7,17,17.3.1,4.5-1.5,8.9-4.4,12.4s-7,5.6-11.5,5.9c-.3.3-9.1.4-9.5.4H20c-4.3,0-9.9,1.9-12.8,4.8-3.1,2.7-5.2,6.3-6,10.3v-35.3c.5-4,2.3-7.7,5-10.6Z"/>
            <path class="cls-3" d="M6.2,22.8c2.2-2.3,5.1-4,8.2-4.7,1.5-.3,3-.5,4.5-.5h105.4c9.1,0,16.5,7.6,16.8,17,.1,4.5-1.4,8.9-4.3,12.3-2.8,3.4-7,5.6-11.4,5.9-.3.3-9,.5-9.5.5H20.2c-4.2,0-10,1.8-12.8,4.7-3.1,2.6-5.2,6.2-6.1,10.2v-35c.5-3.9,2.2-7.6,4.9-10.4Z"/>
            <path class="cls-8" d="M6.2,22.9c2.2-2.3,5.1-4,8.2-4.7,1.5-.3,3-.5,4.5-.5h105.4c9,0,16.4,7.5,16.7,16.8.2,4.4-1.3,8.7-4.1,12.1s-6.8,5.6-11.2,6c-.4.4-8.9.6-9.4.6H20.4c-4.1,0-10.1,1.8-12.8,4.6-3.1,2.5-5.3,6.1-6.2,10v-31.4s0-3,.1-3.1c.3-3.9,2-7.6,4.7-10.4Z"/>
            <path class="cls-8" d="M6.1,23.1c2.2-2.3,5.1-4,8.2-4.7,1.5-.3,3-.5,4.5-.5h105.5c8.9,0,16.2,7.3,16.6,16.5.2,4.4-1.2,8.6-4,12-2.7,3.4-6.7,5.6-11,6.1-.4.4-8.8.6-9.4.6H20.5c-4.1,0-10.2,1.7-12.9,4.5-3.2,2.5-5.4,5.9-6.4,9.8v-31.1s0-3,.1-3.1c.5-3.8,2.2-7.3,4.8-10.1Z"/>
            <path class="cls-8" d="M6.1,23.2c2.2-2.3,5.1-3.9,8.2-4.6,1.5-.3,3-.5,4.5-.5h105.5c8.8,0,16,7.2,16.4,16.3.2,4.3-1.2,8.5-3.9,11.9-2.6,3.4-6.5,5.6-10.8,6.1-.5.5-8.8.7-9.4.7H20.7c-4,0-10.3,1.7-12.9,4.4-3.2,2.4-5.5,5.8-6.5,9.7v-30.8s0-3,.1-3.1c.4-3.8,2.1-7.4,4.7-10.1Z"/>
            <path class="cls-8" d="M6.1,23.3c2.2-2.4,5.1-4,8.3-4.6,1.5-.3,3-.5,4.5-.5h105.5c8.7,0,15.8,7.1,16.3,16,.2,4.2-1.1,8.4-3.7,11.7-2.6,3.4-6.4,5.7-10.7,6.2-.5.5-8.7.8-9.4.8H20.9c-3.9,0-10.4,1.6-12.9,4.3-3.2,2.4-5.5,5.7-6.6,9.5v-30.4s0-2.9.1-3c.3-3.8,1.9-7.4,4.6-10Z"/>
            <path class="cls-8" d="M6,23.3c2.2-2.3,5.1-3.9,8.3-4.6,1.5-.3,3-.5,4.5-.5h105.5c8.6,0,15.6,7,16.1,15.8.2,4.2-1.1,8.3-3.6,11.6-2.5,3.4-6.3,5.7-10.5,6.3-.5.6-8.6.9-9.4.9H21c-3.8,0-10.5,1.6-13,4.2-3.2,2.3-5.6,5.6-6.8,9.4v-30.1s0-2.9.1-3c.4-3.8,2.1-7.3,4.7-10Z"/>
            <path class="cls-8" d="M6,23.4c2.2-2.3,5.1-3.9,8.3-4.6,1.5-.3,3-.4,4.5-.4h105.5c8.5,0,15.4,6.9,16,15.5.3,4.1-1,8.2-3.5,11.5-2.5,3.4-6.2,5.6-10.3,6.3-.6.6-8.5.9-9.4.9H21.2c-3.7,0-10.6,1.6-13,4.1-3.3,2.2-5.7,5.5-6.9,9.2v-29.8s0-2.8.1-3c.5-3.7,2.1-7.1,4.6-9.7Z"/>
            <path class="cls-7" d="M6,23.6c2.2-2.3,5.1-3.9,8.3-4.5,1.5-.3,3-.4,4.5-.4h105.5c8.5,0,15.4,6.8,15.8,15.3.2,4-.9,8-3.3,11.3-2.4,3.4-6,5.7-10.1,6.4-.6.6-8.4,1-9.3,1H21.4c-3.6,0-10.7,1.5-13,4-3.3,2.2-5.8,5.4-7.1,9.1v-29.4c0-.2.1-2.8.1-2.9.4-3.8,2-7.2,4.6-9.9Z"/>
            <path class="cls-7" d="M6,23.6c2.2-2.3,5.1-3.9,8.3-4.5,1.5-.3,3-.4,4.5-.4h105.5c8.3,0,15.2,6.7,15.7,15,.3,4-.9,8-3.2,11.2-2.3,3.4-5.9,5.7-10,6.5-.7.7-8.4,1.1-9.3,1.1H21.5c-3.5,0-10.8,1.5-13,3.9-3.3,2.1-5.8,5.2-7.2,8.9v-29.1c0-.2.1-2.7.1-2.9.4-3.7,2-7.1,4.6-9.7Z"/>
            <path class="cls-7" d="M5.9,23.7c2.2-2.3,5.1-3.9,8.3-4.5,1.5-.3,3-.4,4.5-.4h105.5c8.3,0,15,6.6,15.6,14.8.3,3.9-.8,7.9-3.1,11.1-2.3,3.4-5.8,5.7-9.8,6.5-.7.7-8.3,1.1-9.3,1.1H21.7c-3.4,0-10.9,1.4-13.1,3.8-3.3,2-5.9,5.1-7.3,8.7v-28.8c0-.2.1-2.7.1-2.9.5-3.5,2-6.8,4.5-9.4Z"/>
            <path class="cls-7" d="M5.9,23.8c2.2-2.3,5.1-3.9,8.3-4.5,1.5-.3,3-.4,4.5-.4h105.5c8.1,0,14.8,6.4,15.4,14.5.3,3.9-.7,7.7-2.9,10.9-2.2,3.4-5.7,5.8-9.6,6.6-.8.8-8.2,1.2-9.3,1.2H21.9c-3.3,0-11,1.4-13.1,3.7-3.3,2-6,5-7.5,8.6v-28.5c0-.2.1-2.6.1-2.8.5-3.5,2-6.8,4.5-9.3h0Z"/>
            <path class="cls-7" d="M5.9,23.8c2.2-2.3,5.1-3.9,8.3-4.4,1.5-.3,3-.4,4.5-.4h105.5c8,0,14.6,6.3,15.3,14.3.3,3.8-.7,7.6-2.8,10.8-2.1,3.4-5.5,5.7-9.4,6.6-.8.8-8.1,1.3-9.3,1.3H22c-3.2,0-11,1.4-13.1,3.5-3.4,1.9-6,4.9-7.6,8.4v-28.1c0-.2.1-2.6.1-2.8.5-3.5,2.1-6.7,4.5-9.2Z"/>
            <path class="cls-5" d="M5.8,23.9c2.2-2.3,5.1-3.8,8.3-4.4,1.5-.2,3-.4,4.5-.4h105.6c7.9,0,14.4,6.2,15.1,14.1.4,3.7-.6,7.5-2.7,10.6-2.1,3.4-5.4,5.8-9.3,6.7-.9.9-8,1.4-9.3,1.4H22c-3.1,0-11.1,1.3-13.2,3.4-3.4,1.8-6.2,4.8-7.8,8.3v-27.8c0-.2.1-2.6.1-2.8.7-3.4,2.3-6.6,4.7-9.1Z"/>
            <path class="cls-5" d="M5.8,24.1c2.2-2.3,5.1-3.8,8.3-4.4,1.5-.2,3-.4,4.5-.4h105.6c7.8,0,14.3,6,15,13.8.4,3.7-.5,7.4-2.5,10.5-2,3.4-5.3,5.8-9.1,6.8-.9.9-7.9,1.4-9.2,1.4H22.4c-3,0-11.2,1.3-13.2,3.3-3.4,1.8-6.2,4.6-7.9,8.1v-27.5c0-.2.1-2.5.1-2.7.5-3.4,2-6.5,4.4-8.9Z"/>
            <path class="cls-5" d="M5.8,24.2c2.3-2.3,5.2-3.9,8.4-4.4,1.5-.2,3-.3,4.5-.3h105.6c7.7,0,14.1,6,14.9,13.6.4,3.6-.5,7.3-2.4,10.4-1.9,3.4-5.1,5.8-8.9,6.8-1,1-7.9,1.5-9.2,1.5H22.7c-2.9,0-11.3,1.2-13.2,3.2-3.4,1.7-6.2,4.5-8,7.9v-27.1c0-.2.1-2.5.1-2.7.3-3.4,1.8-6.5,4.2-8.9Z"/>
            <path class="cls-5" d="M5.7,24.3c2.2-2.3,5.2-3.8,8.4-4.3,1.5-.2,3-.3,4.5-.3h105.6c7.6,0,13.9,5.8,14.7,13.3.4,3.6-.4,7.1-2.2,10.2-1.9,3.4-5,5.9-8.7,6.9-1,1-7.8,1.6-9.2,1.6H22.8c-2.8,0-11.4,1.2-13.3,3.1-3.5,1.7-6.3,4.4-8.2,7.8v-26.8c0-.2.1-2.4.1-2.7.5-3.3,2-6.4,4.3-8.8Z"/>
            <path class="cls-5" d="M5.7,24.3c2.2-2.3,5.2-3.8,8.4-4.3,1.5-.2,3-.3,4.5-.3h105.6c7.4,0,13.7,5.7,14.6,13.1.4,3.5-.3,7.1-2.1,10.1-1.8,3.3-4.9,5.9-8.5,7-1,1.1-7.7,1.6-9.2,1.6H23c-2.7,0-11.5,1.2-13.3,3-3.5,1.6-6.4,4.3-8.3,7.6v-26.5c0-.9.1-1.7.2-2.6.4-3.3,1.8-6.4,4.1-8.7Z"/>
            <path class="cls-10" d="M5.7,24.3c2.2-2.3,5.2-3.8,8.4-4.3,1.5-.2,3-.3,4.5-.3h105.6c7.3,0,13.4,5.6,14.4,12.8.4,3.5-.3,7-2,10-1.8,3.4-4.8,5.9-8.4,7-1.1,1.1-7.6,1.7-9.2,1.7H23c-2.6,0-11.6,1.1-13.3,2.9-3.5,1.6-6.4,4.2-8.4,7.5v-26.1c0-.9.1-1.7.2-2.6.5-3.3,1.9-6.3,4.2-8.6Z"/>
            <path class="cls-10" d="M5.6,24.4c2.3-2.3,5.2-3.8,8.4-4.3,1.5-.2,3-.3,4.5-.3h105.6c7.2,0,13.3,5.5,14.3,12.6.4,3.4-.2,6.8-1.8,9.8-1.7,3.4-4.6,5.9-8.2,7.1-1.1,1.1-7.5,1.8-9.1,1.8H23.3c-2.5,0-11.7,1.1-13.3,2.8-3.6,1.5-6.6,4-8.6,7.3v-25.8c0-.9.1-1.7.2-2.6.4-3.2,1.8-6.1,4-8.4Z"/>
            <path class="cls-10" d="M5.6,24.6c2.3-2.3,5.2-3.8,8.4-4.3,1.5-.2,3-.3,4.5-.3h105.6c7.1,0,13.1,5.3,14.2,12.3.5,3.3-.1,6.7-1.7,9.7-1.6,3.4-4.5,5.9-8,7.2-1.2,1.2-7.5,1.9-9.1,1.9H23.5c-2.4,0-11.8,1-13.4,2.7-3.6,1.4-6.6,3.9-8.7,7.2v-25.6c0-.8.1-1.7.2-2.5.4-3.2,1.8-6.1,4-8.3Z"/>
            <path class="cls-10" d="M5.6,24.7c2.3-2.3,5.2-3.8,8.4-4.2,1.5-.2,3-.3,4.5-.3h105.6c7,0,12.9,5.2,14,12.1.5,3.3-.1,6.6-1.6,9.5-1.5,3.3-4.3,5.9-7.8,7.2-1.2,1.2-7.4,1.9-9.1,1.9H23.5c-2.3,0-11.9,1-13.4,2.6-3.6,1.4-6.7,3.8-8.9,7v-25.1c0-.8.1-1.7.2-2.5.5-3.1,2-6,4.2-8.2Z"/>
            <path class="cls-11" d="M5.5,24.8c2.3-2.3,5.2-3.8,8.4-4.2,1.5-.2,3-.3,4.5-.3h105.7c6.9,0,12.7,5,13.9,11.8.5,3.2,0,6.5-1.4,9.4-1.5,3.3-4.3,6-7.7,7.3-1.3,1.3-7.3,2-9.1,2H23.7c-2.2,0-12,.9-13.4,2.5-3.6,1.3-6.8,3.7-9,6.8v-24.8c0-.8.1-1.7.2-2.5.5-3,1.9-5.8,4-8h0Z"/>
            <path class="cls-11" d="M5.5,24.8c2.3-2.3,5.2-3.8,8.4-4.2,1.5-.2,3-.3,4.5-.3h105.7c6.8,0,12.5,4.9,13.7,11.6.5,3.2.1,6.4-1.3,9.3-1.4,3.4-4.1,6-7.5,7.4-1.3,1.3-7.2,2.1-9.1,2.1H23.8c-2.1,0-12.1.9-13.5,2.4-3.7,1.2-6.8,3.6-9.1,6.7v-24.5c0-.8.1-1.6.2-2.4.5-3.1,1.9-5.9,4.1-8.1Z"/>
            <path class="cls-11" d="M5.5,24.9c2.3-2.3,5.3-3.8,8.5-4.2,1.5-.2,3-.2,4.5-.2h105.7c6.6,0,12.3,4.8,13.6,11.3.6,3.1.1,6.3-1.2,9.1-1.4,3.3-4,6-7.3,7.4-1.4,1.4-7.1,2.1-9.1,2.1H24.1c-2,0-12.2.9-13.5,2.3-3.7,1.2-6.9,3.5-9.3,6.5v-24.2c0-.8.1-1.6.2-2.4.5-3,1.9-5.6,4-7.7Z"/>
            <path class="cls-11" d="M5.4,24.9c2.3-2.3,5.3-3.8,8.5-4.1,1.5-.2,3-.2,4.5-.2h105.7c6.5,0,12.1,4.7,13.4,11.1.5,3,.2,6.2-1,9-1.3,3.3-3.8,6-7.1,7.5-1.4,1.4-7,2.2-9,2.2H24.3c-1.9,0-12.3.8-13.5,2.2-3.7,1.2-7,3.4-9.4,6.4v-23.8c0-.8.1-1.6.2-2.4.4-3,1.7-5.8,3.8-7.9Z"/>
            <path class="cls-11" d="M5.4,25.1c2.3-2.3,5.3-3.8,8.5-4.1.5,0,3.9-.2,4.5-.2h105.7c6.4,0,12,4.6,13.3,10.9.6,3,.3,6.1-.9,8.9-1.3,3.3-3.8,6.1-7,7.6-1.5,1.5-7,2.3-9,2.3H24.4c-1.8,0-12.4.8-13.6,2-3.7,1.1-7,3.2-9.5,6.2v-23.5c0-.8.1-1.5.2-2.3.5-3,1.8-5.7,3.9-7.8Z"/>
            <path class="cls-11" d="M5.4,25.2c2.3-2.3,5.3-3.8,8.5-4.1.5,0,4-.2,4.5-.2h105.7c6.3,0,11.8,4.4,13.2,10.6.6,2.9.4,6-.8,8.7-1.2,3.3-3.6,6.1-6.8,7.6-1.5,1.5-6.9,2.4-9,2.4H24.6c-1.7,0-12.4.7-13.6,1.9-3.8,1-7.2,3.1-9.7,6.1v-23.2c0-.8.1-1.5.2-2.3.5-2.8,1.9-5.5,3.9-7.5Z"/>
            <path class="cls-6" d="M5.3,25.3c2.3-2.3,5.3-3.8,8.5-4.1.5,0,4-.2,4.5-.2h105.7c6.2,0,11.6,4.4,13,10.4.6,2.9.4,5.8-.6,8.6-1.1,3.3-3.5,6.1-6.6,7.7-1.5,1.6-6.8,2.4-9,2.4H24.7c-1.6,0-12.5.7-13.6,1.8-3.8,1-7.2,3-9.8,5.9v-22.9c0-.8.1-1.5.2-2.3.5-2.8,1.9-5.3,3.8-7.3Z"/>
            <path class="cls-6" d="M5.3,25.3c2.3-2.3,5.3-3.7,8.5-4,.4,0,4-.2,4.5-.2h105.7c6.1,0,11.4,4.2,12.9,10.1.6,2.8.5,5.7-.5,8.4-1,3.3-3.3,6.1-6.4,7.7-1.6,1.6-6.7,2.5-9,2.5H24.9c-1.5,0-12.6.7-13.6,1.7-3.8.9-7.3,2.9-10,5.7v-22.5c0-.7.1-1.5.2-2.2.6-2.7,1.9-5.2,3.8-7.2Z"/>
            <path class="cls-6" d="M5.3,25.4c2.3-2.3,5.3-3.7,8.5-4,.4,0,4-.2,4.5-.2h105.7c6,0,11.2,4.1,12.7,9.9.7,2.7.5,5.6-.4,8.3-1,3.3-3.2,6.1-6.2,7.8-1.6,1.7-6.6,2.6-9,2.6H25c-1.4,0-12.7.6-13.7,1.6-3.8.8-7.3,2.8-10.1,5.6v-22.2c.1-.4.1-1.8.2-2.2.6-2.7,2-5.2,3.9-7.2Z"/>
            <path class="cls-6" d="M5.2,25.6c2.3-2.3,5.3-3.7,8.5-4,.4,0,4.1-.2,4.5-.2h105.8c5.9,0,11,4,12.6,9.6.7,2.7.7,5.5-.2,8.2-.9,3.3-3.1,6.2-6.1,7.9-1.7,1.7-6.6,2.6-8.9,2.6H25.2c-1.4,0-12.8.6-13.7,1.5-3.9.8-7.4,2.6-10.2,5.4v-21.9c.1-.4.1-1.8.2-2.2.6-2.6,1.9-5,3.7-6.9Z"/>
            <path class="cls-1" d="M5.2,25.7c2.3-2.3,5.3-3.7,8.5-4,.4,0,4.1-.2,4.5-.2h105.8c5.8,0,10.9,3.9,12.5,9.4.7,2.6.7,5.4-.1,8-.8,3.3-3,6.2-5.9,7.9-1.7,1.7-6.5,2.7-8.9,2.7H25.4c-1.3,0-12.9.5-13.7,1.4-3.9.8-7.5,2.6-10.4,5.3v-21.5c.1-.4.1-1.7.2-2.1.6-2.6,1.8-5,3.7-6.9Z"/>
            <path class="cls-1" d="M5.2,25.7c2.3-2.3,5.3-3.7,8.5-3.9h110.3c5.6,0,10.6,3.7,12.3,9.1.8,2.6.8,5.3,0,7.9-.8,3.3-2.9,6.2-5.7,8-1.8,1.8-6.4,2.8-8.9,2.8H25.5c-1.2,0-13,.5-13.8,1.3-3.9.7-7.5,2.4-10.5,5.1v-21.2c.1-.7.2-1.4.3-2.1.6-2.6,1.9-5,3.7-6.9h0Z"/>
            <path class="cls-1" d="M5.2,25.8c2.3-2.3,5.4-3.7,8.6-3.9h110.3c5.5,0,10.4,3.6,12.2,8.9.8,2.5.8,5.2.2,7.8-.8,3.3-2.7,6.2-5.5,8.1-1.8,1.8-6.3,2.8-8.9,2.8H25.9c-1.1,0-13.1.5-13.8,1.2-4,.6-7.7,2.4-10.7,5v-20.9c.1-.7.2-1.4.3-2.1.4-2.6,1.7-4.9,3.5-6.8h0Z"/>
            <path class="cls-1" d="M5.1,25.8c2.3-2.3,5.4-3.7,8.6-3.9h110.3c5.4,0,10.3,3.5,12,8.6.8,2.4,1,5.1.3,7.6-.6,3.3-2.6,6.2-5.4,8.1-1.9,1.9-6.2,2.9-8.9,2.9H25.8c-1,0-13.2.4-13.8,1.1-4,.5-7.7,2.2-10.8,4.8v-20.5c0-.7.1-1.3.3-2,.6-2.5,1.8-4.8,3.6-6.6h0Z"/>
            <path class="cls-1" d="M5.1,25.9c2.3-2.3,5.4-3.7,8.6-3.9h110.3c5.3,0,10.1,3.4,11.9,8.4.9,2.4,1,5,.5,7.5-.6,3.3-2.5,6.2-5.2,8.2-1.9,1.9-6.1,3-8.8,3H26.2c-.9,0-13.3.4-13.9,1-4,.5-7.8,2.1-10.9,4.6v-20.2c.1-.5.2-1.5.3-2,.4-2.5,1.6-4.8,3.4-6.5h0Z"/>
            <path class="cls-1" d="M5.1,26.1c2.3-2.3,5.4-3.7,8.6-3.8h110.3c5.2,0,9.9,3.2,11.7,8.1.8,2.3,1.1,4.9.6,7.3-.5,3.3-2.3,6.3-5,8.3-2,2-6.1,3.1-8.8,3.1H26.3c-.8,0-13.4.3-13.9.9-4,.5-7.9,2-11.1,4.5v-20c.1-.5.2-1.5.3-2,.5-2.4,1.7-4.6,3.5-6.3h0Z"/>
            <path class="cls-9" d="M5,26.2c2.3-2.3,5.4-3.7,8.6-3.8h110.3c5.1,0,9.7,3.1,11.6,7.9.9,2.3,1.1,4.8.7,7.2-.5,3.3-2.2,6.3-4.8,8.3-2,2-6,3.1-8.8,3.1H26.4c-.7,0-13.5.3-13.9.8-4.1.4-7.9,1.9-11.2,4.3v-19.5c.1-.5.2-1.4.3-1.9.5-2.4,1.7-4.6,3.4-6.3h0Z"/>
            <path class="cls-9" d="M5,26.3c2.3-2.3,5.4-3.7,8.6-3.8h110.3c5,0,9.5,3,11.5,7.6.9,2.3,1.2,4.7.9,7.1-.4,3.3-2.1,6.3-4.7,8.4-2,2.1-5.9,3.2-8.8,3.2H26.6c-.6,0-13.6.2-13.9.6-4.1.3-8,1.7-11.3,4.2v-19.2c.1-.5.2-1.4.3-1.9.4-2.4,1.6-4.5,3.3-6.1h0Z"/>
            <path class="cls-9" d="M5,26.3c2.3-2.3,5.4-3.7,8.6-3.8h110.4c7,0,12.5,5.8,12.4,12.8,0,.5,0,1-.1,1.5-.4,3.3-2,6.3-4.5,8.5-2.4,2.1-5.6,3.3-8.8,3.3H26.7c-.5,0-13.7.2-14,.5-4.1.3-8.1,1.7-11.5,4v-18.9c.1-.5.2-1.4.3-1.9.6-2.3,1.8-4.3,3.5-5.9h0Z"/>
            <path class="cls-9" d="M4.9,26.3c2.3-2.3,5.4-3.6,8.6-3.7h110.4c4.8,0,9.2,2.8,11.2,7.2,1,2.1,1.3,4.5,1.1,6.8-.3,3.3-1.8,6.3-4.3,8.5-2.1,2.2-5.7,3.3-8.8,3.3H26.8c-.4,0-13.7.2-14,.4-4.1.2-8.1,1.5-11.6,3.8v-18.6c.1-.5.2-1.3.3-1.8.7-2.2,1.8-4.3,3.4-5.9Z"/>
            <path class="cls-9" d="M4.9,26.4c2.3-2.3,5.4-3.6,8.6-3.7h110.4c4.7,0,9,2.7,11,6.9,1,2.1,1.4,4.4,1.3,6.7-.4,6.8-6,12-12.8,12H27.1c-.3,0-13.8,0-14,.3-4.2.2-8.2,1.5-11.8,3.7v-18.2c.1-.5.2-1.3.3-1.8.6-2.3,1.7-4.3,3.3-5.9Z"/>
            <path class="cls-2" d="M4.9,26.6c2.3-2.3,5.4-3.6,8.7-3.7h110.4c4.6,0,8.8,2.6,10.9,6.7,1,2,1.5,4.2,1.4,6.5-.1,3.3-1.5,6.4-3.9,8.6-2.3,2.3-5.5,3.5-8.7,3.5H27.4c-.2,0-13.9,0-14.1.2-4.2,0-8.3,1.3-11.9,3.5v-17.9c.1-.5.2-1.2.3-1.7.5-2.2,1.6-4.2,3.2-5.7Z"/>
            <path class="cls-2" d="M4.8,26.7c2.3-2.3,5.4-3.6,8.7-3.7h110.4c4.5,0,8.6,2.5,10.8,6.4,1.1,2,1.6,4.2,1.5,6.4-.2,6.8-5.7,12.2-12.5,12.3H13.3c-4.2,0-8.4,1.2-12,3.4v-17.6c.1-.6.2-1.2.3-1.7.6-2.1,1.7-4.1,3.2-5.6h0Z"/>
            <path d="M1.3,33.9c.4-2.7,1.6-5.2,3.5-7.2,2.3-2.3,5.4-3.6,8.7-3.6h110.4c6.8,0,12.3,5.6,12.3,12.4s-1.3,6.4-3.6,8.8-5.4,3.7-8.7,3.6H13.5c-4.3,0-8.5,1.1-12.2,3.2,0,0,0-17.2,0-17.2Z"/>
          </g>
          <path class="cls-15" d="M144.7,28.2c0,9.8-7.9,17.8-17.7,17.8H18.9c-4.7,0-9.3,1.9-12.6,5.2-2.9,2.9-4.7,6.6-5.1,10.7V26.3c.4-4.1,2.2-7.8,5.1-10.7,3.3-3.3,7.9-5.2,12.6-5.2h108c9.8,0,17.8,7.9,17.8,17.8h0Z"/>
          <path class="cls-15" d="M112.9,156.8h-59.5c-5.2,0-9.4,4.2-9.4,9.4h78.2c0-5.2-4.2-9.4-9.3-9.4h0Z"/>
        </g>
      </g>
    </g>
  </g>
</svg>