<?xml version="1.0" encoding="UTF-8"?>
<svg xmlns="http://www.w3.org/2000/svg" version="1.1" viewBox="0 0 464.9 453.5">
  <defs>
    <style>
      .cls-1 {
        fill: #fff;
      }

      .cls-2 {
        fill: #feaf08;
      }

      .cls-3 {
        fill: #fabf62;
      }
    </style>
  </defs>
  <!-- Generator: Adobe Illustrator 28.7.1, SVG Export Plug-In . SVG Version: 1.2.0 Build 142)  -->
  <g>
    <g id="Layer_1">
      <g id="Layer_1-2" data-name="Layer_1">
        <g id="secure">
          <path class="cls-3" d="M232.7,292.2c0,0,.2,0,0,0s0,0,0,0Z"/>
          <path class="cls-2" d="M317.9,227.9c28.5-42.9,30.8-108.3,2-168.4-30.2,6.1-61.7-.2-87.2-17.5-25.5,17.3-56.9,23.7-87.2,17.5-28.8,60.1-26.5,125.5,2,168.4,4.9,7.4,34.6,51.5,85.2,64.2,50.6-12.7,80.3-56.8,85.2-64.2ZM245.2,177.2v33.6h-25v-33.6c-11.2-6.9-14.6-21.6-7.7-32.7s21.6-14.6,32.7-7.7c11.2,6.9,14.6,21.6,7.7,32.7-1.9,3.1-4.6,5.8-7.7,7.7Z"/>
          <path class="cls-2" d="M151.2,269.9h-72.9v35.7h122.2c-20.4-9.7-36.8-23-49.2-35.7h0Z"/>
          <path class="cls-2" d="M314.3,269.9h0c-12.4,12.6-28.8,26-49.2,35.7h122.1v-35.7h-72.9,0Z"/>
          <rect class="cls-2" x="286.2" y="341.5" width="17.8" height="11.9"/>
          <path class="cls-2" d="M286.9,335.6h17.2v-11.9h-3c-6.8,0-12.4,5-14.2,11.9Z"/>
          <rect class="cls-2" x="286.2" y="359.3" width="17.8" height="11.9"/>
          <path class="cls-2" d="M301.1,388.7h3v-11.5h-17.1c1.8,6.7,7.4,11.5,14.1,11.5Z"/>
          <rect class="cls-2" x="339.7" y="341.5" width="17.8" height="11.9"/>
          <rect class="cls-2" x="339.7" y="359.3" width="17.8" height="11.9"/>
          <path class="cls-2" d="M339.7,388.7h3c6.7,0,12.2-4.9,14.1-11.5h-17.1v11.5Z"/>
          <path class="cls-2" d="M356.9,335.6c-1.8-6.8-7.4-11.9-14.2-11.9h-32.7v65h23.8v-53.1h23.1Z"/>
          <circle class="cls-1" cx="80.3" cy="59.8" r="6.7"/>
          <circle class="cls-1" cx="397.2" cy="184.6" r="6.7"/>
          <path class="cls-1" d="M392.8,166.7c-.3,3.3,2.1,6.1,5.4,6.4h.5c3.1,0,5.6-2.4,5.9-5.4,2.8-33-1.2-67.9-11.7-100.8-.9-3.2-4.2-5-7.4-4.1s-5,4.2-4.1,7.4v.3c10,31.5,13.9,64.8,11.1,96.2h.3Z"/>
          <path class="cls-1" d="M422.8,203.9c-.7,3.2,1.3,6.4,4.5,7.1h0c.4,0,.9,0,1.3,0,2.8,0,5.2-1.9,5.8-4.6,11.9-52.7,7.5-111.2-12.5-164.9-1.1-3.1-4.6-4.6-7.6-3.5s-4.6,4.6-3.5,7.6c19.2,51.5,23.5,107.6,12.1,158.1h0Z"/>
          <path class="cls-1" d="M68.1,184.5h.8c3.3-.4,5.5-3.4,5.1-6.7-4.3-31.5-1.9-65.2,7-97.6,1-3.1-.8-6.5-3.9-7.4s-6.5.8-7.4,3.9v.3c-9.4,33.9-11.9,69.3-7.4,102.4.4,3,2.9,5.2,5.9,5.1h-.1Z"/>
          <path class="cls-1" d="M36.3,208.2c3.3,0,5.9-2.6,5.9-5.9s0-.8-.1-1.3c-10.6-49.7-6.1-104.8,12.7-155.3,1.1-3.1-.4-6.5-3.5-7.6s-6.5.4-7.6,3.5c-19.6,52.6-24.2,110.1-13.2,161.9.6,2.7,3,4.7,5.8,4.7h0Z"/>
          <circle class="cls-1" cx="387.2" cy="436.2" r="6.7"/>
          <path class="cls-1" d="M369.4,430.3H66.4c-3.3,0-5.9,2.7-5.9,5.9s2.7,5.9,5.9,5.9h303c3.3,0,5.9-2.7,5.9-5.9s-2.7-5.9-5.9-5.9Z"/>
          <path class="cls-2" d="M101.4,359h65.2c3.3,0,5.8-2.9,5.7-6.2-.1-3.1-2.6-5.6-5.7-5.7h-65.2c-3.3,0-5.8,2.9-5.7,6.2.1,3.1,2.6,5.6,5.7,5.7Z"/>
          <path class="cls-2" d="M191.9,364.9h-89.9c-3.3,0-6.1,2.4-6.2,5.7s2.4,6.1,5.7,6.2h90.4c3.3,0,5.8-2.9,5.7-6.2-.1-3.1-2.6-5.6-5.7-5.7Z"/>
          <path class="cls-1" d="M452.6,406.5h-60.1c4.2-5.3,6.5-11.9,6.6-18.7v-129c0-16.9-13.7-30.6-30.6-30.6h-16.7c25.6-51.5,24.2-120.6-5.1-181.6l-10-20.9-22.7,4.6c-22.4,4.5-45.6-.1-64.5-13l-16.7-11.4-16.7,11.4c-18.9,12.9-42.1,17.5-64.5,13l-22.7-4.6-10,20.9c-29.3,61-30.8,130.1-5.1,181.6h-16.7c-16.9,0-30.5,13.7-30.6,30.6v128.9c0,6.8,2.3,13.4,6.6,18.7H13.1c-3.3,0-5.9,2.7-5.9,5.9s2.7,5.9,5.9,5.9h439.6c3.3,0,5.9-2.7,5.9-5.9s-2.7-5.9-5.9-5.9h0ZM129.5,51.8l6-12.5,13.6,2.8c25.5,5.2,52-.2,73.6-14.8l10-6.9,10,6.9c21.5,14.7,48,20,73.6,14.8l13.6-2.8,6,12.5c30.7,63.9,29.4,136.9-3.2,186-9.7,14.5-36.8,50.1-79.9,66.6l-16.3,5.1c-2.4.7-4.9.7-7.3,0l-16.1-5c-43.5-16.6-70.6-52.2-80.3-66.7-32.6-49.1-33.9-122.1-3.2-185.9h0ZM97,406.5c-10.3,0-18.7-8.4-18.7-18.7v-129c0-10.3,8.4-18.7,18.7-18.7h23.3c.9,1.4,1.6,2.8,2.5,4.2,10.3,15.5,39.2,53.4,86.3,71.4l16.5,5.1c4.7,1.5,9.7,1.5,14.4,0l16.8-5.2c46.6-17.8,75.6-55.8,85.9-71.3.9-1.4,1.7-2.8,2.5-4.2h23.3c10.3,0,18.7,8.4,18.7,18.7v129c0,10.3-8.4,18.7-18.7,18.7H96.9h0Z"/>
        </g>
      </g>
    </g>
  </g>
</svg>