<?xml version="1.0" encoding="UTF-8"?>
<svg xmlns="http://www.w3.org/2000/svg" version="1.1" viewBox="0 0 509 483.7">
  <defs>
    <style>
      .cls-1 {
        fill: #fff;
      }

      .cls-2 {
        fill: #feaf08;
      }

      .cls-3 {
        fill: #fabf62;
      }
    </style>
  </defs>
  <!-- Generator: Adobe Illustrator 28.7.1, SVG Export Plug-In . SVG Version: 1.2.0 Build 142)  -->
  <g>
    <g id="Layer_1">
      <g id="Layer_1-2" data-name="Layer_1">
        <g>
          <path class="cls-2" d="M360.7,194.6c1.6,0,3.1-.6,4.2-1.8,15.4-15.8,36.5-24.7,58.6-24.8h.7c19.8,0,38.9,7.1,53.9,20,2.4,2.3,6.1,2.2,8.4-.2,2.3-2.4,2.2-6.1-.2-8.4,0,0-.3-.3-.5-.4-17.2-14.7-39-22.8-61.6-22.8h-.8c-25.2,0-49.4,10.4-67,28.4-2.3,2.3-2.3,6.1,0,8.4,1.1,1.1,2.6,1.7,4.1,1.7h.2Z"/>
          <path class="cls-3" d="M498,194.2c-.9-1.3-2.3-2.2-3.8-2.5-3.3,0-6.1,2.4-6.2,5.8,0,2.7,1.6,5.2,4.2,6h1c2.9,0,5.4-2.1,5.9-4.9.3-1.6,0-3.2-1-4.4h-.1Z"/>
          <path class="cls-2" d="M260.2,337.4c4.3,0,7.8-3.5,7.8-7.8s0-1-.2-1.5l-2.8-14.2c-.7-3.6-3.9-6.2-7.6-6.2h-23c-3.7,0-6.9,2.6-7.6,6.2l-2.8,14.2c-.8,4.2,1.9,8.3,6.1,9.1.5,0,1,.2,1.5.2h1.6l-10.4,124.6c-.4,4.6,3.1,8.7,7.7,9.1h30c4.6,0,8.4-3.8,8.4-8.4v-.7l-10.3-124.6h1.6,0Z"/>
          <path class="cls-1" d="M149.5,170.1c2.3,1.6,2.4,1.8,2.5,2.4h0c9.1,59.3,49.1,102.4,95.2,102.4s86.2-43.1,95.3-102.5h0c0-.5.2-.8,2.5-2.4,4-2.8,10-7.1,13.2-20,4.8-19.9-.5-28.4-5.7-32-1.8-1.2-3.8-1.9-5.9-2.2,2.5-12.2,1.8-24.8-1.8-36.6-14-44.7-45.9-66.4-97.5-66.4s-81.9,20.6-96.4,63.1c-4.3,12.8-5,26.6-2,39.8-2.4.2-4.7,1-6.7,2.4-5.3,3.6-10.5,12-5.7,32,3.1,12.9,9.2,17.1,13.2,19.9h-.2ZM162,79.8c12.9-37.5,39.9-55,85.2-55s73.7,18.5,86.2,58c4,13,3.6,26.9-.9,39.7-.7-1.3-1.5-2.7-2.2-4.1-2-3.9-6-6.3-10.3-6.4-.8,0-1.7,0-2.5.3-9.6,2.1-19.5,3.5-29.3,4l-22.5-22.5c-2.3-2.3-6.1-2.3-8.4,0-2.3,2.3-2.3,6,0,8.3l14,14c-10.5-.5-20.9-2.3-31-5.2-7.6-2.2-14.4-5-21.1-7.6-10.9-4.4-20.4-8.2-29.5-8.2s-9.5,1.1-13.7,3.5c-6.5,3.7-11.3,10-14.6,18.9-3.8-12.4-3.6-25.7.5-38v.3ZM148.7,127.9c1.1-.7,2.7-.3,3.9.5.1,0,.2,0,.3.1,1.5,3.7,3.4,7.3,5.5,10.7,1.1,1.7,3,2.7,5,2.8.4,0,.9,0,1.3-.1,2.5-.6,4.3-2.6,4.6-5.1,1.7-14.5,5.9-23.7,12.6-27.6,7.6-4.4,18.8-.3,32.8,5.4,6.6,2.6,14,5.6,22.1,8,25.3,7.5,53.6,8,82.8,1.3,1,2,2,3.8,3,5.7,1.6,2.9,3.2,5.8,4.7,9.1,1,2,3,3.3,5.2,3.4h.2c2.2,0,4.2-1.2,5.2-3.1,2-3.6,3.6-7.3,5-11.1.8-.4,1.8-.3,2.6.1,1.8,1.2,3.9,6.6.9,19.3-2.1,8.6-5.3,10.9-8.4,13.1-2.7,1.9-6.3,4.4-7.3,9.8h0c-8.1,53.9-43.2,92.9-83.5,92.9s-75.4-39-83.5-92.6v-.2h0c-1.1-5.4-4.7-7.9-7.3-9.8-3.1-2.2-6.4-4.5-8.4-13.1-3.1-12.7-.9-18.1.8-19.3h0v-.2Z"/>
          <path class="cls-1" d="M207.2,168h20.8c3.3,0,6.1-2.4,6.2-5.7s-2.4-6.1-5.7-6.2h-21.3c-3.3,0-6.1,2.4-6.2,5.7s2.4,6.1,5.7,6.2h.5Z"/>
          <path class="cls-1" d="M272.6,168h20.8c3.3,0,5.8-2.9,5.7-6.2,0-3.1-2.6-5.6-5.7-5.7h-20.8c-3.3,0-5.8,2.9-5.7,6.2,0,3.1,2.6,5.6,5.7,5.7Z"/>
          <path class="cls-1" d="M219,221.1c-2,2.6-1.5,6.3,1.1,8.3,8.5,6.5,17.9,9.9,27.1,9.9s18.6-3.4,27.1-9.9c2.6-2,3-5.8,1-8.3s-5.6-3-8.2-1.1c-13.1,9.9-26.7,9.9-39.8,0-2.6-2-6.3-1.4-8.3,1.1Z"/>
          <circle class="cls-2" cx="43.8" cy="387.8" r="7.4"/>
          <path class="cls-2" d="M38.4,203.6v166.4c.1,3.3,2.9,5.8,6.2,5.7,3.1,0,5.6-2.6,5.7-5.7v-166.4c0-6.8-5.5-12.4-12.4-12.4h-16.3l-.4-.7,49.5-61.4h.9l49.5,61.4,4.6-3.7-5,4.4h-16.9c-6.8,0-12.3,5.5-12.4,12.4v83c0,3.3,2.7,5.9,5.9,5.9s5.9-2.7,5.9-5.9v-83c0-.3.2-.5.5-.5h16.9c6.8,0,12.3-5.6,12.3-12.4s-.9-5.4-2.6-7.6l-49.5-61.4c-4.7-6-14.8-5.9-19.4,0l-49.6,61.4c-4.2,5.4-3.3,13.1,2.1,17.4,2.2,1.7,4.9,2.6,7.6,2.6h16.3c.3,0,.5.2.5.5h0Z"/>
          <path class="cls-2" d="M423,179.9c-39.4.3-71,32.5-70.7,71.9s32.5,71,71.9,70.7,71-32.5,70.7-71.9h0c-.3-39.4-32.5-71-71.9-70.7ZM435.2,290.2c-3,2.9-6.9,4.3-11.7,4.3-4.3.2-8.5-1.4-11.6-4.3-2.9-2.6-4.5-6.4-4.5-10.3s1.6-7.7,4.5-10.3c3.2-2.8,7.3-4.3,11.6-4.2,4.8,0,8.7,1.4,11.7,4.2,2.9,2.6,4.5,6.4,4.5,10.3s-1.6,7.7-4.5,10.3h0ZM434.6,260.6h-22l-5.6-52.8h33l-5.4,52.8Z"/>
          <path class="cls-1" d="M430.1,396.8c-3.9-65.8-52.5-120.3-117.5-131.6h-.7c-.7,0-1.4-.2-2.1-.3h-.4c-1.6,0-3.2.4-4.5,1.5-33.6,30.2-84.7,30.2-118.3,0,0,0-.2,0-.3-.2-.4-.3-.8-.5-1.2-.7-.3,0-.5-.2-.8-.3-.4,0-.9-.2-1.3-.2h-1.4l-2,.3c-64.9,11.3-113.6,65.8-117.5,131.6-.1,1.8.6,3.6,2,4.8,40.6,36.4,91.2,59.8,145.2,67h.8c3.3,0,5.8-2.9,5.7-6.2-.1-2.8-2.2-5.1-4.9-5.6-22.7-3-45-9.1-66.1-18v-60.7c.1-3.3-2.4-6.1-5.7-6.2-3.3,0-6.1,2.4-6.2,5.7v55.8c-21.2-10.2-40.9-23.2-58.6-38.7,4.6-56.5,45.3-103.6,100.5-116.2v46.2c0,3.3,2.7,5.9,6,5.9s2.1-.3,3-.8l49.4-29.8c8.4,1.2,16.9,1.2,25.3,0l49.3,29.8c2.8,1.7,6.5.8,8.2-2,.6-.9.8-2,.8-3.1v-46.3c55.6,12.5,96.5,59.6,101.1,116.4-16.2,14.2-34.1,26.3-53.3,36.1v-52.7c0-3.3-2.4-6.1-5.7-6.2-3.3,0-6.1,2.4-6.2,5.7v58.9c-22.9,10.2-47.2,17.1-72.1,20.3-3.3.4-5.5,3.4-5.1,6.7.4,3,2.9,5.2,5.9,5.2h.8c54.2-7.1,105.1-30.5,145.8-67,1.4-1.2,2.1-3,2-4.8v-.3ZM186.8,314.1v-32.6c9,6.5,18.9,11.5,29.5,14.8l-29.5,17.8ZM275.5,296.3c10.6-3.3,20.6-8.2,29.5-14.8v32.6l-29.5-17.8Z"/>
        </g>
      </g>
    </g>
  </g>
</svg>