<?xml version="1.0" encoding="UTF-8"?>
<svg xmlns="http://www.w3.org/2000/svg" version="1.1" viewBox="0 0 327.3 482.6">
  <defs>
    <style>
      .cls-1 {
        fill: #fff;
      }

      .cls-2 {
        fill: #feaf08;
      }

      .cls-3 {
        fill: #ffba08;
      }

      .cls-4 {
        fill: #fabf62;
      }
    </style>
  </defs>
  <!-- Generator: Adobe Illustrator 28.7.1, SVG Export Plug-In . SVG Version: 1.2.0 Build 142)  -->
  <g>
    <g id="Layer_1">
      <g id="Layer_1-2" data-name="Layer_1">
        <g id="Layer_1-2">
          <g id="hand_with_phone">
            <path class="cls-2" d="M268.3,179.1l4.9-3.1v-88.5H106.8v219.9h166.4v-17.2c-8.7-2.7-13.6-11.9-10.9-20.6,1.3-4.4,4.5-8,8.6-10h0c.7-.4,1.5-.7,2.3-1v-5.5c-8.7,2.1-17.6-2.9-20.4-11.4-.5-1.7-.8-3.4-.8-5.1,0-7.5,4.9-14.1,12-16.4l9.2-2.8v-7c-4.2-1.1-7.8-3.7-10.2-7.4-5.1-8.1-2.7-18.7,5.3-23.9h0ZM172.2,271.7c-3.3,0-5.9-2.7-5.9-5.9s2.7-5.9,5.9-5.9,5.9,2.7,5.9,5.9h0c0,3.3-2.7,5.9-5.9,5.9h0ZM243.2,199.4c-1.8,3.9-5.7,6.3-10,6.2h-13.5v78c0,3.3-2.9,5.8-6.2,5.7-3.1,0-5.6-2.6-5.7-5.7v-78.8c0-6.1,5-11.1,11.1-11.1h12.7l-38.2-48.8-38.2,48.7h11.8c6.1,0,11.1,5,11.1,11.1v43.2c0,3.3-2.7,5.9-5.9,5.9s-5.9-2.7-5.9-5.9v-42.3h-12.7c-6.1,0-11.1-4.9-11.1-11.1s.8-4.9,2.4-6.9l39.8-50.7c4.3-5.4,13.2-5.4,17.5,0l39.8,50.8c2.7,3.3,3.1,7.9,1.2,11.7h0Z"/>
            <path class="cls-4" d="M194.4,409.2l-4.4,2.2c1.6-.5,3.1-1.2,4.4-2.2Z"/>
            <path class="cls-3" d="M155.1,369.8c-12.5,1-26.3,2.8-37.9-5.6-12.8-9.2-16.1-25.7-17.1-35.3-2.2,4.3-3.6,9-4.1,13.7-3.1,27.6,10.5,47.9,40.5,47.9h50.8c9.3,0,15.2,12.5,7.1,18.6l25.3-12.6,20-25.3c-36.7-3.9-65-3.1-84.6-1.5h0Z"/>
            <circle class="cls-1" cx="188.8" cy="342.1" r="11.9"/>
            <path class="cls-1" d="M246.7,378.7h4.2c18.9,0,34.2-15.3,34.2-34.2v-47.7h2c12.4-.3,22.3-10.5,22.1-23,0-6-2.6-11.6-6.9-15.8-2.4-2.3-5.3-4-8.4-5.1l3.9-1.2c12.1-3.8,18.9-16.8,15-28.9-2.2-6.9-7.5-12.4-14.3-14.8l10.5-6.7c10.8-6.9,14-21.2,7.1-32-4.3-6.7-11.7-10.8-19.6-10.7-4,0-8,1-11.4,3.1v-13.2l25.7-16.3c10.9-7.2,13.9-21.8,6.7-32.7-7-10.6-21.2-13.8-32.1-7.2l-.4.2v-12.4c0-18.9-15.3-34.2-34.2-34.2h-121.9c-18.9,0-34.1,15.3-34.2,34.2v44.4c-3.5-2.2-7.7-3.2-11.8-3-10.2.6-20.6,9.1-20.8,24.2-.3,28.1-10.4,53.1-19.2,75.1-9,22.3-16.8,41.6-11.8,58.4l1,3.2c3.6,11.7,11.5,37.6,14,56.3l-38.6,34.3c-2.5,2.1-2.8,5.9-.6,8.4,2.1,2.5,5.9,2.8,8.4.6h.1l34.9-31.1,89.7,96.8h0s.1,0,.2.2l7.1,7.7-15,13.9c-2.4,2.2-2.5,6-.3,8.4s6,2.5,8.4.3l19.3-17.9c2.4-2.2,2.6-6,.3-8.4h0l-6.6-7.1c5.9-4.6,10.1-7.8,11.9-9,4.9-3.5,11.9-6.4,20-9.8,19.5-8,43.9-18.1,60.3-45.5.3-.6.6-1.2.7-1.8h.4,0ZM297.2,273.9c0,5.9-4.6,10.8-10.5,10.9l-7.6.2h-.9v-.2c-5.9,0-10.8-4.7-10.8-10.6s4.7-10.8,10.6-10.8h8.6c5.8,0,10.5,4.6,10.7,10.4h-.1ZM301.5,226.4c1.8,5.9-1.4,12.1-7.3,14l-16.2,5.1h0l-.8.3c-.2,0-.3,0-.5.2l-4.1,1.2c-5.9,1.7-12-1.5-14-7.3-1.8-5.9,1.5-12.1,7.3-14l21.6-6.8c1.1-.4,2.2-.5,3.3-.5,4.9,0,9.2,3.2,10.7,7.8h0ZM290.4,172.2c1.8-1.2,3.9-1.8,6.1-1.8,3.9,0,7.5,2,9.6,5.2,1.6,2.5,2.1,5.6,1.5,8.5s-2.4,5.5-5,7.1l-18.9,12c-5.3,3.2-12.2,1.7-15.6-3.4-1.6-2.5-2.1-5.6-1.5-8.6.6-2.9,2.4-5.5,5-7.1l10.9-7,8-5h-.1ZM291.8,102.3c5.5-3.3,12.6-1.7,16.2,3.6,3.5,5.4,1.9,12.7-3.6,16.2l-19.4,12.3v-27.8l6.8-4.3h0ZM106.8,80.1c0-12.3,10-22.3,22.3-22.3h121.8c12.3,0,22.3,10,22.3,22.3v89l-8.1,5.1c-5.2,3.3-8.8,8.6-10.2,14.6-1.4,6-.3,12.3,3,17.5,1.9,3,4.5,5.5,7.5,7.3l-3.3,1.1c-12.1,3.8-18.9,16.7-15.1,28.8,2.2,7.2,7.9,12.9,15.1,15.1-8.8,8.8-8.7,23.1,0,31.9,3,3,6.8,5.1,10.9,6v48.2c0,12.3-10,22.3-22.3,22.3h-121.8c-12.3,0-22.3-10-22.3-22.3V80.2h.2ZM181.2,415c-8.4,3.5-16.4,6.8-22.4,11.1-2.4,1.7-8.1,6.1-13,9.9l-87.1-94c-1.9-20.4-11-50.1-15-63l-1-3.1c-3.8-12.8,3.2-30.3,11.4-50.6,9.3-23,19.8-49.1,20.1-79.4,0-8.2,5-12.3,9.5-12.5,4.3-.3,9.8,3,11.1,13v198.2c0,18.9,15.3,34.1,34.2,34.2h104c-14.3,20.8-34.2,29-51.9,36.3h.1,0Z"/>
            <path class="cls-1" d="M41.2,379.5c-5.4,3.3-7.1,10.3-3.9,15.6s10.3,7.1,15.6,3.9c5.4-3.2,7.1-10.2,3.9-15.6-3.2-5.4-10.2-7.1-15.6-3.9h0Z"/>
            <path class="cls-1" d="M65.2,105.4c3.3,0,6-2.7,6-6v-25.2c0-32,25.9-57.9,57.9-57.9h7.4c3.3,0,5.9-2.7,5.9-5.9s-2.7-5.9-5.9-5.9h-7.4c-38.5,0-69.8,31.3-69.8,69.8v25.2c0,3.3,2.6,5.9,5.9,6h0Z"/>
            <path class="cls-1" d="M158.4,17.6c.4,0,.8.1,1.2.1,3.7,0,6.7-3,6.7-6.7s-.4-2.7-1.2-3.8c-1-1.5-2.6-2.5-4.3-2.8-3.6-.6-7.1,1.8-7.7,5.4h0c-.3,1.8,0,3.6,1.1,5,1,1.5,2.6,2.5,4.3,2.7h-.1Z"/>
            <path class="cls-1" d="M316.7,323c-3.7-.5-7.1,2-7.6,5.7-.5,3.5,1.8,6.8,5.3,7.5h1.1c3.3,0,6-2.3,6.6-5.5.3-1.8,0-3.6-1.1-5-1-1.5-2.5-2.4-4.3-2.7Z"/>
            <path class="cls-1" d="M314.8,343.6c-3.3,0-5.9,2.6-6,5.9h0c0,32-26,57.9-57.9,58-3.3,0-5.8,2.9-5.7,6.2,0,3.1,2.6,5.6,5.7,5.7,38.5,0,69.8-31.3,69.8-69.8s-2.7-5.9-5.9-5.9h0Z"/>
          </g>
        </g>
      </g>
    </g>
  </g>
</svg>